G04 (created by PCBNEW (2011-nov-30)-testing) date Wed 08 Aug 2012 03:26:40 PM CEST*
%MOIN*%
G04 Gerber Fmt 3.4, Leading zero omitted, Abs format*
%FSLAX34Y34*%
G01*
G70*
G90*
G04 APERTURE LIST*
%ADD10C,0.001*%
%ADD11C,0.015*%
%ADD12C,0.005*%
G04 APERTURE END LIST*
G54D10*
G54D11*
X9055Y-18898D02*
X9055Y-7087D01*
X24803Y-18898D02*
X9055Y-18898D01*
X24803Y-7087D02*
X24803Y-18898D01*
X9055Y-7087D02*
X24803Y-7087D01*
G54D10*
X9370Y-11063D02*
X9606Y-11299D01*
X9606Y-11063D02*
X9370Y-11299D01*
X9870Y-11063D02*
X10106Y-11299D01*
X10106Y-11063D02*
X9870Y-11299D01*
X10370Y-11063D02*
X10606Y-11299D01*
X10606Y-11063D02*
X10370Y-11299D01*
X12907Y-14959D02*
X13143Y-15195D01*
X13143Y-14959D02*
X12907Y-15195D01*
X13799Y-14253D02*
X14035Y-14489D01*
X14035Y-14253D02*
X13799Y-14489D01*
X14346Y-11409D02*
X14582Y-11645D01*
X14582Y-11409D02*
X14346Y-11645D01*
X14637Y-10647D02*
X14873Y-10883D01*
X14873Y-10647D02*
X14637Y-10883D01*
X16164Y-15857D02*
X16400Y-16093D01*
X16400Y-15857D02*
X16164Y-16093D01*
X10000Y-14177D02*
G75*
G03X10000Y-14177I-197J0D01*
G74*
G01*
X10000Y-15177D02*
G75*
G03X10000Y-15177I-197J0D01*
G74*
G01*
X10000Y-16177D02*
G75*
G03X10000Y-16177I-197J0D01*
G74*
G01*
X13839Y-17795D02*
G75*
G03X13839Y-17795I-197J0D01*
G74*
G01*
X14114Y-7933D02*
G75*
G03X14114Y-7933I-197J0D01*
G74*
G01*
X14114Y-9705D02*
G75*
G03X14114Y-9705I-197J0D01*
G74*
G01*
X14839Y-17795D02*
G75*
G03X14839Y-17795I-197J0D01*
G74*
G01*
X15839Y-17795D02*
G75*
G03X15839Y-17795I-197J0D01*
G74*
G01*
X16674Y-7933D02*
G75*
G03X16674Y-7933I-197J0D01*
G74*
G01*
X16674Y-9705D02*
G75*
G03X16674Y-9705I-197J0D01*
G74*
G01*
X16839Y-17795D02*
G75*
G03X16839Y-17795I-197J0D01*
G74*
G01*
X17839Y-17795D02*
G75*
G03X17839Y-17795I-197J0D01*
G74*
G01*
X18201Y-7992D02*
G75*
G03X18201Y-7992I-197J0D01*
G74*
G01*
X18839Y-17795D02*
G75*
G03X18839Y-17795I-197J0D01*
G74*
G01*
X19201Y-7992D02*
G75*
G03X19201Y-7992I-197J0D01*
G74*
G01*
X21252Y-17835D02*
G75*
G03X21252Y-17835I-197J0D01*
G74*
G01*
X22252Y-17835D02*
G75*
G03X22252Y-17835I-197J0D01*
G74*
G01*
X10157Y-7599D02*
X10157Y-8779D01*
X9567Y-8189D02*
X10747Y-8189D01*
X10157Y-17205D02*
X10157Y-18385D01*
X9567Y-17795D02*
X10747Y-17795D01*
X23661Y-7638D02*
X23661Y-8818D01*
X23071Y-8228D02*
X24251Y-8228D01*
X23681Y-17186D02*
X23681Y-18366D01*
X23091Y-17776D02*
X24271Y-17776D01*
G54D12*
X6778Y-22693D02*
X6778Y-22193D01*
X6897Y-22193D01*
X6969Y-22217D01*
X7016Y-22265D01*
X7040Y-22312D01*
X7064Y-22408D01*
X7064Y-22479D01*
X7040Y-22574D01*
X7016Y-22622D01*
X6969Y-22670D01*
X6897Y-22693D01*
X6778Y-22693D01*
X7278Y-22693D02*
X7278Y-22360D01*
X7278Y-22455D02*
X7302Y-22408D01*
X7326Y-22384D01*
X7373Y-22360D01*
X7421Y-22360D01*
X7588Y-22693D02*
X7588Y-22360D01*
X7588Y-22193D02*
X7564Y-22217D01*
X7588Y-22241D01*
X7612Y-22217D01*
X7588Y-22193D01*
X7588Y-22241D01*
X7897Y-22693D02*
X7850Y-22670D01*
X7826Y-22622D01*
X7826Y-22193D01*
X8159Y-22693D02*
X8112Y-22670D01*
X8088Y-22622D01*
X8088Y-22193D01*
X8731Y-22693D02*
X8731Y-22193D01*
X8898Y-22551D01*
X9064Y-22193D01*
X9064Y-22693D01*
X9516Y-22693D02*
X9516Y-22431D01*
X9493Y-22384D01*
X9445Y-22360D01*
X9350Y-22360D01*
X9302Y-22384D01*
X9516Y-22670D02*
X9469Y-22693D01*
X9350Y-22693D01*
X9302Y-22670D01*
X9278Y-22622D01*
X9278Y-22574D01*
X9302Y-22527D01*
X9350Y-22503D01*
X9469Y-22503D01*
X9516Y-22479D01*
X9754Y-22360D02*
X9754Y-22860D01*
X9754Y-22384D02*
X9802Y-22360D01*
X9897Y-22360D01*
X9945Y-22384D01*
X9968Y-22408D01*
X9992Y-22455D01*
X9992Y-22598D01*
X9968Y-22646D01*
X9945Y-22670D01*
X9897Y-22693D01*
X9802Y-22693D01*
X9754Y-22670D01*
X10206Y-22646D02*
X10230Y-22670D01*
X10206Y-22693D01*
X10182Y-22670D01*
X10206Y-22646D01*
X10206Y-22693D01*
X10206Y-22384D02*
X10230Y-22408D01*
X10206Y-22431D01*
X10182Y-22408D01*
X10206Y-22384D01*
X10206Y-22431D01*
X6223Y-23423D02*
X6459Y-23659D01*
X6459Y-23423D02*
X6223Y-23659D01*
X6873Y-23243D02*
X6921Y-23243D01*
X6969Y-23267D01*
X6992Y-23291D01*
X7016Y-23339D01*
X7040Y-23434D01*
X7040Y-23553D01*
X7016Y-23648D01*
X6992Y-23696D01*
X6969Y-23720D01*
X6921Y-23743D01*
X6873Y-23743D01*
X6826Y-23720D01*
X6802Y-23696D01*
X6778Y-23648D01*
X6754Y-23553D01*
X6754Y-23434D01*
X6778Y-23339D01*
X6802Y-23291D01*
X6826Y-23267D01*
X6873Y-23243D01*
X7254Y-23696D02*
X7278Y-23720D01*
X7254Y-23743D01*
X7230Y-23720D01*
X7254Y-23696D01*
X7254Y-23743D01*
X7587Y-23243D02*
X7635Y-23243D01*
X7683Y-23267D01*
X7706Y-23291D01*
X7730Y-23339D01*
X7754Y-23434D01*
X7754Y-23553D01*
X7730Y-23648D01*
X7706Y-23696D01*
X7683Y-23720D01*
X7635Y-23743D01*
X7587Y-23743D01*
X7540Y-23720D01*
X7516Y-23696D01*
X7492Y-23648D01*
X7468Y-23553D01*
X7468Y-23434D01*
X7492Y-23339D01*
X7516Y-23291D01*
X7540Y-23267D01*
X7587Y-23243D01*
X7944Y-23291D02*
X7968Y-23267D01*
X8016Y-23243D01*
X8135Y-23243D01*
X8182Y-23267D01*
X8206Y-23291D01*
X8230Y-23339D01*
X8230Y-23386D01*
X8206Y-23458D01*
X7920Y-23743D01*
X8230Y-23743D01*
X8658Y-23410D02*
X8658Y-23743D01*
X8539Y-23220D02*
X8420Y-23577D01*
X8730Y-23577D01*
X8896Y-23243D02*
X8896Y-23339D01*
X9087Y-23243D02*
X9087Y-23339D01*
X10039Y-23220D02*
X9611Y-23862D01*
X10682Y-23243D02*
X10730Y-23243D01*
X10778Y-23267D01*
X10801Y-23291D01*
X10825Y-23339D01*
X10849Y-23434D01*
X10849Y-23553D01*
X10825Y-23648D01*
X10801Y-23696D01*
X10778Y-23720D01*
X10730Y-23743D01*
X10682Y-23743D01*
X10635Y-23720D01*
X10611Y-23696D01*
X10587Y-23648D01*
X10563Y-23553D01*
X10563Y-23434D01*
X10587Y-23339D01*
X10611Y-23291D01*
X10635Y-23267D01*
X10682Y-23243D01*
X11063Y-23696D02*
X11087Y-23720D01*
X11063Y-23743D01*
X11039Y-23720D01*
X11063Y-23696D01*
X11063Y-23743D01*
X11515Y-23243D02*
X11420Y-23243D01*
X11372Y-23267D01*
X11349Y-23291D01*
X11301Y-23362D01*
X11277Y-23458D01*
X11277Y-23648D01*
X11301Y-23696D01*
X11325Y-23720D01*
X11372Y-23743D01*
X11468Y-23743D01*
X11515Y-23720D01*
X11539Y-23696D01*
X11563Y-23648D01*
X11563Y-23529D01*
X11539Y-23481D01*
X11515Y-23458D01*
X11468Y-23434D01*
X11372Y-23434D01*
X11325Y-23458D01*
X11301Y-23481D01*
X11277Y-23529D01*
X11872Y-23243D02*
X11920Y-23243D01*
X11968Y-23267D01*
X11991Y-23291D01*
X12015Y-23339D01*
X12039Y-23434D01*
X12039Y-23553D01*
X12015Y-23648D01*
X11991Y-23696D01*
X11968Y-23720D01*
X11920Y-23743D01*
X11872Y-23743D01*
X11825Y-23720D01*
X11801Y-23696D01*
X11777Y-23648D01*
X11753Y-23553D01*
X11753Y-23434D01*
X11777Y-23339D01*
X11801Y-23291D01*
X11825Y-23267D01*
X11872Y-23243D01*
X12253Y-23743D02*
X12253Y-23410D01*
X12253Y-23458D02*
X12277Y-23434D01*
X12324Y-23410D01*
X12396Y-23410D01*
X12444Y-23434D01*
X12467Y-23481D01*
X12467Y-23743D01*
X12467Y-23481D02*
X12491Y-23434D01*
X12539Y-23410D01*
X12610Y-23410D01*
X12658Y-23434D01*
X12682Y-23481D01*
X12682Y-23743D01*
X12920Y-23743D02*
X12920Y-23410D01*
X12920Y-23458D02*
X12944Y-23434D01*
X12991Y-23410D01*
X13063Y-23410D01*
X13111Y-23434D01*
X13134Y-23481D01*
X13134Y-23743D01*
X13134Y-23481D02*
X13158Y-23434D01*
X13206Y-23410D01*
X13277Y-23410D01*
X13325Y-23434D01*
X13349Y-23481D01*
X13349Y-23743D01*
X14111Y-23934D02*
X14087Y-23910D01*
X14039Y-23839D01*
X14016Y-23791D01*
X13992Y-23720D01*
X13968Y-23601D01*
X13968Y-23505D01*
X13992Y-23386D01*
X14016Y-23315D01*
X14039Y-23267D01*
X14087Y-23196D01*
X14111Y-23172D01*
X14372Y-23458D02*
X14325Y-23434D01*
X14301Y-23410D01*
X14277Y-23362D01*
X14277Y-23339D01*
X14301Y-23291D01*
X14325Y-23267D01*
X14372Y-23243D01*
X14468Y-23243D01*
X14515Y-23267D01*
X14539Y-23291D01*
X14563Y-23339D01*
X14563Y-23362D01*
X14539Y-23410D01*
X14515Y-23434D01*
X14468Y-23458D01*
X14372Y-23458D01*
X14325Y-23481D01*
X14301Y-23505D01*
X14277Y-23553D01*
X14277Y-23648D01*
X14301Y-23696D01*
X14325Y-23720D01*
X14372Y-23743D01*
X14468Y-23743D01*
X14515Y-23720D01*
X14539Y-23696D01*
X14563Y-23648D01*
X14563Y-23553D01*
X14539Y-23505D01*
X14515Y-23481D01*
X14468Y-23458D01*
X15158Y-23743D02*
X15158Y-23243D01*
X15372Y-23743D02*
X15372Y-23481D01*
X15349Y-23434D01*
X15301Y-23410D01*
X15229Y-23410D01*
X15182Y-23434D01*
X15158Y-23458D01*
X15681Y-23743D02*
X15634Y-23720D01*
X15610Y-23696D01*
X15586Y-23648D01*
X15586Y-23505D01*
X15610Y-23458D01*
X15634Y-23434D01*
X15681Y-23410D01*
X15753Y-23410D01*
X15801Y-23434D01*
X15824Y-23458D01*
X15848Y-23505D01*
X15848Y-23648D01*
X15824Y-23696D01*
X15801Y-23720D01*
X15753Y-23743D01*
X15681Y-23743D01*
X16133Y-23743D02*
X16086Y-23720D01*
X16062Y-23672D01*
X16062Y-23243D01*
X16515Y-23720D02*
X16467Y-23743D01*
X16372Y-23743D01*
X16324Y-23720D01*
X16300Y-23672D01*
X16300Y-23481D01*
X16324Y-23434D01*
X16372Y-23410D01*
X16467Y-23410D01*
X16515Y-23434D01*
X16538Y-23481D01*
X16538Y-23529D01*
X16300Y-23577D01*
X16729Y-23720D02*
X16777Y-23743D01*
X16872Y-23743D01*
X16920Y-23720D01*
X16944Y-23672D01*
X16944Y-23648D01*
X16920Y-23601D01*
X16872Y-23577D01*
X16801Y-23577D01*
X16753Y-23553D01*
X16729Y-23505D01*
X16729Y-23481D01*
X16753Y-23434D01*
X16801Y-23410D01*
X16872Y-23410D01*
X16920Y-23434D01*
X17110Y-23934D02*
X17134Y-23910D01*
X17182Y-23839D01*
X17206Y-23791D01*
X17229Y-23720D01*
X17253Y-23601D01*
X17253Y-23505D01*
X17229Y-23386D01*
X17206Y-23315D01*
X17182Y-23267D01*
X17134Y-23196D01*
X17110Y-23172D01*
G54D10*
X6459Y-24201D02*
G75*
G03X6459Y-24201I-197J0D01*
G74*
G01*
G54D12*
X6873Y-23903D02*
X6921Y-23903D01*
X6969Y-23927D01*
X6992Y-23951D01*
X7016Y-23999D01*
X7040Y-24094D01*
X7040Y-24213D01*
X7016Y-24308D01*
X6992Y-24356D01*
X6969Y-24380D01*
X6921Y-24403D01*
X6873Y-24403D01*
X6826Y-24380D01*
X6802Y-24356D01*
X6778Y-24308D01*
X6754Y-24213D01*
X6754Y-24094D01*
X6778Y-23999D01*
X6802Y-23951D01*
X6826Y-23927D01*
X6873Y-23903D01*
X7254Y-24356D02*
X7278Y-24380D01*
X7254Y-24403D01*
X7230Y-24380D01*
X7254Y-24356D01*
X7254Y-24403D01*
X7587Y-23903D02*
X7635Y-23903D01*
X7683Y-23927D01*
X7706Y-23951D01*
X7730Y-23999D01*
X7754Y-24094D01*
X7754Y-24213D01*
X7730Y-24308D01*
X7706Y-24356D01*
X7683Y-24380D01*
X7635Y-24403D01*
X7587Y-24403D01*
X7540Y-24380D01*
X7516Y-24356D01*
X7492Y-24308D01*
X7468Y-24213D01*
X7468Y-24094D01*
X7492Y-23999D01*
X7516Y-23951D01*
X7540Y-23927D01*
X7587Y-23903D01*
X7920Y-23903D02*
X8230Y-23903D01*
X8063Y-24094D01*
X8135Y-24094D01*
X8182Y-24118D01*
X8206Y-24141D01*
X8230Y-24189D01*
X8230Y-24308D01*
X8206Y-24356D01*
X8182Y-24380D01*
X8135Y-24403D01*
X7992Y-24403D01*
X7944Y-24380D01*
X7920Y-24356D01*
X8468Y-24403D02*
X8563Y-24403D01*
X8611Y-24380D01*
X8635Y-24356D01*
X8682Y-24284D01*
X8706Y-24189D01*
X8706Y-23999D01*
X8682Y-23951D01*
X8658Y-23927D01*
X8611Y-23903D01*
X8515Y-23903D01*
X8468Y-23927D01*
X8444Y-23951D01*
X8420Y-23999D01*
X8420Y-24118D01*
X8444Y-24165D01*
X8468Y-24189D01*
X8515Y-24213D01*
X8611Y-24213D01*
X8658Y-24189D01*
X8682Y-24165D01*
X8706Y-24118D01*
X8896Y-23903D02*
X8896Y-23999D01*
X9087Y-23903D02*
X9087Y-23999D01*
X10039Y-23880D02*
X9611Y-24522D01*
X10849Y-24403D02*
X10563Y-24403D01*
X10706Y-24403D02*
X10706Y-23903D01*
X10658Y-23975D01*
X10611Y-24022D01*
X10563Y-24046D01*
X11063Y-24356D02*
X11087Y-24380D01*
X11063Y-24403D01*
X11039Y-24380D01*
X11063Y-24356D01*
X11063Y-24403D01*
X11396Y-23903D02*
X11444Y-23903D01*
X11492Y-23927D01*
X11515Y-23951D01*
X11539Y-23999D01*
X11563Y-24094D01*
X11563Y-24213D01*
X11539Y-24308D01*
X11515Y-24356D01*
X11492Y-24380D01*
X11444Y-24403D01*
X11396Y-24403D01*
X11349Y-24380D01*
X11325Y-24356D01*
X11301Y-24308D01*
X11277Y-24213D01*
X11277Y-24094D01*
X11301Y-23999D01*
X11325Y-23951D01*
X11349Y-23927D01*
X11396Y-23903D01*
X11872Y-23903D02*
X11920Y-23903D01*
X11968Y-23927D01*
X11991Y-23951D01*
X12015Y-23999D01*
X12039Y-24094D01*
X12039Y-24213D01*
X12015Y-24308D01*
X11991Y-24356D01*
X11968Y-24380D01*
X11920Y-24403D01*
X11872Y-24403D01*
X11825Y-24380D01*
X11801Y-24356D01*
X11777Y-24308D01*
X11753Y-24213D01*
X11753Y-24094D01*
X11777Y-23999D01*
X11801Y-23951D01*
X11825Y-23927D01*
X11872Y-23903D01*
X12253Y-24403D02*
X12253Y-24070D01*
X12253Y-24118D02*
X12277Y-24094D01*
X12324Y-24070D01*
X12396Y-24070D01*
X12444Y-24094D01*
X12467Y-24141D01*
X12467Y-24403D01*
X12467Y-24141D02*
X12491Y-24094D01*
X12539Y-24070D01*
X12610Y-24070D01*
X12658Y-24094D01*
X12682Y-24141D01*
X12682Y-24403D01*
X12920Y-24403D02*
X12920Y-24070D01*
X12920Y-24118D02*
X12944Y-24094D01*
X12991Y-24070D01*
X13063Y-24070D01*
X13111Y-24094D01*
X13134Y-24141D01*
X13134Y-24403D01*
X13134Y-24141D02*
X13158Y-24094D01*
X13206Y-24070D01*
X13277Y-24070D01*
X13325Y-24094D01*
X13349Y-24141D01*
X13349Y-24403D01*
X14111Y-24594D02*
X14087Y-24570D01*
X14039Y-24499D01*
X14016Y-24451D01*
X13992Y-24380D01*
X13968Y-24261D01*
X13968Y-24165D01*
X13992Y-24046D01*
X14016Y-23975D01*
X14039Y-23927D01*
X14087Y-23856D01*
X14111Y-23832D01*
X14563Y-24403D02*
X14277Y-24403D01*
X14420Y-24403D02*
X14420Y-23903D01*
X14372Y-23975D01*
X14325Y-24022D01*
X14277Y-24046D01*
X14729Y-23903D02*
X15063Y-23903D01*
X14848Y-24403D01*
X15634Y-24403D02*
X15634Y-23903D01*
X15848Y-24403D02*
X15848Y-24141D01*
X15825Y-24094D01*
X15777Y-24070D01*
X15705Y-24070D01*
X15658Y-24094D01*
X15634Y-24118D01*
X16157Y-24403D02*
X16110Y-24380D01*
X16086Y-24356D01*
X16062Y-24308D01*
X16062Y-24165D01*
X16086Y-24118D01*
X16110Y-24094D01*
X16157Y-24070D01*
X16229Y-24070D01*
X16277Y-24094D01*
X16300Y-24118D01*
X16324Y-24165D01*
X16324Y-24308D01*
X16300Y-24356D01*
X16277Y-24380D01*
X16229Y-24403D01*
X16157Y-24403D01*
X16609Y-24403D02*
X16562Y-24380D01*
X16538Y-24332D01*
X16538Y-23903D01*
X16991Y-24380D02*
X16943Y-24403D01*
X16848Y-24403D01*
X16800Y-24380D01*
X16776Y-24332D01*
X16776Y-24141D01*
X16800Y-24094D01*
X16848Y-24070D01*
X16943Y-24070D01*
X16991Y-24094D01*
X17014Y-24141D01*
X17014Y-24189D01*
X16776Y-24237D01*
X17205Y-24380D02*
X17253Y-24403D01*
X17348Y-24403D01*
X17396Y-24380D01*
X17420Y-24332D01*
X17420Y-24308D01*
X17396Y-24261D01*
X17348Y-24237D01*
X17277Y-24237D01*
X17229Y-24213D01*
X17205Y-24165D01*
X17205Y-24141D01*
X17229Y-24094D01*
X17277Y-24070D01*
X17348Y-24070D01*
X17396Y-24094D01*
X17586Y-24594D02*
X17610Y-24570D01*
X17658Y-24499D01*
X17682Y-24451D01*
X17705Y-24380D01*
X17729Y-24261D01*
X17729Y-24165D01*
X17705Y-24046D01*
X17682Y-23975D01*
X17658Y-23927D01*
X17610Y-23856D01*
X17586Y-23832D01*
X5868Y-24271D02*
X5868Y-25451D01*
X5278Y-24861D02*
X6458Y-24861D01*
X6873Y-24563D02*
X6921Y-24563D01*
X6969Y-24587D01*
X6992Y-24611D01*
X7016Y-24659D01*
X7040Y-24754D01*
X7040Y-24873D01*
X7016Y-24968D01*
X6992Y-25016D01*
X6969Y-25040D01*
X6921Y-25063D01*
X6873Y-25063D01*
X6826Y-25040D01*
X6802Y-25016D01*
X6778Y-24968D01*
X6754Y-24873D01*
X6754Y-24754D01*
X6778Y-24659D01*
X6802Y-24611D01*
X6826Y-24587D01*
X6873Y-24563D01*
X7254Y-25016D02*
X7278Y-25040D01*
X7254Y-25063D01*
X7230Y-25040D01*
X7254Y-25016D01*
X7254Y-25063D01*
X7754Y-25063D02*
X7468Y-25063D01*
X7611Y-25063D02*
X7611Y-24563D01*
X7563Y-24635D01*
X7516Y-24682D01*
X7468Y-24706D01*
X8230Y-25063D02*
X7944Y-25063D01*
X8087Y-25063D02*
X8087Y-24563D01*
X8039Y-24635D01*
X7992Y-24682D01*
X7944Y-24706D01*
X8515Y-24778D02*
X8468Y-24754D01*
X8444Y-24730D01*
X8420Y-24682D01*
X8420Y-24659D01*
X8444Y-24611D01*
X8468Y-24587D01*
X8515Y-24563D01*
X8611Y-24563D01*
X8658Y-24587D01*
X8682Y-24611D01*
X8706Y-24659D01*
X8706Y-24682D01*
X8682Y-24730D01*
X8658Y-24754D01*
X8611Y-24778D01*
X8515Y-24778D01*
X8468Y-24801D01*
X8444Y-24825D01*
X8420Y-24873D01*
X8420Y-24968D01*
X8444Y-25016D01*
X8468Y-25040D01*
X8515Y-25063D01*
X8611Y-25063D01*
X8658Y-25040D01*
X8682Y-25016D01*
X8706Y-24968D01*
X8706Y-24873D01*
X8682Y-24825D01*
X8658Y-24801D01*
X8611Y-24778D01*
X8896Y-24563D02*
X8896Y-24659D01*
X9087Y-24563D02*
X9087Y-24659D01*
X10039Y-24540D02*
X9611Y-25182D01*
X10539Y-24563D02*
X10849Y-24563D01*
X10682Y-24754D01*
X10754Y-24754D01*
X10801Y-24778D01*
X10825Y-24801D01*
X10849Y-24849D01*
X10849Y-24968D01*
X10825Y-25016D01*
X10801Y-25040D01*
X10754Y-25063D01*
X10611Y-25063D01*
X10563Y-25040D01*
X10539Y-25016D01*
X11063Y-25016D02*
X11087Y-25040D01*
X11063Y-25063D01*
X11039Y-25040D01*
X11063Y-25016D01*
X11063Y-25063D01*
X11396Y-24563D02*
X11444Y-24563D01*
X11492Y-24587D01*
X11515Y-24611D01*
X11539Y-24659D01*
X11563Y-24754D01*
X11563Y-24873D01*
X11539Y-24968D01*
X11515Y-25016D01*
X11492Y-25040D01*
X11444Y-25063D01*
X11396Y-25063D01*
X11349Y-25040D01*
X11325Y-25016D01*
X11301Y-24968D01*
X11277Y-24873D01*
X11277Y-24754D01*
X11301Y-24659D01*
X11325Y-24611D01*
X11349Y-24587D01*
X11396Y-24563D01*
X11872Y-24563D02*
X11920Y-24563D01*
X11968Y-24587D01*
X11991Y-24611D01*
X12015Y-24659D01*
X12039Y-24754D01*
X12039Y-24873D01*
X12015Y-24968D01*
X11991Y-25016D01*
X11968Y-25040D01*
X11920Y-25063D01*
X11872Y-25063D01*
X11825Y-25040D01*
X11801Y-25016D01*
X11777Y-24968D01*
X11753Y-24873D01*
X11753Y-24754D01*
X11777Y-24659D01*
X11801Y-24611D01*
X11825Y-24587D01*
X11872Y-24563D01*
X12253Y-25063D02*
X12253Y-24730D01*
X12253Y-24778D02*
X12277Y-24754D01*
X12324Y-24730D01*
X12396Y-24730D01*
X12444Y-24754D01*
X12467Y-24801D01*
X12467Y-25063D01*
X12467Y-24801D02*
X12491Y-24754D01*
X12539Y-24730D01*
X12610Y-24730D01*
X12658Y-24754D01*
X12682Y-24801D01*
X12682Y-25063D01*
X12920Y-25063D02*
X12920Y-24730D01*
X12920Y-24778D02*
X12944Y-24754D01*
X12991Y-24730D01*
X13063Y-24730D01*
X13111Y-24754D01*
X13134Y-24801D01*
X13134Y-25063D01*
X13134Y-24801D02*
X13158Y-24754D01*
X13206Y-24730D01*
X13277Y-24730D01*
X13325Y-24754D01*
X13349Y-24801D01*
X13349Y-25063D01*
X14111Y-25254D02*
X14087Y-25230D01*
X14039Y-25159D01*
X14016Y-25111D01*
X13992Y-25040D01*
X13968Y-24921D01*
X13968Y-24825D01*
X13992Y-24706D01*
X14016Y-24635D01*
X14039Y-24587D01*
X14087Y-24516D01*
X14111Y-24492D01*
X14515Y-24730D02*
X14515Y-25063D01*
X14396Y-24540D02*
X14277Y-24897D01*
X14587Y-24897D01*
X15158Y-25063D02*
X15158Y-24563D01*
X15372Y-25063D02*
X15372Y-24801D01*
X15349Y-24754D01*
X15301Y-24730D01*
X15229Y-24730D01*
X15182Y-24754D01*
X15158Y-24778D01*
X15681Y-25063D02*
X15634Y-25040D01*
X15610Y-25016D01*
X15586Y-24968D01*
X15586Y-24825D01*
X15610Y-24778D01*
X15634Y-24754D01*
X15681Y-24730D01*
X15753Y-24730D01*
X15801Y-24754D01*
X15824Y-24778D01*
X15848Y-24825D01*
X15848Y-24968D01*
X15824Y-25016D01*
X15801Y-25040D01*
X15753Y-25063D01*
X15681Y-25063D01*
X16133Y-25063D02*
X16086Y-25040D01*
X16062Y-24992D01*
X16062Y-24563D01*
X16515Y-25040D02*
X16467Y-25063D01*
X16372Y-25063D01*
X16324Y-25040D01*
X16300Y-24992D01*
X16300Y-24801D01*
X16324Y-24754D01*
X16372Y-24730D01*
X16467Y-24730D01*
X16515Y-24754D01*
X16538Y-24801D01*
X16538Y-24849D01*
X16300Y-24897D01*
X16729Y-25040D02*
X16777Y-25063D01*
X16872Y-25063D01*
X16920Y-25040D01*
X16944Y-24992D01*
X16944Y-24968D01*
X16920Y-24921D01*
X16872Y-24897D01*
X16801Y-24897D01*
X16753Y-24873D01*
X16729Y-24825D01*
X16729Y-24801D01*
X16753Y-24754D01*
X16801Y-24730D01*
X16872Y-24730D01*
X16920Y-24754D01*
X17110Y-25254D02*
X17134Y-25230D01*
X17182Y-25159D01*
X17206Y-25111D01*
X17229Y-25040D01*
X17253Y-24921D01*
X17253Y-24825D01*
X17229Y-24706D01*
X17206Y-24635D01*
X17182Y-24587D01*
X17134Y-24516D01*
X17110Y-24492D01*
M02*
