M48
;DRILL file {Pcbnew (2011-nov-30)-testing} date Wed 08 Aug 2012 03:26:32 PM CEST
;FORMAT={-:-/ absolute / inch / decimal}
FMAT,2
INCH,TZ
T1C0.024
T2C0.039
T3C0.118
%
G90
G05
M72
T1
X0.9488Y-1.1181
X0.9988Y-1.1181
X1.0488Y-1.1181
X1.3025Y-1.5077
X1.3917Y-1.4371
X1.4464Y-1.1527
X1.4755Y-1.0765
X1.6282Y-1.5975
T2
X0.9803Y-1.4177
X0.9803Y-1.5177
X0.9803Y-1.6177
X1.3642Y-1.7795
X1.3917Y-0.7933
X1.3917Y-0.9705
X1.4642Y-1.7795
X1.5642Y-1.7795
X1.6477Y-0.7933
X1.6477Y-0.9705
X1.6642Y-1.7795
X1.7642Y-1.7795
X1.8004Y-0.7992
X1.8642Y-1.7795
X1.9004Y-0.7992
X2.1055Y-1.7835
X2.2055Y-1.7835
T3
X1.0157Y-0.8189
X1.0157Y-1.7795
X2.3661Y-0.8228
X2.3681Y-1.7776
T0
M30
