G04 (created by PCBNEW-RS274X (2011-nov-30)-testing) date Wed 08 Aug 2012 11:28:05 AM CEST*
%MOIN*%
G04 Gerber Fmt 3.4, Leading zero omitted, Abs format*
%FSLAX34Y34*%
G01*
G70*
G90*
G04 APERTURE LIST*
%ADD10C,0.006*%
%ADD11C,0.015*%
%ADD12C,0.005*%
%ADD13C,0.0079*%
%ADD14C,0.012*%
%ADD15C,0.1*%
%ADD16C,0.0026*%
%ADD17C,0.004*%
%ADD18C,0.0045*%
%ADD19C,0.0031*%
%ADD20C,0.008*%
%ADD21C,0.0125*%
%ADD22C,0.01*%
%ADD23C,0.0035*%
%ADD24C,0.003*%
G04 APERTURE END LIST*
G54D10*
G54D11*
X9685Y-11143D02*
G75*
G03X9685Y-11143I-1181J0D01*
G74*
G01*
X10473Y-11143D02*
G75*
G03X10473Y-11143I-1969J0D01*
G74*
G01*
G54D12*
X12027Y-16632D02*
X12027Y-16832D01*
X12027Y-16832D02*
X12497Y-16832D01*
X12027Y-16632D02*
X12497Y-16632D01*
X12027Y-16042D02*
X12497Y-16042D01*
X12027Y-16242D02*
X12497Y-16242D01*
X12027Y-16042D02*
X12027Y-16242D01*
X12027Y-15452D02*
X12027Y-15652D01*
X12027Y-15652D02*
X12497Y-15652D01*
X12027Y-15452D02*
X12497Y-15452D01*
X13722Y-15787D02*
X13722Y-16497D01*
X13722Y-16497D02*
X13527Y-16497D01*
X13722Y-15787D02*
X13527Y-15787D01*
X12497Y-15237D02*
X13527Y-15237D01*
X13527Y-15237D02*
X13527Y-17047D01*
X13527Y-17047D02*
X12497Y-17047D01*
X12497Y-17047D02*
X12497Y-15237D01*
X19524Y-10155D02*
X19524Y-9255D01*
X19524Y-9255D02*
X18874Y-9255D01*
X18174Y-10155D02*
X17524Y-10155D01*
X17524Y-10155D02*
X17524Y-9255D01*
X17524Y-9255D02*
X18174Y-9255D01*
X18874Y-10155D02*
X19524Y-10155D01*
X15978Y-12306D02*
X15978Y-13206D01*
X15978Y-13206D02*
X15478Y-13206D01*
X15478Y-13206D02*
X15478Y-12306D01*
X15478Y-12306D02*
X15978Y-12306D01*
X11010Y-16296D02*
X11010Y-15396D01*
X11010Y-15396D02*
X11510Y-15396D01*
X11510Y-15396D02*
X11510Y-16296D01*
X11510Y-16296D02*
X11010Y-16296D01*
X12407Y-11001D02*
X12407Y-10101D01*
X12407Y-10101D02*
X12907Y-10101D01*
X12907Y-10101D02*
X12907Y-11001D01*
X12907Y-11001D02*
X12407Y-11001D01*
X20289Y-17148D02*
X20289Y-18048D01*
X20289Y-18048D02*
X19789Y-18048D01*
X19789Y-18048D02*
X19789Y-17148D01*
X19789Y-17148D02*
X20289Y-17148D01*
X11648Y-10731D02*
X11648Y-11631D01*
X11648Y-11631D02*
X11148Y-11631D01*
X11148Y-11631D02*
X11148Y-10731D01*
X11148Y-10731D02*
X11648Y-10731D01*
G54D11*
X24587Y-10768D02*
X26792Y-10768D01*
X26792Y-10768D02*
X26792Y-16044D01*
X26792Y-16044D02*
X24587Y-16044D01*
X16713Y-10768D02*
X24587Y-10768D01*
X24587Y-10768D02*
X24587Y-16044D01*
X24587Y-16044D02*
X16713Y-16044D01*
X16713Y-16044D02*
X16713Y-10768D01*
G54D13*
X14881Y-12067D02*
X14881Y-13641D01*
X14881Y-13641D02*
X13307Y-13641D01*
X13307Y-13641D02*
X13307Y-12067D01*
X13307Y-12067D02*
X14881Y-12067D01*
X14693Y-12342D02*
G75*
G03X14693Y-12342I-87J0D01*
G74*
G01*
G54D14*
X13142Y-19295D02*
X14142Y-18295D01*
X14142Y-18295D02*
X14142Y-19295D01*
X14142Y-19295D02*
X13142Y-18295D01*
G54D11*
X13642Y-17795D02*
X13642Y-21795D01*
X18642Y-17795D02*
X18642Y-21795D01*
X17642Y-17795D02*
X17642Y-21795D01*
X16642Y-17795D02*
X16642Y-21795D01*
X15642Y-21795D02*
X15642Y-17795D01*
X14642Y-17795D02*
X14642Y-21795D01*
G54D14*
X13142Y-19295D02*
X13142Y-18295D01*
X13142Y-18295D02*
X19142Y-18295D01*
X19142Y-18295D02*
X19142Y-19295D01*
X19142Y-19295D02*
X13142Y-19295D01*
X10303Y-15677D02*
X9303Y-15677D01*
X9303Y-16677D02*
X9303Y-13677D01*
X9303Y-13677D02*
X10303Y-13677D01*
X10303Y-13677D02*
X10303Y-16677D01*
X10303Y-16677D02*
X9303Y-16677D01*
X21555Y-17335D02*
X21555Y-18335D01*
X21555Y-18335D02*
X20555Y-17335D01*
X20555Y-18335D02*
X21555Y-17335D01*
X22555Y-18335D02*
X20555Y-18335D01*
X20555Y-17335D02*
X22555Y-17335D01*
X20555Y-18335D02*
X20555Y-17335D01*
X22555Y-17335D02*
X22555Y-18335D01*
X18504Y-8492D02*
X18504Y-7492D01*
X18504Y-7492D02*
X19504Y-8492D01*
X19504Y-7492D02*
X18504Y-8492D01*
X17504Y-7492D02*
X19504Y-7492D01*
X19504Y-8492D02*
X17504Y-8492D01*
X19504Y-7492D02*
X19504Y-8492D01*
X17504Y-8492D02*
X17504Y-7492D01*
X13997Y-10019D02*
X13997Y-7619D01*
X13997Y-7619D02*
X16397Y-7619D01*
X16397Y-7619D02*
X16397Y-10019D01*
X16397Y-10019D02*
X13997Y-10019D01*
G54D15*
X15513Y-8819D02*
G75*
G03X15513Y-8819I-316J0D01*
G74*
G01*
G54D16*
X12028Y-9429D02*
X12106Y-9429D01*
X12106Y-9429D02*
X12106Y-9351D01*
X12028Y-9351D02*
X12106Y-9351D01*
X12028Y-9429D02*
X12028Y-9351D01*
X12244Y-9665D02*
X12381Y-9665D01*
X12381Y-9665D02*
X12381Y-9567D01*
X12244Y-9567D02*
X12381Y-9567D01*
X12244Y-9665D02*
X12244Y-9567D01*
X12381Y-9665D02*
X12421Y-9665D01*
X12421Y-9665D02*
X12421Y-9194D01*
X12381Y-9194D02*
X12421Y-9194D01*
X12381Y-9665D02*
X12381Y-9194D01*
X12381Y-9174D02*
X12421Y-9174D01*
X12421Y-9174D02*
X12421Y-9115D01*
X12381Y-9115D02*
X12421Y-9115D01*
X12381Y-9174D02*
X12381Y-9115D01*
X11713Y-9665D02*
X11753Y-9665D01*
X11753Y-9665D02*
X11753Y-9194D01*
X11713Y-9194D02*
X11753Y-9194D01*
X11713Y-9665D02*
X11713Y-9194D01*
X11713Y-9174D02*
X11753Y-9174D01*
X11753Y-9174D02*
X11753Y-9115D01*
X11713Y-9115D02*
X11753Y-9115D01*
X11713Y-9174D02*
X11713Y-9115D01*
X12244Y-9665D02*
X12303Y-9665D01*
X12303Y-9665D02*
X12303Y-9567D01*
X12244Y-9567D02*
X12303Y-9567D01*
X12244Y-9665D02*
X12244Y-9567D01*
G54D17*
X12677Y-9685D02*
X11457Y-9685D01*
X11457Y-9685D02*
X11457Y-9095D01*
X11457Y-9095D02*
X12677Y-9095D01*
X12677Y-9095D02*
X12677Y-9685D01*
X11852Y-9586D02*
G75*
G03X12283Y-9585I215J196D01*
G74*
G01*
X11852Y-9194D02*
G75*
G03X11851Y-9585I215J-196D01*
G74*
G01*
X12282Y-9194D02*
G75*
G03X11851Y-9195I-215J-196D01*
G74*
G01*
X12282Y-9586D02*
G75*
G03X12283Y-9195I-215J196D01*
G74*
G01*
G54D11*
X9173Y-10748D02*
X10787Y-10748D01*
X10787Y-10748D02*
X10787Y-11614D01*
X10787Y-11614D02*
X9173Y-11614D01*
X9173Y-11614D02*
X9173Y-10748D01*
G54D12*
X11540Y-13172D02*
X11340Y-13472D01*
X11540Y-12472D02*
X11540Y-13497D01*
X11540Y-13497D02*
X10940Y-13497D01*
X10940Y-13497D02*
X10940Y-12472D01*
X10940Y-12472D02*
X11540Y-12472D01*
X11597Y-13943D02*
X12497Y-13943D01*
X12497Y-13943D02*
X12497Y-14443D01*
X12497Y-14443D02*
X11597Y-14443D01*
X11597Y-14443D02*
X11597Y-13943D01*
G54D13*
X14607Y-16452D02*
X14926Y-16452D01*
X14964Y-16433D01*
X14983Y-16415D01*
X15001Y-16377D01*
X15001Y-16302D01*
X14983Y-16265D01*
X14964Y-16246D01*
X14926Y-16227D01*
X14607Y-16227D01*
X14607Y-16077D02*
X14607Y-15833D01*
X14758Y-15964D01*
X14758Y-15908D01*
X14776Y-15870D01*
X14795Y-15852D01*
X14833Y-15833D01*
X14926Y-15833D01*
X14964Y-15852D01*
X14983Y-15870D01*
X15001Y-15908D01*
X15001Y-16020D01*
X14983Y-16058D01*
X14964Y-16077D01*
G54D12*
X18474Y-9798D02*
X18460Y-9812D01*
X18417Y-9826D01*
X18388Y-9826D01*
X18345Y-9812D01*
X18317Y-9784D01*
X18302Y-9755D01*
X18288Y-9698D01*
X18288Y-9655D01*
X18302Y-9598D01*
X18317Y-9569D01*
X18345Y-9541D01*
X18388Y-9526D01*
X18417Y-9526D01*
X18460Y-9541D01*
X18474Y-9555D01*
X18574Y-9526D02*
X18760Y-9526D01*
X18660Y-9641D01*
X18702Y-9641D01*
X18731Y-9655D01*
X18745Y-9669D01*
X18760Y-9698D01*
X18760Y-9769D01*
X18745Y-9798D01*
X18731Y-9812D01*
X18702Y-9826D01*
X18617Y-9826D01*
X18588Y-9812D01*
X18574Y-9798D01*
G54D18*
X15790Y-12785D02*
X15799Y-12794D01*
X15809Y-12820D01*
X15809Y-12837D01*
X15799Y-12862D01*
X15780Y-12880D01*
X15761Y-12888D01*
X15723Y-12897D01*
X15695Y-12897D01*
X15657Y-12888D01*
X15638Y-12880D01*
X15618Y-12862D01*
X15609Y-12837D01*
X15609Y-12820D01*
X15618Y-12794D01*
X15628Y-12785D01*
X15809Y-12614D02*
X15809Y-12717D01*
X15809Y-12665D02*
X15609Y-12665D01*
X15638Y-12682D01*
X15657Y-12700D01*
X15666Y-12717D01*
X11322Y-15875D02*
X11331Y-15884D01*
X11341Y-15910D01*
X11341Y-15927D01*
X11331Y-15952D01*
X11312Y-15970D01*
X11293Y-15978D01*
X11255Y-15987D01*
X11227Y-15987D01*
X11189Y-15978D01*
X11170Y-15970D01*
X11150Y-15952D01*
X11141Y-15927D01*
X11141Y-15910D01*
X11150Y-15884D01*
X11160Y-15875D01*
X11160Y-15807D02*
X11150Y-15798D01*
X11141Y-15781D01*
X11141Y-15738D01*
X11150Y-15721D01*
X11160Y-15712D01*
X11179Y-15704D01*
X11198Y-15704D01*
X11227Y-15712D01*
X11341Y-15815D01*
X11341Y-15704D01*
X12738Y-10580D02*
X12643Y-10640D01*
X12738Y-10683D02*
X12538Y-10683D01*
X12538Y-10615D01*
X12547Y-10597D01*
X12557Y-10589D01*
X12576Y-10580D01*
X12605Y-10580D01*
X12624Y-10589D01*
X12633Y-10597D01*
X12643Y-10615D01*
X12643Y-10683D01*
X12557Y-10512D02*
X12547Y-10503D01*
X12538Y-10486D01*
X12538Y-10443D01*
X12547Y-10426D01*
X12557Y-10417D01*
X12576Y-10409D01*
X12595Y-10409D01*
X12624Y-10417D01*
X12738Y-10520D01*
X12738Y-10409D01*
X20120Y-17627D02*
X20025Y-17687D01*
X20120Y-17730D02*
X19920Y-17730D01*
X19920Y-17662D01*
X19929Y-17644D01*
X19939Y-17636D01*
X19958Y-17627D01*
X19987Y-17627D01*
X20006Y-17636D01*
X20015Y-17644D01*
X20025Y-17662D01*
X20025Y-17730D01*
X20120Y-17456D02*
X20120Y-17559D01*
X20120Y-17507D02*
X19920Y-17507D01*
X19949Y-17524D01*
X19968Y-17542D01*
X19977Y-17559D01*
X11460Y-11210D02*
X11469Y-11219D01*
X11479Y-11245D01*
X11479Y-11262D01*
X11469Y-11287D01*
X11450Y-11305D01*
X11431Y-11313D01*
X11393Y-11322D01*
X11365Y-11322D01*
X11327Y-11313D01*
X11308Y-11305D01*
X11288Y-11287D01*
X11279Y-11262D01*
X11279Y-11245D01*
X11288Y-11219D01*
X11298Y-11210D01*
X11346Y-11056D02*
X11479Y-11056D01*
X11269Y-11099D02*
X11412Y-11142D01*
X11412Y-11030D01*
G54D14*
X21435Y-14060D02*
X21921Y-14060D01*
X21978Y-14032D01*
X22006Y-14003D01*
X22035Y-13946D01*
X22035Y-13832D01*
X22006Y-13774D01*
X21978Y-13746D01*
X21921Y-13717D01*
X21435Y-13717D01*
X22035Y-13117D02*
X22035Y-13460D01*
X22035Y-13288D02*
X21435Y-13288D01*
X21521Y-13345D01*
X21578Y-13403D01*
X21606Y-13460D01*
X20854Y-14459D02*
X20568Y-14659D01*
X20854Y-14802D02*
X20254Y-14802D01*
X20254Y-14574D01*
X20282Y-14516D01*
X20311Y-14488D01*
X20368Y-14459D01*
X20454Y-14459D01*
X20511Y-14488D01*
X20540Y-14516D01*
X20568Y-14574D01*
X20568Y-14802D01*
X20854Y-14202D02*
X20254Y-14202D01*
X20854Y-13859D01*
X20254Y-13859D01*
X20454Y-13316D02*
X20854Y-13316D01*
X20225Y-13459D02*
X20654Y-13602D01*
X20654Y-13230D01*
X20311Y-13031D02*
X20282Y-13002D01*
X20254Y-12945D01*
X20254Y-12802D01*
X20282Y-12745D01*
X20311Y-12716D01*
X20368Y-12688D01*
X20425Y-12688D01*
X20511Y-12716D01*
X20854Y-13059D01*
X20854Y-12688D01*
G54D19*
X13974Y-13902D02*
X13974Y-14029D01*
X13982Y-14044D01*
X13989Y-14052D01*
X14004Y-14059D01*
X14034Y-14059D01*
X14049Y-14052D01*
X14057Y-14044D01*
X14064Y-14029D01*
X14064Y-13902D01*
X14131Y-13917D02*
X14138Y-13910D01*
X14153Y-13902D01*
X14191Y-13902D01*
X14206Y-13910D01*
X14213Y-13917D01*
X14221Y-13932D01*
X14221Y-13947D01*
X14213Y-13969D01*
X14123Y-14059D01*
X14221Y-14059D01*
X13049Y-11697D02*
X13049Y-11540D01*
X13109Y-11540D01*
X13124Y-11548D01*
X13132Y-11555D01*
X13139Y-11570D01*
X13139Y-11592D01*
X13132Y-11607D01*
X13124Y-11615D01*
X13109Y-11622D01*
X13049Y-11622D01*
X13206Y-11697D02*
X13206Y-11540D01*
X13371Y-11682D02*
X13364Y-11690D01*
X13341Y-11697D01*
X13326Y-11697D01*
X13304Y-11690D01*
X13289Y-11675D01*
X13281Y-11660D01*
X13274Y-11630D01*
X13274Y-11607D01*
X13281Y-11577D01*
X13289Y-11562D01*
X13304Y-11548D01*
X13326Y-11540D01*
X13341Y-11540D01*
X13364Y-11548D01*
X13371Y-11555D01*
X13521Y-11697D02*
X13431Y-11697D01*
X13476Y-11697D02*
X13476Y-11540D01*
X13461Y-11562D01*
X13446Y-11577D01*
X13431Y-11585D01*
X13611Y-11607D02*
X13596Y-11600D01*
X13588Y-11592D01*
X13581Y-11577D01*
X13581Y-11570D01*
X13588Y-11555D01*
X13596Y-11548D01*
X13611Y-11540D01*
X13641Y-11540D01*
X13656Y-11548D01*
X13663Y-11555D01*
X13671Y-11570D01*
X13671Y-11577D01*
X13663Y-11592D01*
X13656Y-11600D01*
X13641Y-11607D01*
X13611Y-11607D01*
X13596Y-11615D01*
X13588Y-11622D01*
X13581Y-11637D01*
X13581Y-11667D01*
X13588Y-11682D01*
X13596Y-11690D01*
X13611Y-11697D01*
X13641Y-11697D01*
X13656Y-11690D01*
X13663Y-11682D01*
X13671Y-11667D01*
X13671Y-11637D01*
X13663Y-11622D01*
X13656Y-11615D01*
X13641Y-11607D01*
X13791Y-11615D02*
X13738Y-11615D01*
X13738Y-11697D02*
X13738Y-11540D01*
X13813Y-11540D01*
X13956Y-11697D02*
X13866Y-11697D01*
X13911Y-11697D02*
X13911Y-11540D01*
X13896Y-11562D01*
X13881Y-11577D01*
X13866Y-11585D01*
X14091Y-11592D02*
X14091Y-11697D01*
X14053Y-11533D02*
X14016Y-11645D01*
X14113Y-11645D01*
X14173Y-11697D02*
X14173Y-11540D01*
X14263Y-11697D02*
X14196Y-11607D01*
X14263Y-11540D02*
X14173Y-11630D01*
X14323Y-11555D02*
X14330Y-11548D01*
X14345Y-11540D01*
X14383Y-11540D01*
X14398Y-11548D01*
X14405Y-11555D01*
X14413Y-11570D01*
X14413Y-11585D01*
X14405Y-11607D01*
X14315Y-11697D01*
X14413Y-11697D01*
X14473Y-11555D02*
X14480Y-11548D01*
X14495Y-11540D01*
X14533Y-11540D01*
X14548Y-11548D01*
X14555Y-11555D01*
X14563Y-11570D01*
X14563Y-11585D01*
X14555Y-11607D01*
X14465Y-11697D01*
X14563Y-11697D01*
X14593Y-11712D02*
X14713Y-11712D01*
X14855Y-11712D02*
X14840Y-11705D01*
X14825Y-11690D01*
X14803Y-11667D01*
X14788Y-11660D01*
X14773Y-11660D01*
X14780Y-11697D02*
X14765Y-11690D01*
X14750Y-11675D01*
X14743Y-11645D01*
X14743Y-11592D01*
X14750Y-11562D01*
X14765Y-11548D01*
X14780Y-11540D01*
X14810Y-11540D01*
X14825Y-11548D01*
X14840Y-11562D01*
X14848Y-11592D01*
X14848Y-11645D01*
X14840Y-11675D01*
X14825Y-11690D01*
X14810Y-11697D01*
X14780Y-11697D01*
X14967Y-11615D02*
X14914Y-11615D01*
X14914Y-11697D02*
X14914Y-11540D01*
X14989Y-11540D01*
X15049Y-11697D02*
X15049Y-11540D01*
X15139Y-11697D01*
X15139Y-11540D01*
G54D20*
X15847Y-17107D02*
X15847Y-16707D01*
X16000Y-16707D01*
X16038Y-16726D01*
X16057Y-16745D01*
X16076Y-16783D01*
X16076Y-16840D01*
X16057Y-16878D01*
X16038Y-16897D01*
X16000Y-16916D01*
X15847Y-16916D01*
X16209Y-16707D02*
X16457Y-16707D01*
X16323Y-16859D01*
X16381Y-16859D01*
X16419Y-16878D01*
X16438Y-16897D01*
X16457Y-16935D01*
X16457Y-17031D01*
X16438Y-17069D01*
X16419Y-17088D01*
X16381Y-17107D01*
X16266Y-17107D01*
X16228Y-17088D01*
X16209Y-17069D01*
X9115Y-15472D02*
X8715Y-15472D01*
X9115Y-15243D02*
X8886Y-15415D01*
X8715Y-15243D02*
X8943Y-15472D01*
X9115Y-14862D02*
X9115Y-15091D01*
X9115Y-14977D02*
X8715Y-14977D01*
X8772Y-15015D01*
X8810Y-15053D01*
X8829Y-15091D01*
X21260Y-17147D02*
X21260Y-16747D01*
X21413Y-16747D01*
X21451Y-16766D01*
X21470Y-16785D01*
X21489Y-16823D01*
X21489Y-16880D01*
X21470Y-16918D01*
X21451Y-16937D01*
X21413Y-16956D01*
X21260Y-16956D01*
X21870Y-17147D02*
X21641Y-17147D01*
X21755Y-17147D02*
X21755Y-16747D01*
X21717Y-16804D01*
X21679Y-16842D01*
X21641Y-16861D01*
X18209Y-9004D02*
X18209Y-8604D01*
X18362Y-8604D01*
X18400Y-8623D01*
X18419Y-8642D01*
X18438Y-8680D01*
X18438Y-8737D01*
X18419Y-8775D01*
X18400Y-8794D01*
X18362Y-8813D01*
X18209Y-8813D01*
X18781Y-8737D02*
X18781Y-9004D01*
X18685Y-8585D02*
X18590Y-8871D01*
X18838Y-8871D01*
G54D21*
X13376Y-9200D02*
X13399Y-9128D01*
X13399Y-9009D01*
X13376Y-8962D01*
X13352Y-8938D01*
X13304Y-8914D01*
X13257Y-8914D01*
X13209Y-8938D01*
X13185Y-8962D01*
X13161Y-9009D01*
X13137Y-9105D01*
X13114Y-9152D01*
X13090Y-9176D01*
X13042Y-9200D01*
X12995Y-9200D01*
X12947Y-9176D01*
X12923Y-9152D01*
X12899Y-9105D01*
X12899Y-8985D01*
X12923Y-8914D01*
X13399Y-8438D02*
X13399Y-8724D01*
X13399Y-8581D02*
X12899Y-8581D01*
X12971Y-8629D01*
X13018Y-8676D01*
X13042Y-8724D01*
G54D22*
X17599Y-10367D02*
X17099Y-10367D01*
X17099Y-10176D01*
X17123Y-10129D01*
X17147Y-10105D01*
X17195Y-10081D01*
X17266Y-10081D01*
X17314Y-10105D01*
X17337Y-10129D01*
X17361Y-10176D01*
X17361Y-10367D01*
X17337Y-9700D02*
X17361Y-9629D01*
X17385Y-9605D01*
X17433Y-9581D01*
X17504Y-9581D01*
X17552Y-9605D01*
X17576Y-9629D01*
X17599Y-9676D01*
X17599Y-9867D01*
X17099Y-9867D01*
X17099Y-9700D01*
X17123Y-9653D01*
X17147Y-9629D01*
X17195Y-9605D01*
X17242Y-9605D01*
X17290Y-9629D01*
X17314Y-9653D01*
X17337Y-9700D01*
X17337Y-9867D01*
X17099Y-9367D02*
X17504Y-9367D01*
X17552Y-9343D01*
X17576Y-9319D01*
X17599Y-9272D01*
X17599Y-9176D01*
X17576Y-9129D01*
X17552Y-9105D01*
X17504Y-9081D01*
X17099Y-9081D01*
X17099Y-8914D02*
X17099Y-8629D01*
X17599Y-8772D02*
X17099Y-8772D01*
X17099Y-8533D02*
X17099Y-8248D01*
X17599Y-8391D02*
X17099Y-8391D01*
X17099Y-7986D02*
X17099Y-7890D01*
X17123Y-7843D01*
X17171Y-7795D01*
X17266Y-7771D01*
X17433Y-7771D01*
X17528Y-7795D01*
X17576Y-7843D01*
X17599Y-7890D01*
X17599Y-7986D01*
X17576Y-8033D01*
X17528Y-8081D01*
X17433Y-8105D01*
X17266Y-8105D01*
X17171Y-8081D01*
X17123Y-8033D01*
X17099Y-7986D01*
X17599Y-7557D02*
X17099Y-7557D01*
X17599Y-7271D01*
X17099Y-7271D01*
G54D23*
X11945Y-8911D02*
X11945Y-8611D01*
X12017Y-8611D01*
X12060Y-8626D01*
X12088Y-8654D01*
X12103Y-8683D01*
X12117Y-8740D01*
X12117Y-8783D01*
X12103Y-8840D01*
X12088Y-8869D01*
X12060Y-8897D01*
X12017Y-8911D01*
X11945Y-8911D01*
X12403Y-8911D02*
X12231Y-8911D01*
X12317Y-8911D02*
X12317Y-8611D01*
X12288Y-8654D01*
X12260Y-8683D01*
X12231Y-8697D01*
X11874Y-10111D02*
X11731Y-10111D01*
X11731Y-9811D01*
X11974Y-9954D02*
X12074Y-9954D01*
X12117Y-10111D02*
X11974Y-10111D01*
X11974Y-9811D01*
X12117Y-9811D01*
X12245Y-10111D02*
X12245Y-9811D01*
X12317Y-9811D01*
X12360Y-9826D01*
X12388Y-9854D01*
X12403Y-9883D01*
X12417Y-9940D01*
X12417Y-9983D01*
X12403Y-10040D01*
X12388Y-10069D01*
X12360Y-10097D01*
X12317Y-10111D01*
X12245Y-10111D01*
G54D14*
X9740Y-9722D02*
X9740Y-10208D01*
X9768Y-10265D01*
X9797Y-10293D01*
X9854Y-10322D01*
X9968Y-10322D01*
X10026Y-10293D01*
X10054Y-10265D01*
X10083Y-10208D01*
X10083Y-9722D01*
X10626Y-9922D02*
X10626Y-10322D01*
X10483Y-9693D02*
X10340Y-10122D01*
X10712Y-10122D01*
X8143Y-9102D02*
X8343Y-9102D01*
X8429Y-9416D02*
X8143Y-9416D01*
X8143Y-8816D01*
X8429Y-8816D01*
X9086Y-9473D02*
X9029Y-9444D01*
X8972Y-9387D01*
X8886Y-9302D01*
X8829Y-9273D01*
X8772Y-9273D01*
X8800Y-9416D02*
X8743Y-9387D01*
X8686Y-9330D01*
X8657Y-9216D01*
X8657Y-9016D01*
X8686Y-8902D01*
X8743Y-8844D01*
X8800Y-8816D01*
X8914Y-8816D01*
X8972Y-8844D01*
X9029Y-8902D01*
X9057Y-9016D01*
X9057Y-9216D01*
X9029Y-9330D01*
X8972Y-9387D01*
X8914Y-9416D01*
X8800Y-9416D01*
X9258Y-8816D02*
X9658Y-8816D01*
X9401Y-9416D01*
X9829Y-8816D02*
X10200Y-8816D01*
X10000Y-9044D01*
X10086Y-9044D01*
X10143Y-9073D01*
X10172Y-9102D01*
X10200Y-9159D01*
X10200Y-9302D01*
X10172Y-9359D01*
X10143Y-9387D01*
X10086Y-9416D01*
X9914Y-9416D01*
X9857Y-9387D01*
X9829Y-9359D01*
X10571Y-8816D02*
X10628Y-8816D01*
X10685Y-8844D01*
X10714Y-8873D01*
X10743Y-8930D01*
X10771Y-9044D01*
X10771Y-9187D01*
X10743Y-9302D01*
X10714Y-9359D01*
X10685Y-9387D01*
X10628Y-9416D01*
X10571Y-9416D01*
X10514Y-9387D01*
X10485Y-9359D01*
X10457Y-9302D01*
X10428Y-9187D01*
X10428Y-9044D01*
X10457Y-8930D01*
X10485Y-8873D01*
X10514Y-8844D01*
X10571Y-8816D01*
X11314Y-9416D02*
X11028Y-9416D01*
X11028Y-8816D01*
G54D24*
X10972Y-12006D02*
X10972Y-12249D01*
X10987Y-12278D01*
X11001Y-12292D01*
X11030Y-12306D01*
X11087Y-12306D01*
X11115Y-12292D01*
X11130Y-12278D01*
X11144Y-12249D01*
X11144Y-12006D01*
X11429Y-12006D02*
X11286Y-12006D01*
X11272Y-12149D01*
X11286Y-12135D01*
X11315Y-12121D01*
X11386Y-12121D01*
X11415Y-12135D01*
X11429Y-12149D01*
X11444Y-12178D01*
X11444Y-12249D01*
X11429Y-12278D01*
X11415Y-12292D01*
X11386Y-12306D01*
X11315Y-12306D01*
X11286Y-12292D01*
X11272Y-12278D01*
X11319Y-13375D02*
X11122Y-13375D01*
X11319Y-13263D01*
X11122Y-13263D01*
X11216Y-13103D02*
X11216Y-13169D01*
X11319Y-13169D02*
X11122Y-13169D01*
X11122Y-13075D01*
X11216Y-13000D02*
X11216Y-12934D01*
X11319Y-12906D02*
X11319Y-13000D01*
X11122Y-13000D01*
X11122Y-12906D01*
X11122Y-12850D02*
X11122Y-12738D01*
X11319Y-12794D02*
X11122Y-12794D01*
G54D18*
X12018Y-14274D02*
X11958Y-14179D01*
X11915Y-14274D02*
X11915Y-14074D01*
X11983Y-14074D01*
X12001Y-14083D01*
X12009Y-14093D01*
X12018Y-14112D01*
X12018Y-14141D01*
X12009Y-14160D01*
X12001Y-14169D01*
X11983Y-14179D01*
X11915Y-14179D01*
X12078Y-14074D02*
X12189Y-14074D01*
X12129Y-14150D01*
X12155Y-14150D01*
X12172Y-14160D01*
X12181Y-14169D01*
X12189Y-14188D01*
X12189Y-14236D01*
X12181Y-14255D01*
X12172Y-14264D01*
X12155Y-14274D01*
X12103Y-14274D01*
X12086Y-14264D01*
X12078Y-14255D01*
M02*
