%FSLAX34Y34*%
G04 Gerber Fmt 3.4, Leading zero omitted, Abs format*
G04 (created by PCBNEW (2014-04-07 BZR 4791)-product) date Tue 13 May 2014 05:19:37 PM CEST*
%MOIN*%
G01*
G70*
G90*
G04 APERTURE LIST*
%ADD10C,0.005906*%
%ADD11C,0.002800*%
%ADD12C,0.005000*%
%ADD13C,0.010000*%
%ADD14C,0.012000*%
%ADD15C,0.004500*%
%ADD16C,0.008000*%
G04 APERTURE END LIST*
G54D10*
G54D11*
X59150Y-40350D02*
X58950Y-40350D01*
X58950Y-40350D02*
X58950Y-40650D01*
X58950Y-40650D02*
X59150Y-40650D01*
X59350Y-40350D02*
X59550Y-40350D01*
X59550Y-40350D02*
X59550Y-40650D01*
X59550Y-40650D02*
X59350Y-40650D01*
X60150Y-40350D02*
X59950Y-40350D01*
X59950Y-40350D02*
X59950Y-40650D01*
X59950Y-40650D02*
X60150Y-40650D01*
X60350Y-40350D02*
X60550Y-40350D01*
X60550Y-40350D02*
X60550Y-40650D01*
X60550Y-40650D02*
X60350Y-40650D01*
X63929Y-36907D02*
X63929Y-36707D01*
X63929Y-36707D02*
X63629Y-36707D01*
X63629Y-36707D02*
X63629Y-36907D01*
X63929Y-37107D02*
X63929Y-37307D01*
X63929Y-37307D02*
X63629Y-37307D01*
X63629Y-37307D02*
X63629Y-37107D01*
X63900Y-35100D02*
X63700Y-35100D01*
X63700Y-35100D02*
X63700Y-35400D01*
X63700Y-35400D02*
X63900Y-35400D01*
X64100Y-35100D02*
X64300Y-35100D01*
X64300Y-35100D02*
X64300Y-35400D01*
X64300Y-35400D02*
X64100Y-35400D01*
X63900Y-34600D02*
X63700Y-34600D01*
X63700Y-34600D02*
X63700Y-34900D01*
X63700Y-34900D02*
X63900Y-34900D01*
X64100Y-34600D02*
X64300Y-34600D01*
X64300Y-34600D02*
X64300Y-34900D01*
X64300Y-34900D02*
X64100Y-34900D01*
X63900Y-34100D02*
X63700Y-34100D01*
X63700Y-34100D02*
X63700Y-34400D01*
X63700Y-34400D02*
X63900Y-34400D01*
X64100Y-34100D02*
X64300Y-34100D01*
X64300Y-34100D02*
X64300Y-34400D01*
X64300Y-34400D02*
X64100Y-34400D01*
X63900Y-33600D02*
X63700Y-33600D01*
X63700Y-33600D02*
X63700Y-33900D01*
X63700Y-33900D02*
X63900Y-33900D01*
X64100Y-33600D02*
X64300Y-33600D01*
X64300Y-33600D02*
X64300Y-33900D01*
X64300Y-33900D02*
X64100Y-33900D01*
X57650Y-29850D02*
X57450Y-29850D01*
X57450Y-29850D02*
X57450Y-30150D01*
X57450Y-30150D02*
X57650Y-30150D01*
X57850Y-29850D02*
X58050Y-29850D01*
X58050Y-29850D02*
X58050Y-30150D01*
X58050Y-30150D02*
X57850Y-30150D01*
G54D12*
X52750Y-33450D02*
X52750Y-32550D01*
X52750Y-32550D02*
X53250Y-32550D01*
X53250Y-32550D02*
X53250Y-33450D01*
X53250Y-33450D02*
X52750Y-33450D01*
X53250Y-35800D02*
X53250Y-36700D01*
X53250Y-36700D02*
X52750Y-36700D01*
X52750Y-36700D02*
X52750Y-35800D01*
X52750Y-35800D02*
X53250Y-35800D01*
X59550Y-29750D02*
X60450Y-29750D01*
X60450Y-29750D02*
X60450Y-29100D01*
X59550Y-28400D02*
X59550Y-27750D01*
X59550Y-27750D02*
X60450Y-27750D01*
X60450Y-27750D02*
X60450Y-28400D01*
X59550Y-29100D02*
X59550Y-29750D01*
G54D13*
X62750Y-30000D02*
X62750Y-29000D01*
X63750Y-30000D02*
X63750Y-29000D01*
X63750Y-29000D02*
X62750Y-29000D01*
X62750Y-29000D02*
X61750Y-29000D01*
X61750Y-29000D02*
X61750Y-30000D01*
X61750Y-30000D02*
X63750Y-30000D01*
X53000Y-38250D02*
X52000Y-38250D01*
X53000Y-37250D02*
X52000Y-37250D01*
X52000Y-37250D02*
X52000Y-38250D01*
X52000Y-38250D02*
X52000Y-39250D01*
X52000Y-39250D02*
X53000Y-39250D01*
X53000Y-39250D02*
X53000Y-37250D01*
X52250Y-30000D02*
X52250Y-31000D01*
X52250Y-31000D02*
X53250Y-31000D01*
X53250Y-31000D02*
X53250Y-30000D01*
X53250Y-30000D02*
X52250Y-30000D01*
X55480Y-24777D02*
X54480Y-25777D01*
X54480Y-24777D02*
X55480Y-25777D01*
X54930Y-24727D02*
X54930Y-22427D01*
X54930Y-22427D02*
X55030Y-22427D01*
X55030Y-22427D02*
X55030Y-24727D01*
X55030Y-24727D02*
X54980Y-24727D01*
X54980Y-24727D02*
X54980Y-22427D01*
X54880Y-25777D02*
X54880Y-25927D01*
X55080Y-25777D02*
X55080Y-25927D01*
X55880Y-25777D02*
X55880Y-25927D01*
X56080Y-25777D02*
X56080Y-25927D01*
X56880Y-25777D02*
X56880Y-25927D01*
X57080Y-25777D02*
X57080Y-25927D01*
X60080Y-25777D02*
X60080Y-25927D01*
X59880Y-25777D02*
X59880Y-25927D01*
X59080Y-25777D02*
X59080Y-25927D01*
X58880Y-25777D02*
X58880Y-25927D01*
X58080Y-25777D02*
X58080Y-25927D01*
X57880Y-25777D02*
X57880Y-25927D01*
X54480Y-25777D02*
X54480Y-24777D01*
X55480Y-25777D02*
X55480Y-24777D01*
X55480Y-25777D02*
X56480Y-25777D01*
X56480Y-25777D02*
X56480Y-24777D01*
X55880Y-24777D02*
X55880Y-22377D01*
X55880Y-22377D02*
X56080Y-22377D01*
X56080Y-22377D02*
X56080Y-24777D01*
X56480Y-24777D02*
X55480Y-24777D01*
X55480Y-24777D02*
X54480Y-24777D01*
X55080Y-22377D02*
X55080Y-24777D01*
X54880Y-22377D02*
X55080Y-22377D01*
X54880Y-24777D02*
X54880Y-22377D01*
X55480Y-25777D02*
X55480Y-24777D01*
X54480Y-25777D02*
X55480Y-25777D01*
X58480Y-25777D02*
X58480Y-24777D01*
X58480Y-25777D02*
X59480Y-25777D01*
X59480Y-25777D02*
X59480Y-24777D01*
X58880Y-24777D02*
X58880Y-22377D01*
X58880Y-22377D02*
X59080Y-22377D01*
X59080Y-22377D02*
X59080Y-24777D01*
X59480Y-24777D02*
X58480Y-24777D01*
X60480Y-24777D02*
X59480Y-24777D01*
X60080Y-22377D02*
X60080Y-24777D01*
X59880Y-22377D02*
X60080Y-22377D01*
X59880Y-24777D02*
X59880Y-22377D01*
X60480Y-25777D02*
X60480Y-24777D01*
X59480Y-25777D02*
X60480Y-25777D01*
X59480Y-25777D02*
X59480Y-24777D01*
X57480Y-25777D02*
X57480Y-24777D01*
X57480Y-25777D02*
X58480Y-25777D01*
X58480Y-25777D02*
X58480Y-24777D01*
X57880Y-24777D02*
X57880Y-22377D01*
X57880Y-22377D02*
X58080Y-22377D01*
X58080Y-22377D02*
X58080Y-24777D01*
X58480Y-24777D02*
X57480Y-24777D01*
X57480Y-24777D02*
X56480Y-24777D01*
X57080Y-22377D02*
X57080Y-24777D01*
X56880Y-22377D02*
X57080Y-22377D01*
X56880Y-24777D02*
X56880Y-22377D01*
X57480Y-25777D02*
X57480Y-24777D01*
X56480Y-25777D02*
X57480Y-25777D01*
X56480Y-25777D02*
X56480Y-24777D01*
X64750Y-32250D02*
X63750Y-32250D01*
X64750Y-31250D02*
X63750Y-31250D01*
X63750Y-31250D02*
X63750Y-32250D01*
X63750Y-32250D02*
X63750Y-33250D01*
X63750Y-33250D02*
X64750Y-33250D01*
X64750Y-33250D02*
X64750Y-31250D01*
X53437Y-29027D02*
X53437Y-30027D01*
X53437Y-30027D02*
X54437Y-30027D01*
X54437Y-30027D02*
X54437Y-29027D01*
X54437Y-29027D02*
X53437Y-29027D01*
X62750Y-29000D02*
X62750Y-28000D01*
X63750Y-29000D02*
X63750Y-28000D01*
X63750Y-28000D02*
X62750Y-28000D01*
X62750Y-28000D02*
X61750Y-28000D01*
X61750Y-28000D02*
X61750Y-29000D01*
X61750Y-29000D02*
X63750Y-29000D01*
X61750Y-25750D02*
X61750Y-26750D01*
X60750Y-25750D02*
X60750Y-26750D01*
X60750Y-26750D02*
X61750Y-26750D01*
X61750Y-26750D02*
X62750Y-26750D01*
X62750Y-26750D02*
X62750Y-25750D01*
X62750Y-25750D02*
X60750Y-25750D01*
G54D11*
X64400Y-29850D02*
X64200Y-29850D01*
X64200Y-29850D02*
X64200Y-30150D01*
X64200Y-30150D02*
X64400Y-30150D01*
X64600Y-29850D02*
X64800Y-29850D01*
X64800Y-29850D02*
X64800Y-30150D01*
X64800Y-30150D02*
X64600Y-30150D01*
X64600Y-30650D02*
X64800Y-30650D01*
X64800Y-30650D02*
X64800Y-30350D01*
X64800Y-30350D02*
X64600Y-30350D01*
X64400Y-30650D02*
X64200Y-30650D01*
X64200Y-30650D02*
X64200Y-30350D01*
X64200Y-30350D02*
X64400Y-30350D01*
G54D14*
X57000Y-35250D02*
G75*
G03X57000Y-35250I-500J0D01*
G74*
G01*
X56750Y-37750D02*
X61000Y-37750D01*
X61000Y-32750D02*
X61000Y-37750D01*
X56000Y-32750D02*
X61000Y-32750D01*
X56750Y-37750D02*
X56000Y-37000D01*
X56000Y-37000D02*
X56000Y-32750D01*
X54000Y-39250D02*
X54500Y-39750D01*
X54500Y-39750D02*
X63000Y-39750D01*
X63000Y-39750D02*
X63000Y-30750D01*
X63000Y-30750D02*
X54000Y-30750D01*
X54000Y-30750D02*
X54000Y-39250D01*
G54D11*
X59231Y-40895D02*
X59226Y-40902D01*
X59209Y-40908D01*
X59197Y-40908D01*
X59180Y-40902D01*
X59169Y-40889D01*
X59163Y-40876D01*
X59157Y-40849D01*
X59157Y-40830D01*
X59163Y-40803D01*
X59169Y-40790D01*
X59180Y-40777D01*
X59197Y-40770D01*
X59209Y-40770D01*
X59226Y-40777D01*
X59231Y-40784D01*
X59346Y-40908D02*
X59277Y-40908D01*
X59311Y-40908D02*
X59311Y-40770D01*
X59300Y-40790D01*
X59289Y-40803D01*
X59277Y-40810D01*
X60216Y-40895D02*
X60210Y-40902D01*
X60193Y-40908D01*
X60181Y-40908D01*
X60164Y-40902D01*
X60153Y-40889D01*
X60147Y-40876D01*
X60141Y-40849D01*
X60141Y-40830D01*
X60147Y-40803D01*
X60153Y-40790D01*
X60164Y-40777D01*
X60181Y-40770D01*
X60193Y-40770D01*
X60210Y-40777D01*
X60216Y-40784D01*
X60261Y-40784D02*
X60267Y-40777D01*
X60279Y-40770D01*
X60307Y-40770D01*
X60319Y-40777D01*
X60324Y-40784D01*
X60330Y-40797D01*
X60330Y-40810D01*
X60324Y-40830D01*
X60256Y-40908D01*
X60330Y-40908D01*
X63828Y-37520D02*
X63835Y-37525D01*
X63841Y-37542D01*
X63841Y-37554D01*
X63835Y-37571D01*
X63822Y-37582D01*
X63809Y-37588D01*
X63782Y-37594D01*
X63763Y-37594D01*
X63736Y-37588D01*
X63723Y-37582D01*
X63710Y-37571D01*
X63703Y-37554D01*
X63703Y-37542D01*
X63710Y-37525D01*
X63717Y-37520D01*
X63703Y-37480D02*
X63703Y-37405D01*
X63756Y-37445D01*
X63756Y-37428D01*
X63763Y-37417D01*
X63769Y-37411D01*
X63782Y-37405D01*
X63815Y-37405D01*
X63828Y-37411D01*
X63835Y-37417D01*
X63841Y-37428D01*
X63841Y-37462D01*
X63835Y-37474D01*
X63828Y-37480D01*
X64546Y-35285D02*
X64541Y-35292D01*
X64524Y-35298D01*
X64512Y-35298D01*
X64495Y-35292D01*
X64484Y-35278D01*
X64478Y-35265D01*
X64472Y-35239D01*
X64472Y-35219D01*
X64478Y-35193D01*
X64484Y-35180D01*
X64495Y-35167D01*
X64512Y-35160D01*
X64524Y-35160D01*
X64541Y-35167D01*
X64546Y-35173D01*
X64649Y-35206D02*
X64649Y-35298D01*
X64621Y-35154D02*
X64592Y-35252D01*
X64666Y-35252D01*
X64546Y-34793D02*
X64541Y-34799D01*
X64524Y-34806D01*
X64512Y-34806D01*
X64495Y-34799D01*
X64484Y-34786D01*
X64478Y-34773D01*
X64472Y-34747D01*
X64472Y-34727D01*
X64478Y-34701D01*
X64484Y-34688D01*
X64495Y-34675D01*
X64512Y-34668D01*
X64524Y-34668D01*
X64541Y-34675D01*
X64546Y-34681D01*
X64655Y-34668D02*
X64598Y-34668D01*
X64592Y-34734D01*
X64598Y-34727D01*
X64609Y-34721D01*
X64638Y-34721D01*
X64649Y-34727D01*
X64655Y-34734D01*
X64661Y-34747D01*
X64661Y-34780D01*
X64655Y-34793D01*
X64649Y-34799D01*
X64638Y-34806D01*
X64609Y-34806D01*
X64598Y-34799D01*
X64592Y-34793D01*
X64546Y-34301D02*
X64541Y-34307D01*
X64524Y-34314D01*
X64512Y-34314D01*
X64495Y-34307D01*
X64484Y-34294D01*
X64478Y-34281D01*
X64472Y-34255D01*
X64472Y-34235D01*
X64478Y-34209D01*
X64484Y-34196D01*
X64495Y-34182D01*
X64512Y-34176D01*
X64524Y-34176D01*
X64541Y-34182D01*
X64546Y-34189D01*
X64649Y-34176D02*
X64626Y-34176D01*
X64615Y-34182D01*
X64609Y-34189D01*
X64598Y-34209D01*
X64592Y-34235D01*
X64592Y-34288D01*
X64598Y-34301D01*
X64604Y-34307D01*
X64615Y-34314D01*
X64638Y-34314D01*
X64649Y-34307D01*
X64655Y-34301D01*
X64661Y-34288D01*
X64661Y-34255D01*
X64655Y-34242D01*
X64649Y-34235D01*
X64638Y-34228D01*
X64615Y-34228D01*
X64604Y-34235D01*
X64598Y-34242D01*
X64592Y-34255D01*
X64546Y-33710D02*
X64541Y-33717D01*
X64524Y-33723D01*
X64512Y-33723D01*
X64495Y-33717D01*
X64484Y-33704D01*
X64478Y-33690D01*
X64472Y-33664D01*
X64472Y-33644D01*
X64478Y-33618D01*
X64484Y-33605D01*
X64495Y-33592D01*
X64512Y-33585D01*
X64524Y-33585D01*
X64541Y-33592D01*
X64546Y-33598D01*
X64586Y-33585D02*
X64666Y-33585D01*
X64615Y-33723D01*
X57107Y-30068D02*
X57102Y-30075D01*
X57085Y-30082D01*
X57073Y-30082D01*
X57056Y-30075D01*
X57045Y-30062D01*
X57039Y-30049D01*
X57033Y-30022D01*
X57033Y-30003D01*
X57039Y-29976D01*
X57045Y-29963D01*
X57056Y-29950D01*
X57073Y-29944D01*
X57085Y-29944D01*
X57102Y-29950D01*
X57107Y-29957D01*
X57222Y-30082D02*
X57153Y-30082D01*
X57187Y-30082D02*
X57187Y-29944D01*
X57176Y-29963D01*
X57165Y-29976D01*
X57153Y-29983D01*
X57325Y-29990D02*
X57325Y-30082D01*
X57296Y-29937D02*
X57267Y-30036D01*
X57342Y-30036D01*
G54D15*
X52630Y-33186D02*
X52640Y-33195D01*
X52649Y-33220D01*
X52649Y-33238D01*
X52640Y-33263D01*
X52620Y-33280D01*
X52601Y-33289D01*
X52563Y-33298D01*
X52535Y-33298D01*
X52497Y-33289D01*
X52478Y-33280D01*
X52459Y-33263D01*
X52449Y-33238D01*
X52449Y-33220D01*
X52459Y-33195D01*
X52468Y-33186D01*
X52649Y-33015D02*
X52649Y-33118D01*
X52649Y-33066D02*
X52449Y-33066D01*
X52478Y-33083D01*
X52497Y-33100D01*
X52506Y-33118D01*
X52449Y-32852D02*
X52449Y-32938D01*
X52544Y-32946D01*
X52535Y-32938D01*
X52525Y-32920D01*
X52525Y-32878D01*
X52535Y-32860D01*
X52544Y-32852D01*
X52563Y-32843D01*
X52611Y-32843D01*
X52630Y-32852D01*
X52640Y-32860D01*
X52649Y-32878D01*
X52649Y-32920D01*
X52640Y-32938D01*
X52630Y-32946D01*
X52630Y-36533D02*
X52640Y-36541D01*
X52649Y-36567D01*
X52649Y-36584D01*
X52640Y-36610D01*
X52620Y-36627D01*
X52601Y-36635D01*
X52563Y-36644D01*
X52535Y-36644D01*
X52497Y-36635D01*
X52478Y-36627D01*
X52459Y-36610D01*
X52449Y-36584D01*
X52449Y-36567D01*
X52459Y-36541D01*
X52468Y-36533D01*
X52649Y-36361D02*
X52649Y-36464D01*
X52649Y-36413D02*
X52449Y-36413D01*
X52478Y-36430D01*
X52497Y-36447D01*
X52506Y-36464D01*
X52449Y-36207D02*
X52449Y-36241D01*
X52459Y-36258D01*
X52468Y-36267D01*
X52497Y-36284D01*
X52535Y-36293D01*
X52611Y-36293D01*
X52630Y-36284D01*
X52640Y-36275D01*
X52649Y-36258D01*
X52649Y-36224D01*
X52640Y-36207D01*
X52630Y-36198D01*
X52611Y-36190D01*
X52563Y-36190D01*
X52544Y-36198D01*
X52535Y-36207D01*
X52525Y-36224D01*
X52525Y-36258D01*
X52535Y-36275D01*
X52544Y-36284D01*
X52563Y-36293D01*
G54D12*
X60962Y-29748D02*
X60662Y-29748D01*
X60662Y-29677D01*
X60676Y-29634D01*
X60705Y-29606D01*
X60733Y-29591D01*
X60791Y-29577D01*
X60833Y-29577D01*
X60891Y-29591D01*
X60919Y-29606D01*
X60948Y-29634D01*
X60962Y-29677D01*
X60962Y-29748D01*
X60962Y-29291D02*
X60962Y-29463D01*
X60962Y-29377D02*
X60662Y-29377D01*
X60705Y-29406D01*
X60733Y-29434D01*
X60748Y-29463D01*
G54D16*
X64001Y-29556D02*
X64001Y-29056D01*
X64191Y-29056D01*
X64239Y-29080D01*
X64262Y-29104D01*
X64286Y-29152D01*
X64286Y-29223D01*
X64262Y-29271D01*
X64239Y-29294D01*
X64191Y-29318D01*
X64001Y-29318D01*
X64762Y-29556D02*
X64477Y-29556D01*
X64620Y-29556D02*
X64620Y-29056D01*
X64572Y-29128D01*
X64524Y-29175D01*
X64477Y-29199D01*
X53626Y-38619D02*
X53126Y-38619D01*
X53126Y-38428D01*
X53150Y-38380D01*
X53173Y-38357D01*
X53221Y-38333D01*
X53292Y-38333D01*
X53340Y-38357D01*
X53364Y-38380D01*
X53388Y-38428D01*
X53388Y-38619D01*
X53173Y-38142D02*
X53150Y-38119D01*
X53126Y-38071D01*
X53126Y-37952D01*
X53150Y-37904D01*
X53173Y-37880D01*
X53221Y-37857D01*
X53269Y-37857D01*
X53340Y-37880D01*
X53626Y-38166D01*
X53626Y-37857D01*
X52380Y-29826D02*
X52380Y-29326D01*
X52571Y-29326D01*
X52619Y-29350D01*
X52642Y-29373D01*
X52666Y-29421D01*
X52666Y-29492D01*
X52642Y-29540D01*
X52619Y-29564D01*
X52571Y-29588D01*
X52380Y-29588D01*
X52833Y-29326D02*
X53142Y-29326D01*
X52976Y-29516D01*
X53047Y-29516D01*
X53095Y-29540D01*
X53119Y-29564D01*
X53142Y-29611D01*
X53142Y-29730D01*
X53119Y-29778D01*
X53095Y-29802D01*
X53047Y-29826D01*
X52904Y-29826D01*
X52857Y-29802D01*
X52833Y-29778D01*
X54749Y-27391D02*
X54749Y-26891D01*
X54939Y-26891D01*
X54987Y-26915D01*
X55010Y-26939D01*
X55034Y-26986D01*
X55034Y-27058D01*
X55010Y-27105D01*
X54987Y-27129D01*
X54939Y-27153D01*
X54749Y-27153D01*
X55487Y-26891D02*
X55249Y-26891D01*
X55225Y-27129D01*
X55249Y-27105D01*
X55296Y-27082D01*
X55415Y-27082D01*
X55463Y-27105D01*
X55487Y-27129D01*
X55510Y-27177D01*
X55510Y-27296D01*
X55487Y-27343D01*
X55463Y-27367D01*
X55415Y-27391D01*
X55296Y-27391D01*
X55249Y-27367D01*
X55225Y-27343D01*
X63612Y-32258D02*
X63112Y-32258D01*
X63112Y-32068D01*
X63135Y-32020D01*
X63159Y-31996D01*
X63207Y-31973D01*
X63278Y-31973D01*
X63326Y-31996D01*
X63350Y-32020D01*
X63373Y-32068D01*
X63373Y-32258D01*
X63112Y-31544D02*
X63112Y-31639D01*
X63135Y-31687D01*
X63159Y-31711D01*
X63231Y-31758D01*
X63326Y-31782D01*
X63516Y-31782D01*
X63564Y-31758D01*
X63588Y-31735D01*
X63612Y-31687D01*
X63612Y-31592D01*
X63588Y-31544D01*
X63564Y-31520D01*
X63516Y-31496D01*
X63397Y-31496D01*
X63350Y-31520D01*
X63326Y-31544D01*
X63302Y-31592D01*
X63302Y-31687D01*
X63326Y-31735D01*
X63350Y-31758D01*
X63397Y-31782D01*
X53567Y-28853D02*
X53567Y-28353D01*
X53758Y-28353D01*
X53806Y-28377D01*
X53829Y-28401D01*
X53853Y-28448D01*
X53853Y-28520D01*
X53829Y-28568D01*
X53806Y-28591D01*
X53758Y-28615D01*
X53567Y-28615D01*
X54020Y-28353D02*
X54353Y-28353D01*
X54139Y-28853D01*
X64001Y-28769D02*
X64001Y-28269D01*
X64191Y-28269D01*
X64239Y-28293D01*
X64262Y-28317D01*
X64286Y-28364D01*
X64286Y-28436D01*
X64262Y-28483D01*
X64239Y-28507D01*
X64191Y-28531D01*
X64001Y-28531D01*
X64572Y-28483D02*
X64524Y-28459D01*
X64501Y-28436D01*
X64477Y-28388D01*
X64477Y-28364D01*
X64501Y-28317D01*
X64524Y-28293D01*
X64572Y-28269D01*
X64667Y-28269D01*
X64715Y-28293D01*
X64739Y-28317D01*
X64762Y-28364D01*
X64762Y-28388D01*
X64739Y-28436D01*
X64715Y-28459D01*
X64667Y-28483D01*
X64572Y-28483D01*
X64524Y-28507D01*
X64501Y-28531D01*
X64477Y-28579D01*
X64477Y-28674D01*
X64501Y-28721D01*
X64524Y-28745D01*
X64572Y-28769D01*
X64667Y-28769D01*
X64715Y-28745D01*
X64739Y-28721D01*
X64762Y-28674D01*
X64762Y-28579D01*
X64739Y-28531D01*
X64715Y-28507D01*
X64667Y-28483D01*
X61048Y-27391D02*
X61048Y-26891D01*
X61238Y-26891D01*
X61286Y-26915D01*
X61310Y-26939D01*
X61333Y-26986D01*
X61333Y-27058D01*
X61310Y-27105D01*
X61286Y-27129D01*
X61238Y-27153D01*
X61048Y-27153D01*
X61572Y-27391D02*
X61667Y-27391D01*
X61714Y-27367D01*
X61738Y-27343D01*
X61786Y-27272D01*
X61810Y-27177D01*
X61810Y-26986D01*
X61786Y-26939D01*
X61762Y-26915D01*
X61714Y-26891D01*
X61619Y-26891D01*
X61572Y-26915D01*
X61548Y-26939D01*
X61524Y-26986D01*
X61524Y-27105D01*
X61548Y-27153D01*
X61572Y-27177D01*
X61619Y-27201D01*
X61714Y-27201D01*
X61762Y-27177D01*
X61786Y-27153D01*
X61810Y-27105D01*
G54D11*
X64940Y-29983D02*
X64900Y-29917D01*
X64872Y-29983D02*
X64872Y-29845D01*
X64917Y-29845D01*
X64929Y-29852D01*
X64934Y-29858D01*
X64940Y-29871D01*
X64940Y-29891D01*
X64934Y-29904D01*
X64929Y-29911D01*
X64917Y-29917D01*
X64872Y-29917D01*
X64986Y-29858D02*
X64992Y-29852D01*
X65003Y-29845D01*
X65032Y-29845D01*
X65043Y-29852D01*
X65049Y-29858D01*
X65054Y-29871D01*
X65054Y-29885D01*
X65049Y-29904D01*
X64980Y-29983D01*
X65054Y-29983D01*
X64940Y-30574D02*
X64900Y-30508D01*
X64872Y-30574D02*
X64872Y-30436D01*
X64917Y-30436D01*
X64929Y-30442D01*
X64934Y-30449D01*
X64940Y-30462D01*
X64940Y-30482D01*
X64934Y-30495D01*
X64929Y-30501D01*
X64917Y-30508D01*
X64872Y-30508D01*
X64980Y-30436D02*
X65054Y-30436D01*
X65014Y-30488D01*
X65032Y-30488D01*
X65043Y-30495D01*
X65049Y-30501D01*
X65054Y-30515D01*
X65054Y-30547D01*
X65049Y-30561D01*
X65043Y-30567D01*
X65032Y-30574D01*
X64997Y-30574D01*
X64986Y-30567D01*
X64980Y-30561D01*
G54D16*
X54616Y-38899D02*
X54616Y-39304D01*
X54635Y-39351D01*
X54654Y-39375D01*
X54692Y-39399D01*
X54768Y-39399D01*
X54806Y-39375D01*
X54826Y-39351D01*
X54845Y-39304D01*
X54845Y-38899D01*
X55245Y-39399D02*
X55016Y-39399D01*
X55130Y-39399D02*
X55130Y-38899D01*
X55092Y-38970D01*
X55054Y-39018D01*
X55016Y-39042D01*
X57916Y-36614D02*
X57988Y-36638D01*
X58011Y-36661D01*
X58035Y-36709D01*
X58035Y-36780D01*
X58011Y-36828D01*
X57988Y-36852D01*
X57940Y-36876D01*
X57750Y-36876D01*
X57750Y-36376D01*
X57916Y-36376D01*
X57964Y-36400D01*
X57988Y-36423D01*
X58011Y-36471D01*
X58011Y-36519D01*
X57988Y-36566D01*
X57964Y-36590D01*
X57916Y-36614D01*
X57750Y-36614D01*
X58250Y-36876D02*
X58250Y-36376D01*
X58583Y-36376D02*
X58678Y-36376D01*
X58726Y-36400D01*
X58773Y-36447D01*
X58797Y-36542D01*
X58797Y-36709D01*
X58773Y-36804D01*
X58726Y-36852D01*
X58678Y-36876D01*
X58583Y-36876D01*
X58535Y-36852D01*
X58488Y-36804D01*
X58464Y-36709D01*
X58464Y-36542D01*
X58488Y-36447D01*
X58535Y-36400D01*
X58583Y-36376D01*
X58988Y-36423D02*
X59011Y-36400D01*
X59059Y-36376D01*
X59178Y-36376D01*
X59226Y-36400D01*
X59250Y-36423D01*
X59273Y-36471D01*
X59273Y-36519D01*
X59250Y-36590D01*
X58964Y-36876D01*
X59273Y-36876D01*
M02*
