%FSLAX34Y34*%
G04 Gerber Fmt 3.4, Leading zero omitted, Abs format*
G04 (created by PCBNEW (2014-04-07 BZR 4791)-product) date Tue 13 May 2014 05:19:37 PM CEST*
%MOIN*%
G01*
G70*
G90*
G04 APERTURE LIST*
%ADD10C,0.005906*%
%ADD11R,0.015700X0.023600*%
%ADD12R,0.023600X0.015700*%
%ADD13R,0.045000X0.025000*%
%ADD14R,0.080000X0.060000*%
%ADD15R,0.080000X0.080000*%
%ADD16O,0.080000X0.080000*%
%ADD17R,0.088000X0.088000*%
%ADD18R,0.068000X0.080000*%
%ADD19O,0.068000X0.080000*%
%ADD20C,0.126000*%
%ADD21R,0.080000X0.030000*%
%ADD22R,0.030000X0.080000*%
%ADD23C,0.039370*%
%ADD24C,0.011811*%
%ADD25C,0.010000*%
G04 APERTURE END LIST*
G54D10*
G54D11*
X59073Y-40500D03*
X59427Y-40500D03*
X60073Y-40500D03*
X60427Y-40500D03*
G54D12*
X63779Y-36830D03*
X63779Y-37184D03*
G54D11*
X63823Y-35250D03*
X64177Y-35250D03*
X63823Y-34750D03*
X64177Y-34750D03*
X63823Y-34250D03*
X64177Y-34250D03*
X63823Y-33750D03*
X64177Y-33750D03*
X57573Y-30000D03*
X57927Y-30000D03*
G54D13*
X53000Y-33300D03*
X53000Y-32700D03*
X53000Y-35950D03*
X53000Y-36550D03*
G54D14*
X60000Y-29400D03*
X60000Y-28100D03*
G54D15*
X52500Y-34250D03*
G54D16*
X52500Y-35250D03*
G54D15*
X63250Y-29500D03*
G54D16*
X62250Y-29500D03*
G54D15*
X52500Y-37750D03*
G54D16*
X52500Y-38750D03*
G54D17*
X52750Y-30500D03*
G54D18*
X55250Y-40750D03*
G54D19*
X56250Y-40750D03*
X57250Y-40750D03*
X58250Y-40750D03*
G54D18*
X54980Y-26377D03*
G54D19*
X55980Y-26377D03*
X56980Y-26377D03*
X57980Y-26377D03*
X58980Y-26377D03*
X59980Y-26377D03*
G54D15*
X64250Y-31750D03*
G54D16*
X64250Y-32750D03*
G54D17*
X53937Y-29527D03*
G54D15*
X63250Y-28500D03*
G54D16*
X62250Y-28500D03*
G54D15*
X61250Y-26250D03*
G54D16*
X62250Y-26250D03*
G54D20*
X53149Y-26771D03*
X64173Y-40551D03*
X64173Y-26771D03*
X53149Y-40551D03*
G54D11*
X64323Y-30000D03*
X64677Y-30000D03*
X64677Y-30500D03*
X64323Y-30500D03*
G54D21*
X55250Y-35250D03*
X55250Y-35750D03*
X55250Y-36250D03*
X55250Y-36750D03*
X55250Y-37250D03*
X55250Y-37750D03*
G54D22*
X56000Y-38500D03*
X56500Y-38500D03*
X57000Y-38500D03*
X57500Y-38500D03*
X58000Y-38500D03*
X58500Y-38500D03*
X59000Y-38500D03*
X59500Y-38500D03*
X60000Y-38500D03*
X60500Y-38500D03*
X61000Y-38500D03*
G54D21*
X61750Y-37750D03*
X61750Y-37250D03*
X61750Y-36750D03*
X61750Y-36250D03*
X61750Y-35750D03*
X61750Y-35250D03*
X61750Y-34750D03*
X61750Y-34250D03*
X61750Y-33750D03*
X61750Y-33250D03*
X61750Y-32750D03*
G54D22*
X61000Y-32000D03*
X60500Y-32000D03*
X60000Y-32000D03*
X59500Y-32000D03*
X59000Y-32000D03*
X58500Y-32000D03*
X58000Y-32000D03*
X57500Y-32000D03*
X57000Y-32000D03*
X56500Y-32000D03*
X56000Y-32000D03*
G54D21*
X55250Y-32750D03*
X55250Y-33250D03*
X55250Y-33750D03*
X55250Y-34250D03*
X55250Y-34750D03*
G54D23*
X58668Y-35170D03*
X62438Y-36777D03*
X57442Y-27718D03*
X58644Y-30823D03*
X55927Y-34005D03*
X55459Y-30581D03*
X56332Y-31131D03*
X58281Y-31243D03*
X58468Y-29303D03*
X60261Y-31213D03*
X58820Y-29962D03*
X56325Y-30474D03*
X59288Y-29378D03*
X58303Y-30481D03*
X56721Y-32872D03*
X59180Y-32922D03*
X56263Y-35030D03*
X60555Y-34836D03*
X57639Y-33641D03*
X57440Y-36295D03*
X59302Y-28270D03*
X59557Y-35547D03*
X58159Y-37191D03*
X60760Y-32932D03*
X61079Y-34667D03*
G54D24*
X57572Y-31396D02*
X57572Y-30248D01*
X57500Y-31469D02*
X57572Y-31396D01*
X57500Y-32000D02*
X57500Y-31469D01*
X57572Y-30124D02*
X57572Y-30248D01*
X59660Y-35170D02*
X58668Y-35170D01*
X61219Y-36729D02*
X59660Y-35170D01*
X61219Y-36750D02*
X61219Y-36729D01*
X61750Y-36750D02*
X61219Y-36750D01*
X61750Y-36750D02*
X62280Y-36750D01*
X62307Y-36777D02*
X62438Y-36777D01*
X62280Y-36750D02*
X62307Y-36777D01*
X63478Y-36777D02*
X63531Y-36830D01*
X62438Y-36777D02*
X63478Y-36777D01*
X63779Y-36830D02*
X63531Y-36830D01*
X55980Y-26780D02*
X55980Y-26377D01*
X56918Y-27718D02*
X55980Y-26780D01*
X57442Y-27718D02*
X56918Y-27718D01*
X57572Y-30124D02*
X57572Y-30000D01*
X57572Y-30000D02*
X57572Y-29751D01*
X58796Y-29441D02*
X58796Y-29073D01*
X58486Y-29751D02*
X58796Y-29441D01*
X57572Y-29751D02*
X58486Y-29751D01*
X58796Y-29073D02*
X57442Y-27718D01*
X59032Y-28836D02*
X58796Y-29073D01*
X60818Y-28836D02*
X59032Y-28836D01*
X61685Y-27969D02*
X60818Y-28836D01*
X62719Y-27969D02*
X61685Y-27969D01*
X63250Y-28500D02*
X62719Y-27969D01*
X64322Y-30000D02*
X64114Y-30000D01*
X63250Y-28500D02*
X63250Y-29500D01*
X63780Y-29665D02*
X64114Y-30000D01*
X63780Y-29500D02*
X63780Y-29665D01*
X63250Y-29500D02*
X63780Y-29500D01*
X59500Y-32000D02*
X59500Y-31469D01*
X59290Y-31469D02*
X58644Y-30823D01*
X59500Y-31469D02*
X59290Y-31469D01*
X55250Y-35750D02*
X55780Y-35750D01*
X55780Y-34152D02*
X55927Y-34005D01*
X55780Y-35750D02*
X55780Y-34152D01*
X55782Y-30581D02*
X55459Y-30581D01*
X56332Y-31131D02*
X55782Y-30581D01*
X59000Y-32000D02*
X59000Y-31469D01*
X58507Y-31469D02*
X58281Y-31243D01*
X59000Y-31469D02*
X58507Y-31469D01*
X54980Y-26377D02*
X55450Y-26377D01*
X55450Y-26583D02*
X55450Y-26377D01*
X58170Y-29303D02*
X55450Y-26583D01*
X58468Y-29303D02*
X58170Y-29303D01*
X59011Y-29962D02*
X58820Y-29962D01*
X60261Y-31213D02*
X59011Y-29962D01*
X55250Y-32750D02*
X54719Y-32750D01*
X54789Y-28937D02*
X56325Y-30474D01*
X53461Y-28937D02*
X54789Y-28937D01*
X53346Y-29052D02*
X53461Y-28937D01*
X53346Y-31376D02*
X53346Y-29052D01*
X54719Y-32750D02*
X53346Y-31376D01*
X60500Y-32000D02*
X60500Y-31469D01*
X59288Y-29650D02*
X59288Y-29378D01*
X60599Y-30962D02*
X59288Y-29650D01*
X60599Y-31370D02*
X60599Y-30962D01*
X60500Y-31469D02*
X60599Y-31370D01*
X60000Y-32000D02*
X60000Y-31469D01*
X59011Y-30481D02*
X58303Y-30481D01*
X60000Y-31469D02*
X59011Y-30481D01*
X57836Y-32872D02*
X56721Y-32872D01*
X61214Y-36250D02*
X57836Y-32872D01*
X61750Y-36250D02*
X61214Y-36250D01*
X61750Y-35750D02*
X61219Y-35750D01*
X60988Y-35750D02*
X61219Y-35750D01*
X59180Y-33942D02*
X60988Y-35750D01*
X59180Y-32922D02*
X59180Y-33942D01*
X57927Y-30000D02*
X57927Y-30248D01*
X53000Y-32700D02*
X53000Y-32955D01*
X64177Y-34250D02*
X64177Y-34750D01*
X64177Y-34750D02*
X64177Y-35250D01*
X53444Y-37250D02*
X53000Y-36805D01*
X55250Y-37250D02*
X53444Y-37250D01*
X53000Y-36550D02*
X53000Y-36805D01*
X64177Y-34250D02*
X64177Y-33750D01*
X62547Y-26780D02*
X62250Y-26780D01*
X64885Y-29118D02*
X62547Y-26780D01*
X64885Y-33249D02*
X64885Y-29118D01*
X64385Y-33750D02*
X64885Y-33249D01*
X64177Y-33750D02*
X64385Y-33750D01*
X58000Y-31734D02*
X58000Y-31469D01*
X57927Y-31396D02*
X58000Y-31469D01*
X57927Y-30248D02*
X57927Y-31396D01*
X64177Y-37035D02*
X64177Y-35250D01*
X64027Y-37184D02*
X64177Y-37035D01*
X63779Y-37184D02*
X64027Y-37184D01*
X61750Y-32750D02*
X61219Y-32750D01*
X55250Y-37250D02*
X55780Y-37250D01*
X56263Y-36766D02*
X55780Y-37250D01*
X56263Y-35030D02*
X56263Y-36766D01*
X53550Y-33250D02*
X55250Y-33250D01*
X53255Y-32955D02*
X53550Y-33250D01*
X53000Y-32955D02*
X53255Y-32955D01*
X55250Y-33250D02*
X55780Y-33250D01*
X58000Y-31734D02*
X58000Y-32000D01*
X58000Y-32000D02*
X58000Y-32530D01*
X63779Y-37184D02*
X63531Y-37184D01*
X60949Y-37520D02*
X61219Y-37250D01*
X57017Y-37520D02*
X60949Y-37520D01*
X56263Y-36766D02*
X57017Y-37520D01*
X63466Y-37250D02*
X63531Y-37184D01*
X61750Y-37250D02*
X63466Y-37250D01*
X61750Y-37250D02*
X61219Y-37250D01*
X56585Y-32545D02*
X55830Y-33300D01*
X57688Y-32545D02*
X56585Y-32545D01*
X57703Y-32530D02*
X57688Y-32545D01*
X58000Y-32530D02*
X57703Y-32530D01*
X55780Y-33250D02*
X55830Y-33300D01*
X56263Y-33733D02*
X56263Y-35030D01*
X55830Y-33300D02*
X56263Y-33733D01*
X60367Y-32530D02*
X58000Y-32530D01*
X60433Y-32595D02*
X60367Y-32530D01*
X61065Y-32595D02*
X60433Y-32595D01*
X61219Y-32750D02*
X61065Y-32595D01*
X60433Y-34714D02*
X60555Y-34836D01*
X60433Y-32595D02*
X60433Y-34714D01*
X62250Y-26250D02*
X62250Y-26732D01*
X62250Y-26732D02*
X62250Y-26780D01*
X57450Y-26572D02*
X57450Y-26377D01*
X57791Y-26914D02*
X57450Y-26572D01*
X62115Y-26914D02*
X57791Y-26914D01*
X62250Y-26780D02*
X62115Y-26914D01*
X56980Y-26377D02*
X57450Y-26377D01*
X59000Y-40178D02*
X59072Y-40251D01*
X59000Y-38500D02*
X59000Y-40178D01*
X59072Y-40500D02*
X59072Y-40251D01*
X59500Y-40178D02*
X59427Y-40251D01*
X59500Y-38500D02*
X59500Y-40178D01*
X59427Y-40500D02*
X59427Y-40251D01*
X60000Y-40178D02*
X60072Y-40251D01*
X60000Y-38500D02*
X60000Y-40178D01*
X60072Y-40500D02*
X60072Y-40251D01*
X60500Y-40178D02*
X60427Y-40251D01*
X60500Y-38500D02*
X60500Y-40178D01*
X60427Y-40500D02*
X60427Y-40251D01*
X63822Y-35250D02*
X63614Y-35250D01*
X61750Y-35250D02*
X62280Y-35250D01*
X63614Y-35250D02*
X62280Y-35250D01*
X61750Y-34750D02*
X63822Y-34750D01*
X61750Y-34250D02*
X63822Y-34250D01*
X61750Y-33750D02*
X63822Y-33750D01*
X55250Y-34250D02*
X52500Y-34250D01*
X53530Y-34750D02*
X53030Y-35250D01*
X55250Y-34750D02*
X53530Y-34750D01*
X52500Y-35250D02*
X53030Y-35250D01*
X52750Y-30500D02*
X52750Y-31070D01*
X54525Y-33555D02*
X54719Y-33750D01*
X53000Y-33555D02*
X54525Y-33555D01*
X52644Y-32944D02*
X53000Y-33300D01*
X52644Y-31175D02*
X52644Y-32944D01*
X52750Y-31070D02*
X52644Y-31175D01*
X53000Y-33300D02*
X53000Y-33555D01*
X55250Y-33750D02*
X54719Y-33750D01*
X52500Y-36094D02*
X52644Y-35950D01*
X52500Y-37219D02*
X52500Y-36094D01*
X52500Y-37750D02*
X52500Y-37219D01*
X53000Y-35950D02*
X52822Y-35950D01*
X52822Y-35950D02*
X52644Y-35950D01*
X53522Y-35250D02*
X52822Y-35950D01*
X54719Y-35250D02*
X53522Y-35250D01*
X55250Y-35250D02*
X54719Y-35250D01*
X57639Y-36096D02*
X57639Y-33641D01*
X57440Y-36295D02*
X57639Y-36096D01*
X60000Y-29400D02*
X60530Y-29400D01*
X62250Y-29500D02*
X61719Y-29500D01*
X60630Y-29500D02*
X61719Y-29500D01*
X60530Y-29400D02*
X60630Y-29500D01*
X59469Y-28103D02*
X59302Y-28270D01*
X59469Y-28100D02*
X59469Y-28103D01*
X60000Y-28100D02*
X59469Y-28100D01*
X55720Y-40310D02*
X55720Y-40750D01*
X57000Y-39030D02*
X55720Y-40310D01*
X57000Y-38500D02*
X57000Y-39030D01*
X55250Y-40750D02*
X55720Y-40750D01*
X56720Y-40279D02*
X56720Y-40750D01*
X57500Y-39500D02*
X56720Y-40279D01*
X57500Y-38500D02*
X57500Y-39500D01*
X56250Y-40750D02*
X56720Y-40750D01*
X57720Y-40279D02*
X57720Y-40750D01*
X58000Y-40000D02*
X57720Y-40279D01*
X58000Y-38500D02*
X58000Y-40000D01*
X57250Y-40750D02*
X57720Y-40750D01*
X58500Y-39969D02*
X58250Y-40219D01*
X58500Y-38500D02*
X58500Y-39969D01*
X58250Y-40750D02*
X58250Y-40219D01*
X64322Y-31146D02*
X64322Y-30500D01*
X64250Y-31219D02*
X64322Y-31146D01*
X64250Y-31750D02*
X64250Y-31219D01*
X63219Y-33250D02*
X63719Y-32750D01*
X61750Y-33250D02*
X63219Y-33250D01*
X64250Y-32750D02*
X63719Y-32750D01*
X54507Y-30097D02*
X54507Y-29527D01*
X55879Y-31469D02*
X54507Y-30097D01*
X57000Y-31469D02*
X55879Y-31469D01*
X57000Y-32000D02*
X57000Y-31469D01*
X53937Y-29527D02*
X54507Y-29527D01*
X64677Y-30500D02*
X64677Y-30000D01*
X59557Y-35793D02*
X59557Y-35547D01*
X58159Y-37191D02*
X59557Y-35793D01*
X61079Y-33251D02*
X60760Y-32932D01*
X61079Y-34667D02*
X61079Y-33251D01*
X55780Y-36750D02*
X55780Y-36250D01*
X55250Y-36750D02*
X55780Y-36750D01*
X55250Y-36250D02*
X55780Y-36250D01*
G54D10*
G36*
X58595Y-30254D02*
X58592Y-30254D01*
X58510Y-30171D01*
X58376Y-30116D01*
X58255Y-30116D01*
X58255Y-30112D01*
X58193Y-30050D01*
X57966Y-30050D01*
X57966Y-30305D01*
X57976Y-30316D01*
X57938Y-30408D01*
X57938Y-30553D01*
X57993Y-30687D01*
X58096Y-30790D01*
X58230Y-30846D01*
X58279Y-30846D01*
X58279Y-30878D01*
X58209Y-30878D01*
X58074Y-30934D01*
X57972Y-31036D01*
X57916Y-31170D01*
X57916Y-31316D01*
X57949Y-31397D01*
X57949Y-31412D01*
X57887Y-31350D01*
X57800Y-31350D01*
X57800Y-31350D01*
X57800Y-30368D01*
X57825Y-30368D01*
X57887Y-30305D01*
X57887Y-30050D01*
X57869Y-30050D01*
X57869Y-29979D01*
X58455Y-29979D01*
X58455Y-30035D01*
X58511Y-30169D01*
X58595Y-30254D01*
X58595Y-30254D01*
G37*
G54D25*
X58595Y-30254D02*
X58592Y-30254D01*
X58510Y-30171D01*
X58376Y-30116D01*
X58255Y-30116D01*
X58255Y-30112D01*
X58193Y-30050D01*
X57966Y-30050D01*
X57966Y-30305D01*
X57976Y-30316D01*
X57938Y-30408D01*
X57938Y-30553D01*
X57993Y-30687D01*
X58096Y-30790D01*
X58230Y-30846D01*
X58279Y-30846D01*
X58279Y-30878D01*
X58209Y-30878D01*
X58074Y-30934D01*
X57972Y-31036D01*
X57916Y-31170D01*
X57916Y-31316D01*
X57949Y-31397D01*
X57949Y-31412D01*
X57887Y-31350D01*
X57800Y-31350D01*
X57800Y-31350D01*
X57800Y-30368D01*
X57825Y-30368D01*
X57887Y-30305D01*
X57887Y-30050D01*
X57869Y-30050D01*
X57869Y-29979D01*
X58455Y-29979D01*
X58455Y-30035D01*
X58511Y-30169D01*
X58595Y-30254D01*
G54D10*
G36*
X59082Y-32568D02*
X58974Y-32612D01*
X58871Y-32715D01*
X58815Y-32849D01*
X58815Y-32994D01*
X58871Y-33128D01*
X58953Y-33211D01*
X58953Y-33667D01*
X57997Y-32711D01*
X57923Y-32662D01*
X57862Y-32650D01*
X57887Y-32650D01*
X57950Y-32587D01*
X57950Y-32050D01*
X57942Y-32050D01*
X57942Y-31950D01*
X57950Y-31950D01*
X57950Y-31942D01*
X58050Y-31942D01*
X58050Y-31950D01*
X58057Y-31950D01*
X58057Y-32050D01*
X58050Y-32050D01*
X58050Y-32587D01*
X58112Y-32650D01*
X58199Y-32650D01*
X58291Y-32611D01*
X58335Y-32568D01*
X58383Y-32568D01*
X58683Y-32568D01*
X58745Y-32542D01*
X58750Y-32537D01*
X58754Y-32542D01*
X58816Y-32568D01*
X58883Y-32568D01*
X59082Y-32568D01*
X59082Y-32568D01*
G37*
G54D25*
X59082Y-32568D02*
X58974Y-32612D01*
X58871Y-32715D01*
X58815Y-32849D01*
X58815Y-32994D01*
X58871Y-33128D01*
X58953Y-33211D01*
X58953Y-33667D01*
X57997Y-32711D01*
X57923Y-32662D01*
X57862Y-32650D01*
X57887Y-32650D01*
X57950Y-32587D01*
X57950Y-32050D01*
X57942Y-32050D01*
X57942Y-31950D01*
X57950Y-31950D01*
X57950Y-31942D01*
X58050Y-31942D01*
X58050Y-31950D01*
X58057Y-31950D01*
X58057Y-32050D01*
X58050Y-32050D01*
X58050Y-32587D01*
X58112Y-32650D01*
X58199Y-32650D01*
X58291Y-32611D01*
X58335Y-32568D01*
X58383Y-32568D01*
X58683Y-32568D01*
X58745Y-32542D01*
X58750Y-32537D01*
X58754Y-32542D01*
X58816Y-32568D01*
X58883Y-32568D01*
X59082Y-32568D01*
G54D10*
G36*
X61212Y-35500D02*
X61207Y-35504D01*
X61200Y-35522D01*
X61082Y-35522D01*
X59408Y-33848D01*
X59408Y-33211D01*
X59490Y-33129D01*
X59545Y-32995D01*
X59545Y-32850D01*
X59490Y-32715D01*
X59387Y-32613D01*
X59253Y-32557D01*
X59209Y-32557D01*
X59245Y-32542D01*
X59250Y-32537D01*
X59254Y-32542D01*
X59316Y-32568D01*
X59383Y-32568D01*
X59683Y-32568D01*
X59745Y-32542D01*
X59750Y-32537D01*
X59754Y-32542D01*
X59816Y-32568D01*
X59883Y-32568D01*
X60183Y-32568D01*
X60245Y-32542D01*
X60250Y-32537D01*
X60254Y-32542D01*
X60316Y-32568D01*
X60383Y-32568D01*
X60683Y-32568D01*
X60745Y-32542D01*
X60750Y-32537D01*
X60754Y-32542D01*
X60814Y-32567D01*
X60687Y-32567D01*
X60553Y-32622D01*
X60450Y-32725D01*
X60395Y-32859D01*
X60394Y-33004D01*
X60450Y-33138D01*
X60552Y-33241D01*
X60687Y-33297D01*
X60803Y-33297D01*
X60852Y-33345D01*
X60852Y-34378D01*
X60770Y-34460D01*
X60714Y-34594D01*
X60714Y-34739D01*
X60769Y-34873D01*
X60872Y-34976D01*
X61006Y-35032D01*
X61151Y-35032D01*
X61205Y-35010D01*
X61181Y-35066D01*
X61181Y-35133D01*
X61181Y-35433D01*
X61207Y-35495D01*
X61212Y-35500D01*
X61212Y-35500D01*
G37*
G54D25*
X61212Y-35500D02*
X61207Y-35504D01*
X61200Y-35522D01*
X61082Y-35522D01*
X59408Y-33848D01*
X59408Y-33211D01*
X59490Y-33129D01*
X59545Y-32995D01*
X59545Y-32850D01*
X59490Y-32715D01*
X59387Y-32613D01*
X59253Y-32557D01*
X59209Y-32557D01*
X59245Y-32542D01*
X59250Y-32537D01*
X59254Y-32542D01*
X59316Y-32568D01*
X59383Y-32568D01*
X59683Y-32568D01*
X59745Y-32542D01*
X59750Y-32537D01*
X59754Y-32542D01*
X59816Y-32568D01*
X59883Y-32568D01*
X60183Y-32568D01*
X60245Y-32542D01*
X60250Y-32537D01*
X60254Y-32542D01*
X60316Y-32568D01*
X60383Y-32568D01*
X60683Y-32568D01*
X60745Y-32542D01*
X60750Y-32537D01*
X60754Y-32542D01*
X60814Y-32567D01*
X60687Y-32567D01*
X60553Y-32622D01*
X60450Y-32725D01*
X60395Y-32859D01*
X60394Y-33004D01*
X60450Y-33138D01*
X60552Y-33241D01*
X60687Y-33297D01*
X60803Y-33297D01*
X60852Y-33345D01*
X60852Y-34378D01*
X60770Y-34460D01*
X60714Y-34594D01*
X60714Y-34739D01*
X60769Y-34873D01*
X60872Y-34976D01*
X61006Y-35032D01*
X61151Y-35032D01*
X61205Y-35010D01*
X61181Y-35066D01*
X61181Y-35133D01*
X61181Y-35433D01*
X61207Y-35495D01*
X61212Y-35500D01*
G54D10*
G36*
X64138Y-30250D02*
X64101Y-30286D01*
X64076Y-30348D01*
X64076Y-30415D01*
X64076Y-30651D01*
X64095Y-30698D01*
X64095Y-31052D01*
X64089Y-31059D01*
X64040Y-31133D01*
X64030Y-31181D01*
X63816Y-31181D01*
X63754Y-31207D01*
X63707Y-31254D01*
X63681Y-31316D01*
X63681Y-31383D01*
X63681Y-32183D01*
X63707Y-32245D01*
X63754Y-32292D01*
X63816Y-32318D01*
X63876Y-32318D01*
X63848Y-32337D01*
X63725Y-32521D01*
X63724Y-32522D01*
X63719Y-32522D01*
X63633Y-32540D01*
X63559Y-32589D01*
X63559Y-32589D01*
X63125Y-33022D01*
X62369Y-33022D01*
X62400Y-32949D01*
X62400Y-32862D01*
X62400Y-32637D01*
X62400Y-32550D01*
X62361Y-32458D01*
X62291Y-32388D01*
X62199Y-32350D01*
X61862Y-32350D01*
X61800Y-32412D01*
X61800Y-32700D01*
X62337Y-32700D01*
X62400Y-32637D01*
X62400Y-32862D01*
X62337Y-32800D01*
X61800Y-32800D01*
X61800Y-32807D01*
X61700Y-32807D01*
X61700Y-32800D01*
X61162Y-32800D01*
X61118Y-32844D01*
X61069Y-32725D01*
X60967Y-32622D01*
X60834Y-32568D01*
X60883Y-32568D01*
X61100Y-32568D01*
X61100Y-32637D01*
X61162Y-32700D01*
X61700Y-32700D01*
X61700Y-32412D01*
X61637Y-32350D01*
X61318Y-32350D01*
X61318Y-31566D01*
X61292Y-31504D01*
X61245Y-31457D01*
X61183Y-31431D01*
X61116Y-31431D01*
X60816Y-31431D01*
X60814Y-31432D01*
X60827Y-31370D01*
X60827Y-31370D01*
X60827Y-31370D01*
X60827Y-30962D01*
X60827Y-30962D01*
X60827Y-30962D01*
X60809Y-30875D01*
X60760Y-30801D01*
X60760Y-30801D01*
X60760Y-30801D01*
X59826Y-29868D01*
X60433Y-29868D01*
X60495Y-29842D01*
X60542Y-29795D01*
X60568Y-29733D01*
X60568Y-29714D01*
X60630Y-29727D01*
X61719Y-29727D01*
X61720Y-29727D01*
X61837Y-29901D01*
X62021Y-30024D01*
X62238Y-30068D01*
X62261Y-30068D01*
X62478Y-30024D01*
X62662Y-29901D01*
X62681Y-29873D01*
X62681Y-29933D01*
X62707Y-29995D01*
X62754Y-30042D01*
X62816Y-30068D01*
X62883Y-30068D01*
X63683Y-30068D01*
X63745Y-30042D01*
X63790Y-29997D01*
X63953Y-30160D01*
X64027Y-30209D01*
X64114Y-30227D01*
X64114Y-30227D01*
X64114Y-30227D01*
X64115Y-30227D01*
X64138Y-30250D01*
X64138Y-30250D01*
G37*
G54D25*
X64138Y-30250D02*
X64101Y-30286D01*
X64076Y-30348D01*
X64076Y-30415D01*
X64076Y-30651D01*
X64095Y-30698D01*
X64095Y-31052D01*
X64089Y-31059D01*
X64040Y-31133D01*
X64030Y-31181D01*
X63816Y-31181D01*
X63754Y-31207D01*
X63707Y-31254D01*
X63681Y-31316D01*
X63681Y-31383D01*
X63681Y-32183D01*
X63707Y-32245D01*
X63754Y-32292D01*
X63816Y-32318D01*
X63876Y-32318D01*
X63848Y-32337D01*
X63725Y-32521D01*
X63724Y-32522D01*
X63719Y-32522D01*
X63633Y-32540D01*
X63559Y-32589D01*
X63559Y-32589D01*
X63125Y-33022D01*
X62369Y-33022D01*
X62400Y-32949D01*
X62400Y-32862D01*
X62400Y-32637D01*
X62400Y-32550D01*
X62361Y-32458D01*
X62291Y-32388D01*
X62199Y-32350D01*
X61862Y-32350D01*
X61800Y-32412D01*
X61800Y-32700D01*
X62337Y-32700D01*
X62400Y-32637D01*
X62400Y-32862D01*
X62337Y-32800D01*
X61800Y-32800D01*
X61800Y-32807D01*
X61700Y-32807D01*
X61700Y-32800D01*
X61162Y-32800D01*
X61118Y-32844D01*
X61069Y-32725D01*
X60967Y-32622D01*
X60834Y-32568D01*
X60883Y-32568D01*
X61100Y-32568D01*
X61100Y-32637D01*
X61162Y-32700D01*
X61700Y-32700D01*
X61700Y-32412D01*
X61637Y-32350D01*
X61318Y-32350D01*
X61318Y-31566D01*
X61292Y-31504D01*
X61245Y-31457D01*
X61183Y-31431D01*
X61116Y-31431D01*
X60816Y-31431D01*
X60814Y-31432D01*
X60827Y-31370D01*
X60827Y-31370D01*
X60827Y-31370D01*
X60827Y-30962D01*
X60827Y-30962D01*
X60827Y-30962D01*
X60809Y-30875D01*
X60760Y-30801D01*
X60760Y-30801D01*
X60760Y-30801D01*
X59826Y-29868D01*
X60433Y-29868D01*
X60495Y-29842D01*
X60542Y-29795D01*
X60568Y-29733D01*
X60568Y-29714D01*
X60630Y-29727D01*
X61719Y-29727D01*
X61720Y-29727D01*
X61837Y-29901D01*
X62021Y-30024D01*
X62238Y-30068D01*
X62261Y-30068D01*
X62478Y-30024D01*
X62662Y-29901D01*
X62681Y-29873D01*
X62681Y-29933D01*
X62707Y-29995D01*
X62754Y-30042D01*
X62816Y-30068D01*
X62883Y-30068D01*
X63683Y-30068D01*
X63745Y-30042D01*
X63790Y-29997D01*
X63953Y-30160D01*
X64027Y-30209D01*
X64114Y-30227D01*
X64114Y-30227D01*
X64114Y-30227D01*
X64115Y-30227D01*
X64138Y-30250D01*
G54D10*
G36*
X64910Y-29817D02*
X64898Y-29786D01*
X64850Y-29739D01*
X64788Y-29713D01*
X64722Y-29713D01*
X64565Y-29713D01*
X64503Y-29739D01*
X64500Y-29742D01*
X64496Y-29739D01*
X64434Y-29713D01*
X64368Y-29713D01*
X64211Y-29713D01*
X64167Y-29731D01*
X64007Y-29571D01*
X64007Y-29500D01*
X63989Y-29413D01*
X63940Y-29339D01*
X63866Y-29290D01*
X63818Y-29280D01*
X63818Y-29066D01*
X63792Y-29004D01*
X63787Y-29000D01*
X63792Y-28995D01*
X63818Y-28933D01*
X63818Y-28866D01*
X63818Y-28066D01*
X63792Y-28004D01*
X63745Y-27957D01*
X63683Y-27931D01*
X63616Y-27931D01*
X63003Y-27931D01*
X62882Y-27811D01*
X62882Y-26400D01*
X62835Y-26300D01*
X62300Y-26300D01*
X62300Y-26835D01*
X62400Y-26882D01*
X62631Y-26776D01*
X62803Y-26590D01*
X62882Y-26400D01*
X62882Y-27811D01*
X62880Y-27809D01*
X62806Y-27760D01*
X62719Y-27742D01*
X62719Y-27742D01*
X61685Y-27742D01*
X61598Y-27760D01*
X61568Y-27779D01*
X61524Y-27809D01*
X61524Y-27809D01*
X60724Y-28609D01*
X59438Y-28609D01*
X59509Y-28580D01*
X59534Y-28554D01*
X59566Y-28568D01*
X59633Y-28568D01*
X60433Y-28568D01*
X60495Y-28542D01*
X60542Y-28495D01*
X60568Y-28433D01*
X60568Y-28366D01*
X60568Y-27766D01*
X60542Y-27704D01*
X60495Y-27657D01*
X60433Y-27631D01*
X60366Y-27631D01*
X59566Y-27631D01*
X59504Y-27657D01*
X59457Y-27704D01*
X59431Y-27766D01*
X59431Y-27833D01*
X59431Y-27880D01*
X59383Y-27890D01*
X59359Y-27905D01*
X59230Y-27905D01*
X59096Y-27961D01*
X58993Y-28063D01*
X58938Y-28197D01*
X58937Y-28342D01*
X58993Y-28477D01*
X59095Y-28579D01*
X59167Y-28609D01*
X59032Y-28609D01*
X59032Y-28609D01*
X58945Y-28626D01*
X58871Y-28676D01*
X58871Y-28676D01*
X58796Y-28751D01*
X57806Y-27762D01*
X57807Y-27646D01*
X57751Y-27512D01*
X57649Y-27409D01*
X57514Y-27353D01*
X57369Y-27353D01*
X57235Y-27409D01*
X57153Y-27491D01*
X57012Y-27491D01*
X56333Y-26812D01*
X56339Y-26808D01*
X56442Y-26654D01*
X56471Y-26737D01*
X56625Y-26909D01*
X56832Y-27009D01*
X56838Y-27010D01*
X56930Y-26963D01*
X56930Y-26427D01*
X56922Y-26427D01*
X56922Y-26327D01*
X56930Y-26327D01*
X56930Y-26320D01*
X57030Y-26320D01*
X57030Y-26327D01*
X57038Y-26327D01*
X57038Y-26427D01*
X57030Y-26427D01*
X57030Y-26963D01*
X57121Y-27010D01*
X57127Y-27009D01*
X57335Y-26909D01*
X57488Y-26737D01*
X57518Y-26654D01*
X57621Y-26808D01*
X57785Y-26918D01*
X57980Y-26957D01*
X58174Y-26918D01*
X58339Y-26808D01*
X58449Y-26643D01*
X58480Y-26489D01*
X58510Y-26643D01*
X58621Y-26808D01*
X58785Y-26918D01*
X58980Y-26957D01*
X59174Y-26918D01*
X59339Y-26808D01*
X59449Y-26643D01*
X59480Y-26489D01*
X59510Y-26643D01*
X59621Y-26808D01*
X59785Y-26918D01*
X59980Y-26957D01*
X60174Y-26918D01*
X60339Y-26808D01*
X60449Y-26643D01*
X60488Y-26449D01*
X60488Y-26306D01*
X60449Y-26112D01*
X60397Y-26034D01*
X60681Y-26034D01*
X60681Y-26683D01*
X60707Y-26745D01*
X60754Y-26792D01*
X60816Y-26818D01*
X60883Y-26818D01*
X61683Y-26818D01*
X61745Y-26792D01*
X61792Y-26745D01*
X61807Y-26709D01*
X61868Y-26776D01*
X62099Y-26882D01*
X62200Y-26835D01*
X62200Y-26300D01*
X62192Y-26300D01*
X62192Y-26200D01*
X62200Y-26200D01*
X62200Y-26192D01*
X62300Y-26192D01*
X62300Y-26200D01*
X62835Y-26200D01*
X62882Y-26099D01*
X62855Y-26034D01*
X63391Y-26034D01*
X63263Y-26162D01*
X63099Y-26557D01*
X63099Y-26984D01*
X63262Y-27379D01*
X63564Y-27681D01*
X63958Y-27845D01*
X64385Y-27845D01*
X64780Y-27682D01*
X64910Y-27553D01*
X64910Y-29817D01*
X64910Y-29817D01*
G37*
G54D25*
X64910Y-29817D02*
X64898Y-29786D01*
X64850Y-29739D01*
X64788Y-29713D01*
X64722Y-29713D01*
X64565Y-29713D01*
X64503Y-29739D01*
X64500Y-29742D01*
X64496Y-29739D01*
X64434Y-29713D01*
X64368Y-29713D01*
X64211Y-29713D01*
X64167Y-29731D01*
X64007Y-29571D01*
X64007Y-29500D01*
X63989Y-29413D01*
X63940Y-29339D01*
X63866Y-29290D01*
X63818Y-29280D01*
X63818Y-29066D01*
X63792Y-29004D01*
X63787Y-29000D01*
X63792Y-28995D01*
X63818Y-28933D01*
X63818Y-28866D01*
X63818Y-28066D01*
X63792Y-28004D01*
X63745Y-27957D01*
X63683Y-27931D01*
X63616Y-27931D01*
X63003Y-27931D01*
X62882Y-27811D01*
X62882Y-26400D01*
X62835Y-26300D01*
X62300Y-26300D01*
X62300Y-26835D01*
X62400Y-26882D01*
X62631Y-26776D01*
X62803Y-26590D01*
X62882Y-26400D01*
X62882Y-27811D01*
X62880Y-27809D01*
X62806Y-27760D01*
X62719Y-27742D01*
X62719Y-27742D01*
X61685Y-27742D01*
X61598Y-27760D01*
X61568Y-27779D01*
X61524Y-27809D01*
X61524Y-27809D01*
X60724Y-28609D01*
X59438Y-28609D01*
X59509Y-28580D01*
X59534Y-28554D01*
X59566Y-28568D01*
X59633Y-28568D01*
X60433Y-28568D01*
X60495Y-28542D01*
X60542Y-28495D01*
X60568Y-28433D01*
X60568Y-28366D01*
X60568Y-27766D01*
X60542Y-27704D01*
X60495Y-27657D01*
X60433Y-27631D01*
X60366Y-27631D01*
X59566Y-27631D01*
X59504Y-27657D01*
X59457Y-27704D01*
X59431Y-27766D01*
X59431Y-27833D01*
X59431Y-27880D01*
X59383Y-27890D01*
X59359Y-27905D01*
X59230Y-27905D01*
X59096Y-27961D01*
X58993Y-28063D01*
X58938Y-28197D01*
X58937Y-28342D01*
X58993Y-28477D01*
X59095Y-28579D01*
X59167Y-28609D01*
X59032Y-28609D01*
X59032Y-28609D01*
X58945Y-28626D01*
X58871Y-28676D01*
X58871Y-28676D01*
X58796Y-28751D01*
X57806Y-27762D01*
X57807Y-27646D01*
X57751Y-27512D01*
X57649Y-27409D01*
X57514Y-27353D01*
X57369Y-27353D01*
X57235Y-27409D01*
X57153Y-27491D01*
X57012Y-27491D01*
X56333Y-26812D01*
X56339Y-26808D01*
X56442Y-26654D01*
X56471Y-26737D01*
X56625Y-26909D01*
X56832Y-27009D01*
X56838Y-27010D01*
X56930Y-26963D01*
X56930Y-26427D01*
X56922Y-26427D01*
X56922Y-26327D01*
X56930Y-26327D01*
X56930Y-26320D01*
X57030Y-26320D01*
X57030Y-26327D01*
X57038Y-26327D01*
X57038Y-26427D01*
X57030Y-26427D01*
X57030Y-26963D01*
X57121Y-27010D01*
X57127Y-27009D01*
X57335Y-26909D01*
X57488Y-26737D01*
X57518Y-26654D01*
X57621Y-26808D01*
X57785Y-26918D01*
X57980Y-26957D01*
X58174Y-26918D01*
X58339Y-26808D01*
X58449Y-26643D01*
X58480Y-26489D01*
X58510Y-26643D01*
X58621Y-26808D01*
X58785Y-26918D01*
X58980Y-26957D01*
X59174Y-26918D01*
X59339Y-26808D01*
X59449Y-26643D01*
X59480Y-26489D01*
X59510Y-26643D01*
X59621Y-26808D01*
X59785Y-26918D01*
X59980Y-26957D01*
X60174Y-26918D01*
X60339Y-26808D01*
X60449Y-26643D01*
X60488Y-26449D01*
X60488Y-26306D01*
X60449Y-26112D01*
X60397Y-26034D01*
X60681Y-26034D01*
X60681Y-26683D01*
X60707Y-26745D01*
X60754Y-26792D01*
X60816Y-26818D01*
X60883Y-26818D01*
X61683Y-26818D01*
X61745Y-26792D01*
X61792Y-26745D01*
X61807Y-26709D01*
X61868Y-26776D01*
X62099Y-26882D01*
X62200Y-26835D01*
X62200Y-26300D01*
X62192Y-26300D01*
X62192Y-26200D01*
X62200Y-26200D01*
X62200Y-26192D01*
X62300Y-26192D01*
X62300Y-26200D01*
X62835Y-26200D01*
X62882Y-26099D01*
X62855Y-26034D01*
X63391Y-26034D01*
X63263Y-26162D01*
X63099Y-26557D01*
X63099Y-26984D01*
X63262Y-27379D01*
X63564Y-27681D01*
X63958Y-27845D01*
X64385Y-27845D01*
X64780Y-27682D01*
X64910Y-27553D01*
X64910Y-29817D01*
G54D10*
G36*
X64910Y-39769D02*
X64782Y-39641D01*
X64505Y-39526D01*
X64505Y-35417D01*
X64505Y-35362D01*
X64505Y-35137D01*
X64505Y-35082D01*
X64471Y-35000D01*
X64505Y-34917D01*
X64505Y-34862D01*
X64505Y-34637D01*
X64505Y-34582D01*
X64471Y-34500D01*
X64505Y-34417D01*
X64505Y-34362D01*
X64505Y-34137D01*
X64505Y-34082D01*
X64471Y-34000D01*
X64505Y-33917D01*
X64505Y-33862D01*
X64505Y-33637D01*
X64505Y-33582D01*
X64467Y-33490D01*
X64397Y-33420D01*
X64305Y-33382D01*
X64278Y-33382D01*
X64216Y-33444D01*
X64216Y-33700D01*
X64443Y-33700D01*
X64505Y-33637D01*
X64505Y-33862D01*
X64443Y-33800D01*
X64216Y-33800D01*
X64216Y-33944D01*
X64216Y-34055D01*
X64216Y-34200D01*
X64443Y-34200D01*
X64505Y-34137D01*
X64505Y-34362D01*
X64443Y-34300D01*
X64216Y-34300D01*
X64216Y-34444D01*
X64216Y-34555D01*
X64216Y-34700D01*
X64443Y-34700D01*
X64505Y-34637D01*
X64505Y-34862D01*
X64443Y-34800D01*
X64216Y-34800D01*
X64216Y-34944D01*
X64216Y-35055D01*
X64216Y-35200D01*
X64443Y-35200D01*
X64505Y-35137D01*
X64505Y-35362D01*
X64443Y-35300D01*
X64216Y-35300D01*
X64216Y-35555D01*
X64278Y-35618D01*
X64305Y-35618D01*
X64397Y-35579D01*
X64467Y-35509D01*
X64505Y-35417D01*
X64505Y-39526D01*
X64387Y-39477D01*
X64147Y-39477D01*
X64147Y-37313D01*
X64147Y-37286D01*
X64085Y-37224D01*
X63829Y-37224D01*
X63829Y-37450D01*
X63892Y-37513D01*
X63947Y-37513D01*
X64039Y-37475D01*
X64109Y-37404D01*
X64147Y-37313D01*
X64147Y-39477D01*
X63960Y-39476D01*
X63729Y-39572D01*
X63729Y-37450D01*
X63729Y-37224D01*
X63474Y-37224D01*
X63411Y-37286D01*
X63411Y-37313D01*
X63449Y-37404D01*
X63519Y-37475D01*
X63611Y-37513D01*
X63667Y-37513D01*
X63729Y-37450D01*
X63729Y-39572D01*
X63565Y-39640D01*
X63263Y-39942D01*
X63099Y-40336D01*
X63099Y-40763D01*
X63262Y-41158D01*
X63391Y-41288D01*
X58447Y-41288D01*
X58609Y-41180D01*
X58719Y-41015D01*
X58758Y-40821D01*
X58758Y-40678D01*
X58719Y-40484D01*
X58609Y-40319D01*
X58526Y-40264D01*
X58660Y-40130D01*
X58660Y-40130D01*
X58660Y-40130D01*
X58709Y-40056D01*
X58727Y-39969D01*
X58727Y-39969D01*
X58727Y-39969D01*
X58727Y-39049D01*
X58745Y-39042D01*
X58750Y-39037D01*
X58754Y-39042D01*
X58772Y-39049D01*
X58772Y-40178D01*
X58772Y-40178D01*
X58790Y-40265D01*
X58833Y-40331D01*
X58826Y-40348D01*
X58826Y-40415D01*
X58826Y-40651D01*
X58851Y-40713D01*
X58899Y-40760D01*
X58961Y-40786D01*
X59027Y-40786D01*
X59184Y-40786D01*
X59246Y-40760D01*
X59250Y-40757D01*
X59253Y-40760D01*
X59315Y-40786D01*
X59381Y-40786D01*
X59538Y-40786D01*
X59600Y-40760D01*
X59648Y-40713D01*
X59673Y-40651D01*
X59673Y-40584D01*
X59673Y-40348D01*
X59666Y-40331D01*
X59666Y-40331D01*
X59709Y-40265D01*
X59727Y-40178D01*
X59727Y-39049D01*
X59745Y-39042D01*
X59750Y-39037D01*
X59754Y-39042D01*
X59772Y-39049D01*
X59772Y-40178D01*
X59772Y-40178D01*
X59790Y-40265D01*
X59833Y-40331D01*
X59826Y-40348D01*
X59826Y-40415D01*
X59826Y-40651D01*
X59851Y-40713D01*
X59899Y-40760D01*
X59961Y-40786D01*
X60027Y-40786D01*
X60184Y-40786D01*
X60246Y-40760D01*
X60250Y-40757D01*
X60253Y-40760D01*
X60315Y-40786D01*
X60381Y-40786D01*
X60538Y-40786D01*
X60600Y-40760D01*
X60648Y-40713D01*
X60673Y-40651D01*
X60673Y-40584D01*
X60673Y-40348D01*
X60666Y-40331D01*
X60666Y-40331D01*
X60709Y-40265D01*
X60727Y-40178D01*
X60727Y-39049D01*
X60745Y-39042D01*
X60750Y-39037D01*
X60754Y-39042D01*
X60816Y-39068D01*
X60883Y-39068D01*
X61183Y-39068D01*
X61245Y-39042D01*
X61292Y-38995D01*
X61318Y-38933D01*
X61318Y-38866D01*
X61318Y-38068D01*
X61383Y-38068D01*
X62183Y-38068D01*
X62245Y-38042D01*
X62292Y-37995D01*
X62318Y-37933D01*
X62318Y-37866D01*
X62318Y-37585D01*
X62361Y-37541D01*
X62400Y-37449D01*
X62400Y-37362D01*
X62337Y-37300D01*
X61800Y-37300D01*
X61800Y-37307D01*
X61700Y-37307D01*
X61700Y-37300D01*
X61162Y-37300D01*
X61100Y-37362D01*
X61100Y-37449D01*
X61138Y-37541D01*
X61181Y-37585D01*
X61181Y-37633D01*
X61181Y-37931D01*
X61116Y-37931D01*
X60816Y-37931D01*
X60754Y-37957D01*
X60750Y-37962D01*
X60745Y-37957D01*
X60683Y-37931D01*
X60616Y-37931D01*
X60316Y-37931D01*
X60254Y-37957D01*
X60250Y-37962D01*
X60245Y-37957D01*
X60183Y-37931D01*
X60116Y-37931D01*
X59816Y-37931D01*
X59754Y-37957D01*
X59750Y-37962D01*
X59745Y-37957D01*
X59683Y-37931D01*
X59616Y-37931D01*
X59316Y-37931D01*
X59254Y-37957D01*
X59250Y-37962D01*
X59245Y-37957D01*
X59183Y-37931D01*
X59116Y-37931D01*
X58816Y-37931D01*
X58754Y-37957D01*
X58750Y-37962D01*
X58745Y-37957D01*
X58683Y-37931D01*
X58616Y-37931D01*
X58316Y-37931D01*
X58254Y-37957D01*
X58250Y-37962D01*
X58245Y-37957D01*
X58183Y-37931D01*
X58116Y-37931D01*
X57816Y-37931D01*
X57754Y-37957D01*
X57750Y-37962D01*
X57745Y-37957D01*
X57683Y-37931D01*
X57616Y-37931D01*
X57316Y-37931D01*
X57254Y-37957D01*
X57250Y-37962D01*
X57245Y-37957D01*
X57183Y-37931D01*
X57116Y-37931D01*
X56816Y-37931D01*
X56754Y-37957D01*
X56750Y-37962D01*
X56745Y-37957D01*
X56683Y-37931D01*
X56616Y-37931D01*
X56316Y-37931D01*
X56254Y-37957D01*
X56250Y-37962D01*
X56245Y-37957D01*
X56183Y-37931D01*
X56116Y-37931D01*
X55818Y-37931D01*
X55818Y-37866D01*
X55818Y-37585D01*
X55861Y-37541D01*
X55900Y-37449D01*
X55900Y-37362D01*
X55837Y-37300D01*
X55300Y-37300D01*
X55300Y-37307D01*
X55200Y-37307D01*
X55200Y-37300D01*
X54662Y-37300D01*
X54600Y-37362D01*
X54600Y-37449D01*
X54638Y-37541D01*
X54681Y-37585D01*
X54681Y-37633D01*
X54681Y-37933D01*
X54707Y-37995D01*
X54754Y-38042D01*
X54816Y-38068D01*
X54883Y-38068D01*
X55681Y-38068D01*
X55681Y-38133D01*
X55681Y-38933D01*
X55707Y-38995D01*
X55754Y-39042D01*
X55816Y-39068D01*
X55883Y-39068D01*
X56183Y-39068D01*
X56245Y-39042D01*
X56250Y-39037D01*
X56254Y-39042D01*
X56316Y-39068D01*
X56383Y-39068D01*
X56640Y-39068D01*
X55559Y-40149D01*
X55537Y-40181D01*
X54876Y-40181D01*
X54814Y-40207D01*
X54767Y-40254D01*
X54741Y-40316D01*
X54741Y-40383D01*
X54741Y-41183D01*
X54767Y-41245D01*
X54810Y-41288D01*
X53931Y-41288D01*
X54059Y-41160D01*
X54223Y-40765D01*
X54223Y-40338D01*
X54060Y-39943D01*
X53758Y-39641D01*
X53475Y-39523D01*
X53475Y-36724D01*
X53475Y-36662D01*
X53412Y-36600D01*
X53050Y-36600D01*
X53050Y-36862D01*
X53112Y-36925D01*
X53175Y-36925D01*
X53274Y-36925D01*
X53366Y-36886D01*
X53436Y-36816D01*
X53475Y-36724D01*
X53475Y-39523D01*
X53364Y-39477D01*
X52936Y-39476D01*
X52542Y-39640D01*
X52412Y-39769D01*
X52412Y-39311D01*
X52500Y-39329D01*
X52717Y-39285D01*
X52901Y-39162D01*
X53024Y-38978D01*
X53068Y-38761D01*
X53068Y-38738D01*
X53024Y-38521D01*
X52901Y-38337D01*
X52873Y-38318D01*
X52933Y-38318D01*
X52995Y-38292D01*
X53042Y-38245D01*
X53068Y-38183D01*
X53068Y-38116D01*
X53068Y-37316D01*
X53042Y-37254D01*
X52995Y-37207D01*
X52933Y-37181D01*
X52866Y-37181D01*
X52727Y-37181D01*
X52727Y-36925D01*
X52824Y-36925D01*
X52887Y-36925D01*
X52950Y-36862D01*
X52950Y-36600D01*
X52942Y-36600D01*
X52942Y-36500D01*
X52950Y-36500D01*
X52950Y-36492D01*
X53050Y-36492D01*
X53050Y-36500D01*
X53412Y-36500D01*
X53475Y-36437D01*
X53475Y-36375D01*
X53436Y-36283D01*
X53366Y-36213D01*
X53336Y-36200D01*
X53367Y-36170D01*
X53393Y-36108D01*
X53393Y-36041D01*
X53393Y-35791D01*
X53367Y-35729D01*
X53365Y-35727D01*
X53616Y-35477D01*
X54700Y-35477D01*
X54707Y-35495D01*
X54712Y-35500D01*
X54707Y-35504D01*
X54681Y-35566D01*
X54681Y-35633D01*
X54681Y-35933D01*
X54707Y-35995D01*
X54712Y-36000D01*
X54707Y-36004D01*
X54681Y-36066D01*
X54681Y-36133D01*
X54681Y-36433D01*
X54707Y-36495D01*
X54712Y-36500D01*
X54707Y-36504D01*
X54681Y-36566D01*
X54681Y-36633D01*
X54681Y-36914D01*
X54638Y-36958D01*
X54600Y-37050D01*
X54600Y-37137D01*
X54662Y-37200D01*
X55200Y-37200D01*
X55200Y-37192D01*
X55300Y-37192D01*
X55300Y-37200D01*
X55837Y-37200D01*
X55900Y-37137D01*
X55900Y-37050D01*
X55862Y-36960D01*
X55866Y-36959D01*
X55940Y-36910D01*
X55989Y-36836D01*
X56007Y-36750D01*
X56007Y-36250D01*
X55989Y-36163D01*
X55940Y-36089D01*
X55866Y-36040D01*
X55801Y-36027D01*
X55792Y-36004D01*
X55787Y-36000D01*
X55792Y-35995D01*
X55801Y-35972D01*
X55866Y-35959D01*
X55940Y-35910D01*
X55989Y-35836D01*
X56007Y-35750D01*
X56007Y-34367D01*
X56134Y-34314D01*
X56236Y-34212D01*
X56292Y-34078D01*
X56292Y-33933D01*
X56237Y-33798D01*
X56134Y-33696D01*
X56000Y-33640D01*
X55855Y-33640D01*
X55818Y-33655D01*
X55818Y-33585D01*
X55861Y-33541D01*
X55900Y-33449D01*
X55900Y-33362D01*
X55837Y-33300D01*
X55300Y-33300D01*
X55300Y-33307D01*
X55200Y-33307D01*
X55200Y-33300D01*
X54662Y-33300D01*
X54615Y-33347D01*
X54611Y-33345D01*
X54525Y-33327D01*
X54524Y-33327D01*
X53393Y-33327D01*
X53393Y-33141D01*
X53367Y-33079D01*
X53336Y-33049D01*
X53366Y-33036D01*
X53436Y-32966D01*
X53475Y-32874D01*
X53475Y-32812D01*
X53475Y-32587D01*
X53475Y-32525D01*
X53436Y-32433D01*
X53366Y-32363D01*
X53274Y-32325D01*
X53175Y-32325D01*
X53112Y-32325D01*
X53050Y-32387D01*
X53050Y-32650D01*
X53412Y-32650D01*
X53475Y-32587D01*
X53475Y-32812D01*
X53412Y-32750D01*
X53050Y-32750D01*
X53050Y-32757D01*
X52950Y-32757D01*
X52950Y-32750D01*
X52942Y-32750D01*
X52942Y-32650D01*
X52950Y-32650D01*
X52950Y-32387D01*
X52887Y-32325D01*
X52872Y-32325D01*
X52872Y-31269D01*
X52910Y-31230D01*
X52910Y-31230D01*
X52910Y-31230D01*
X52959Y-31156D01*
X52969Y-31108D01*
X53119Y-31108D01*
X53119Y-31376D01*
X53119Y-31376D01*
X53136Y-31463D01*
X53185Y-31536D01*
X54559Y-32910D01*
X54559Y-32910D01*
X54603Y-32940D01*
X54633Y-32959D01*
X54633Y-32959D01*
X54637Y-32960D01*
X54600Y-33050D01*
X54600Y-33137D01*
X54662Y-33200D01*
X55200Y-33200D01*
X55200Y-33192D01*
X55300Y-33192D01*
X55300Y-33200D01*
X55837Y-33200D01*
X55900Y-33137D01*
X55900Y-33050D01*
X55861Y-32958D01*
X55818Y-32914D01*
X55818Y-32866D01*
X55818Y-32568D01*
X55883Y-32568D01*
X56183Y-32568D01*
X56245Y-32542D01*
X56250Y-32537D01*
X56254Y-32542D01*
X56316Y-32568D01*
X56383Y-32568D01*
X56509Y-32568D01*
X56412Y-32665D01*
X56356Y-32799D01*
X56356Y-32944D01*
X56411Y-33078D01*
X56514Y-33181D01*
X56648Y-33236D01*
X56793Y-33237D01*
X56927Y-33181D01*
X57010Y-33099D01*
X57742Y-33099D01*
X59586Y-34943D01*
X58957Y-34943D01*
X58875Y-34861D01*
X58741Y-34805D01*
X58596Y-34805D01*
X58462Y-34860D01*
X58359Y-34963D01*
X58303Y-35097D01*
X58303Y-35242D01*
X58359Y-35376D01*
X58461Y-35479D01*
X58595Y-35535D01*
X58740Y-35535D01*
X58875Y-35479D01*
X58957Y-35397D01*
X59224Y-35397D01*
X59192Y-35474D01*
X59192Y-35619D01*
X59247Y-35753D01*
X59261Y-35767D01*
X58202Y-36826D01*
X58086Y-36826D01*
X58004Y-36860D01*
X58004Y-33568D01*
X57948Y-33434D01*
X57846Y-33331D01*
X57712Y-33276D01*
X57567Y-33276D01*
X57432Y-33331D01*
X57330Y-33434D01*
X57274Y-33568D01*
X57274Y-33713D01*
X57329Y-33847D01*
X57412Y-33930D01*
X57412Y-35930D01*
X57367Y-35930D01*
X57233Y-35985D01*
X57131Y-36088D01*
X57075Y-36222D01*
X57075Y-36367D01*
X57130Y-36501D01*
X57233Y-36604D01*
X57367Y-36660D01*
X57512Y-36660D01*
X57646Y-36604D01*
X57749Y-36502D01*
X57805Y-36368D01*
X57805Y-36248D01*
X57849Y-36183D01*
X57866Y-36096D01*
X57866Y-33930D01*
X57948Y-33848D01*
X58004Y-33714D01*
X58004Y-33568D01*
X58004Y-36860D01*
X57952Y-36882D01*
X57849Y-36984D01*
X57794Y-37118D01*
X57794Y-37264D01*
X57849Y-37398D01*
X57952Y-37500D01*
X58086Y-37556D01*
X58231Y-37556D01*
X58365Y-37501D01*
X58468Y-37398D01*
X58524Y-37264D01*
X58524Y-37147D01*
X59718Y-35954D01*
X59718Y-35954D01*
X59718Y-35954D01*
X59767Y-35880D01*
X59774Y-35846D01*
X59866Y-35754D01*
X59883Y-35714D01*
X61017Y-36848D01*
X61059Y-36910D01*
X61133Y-36959D01*
X61137Y-36960D01*
X61100Y-37050D01*
X61100Y-37137D01*
X61162Y-37200D01*
X61700Y-37200D01*
X61700Y-37192D01*
X61800Y-37192D01*
X61800Y-37200D01*
X62337Y-37200D01*
X62394Y-37142D01*
X62400Y-37142D01*
X62510Y-37142D01*
X62644Y-37087D01*
X62727Y-37005D01*
X63391Y-37005D01*
X63423Y-37026D01*
X63411Y-37056D01*
X63411Y-37083D01*
X63474Y-37145D01*
X63729Y-37145D01*
X63729Y-37127D01*
X63829Y-37127D01*
X63829Y-37145D01*
X64085Y-37145D01*
X64147Y-37083D01*
X64147Y-37056D01*
X64109Y-36964D01*
X64065Y-36920D01*
X64065Y-36875D01*
X64065Y-36718D01*
X64040Y-36657D01*
X63992Y-36609D01*
X63930Y-36584D01*
X63864Y-36584D01*
X63628Y-36584D01*
X63604Y-36594D01*
X63565Y-36568D01*
X63478Y-36550D01*
X63478Y-36550D01*
X62727Y-36550D01*
X62645Y-36468D01*
X62511Y-36412D01*
X62366Y-36412D01*
X62318Y-36432D01*
X62318Y-36366D01*
X62318Y-36066D01*
X62292Y-36004D01*
X62287Y-36000D01*
X62292Y-35995D01*
X62318Y-35933D01*
X62318Y-35866D01*
X62318Y-35566D01*
X62292Y-35504D01*
X62287Y-35500D01*
X62292Y-35495D01*
X62299Y-35477D01*
X63614Y-35477D01*
X63615Y-35477D01*
X63649Y-35510D01*
X63711Y-35536D01*
X63777Y-35536D01*
X63913Y-35536D01*
X63956Y-35579D01*
X64048Y-35618D01*
X64075Y-35618D01*
X64137Y-35555D01*
X64137Y-35300D01*
X64119Y-35300D01*
X64119Y-35200D01*
X64137Y-35200D01*
X64137Y-35055D01*
X64137Y-34944D01*
X64137Y-34800D01*
X64119Y-34800D01*
X64119Y-34700D01*
X64137Y-34700D01*
X64137Y-34555D01*
X64137Y-34444D01*
X64137Y-34300D01*
X64119Y-34300D01*
X64119Y-34200D01*
X64137Y-34200D01*
X64137Y-34055D01*
X64137Y-33944D01*
X64137Y-33800D01*
X64119Y-33800D01*
X64119Y-33700D01*
X64137Y-33700D01*
X64137Y-33444D01*
X64075Y-33382D01*
X64048Y-33382D01*
X63956Y-33420D01*
X63913Y-33463D01*
X63868Y-33463D01*
X63711Y-33463D01*
X63649Y-33489D01*
X63615Y-33522D01*
X62299Y-33522D01*
X62292Y-33504D01*
X62287Y-33500D01*
X62292Y-33495D01*
X62299Y-33477D01*
X63219Y-33477D01*
X63219Y-33477D01*
X63219Y-33477D01*
X63306Y-33459D01*
X63380Y-33410D01*
X63760Y-33031D01*
X63848Y-33162D01*
X64032Y-33285D01*
X64250Y-33329D01*
X64467Y-33285D01*
X64651Y-33162D01*
X64774Y-32978D01*
X64818Y-32761D01*
X64818Y-32738D01*
X64774Y-32521D01*
X64651Y-32337D01*
X64623Y-32318D01*
X64683Y-32318D01*
X64745Y-32292D01*
X64792Y-32245D01*
X64818Y-32183D01*
X64818Y-32116D01*
X64818Y-31316D01*
X64792Y-31254D01*
X64745Y-31207D01*
X64683Y-31181D01*
X64616Y-31181D01*
X64543Y-31181D01*
X64550Y-31146D01*
X64550Y-30779D01*
X64565Y-30786D01*
X64631Y-30786D01*
X64788Y-30786D01*
X64850Y-30760D01*
X64898Y-30713D01*
X64910Y-30682D01*
X64910Y-39769D01*
X64910Y-39769D01*
G37*
G54D25*
X64910Y-39769D02*
X64782Y-39641D01*
X64505Y-39526D01*
X64505Y-35417D01*
X64505Y-35362D01*
X64505Y-35137D01*
X64505Y-35082D01*
X64471Y-35000D01*
X64505Y-34917D01*
X64505Y-34862D01*
X64505Y-34637D01*
X64505Y-34582D01*
X64471Y-34500D01*
X64505Y-34417D01*
X64505Y-34362D01*
X64505Y-34137D01*
X64505Y-34082D01*
X64471Y-34000D01*
X64505Y-33917D01*
X64505Y-33862D01*
X64505Y-33637D01*
X64505Y-33582D01*
X64467Y-33490D01*
X64397Y-33420D01*
X64305Y-33382D01*
X64278Y-33382D01*
X64216Y-33444D01*
X64216Y-33700D01*
X64443Y-33700D01*
X64505Y-33637D01*
X64505Y-33862D01*
X64443Y-33800D01*
X64216Y-33800D01*
X64216Y-33944D01*
X64216Y-34055D01*
X64216Y-34200D01*
X64443Y-34200D01*
X64505Y-34137D01*
X64505Y-34362D01*
X64443Y-34300D01*
X64216Y-34300D01*
X64216Y-34444D01*
X64216Y-34555D01*
X64216Y-34700D01*
X64443Y-34700D01*
X64505Y-34637D01*
X64505Y-34862D01*
X64443Y-34800D01*
X64216Y-34800D01*
X64216Y-34944D01*
X64216Y-35055D01*
X64216Y-35200D01*
X64443Y-35200D01*
X64505Y-35137D01*
X64505Y-35362D01*
X64443Y-35300D01*
X64216Y-35300D01*
X64216Y-35555D01*
X64278Y-35618D01*
X64305Y-35618D01*
X64397Y-35579D01*
X64467Y-35509D01*
X64505Y-35417D01*
X64505Y-39526D01*
X64387Y-39477D01*
X64147Y-39477D01*
X64147Y-37313D01*
X64147Y-37286D01*
X64085Y-37224D01*
X63829Y-37224D01*
X63829Y-37450D01*
X63892Y-37513D01*
X63947Y-37513D01*
X64039Y-37475D01*
X64109Y-37404D01*
X64147Y-37313D01*
X64147Y-39477D01*
X63960Y-39476D01*
X63729Y-39572D01*
X63729Y-37450D01*
X63729Y-37224D01*
X63474Y-37224D01*
X63411Y-37286D01*
X63411Y-37313D01*
X63449Y-37404D01*
X63519Y-37475D01*
X63611Y-37513D01*
X63667Y-37513D01*
X63729Y-37450D01*
X63729Y-39572D01*
X63565Y-39640D01*
X63263Y-39942D01*
X63099Y-40336D01*
X63099Y-40763D01*
X63262Y-41158D01*
X63391Y-41288D01*
X58447Y-41288D01*
X58609Y-41180D01*
X58719Y-41015D01*
X58758Y-40821D01*
X58758Y-40678D01*
X58719Y-40484D01*
X58609Y-40319D01*
X58526Y-40264D01*
X58660Y-40130D01*
X58660Y-40130D01*
X58660Y-40130D01*
X58709Y-40056D01*
X58727Y-39969D01*
X58727Y-39969D01*
X58727Y-39969D01*
X58727Y-39049D01*
X58745Y-39042D01*
X58750Y-39037D01*
X58754Y-39042D01*
X58772Y-39049D01*
X58772Y-40178D01*
X58772Y-40178D01*
X58790Y-40265D01*
X58833Y-40331D01*
X58826Y-40348D01*
X58826Y-40415D01*
X58826Y-40651D01*
X58851Y-40713D01*
X58899Y-40760D01*
X58961Y-40786D01*
X59027Y-40786D01*
X59184Y-40786D01*
X59246Y-40760D01*
X59250Y-40757D01*
X59253Y-40760D01*
X59315Y-40786D01*
X59381Y-40786D01*
X59538Y-40786D01*
X59600Y-40760D01*
X59648Y-40713D01*
X59673Y-40651D01*
X59673Y-40584D01*
X59673Y-40348D01*
X59666Y-40331D01*
X59666Y-40331D01*
X59709Y-40265D01*
X59727Y-40178D01*
X59727Y-39049D01*
X59745Y-39042D01*
X59750Y-39037D01*
X59754Y-39042D01*
X59772Y-39049D01*
X59772Y-40178D01*
X59772Y-40178D01*
X59790Y-40265D01*
X59833Y-40331D01*
X59826Y-40348D01*
X59826Y-40415D01*
X59826Y-40651D01*
X59851Y-40713D01*
X59899Y-40760D01*
X59961Y-40786D01*
X60027Y-40786D01*
X60184Y-40786D01*
X60246Y-40760D01*
X60250Y-40757D01*
X60253Y-40760D01*
X60315Y-40786D01*
X60381Y-40786D01*
X60538Y-40786D01*
X60600Y-40760D01*
X60648Y-40713D01*
X60673Y-40651D01*
X60673Y-40584D01*
X60673Y-40348D01*
X60666Y-40331D01*
X60666Y-40331D01*
X60709Y-40265D01*
X60727Y-40178D01*
X60727Y-39049D01*
X60745Y-39042D01*
X60750Y-39037D01*
X60754Y-39042D01*
X60816Y-39068D01*
X60883Y-39068D01*
X61183Y-39068D01*
X61245Y-39042D01*
X61292Y-38995D01*
X61318Y-38933D01*
X61318Y-38866D01*
X61318Y-38068D01*
X61383Y-38068D01*
X62183Y-38068D01*
X62245Y-38042D01*
X62292Y-37995D01*
X62318Y-37933D01*
X62318Y-37866D01*
X62318Y-37585D01*
X62361Y-37541D01*
X62400Y-37449D01*
X62400Y-37362D01*
X62337Y-37300D01*
X61800Y-37300D01*
X61800Y-37307D01*
X61700Y-37307D01*
X61700Y-37300D01*
X61162Y-37300D01*
X61100Y-37362D01*
X61100Y-37449D01*
X61138Y-37541D01*
X61181Y-37585D01*
X61181Y-37633D01*
X61181Y-37931D01*
X61116Y-37931D01*
X60816Y-37931D01*
X60754Y-37957D01*
X60750Y-37962D01*
X60745Y-37957D01*
X60683Y-37931D01*
X60616Y-37931D01*
X60316Y-37931D01*
X60254Y-37957D01*
X60250Y-37962D01*
X60245Y-37957D01*
X60183Y-37931D01*
X60116Y-37931D01*
X59816Y-37931D01*
X59754Y-37957D01*
X59750Y-37962D01*
X59745Y-37957D01*
X59683Y-37931D01*
X59616Y-37931D01*
X59316Y-37931D01*
X59254Y-37957D01*
X59250Y-37962D01*
X59245Y-37957D01*
X59183Y-37931D01*
X59116Y-37931D01*
X58816Y-37931D01*
X58754Y-37957D01*
X58750Y-37962D01*
X58745Y-37957D01*
X58683Y-37931D01*
X58616Y-37931D01*
X58316Y-37931D01*
X58254Y-37957D01*
X58250Y-37962D01*
X58245Y-37957D01*
X58183Y-37931D01*
X58116Y-37931D01*
X57816Y-37931D01*
X57754Y-37957D01*
X57750Y-37962D01*
X57745Y-37957D01*
X57683Y-37931D01*
X57616Y-37931D01*
X57316Y-37931D01*
X57254Y-37957D01*
X57250Y-37962D01*
X57245Y-37957D01*
X57183Y-37931D01*
X57116Y-37931D01*
X56816Y-37931D01*
X56754Y-37957D01*
X56750Y-37962D01*
X56745Y-37957D01*
X56683Y-37931D01*
X56616Y-37931D01*
X56316Y-37931D01*
X56254Y-37957D01*
X56250Y-37962D01*
X56245Y-37957D01*
X56183Y-37931D01*
X56116Y-37931D01*
X55818Y-37931D01*
X55818Y-37866D01*
X55818Y-37585D01*
X55861Y-37541D01*
X55900Y-37449D01*
X55900Y-37362D01*
X55837Y-37300D01*
X55300Y-37300D01*
X55300Y-37307D01*
X55200Y-37307D01*
X55200Y-37300D01*
X54662Y-37300D01*
X54600Y-37362D01*
X54600Y-37449D01*
X54638Y-37541D01*
X54681Y-37585D01*
X54681Y-37633D01*
X54681Y-37933D01*
X54707Y-37995D01*
X54754Y-38042D01*
X54816Y-38068D01*
X54883Y-38068D01*
X55681Y-38068D01*
X55681Y-38133D01*
X55681Y-38933D01*
X55707Y-38995D01*
X55754Y-39042D01*
X55816Y-39068D01*
X55883Y-39068D01*
X56183Y-39068D01*
X56245Y-39042D01*
X56250Y-39037D01*
X56254Y-39042D01*
X56316Y-39068D01*
X56383Y-39068D01*
X56640Y-39068D01*
X55559Y-40149D01*
X55537Y-40181D01*
X54876Y-40181D01*
X54814Y-40207D01*
X54767Y-40254D01*
X54741Y-40316D01*
X54741Y-40383D01*
X54741Y-41183D01*
X54767Y-41245D01*
X54810Y-41288D01*
X53931Y-41288D01*
X54059Y-41160D01*
X54223Y-40765D01*
X54223Y-40338D01*
X54060Y-39943D01*
X53758Y-39641D01*
X53475Y-39523D01*
X53475Y-36724D01*
X53475Y-36662D01*
X53412Y-36600D01*
X53050Y-36600D01*
X53050Y-36862D01*
X53112Y-36925D01*
X53175Y-36925D01*
X53274Y-36925D01*
X53366Y-36886D01*
X53436Y-36816D01*
X53475Y-36724D01*
X53475Y-39523D01*
X53364Y-39477D01*
X52936Y-39476D01*
X52542Y-39640D01*
X52412Y-39769D01*
X52412Y-39311D01*
X52500Y-39329D01*
X52717Y-39285D01*
X52901Y-39162D01*
X53024Y-38978D01*
X53068Y-38761D01*
X53068Y-38738D01*
X53024Y-38521D01*
X52901Y-38337D01*
X52873Y-38318D01*
X52933Y-38318D01*
X52995Y-38292D01*
X53042Y-38245D01*
X53068Y-38183D01*
X53068Y-38116D01*
X53068Y-37316D01*
X53042Y-37254D01*
X52995Y-37207D01*
X52933Y-37181D01*
X52866Y-37181D01*
X52727Y-37181D01*
X52727Y-36925D01*
X52824Y-36925D01*
X52887Y-36925D01*
X52950Y-36862D01*
X52950Y-36600D01*
X52942Y-36600D01*
X52942Y-36500D01*
X52950Y-36500D01*
X52950Y-36492D01*
X53050Y-36492D01*
X53050Y-36500D01*
X53412Y-36500D01*
X53475Y-36437D01*
X53475Y-36375D01*
X53436Y-36283D01*
X53366Y-36213D01*
X53336Y-36200D01*
X53367Y-36170D01*
X53393Y-36108D01*
X53393Y-36041D01*
X53393Y-35791D01*
X53367Y-35729D01*
X53365Y-35727D01*
X53616Y-35477D01*
X54700Y-35477D01*
X54707Y-35495D01*
X54712Y-35500D01*
X54707Y-35504D01*
X54681Y-35566D01*
X54681Y-35633D01*
X54681Y-35933D01*
X54707Y-35995D01*
X54712Y-36000D01*
X54707Y-36004D01*
X54681Y-36066D01*
X54681Y-36133D01*
X54681Y-36433D01*
X54707Y-36495D01*
X54712Y-36500D01*
X54707Y-36504D01*
X54681Y-36566D01*
X54681Y-36633D01*
X54681Y-36914D01*
X54638Y-36958D01*
X54600Y-37050D01*
X54600Y-37137D01*
X54662Y-37200D01*
X55200Y-37200D01*
X55200Y-37192D01*
X55300Y-37192D01*
X55300Y-37200D01*
X55837Y-37200D01*
X55900Y-37137D01*
X55900Y-37050D01*
X55862Y-36960D01*
X55866Y-36959D01*
X55940Y-36910D01*
X55989Y-36836D01*
X56007Y-36750D01*
X56007Y-36250D01*
X55989Y-36163D01*
X55940Y-36089D01*
X55866Y-36040D01*
X55801Y-36027D01*
X55792Y-36004D01*
X55787Y-36000D01*
X55792Y-35995D01*
X55801Y-35972D01*
X55866Y-35959D01*
X55940Y-35910D01*
X55989Y-35836D01*
X56007Y-35750D01*
X56007Y-34367D01*
X56134Y-34314D01*
X56236Y-34212D01*
X56292Y-34078D01*
X56292Y-33933D01*
X56237Y-33798D01*
X56134Y-33696D01*
X56000Y-33640D01*
X55855Y-33640D01*
X55818Y-33655D01*
X55818Y-33585D01*
X55861Y-33541D01*
X55900Y-33449D01*
X55900Y-33362D01*
X55837Y-33300D01*
X55300Y-33300D01*
X55300Y-33307D01*
X55200Y-33307D01*
X55200Y-33300D01*
X54662Y-33300D01*
X54615Y-33347D01*
X54611Y-33345D01*
X54525Y-33327D01*
X54524Y-33327D01*
X53393Y-33327D01*
X53393Y-33141D01*
X53367Y-33079D01*
X53336Y-33049D01*
X53366Y-33036D01*
X53436Y-32966D01*
X53475Y-32874D01*
X53475Y-32812D01*
X53475Y-32587D01*
X53475Y-32525D01*
X53436Y-32433D01*
X53366Y-32363D01*
X53274Y-32325D01*
X53175Y-32325D01*
X53112Y-32325D01*
X53050Y-32387D01*
X53050Y-32650D01*
X53412Y-32650D01*
X53475Y-32587D01*
X53475Y-32812D01*
X53412Y-32750D01*
X53050Y-32750D01*
X53050Y-32757D01*
X52950Y-32757D01*
X52950Y-32750D01*
X52942Y-32750D01*
X52942Y-32650D01*
X52950Y-32650D01*
X52950Y-32387D01*
X52887Y-32325D01*
X52872Y-32325D01*
X52872Y-31269D01*
X52910Y-31230D01*
X52910Y-31230D01*
X52910Y-31230D01*
X52959Y-31156D01*
X52969Y-31108D01*
X53119Y-31108D01*
X53119Y-31376D01*
X53119Y-31376D01*
X53136Y-31463D01*
X53185Y-31536D01*
X54559Y-32910D01*
X54559Y-32910D01*
X54603Y-32940D01*
X54633Y-32959D01*
X54633Y-32959D01*
X54637Y-32960D01*
X54600Y-33050D01*
X54600Y-33137D01*
X54662Y-33200D01*
X55200Y-33200D01*
X55200Y-33192D01*
X55300Y-33192D01*
X55300Y-33200D01*
X55837Y-33200D01*
X55900Y-33137D01*
X55900Y-33050D01*
X55861Y-32958D01*
X55818Y-32914D01*
X55818Y-32866D01*
X55818Y-32568D01*
X55883Y-32568D01*
X56183Y-32568D01*
X56245Y-32542D01*
X56250Y-32537D01*
X56254Y-32542D01*
X56316Y-32568D01*
X56383Y-32568D01*
X56509Y-32568D01*
X56412Y-32665D01*
X56356Y-32799D01*
X56356Y-32944D01*
X56411Y-33078D01*
X56514Y-33181D01*
X56648Y-33236D01*
X56793Y-33237D01*
X56927Y-33181D01*
X57010Y-33099D01*
X57742Y-33099D01*
X59586Y-34943D01*
X58957Y-34943D01*
X58875Y-34861D01*
X58741Y-34805D01*
X58596Y-34805D01*
X58462Y-34860D01*
X58359Y-34963D01*
X58303Y-35097D01*
X58303Y-35242D01*
X58359Y-35376D01*
X58461Y-35479D01*
X58595Y-35535D01*
X58740Y-35535D01*
X58875Y-35479D01*
X58957Y-35397D01*
X59224Y-35397D01*
X59192Y-35474D01*
X59192Y-35619D01*
X59247Y-35753D01*
X59261Y-35767D01*
X58202Y-36826D01*
X58086Y-36826D01*
X58004Y-36860D01*
X58004Y-33568D01*
X57948Y-33434D01*
X57846Y-33331D01*
X57712Y-33276D01*
X57567Y-33276D01*
X57432Y-33331D01*
X57330Y-33434D01*
X57274Y-33568D01*
X57274Y-33713D01*
X57329Y-33847D01*
X57412Y-33930D01*
X57412Y-35930D01*
X57367Y-35930D01*
X57233Y-35985D01*
X57131Y-36088D01*
X57075Y-36222D01*
X57075Y-36367D01*
X57130Y-36501D01*
X57233Y-36604D01*
X57367Y-36660D01*
X57512Y-36660D01*
X57646Y-36604D01*
X57749Y-36502D01*
X57805Y-36368D01*
X57805Y-36248D01*
X57849Y-36183D01*
X57866Y-36096D01*
X57866Y-33930D01*
X57948Y-33848D01*
X58004Y-33714D01*
X58004Y-33568D01*
X58004Y-36860D01*
X57952Y-36882D01*
X57849Y-36984D01*
X57794Y-37118D01*
X57794Y-37264D01*
X57849Y-37398D01*
X57952Y-37500D01*
X58086Y-37556D01*
X58231Y-37556D01*
X58365Y-37501D01*
X58468Y-37398D01*
X58524Y-37264D01*
X58524Y-37147D01*
X59718Y-35954D01*
X59718Y-35954D01*
X59718Y-35954D01*
X59767Y-35880D01*
X59774Y-35846D01*
X59866Y-35754D01*
X59883Y-35714D01*
X61017Y-36848D01*
X61059Y-36910D01*
X61133Y-36959D01*
X61137Y-36960D01*
X61100Y-37050D01*
X61100Y-37137D01*
X61162Y-37200D01*
X61700Y-37200D01*
X61700Y-37192D01*
X61800Y-37192D01*
X61800Y-37200D01*
X62337Y-37200D01*
X62394Y-37142D01*
X62400Y-37142D01*
X62510Y-37142D01*
X62644Y-37087D01*
X62727Y-37005D01*
X63391Y-37005D01*
X63423Y-37026D01*
X63411Y-37056D01*
X63411Y-37083D01*
X63474Y-37145D01*
X63729Y-37145D01*
X63729Y-37127D01*
X63829Y-37127D01*
X63829Y-37145D01*
X64085Y-37145D01*
X64147Y-37083D01*
X64147Y-37056D01*
X64109Y-36964D01*
X64065Y-36920D01*
X64065Y-36875D01*
X64065Y-36718D01*
X64040Y-36657D01*
X63992Y-36609D01*
X63930Y-36584D01*
X63864Y-36584D01*
X63628Y-36584D01*
X63604Y-36594D01*
X63565Y-36568D01*
X63478Y-36550D01*
X63478Y-36550D01*
X62727Y-36550D01*
X62645Y-36468D01*
X62511Y-36412D01*
X62366Y-36412D01*
X62318Y-36432D01*
X62318Y-36366D01*
X62318Y-36066D01*
X62292Y-36004D01*
X62287Y-36000D01*
X62292Y-35995D01*
X62318Y-35933D01*
X62318Y-35866D01*
X62318Y-35566D01*
X62292Y-35504D01*
X62287Y-35500D01*
X62292Y-35495D01*
X62299Y-35477D01*
X63614Y-35477D01*
X63615Y-35477D01*
X63649Y-35510D01*
X63711Y-35536D01*
X63777Y-35536D01*
X63913Y-35536D01*
X63956Y-35579D01*
X64048Y-35618D01*
X64075Y-35618D01*
X64137Y-35555D01*
X64137Y-35300D01*
X64119Y-35300D01*
X64119Y-35200D01*
X64137Y-35200D01*
X64137Y-35055D01*
X64137Y-34944D01*
X64137Y-34800D01*
X64119Y-34800D01*
X64119Y-34700D01*
X64137Y-34700D01*
X64137Y-34555D01*
X64137Y-34444D01*
X64137Y-34300D01*
X64119Y-34300D01*
X64119Y-34200D01*
X64137Y-34200D01*
X64137Y-34055D01*
X64137Y-33944D01*
X64137Y-33800D01*
X64119Y-33800D01*
X64119Y-33700D01*
X64137Y-33700D01*
X64137Y-33444D01*
X64075Y-33382D01*
X64048Y-33382D01*
X63956Y-33420D01*
X63913Y-33463D01*
X63868Y-33463D01*
X63711Y-33463D01*
X63649Y-33489D01*
X63615Y-33522D01*
X62299Y-33522D01*
X62292Y-33504D01*
X62287Y-33500D01*
X62292Y-33495D01*
X62299Y-33477D01*
X63219Y-33477D01*
X63219Y-33477D01*
X63219Y-33477D01*
X63306Y-33459D01*
X63380Y-33410D01*
X63760Y-33031D01*
X63848Y-33162D01*
X64032Y-33285D01*
X64250Y-33329D01*
X64467Y-33285D01*
X64651Y-33162D01*
X64774Y-32978D01*
X64818Y-32761D01*
X64818Y-32738D01*
X64774Y-32521D01*
X64651Y-32337D01*
X64623Y-32318D01*
X64683Y-32318D01*
X64745Y-32292D01*
X64792Y-32245D01*
X64818Y-32183D01*
X64818Y-32116D01*
X64818Y-31316D01*
X64792Y-31254D01*
X64745Y-31207D01*
X64683Y-31181D01*
X64616Y-31181D01*
X64543Y-31181D01*
X64550Y-31146D01*
X64550Y-30779D01*
X64565Y-30786D01*
X64631Y-30786D01*
X64788Y-30786D01*
X64850Y-30760D01*
X64898Y-30713D01*
X64910Y-30682D01*
X64910Y-39769D01*
M02*
