%FSLAX34Y34*%
G04 Gerber Fmt 3.4, Leading zero omitted, Abs format*
G04 (created by PCBNEW (2014-04-07 BZR 4791)-product) date Tue 13 May 2014 05:19:37 PM CEST*
%MOIN*%
G01*
G70*
G90*
G04 APERTURE LIST*
%ADD10C,0.005906*%
%ADD11R,0.023574X0.031474*%
%ADD12R,0.031474X0.023574*%
%ADD13R,0.087874X0.087874*%
%ADD14O,0.087874X0.087874*%
%ADD15R,0.095874X0.095874*%
%ADD16R,0.075874X0.087874*%
%ADD17O,0.075874X0.087874*%
%ADD18C,0.133874*%
%ADD19R,0.043307X0.021654*%
%ADD20R,0.021654X0.043307*%
%ADD21R,0.106299X0.106299*%
%ADD22R,0.039374X0.047274*%
%ADD23R,0.037402X0.019685*%
%ADD24R,0.074803X0.062992*%
%ADD25R,0.047274X0.039374*%
G04 APERTURE END LIST*
G54D10*
G54D11*
X60088Y-34624D03*
X59734Y-34624D03*
G54D12*
X53500Y-34573D03*
X53500Y-34927D03*
G54D11*
X62177Y-27500D03*
X61823Y-27500D03*
G54D12*
X54000Y-34573D03*
X54000Y-34927D03*
G54D11*
X60323Y-27500D03*
X60677Y-27500D03*
G54D12*
X55673Y-35143D03*
X55673Y-35497D03*
G54D11*
X57787Y-36295D03*
X58141Y-36295D03*
G54D13*
X52500Y-34250D03*
G54D14*
X52500Y-35250D03*
G54D13*
X63250Y-29500D03*
G54D14*
X62250Y-29500D03*
G54D13*
X52500Y-37750D03*
G54D14*
X52500Y-38750D03*
G54D15*
X52750Y-30500D03*
G54D16*
X55250Y-40750D03*
G54D17*
X56250Y-40750D03*
X57250Y-40750D03*
X58250Y-40750D03*
G54D16*
X54980Y-26377D03*
G54D17*
X55980Y-26377D03*
X56980Y-26377D03*
X57980Y-26377D03*
X58980Y-26377D03*
X59980Y-26377D03*
G54D13*
X64250Y-31750D03*
G54D14*
X64250Y-32750D03*
G54D15*
X53937Y-29527D03*
G54D13*
X63250Y-28500D03*
G54D14*
X62250Y-28500D03*
G54D13*
X61250Y-26250D03*
G54D14*
X62250Y-26250D03*
G54D18*
X53149Y-26771D03*
X64173Y-40551D03*
X64173Y-26771D03*
X53149Y-40551D03*
G54D11*
X58927Y-28000D03*
X58573Y-28000D03*
G54D12*
X57576Y-34893D03*
X57576Y-35247D03*
X58076Y-35247D03*
X58076Y-34893D03*
X55173Y-35143D03*
X55173Y-35497D03*
X54673Y-35497D03*
X54673Y-35143D03*
G54D11*
X57787Y-36795D03*
X58141Y-36795D03*
X61287Y-36295D03*
X61641Y-36295D03*
X61287Y-35795D03*
X61641Y-35795D03*
X58338Y-33874D03*
X57984Y-33874D03*
X57984Y-33374D03*
X58338Y-33374D03*
X61287Y-36795D03*
X61641Y-36795D03*
X58338Y-32874D03*
X57984Y-32874D03*
G54D12*
X61661Y-34051D03*
X61661Y-33697D03*
G54D11*
X60088Y-32874D03*
X59734Y-32874D03*
G54D19*
X57874Y-29005D03*
X57874Y-29261D03*
X57874Y-28750D03*
X57874Y-29517D03*
G54D20*
X57214Y-29921D03*
X57470Y-29921D03*
X56958Y-29921D03*
X56702Y-29921D03*
G54D19*
X56299Y-29517D03*
X56299Y-29261D03*
X56299Y-29005D03*
X56299Y-28750D03*
G54D20*
X56702Y-28346D03*
X56958Y-28346D03*
X57214Y-28346D03*
X57470Y-28346D03*
G54D21*
X57086Y-29133D03*
G54D22*
X55173Y-34503D03*
X55548Y-33637D03*
X54798Y-33637D03*
G54D23*
X59143Y-36795D03*
X59143Y-36598D03*
X59143Y-36401D03*
X59143Y-36204D03*
X60285Y-36204D03*
X60285Y-36401D03*
X60285Y-36598D03*
X60285Y-36795D03*
G54D24*
X59714Y-36500D03*
G54D25*
X60317Y-28250D03*
X61183Y-28625D03*
X61183Y-27875D03*
G54D23*
X59340Y-34124D03*
X59340Y-33927D03*
X59340Y-33730D03*
X59340Y-33533D03*
X60482Y-33533D03*
X60482Y-33730D03*
X60482Y-33927D03*
X60482Y-34124D03*
G54D24*
X59911Y-33828D03*
M02*
