%FSLAX34Y34*%
G04 Gerber Fmt 3.4, Leading zero omitted, Abs format*
G04 (created by PCBNEW (2014-04-07 BZR 4791)-product) date Tue 13 May 2014 05:19:37 PM CEST*
%MOIN*%
G01*
G70*
G90*
G04 APERTURE LIST*
%ADD10C,0.005906*%
%ADD11R,0.023574X0.031474*%
%ADD12R,0.031474X0.023574*%
%ADD13R,0.052874X0.032874*%
%ADD14R,0.087874X0.067874*%
%ADD15R,0.087874X0.087874*%
%ADD16O,0.087874X0.087874*%
%ADD17R,0.095874X0.095874*%
%ADD18R,0.075874X0.087874*%
%ADD19O,0.075874X0.087874*%
%ADD20C,0.133874*%
%ADD21R,0.087874X0.037874*%
%ADD22R,0.037874X0.087874*%
G04 APERTURE END LIST*
G54D10*
G54D11*
X59073Y-40500D03*
X59427Y-40500D03*
X60073Y-40500D03*
X60427Y-40500D03*
G54D12*
X63779Y-36830D03*
X63779Y-37184D03*
G54D11*
X63823Y-35250D03*
X64177Y-35250D03*
X63823Y-34750D03*
X64177Y-34750D03*
X63823Y-34250D03*
X64177Y-34250D03*
X63823Y-33750D03*
X64177Y-33750D03*
X57573Y-30000D03*
X57927Y-30000D03*
G54D13*
X53000Y-33300D03*
X53000Y-32700D03*
X53000Y-35950D03*
X53000Y-36550D03*
G54D14*
X60000Y-29400D03*
X60000Y-28100D03*
G54D15*
X52500Y-34250D03*
G54D16*
X52500Y-35250D03*
G54D15*
X63250Y-29500D03*
G54D16*
X62250Y-29500D03*
G54D15*
X52500Y-37750D03*
G54D16*
X52500Y-38750D03*
G54D17*
X52750Y-30500D03*
G54D18*
X55250Y-40750D03*
G54D19*
X56250Y-40750D03*
X57250Y-40750D03*
X58250Y-40750D03*
G54D18*
X54980Y-26377D03*
G54D19*
X55980Y-26377D03*
X56980Y-26377D03*
X57980Y-26377D03*
X58980Y-26377D03*
X59980Y-26377D03*
G54D15*
X64250Y-31750D03*
G54D16*
X64250Y-32750D03*
G54D17*
X53937Y-29527D03*
G54D15*
X63250Y-28500D03*
G54D16*
X62250Y-28500D03*
G54D15*
X61250Y-26250D03*
G54D16*
X62250Y-26250D03*
G54D20*
X53149Y-26771D03*
X64173Y-40551D03*
X64173Y-26771D03*
X53149Y-40551D03*
G54D11*
X64323Y-30000D03*
X64677Y-30000D03*
X64677Y-30500D03*
X64323Y-30500D03*
G54D21*
X55250Y-35250D03*
X55250Y-35750D03*
X55250Y-36250D03*
X55250Y-36750D03*
X55250Y-37250D03*
X55250Y-37750D03*
G54D22*
X56000Y-38500D03*
X56500Y-38500D03*
X57000Y-38500D03*
X57500Y-38500D03*
X58000Y-38500D03*
X58500Y-38500D03*
X59000Y-38500D03*
X59500Y-38500D03*
X60000Y-38500D03*
X60500Y-38500D03*
X61000Y-38500D03*
G54D21*
X61750Y-37750D03*
X61750Y-37250D03*
X61750Y-36750D03*
X61750Y-36250D03*
X61750Y-35750D03*
X61750Y-35250D03*
X61750Y-34750D03*
X61750Y-34250D03*
X61750Y-33750D03*
X61750Y-33250D03*
X61750Y-32750D03*
G54D22*
X61000Y-32000D03*
X60500Y-32000D03*
X60000Y-32000D03*
X59500Y-32000D03*
X59000Y-32000D03*
X58500Y-32000D03*
X58000Y-32000D03*
X57500Y-32000D03*
X57000Y-32000D03*
X56500Y-32000D03*
X56000Y-32000D03*
G54D21*
X55250Y-32750D03*
X55250Y-33250D03*
X55250Y-33750D03*
X55250Y-34250D03*
X55250Y-34750D03*
M02*
