M48
;DRILL file {Pcbnew (2013-mar-13)-testing} date Fri 28 Feb 2014 01:36:29 PM CET
;FORMAT={-:-/ absolute / inch / decimal}
FMAT,2
INCH,TZ
T1C0.025
T2C0.039
T3C0.059
%
G90
G05
M72
T1
X4.0463Y-3.1229
X4.1694Y-3.53
X4.2622Y-2.7544
X4.2838Y-3.252
X4.3627Y-2.6004
X4.4933Y-2.4306
X4.5229Y-1.9387
X4.8583Y-2.417
X4.9661Y-2.4312
X4.97Y-3.1266
X5.0209Y-2.2731
X5.1475Y-3.4035
T2
X4.0394Y-1.761
X4.0394Y-1.861
X4.0394Y-1.9618
X4.0394Y-2.0618
X4.0394Y-2.1626
X4.0394Y-2.2626
X4.0748Y-2.4409
X4.0748Y-2.5787
X4.0748Y-2.7756
X4.0748Y-2.9134
X4.22Y-3.34
X4.22Y-3.44
X4.7244Y-2.6772
X4.7323Y-2.4921
X5.06Y-2.86
X5.06Y-3.06
X5.06Y-3.26
X5.06Y-3.36
X5.11Y-1.8209
X5.11Y-1.9209
X5.13Y-2.72
X5.16Y-2.96
T3
X4.0472Y-1.5866
X4.0472Y-3.5709
X5.126Y-1.5866
X5.126Y-3.5709
T0
M30
