G04 (created by PCBNEW (2013-mar-13)-testing) date Fri 28 Feb 2014 04:48:04 PM CET*
%MOIN*%
G04 Gerber Fmt 3.4, Leading zero omitted, Abs format*
%FSLAX34Y34*%
G01*
G70*
G90*
G04 APERTURE LIST*
%ADD10C,0.005906*%
%ADD11C,0.005000*%
%ADD12C,0.004700*%
%ADD13C,0.003900*%
%ADD14C,0.012000*%
%ADD15C,0.015000*%
%ADD16C,0.004500*%
%ADD17C,0.004300*%
%ADD18C,0.008000*%
%ADD19C,0.007900*%
G04 APERTURE END LIST*
G54D10*
G54D11*
X43550Y-16509D02*
X42650Y-16509D01*
X42650Y-16509D02*
X42650Y-17159D01*
X43550Y-17859D02*
X43550Y-18509D01*
X43550Y-18509D02*
X42650Y-18509D01*
X42650Y-18509D02*
X42650Y-17859D01*
X43550Y-17159D02*
X43550Y-16509D01*
G54D12*
X43844Y-17506D02*
X43844Y-17781D01*
X43844Y-17112D02*
X43844Y-16837D01*
X44356Y-17506D02*
X44356Y-17781D01*
X44356Y-16837D02*
X44356Y-17112D01*
X44350Y-17781D02*
X43850Y-17781D01*
X43850Y-16837D02*
X44350Y-16837D01*
G54D11*
X44850Y-19259D02*
X44850Y-20159D01*
X44850Y-20159D02*
X44350Y-20159D01*
X44350Y-20159D02*
X44350Y-19259D01*
X44350Y-19259D02*
X44850Y-19259D01*
G54D10*
X47100Y-17579D02*
X47100Y-18839D01*
X49778Y-17579D02*
X49778Y-18839D01*
X47022Y-17579D02*
X47022Y-18839D01*
X48871Y-18841D02*
X49771Y-18841D01*
X49771Y-17577D02*
X48871Y-17577D01*
X47927Y-17579D02*
X47022Y-17579D01*
X47022Y-18839D02*
X47927Y-18839D01*
G54D13*
X47100Y-17009D02*
G75*
G03X47100Y-17009I-50J0D01*
G74*
G01*
X47500Y-17009D02*
X47100Y-17009D01*
X47100Y-17009D02*
X47100Y-16409D01*
X47100Y-16409D02*
X47500Y-16409D01*
X47900Y-16409D02*
X48300Y-16409D01*
X48300Y-16409D02*
X48300Y-17009D01*
X48300Y-17009D02*
X47900Y-17009D01*
X48800Y-19609D02*
G75*
G03X48800Y-19609I-50J0D01*
G74*
G01*
X48300Y-19609D02*
X48700Y-19609D01*
X48700Y-19609D02*
X48700Y-20209D01*
X48700Y-20209D02*
X48300Y-20209D01*
X47900Y-20209D02*
X47500Y-20209D01*
X47500Y-20209D02*
X47500Y-19609D01*
X47500Y-19609D02*
X47900Y-19609D01*
X47200Y-19609D02*
G75*
G03X47200Y-19609I-50J0D01*
G74*
G01*
X46700Y-19609D02*
X47100Y-19609D01*
X47100Y-19609D02*
X47100Y-20209D01*
X47100Y-20209D02*
X46700Y-20209D01*
X46300Y-20209D02*
X45900Y-20209D01*
X45900Y-20209D02*
X45900Y-19609D01*
X45900Y-19609D02*
X46300Y-19609D01*
G54D12*
X46456Y-21312D02*
X46456Y-21037D01*
X46456Y-21706D02*
X46456Y-21981D01*
X45944Y-21312D02*
X45944Y-21037D01*
X45944Y-21981D02*
X45944Y-21706D01*
X45950Y-21037D02*
X46450Y-21037D01*
X46450Y-21981D02*
X45950Y-21981D01*
X50256Y-21312D02*
X50256Y-21037D01*
X50256Y-21706D02*
X50256Y-21981D01*
X49744Y-21312D02*
X49744Y-21037D01*
X49744Y-21981D02*
X49744Y-21706D01*
X49750Y-21037D02*
X50250Y-21037D01*
X50250Y-21981D02*
X49750Y-21981D01*
X49956Y-29703D02*
X49956Y-29428D01*
X49956Y-30097D02*
X49956Y-30372D01*
X49444Y-29703D02*
X49444Y-29428D01*
X49444Y-30372D02*
X49444Y-30097D01*
X49450Y-29428D02*
X49950Y-29428D01*
X49950Y-30372D02*
X49450Y-30372D01*
X42716Y-23169D02*
X42441Y-23169D01*
X43110Y-23169D02*
X43385Y-23169D01*
X42716Y-23681D02*
X42441Y-23681D01*
X43385Y-23681D02*
X43110Y-23681D01*
X42441Y-23675D02*
X42441Y-23175D01*
X43385Y-23175D02*
X43385Y-23675D01*
X43838Y-23819D02*
X43838Y-24094D01*
X43838Y-23425D02*
X43838Y-23150D01*
X44350Y-23819D02*
X44350Y-24094D01*
X44350Y-23150D02*
X44350Y-23425D01*
X44344Y-24094D02*
X43844Y-24094D01*
X43844Y-23150D02*
X44344Y-23150D01*
G54D11*
X44950Y-16159D02*
G75*
G03X44950Y-16159I-150J0D01*
G74*
G01*
X46300Y-17159D02*
X46300Y-16309D01*
X46300Y-16309D02*
X44700Y-16309D01*
X44700Y-16309D02*
X44700Y-17159D01*
X46350Y-17859D02*
X46350Y-18709D01*
X46350Y-18709D02*
X44700Y-18709D01*
X44700Y-18709D02*
X44700Y-17859D01*
G54D14*
X51600Y-18709D02*
X50600Y-18709D01*
X50600Y-18709D02*
X51600Y-17709D01*
X50600Y-17709D02*
X51600Y-18709D01*
X50600Y-19709D02*
X50600Y-17709D01*
X51600Y-17709D02*
X51600Y-19709D01*
X50600Y-17709D02*
X51600Y-17709D01*
X51600Y-19709D02*
X50600Y-19709D01*
X38893Y-18110D02*
X39893Y-17110D01*
X38893Y-18110D02*
X39893Y-18110D01*
X39893Y-18110D02*
X38893Y-17110D01*
X38893Y-17110D02*
X38893Y-19110D01*
X38893Y-19110D02*
X39893Y-19110D01*
X39893Y-19110D02*
X39893Y-17110D01*
X40393Y-17610D02*
X36393Y-17610D01*
X40393Y-18610D02*
X36393Y-18610D01*
X38893Y-17110D02*
X39893Y-17110D01*
X38893Y-20118D02*
X39893Y-19118D01*
X38893Y-20118D02*
X39893Y-20118D01*
X39893Y-20118D02*
X38893Y-19118D01*
X38893Y-19118D02*
X38893Y-21118D01*
X38893Y-21118D02*
X39893Y-21118D01*
X39893Y-21118D02*
X39893Y-19118D01*
X40393Y-19618D02*
X36393Y-19618D01*
X40393Y-20618D02*
X36393Y-20618D01*
X38893Y-19118D02*
X39893Y-19118D01*
X51100Y-33100D02*
X50100Y-33100D01*
X50100Y-33100D02*
X51100Y-32100D01*
X50100Y-32100D02*
X51100Y-33100D01*
X50100Y-34100D02*
X50100Y-32100D01*
X51100Y-32100D02*
X51100Y-34100D01*
X50100Y-32100D02*
X51100Y-32100D01*
X51100Y-34100D02*
X50100Y-34100D01*
X41700Y-33900D02*
X42700Y-33900D01*
X42700Y-33900D02*
X41700Y-34900D01*
X42700Y-34900D02*
X41700Y-33900D01*
X42700Y-32900D02*
X42700Y-34900D01*
X41700Y-34900D02*
X41700Y-32900D01*
X42700Y-34900D02*
X41700Y-34900D01*
X41700Y-32900D02*
X42700Y-32900D01*
X40248Y-28633D02*
X41248Y-28633D01*
X41248Y-29633D02*
X40248Y-29633D01*
X41248Y-28633D02*
X41248Y-29633D01*
X40248Y-29633D02*
X40248Y-28633D01*
X40248Y-27255D02*
X41248Y-27255D01*
X41248Y-28255D02*
X40248Y-28255D01*
X41248Y-27255D02*
X41248Y-28255D01*
X40248Y-28255D02*
X40248Y-27255D01*
X41248Y-24909D02*
X40248Y-24909D01*
X40248Y-23909D02*
X41248Y-23909D01*
X40248Y-24909D02*
X40248Y-23909D01*
X41248Y-23909D02*
X41248Y-24909D01*
X38893Y-22125D02*
X39893Y-21125D01*
X38893Y-22125D02*
X39893Y-22125D01*
X39893Y-22125D02*
X38893Y-21125D01*
X38893Y-21125D02*
X38893Y-23125D01*
X38893Y-23125D02*
X39893Y-23125D01*
X39893Y-23125D02*
X39893Y-21125D01*
X40393Y-21625D02*
X36393Y-21625D01*
X40393Y-22625D02*
X36393Y-22625D01*
X38893Y-21125D02*
X39893Y-21125D01*
X47744Y-27271D02*
X46744Y-27271D01*
X46744Y-26271D02*
X47744Y-26271D01*
X46744Y-27271D02*
X46744Y-26271D01*
X47744Y-26271D02*
X47744Y-27271D01*
X47822Y-25421D02*
X46822Y-25421D01*
X46822Y-24421D02*
X47822Y-24421D01*
X46822Y-25421D02*
X46822Y-24421D01*
X47822Y-24421D02*
X47822Y-25421D01*
X51800Y-27700D02*
X50800Y-27700D01*
X50800Y-26700D02*
X51800Y-26700D01*
X50800Y-27700D02*
X50800Y-26700D01*
X51800Y-26700D02*
X51800Y-27700D01*
X41248Y-26287D02*
X40248Y-26287D01*
X40248Y-25287D02*
X41248Y-25287D01*
X40248Y-26287D02*
X40248Y-25287D01*
X41248Y-25287D02*
X41248Y-26287D01*
G54D11*
X40416Y-31757D02*
X41316Y-31757D01*
X41316Y-31757D02*
X41316Y-32257D01*
X41316Y-32257D02*
X40416Y-32257D01*
X40416Y-32257D02*
X40416Y-31757D01*
X46750Y-21959D02*
X46750Y-21059D01*
X46750Y-21059D02*
X47250Y-21059D01*
X47250Y-21059D02*
X47250Y-21959D01*
X47250Y-21959D02*
X46750Y-21959D01*
X48950Y-21959D02*
X48950Y-21059D01*
X48950Y-21059D02*
X49450Y-21059D01*
X49450Y-21059D02*
X49450Y-21959D01*
X49450Y-21959D02*
X48950Y-21959D01*
X42050Y-36250D02*
X42050Y-35350D01*
X42050Y-35350D02*
X42550Y-35350D01*
X42550Y-35350D02*
X42550Y-36250D01*
X42550Y-36250D02*
X42050Y-36250D01*
G54D10*
X50100Y-28100D02*
X52100Y-28100D01*
X52100Y-28100D02*
X52100Y-31100D01*
X52100Y-31100D02*
X50100Y-31100D01*
X50100Y-31100D02*
X50100Y-28100D01*
G54D11*
X43025Y-19784D02*
X42765Y-19784D01*
X43025Y-19034D02*
X42765Y-19034D01*
X43575Y-19409D02*
X43835Y-19409D01*
X43575Y-18819D02*
X43575Y-19999D01*
X43575Y-19999D02*
X43025Y-19999D01*
X43025Y-19999D02*
X43025Y-18819D01*
X43025Y-18819D02*
X43575Y-18819D01*
X41436Y-31024D02*
X41436Y-30764D01*
X42186Y-31024D02*
X42186Y-30764D01*
X41811Y-31574D02*
X41811Y-31834D01*
X42401Y-31574D02*
X41221Y-31574D01*
X41221Y-31574D02*
X41221Y-31024D01*
X41221Y-31024D02*
X42401Y-31024D01*
X42401Y-31024D02*
X42401Y-31574D01*
X48475Y-21684D02*
X48475Y-21944D01*
X47725Y-21684D02*
X47725Y-21944D01*
X48100Y-21134D02*
X48100Y-20874D01*
X47510Y-21134D02*
X48690Y-21134D01*
X48690Y-21134D02*
X48690Y-21684D01*
X48690Y-21684D02*
X47510Y-21684D01*
X47510Y-21684D02*
X47510Y-21134D01*
G54D15*
X48818Y-36732D02*
X48818Y-38937D01*
X48818Y-38937D02*
X43542Y-38937D01*
X43542Y-38937D02*
X43542Y-36732D01*
X48818Y-28858D02*
X48818Y-36732D01*
X48818Y-36732D02*
X43542Y-36732D01*
X43542Y-36732D02*
X43542Y-28858D01*
X43542Y-28858D02*
X48818Y-28858D01*
G54D11*
X43600Y-22835D02*
X43800Y-22835D01*
X43800Y-22835D02*
X43800Y-22365D01*
X43600Y-22835D02*
X43600Y-22365D01*
X43010Y-22835D02*
X43010Y-22365D01*
X43210Y-22835D02*
X43210Y-22365D01*
X43010Y-22835D02*
X43210Y-22835D01*
X42420Y-22835D02*
X42620Y-22835D01*
X42620Y-22835D02*
X42620Y-22365D01*
X42420Y-22835D02*
X42420Y-22365D01*
X42755Y-21140D02*
X43465Y-21140D01*
X43465Y-21140D02*
X43465Y-21335D01*
X42755Y-21140D02*
X42755Y-21335D01*
X42205Y-22365D02*
X42205Y-21335D01*
X42205Y-21335D02*
X44015Y-21335D01*
X44015Y-21335D02*
X44015Y-22365D01*
X44015Y-22365D02*
X42205Y-22365D01*
X43207Y-17559D02*
X43221Y-17573D01*
X43235Y-17616D01*
X43235Y-17645D01*
X43221Y-17688D01*
X43192Y-17716D01*
X43164Y-17730D01*
X43107Y-17745D01*
X43064Y-17745D01*
X43007Y-17730D01*
X42978Y-17716D01*
X42950Y-17688D01*
X42935Y-17645D01*
X42935Y-17616D01*
X42950Y-17573D01*
X42964Y-17559D01*
X43235Y-17273D02*
X43235Y-17445D01*
X43235Y-17359D02*
X42935Y-17359D01*
X42978Y-17388D01*
X43007Y-17416D01*
X43021Y-17445D01*
G54D16*
X44070Y-17380D02*
X44061Y-17390D01*
X44035Y-17399D01*
X44018Y-17399D01*
X43992Y-17390D01*
X43975Y-17371D01*
X43967Y-17352D01*
X43958Y-17314D01*
X43958Y-17285D01*
X43967Y-17247D01*
X43975Y-17228D01*
X43992Y-17209D01*
X44018Y-17199D01*
X44035Y-17199D01*
X44061Y-17209D01*
X44070Y-17218D01*
X44138Y-17218D02*
X44147Y-17209D01*
X44164Y-17199D01*
X44207Y-17199D01*
X44224Y-17209D01*
X44232Y-17218D01*
X44241Y-17238D01*
X44241Y-17257D01*
X44232Y-17285D01*
X44130Y-17399D01*
X44241Y-17399D01*
X43962Y-16549D02*
X43980Y-16549D01*
X43997Y-16559D01*
X44005Y-16568D01*
X44014Y-16588D01*
X44022Y-16626D01*
X44022Y-16673D01*
X44014Y-16711D01*
X44005Y-16730D01*
X43997Y-16740D01*
X43980Y-16749D01*
X43962Y-16749D01*
X43945Y-16740D01*
X43937Y-16730D01*
X43928Y-16711D01*
X43920Y-16673D01*
X43920Y-16626D01*
X43928Y-16588D01*
X43937Y-16568D01*
X43945Y-16559D01*
X43962Y-16549D01*
X44100Y-16730D02*
X44108Y-16740D01*
X44100Y-16749D01*
X44091Y-16740D01*
X44100Y-16730D01*
X44100Y-16749D01*
X44280Y-16749D02*
X44177Y-16749D01*
X44228Y-16749D02*
X44228Y-16549D01*
X44211Y-16578D01*
X44194Y-16597D01*
X44177Y-16607D01*
X44671Y-19739D02*
X44680Y-19748D01*
X44690Y-19773D01*
X44690Y-19790D01*
X44680Y-19816D01*
X44661Y-19833D01*
X44642Y-19842D01*
X44604Y-19850D01*
X44576Y-19850D01*
X44538Y-19842D01*
X44519Y-19833D01*
X44500Y-19816D01*
X44490Y-19790D01*
X44490Y-19773D01*
X44500Y-19748D01*
X44509Y-19739D01*
X44490Y-19679D02*
X44490Y-19568D01*
X44566Y-19628D01*
X44566Y-19602D01*
X44576Y-19585D01*
X44585Y-19576D01*
X44604Y-19568D01*
X44652Y-19568D01*
X44671Y-19576D01*
X44680Y-19585D01*
X44690Y-19602D01*
X44690Y-19653D01*
X44680Y-19670D01*
X44671Y-19679D01*
G54D11*
X48354Y-18032D02*
X48340Y-18045D01*
X48301Y-18058D01*
X48275Y-18058D01*
X48235Y-18045D01*
X48209Y-18019D01*
X48196Y-17993D01*
X48183Y-17940D01*
X48183Y-17901D01*
X48196Y-17848D01*
X48209Y-17822D01*
X48235Y-17795D01*
X48275Y-17782D01*
X48301Y-17782D01*
X48340Y-17795D01*
X48354Y-17809D01*
X48590Y-17874D02*
X48590Y-18058D01*
X48524Y-17769D02*
X48459Y-17966D01*
X48630Y-17966D01*
X47815Y-18491D02*
X47788Y-18478D01*
X47775Y-18465D01*
X47762Y-18438D01*
X47762Y-18425D01*
X47775Y-18399D01*
X47788Y-18386D01*
X47815Y-18373D01*
X47867Y-18373D01*
X47894Y-18386D01*
X47907Y-18399D01*
X47920Y-18425D01*
X47920Y-18438D01*
X47907Y-18465D01*
X47894Y-18478D01*
X47867Y-18491D01*
X47815Y-18491D01*
X47788Y-18504D01*
X47775Y-18517D01*
X47762Y-18544D01*
X47762Y-18596D01*
X47775Y-18622D01*
X47788Y-18636D01*
X47815Y-18649D01*
X47867Y-18649D01*
X47894Y-18636D01*
X47907Y-18622D01*
X47920Y-18596D01*
X47920Y-18544D01*
X47907Y-18517D01*
X47894Y-18504D01*
X47867Y-18491D01*
X48038Y-18544D02*
X48248Y-18544D01*
X48498Y-18465D02*
X48498Y-18649D01*
X48432Y-18360D02*
X48367Y-18557D01*
X48538Y-18557D01*
X48695Y-18373D02*
X48722Y-18373D01*
X48748Y-18386D01*
X48761Y-18399D01*
X48774Y-18425D01*
X48787Y-18478D01*
X48787Y-18544D01*
X48774Y-18596D01*
X48761Y-18622D01*
X48748Y-18636D01*
X48722Y-18649D01*
X48695Y-18649D01*
X48669Y-18636D01*
X48656Y-18622D01*
X48643Y-18596D01*
X48630Y-18544D01*
X48630Y-18478D01*
X48643Y-18425D01*
X48656Y-18399D01*
X48669Y-18386D01*
X48695Y-18373D01*
X48906Y-18465D02*
X48906Y-18741D01*
X48906Y-18478D02*
X48932Y-18465D01*
X48984Y-18465D01*
X49011Y-18478D01*
X49024Y-18491D01*
X49037Y-18517D01*
X49037Y-18596D01*
X49024Y-18622D01*
X49011Y-18636D01*
X48984Y-18649D01*
X48932Y-18649D01*
X48906Y-18636D01*
G54D17*
X47667Y-16654D02*
X47657Y-16664D01*
X47629Y-16673D01*
X47610Y-16673D01*
X47582Y-16664D01*
X47563Y-16645D01*
X47554Y-16626D01*
X47545Y-16589D01*
X47545Y-16560D01*
X47554Y-16523D01*
X47563Y-16504D01*
X47582Y-16485D01*
X47610Y-16476D01*
X47629Y-16476D01*
X47657Y-16485D01*
X47667Y-16495D01*
X47845Y-16476D02*
X47751Y-16476D01*
X47742Y-16570D01*
X47751Y-16560D01*
X47770Y-16551D01*
X47817Y-16551D01*
X47836Y-16560D01*
X47845Y-16570D01*
X47854Y-16589D01*
X47854Y-16636D01*
X47845Y-16654D01*
X47836Y-16664D01*
X47817Y-16673D01*
X47770Y-16673D01*
X47751Y-16664D01*
X47742Y-16654D01*
X47451Y-16751D02*
X47582Y-16751D01*
X47498Y-16948D01*
X47639Y-16751D02*
X47760Y-16751D01*
X47695Y-16826D01*
X47723Y-16826D01*
X47742Y-16835D01*
X47751Y-16845D01*
X47760Y-16864D01*
X47760Y-16911D01*
X47751Y-16929D01*
X47742Y-16939D01*
X47723Y-16948D01*
X47667Y-16948D01*
X47648Y-16939D01*
X47639Y-16929D01*
X47845Y-16817D02*
X47845Y-17014D01*
X47845Y-16826D02*
X47864Y-16817D01*
X47901Y-16817D01*
X47920Y-16826D01*
X47929Y-16835D01*
X47939Y-16854D01*
X47939Y-16911D01*
X47929Y-16929D01*
X47920Y-16939D01*
X47901Y-16948D01*
X47864Y-16948D01*
X47845Y-16939D01*
X48067Y-20104D02*
X48057Y-20114D01*
X48029Y-20123D01*
X48010Y-20123D01*
X47982Y-20114D01*
X47963Y-20095D01*
X47954Y-20076D01*
X47945Y-20039D01*
X47945Y-20010D01*
X47954Y-19973D01*
X47963Y-19954D01*
X47982Y-19935D01*
X48010Y-19926D01*
X48029Y-19926D01*
X48057Y-19935D01*
X48067Y-19945D01*
X48236Y-19926D02*
X48198Y-19926D01*
X48179Y-19935D01*
X48170Y-19945D01*
X48151Y-19973D01*
X48142Y-20010D01*
X48142Y-20086D01*
X48151Y-20104D01*
X48160Y-20114D01*
X48179Y-20123D01*
X48217Y-20123D01*
X48236Y-20114D01*
X48245Y-20104D01*
X48254Y-20086D01*
X48254Y-20039D01*
X48245Y-20020D01*
X48236Y-20010D01*
X48217Y-20001D01*
X48179Y-20001D01*
X48160Y-20010D01*
X48151Y-20020D01*
X48142Y-20039D01*
X47954Y-19717D02*
X47954Y-19848D01*
X47907Y-19642D02*
X47860Y-19782D01*
X47982Y-19782D01*
X48039Y-19651D02*
X48170Y-19651D01*
X48085Y-19848D01*
X48245Y-19717D02*
X48245Y-19914D01*
X48245Y-19726D02*
X48264Y-19717D01*
X48301Y-19717D01*
X48320Y-19726D01*
X48329Y-19735D01*
X48339Y-19754D01*
X48339Y-19811D01*
X48329Y-19829D01*
X48320Y-19839D01*
X48301Y-19848D01*
X48264Y-19848D01*
X48245Y-19839D01*
X46467Y-20104D02*
X46457Y-20114D01*
X46429Y-20123D01*
X46410Y-20123D01*
X46382Y-20114D01*
X46363Y-20095D01*
X46354Y-20076D01*
X46345Y-20039D01*
X46345Y-20010D01*
X46354Y-19973D01*
X46363Y-19954D01*
X46382Y-19935D01*
X46410Y-19926D01*
X46429Y-19926D01*
X46457Y-19935D01*
X46467Y-19945D01*
X46532Y-19926D02*
X46664Y-19926D01*
X46579Y-20123D01*
X46260Y-19717D02*
X46260Y-19848D01*
X46213Y-19642D02*
X46166Y-19782D01*
X46288Y-19782D01*
X46345Y-19651D02*
X46476Y-19651D01*
X46392Y-19848D01*
X46589Y-19651D02*
X46607Y-19651D01*
X46626Y-19660D01*
X46636Y-19670D01*
X46645Y-19689D01*
X46654Y-19726D01*
X46654Y-19773D01*
X46645Y-19811D01*
X46636Y-19829D01*
X46626Y-19839D01*
X46607Y-19848D01*
X46589Y-19848D01*
X46570Y-19839D01*
X46560Y-19829D01*
X46551Y-19811D01*
X46542Y-19773D01*
X46542Y-19726D01*
X46551Y-19689D01*
X46560Y-19670D01*
X46570Y-19660D01*
X46589Y-19651D01*
X46739Y-19717D02*
X46739Y-19914D01*
X46739Y-19726D02*
X46757Y-19717D01*
X46795Y-19717D01*
X46814Y-19726D01*
X46823Y-19735D01*
X46833Y-19754D01*
X46833Y-19811D01*
X46823Y-19829D01*
X46814Y-19839D01*
X46795Y-19848D01*
X46757Y-19848D01*
X46739Y-19839D01*
G54D16*
X46170Y-21580D02*
X46161Y-21590D01*
X46135Y-21599D01*
X46118Y-21599D01*
X46092Y-21590D01*
X46075Y-21571D01*
X46067Y-21552D01*
X46058Y-21514D01*
X46058Y-21485D01*
X46067Y-21447D01*
X46075Y-21428D01*
X46092Y-21409D01*
X46118Y-21399D01*
X46135Y-21399D01*
X46161Y-21409D01*
X46170Y-21418D01*
X46272Y-21485D02*
X46255Y-21476D01*
X46247Y-21466D01*
X46238Y-21447D01*
X46238Y-21438D01*
X46247Y-21418D01*
X46255Y-21409D01*
X46272Y-21399D01*
X46307Y-21399D01*
X46324Y-21409D01*
X46332Y-21418D01*
X46341Y-21438D01*
X46341Y-21447D01*
X46332Y-21466D01*
X46324Y-21476D01*
X46307Y-21485D01*
X46272Y-21485D01*
X46255Y-21495D01*
X46247Y-21504D01*
X46238Y-21523D01*
X46238Y-21561D01*
X46247Y-21580D01*
X46255Y-21590D01*
X46272Y-21599D01*
X46307Y-21599D01*
X46324Y-21590D01*
X46332Y-21580D01*
X46341Y-21561D01*
X46341Y-21523D01*
X46332Y-21504D01*
X46324Y-21495D01*
X46307Y-21485D01*
X46024Y-22116D02*
X46024Y-22249D01*
X45981Y-22040D02*
X45938Y-22183D01*
X46050Y-22183D01*
X46118Y-22230D02*
X46127Y-22240D01*
X46118Y-22249D01*
X46110Y-22240D01*
X46118Y-22230D01*
X46118Y-22249D01*
X46187Y-22049D02*
X46307Y-22049D01*
X46230Y-22249D01*
X46375Y-22116D02*
X46375Y-22249D01*
X46375Y-22135D02*
X46384Y-22126D01*
X46401Y-22116D01*
X46427Y-22116D01*
X46444Y-22126D01*
X46452Y-22145D01*
X46452Y-22249D01*
X49970Y-21580D02*
X49961Y-21590D01*
X49935Y-21599D01*
X49918Y-21599D01*
X49892Y-21590D01*
X49875Y-21571D01*
X49867Y-21552D01*
X49858Y-21514D01*
X49858Y-21485D01*
X49867Y-21447D01*
X49875Y-21428D01*
X49892Y-21409D01*
X49918Y-21399D01*
X49935Y-21399D01*
X49961Y-21409D01*
X49970Y-21418D01*
X50055Y-21599D02*
X50090Y-21599D01*
X50107Y-21590D01*
X50115Y-21580D01*
X50132Y-21552D01*
X50141Y-21514D01*
X50141Y-21438D01*
X50132Y-21418D01*
X50124Y-21409D01*
X50107Y-21399D01*
X50072Y-21399D01*
X50055Y-21409D01*
X50047Y-21418D01*
X50038Y-21438D01*
X50038Y-21485D01*
X50047Y-21504D01*
X50055Y-21514D01*
X50072Y-21523D01*
X50107Y-21523D01*
X50124Y-21514D01*
X50132Y-21504D01*
X50141Y-21485D01*
X49824Y-22116D02*
X49824Y-22249D01*
X49781Y-22040D02*
X49738Y-22183D01*
X49850Y-22183D01*
X49918Y-22230D02*
X49927Y-22240D01*
X49918Y-22249D01*
X49910Y-22240D01*
X49918Y-22230D01*
X49918Y-22249D01*
X49987Y-22049D02*
X50107Y-22049D01*
X50030Y-22249D01*
X50175Y-22116D02*
X50175Y-22249D01*
X50175Y-22135D02*
X50184Y-22126D01*
X50201Y-22116D01*
X50227Y-22116D01*
X50244Y-22126D01*
X50252Y-22145D01*
X50252Y-22249D01*
X49584Y-29971D02*
X49575Y-29980D01*
X49550Y-29990D01*
X49532Y-29990D01*
X49507Y-29980D01*
X49490Y-29961D01*
X49481Y-29942D01*
X49472Y-29904D01*
X49472Y-29876D01*
X49481Y-29838D01*
X49490Y-29819D01*
X49507Y-29800D01*
X49532Y-29790D01*
X49550Y-29790D01*
X49575Y-29800D01*
X49584Y-29809D01*
X49755Y-29990D02*
X49652Y-29990D01*
X49704Y-29990D02*
X49704Y-29790D01*
X49687Y-29819D01*
X49670Y-29838D01*
X49652Y-29847D01*
X49867Y-29790D02*
X49884Y-29790D01*
X49901Y-29800D01*
X49910Y-29809D01*
X49918Y-29828D01*
X49927Y-29866D01*
X49927Y-29914D01*
X49918Y-29952D01*
X49910Y-29971D01*
X49901Y-29980D01*
X49884Y-29990D01*
X49867Y-29990D01*
X49850Y-29980D01*
X49841Y-29971D01*
X49832Y-29952D01*
X49824Y-29914D01*
X49824Y-29866D01*
X49832Y-29828D01*
X49841Y-29809D01*
X49850Y-29800D01*
X49867Y-29790D01*
X49481Y-30440D02*
X49498Y-30440D01*
X49515Y-30450D01*
X49524Y-30459D01*
X49532Y-30478D01*
X49541Y-30516D01*
X49541Y-30564D01*
X49532Y-30602D01*
X49524Y-30621D01*
X49515Y-30630D01*
X49498Y-30640D01*
X49481Y-30640D01*
X49464Y-30630D01*
X49455Y-30621D01*
X49447Y-30602D01*
X49438Y-30564D01*
X49438Y-30516D01*
X49447Y-30478D01*
X49455Y-30459D01*
X49464Y-30450D01*
X49481Y-30440D01*
X49618Y-30621D02*
X49627Y-30630D01*
X49618Y-30640D01*
X49610Y-30630D01*
X49618Y-30621D01*
X49618Y-30640D01*
X49798Y-30640D02*
X49695Y-30640D01*
X49747Y-30640D02*
X49747Y-30440D01*
X49730Y-30469D01*
X49712Y-30488D01*
X49695Y-30497D01*
X49952Y-30507D02*
X49952Y-30640D01*
X49875Y-30507D02*
X49875Y-30611D01*
X49884Y-30630D01*
X49901Y-30640D01*
X49927Y-30640D01*
X49944Y-30630D01*
X49952Y-30621D01*
X42984Y-23540D02*
X42994Y-23549D01*
X43003Y-23575D01*
X43003Y-23592D01*
X42994Y-23618D01*
X42975Y-23635D01*
X42956Y-23643D01*
X42918Y-23652D01*
X42889Y-23652D01*
X42851Y-23643D01*
X42832Y-23635D01*
X42813Y-23618D01*
X42803Y-23592D01*
X42803Y-23575D01*
X42813Y-23549D01*
X42822Y-23540D01*
X43003Y-23369D02*
X43003Y-23472D01*
X43003Y-23420D02*
X42803Y-23420D01*
X42832Y-23438D01*
X42851Y-23455D01*
X42861Y-23472D01*
X42822Y-23300D02*
X42813Y-23292D01*
X42803Y-23275D01*
X42803Y-23232D01*
X42813Y-23215D01*
X42822Y-23206D01*
X42841Y-23198D01*
X42861Y-23198D01*
X42889Y-23206D01*
X43003Y-23309D01*
X43003Y-23198D01*
X43653Y-23540D02*
X43653Y-23643D01*
X43653Y-23592D02*
X43453Y-23592D01*
X43482Y-23609D01*
X43501Y-23626D01*
X43511Y-23643D01*
X43453Y-23429D02*
X43453Y-23412D01*
X43463Y-23395D01*
X43472Y-23386D01*
X43491Y-23378D01*
X43530Y-23369D01*
X43577Y-23369D01*
X43615Y-23378D01*
X43634Y-23386D01*
X43644Y-23395D01*
X43653Y-23412D01*
X43653Y-23429D01*
X43644Y-23446D01*
X43634Y-23455D01*
X43615Y-23463D01*
X43577Y-23472D01*
X43530Y-23472D01*
X43491Y-23463D01*
X43472Y-23455D01*
X43463Y-23446D01*
X43453Y-23429D01*
X43520Y-23215D02*
X43653Y-23215D01*
X43520Y-23292D02*
X43625Y-23292D01*
X43644Y-23283D01*
X43653Y-23266D01*
X43653Y-23240D01*
X43644Y-23223D01*
X43634Y-23215D01*
X43978Y-23693D02*
X43970Y-23702D01*
X43944Y-23712D01*
X43927Y-23712D01*
X43901Y-23702D01*
X43884Y-23683D01*
X43875Y-23664D01*
X43867Y-23626D01*
X43867Y-23598D01*
X43875Y-23560D01*
X43884Y-23541D01*
X43901Y-23522D01*
X43927Y-23512D01*
X43944Y-23512D01*
X43970Y-23522D01*
X43978Y-23531D01*
X44150Y-23712D02*
X44047Y-23712D01*
X44098Y-23712D02*
X44098Y-23512D01*
X44081Y-23541D01*
X44064Y-23560D01*
X44047Y-23569D01*
X44210Y-23512D02*
X44321Y-23512D01*
X44261Y-23588D01*
X44287Y-23588D01*
X44304Y-23598D01*
X44313Y-23607D01*
X44321Y-23626D01*
X44321Y-23674D01*
X44313Y-23693D01*
X44304Y-23702D01*
X44287Y-23712D01*
X44235Y-23712D01*
X44218Y-23702D01*
X44210Y-23693D01*
X44064Y-23062D02*
X43961Y-23062D01*
X44013Y-23062D02*
X44013Y-22862D01*
X43995Y-22891D01*
X43978Y-22910D01*
X43961Y-22919D01*
X44218Y-22929D02*
X44218Y-23062D01*
X44141Y-22929D02*
X44141Y-23033D01*
X44150Y-23052D01*
X44167Y-23062D01*
X44193Y-23062D01*
X44210Y-23052D01*
X44218Y-23043D01*
G54D11*
X45441Y-17667D02*
X45275Y-17667D01*
X45275Y-17317D01*
X45741Y-17667D02*
X45541Y-17667D01*
X45641Y-17667D02*
X45641Y-17317D01*
X45608Y-17367D01*
X45575Y-17401D01*
X45541Y-17417D01*
G54D18*
X52130Y-18776D02*
X52130Y-18966D01*
X51730Y-18966D01*
X51769Y-18661D02*
X51750Y-18642D01*
X51730Y-18604D01*
X51730Y-18509D01*
X51750Y-18471D01*
X51769Y-18452D01*
X51807Y-18433D01*
X51845Y-18433D01*
X51902Y-18452D01*
X52130Y-18680D01*
X52130Y-18433D01*
X41424Y-18405D02*
X41024Y-18405D01*
X41024Y-18253D01*
X41043Y-18214D01*
X41062Y-18195D01*
X41100Y-18176D01*
X41157Y-18176D01*
X41196Y-18195D01*
X41215Y-18214D01*
X41234Y-18253D01*
X41234Y-18405D01*
X41424Y-17795D02*
X41424Y-18024D01*
X41424Y-17910D02*
X41024Y-17910D01*
X41081Y-17948D01*
X41119Y-17986D01*
X41138Y-18024D01*
X41424Y-20413D02*
X41024Y-20413D01*
X41024Y-20260D01*
X41043Y-20222D01*
X41062Y-20203D01*
X41100Y-20184D01*
X41157Y-20184D01*
X41196Y-20203D01*
X41215Y-20222D01*
X41234Y-20260D01*
X41234Y-20413D01*
X41062Y-20032D02*
X41043Y-20013D01*
X41024Y-19975D01*
X41024Y-19880D01*
X41043Y-19841D01*
X41062Y-19822D01*
X41100Y-19803D01*
X41138Y-19803D01*
X41196Y-19822D01*
X41424Y-20051D01*
X41424Y-19803D01*
X51630Y-33395D02*
X51230Y-33395D01*
X51230Y-33242D01*
X51250Y-33204D01*
X51269Y-33185D01*
X51307Y-33166D01*
X51364Y-33166D01*
X51402Y-33185D01*
X51421Y-33204D01*
X51440Y-33242D01*
X51440Y-33395D01*
X51230Y-33033D02*
X51230Y-32785D01*
X51383Y-32919D01*
X51383Y-32861D01*
X51402Y-32823D01*
X51421Y-32804D01*
X51459Y-32785D01*
X51554Y-32785D01*
X51592Y-32804D01*
X51611Y-32823D01*
X51630Y-32861D01*
X51630Y-32976D01*
X51611Y-33014D01*
X51592Y-33033D01*
X41530Y-34195D02*
X41130Y-34195D01*
X41130Y-34042D01*
X41150Y-34004D01*
X41169Y-33985D01*
X41207Y-33966D01*
X41264Y-33966D01*
X41302Y-33985D01*
X41321Y-34004D01*
X41340Y-34042D01*
X41340Y-34195D01*
X41264Y-33623D02*
X41530Y-33623D01*
X41111Y-33719D02*
X41397Y-33814D01*
X41397Y-33566D01*
X40452Y-30164D02*
X40452Y-29764D01*
X40605Y-29764D01*
X40643Y-29783D01*
X40662Y-29802D01*
X40681Y-29841D01*
X40681Y-29898D01*
X40662Y-29936D01*
X40643Y-29955D01*
X40605Y-29974D01*
X40452Y-29974D01*
X41043Y-29764D02*
X40852Y-29764D01*
X40833Y-29955D01*
X40852Y-29936D01*
X40890Y-29917D01*
X40986Y-29917D01*
X41024Y-29936D01*
X41043Y-29955D01*
X41062Y-29993D01*
X41062Y-30088D01*
X41043Y-30126D01*
X41024Y-30145D01*
X40986Y-30164D01*
X40890Y-30164D01*
X40852Y-30145D01*
X40833Y-30126D01*
X40452Y-28786D02*
X40452Y-28386D01*
X40605Y-28386D01*
X40643Y-28405D01*
X40662Y-28424D01*
X40681Y-28463D01*
X40681Y-28520D01*
X40662Y-28558D01*
X40643Y-28577D01*
X40605Y-28596D01*
X40452Y-28596D01*
X41024Y-28386D02*
X40948Y-28386D01*
X40909Y-28405D01*
X40890Y-28424D01*
X40852Y-28482D01*
X40833Y-28558D01*
X40833Y-28710D01*
X40852Y-28748D01*
X40871Y-28767D01*
X40909Y-28786D01*
X40986Y-28786D01*
X41024Y-28767D01*
X41043Y-28748D01*
X41062Y-28710D01*
X41062Y-28615D01*
X41043Y-28577D01*
X41024Y-28558D01*
X40986Y-28539D01*
X40909Y-28539D01*
X40871Y-28558D01*
X40852Y-28577D01*
X40833Y-28615D01*
X40452Y-23740D02*
X40452Y-23340D01*
X40605Y-23340D01*
X40643Y-23359D01*
X40662Y-23378D01*
X40681Y-23416D01*
X40681Y-23473D01*
X40662Y-23511D01*
X40643Y-23530D01*
X40605Y-23549D01*
X40452Y-23549D01*
X40814Y-23340D02*
X41081Y-23340D01*
X40909Y-23740D01*
X41424Y-22421D02*
X41024Y-22421D01*
X41024Y-22268D01*
X41043Y-22230D01*
X41062Y-22211D01*
X41100Y-22192D01*
X41157Y-22192D01*
X41196Y-22211D01*
X41215Y-22230D01*
X41234Y-22268D01*
X41234Y-22421D01*
X41196Y-21964D02*
X41177Y-22002D01*
X41157Y-22021D01*
X41119Y-22040D01*
X41100Y-22040D01*
X41062Y-22021D01*
X41043Y-22002D01*
X41024Y-21964D01*
X41024Y-21887D01*
X41043Y-21849D01*
X41062Y-21830D01*
X41100Y-21811D01*
X41119Y-21811D01*
X41157Y-21830D01*
X41177Y-21849D01*
X41196Y-21887D01*
X41196Y-21964D01*
X41215Y-22002D01*
X41234Y-22021D01*
X41272Y-22040D01*
X41348Y-22040D01*
X41386Y-22021D01*
X41405Y-22002D01*
X41424Y-21964D01*
X41424Y-21887D01*
X41405Y-21849D01*
X41386Y-21830D01*
X41348Y-21811D01*
X41272Y-21811D01*
X41234Y-21830D01*
X41215Y-21849D01*
X41196Y-21887D01*
X46948Y-26102D02*
X46948Y-25702D01*
X47101Y-25702D01*
X47139Y-25721D01*
X47158Y-25740D01*
X47177Y-25778D01*
X47177Y-25835D01*
X47158Y-25874D01*
X47139Y-25893D01*
X47101Y-25912D01*
X46948Y-25912D01*
X47367Y-26102D02*
X47444Y-26102D01*
X47482Y-26083D01*
X47501Y-26064D01*
X47539Y-26007D01*
X47558Y-25931D01*
X47558Y-25778D01*
X47539Y-25740D01*
X47520Y-25721D01*
X47482Y-25702D01*
X47405Y-25702D01*
X47367Y-25721D01*
X47348Y-25740D01*
X47329Y-25778D01*
X47329Y-25874D01*
X47348Y-25912D01*
X47367Y-25931D01*
X47405Y-25950D01*
X47482Y-25950D01*
X47520Y-25931D01*
X47539Y-25912D01*
X47558Y-25874D01*
X46837Y-24252D02*
X46837Y-23852D01*
X46989Y-23852D01*
X47027Y-23871D01*
X47046Y-23890D01*
X47065Y-23928D01*
X47065Y-23985D01*
X47046Y-24023D01*
X47027Y-24042D01*
X46989Y-24061D01*
X46837Y-24061D01*
X47446Y-24252D02*
X47218Y-24252D01*
X47332Y-24252D02*
X47332Y-23852D01*
X47294Y-23909D01*
X47256Y-23947D01*
X47218Y-23966D01*
X47694Y-23852D02*
X47732Y-23852D01*
X47770Y-23871D01*
X47789Y-23890D01*
X47808Y-23928D01*
X47827Y-24004D01*
X47827Y-24099D01*
X47808Y-24176D01*
X47789Y-24214D01*
X47770Y-24233D01*
X47732Y-24252D01*
X47694Y-24252D01*
X47656Y-24233D01*
X47637Y-24214D01*
X47618Y-24176D01*
X47599Y-24099D01*
X47599Y-24004D01*
X47618Y-23928D01*
X47637Y-23890D01*
X47656Y-23871D01*
X47694Y-23852D01*
X50814Y-26530D02*
X50814Y-26130D01*
X50966Y-26130D01*
X51004Y-26150D01*
X51023Y-26169D01*
X51042Y-26207D01*
X51042Y-26264D01*
X51023Y-26302D01*
X51004Y-26321D01*
X50966Y-26340D01*
X50814Y-26340D01*
X51423Y-26530D02*
X51195Y-26530D01*
X51309Y-26530D02*
X51309Y-26130D01*
X51271Y-26188D01*
X51233Y-26226D01*
X51195Y-26245D01*
X51804Y-26530D02*
X51576Y-26530D01*
X51690Y-26530D02*
X51690Y-26130D01*
X51652Y-26188D01*
X51614Y-26226D01*
X51576Y-26245D01*
X40262Y-25118D02*
X40262Y-24718D01*
X40414Y-24718D01*
X40452Y-24737D01*
X40471Y-24756D01*
X40490Y-24794D01*
X40490Y-24851D01*
X40471Y-24889D01*
X40452Y-24908D01*
X40414Y-24927D01*
X40262Y-24927D01*
X40871Y-25118D02*
X40643Y-25118D01*
X40757Y-25118D02*
X40757Y-24718D01*
X40719Y-24775D01*
X40681Y-24813D01*
X40643Y-24832D01*
X41024Y-24756D02*
X41043Y-24737D01*
X41081Y-24718D01*
X41176Y-24718D01*
X41214Y-24737D01*
X41233Y-24756D01*
X41252Y-24794D01*
X41252Y-24832D01*
X41233Y-24889D01*
X41005Y-25118D01*
X41252Y-25118D01*
G54D16*
X40836Y-32098D02*
X40776Y-32003D01*
X40733Y-32098D02*
X40733Y-31898D01*
X40801Y-31898D01*
X40818Y-31907D01*
X40827Y-31917D01*
X40836Y-31936D01*
X40836Y-31965D01*
X40827Y-31984D01*
X40818Y-31993D01*
X40801Y-32003D01*
X40733Y-32003D01*
X41007Y-32098D02*
X40904Y-32098D01*
X40956Y-32098D02*
X40956Y-31898D01*
X40938Y-31926D01*
X40921Y-31945D01*
X40904Y-31955D01*
X47090Y-21539D02*
X46995Y-21599D01*
X47090Y-21642D02*
X46890Y-21642D01*
X46890Y-21573D01*
X46900Y-21556D01*
X46909Y-21548D01*
X46928Y-21539D01*
X46957Y-21539D01*
X46976Y-21548D01*
X46985Y-21556D01*
X46995Y-21573D01*
X46995Y-21642D01*
X46909Y-21470D02*
X46900Y-21462D01*
X46890Y-21445D01*
X46890Y-21402D01*
X46900Y-21385D01*
X46909Y-21376D01*
X46928Y-21368D01*
X46947Y-21368D01*
X46976Y-21376D01*
X47090Y-21479D01*
X47090Y-21368D01*
X49290Y-21539D02*
X49195Y-21599D01*
X49290Y-21642D02*
X49090Y-21642D01*
X49090Y-21573D01*
X49100Y-21556D01*
X49109Y-21548D01*
X49128Y-21539D01*
X49157Y-21539D01*
X49176Y-21548D01*
X49185Y-21556D01*
X49195Y-21573D01*
X49195Y-21642D01*
X49090Y-21479D02*
X49090Y-21368D01*
X49166Y-21428D01*
X49166Y-21402D01*
X49176Y-21385D01*
X49185Y-21376D01*
X49204Y-21368D01*
X49252Y-21368D01*
X49271Y-21376D01*
X49280Y-21385D01*
X49290Y-21402D01*
X49290Y-21453D01*
X49280Y-21470D01*
X49271Y-21479D01*
X42390Y-35830D02*
X42295Y-35890D01*
X42390Y-35932D02*
X42190Y-35932D01*
X42190Y-35864D01*
X42200Y-35847D01*
X42209Y-35838D01*
X42228Y-35830D01*
X42257Y-35830D01*
X42276Y-35838D01*
X42285Y-35847D01*
X42295Y-35864D01*
X42295Y-35932D01*
X42257Y-35675D02*
X42390Y-35675D01*
X42180Y-35718D02*
X42323Y-35761D01*
X42323Y-35650D01*
G54D10*
X52778Y-29834D02*
X52590Y-29965D01*
X52778Y-30059D02*
X52384Y-30059D01*
X52384Y-29909D01*
X52403Y-29871D01*
X52421Y-29853D01*
X52459Y-29834D01*
X52515Y-29834D01*
X52553Y-29853D01*
X52571Y-29871D01*
X52590Y-29909D01*
X52590Y-30059D01*
X52384Y-29721D02*
X52778Y-29590D01*
X52384Y-29459D01*
X52778Y-29121D02*
X52778Y-29346D01*
X52778Y-29234D02*
X52384Y-29234D01*
X52440Y-29271D01*
X52478Y-29309D01*
X52496Y-29346D01*
X53528Y-30443D02*
X53134Y-30443D01*
X53134Y-30293D01*
X53153Y-30256D01*
X53171Y-30237D01*
X53209Y-30218D01*
X53265Y-30218D01*
X53303Y-30237D01*
X53321Y-30256D01*
X53340Y-30293D01*
X53340Y-30443D01*
X53134Y-29974D02*
X53134Y-29899D01*
X53153Y-29862D01*
X53190Y-29824D01*
X53265Y-29806D01*
X53396Y-29806D01*
X53471Y-29824D01*
X53509Y-29862D01*
X53528Y-29899D01*
X53528Y-29974D01*
X53509Y-30012D01*
X53471Y-30049D01*
X53396Y-30068D01*
X53265Y-30068D01*
X53190Y-30049D01*
X53153Y-30012D01*
X53134Y-29974D01*
X53134Y-29693D02*
X53134Y-29468D01*
X53528Y-29581D02*
X53134Y-29581D01*
X53134Y-29150D02*
X53134Y-29337D01*
X53321Y-29356D01*
X53303Y-29337D01*
X53284Y-29300D01*
X53284Y-29206D01*
X53303Y-29168D01*
X53321Y-29150D01*
X53359Y-29131D01*
X53453Y-29131D01*
X53490Y-29150D01*
X53509Y-29168D01*
X53528Y-29206D01*
X53528Y-29300D01*
X53509Y-29337D01*
X53490Y-29356D01*
X53528Y-28962D02*
X53134Y-28962D01*
X53528Y-28737D02*
X53303Y-28906D01*
X53134Y-28737D02*
X53359Y-28962D01*
G54D13*
X43192Y-19559D02*
X43351Y-19559D01*
X43370Y-19550D01*
X43379Y-19540D01*
X43389Y-19522D01*
X43389Y-19484D01*
X43379Y-19465D01*
X43370Y-19456D01*
X43351Y-19446D01*
X43192Y-19446D01*
X43389Y-19249D02*
X43389Y-19362D01*
X43389Y-19306D02*
X43192Y-19306D01*
X43220Y-19325D01*
X43239Y-19343D01*
X43248Y-19362D01*
X41660Y-31191D02*
X41660Y-31350D01*
X41670Y-31369D01*
X41679Y-31378D01*
X41698Y-31388D01*
X41735Y-31388D01*
X41754Y-31378D01*
X41764Y-31369D01*
X41773Y-31350D01*
X41773Y-31191D01*
X41848Y-31191D02*
X41970Y-31191D01*
X41904Y-31266D01*
X41932Y-31266D01*
X41951Y-31275D01*
X41961Y-31285D01*
X41970Y-31303D01*
X41970Y-31350D01*
X41961Y-31369D01*
X41951Y-31378D01*
X41932Y-31388D01*
X41876Y-31388D01*
X41857Y-31378D01*
X41848Y-31369D01*
X47949Y-21301D02*
X47949Y-21461D01*
X47959Y-21479D01*
X47968Y-21489D01*
X47987Y-21498D01*
X48024Y-21498D01*
X48043Y-21489D01*
X48053Y-21479D01*
X48062Y-21461D01*
X48062Y-21301D01*
X48240Y-21367D02*
X48240Y-21498D01*
X48193Y-21292D02*
X48146Y-21432D01*
X48268Y-21432D01*
G54D14*
X45526Y-33608D02*
X45526Y-34094D01*
X45555Y-34151D01*
X45583Y-34180D01*
X45641Y-34208D01*
X45755Y-34208D01*
X45812Y-34180D01*
X45841Y-34151D01*
X45869Y-34094D01*
X45869Y-33608D01*
X46098Y-33608D02*
X46498Y-33608D01*
X46241Y-34208D01*
X45126Y-33027D02*
X44926Y-32741D01*
X44784Y-33027D02*
X44784Y-32427D01*
X45012Y-32427D01*
X45069Y-32456D01*
X45098Y-32484D01*
X45126Y-32541D01*
X45126Y-32627D01*
X45098Y-32684D01*
X45069Y-32713D01*
X45012Y-32741D01*
X44784Y-32741D01*
X45384Y-33027D02*
X45384Y-32427D01*
X45726Y-33027D01*
X45726Y-32427D01*
X46269Y-32627D02*
X46269Y-33027D01*
X46126Y-32399D02*
X45984Y-32827D01*
X46355Y-32827D01*
X46555Y-32484D02*
X46584Y-32456D01*
X46641Y-32427D01*
X46784Y-32427D01*
X46841Y-32456D01*
X46869Y-32484D01*
X46898Y-32541D01*
X46898Y-32599D01*
X46869Y-32684D01*
X46526Y-33027D01*
X46898Y-33027D01*
G54D19*
X44114Y-21993D02*
X44433Y-21993D01*
X44470Y-21974D01*
X44489Y-21956D01*
X44508Y-21918D01*
X44508Y-21843D01*
X44489Y-21805D01*
X44470Y-21787D01*
X44433Y-21768D01*
X44114Y-21768D01*
X44283Y-21524D02*
X44264Y-21562D01*
X44245Y-21580D01*
X44208Y-21599D01*
X44189Y-21599D01*
X44151Y-21580D01*
X44133Y-21562D01*
X44114Y-21524D01*
X44114Y-21449D01*
X44133Y-21411D01*
X44151Y-21393D01*
X44189Y-21374D01*
X44208Y-21374D01*
X44245Y-21393D01*
X44264Y-21411D01*
X44283Y-21449D01*
X44283Y-21524D01*
X44302Y-21562D01*
X44320Y-21580D01*
X44358Y-21599D01*
X44433Y-21599D01*
X44470Y-21580D01*
X44489Y-21562D01*
X44508Y-21524D01*
X44508Y-21449D01*
X44489Y-21411D01*
X44470Y-21393D01*
X44433Y-21374D01*
X44358Y-21374D01*
X44320Y-21393D01*
X44302Y-21411D01*
X44283Y-21449D01*
X42107Y-23047D02*
X41713Y-23047D01*
X41994Y-22915D01*
X41713Y-22784D01*
X42107Y-22784D01*
X42069Y-22371D02*
X42088Y-22390D01*
X42107Y-22446D01*
X42107Y-22484D01*
X42088Y-22540D01*
X42051Y-22578D01*
X42013Y-22596D01*
X41938Y-22615D01*
X41882Y-22615D01*
X41807Y-22596D01*
X41769Y-22578D01*
X41732Y-22540D01*
X41713Y-22484D01*
X41713Y-22446D01*
X41732Y-22390D01*
X41750Y-22371D01*
X42107Y-22202D02*
X41713Y-22202D01*
X41713Y-22052D01*
X41732Y-22015D01*
X41750Y-21996D01*
X41788Y-21977D01*
X41844Y-21977D01*
X41882Y-21996D01*
X41901Y-22015D01*
X41919Y-22052D01*
X41919Y-22202D01*
X42107Y-21602D02*
X42107Y-21827D01*
X42107Y-21715D02*
X41713Y-21715D01*
X41769Y-21752D01*
X41807Y-21790D01*
X41826Y-21827D01*
X41713Y-21471D02*
X41713Y-21208D01*
X42107Y-21377D01*
X41713Y-20983D02*
X41713Y-20945D01*
X41732Y-20908D01*
X41750Y-20889D01*
X41788Y-20870D01*
X41863Y-20852D01*
X41957Y-20852D01*
X42032Y-20870D01*
X42069Y-20889D01*
X42088Y-20908D01*
X42107Y-20945D01*
X42107Y-20983D01*
X42088Y-21020D01*
X42069Y-21039D01*
X42032Y-21058D01*
X41957Y-21077D01*
X41863Y-21077D01*
X41788Y-21058D01*
X41750Y-21039D01*
X41732Y-21020D01*
X41713Y-20983D01*
X41750Y-20701D02*
X41732Y-20683D01*
X41713Y-20645D01*
X41713Y-20551D01*
X41732Y-20514D01*
X41750Y-20495D01*
X41788Y-20476D01*
X41826Y-20476D01*
X41882Y-20495D01*
X42107Y-20720D01*
X42107Y-20476D01*
M02*
