G04 (created by PCBNEW (2013-mar-13)-testing) date Fri 28 Feb 2014 04:48:04 PM CET*
%MOIN*%
G04 Gerber Fmt 3.4, Leading zero omitted, Abs format*
%FSLAX34Y34*%
G01*
G70*
G90*
G04 APERTURE LIST*
%ADD10C,0.005906*%
%ADD11R,0.080000X0.060000*%
%ADD12R,0.045000X0.025000*%
%ADD13R,0.070900X0.106300*%
%ADD14R,0.035000X0.055000*%
%ADD15R,0.025000X0.045000*%
%ADD16R,0.140000X0.070000*%
%ADD17R,0.086600X0.060000*%
%ADD18O,0.086600X0.060000*%
%ADD19R,0.060000X0.086600*%
%ADD20C,0.070866*%
%ADD21R,0.039400X0.023600*%
%ADD22R,0.023600X0.039400*%
%ADD23R,0.088600X0.031400*%
%ADD24R,0.031400X0.088600*%
%ADD25R,0.070800X0.035400*%
%ADD26R,0.070700X0.035400*%
%ADD27R,0.027600X0.063000*%
%ADD28R,0.027600X0.082700*%
%ADD29R,0.078700X0.108300*%
%ADD30C,0.126000*%
%ADD31C,0.059055*%
%ADD32C,0.019685*%
%ADD33C,0.011024*%
%ADD34C,0.010000*%
G04 APERTURE END LIST*
G54D10*
G54D11*
X43100Y-16859D03*
X43100Y-18159D03*
G54D12*
X44100Y-17009D03*
X44100Y-17609D03*
X44600Y-19409D03*
X44600Y-20009D03*
G54D13*
X47455Y-18209D03*
X49345Y-18209D03*
G54D14*
X47325Y-16709D03*
X48075Y-16709D03*
X48475Y-19909D03*
X47725Y-19909D03*
X46875Y-19909D03*
X46125Y-19909D03*
G54D12*
X46200Y-21809D03*
X46200Y-21209D03*
X50000Y-21809D03*
X50000Y-21209D03*
X49700Y-30200D03*
X49700Y-29600D03*
G54D15*
X43213Y-23425D03*
X42613Y-23425D03*
G54D12*
X44094Y-23322D03*
X44094Y-23922D03*
G54D16*
X45500Y-16759D03*
X45500Y-18259D03*
G54D17*
X51100Y-18209D03*
G54D18*
X51100Y-19209D03*
G54D17*
X40393Y-17610D03*
G54D18*
X40393Y-18610D03*
G54D17*
X40393Y-19618D03*
G54D18*
X40393Y-20618D03*
G54D17*
X50600Y-32600D03*
G54D18*
X50600Y-33600D03*
G54D17*
X42200Y-34400D03*
G54D18*
X42200Y-33400D03*
G54D19*
X40748Y-29133D03*
X40748Y-27755D03*
X40748Y-24409D03*
G54D17*
X40393Y-21625D03*
G54D18*
X40393Y-22625D03*
G54D19*
X47244Y-26771D03*
X47322Y-24921D03*
X51300Y-27200D03*
X40748Y-25787D03*
G54D15*
X40566Y-32007D03*
X41166Y-32007D03*
G54D12*
X47000Y-21809D03*
X47000Y-21209D03*
X49200Y-21809D03*
X49200Y-21209D03*
X42300Y-36100D03*
X42300Y-35500D03*
G54D20*
X50600Y-28600D03*
X51600Y-29600D03*
X50600Y-30600D03*
G54D21*
X42884Y-19034D03*
X43716Y-19409D03*
X42884Y-19784D03*
G54D22*
X42186Y-30883D03*
X41811Y-31715D03*
X41436Y-30883D03*
X47725Y-21825D03*
X48100Y-20993D03*
X48475Y-21825D03*
G54D23*
X48700Y-34685D03*
X48700Y-34212D03*
X48700Y-33740D03*
X48700Y-33267D03*
X48700Y-32795D03*
X48700Y-32323D03*
X48700Y-31850D03*
X48700Y-31378D03*
X48700Y-30905D03*
X48700Y-30433D03*
X48700Y-29960D03*
X43661Y-29960D03*
X43661Y-30433D03*
X43661Y-30905D03*
X43661Y-31378D03*
X43661Y-31850D03*
X43661Y-32323D03*
X43661Y-32795D03*
X43661Y-33267D03*
X43661Y-33740D03*
X43661Y-34212D03*
X43661Y-34685D03*
X43661Y-35157D03*
X48700Y-35157D03*
G54D24*
X47794Y-28976D03*
X47401Y-28976D03*
X46889Y-28976D03*
X46416Y-28976D03*
X45944Y-28976D03*
X45472Y-28976D03*
X44960Y-28976D03*
X44566Y-28976D03*
G54D25*
X48503Y-29015D03*
G54D26*
X48503Y-36613D03*
X43857Y-36614D03*
X43857Y-29015D03*
G54D27*
X42519Y-22598D03*
G54D28*
X43110Y-22500D03*
G54D27*
X43701Y-22598D03*
G54D29*
X43110Y-21555D03*
G54D30*
X51259Y-35708D03*
X51259Y-15866D03*
X40472Y-15866D03*
X40472Y-35708D03*
G54D31*
X49700Y-31266D03*
X42622Y-27544D03*
X50208Y-22730D03*
X49661Y-24312D03*
X44932Y-24305D03*
X42838Y-32520D03*
X51474Y-34034D03*
X41693Y-35300D03*
X43626Y-26004D03*
X45228Y-19386D03*
X48582Y-24170D03*
X40463Y-31229D03*
G54D32*
X44622Y-16889D02*
X44502Y-17009D01*
X44622Y-16759D02*
X44622Y-16889D01*
X45500Y-16759D02*
X44622Y-16759D01*
X44301Y-17009D02*
X44502Y-17009D01*
X44301Y-17009D02*
X44100Y-17009D01*
X43697Y-16879D02*
X43677Y-16859D01*
X43697Y-17009D02*
X43697Y-16879D01*
X43100Y-16859D02*
X43677Y-16859D01*
X44100Y-17009D02*
X43697Y-17009D01*
X42249Y-17132D02*
X42522Y-16859D01*
X40393Y-17132D02*
X42249Y-17132D01*
X40393Y-17610D02*
X40393Y-17132D01*
X43100Y-16859D02*
X42522Y-16859D01*
G54D33*
X49700Y-30200D02*
X49700Y-31266D01*
X49277Y-30263D02*
X49341Y-30200D01*
X49277Y-30433D02*
X49277Y-30263D01*
X49700Y-30200D02*
X49341Y-30200D01*
X48989Y-30433D02*
X49277Y-30433D01*
X48989Y-30433D02*
X48700Y-30433D01*
X48700Y-30433D02*
X48123Y-30433D01*
X42300Y-36100D02*
X42300Y-35841D01*
X44078Y-23047D02*
X44094Y-23063D01*
X43701Y-23047D02*
X44078Y-23047D01*
X43701Y-22598D02*
X43701Y-23047D01*
X44094Y-23322D02*
X44094Y-23063D01*
X44094Y-23322D02*
X44094Y-23581D01*
X47817Y-30740D02*
X48123Y-30433D01*
X45231Y-30740D02*
X47817Y-30740D01*
X45231Y-34383D02*
X45231Y-30740D01*
X43773Y-35841D02*
X45231Y-34383D01*
X42300Y-35841D02*
X43773Y-35841D01*
X44130Y-29639D02*
X45231Y-30740D01*
X43750Y-29639D02*
X44130Y-29639D01*
X43167Y-29056D02*
X43750Y-29639D01*
X43167Y-26636D02*
X43167Y-29056D01*
X43000Y-26468D02*
X43167Y-26636D01*
X43000Y-25569D02*
X43000Y-26468D01*
X43167Y-25402D02*
X43000Y-25569D01*
X43167Y-24281D02*
X43167Y-25402D01*
X43867Y-23581D02*
X43167Y-24281D01*
X44094Y-23581D02*
X43867Y-23581D01*
X43213Y-23425D02*
X42954Y-23425D01*
X40566Y-32007D02*
X40307Y-32007D01*
X40393Y-27186D02*
X42622Y-27186D01*
X40017Y-27563D02*
X40393Y-27186D01*
X40017Y-31718D02*
X40017Y-27563D01*
X40307Y-32007D02*
X40017Y-31718D01*
X42622Y-27186D02*
X42622Y-27544D01*
X42622Y-24888D02*
X42622Y-27186D01*
X42954Y-24556D02*
X42622Y-24888D01*
X42954Y-23425D02*
X42954Y-24556D01*
X40393Y-21625D02*
X40960Y-21625D01*
X43110Y-21625D02*
X40960Y-21625D01*
X43110Y-21555D02*
X43110Y-21625D01*
X43110Y-21625D02*
X43110Y-22500D01*
X43128Y-23066D02*
X43213Y-23066D01*
X43110Y-23047D02*
X43128Y-23066D01*
X43110Y-22500D02*
X43110Y-23047D01*
X43213Y-23425D02*
X43213Y-23066D01*
X49661Y-23278D02*
X49661Y-24312D01*
X50208Y-22730D02*
X49661Y-23278D01*
G54D32*
X44920Y-18786D02*
X44600Y-19107D01*
X45500Y-18786D02*
X44920Y-18786D01*
X45500Y-18259D02*
X45500Y-18786D01*
X44600Y-19409D02*
X44600Y-19107D01*
X47455Y-18209D02*
X47455Y-17500D01*
X45500Y-18259D02*
X46377Y-18259D01*
X43715Y-19409D02*
X44600Y-19409D01*
X46377Y-18234D02*
X46377Y-18259D01*
X47241Y-17370D02*
X46377Y-18234D01*
X47325Y-17370D02*
X47241Y-17370D01*
X47325Y-16709D02*
X47325Y-17370D01*
X47325Y-17370D02*
X47455Y-17500D01*
G54D33*
X42403Y-19184D02*
X40393Y-19184D01*
X42553Y-19034D02*
X42403Y-19184D01*
X40393Y-19618D02*
X40393Y-19184D01*
X42884Y-19034D02*
X42553Y-19034D01*
X44600Y-20009D02*
X44600Y-20268D01*
X46125Y-19909D02*
X46125Y-20318D01*
X46200Y-20393D02*
X46200Y-21209D01*
X46125Y-20318D02*
X46200Y-20393D01*
X49341Y-29897D02*
X49341Y-29600D01*
X49277Y-29960D02*
X49341Y-29897D01*
X48700Y-29960D02*
X49277Y-29960D01*
X49700Y-29600D02*
X49341Y-29600D01*
X42538Y-23066D02*
X42613Y-23066D01*
X42519Y-23047D02*
X42538Y-23066D01*
X42519Y-22598D02*
X42519Y-23047D01*
X42613Y-23425D02*
X42613Y-23066D01*
X42613Y-23425D02*
X42354Y-23425D01*
X44100Y-17609D02*
X43741Y-17609D01*
X45716Y-20009D02*
X45816Y-19909D01*
X44600Y-20009D02*
X45716Y-20009D01*
X46125Y-19909D02*
X45816Y-19909D01*
X47401Y-28976D02*
X47401Y-29553D01*
X48700Y-29960D02*
X48123Y-29960D01*
X44600Y-20009D02*
X44241Y-20009D01*
X43633Y-17716D02*
X43741Y-17609D01*
X43633Y-18159D02*
X43633Y-17716D01*
X43100Y-18159D02*
X43633Y-18159D01*
X43100Y-18159D02*
X43100Y-18593D01*
X40393Y-22625D02*
X40393Y-23059D01*
X41436Y-30883D02*
X41562Y-30883D01*
X41182Y-23848D02*
X41182Y-24409D01*
X41931Y-23848D02*
X41182Y-23848D01*
X42354Y-23425D02*
X41931Y-23848D01*
X41182Y-23848D02*
X40393Y-23059D01*
X44960Y-29553D02*
X47401Y-29553D01*
X47716Y-29553D02*
X48123Y-29960D01*
X47401Y-29553D02*
X47716Y-29553D01*
X48700Y-35157D02*
X48123Y-35157D01*
X40748Y-24409D02*
X40917Y-24409D01*
X40917Y-24409D02*
X41182Y-24409D01*
X40902Y-32889D02*
X41264Y-32889D01*
X39828Y-31815D02*
X40902Y-32889D01*
X39828Y-25498D02*
X39828Y-31815D01*
X40917Y-24409D02*
X39828Y-25498D01*
X41264Y-35608D02*
X41264Y-32889D01*
X42014Y-36359D02*
X41264Y-35608D01*
X43031Y-36359D02*
X42014Y-36359D01*
X43360Y-36030D02*
X43031Y-36359D01*
X47251Y-36030D02*
X43360Y-36030D01*
X48123Y-35157D02*
X47251Y-36030D01*
X42063Y-31384D02*
X41562Y-30883D01*
X42063Y-32090D02*
X42063Y-31384D01*
X41264Y-32889D02*
X42063Y-32090D01*
X49200Y-21209D02*
X48841Y-21209D01*
X47000Y-21209D02*
X46200Y-21209D01*
X48720Y-21329D02*
X48841Y-21209D01*
X47479Y-21329D02*
X48720Y-21329D01*
X47358Y-21209D02*
X47479Y-21329D01*
X47000Y-21209D02*
X47358Y-21209D01*
X44960Y-29264D02*
X44960Y-29553D01*
X49200Y-21209D02*
X50000Y-21209D01*
X50000Y-20743D02*
X51100Y-19643D01*
X50000Y-21209D02*
X50000Y-20743D01*
X51100Y-19209D02*
X51100Y-19643D01*
X44094Y-23922D02*
X44453Y-23922D01*
X44453Y-20414D02*
X44453Y-23922D01*
X44600Y-20268D02*
X44453Y-20414D01*
X44549Y-23922D02*
X44932Y-24305D01*
X44453Y-23922D02*
X44549Y-23922D01*
X44960Y-29264D02*
X44960Y-28976D01*
X44094Y-24837D02*
X44094Y-23922D01*
X43191Y-25740D02*
X44094Y-24837D01*
X43191Y-26345D02*
X43191Y-25740D01*
X44960Y-28114D02*
X43191Y-26345D01*
X44960Y-28976D02*
X44960Y-28114D01*
X42302Y-20618D02*
X42884Y-20036D01*
X40393Y-20618D02*
X42302Y-20618D01*
X42884Y-19784D02*
X42884Y-20036D01*
X42884Y-19784D02*
X43215Y-19784D01*
X43379Y-19619D02*
X43215Y-19784D01*
X43379Y-18873D02*
X43379Y-19619D01*
X43100Y-18593D02*
X43379Y-18873D01*
X43769Y-20009D02*
X44241Y-20009D01*
X43379Y-19619D02*
X43769Y-20009D01*
X43661Y-34212D02*
X43084Y-34212D01*
X42838Y-33965D02*
X43084Y-34212D01*
X42838Y-32520D02*
X42838Y-33965D01*
X51275Y-34234D02*
X51474Y-34034D01*
X49771Y-34234D02*
X51275Y-34234D01*
X49277Y-33740D02*
X49771Y-34234D01*
X48700Y-33740D02*
X49277Y-33740D01*
X41182Y-28057D02*
X41182Y-27755D01*
X43084Y-29960D02*
X41182Y-28057D01*
X43661Y-29960D02*
X43084Y-29960D01*
X40748Y-27755D02*
X41182Y-27755D01*
X42300Y-35500D02*
X41941Y-35500D01*
X41893Y-35500D02*
X41693Y-35300D01*
X41941Y-35500D02*
X41893Y-35500D01*
X42186Y-30883D02*
X42437Y-30883D01*
X40748Y-29133D02*
X41182Y-29133D01*
X42437Y-30540D02*
X42437Y-30883D01*
X42309Y-30540D02*
X42437Y-30540D01*
X41182Y-29412D02*
X42309Y-30540D01*
X41182Y-29133D02*
X41182Y-29412D01*
X42978Y-30540D02*
X43084Y-30433D01*
X42437Y-30540D02*
X42978Y-30540D01*
X43661Y-30433D02*
X43084Y-30433D01*
X47244Y-26771D02*
X46810Y-26771D01*
X46042Y-26004D02*
X43626Y-26004D01*
X46810Y-26771D02*
X46042Y-26004D01*
X48100Y-19975D02*
X48033Y-19909D01*
X48100Y-20993D02*
X48100Y-19975D01*
X47725Y-19909D02*
X48033Y-19909D01*
X46875Y-19909D02*
X47725Y-19909D01*
X46246Y-19386D02*
X45228Y-19386D01*
X46566Y-19706D02*
X46246Y-19386D01*
X46566Y-19909D02*
X46566Y-19706D01*
X46875Y-19909D02*
X46566Y-19909D01*
X49200Y-21809D02*
X50000Y-21809D01*
X49200Y-21809D02*
X48841Y-21809D01*
X48717Y-21933D02*
X48582Y-21933D01*
X48841Y-21809D02*
X48717Y-21933D01*
X48582Y-21933D02*
X48475Y-21825D01*
X48582Y-21933D02*
X48582Y-24170D01*
X47000Y-21809D02*
X46200Y-21809D01*
X47374Y-21825D02*
X47358Y-21809D01*
X47725Y-21825D02*
X47374Y-21825D01*
X47000Y-21809D02*
X47358Y-21809D01*
X41166Y-32007D02*
X41295Y-32007D01*
X40517Y-31229D02*
X40463Y-31229D01*
X41295Y-32007D02*
X40517Y-31229D01*
X41559Y-31744D02*
X41295Y-32007D01*
X41559Y-31715D02*
X41559Y-31744D01*
X41811Y-31715D02*
X41559Y-31715D01*
X48475Y-19909D02*
X48475Y-19547D01*
X48075Y-16709D02*
X48383Y-16709D01*
X51100Y-18209D02*
X49345Y-18209D01*
X49345Y-18209D02*
X48856Y-18209D01*
X48856Y-18209D02*
X48475Y-18209D01*
X48475Y-19547D02*
X48475Y-18209D01*
X48475Y-16800D02*
X48383Y-16709D01*
X48475Y-18209D02*
X48475Y-16800D01*
X44238Y-31378D02*
X44238Y-30905D01*
X43661Y-31378D02*
X44238Y-31378D01*
X43661Y-30905D02*
X44238Y-30905D01*
G54D10*
G36*
X52115Y-35045D02*
X51869Y-34798D01*
X51474Y-34634D01*
X51047Y-34634D01*
X50652Y-34797D01*
X50349Y-35099D01*
X50186Y-35494D01*
X50185Y-35921D01*
X50348Y-36316D01*
X50596Y-36564D01*
X49393Y-36564D01*
X49393Y-35363D01*
X49393Y-35269D01*
X49331Y-35207D01*
X48750Y-35207D01*
X48750Y-35501D01*
X48813Y-35564D01*
X49094Y-35564D01*
X49193Y-35564D01*
X49285Y-35526D01*
X49355Y-35455D01*
X49393Y-35363D01*
X49393Y-36564D01*
X49025Y-36564D01*
X49025Y-36402D01*
X48999Y-36341D01*
X48952Y-36293D01*
X48890Y-36268D01*
X48823Y-36268D01*
X48650Y-36268D01*
X48650Y-35501D01*
X48650Y-35207D01*
X48070Y-35207D01*
X48007Y-35269D01*
X48007Y-35363D01*
X48045Y-35455D01*
X48116Y-35526D01*
X48208Y-35564D01*
X48307Y-35564D01*
X48588Y-35564D01*
X48650Y-35501D01*
X48650Y-36268D01*
X48116Y-36268D01*
X48055Y-36293D01*
X48007Y-36341D01*
X47982Y-36402D01*
X47982Y-36469D01*
X47982Y-36564D01*
X44379Y-36564D01*
X44379Y-36403D01*
X44353Y-36342D01*
X44306Y-36294D01*
X44244Y-36269D01*
X44177Y-36269D01*
X43470Y-36269D01*
X43409Y-36294D01*
X43361Y-36342D01*
X43336Y-36403D01*
X43336Y-36470D01*
X43336Y-36564D01*
X41135Y-36564D01*
X41382Y-36317D01*
X41546Y-35923D01*
X41546Y-35740D01*
X41600Y-35763D01*
X41785Y-35763D01*
X41886Y-35721D01*
X41893Y-35723D01*
X41893Y-35723D01*
X41893Y-35723D01*
X41935Y-35723D01*
X41979Y-35767D01*
X42041Y-35793D01*
X42086Y-35793D01*
X42083Y-35806D01*
X42041Y-35806D01*
X41979Y-35832D01*
X41932Y-35879D01*
X41906Y-35941D01*
X41906Y-36008D01*
X41906Y-36258D01*
X41932Y-36320D01*
X41979Y-36367D01*
X42041Y-36393D01*
X42108Y-36393D01*
X42558Y-36393D01*
X42620Y-36367D01*
X42667Y-36320D01*
X42693Y-36258D01*
X42693Y-36191D01*
X42693Y-36064D01*
X43773Y-36064D01*
X43773Y-36064D01*
X43773Y-36064D01*
X43844Y-36050D01*
X43858Y-36047D01*
X43858Y-36047D01*
X43931Y-35998D01*
X45389Y-34540D01*
X45389Y-34540D01*
X45389Y-34540D01*
X45437Y-34468D01*
X45454Y-34383D01*
X45454Y-30963D01*
X47817Y-30963D01*
X47817Y-30963D01*
X47817Y-30963D01*
X47888Y-30949D01*
X47902Y-30946D01*
X47902Y-30946D01*
X47974Y-30897D01*
X48089Y-30783D01*
X48089Y-31095D01*
X48108Y-31141D01*
X48089Y-31187D01*
X48089Y-31254D01*
X48089Y-31568D01*
X48108Y-31614D01*
X48089Y-31659D01*
X48089Y-31726D01*
X48089Y-32040D01*
X48108Y-32086D01*
X48089Y-32132D01*
X48089Y-32199D01*
X48089Y-32513D01*
X48108Y-32559D01*
X48089Y-32604D01*
X48089Y-32671D01*
X48089Y-32985D01*
X48108Y-33031D01*
X48089Y-33076D01*
X48089Y-33143D01*
X48089Y-33457D01*
X48108Y-33503D01*
X48089Y-33549D01*
X48089Y-33616D01*
X48089Y-33930D01*
X48108Y-33976D01*
X48089Y-34021D01*
X48089Y-34088D01*
X48089Y-34402D01*
X48108Y-34448D01*
X48089Y-34494D01*
X48089Y-34561D01*
X48089Y-34814D01*
X48045Y-34858D01*
X48007Y-34950D01*
X48007Y-35044D01*
X48070Y-35107D01*
X48650Y-35107D01*
X48650Y-35099D01*
X48750Y-35099D01*
X48750Y-35107D01*
X49331Y-35107D01*
X49393Y-35044D01*
X49393Y-34950D01*
X49355Y-34858D01*
X49312Y-34814D01*
X49312Y-34808D01*
X49312Y-34494D01*
X49292Y-34448D01*
X49312Y-34402D01*
X49312Y-34335D01*
X49312Y-34090D01*
X49613Y-34391D01*
X49613Y-34391D01*
X49686Y-34440D01*
X49771Y-34457D01*
X51275Y-34457D01*
X51275Y-34457D01*
X51275Y-34457D01*
X51281Y-34456D01*
X51382Y-34497D01*
X51566Y-34498D01*
X51736Y-34427D01*
X51867Y-34297D01*
X51938Y-34127D01*
X51938Y-33942D01*
X51867Y-33772D01*
X51737Y-33641D01*
X51567Y-33571D01*
X51382Y-33571D01*
X51212Y-33641D01*
X51202Y-33651D01*
X51212Y-33600D01*
X51208Y-33579D01*
X51208Y-30694D01*
X51198Y-30454D01*
X51126Y-30279D01*
X51025Y-30245D01*
X50954Y-30316D01*
X50954Y-30174D01*
X50920Y-30073D01*
X50694Y-29991D01*
X50454Y-30001D01*
X50279Y-30073D01*
X50245Y-30174D01*
X50600Y-30529D01*
X50954Y-30174D01*
X50954Y-30316D01*
X50670Y-30600D01*
X51025Y-30954D01*
X51126Y-30920D01*
X51208Y-30694D01*
X51208Y-33579D01*
X51201Y-33540D01*
X51201Y-32933D01*
X51201Y-32866D01*
X51201Y-32266D01*
X51175Y-32204D01*
X51128Y-32157D01*
X51066Y-32131D01*
X50999Y-32131D01*
X50954Y-32131D01*
X50954Y-31025D01*
X50600Y-30670D01*
X50245Y-31025D01*
X50279Y-31126D01*
X50505Y-31208D01*
X50745Y-31198D01*
X50920Y-31126D01*
X50954Y-31025D01*
X50954Y-32131D01*
X50133Y-32131D01*
X50071Y-32157D01*
X50024Y-32204D01*
X49998Y-32266D01*
X49998Y-32333D01*
X49998Y-32933D01*
X50024Y-32995D01*
X50071Y-33042D01*
X50133Y-33068D01*
X50200Y-33068D01*
X51066Y-33068D01*
X51128Y-33042D01*
X51175Y-32995D01*
X51201Y-32933D01*
X51201Y-33540D01*
X51177Y-33420D01*
X51075Y-33268D01*
X50923Y-33167D01*
X50744Y-33131D01*
X50455Y-33131D01*
X50276Y-33167D01*
X50124Y-33268D01*
X50022Y-33420D01*
X49987Y-33600D01*
X50022Y-33779D01*
X50124Y-33931D01*
X50243Y-34010D01*
X49864Y-34010D01*
X49435Y-33582D01*
X49363Y-33534D01*
X49349Y-33531D01*
X49300Y-33521D01*
X49292Y-33503D01*
X49312Y-33457D01*
X49312Y-33390D01*
X49312Y-33076D01*
X49293Y-33031D01*
X49312Y-32985D01*
X49312Y-32918D01*
X49312Y-32604D01*
X49293Y-32559D01*
X49312Y-32513D01*
X49312Y-32446D01*
X49312Y-32132D01*
X49292Y-32086D01*
X49312Y-32040D01*
X49312Y-31973D01*
X49312Y-31659D01*
X49293Y-31614D01*
X49312Y-31568D01*
X49312Y-31533D01*
X49437Y-31658D01*
X49607Y-31729D01*
X49791Y-31729D01*
X49962Y-31659D01*
X50092Y-31528D01*
X50163Y-31358D01*
X50163Y-31174D01*
X50093Y-31003D01*
X49962Y-30873D01*
X49923Y-30856D01*
X49923Y-30493D01*
X49958Y-30493D01*
X50002Y-30474D01*
X49991Y-30505D01*
X50001Y-30745D01*
X50073Y-30920D01*
X50174Y-30954D01*
X50529Y-30600D01*
X50174Y-30245D01*
X50093Y-30272D01*
X50093Y-30041D01*
X50067Y-29979D01*
X50036Y-29949D01*
X50066Y-29936D01*
X50136Y-29866D01*
X50175Y-29774D01*
X50175Y-29712D01*
X50175Y-29487D01*
X50175Y-29425D01*
X50136Y-29333D01*
X50066Y-29263D01*
X49974Y-29225D01*
X49875Y-29225D01*
X49812Y-29225D01*
X49750Y-29287D01*
X49750Y-29550D01*
X50112Y-29550D01*
X50175Y-29487D01*
X50175Y-29712D01*
X50112Y-29650D01*
X49750Y-29650D01*
X49750Y-29657D01*
X49650Y-29657D01*
X49650Y-29650D01*
X49642Y-29650D01*
X49642Y-29550D01*
X49650Y-29550D01*
X49650Y-29287D01*
X49587Y-29225D01*
X49524Y-29225D01*
X49425Y-29225D01*
X49333Y-29263D01*
X49263Y-29333D01*
X49225Y-29425D01*
X49225Y-29487D01*
X49287Y-29549D01*
X49225Y-29549D01*
X49225Y-29566D01*
X49193Y-29553D01*
X49094Y-29553D01*
X49026Y-29553D01*
X49026Y-29225D01*
X49026Y-29158D01*
X49026Y-28804D01*
X49000Y-28743D01*
X48953Y-28695D01*
X48891Y-28670D01*
X48824Y-28670D01*
X48120Y-28670D01*
X48120Y-28499D01*
X48094Y-28438D01*
X48047Y-28390D01*
X48011Y-28375D01*
X48011Y-22055D01*
X48011Y-21989D01*
X48011Y-21595D01*
X47985Y-21533D01*
X47938Y-21485D01*
X47876Y-21460D01*
X47809Y-21460D01*
X47573Y-21460D01*
X47511Y-21485D01*
X47464Y-21533D01*
X47438Y-21595D01*
X47438Y-21602D01*
X47430Y-21600D01*
X47365Y-21587D01*
X47336Y-21558D01*
X47366Y-21546D01*
X47436Y-21476D01*
X47475Y-21384D01*
X47475Y-21321D01*
X47475Y-21096D01*
X47475Y-21034D01*
X47436Y-20942D01*
X47366Y-20872D01*
X47274Y-20834D01*
X47175Y-20834D01*
X47112Y-20834D01*
X47050Y-20896D01*
X47050Y-21159D01*
X47412Y-21159D01*
X47475Y-21096D01*
X47475Y-21321D01*
X47412Y-21259D01*
X47050Y-21259D01*
X47050Y-21267D01*
X46950Y-21267D01*
X46950Y-21259D01*
X46950Y-21159D01*
X46950Y-20896D01*
X46887Y-20834D01*
X46824Y-20834D01*
X46725Y-20834D01*
X46633Y-20872D01*
X46600Y-20905D01*
X46566Y-20872D01*
X46474Y-20834D01*
X46375Y-20834D01*
X46312Y-20834D01*
X46250Y-20896D01*
X46250Y-21159D01*
X46587Y-21159D01*
X46612Y-21159D01*
X46950Y-21159D01*
X46950Y-21259D01*
X46612Y-21259D01*
X46587Y-21259D01*
X46250Y-21259D01*
X46250Y-21267D01*
X46150Y-21267D01*
X46150Y-21259D01*
X46150Y-21159D01*
X46150Y-20896D01*
X46087Y-20834D01*
X46075Y-20834D01*
X46075Y-20371D01*
X46075Y-19959D01*
X45762Y-19959D01*
X45700Y-20021D01*
X45700Y-20134D01*
X45700Y-20234D01*
X45738Y-20326D01*
X45808Y-20396D01*
X45900Y-20434D01*
X46012Y-20434D01*
X46075Y-20371D01*
X46075Y-20834D01*
X46024Y-20834D01*
X45925Y-20834D01*
X45833Y-20872D01*
X45763Y-20942D01*
X45725Y-21034D01*
X45725Y-21096D01*
X45787Y-21159D01*
X46150Y-21159D01*
X46150Y-21259D01*
X45787Y-21259D01*
X45725Y-21321D01*
X45725Y-21384D01*
X45763Y-21476D01*
X45833Y-21546D01*
X45863Y-21558D01*
X45832Y-21589D01*
X45806Y-21651D01*
X45806Y-21717D01*
X45806Y-21967D01*
X45832Y-22029D01*
X45879Y-22076D01*
X45941Y-22102D01*
X46008Y-22102D01*
X46458Y-22102D01*
X46520Y-22076D01*
X46564Y-22032D01*
X46635Y-22032D01*
X46679Y-22076D01*
X46741Y-22102D01*
X46808Y-22102D01*
X47258Y-22102D01*
X47320Y-22076D01*
X47352Y-22044D01*
X47374Y-22048D01*
X47374Y-22048D01*
X47374Y-22048D01*
X47438Y-22048D01*
X47438Y-22055D01*
X47464Y-22117D01*
X47511Y-22164D01*
X47573Y-22190D01*
X47640Y-22190D01*
X47876Y-22190D01*
X47938Y-22164D01*
X47985Y-22117D01*
X48011Y-22055D01*
X48011Y-28375D01*
X47985Y-28365D01*
X47918Y-28365D01*
X47790Y-28365D01*
X47790Y-25387D01*
X47790Y-25320D01*
X47790Y-24454D01*
X47765Y-24393D01*
X47718Y-24345D01*
X47656Y-24320D01*
X47589Y-24320D01*
X46989Y-24320D01*
X46927Y-24345D01*
X46880Y-24393D01*
X46854Y-24454D01*
X46854Y-24521D01*
X46854Y-25387D01*
X46880Y-25449D01*
X46927Y-25496D01*
X46989Y-25522D01*
X47056Y-25522D01*
X47656Y-25522D01*
X47718Y-25496D01*
X47765Y-25449D01*
X47790Y-25387D01*
X47790Y-28365D01*
X47744Y-28365D01*
X47700Y-28321D01*
X47608Y-28283D01*
X47514Y-28283D01*
X47451Y-28345D01*
X47451Y-28926D01*
X47459Y-28926D01*
X47459Y-29026D01*
X47451Y-29026D01*
X47451Y-29606D01*
X47514Y-29669D01*
X47608Y-29669D01*
X47700Y-29631D01*
X47744Y-29587D01*
X47985Y-29587D01*
X48047Y-29561D01*
X48094Y-29514D01*
X48120Y-29452D01*
X48120Y-29385D01*
X48120Y-29360D01*
X48183Y-29360D01*
X48891Y-29360D01*
X48953Y-29334D01*
X49000Y-29287D01*
X49026Y-29225D01*
X49026Y-29553D01*
X48813Y-29553D01*
X48750Y-29615D01*
X48750Y-29910D01*
X48758Y-29910D01*
X48758Y-30010D01*
X48750Y-30010D01*
X48750Y-30018D01*
X48650Y-30018D01*
X48650Y-30010D01*
X48650Y-29910D01*
X48650Y-29615D01*
X48588Y-29553D01*
X48307Y-29553D01*
X48208Y-29553D01*
X48116Y-29591D01*
X48045Y-29661D01*
X48007Y-29753D01*
X48007Y-29847D01*
X48070Y-29910D01*
X48650Y-29910D01*
X48650Y-30010D01*
X48070Y-30010D01*
X48007Y-30072D01*
X48007Y-30166D01*
X48034Y-30230D01*
X48014Y-30243D01*
X47966Y-30275D01*
X47966Y-30275D01*
X47724Y-30516D01*
X47351Y-30516D01*
X47351Y-29606D01*
X47351Y-29026D01*
X47344Y-29026D01*
X47344Y-28926D01*
X47351Y-28926D01*
X47351Y-28345D01*
X47289Y-28283D01*
X47195Y-28283D01*
X47103Y-28321D01*
X47059Y-28365D01*
X47013Y-28365D01*
X46699Y-28365D01*
X46653Y-28384D01*
X46607Y-28365D01*
X46540Y-28365D01*
X46226Y-28365D01*
X46180Y-28384D01*
X46135Y-28365D01*
X46068Y-28365D01*
X45754Y-28365D01*
X45708Y-28384D01*
X45663Y-28365D01*
X45596Y-28365D01*
X45303Y-28365D01*
X45259Y-28321D01*
X45167Y-28283D01*
X45073Y-28283D01*
X45010Y-28345D01*
X45010Y-28926D01*
X45018Y-28926D01*
X45018Y-29026D01*
X45010Y-29026D01*
X45010Y-29606D01*
X45073Y-29669D01*
X45167Y-29669D01*
X45259Y-29631D01*
X45303Y-29587D01*
X45349Y-29587D01*
X45663Y-29587D01*
X45708Y-29568D01*
X45754Y-29587D01*
X45821Y-29587D01*
X46135Y-29587D01*
X46180Y-29568D01*
X46226Y-29587D01*
X46293Y-29587D01*
X46607Y-29587D01*
X46653Y-29568D01*
X46699Y-29587D01*
X46766Y-29587D01*
X47059Y-29587D01*
X47103Y-29631D01*
X47195Y-29669D01*
X47289Y-29669D01*
X47351Y-29606D01*
X47351Y-30516D01*
X45323Y-30516D01*
X44394Y-29587D01*
X44443Y-29587D01*
X44618Y-29587D01*
X44662Y-29631D01*
X44754Y-29669D01*
X44848Y-29669D01*
X44910Y-29606D01*
X44910Y-29026D01*
X44903Y-29026D01*
X44903Y-28926D01*
X44910Y-28926D01*
X44910Y-28345D01*
X44848Y-28283D01*
X44754Y-28283D01*
X44662Y-28321D01*
X44618Y-28365D01*
X44376Y-28365D01*
X44314Y-28390D01*
X44267Y-28438D01*
X44241Y-28499D01*
X44241Y-28566D01*
X44241Y-28670D01*
X44177Y-28670D01*
X43470Y-28670D01*
X43409Y-28695D01*
X43391Y-28713D01*
X43391Y-26636D01*
X43391Y-26636D01*
X43391Y-26636D01*
X43374Y-26550D01*
X43325Y-26478D01*
X43325Y-26478D01*
X43223Y-26376D01*
X43223Y-26242D01*
X43233Y-26266D01*
X43363Y-26396D01*
X43534Y-26467D01*
X43718Y-26467D01*
X43888Y-26397D01*
X44019Y-26267D01*
X44035Y-26227D01*
X45950Y-26227D01*
X46652Y-26929D01*
X46652Y-26929D01*
X46724Y-26977D01*
X46775Y-26988D01*
X46775Y-27238D01*
X46801Y-27299D01*
X46848Y-27347D01*
X46910Y-27372D01*
X46977Y-27372D01*
X47577Y-27372D01*
X47639Y-27347D01*
X47686Y-27299D01*
X47712Y-27238D01*
X47712Y-27171D01*
X47712Y-26305D01*
X47686Y-26243D01*
X47639Y-26196D01*
X47577Y-26170D01*
X47510Y-26170D01*
X46910Y-26170D01*
X46848Y-26196D01*
X46801Y-26243D01*
X46775Y-26305D01*
X46775Y-26372D01*
X46775Y-26421D01*
X46200Y-25846D01*
X46128Y-25798D01*
X46114Y-25795D01*
X46042Y-25781D01*
X46042Y-25781D01*
X45075Y-25781D01*
X45075Y-20184D01*
X45075Y-20121D01*
X45012Y-20059D01*
X44650Y-20059D01*
X44650Y-20321D01*
X44712Y-20384D01*
X44775Y-20384D01*
X44874Y-20384D01*
X44966Y-20346D01*
X45036Y-20276D01*
X45075Y-20184D01*
X45075Y-25781D01*
X44569Y-25781D01*
X44569Y-24096D01*
X44569Y-24034D01*
X44506Y-23972D01*
X44144Y-23972D01*
X44144Y-24234D01*
X44206Y-24297D01*
X44269Y-24297D01*
X44369Y-24297D01*
X44461Y-24258D01*
X44531Y-24188D01*
X44569Y-24096D01*
X44569Y-25781D01*
X44035Y-25781D01*
X44019Y-25742D01*
X43889Y-25611D01*
X43719Y-25541D01*
X43534Y-25540D01*
X43364Y-25611D01*
X43234Y-25741D01*
X43223Y-25766D01*
X43223Y-25661D01*
X43325Y-25559D01*
X43325Y-25559D01*
X43325Y-25559D01*
X43374Y-25487D01*
X43391Y-25402D01*
X43391Y-25402D01*
X43391Y-25402D01*
X43391Y-24373D01*
X43633Y-24130D01*
X43657Y-24188D01*
X43727Y-24258D01*
X43819Y-24297D01*
X43919Y-24297D01*
X43981Y-24297D01*
X44044Y-24234D01*
X44044Y-23972D01*
X44036Y-23972D01*
X44036Y-23872D01*
X44044Y-23872D01*
X44044Y-23864D01*
X44144Y-23864D01*
X44144Y-23872D01*
X44506Y-23872D01*
X44569Y-23809D01*
X44569Y-23747D01*
X44550Y-23700D01*
X44550Y-20321D01*
X44550Y-20059D01*
X44187Y-20059D01*
X44125Y-20121D01*
X44125Y-20184D01*
X44163Y-20276D01*
X44233Y-20346D01*
X44325Y-20384D01*
X44424Y-20384D01*
X44487Y-20384D01*
X44550Y-20321D01*
X44550Y-23700D01*
X44531Y-23655D01*
X44461Y-23585D01*
X44431Y-23572D01*
X44462Y-23542D01*
X44487Y-23480D01*
X44487Y-23413D01*
X44487Y-23163D01*
X44462Y-23101D01*
X44414Y-23054D01*
X44352Y-23028D01*
X44310Y-23028D01*
X44303Y-22991D01*
X44300Y-22977D01*
X44300Y-22977D01*
X44252Y-22905D01*
X44252Y-22905D01*
X44236Y-22889D01*
X44164Y-22841D01*
X44150Y-22838D01*
X44078Y-22824D01*
X44078Y-22824D01*
X44007Y-22824D01*
X44007Y-22249D01*
X43981Y-22188D01*
X43934Y-22140D01*
X43872Y-22115D01*
X43805Y-22115D01*
X43671Y-22115D01*
X43671Y-22063D01*
X43671Y-20980D01*
X43646Y-20918D01*
X43598Y-20871D01*
X43537Y-20845D01*
X43470Y-20845D01*
X43331Y-20845D01*
X43331Y-19952D01*
X43331Y-19896D01*
X43331Y-19671D01*
X43331Y-19616D01*
X43292Y-19524D01*
X43249Y-19481D01*
X43249Y-19185D01*
X43249Y-19119D01*
X43249Y-18883D01*
X43223Y-18821D01*
X43176Y-18773D01*
X43114Y-18748D01*
X43050Y-18748D01*
X43050Y-18646D01*
X43050Y-18209D01*
X43050Y-18109D01*
X43050Y-17671D01*
X42987Y-17609D01*
X42749Y-17609D01*
X42650Y-17609D01*
X42558Y-17647D01*
X42488Y-17717D01*
X42450Y-17809D01*
X42450Y-18046D01*
X42512Y-18109D01*
X43050Y-18109D01*
X43050Y-18209D01*
X42512Y-18209D01*
X42450Y-18271D01*
X42450Y-18509D01*
X42488Y-18601D01*
X42558Y-18671D01*
X42650Y-18709D01*
X42749Y-18709D01*
X42987Y-18709D01*
X43050Y-18646D01*
X43050Y-18748D01*
X43047Y-18748D01*
X42653Y-18748D01*
X42591Y-18773D01*
X42554Y-18811D01*
X42553Y-18811D01*
X42553Y-18811D01*
X42481Y-18825D01*
X42467Y-18828D01*
X42395Y-18876D01*
X42310Y-18960D01*
X40952Y-18960D01*
X41053Y-18774D01*
X41059Y-18745D01*
X41011Y-18660D01*
X40443Y-18660D01*
X40443Y-18668D01*
X40343Y-18668D01*
X40343Y-18660D01*
X39775Y-18660D01*
X39727Y-18745D01*
X39733Y-18774D01*
X39836Y-18963D01*
X40004Y-19099D01*
X40176Y-19150D01*
X39927Y-19150D01*
X39865Y-19175D01*
X39818Y-19222D01*
X39792Y-19284D01*
X39792Y-19351D01*
X39792Y-19951D01*
X39818Y-20013D01*
X39865Y-20060D01*
X39927Y-20086D01*
X39994Y-20086D01*
X40149Y-20086D01*
X40004Y-20129D01*
X39836Y-20264D01*
X39733Y-20453D01*
X39727Y-20483D01*
X39775Y-20568D01*
X40343Y-20568D01*
X40343Y-20560D01*
X40443Y-20560D01*
X40443Y-20568D01*
X41011Y-20568D01*
X41059Y-20483D01*
X41053Y-20453D01*
X40950Y-20264D01*
X40783Y-20129D01*
X40638Y-20086D01*
X40860Y-20086D01*
X40921Y-20060D01*
X40969Y-20013D01*
X40994Y-19951D01*
X40994Y-19884D01*
X40994Y-19407D01*
X42403Y-19407D01*
X42403Y-19407D01*
X42403Y-19407D01*
X42474Y-19393D01*
X42488Y-19390D01*
X42488Y-19390D01*
X42561Y-19341D01*
X42603Y-19299D01*
X42653Y-19320D01*
X42720Y-19320D01*
X43114Y-19320D01*
X43176Y-19294D01*
X43223Y-19247D01*
X43249Y-19185D01*
X43249Y-19481D01*
X43222Y-19454D01*
X43130Y-19416D01*
X43031Y-19416D01*
X42996Y-19416D01*
X42934Y-19478D01*
X42934Y-19734D01*
X43268Y-19734D01*
X43331Y-19671D01*
X43331Y-19896D01*
X43268Y-19834D01*
X42934Y-19834D01*
X42934Y-20089D01*
X42996Y-20152D01*
X43031Y-20152D01*
X43130Y-20152D01*
X43222Y-20114D01*
X43292Y-20044D01*
X43331Y-19952D01*
X43331Y-20845D01*
X42834Y-20845D01*
X42834Y-20089D01*
X42834Y-19834D01*
X42834Y-19734D01*
X42834Y-19478D01*
X42771Y-19416D01*
X42736Y-19416D01*
X42637Y-19416D01*
X42545Y-19454D01*
X42475Y-19524D01*
X42437Y-19616D01*
X42437Y-19671D01*
X42499Y-19734D01*
X42834Y-19734D01*
X42834Y-19834D01*
X42499Y-19834D01*
X42437Y-19896D01*
X42437Y-19952D01*
X42475Y-20044D01*
X42545Y-20114D01*
X42637Y-20152D01*
X42736Y-20152D01*
X42771Y-20152D01*
X42834Y-20089D01*
X42834Y-20845D01*
X42683Y-20845D01*
X42621Y-20871D01*
X42574Y-20918D01*
X42548Y-20980D01*
X42548Y-21047D01*
X42548Y-21402D01*
X40994Y-21402D01*
X40994Y-21292D01*
X40969Y-21230D01*
X40921Y-21183D01*
X40860Y-21157D01*
X40793Y-21157D01*
X40611Y-21157D01*
X40783Y-21107D01*
X40950Y-20971D01*
X41053Y-20782D01*
X41059Y-20753D01*
X41011Y-20668D01*
X40443Y-20668D01*
X40443Y-20675D01*
X40343Y-20675D01*
X40343Y-20668D01*
X39775Y-20668D01*
X39727Y-20753D01*
X39733Y-20782D01*
X39836Y-20971D01*
X40004Y-21107D01*
X40176Y-21157D01*
X39927Y-21157D01*
X39865Y-21183D01*
X39818Y-21230D01*
X39792Y-21292D01*
X39792Y-21359D01*
X39792Y-21959D01*
X39818Y-22021D01*
X39865Y-22068D01*
X39927Y-22094D01*
X39994Y-22094D01*
X40149Y-22094D01*
X40004Y-22136D01*
X39836Y-22272D01*
X39733Y-22461D01*
X39727Y-22490D01*
X39775Y-22575D01*
X40343Y-22575D01*
X40343Y-22568D01*
X40443Y-22568D01*
X40443Y-22575D01*
X41011Y-22575D01*
X41059Y-22490D01*
X41053Y-22461D01*
X40950Y-22272D01*
X40783Y-22136D01*
X40638Y-22094D01*
X40860Y-22094D01*
X40921Y-22068D01*
X40969Y-22021D01*
X40994Y-21959D01*
X40994Y-21892D01*
X40994Y-21849D01*
X42548Y-21849D01*
X42548Y-22130D01*
X42569Y-22180D01*
X42569Y-22548D01*
X42577Y-22548D01*
X42577Y-22648D01*
X42569Y-22648D01*
X42569Y-22656D01*
X42469Y-22656D01*
X42469Y-22648D01*
X42469Y-22548D01*
X42469Y-22095D01*
X42406Y-22033D01*
X42331Y-22033D01*
X42239Y-22071D01*
X42169Y-22141D01*
X42131Y-22233D01*
X42131Y-22333D01*
X42131Y-22485D01*
X42193Y-22548D01*
X42469Y-22548D01*
X42469Y-22648D01*
X42193Y-22648D01*
X42131Y-22710D01*
X42131Y-22863D01*
X42131Y-22963D01*
X42169Y-23055D01*
X42239Y-23125D01*
X42247Y-23128D01*
X42238Y-23150D01*
X42238Y-23249D01*
X42238Y-23312D01*
X42300Y-23375D01*
X42563Y-23375D01*
X42563Y-23367D01*
X42663Y-23367D01*
X42663Y-23375D01*
X42671Y-23375D01*
X42671Y-23475D01*
X42663Y-23475D01*
X42663Y-23837D01*
X42725Y-23900D01*
X42731Y-23900D01*
X42731Y-24464D01*
X42563Y-24631D01*
X42563Y-23837D01*
X42563Y-23475D01*
X42300Y-23475D01*
X42238Y-23537D01*
X42238Y-23600D01*
X42238Y-23699D01*
X42276Y-23791D01*
X42346Y-23862D01*
X42438Y-23900D01*
X42500Y-23900D01*
X42563Y-23837D01*
X42563Y-24631D01*
X42464Y-24731D01*
X42415Y-24803D01*
X42413Y-24817D01*
X42398Y-24888D01*
X42398Y-24888D01*
X42398Y-26963D01*
X41298Y-26963D01*
X41298Y-24892D01*
X41298Y-24792D01*
X41298Y-24521D01*
X41298Y-24296D01*
X41298Y-24026D01*
X41298Y-23926D01*
X41259Y-23834D01*
X41189Y-23764D01*
X41097Y-23726D01*
X41059Y-23726D01*
X41059Y-22761D01*
X41011Y-22675D01*
X40443Y-22675D01*
X40443Y-23175D01*
X40576Y-23175D01*
X40783Y-23114D01*
X40950Y-22979D01*
X41053Y-22790D01*
X41059Y-22761D01*
X41059Y-23726D01*
X40860Y-23726D01*
X40798Y-23788D01*
X40798Y-24359D01*
X41235Y-24359D01*
X41298Y-24296D01*
X41298Y-24521D01*
X41235Y-24459D01*
X40798Y-24459D01*
X40798Y-25029D01*
X40860Y-25092D01*
X41097Y-25092D01*
X41189Y-25054D01*
X41259Y-24984D01*
X41298Y-24892D01*
X41298Y-26963D01*
X41216Y-26963D01*
X41216Y-26253D01*
X41216Y-26186D01*
X41216Y-25320D01*
X41190Y-25259D01*
X41143Y-25211D01*
X41081Y-25186D01*
X41014Y-25186D01*
X40698Y-25186D01*
X40698Y-25029D01*
X40698Y-24459D01*
X40698Y-24359D01*
X40698Y-23788D01*
X40635Y-23726D01*
X40398Y-23726D01*
X40343Y-23749D01*
X40343Y-23175D01*
X40343Y-22675D01*
X39775Y-22675D01*
X39727Y-22761D01*
X39733Y-22790D01*
X39836Y-22979D01*
X40004Y-23114D01*
X40210Y-23175D01*
X40343Y-23175D01*
X40343Y-23749D01*
X40306Y-23764D01*
X40236Y-23834D01*
X40198Y-23926D01*
X40198Y-24026D01*
X40198Y-24296D01*
X40260Y-24359D01*
X40698Y-24359D01*
X40698Y-24459D01*
X40260Y-24459D01*
X40198Y-24521D01*
X40198Y-24792D01*
X40198Y-24892D01*
X40236Y-24984D01*
X40306Y-25054D01*
X40398Y-25092D01*
X40635Y-25092D01*
X40698Y-25029D01*
X40698Y-25186D01*
X40414Y-25186D01*
X40352Y-25211D01*
X40305Y-25259D01*
X40279Y-25320D01*
X40279Y-25387D01*
X40279Y-26253D01*
X40305Y-26315D01*
X40352Y-26362D01*
X40414Y-26388D01*
X40481Y-26388D01*
X41081Y-26388D01*
X41143Y-26362D01*
X41190Y-26315D01*
X41216Y-26253D01*
X41216Y-26963D01*
X40393Y-26963D01*
X40393Y-26963D01*
X40308Y-26980D01*
X40284Y-26996D01*
X40236Y-27029D01*
X40236Y-27029D01*
X39859Y-27405D01*
X39811Y-27477D01*
X39808Y-27492D01*
X39794Y-27563D01*
X39794Y-27563D01*
X39794Y-31718D01*
X39794Y-31718D01*
X39808Y-31789D01*
X39811Y-31803D01*
X39859Y-31876D01*
X40149Y-32165D01*
X40149Y-32165D01*
X40221Y-32214D01*
X40273Y-32224D01*
X40273Y-32266D01*
X40298Y-32328D01*
X40345Y-32375D01*
X40407Y-32400D01*
X40474Y-32400D01*
X40724Y-32400D01*
X40786Y-32375D01*
X40833Y-32328D01*
X40859Y-32266D01*
X40859Y-32199D01*
X40859Y-31887D01*
X40873Y-31900D01*
X40873Y-32266D01*
X40898Y-32328D01*
X40945Y-32375D01*
X41007Y-32400D01*
X41074Y-32400D01*
X41324Y-32400D01*
X41386Y-32375D01*
X41433Y-32328D01*
X41459Y-32266D01*
X41459Y-32199D01*
X41459Y-32159D01*
X41581Y-32038D01*
X41597Y-32054D01*
X41659Y-32080D01*
X41726Y-32080D01*
X41962Y-32080D01*
X42024Y-32054D01*
X42071Y-32007D01*
X42097Y-31945D01*
X42097Y-31878D01*
X42097Y-31484D01*
X42071Y-31422D01*
X42024Y-31375D01*
X41962Y-31350D01*
X41895Y-31350D01*
X41804Y-31350D01*
X41804Y-31129D01*
X41804Y-31030D01*
X41804Y-30995D01*
X41804Y-30770D01*
X41804Y-30735D01*
X41804Y-30636D01*
X41765Y-30544D01*
X41695Y-30474D01*
X41603Y-30436D01*
X41548Y-30436D01*
X41486Y-30498D01*
X41486Y-30833D01*
X41741Y-30833D01*
X41804Y-30770D01*
X41804Y-30995D01*
X41741Y-30933D01*
X41486Y-30933D01*
X41486Y-31267D01*
X41548Y-31330D01*
X41603Y-31330D01*
X41695Y-31292D01*
X41765Y-31221D01*
X41804Y-31129D01*
X41804Y-31350D01*
X41659Y-31350D01*
X41597Y-31375D01*
X41550Y-31422D01*
X41524Y-31484D01*
X41524Y-31498D01*
X41473Y-31508D01*
X41401Y-31557D01*
X41386Y-31580D01*
X41386Y-31267D01*
X41386Y-30933D01*
X41386Y-30833D01*
X41386Y-30498D01*
X41323Y-30436D01*
X41268Y-30436D01*
X41176Y-30474D01*
X41106Y-30544D01*
X41068Y-30636D01*
X41068Y-30735D01*
X41068Y-30770D01*
X41130Y-30833D01*
X41386Y-30833D01*
X41386Y-30933D01*
X41130Y-30933D01*
X41068Y-30995D01*
X41068Y-31030D01*
X41068Y-31129D01*
X41106Y-31221D01*
X41176Y-31292D01*
X41268Y-31330D01*
X41323Y-31330D01*
X41386Y-31267D01*
X41386Y-31580D01*
X41354Y-31627D01*
X41324Y-31614D01*
X41257Y-31614D01*
X41218Y-31614D01*
X40926Y-31322D01*
X40926Y-31321D01*
X40926Y-31137D01*
X40856Y-30967D01*
X40726Y-30836D01*
X40556Y-30765D01*
X40371Y-30765D01*
X40240Y-30819D01*
X40240Y-27655D01*
X40279Y-27616D01*
X40279Y-28222D01*
X40305Y-28284D01*
X40352Y-28331D01*
X40414Y-28357D01*
X40481Y-28357D01*
X41081Y-28357D01*
X41141Y-28332D01*
X42927Y-30118D01*
X42927Y-30118D01*
X42927Y-30118D01*
X42999Y-30166D01*
X42999Y-30166D01*
X43013Y-30169D01*
X43062Y-30179D01*
X43069Y-30196D01*
X43062Y-30214D01*
X43013Y-30224D01*
X42999Y-30227D01*
X42927Y-30275D01*
X42927Y-30275D01*
X42885Y-30316D01*
X42437Y-30316D01*
X42402Y-30316D01*
X41405Y-29319D01*
X41405Y-29133D01*
X41388Y-29048D01*
X41339Y-28976D01*
X41267Y-28927D01*
X41216Y-28917D01*
X41216Y-28667D01*
X41190Y-28605D01*
X41143Y-28558D01*
X41081Y-28532D01*
X41014Y-28532D01*
X40414Y-28532D01*
X40352Y-28558D01*
X40305Y-28605D01*
X40279Y-28667D01*
X40279Y-28734D01*
X40279Y-29600D01*
X40305Y-29662D01*
X40352Y-29709D01*
X40414Y-29734D01*
X40481Y-29734D01*
X41081Y-29734D01*
X41143Y-29709D01*
X41153Y-29699D01*
X41990Y-30536D01*
X41972Y-30543D01*
X41925Y-30590D01*
X41899Y-30652D01*
X41899Y-30719D01*
X41899Y-31113D01*
X41925Y-31175D01*
X41972Y-31222D01*
X42034Y-31248D01*
X42101Y-31248D01*
X42337Y-31248D01*
X42399Y-31222D01*
X42446Y-31175D01*
X42472Y-31113D01*
X42472Y-31099D01*
X42523Y-31089D01*
X42595Y-31041D01*
X42644Y-30968D01*
X42661Y-30883D01*
X42661Y-30763D01*
X42978Y-30763D01*
X42978Y-30763D01*
X42978Y-30763D01*
X43049Y-30749D01*
X43050Y-30748D01*
X43050Y-30781D01*
X43050Y-31095D01*
X43069Y-31141D01*
X43050Y-31187D01*
X43050Y-31254D01*
X43050Y-31568D01*
X43069Y-31614D01*
X43050Y-31659D01*
X43050Y-31726D01*
X43050Y-32040D01*
X43069Y-32086D01*
X43060Y-32110D01*
X42930Y-32056D01*
X42746Y-32056D01*
X42575Y-32127D01*
X42445Y-32257D01*
X42374Y-32427D01*
X42374Y-32611D01*
X42445Y-32782D01*
X42575Y-32912D01*
X42614Y-32929D01*
X42614Y-33028D01*
X42523Y-32967D01*
X42344Y-32931D01*
X42055Y-32931D01*
X41876Y-32967D01*
X41724Y-33068D01*
X41622Y-33220D01*
X41587Y-33400D01*
X41622Y-33579D01*
X41724Y-33731D01*
X41876Y-33832D01*
X42055Y-33868D01*
X42344Y-33868D01*
X42523Y-33832D01*
X42614Y-33771D01*
X42614Y-33931D01*
X42599Y-33931D01*
X41733Y-33931D01*
X41671Y-33957D01*
X41624Y-34004D01*
X41598Y-34066D01*
X41598Y-34133D01*
X41598Y-34733D01*
X41624Y-34795D01*
X41666Y-34836D01*
X41601Y-34836D01*
X41431Y-34907D01*
X41310Y-35027D01*
X41081Y-34798D01*
X40687Y-34634D01*
X40259Y-34634D01*
X39864Y-34797D01*
X39616Y-35045D01*
X39616Y-16529D01*
X39863Y-16776D01*
X40229Y-16928D01*
X40205Y-16944D01*
X40147Y-17030D01*
X40127Y-17132D01*
X40127Y-17142D01*
X39927Y-17142D01*
X39865Y-17167D01*
X39818Y-17215D01*
X39792Y-17276D01*
X39792Y-17343D01*
X39792Y-17943D01*
X39818Y-18005D01*
X39865Y-18052D01*
X39927Y-18078D01*
X39994Y-18078D01*
X40149Y-18078D01*
X40004Y-18121D01*
X39836Y-18256D01*
X39733Y-18445D01*
X39727Y-18475D01*
X39775Y-18560D01*
X40343Y-18560D01*
X40343Y-18552D01*
X40443Y-18552D01*
X40443Y-18560D01*
X41011Y-18560D01*
X41059Y-18475D01*
X41053Y-18445D01*
X40950Y-18256D01*
X40783Y-18121D01*
X40638Y-18078D01*
X40860Y-18078D01*
X40921Y-18052D01*
X40969Y-18005D01*
X40994Y-17943D01*
X40994Y-17876D01*
X40994Y-17399D01*
X42249Y-17399D01*
X42351Y-17379D01*
X42351Y-17379D01*
X42437Y-17321D01*
X42541Y-17217D01*
X42557Y-17254D01*
X42604Y-17301D01*
X42666Y-17327D01*
X42733Y-17327D01*
X43533Y-17327D01*
X43595Y-17301D01*
X43633Y-17263D01*
X43697Y-17275D01*
X43729Y-17275D01*
X43663Y-17342D01*
X43625Y-17434D01*
X43625Y-17496D01*
X43687Y-17559D01*
X44050Y-17559D01*
X44050Y-17551D01*
X44150Y-17551D01*
X44150Y-17559D01*
X44512Y-17559D01*
X44575Y-17496D01*
X44575Y-17434D01*
X44536Y-17342D01*
X44470Y-17275D01*
X44502Y-17275D01*
X44604Y-17255D01*
X44604Y-17255D01*
X44666Y-17213D01*
X44704Y-17251D01*
X44766Y-17277D01*
X44833Y-17277D01*
X46233Y-17277D01*
X46295Y-17251D01*
X46342Y-17204D01*
X46368Y-17142D01*
X46368Y-17076D01*
X46368Y-16376D01*
X46342Y-16314D01*
X46295Y-16266D01*
X46233Y-16241D01*
X46166Y-16241D01*
X44766Y-16241D01*
X44704Y-16266D01*
X44657Y-16314D01*
X44631Y-16376D01*
X44631Y-16442D01*
X44631Y-16492D01*
X44622Y-16492D01*
X44520Y-16513D01*
X44434Y-16570D01*
X44376Y-16657D01*
X44364Y-16718D01*
X44358Y-16716D01*
X44291Y-16716D01*
X43902Y-16716D01*
X43886Y-16691D01*
X43865Y-16670D01*
X43779Y-16613D01*
X43677Y-16592D01*
X43668Y-16592D01*
X43668Y-16526D01*
X43642Y-16464D01*
X43595Y-16416D01*
X43533Y-16391D01*
X43466Y-16391D01*
X42666Y-16391D01*
X42604Y-16416D01*
X42557Y-16464D01*
X42531Y-16526D01*
X42531Y-16592D01*
X42531Y-16592D01*
X42522Y-16592D01*
X42420Y-16613D01*
X42334Y-16670D01*
X42138Y-16866D01*
X40864Y-16866D01*
X41080Y-16777D01*
X41382Y-16475D01*
X41546Y-16080D01*
X41546Y-15653D01*
X41383Y-15258D01*
X41135Y-15010D01*
X50596Y-15010D01*
X50349Y-15256D01*
X50186Y-15651D01*
X50185Y-16078D01*
X50348Y-16473D01*
X50650Y-16776D01*
X51045Y-16939D01*
X51472Y-16940D01*
X51867Y-16777D01*
X52115Y-16529D01*
X52115Y-29479D01*
X52043Y-29304D01*
X51896Y-29157D01*
X51768Y-29104D01*
X51768Y-27666D01*
X51768Y-27599D01*
X51768Y-26733D01*
X51766Y-26728D01*
X51766Y-19344D01*
X51766Y-19074D01*
X51760Y-19045D01*
X51657Y-18855D01*
X51489Y-18720D01*
X51344Y-18677D01*
X51566Y-18677D01*
X51628Y-18651D01*
X51675Y-18604D01*
X51701Y-18542D01*
X51701Y-18476D01*
X51701Y-17876D01*
X51675Y-17814D01*
X51628Y-17766D01*
X51566Y-17741D01*
X51499Y-17741D01*
X50633Y-17741D01*
X50571Y-17766D01*
X50524Y-17814D01*
X50498Y-17876D01*
X50498Y-17942D01*
X50498Y-17986D01*
X49867Y-17986D01*
X49867Y-17644D01*
X49842Y-17582D01*
X49794Y-17535D01*
X49732Y-17509D01*
X49666Y-17509D01*
X48957Y-17509D01*
X48895Y-17535D01*
X48847Y-17582D01*
X48822Y-17644D01*
X48822Y-17711D01*
X48822Y-17986D01*
X48698Y-17986D01*
X48698Y-16800D01*
X48698Y-16800D01*
X48698Y-16800D01*
X48684Y-16729D01*
X48681Y-16715D01*
X48681Y-16715D01*
X48632Y-16642D01*
X48632Y-16642D01*
X48541Y-16551D01*
X48469Y-16503D01*
X48455Y-16500D01*
X48418Y-16493D01*
X48418Y-16401D01*
X48392Y-16339D01*
X48345Y-16291D01*
X48283Y-16266D01*
X48216Y-16266D01*
X47866Y-16266D01*
X47804Y-16291D01*
X47757Y-16339D01*
X47731Y-16401D01*
X47731Y-16467D01*
X47731Y-17017D01*
X47757Y-17079D01*
X47804Y-17126D01*
X47866Y-17152D01*
X47933Y-17152D01*
X48251Y-17152D01*
X48251Y-18209D01*
X48251Y-19472D01*
X48204Y-19491D01*
X48157Y-19539D01*
X48131Y-19601D01*
X48131Y-19667D01*
X48131Y-19711D01*
X48119Y-19703D01*
X48105Y-19700D01*
X48068Y-19693D01*
X48068Y-19601D01*
X48042Y-19539D01*
X47995Y-19491D01*
X47933Y-19466D01*
X47866Y-19466D01*
X47516Y-19466D01*
X47454Y-19491D01*
X47407Y-19539D01*
X47381Y-19601D01*
X47381Y-19667D01*
X47381Y-19686D01*
X47218Y-19686D01*
X47218Y-19601D01*
X47192Y-19539D01*
X47145Y-19491D01*
X47083Y-19466D01*
X47016Y-19466D01*
X46666Y-19466D01*
X46648Y-19473D01*
X46403Y-19228D01*
X46331Y-19180D01*
X46317Y-19177D01*
X46246Y-19163D01*
X46246Y-19163D01*
X45637Y-19163D01*
X45621Y-19124D01*
X45542Y-19044D01*
X45601Y-19032D01*
X45688Y-18975D01*
X45746Y-18888D01*
X45766Y-18786D01*
X45766Y-18777D01*
X46233Y-18777D01*
X46295Y-18751D01*
X46342Y-18704D01*
X46368Y-18642D01*
X46368Y-18576D01*
X46368Y-18525D01*
X46377Y-18525D01*
X46479Y-18505D01*
X46565Y-18447D01*
X46616Y-18372D01*
X46932Y-18056D01*
X46932Y-18774D01*
X46957Y-18836D01*
X47005Y-18883D01*
X47067Y-18909D01*
X47133Y-18909D01*
X47842Y-18909D01*
X47904Y-18883D01*
X47952Y-18836D01*
X47977Y-18774D01*
X47977Y-18707D01*
X47977Y-17644D01*
X47952Y-17582D01*
X47904Y-17535D01*
X47842Y-17509D01*
X47776Y-17509D01*
X47721Y-17509D01*
X47721Y-17500D01*
X47701Y-17398D01*
X47701Y-17398D01*
X47672Y-17355D01*
X47643Y-17312D01*
X47643Y-17312D01*
X47591Y-17260D01*
X47591Y-17128D01*
X47595Y-17126D01*
X47642Y-17079D01*
X47668Y-17017D01*
X47668Y-16951D01*
X47668Y-16401D01*
X47642Y-16339D01*
X47595Y-16291D01*
X47533Y-16266D01*
X47466Y-16266D01*
X47116Y-16266D01*
X47054Y-16291D01*
X47007Y-16339D01*
X46981Y-16401D01*
X46981Y-16467D01*
X46981Y-17017D01*
X47007Y-17079D01*
X47054Y-17126D01*
X47058Y-17128D01*
X47058Y-17178D01*
X47052Y-17182D01*
X46365Y-17869D01*
X46342Y-17814D01*
X46295Y-17766D01*
X46233Y-17741D01*
X46166Y-17741D01*
X44766Y-17741D01*
X44704Y-17766D01*
X44657Y-17814D01*
X44631Y-17876D01*
X44631Y-17942D01*
X44631Y-18642D01*
X44648Y-18682D01*
X44575Y-18755D01*
X44575Y-17784D01*
X44575Y-17721D01*
X44512Y-17659D01*
X44150Y-17659D01*
X44150Y-17921D01*
X44212Y-17984D01*
X44275Y-17984D01*
X44374Y-17984D01*
X44466Y-17946D01*
X44536Y-17876D01*
X44575Y-17784D01*
X44575Y-18755D01*
X44411Y-18918D01*
X44353Y-19005D01*
X44333Y-19107D01*
X44333Y-19119D01*
X44279Y-19141D01*
X44278Y-19142D01*
X44050Y-19142D01*
X44050Y-17921D01*
X44050Y-17659D01*
X43687Y-17659D01*
X43670Y-17676D01*
X43641Y-17647D01*
X43549Y-17609D01*
X43450Y-17609D01*
X43212Y-17609D01*
X43150Y-17671D01*
X43150Y-18109D01*
X43687Y-18109D01*
X43750Y-18046D01*
X43750Y-17953D01*
X43825Y-17984D01*
X43924Y-17984D01*
X43987Y-17984D01*
X44050Y-17921D01*
X44050Y-19142D01*
X43993Y-19142D01*
X43946Y-19123D01*
X43879Y-19123D01*
X43750Y-19123D01*
X43750Y-18509D01*
X43750Y-18271D01*
X43687Y-18209D01*
X43150Y-18209D01*
X43150Y-18646D01*
X43212Y-18709D01*
X43450Y-18709D01*
X43549Y-18709D01*
X43641Y-18671D01*
X43711Y-18601D01*
X43750Y-18509D01*
X43750Y-19123D01*
X43485Y-19123D01*
X43423Y-19148D01*
X43376Y-19196D01*
X43350Y-19258D01*
X43350Y-19324D01*
X43350Y-19560D01*
X43376Y-19622D01*
X43423Y-19669D01*
X43485Y-19695D01*
X43552Y-19695D01*
X43946Y-19695D01*
X43993Y-19675D01*
X44229Y-19675D01*
X44163Y-19742D01*
X44125Y-19834D01*
X44125Y-19896D01*
X44187Y-19959D01*
X44550Y-19959D01*
X44550Y-19951D01*
X44650Y-19951D01*
X44650Y-19959D01*
X45012Y-19959D01*
X45075Y-19896D01*
X45075Y-19834D01*
X45069Y-19822D01*
X45136Y-19850D01*
X45320Y-19850D01*
X45490Y-19779D01*
X45621Y-19649D01*
X45637Y-19610D01*
X45700Y-19610D01*
X45700Y-19684D01*
X45700Y-19796D01*
X45762Y-19859D01*
X46075Y-19859D01*
X46075Y-19851D01*
X46175Y-19851D01*
X46175Y-19859D01*
X46182Y-19859D01*
X46182Y-19959D01*
X46175Y-19959D01*
X46175Y-20371D01*
X46237Y-20434D01*
X46349Y-20434D01*
X46441Y-20396D01*
X46511Y-20326D01*
X46544Y-20247D01*
X46557Y-20279D01*
X46604Y-20326D01*
X46666Y-20352D01*
X46733Y-20352D01*
X47083Y-20352D01*
X47145Y-20326D01*
X47192Y-20279D01*
X47218Y-20217D01*
X47218Y-20151D01*
X47218Y-20132D01*
X47381Y-20132D01*
X47381Y-20217D01*
X47407Y-20279D01*
X47454Y-20326D01*
X47516Y-20352D01*
X47583Y-20352D01*
X47876Y-20352D01*
X47876Y-20663D01*
X47839Y-20701D01*
X47813Y-20763D01*
X47813Y-20829D01*
X47813Y-21223D01*
X47839Y-21285D01*
X47886Y-21332D01*
X47948Y-21358D01*
X48015Y-21358D01*
X48251Y-21358D01*
X48313Y-21332D01*
X48360Y-21285D01*
X48386Y-21223D01*
X48386Y-21157D01*
X48386Y-20763D01*
X48360Y-20701D01*
X48323Y-20663D01*
X48323Y-20352D01*
X48333Y-20352D01*
X48683Y-20352D01*
X48745Y-20326D01*
X48792Y-20279D01*
X48818Y-20217D01*
X48818Y-20151D01*
X48818Y-19601D01*
X48792Y-19539D01*
X48745Y-19491D01*
X48698Y-19472D01*
X48698Y-18432D01*
X48822Y-18432D01*
X48822Y-18774D01*
X48847Y-18836D01*
X48895Y-18883D01*
X48957Y-18909D01*
X49023Y-18909D01*
X49732Y-18909D01*
X49794Y-18883D01*
X49842Y-18836D01*
X49867Y-18774D01*
X49867Y-18707D01*
X49867Y-18432D01*
X50498Y-18432D01*
X50498Y-18542D01*
X50524Y-18604D01*
X50571Y-18651D01*
X50633Y-18677D01*
X50700Y-18677D01*
X50855Y-18677D01*
X50710Y-18720D01*
X50542Y-18855D01*
X50439Y-19045D01*
X50433Y-19074D01*
X50482Y-19159D01*
X51050Y-19159D01*
X51050Y-19151D01*
X51150Y-19151D01*
X51150Y-19159D01*
X51717Y-19159D01*
X51766Y-19074D01*
X51766Y-19344D01*
X51717Y-19259D01*
X51150Y-19259D01*
X51150Y-19759D01*
X51283Y-19759D01*
X51489Y-19698D01*
X51657Y-19563D01*
X51760Y-19373D01*
X51766Y-19344D01*
X51766Y-26728D01*
X51742Y-26671D01*
X51695Y-26624D01*
X51633Y-26598D01*
X51566Y-26598D01*
X51050Y-26598D01*
X51050Y-19759D01*
X51050Y-19259D01*
X50482Y-19259D01*
X50433Y-19344D01*
X50439Y-19373D01*
X50542Y-19563D01*
X50710Y-19698D01*
X50917Y-19759D01*
X51050Y-19759D01*
X51050Y-26598D01*
X50966Y-26598D01*
X50904Y-26624D01*
X50857Y-26671D01*
X50831Y-26733D01*
X50831Y-26800D01*
X50831Y-27666D01*
X50857Y-27728D01*
X50904Y-27775D01*
X50966Y-27801D01*
X51033Y-27801D01*
X51633Y-27801D01*
X51695Y-27775D01*
X51742Y-27728D01*
X51768Y-27666D01*
X51768Y-29104D01*
X51704Y-29077D01*
X51496Y-29077D01*
X51304Y-29156D01*
X51157Y-29303D01*
X51122Y-29387D01*
X51122Y-28496D01*
X51043Y-28304D01*
X50896Y-28157D01*
X50704Y-28077D01*
X50672Y-28077D01*
X50672Y-22638D01*
X50601Y-22468D01*
X50475Y-22341D01*
X50475Y-21384D01*
X50475Y-21321D01*
X50475Y-21096D01*
X50475Y-21034D01*
X50436Y-20942D01*
X50366Y-20872D01*
X50274Y-20834D01*
X50175Y-20834D01*
X50112Y-20834D01*
X50050Y-20896D01*
X50050Y-21159D01*
X50412Y-21159D01*
X50475Y-21096D01*
X50475Y-21321D01*
X50412Y-21259D01*
X50050Y-21259D01*
X50050Y-21267D01*
X49950Y-21267D01*
X49950Y-21259D01*
X49950Y-21159D01*
X49950Y-20896D01*
X49887Y-20834D01*
X49824Y-20834D01*
X49725Y-20834D01*
X49633Y-20872D01*
X49600Y-20905D01*
X49566Y-20872D01*
X49474Y-20834D01*
X49375Y-20834D01*
X49312Y-20834D01*
X49250Y-20896D01*
X49250Y-21159D01*
X49587Y-21159D01*
X49612Y-21159D01*
X49950Y-21159D01*
X49950Y-21259D01*
X49612Y-21259D01*
X49587Y-21259D01*
X49250Y-21259D01*
X49250Y-21267D01*
X49150Y-21267D01*
X49150Y-21259D01*
X49150Y-21159D01*
X49150Y-20896D01*
X49087Y-20834D01*
X49024Y-20834D01*
X48925Y-20834D01*
X48833Y-20872D01*
X48763Y-20942D01*
X48725Y-21034D01*
X48725Y-21096D01*
X48787Y-21159D01*
X49150Y-21159D01*
X49150Y-21259D01*
X48787Y-21259D01*
X48725Y-21321D01*
X48725Y-21384D01*
X48763Y-21476D01*
X48833Y-21546D01*
X48863Y-21558D01*
X48834Y-21587D01*
X48769Y-21600D01*
X48761Y-21602D01*
X48761Y-21595D01*
X48735Y-21533D01*
X48688Y-21485D01*
X48626Y-21460D01*
X48559Y-21460D01*
X48323Y-21460D01*
X48261Y-21485D01*
X48214Y-21533D01*
X48188Y-21595D01*
X48188Y-21661D01*
X48188Y-22055D01*
X48214Y-22117D01*
X48261Y-22164D01*
X48323Y-22190D01*
X48359Y-22190D01*
X48359Y-23761D01*
X48320Y-23777D01*
X48190Y-23907D01*
X48119Y-24077D01*
X48119Y-24262D01*
X48189Y-24432D01*
X48320Y-24562D01*
X48490Y-24633D01*
X48674Y-24633D01*
X48845Y-24563D01*
X48975Y-24433D01*
X49046Y-24262D01*
X49046Y-24078D01*
X48976Y-23908D01*
X48845Y-23777D01*
X48806Y-23761D01*
X48806Y-22137D01*
X48806Y-22137D01*
X48874Y-22091D01*
X48886Y-22079D01*
X48941Y-22102D01*
X49008Y-22102D01*
X49458Y-22102D01*
X49520Y-22076D01*
X49564Y-22032D01*
X49635Y-22032D01*
X49679Y-22076D01*
X49741Y-22102D01*
X49808Y-22102D01*
X50258Y-22102D01*
X50320Y-22076D01*
X50367Y-22029D01*
X50393Y-21967D01*
X50393Y-21901D01*
X50393Y-21651D01*
X50367Y-21589D01*
X50336Y-21558D01*
X50366Y-21546D01*
X50436Y-21476D01*
X50475Y-21384D01*
X50475Y-22341D01*
X50471Y-22338D01*
X50301Y-22267D01*
X50117Y-22267D01*
X49946Y-22337D01*
X49816Y-22467D01*
X49745Y-22638D01*
X49745Y-22822D01*
X49761Y-22862D01*
X49503Y-23120D01*
X49454Y-23193D01*
X49451Y-23207D01*
X49437Y-23278D01*
X49437Y-23278D01*
X49437Y-23903D01*
X49398Y-23919D01*
X49268Y-24049D01*
X49197Y-24219D01*
X49197Y-24404D01*
X49267Y-24574D01*
X49398Y-24705D01*
X49568Y-24775D01*
X49752Y-24775D01*
X49923Y-24705D01*
X50053Y-24575D01*
X50124Y-24405D01*
X50124Y-24220D01*
X50054Y-24050D01*
X49923Y-23919D01*
X49884Y-23903D01*
X49884Y-23370D01*
X50077Y-23177D01*
X50116Y-23193D01*
X50300Y-23194D01*
X50471Y-23123D01*
X50601Y-22993D01*
X50672Y-22823D01*
X50672Y-22638D01*
X50672Y-28077D01*
X50496Y-28077D01*
X50304Y-28156D01*
X50157Y-28303D01*
X50077Y-28495D01*
X50077Y-28703D01*
X50156Y-28895D01*
X50303Y-29042D01*
X50495Y-29122D01*
X50703Y-29122D01*
X50895Y-29043D01*
X51042Y-28896D01*
X51122Y-28704D01*
X51122Y-28496D01*
X51122Y-29387D01*
X51077Y-29495D01*
X51077Y-29703D01*
X51156Y-29895D01*
X51303Y-30042D01*
X51495Y-30122D01*
X51703Y-30122D01*
X51895Y-30043D01*
X52042Y-29896D01*
X52115Y-29721D01*
X52115Y-35045D01*
X52115Y-35045D01*
G37*
G54D34*
X52115Y-35045D02*
X51869Y-34798D01*
X51474Y-34634D01*
X51047Y-34634D01*
X50652Y-34797D01*
X50349Y-35099D01*
X50186Y-35494D01*
X50185Y-35921D01*
X50348Y-36316D01*
X50596Y-36564D01*
X49393Y-36564D01*
X49393Y-35363D01*
X49393Y-35269D01*
X49331Y-35207D01*
X48750Y-35207D01*
X48750Y-35501D01*
X48813Y-35564D01*
X49094Y-35564D01*
X49193Y-35564D01*
X49285Y-35526D01*
X49355Y-35455D01*
X49393Y-35363D01*
X49393Y-36564D01*
X49025Y-36564D01*
X49025Y-36402D01*
X48999Y-36341D01*
X48952Y-36293D01*
X48890Y-36268D01*
X48823Y-36268D01*
X48650Y-36268D01*
X48650Y-35501D01*
X48650Y-35207D01*
X48070Y-35207D01*
X48007Y-35269D01*
X48007Y-35363D01*
X48045Y-35455D01*
X48116Y-35526D01*
X48208Y-35564D01*
X48307Y-35564D01*
X48588Y-35564D01*
X48650Y-35501D01*
X48650Y-36268D01*
X48116Y-36268D01*
X48055Y-36293D01*
X48007Y-36341D01*
X47982Y-36402D01*
X47982Y-36469D01*
X47982Y-36564D01*
X44379Y-36564D01*
X44379Y-36403D01*
X44353Y-36342D01*
X44306Y-36294D01*
X44244Y-36269D01*
X44177Y-36269D01*
X43470Y-36269D01*
X43409Y-36294D01*
X43361Y-36342D01*
X43336Y-36403D01*
X43336Y-36470D01*
X43336Y-36564D01*
X41135Y-36564D01*
X41382Y-36317D01*
X41546Y-35923D01*
X41546Y-35740D01*
X41600Y-35763D01*
X41785Y-35763D01*
X41886Y-35721D01*
X41893Y-35723D01*
X41893Y-35723D01*
X41893Y-35723D01*
X41935Y-35723D01*
X41979Y-35767D01*
X42041Y-35793D01*
X42086Y-35793D01*
X42083Y-35806D01*
X42041Y-35806D01*
X41979Y-35832D01*
X41932Y-35879D01*
X41906Y-35941D01*
X41906Y-36008D01*
X41906Y-36258D01*
X41932Y-36320D01*
X41979Y-36367D01*
X42041Y-36393D01*
X42108Y-36393D01*
X42558Y-36393D01*
X42620Y-36367D01*
X42667Y-36320D01*
X42693Y-36258D01*
X42693Y-36191D01*
X42693Y-36064D01*
X43773Y-36064D01*
X43773Y-36064D01*
X43773Y-36064D01*
X43844Y-36050D01*
X43858Y-36047D01*
X43858Y-36047D01*
X43931Y-35998D01*
X45389Y-34540D01*
X45389Y-34540D01*
X45389Y-34540D01*
X45437Y-34468D01*
X45454Y-34383D01*
X45454Y-30963D01*
X47817Y-30963D01*
X47817Y-30963D01*
X47817Y-30963D01*
X47888Y-30949D01*
X47902Y-30946D01*
X47902Y-30946D01*
X47974Y-30897D01*
X48089Y-30783D01*
X48089Y-31095D01*
X48108Y-31141D01*
X48089Y-31187D01*
X48089Y-31254D01*
X48089Y-31568D01*
X48108Y-31614D01*
X48089Y-31659D01*
X48089Y-31726D01*
X48089Y-32040D01*
X48108Y-32086D01*
X48089Y-32132D01*
X48089Y-32199D01*
X48089Y-32513D01*
X48108Y-32559D01*
X48089Y-32604D01*
X48089Y-32671D01*
X48089Y-32985D01*
X48108Y-33031D01*
X48089Y-33076D01*
X48089Y-33143D01*
X48089Y-33457D01*
X48108Y-33503D01*
X48089Y-33549D01*
X48089Y-33616D01*
X48089Y-33930D01*
X48108Y-33976D01*
X48089Y-34021D01*
X48089Y-34088D01*
X48089Y-34402D01*
X48108Y-34448D01*
X48089Y-34494D01*
X48089Y-34561D01*
X48089Y-34814D01*
X48045Y-34858D01*
X48007Y-34950D01*
X48007Y-35044D01*
X48070Y-35107D01*
X48650Y-35107D01*
X48650Y-35099D01*
X48750Y-35099D01*
X48750Y-35107D01*
X49331Y-35107D01*
X49393Y-35044D01*
X49393Y-34950D01*
X49355Y-34858D01*
X49312Y-34814D01*
X49312Y-34808D01*
X49312Y-34494D01*
X49292Y-34448D01*
X49312Y-34402D01*
X49312Y-34335D01*
X49312Y-34090D01*
X49613Y-34391D01*
X49613Y-34391D01*
X49686Y-34440D01*
X49771Y-34457D01*
X51275Y-34457D01*
X51275Y-34457D01*
X51275Y-34457D01*
X51281Y-34456D01*
X51382Y-34497D01*
X51566Y-34498D01*
X51736Y-34427D01*
X51867Y-34297D01*
X51938Y-34127D01*
X51938Y-33942D01*
X51867Y-33772D01*
X51737Y-33641D01*
X51567Y-33571D01*
X51382Y-33571D01*
X51212Y-33641D01*
X51202Y-33651D01*
X51212Y-33600D01*
X51208Y-33579D01*
X51208Y-30694D01*
X51198Y-30454D01*
X51126Y-30279D01*
X51025Y-30245D01*
X50954Y-30316D01*
X50954Y-30174D01*
X50920Y-30073D01*
X50694Y-29991D01*
X50454Y-30001D01*
X50279Y-30073D01*
X50245Y-30174D01*
X50600Y-30529D01*
X50954Y-30174D01*
X50954Y-30316D01*
X50670Y-30600D01*
X51025Y-30954D01*
X51126Y-30920D01*
X51208Y-30694D01*
X51208Y-33579D01*
X51201Y-33540D01*
X51201Y-32933D01*
X51201Y-32866D01*
X51201Y-32266D01*
X51175Y-32204D01*
X51128Y-32157D01*
X51066Y-32131D01*
X50999Y-32131D01*
X50954Y-32131D01*
X50954Y-31025D01*
X50600Y-30670D01*
X50245Y-31025D01*
X50279Y-31126D01*
X50505Y-31208D01*
X50745Y-31198D01*
X50920Y-31126D01*
X50954Y-31025D01*
X50954Y-32131D01*
X50133Y-32131D01*
X50071Y-32157D01*
X50024Y-32204D01*
X49998Y-32266D01*
X49998Y-32333D01*
X49998Y-32933D01*
X50024Y-32995D01*
X50071Y-33042D01*
X50133Y-33068D01*
X50200Y-33068D01*
X51066Y-33068D01*
X51128Y-33042D01*
X51175Y-32995D01*
X51201Y-32933D01*
X51201Y-33540D01*
X51177Y-33420D01*
X51075Y-33268D01*
X50923Y-33167D01*
X50744Y-33131D01*
X50455Y-33131D01*
X50276Y-33167D01*
X50124Y-33268D01*
X50022Y-33420D01*
X49987Y-33600D01*
X50022Y-33779D01*
X50124Y-33931D01*
X50243Y-34010D01*
X49864Y-34010D01*
X49435Y-33582D01*
X49363Y-33534D01*
X49349Y-33531D01*
X49300Y-33521D01*
X49292Y-33503D01*
X49312Y-33457D01*
X49312Y-33390D01*
X49312Y-33076D01*
X49293Y-33031D01*
X49312Y-32985D01*
X49312Y-32918D01*
X49312Y-32604D01*
X49293Y-32559D01*
X49312Y-32513D01*
X49312Y-32446D01*
X49312Y-32132D01*
X49292Y-32086D01*
X49312Y-32040D01*
X49312Y-31973D01*
X49312Y-31659D01*
X49293Y-31614D01*
X49312Y-31568D01*
X49312Y-31533D01*
X49437Y-31658D01*
X49607Y-31729D01*
X49791Y-31729D01*
X49962Y-31659D01*
X50092Y-31528D01*
X50163Y-31358D01*
X50163Y-31174D01*
X50093Y-31003D01*
X49962Y-30873D01*
X49923Y-30856D01*
X49923Y-30493D01*
X49958Y-30493D01*
X50002Y-30474D01*
X49991Y-30505D01*
X50001Y-30745D01*
X50073Y-30920D01*
X50174Y-30954D01*
X50529Y-30600D01*
X50174Y-30245D01*
X50093Y-30272D01*
X50093Y-30041D01*
X50067Y-29979D01*
X50036Y-29949D01*
X50066Y-29936D01*
X50136Y-29866D01*
X50175Y-29774D01*
X50175Y-29712D01*
X50175Y-29487D01*
X50175Y-29425D01*
X50136Y-29333D01*
X50066Y-29263D01*
X49974Y-29225D01*
X49875Y-29225D01*
X49812Y-29225D01*
X49750Y-29287D01*
X49750Y-29550D01*
X50112Y-29550D01*
X50175Y-29487D01*
X50175Y-29712D01*
X50112Y-29650D01*
X49750Y-29650D01*
X49750Y-29657D01*
X49650Y-29657D01*
X49650Y-29650D01*
X49642Y-29650D01*
X49642Y-29550D01*
X49650Y-29550D01*
X49650Y-29287D01*
X49587Y-29225D01*
X49524Y-29225D01*
X49425Y-29225D01*
X49333Y-29263D01*
X49263Y-29333D01*
X49225Y-29425D01*
X49225Y-29487D01*
X49287Y-29549D01*
X49225Y-29549D01*
X49225Y-29566D01*
X49193Y-29553D01*
X49094Y-29553D01*
X49026Y-29553D01*
X49026Y-29225D01*
X49026Y-29158D01*
X49026Y-28804D01*
X49000Y-28743D01*
X48953Y-28695D01*
X48891Y-28670D01*
X48824Y-28670D01*
X48120Y-28670D01*
X48120Y-28499D01*
X48094Y-28438D01*
X48047Y-28390D01*
X48011Y-28375D01*
X48011Y-22055D01*
X48011Y-21989D01*
X48011Y-21595D01*
X47985Y-21533D01*
X47938Y-21485D01*
X47876Y-21460D01*
X47809Y-21460D01*
X47573Y-21460D01*
X47511Y-21485D01*
X47464Y-21533D01*
X47438Y-21595D01*
X47438Y-21602D01*
X47430Y-21600D01*
X47365Y-21587D01*
X47336Y-21558D01*
X47366Y-21546D01*
X47436Y-21476D01*
X47475Y-21384D01*
X47475Y-21321D01*
X47475Y-21096D01*
X47475Y-21034D01*
X47436Y-20942D01*
X47366Y-20872D01*
X47274Y-20834D01*
X47175Y-20834D01*
X47112Y-20834D01*
X47050Y-20896D01*
X47050Y-21159D01*
X47412Y-21159D01*
X47475Y-21096D01*
X47475Y-21321D01*
X47412Y-21259D01*
X47050Y-21259D01*
X47050Y-21267D01*
X46950Y-21267D01*
X46950Y-21259D01*
X46950Y-21159D01*
X46950Y-20896D01*
X46887Y-20834D01*
X46824Y-20834D01*
X46725Y-20834D01*
X46633Y-20872D01*
X46600Y-20905D01*
X46566Y-20872D01*
X46474Y-20834D01*
X46375Y-20834D01*
X46312Y-20834D01*
X46250Y-20896D01*
X46250Y-21159D01*
X46587Y-21159D01*
X46612Y-21159D01*
X46950Y-21159D01*
X46950Y-21259D01*
X46612Y-21259D01*
X46587Y-21259D01*
X46250Y-21259D01*
X46250Y-21267D01*
X46150Y-21267D01*
X46150Y-21259D01*
X46150Y-21159D01*
X46150Y-20896D01*
X46087Y-20834D01*
X46075Y-20834D01*
X46075Y-20371D01*
X46075Y-19959D01*
X45762Y-19959D01*
X45700Y-20021D01*
X45700Y-20134D01*
X45700Y-20234D01*
X45738Y-20326D01*
X45808Y-20396D01*
X45900Y-20434D01*
X46012Y-20434D01*
X46075Y-20371D01*
X46075Y-20834D01*
X46024Y-20834D01*
X45925Y-20834D01*
X45833Y-20872D01*
X45763Y-20942D01*
X45725Y-21034D01*
X45725Y-21096D01*
X45787Y-21159D01*
X46150Y-21159D01*
X46150Y-21259D01*
X45787Y-21259D01*
X45725Y-21321D01*
X45725Y-21384D01*
X45763Y-21476D01*
X45833Y-21546D01*
X45863Y-21558D01*
X45832Y-21589D01*
X45806Y-21651D01*
X45806Y-21717D01*
X45806Y-21967D01*
X45832Y-22029D01*
X45879Y-22076D01*
X45941Y-22102D01*
X46008Y-22102D01*
X46458Y-22102D01*
X46520Y-22076D01*
X46564Y-22032D01*
X46635Y-22032D01*
X46679Y-22076D01*
X46741Y-22102D01*
X46808Y-22102D01*
X47258Y-22102D01*
X47320Y-22076D01*
X47352Y-22044D01*
X47374Y-22048D01*
X47374Y-22048D01*
X47374Y-22048D01*
X47438Y-22048D01*
X47438Y-22055D01*
X47464Y-22117D01*
X47511Y-22164D01*
X47573Y-22190D01*
X47640Y-22190D01*
X47876Y-22190D01*
X47938Y-22164D01*
X47985Y-22117D01*
X48011Y-22055D01*
X48011Y-28375D01*
X47985Y-28365D01*
X47918Y-28365D01*
X47790Y-28365D01*
X47790Y-25387D01*
X47790Y-25320D01*
X47790Y-24454D01*
X47765Y-24393D01*
X47718Y-24345D01*
X47656Y-24320D01*
X47589Y-24320D01*
X46989Y-24320D01*
X46927Y-24345D01*
X46880Y-24393D01*
X46854Y-24454D01*
X46854Y-24521D01*
X46854Y-25387D01*
X46880Y-25449D01*
X46927Y-25496D01*
X46989Y-25522D01*
X47056Y-25522D01*
X47656Y-25522D01*
X47718Y-25496D01*
X47765Y-25449D01*
X47790Y-25387D01*
X47790Y-28365D01*
X47744Y-28365D01*
X47700Y-28321D01*
X47608Y-28283D01*
X47514Y-28283D01*
X47451Y-28345D01*
X47451Y-28926D01*
X47459Y-28926D01*
X47459Y-29026D01*
X47451Y-29026D01*
X47451Y-29606D01*
X47514Y-29669D01*
X47608Y-29669D01*
X47700Y-29631D01*
X47744Y-29587D01*
X47985Y-29587D01*
X48047Y-29561D01*
X48094Y-29514D01*
X48120Y-29452D01*
X48120Y-29385D01*
X48120Y-29360D01*
X48183Y-29360D01*
X48891Y-29360D01*
X48953Y-29334D01*
X49000Y-29287D01*
X49026Y-29225D01*
X49026Y-29553D01*
X48813Y-29553D01*
X48750Y-29615D01*
X48750Y-29910D01*
X48758Y-29910D01*
X48758Y-30010D01*
X48750Y-30010D01*
X48750Y-30018D01*
X48650Y-30018D01*
X48650Y-30010D01*
X48650Y-29910D01*
X48650Y-29615D01*
X48588Y-29553D01*
X48307Y-29553D01*
X48208Y-29553D01*
X48116Y-29591D01*
X48045Y-29661D01*
X48007Y-29753D01*
X48007Y-29847D01*
X48070Y-29910D01*
X48650Y-29910D01*
X48650Y-30010D01*
X48070Y-30010D01*
X48007Y-30072D01*
X48007Y-30166D01*
X48034Y-30230D01*
X48014Y-30243D01*
X47966Y-30275D01*
X47966Y-30275D01*
X47724Y-30516D01*
X47351Y-30516D01*
X47351Y-29606D01*
X47351Y-29026D01*
X47344Y-29026D01*
X47344Y-28926D01*
X47351Y-28926D01*
X47351Y-28345D01*
X47289Y-28283D01*
X47195Y-28283D01*
X47103Y-28321D01*
X47059Y-28365D01*
X47013Y-28365D01*
X46699Y-28365D01*
X46653Y-28384D01*
X46607Y-28365D01*
X46540Y-28365D01*
X46226Y-28365D01*
X46180Y-28384D01*
X46135Y-28365D01*
X46068Y-28365D01*
X45754Y-28365D01*
X45708Y-28384D01*
X45663Y-28365D01*
X45596Y-28365D01*
X45303Y-28365D01*
X45259Y-28321D01*
X45167Y-28283D01*
X45073Y-28283D01*
X45010Y-28345D01*
X45010Y-28926D01*
X45018Y-28926D01*
X45018Y-29026D01*
X45010Y-29026D01*
X45010Y-29606D01*
X45073Y-29669D01*
X45167Y-29669D01*
X45259Y-29631D01*
X45303Y-29587D01*
X45349Y-29587D01*
X45663Y-29587D01*
X45708Y-29568D01*
X45754Y-29587D01*
X45821Y-29587D01*
X46135Y-29587D01*
X46180Y-29568D01*
X46226Y-29587D01*
X46293Y-29587D01*
X46607Y-29587D01*
X46653Y-29568D01*
X46699Y-29587D01*
X46766Y-29587D01*
X47059Y-29587D01*
X47103Y-29631D01*
X47195Y-29669D01*
X47289Y-29669D01*
X47351Y-29606D01*
X47351Y-30516D01*
X45323Y-30516D01*
X44394Y-29587D01*
X44443Y-29587D01*
X44618Y-29587D01*
X44662Y-29631D01*
X44754Y-29669D01*
X44848Y-29669D01*
X44910Y-29606D01*
X44910Y-29026D01*
X44903Y-29026D01*
X44903Y-28926D01*
X44910Y-28926D01*
X44910Y-28345D01*
X44848Y-28283D01*
X44754Y-28283D01*
X44662Y-28321D01*
X44618Y-28365D01*
X44376Y-28365D01*
X44314Y-28390D01*
X44267Y-28438D01*
X44241Y-28499D01*
X44241Y-28566D01*
X44241Y-28670D01*
X44177Y-28670D01*
X43470Y-28670D01*
X43409Y-28695D01*
X43391Y-28713D01*
X43391Y-26636D01*
X43391Y-26636D01*
X43391Y-26636D01*
X43374Y-26550D01*
X43325Y-26478D01*
X43325Y-26478D01*
X43223Y-26376D01*
X43223Y-26242D01*
X43233Y-26266D01*
X43363Y-26396D01*
X43534Y-26467D01*
X43718Y-26467D01*
X43888Y-26397D01*
X44019Y-26267D01*
X44035Y-26227D01*
X45950Y-26227D01*
X46652Y-26929D01*
X46652Y-26929D01*
X46724Y-26977D01*
X46775Y-26988D01*
X46775Y-27238D01*
X46801Y-27299D01*
X46848Y-27347D01*
X46910Y-27372D01*
X46977Y-27372D01*
X47577Y-27372D01*
X47639Y-27347D01*
X47686Y-27299D01*
X47712Y-27238D01*
X47712Y-27171D01*
X47712Y-26305D01*
X47686Y-26243D01*
X47639Y-26196D01*
X47577Y-26170D01*
X47510Y-26170D01*
X46910Y-26170D01*
X46848Y-26196D01*
X46801Y-26243D01*
X46775Y-26305D01*
X46775Y-26372D01*
X46775Y-26421D01*
X46200Y-25846D01*
X46128Y-25798D01*
X46114Y-25795D01*
X46042Y-25781D01*
X46042Y-25781D01*
X45075Y-25781D01*
X45075Y-20184D01*
X45075Y-20121D01*
X45012Y-20059D01*
X44650Y-20059D01*
X44650Y-20321D01*
X44712Y-20384D01*
X44775Y-20384D01*
X44874Y-20384D01*
X44966Y-20346D01*
X45036Y-20276D01*
X45075Y-20184D01*
X45075Y-25781D01*
X44569Y-25781D01*
X44569Y-24096D01*
X44569Y-24034D01*
X44506Y-23972D01*
X44144Y-23972D01*
X44144Y-24234D01*
X44206Y-24297D01*
X44269Y-24297D01*
X44369Y-24297D01*
X44461Y-24258D01*
X44531Y-24188D01*
X44569Y-24096D01*
X44569Y-25781D01*
X44035Y-25781D01*
X44019Y-25742D01*
X43889Y-25611D01*
X43719Y-25541D01*
X43534Y-25540D01*
X43364Y-25611D01*
X43234Y-25741D01*
X43223Y-25766D01*
X43223Y-25661D01*
X43325Y-25559D01*
X43325Y-25559D01*
X43325Y-25559D01*
X43374Y-25487D01*
X43391Y-25402D01*
X43391Y-25402D01*
X43391Y-25402D01*
X43391Y-24373D01*
X43633Y-24130D01*
X43657Y-24188D01*
X43727Y-24258D01*
X43819Y-24297D01*
X43919Y-24297D01*
X43981Y-24297D01*
X44044Y-24234D01*
X44044Y-23972D01*
X44036Y-23972D01*
X44036Y-23872D01*
X44044Y-23872D01*
X44044Y-23864D01*
X44144Y-23864D01*
X44144Y-23872D01*
X44506Y-23872D01*
X44569Y-23809D01*
X44569Y-23747D01*
X44550Y-23700D01*
X44550Y-20321D01*
X44550Y-20059D01*
X44187Y-20059D01*
X44125Y-20121D01*
X44125Y-20184D01*
X44163Y-20276D01*
X44233Y-20346D01*
X44325Y-20384D01*
X44424Y-20384D01*
X44487Y-20384D01*
X44550Y-20321D01*
X44550Y-23700D01*
X44531Y-23655D01*
X44461Y-23585D01*
X44431Y-23572D01*
X44462Y-23542D01*
X44487Y-23480D01*
X44487Y-23413D01*
X44487Y-23163D01*
X44462Y-23101D01*
X44414Y-23054D01*
X44352Y-23028D01*
X44310Y-23028D01*
X44303Y-22991D01*
X44300Y-22977D01*
X44300Y-22977D01*
X44252Y-22905D01*
X44252Y-22905D01*
X44236Y-22889D01*
X44164Y-22841D01*
X44150Y-22838D01*
X44078Y-22824D01*
X44078Y-22824D01*
X44007Y-22824D01*
X44007Y-22249D01*
X43981Y-22188D01*
X43934Y-22140D01*
X43872Y-22115D01*
X43805Y-22115D01*
X43671Y-22115D01*
X43671Y-22063D01*
X43671Y-20980D01*
X43646Y-20918D01*
X43598Y-20871D01*
X43537Y-20845D01*
X43470Y-20845D01*
X43331Y-20845D01*
X43331Y-19952D01*
X43331Y-19896D01*
X43331Y-19671D01*
X43331Y-19616D01*
X43292Y-19524D01*
X43249Y-19481D01*
X43249Y-19185D01*
X43249Y-19119D01*
X43249Y-18883D01*
X43223Y-18821D01*
X43176Y-18773D01*
X43114Y-18748D01*
X43050Y-18748D01*
X43050Y-18646D01*
X43050Y-18209D01*
X43050Y-18109D01*
X43050Y-17671D01*
X42987Y-17609D01*
X42749Y-17609D01*
X42650Y-17609D01*
X42558Y-17647D01*
X42488Y-17717D01*
X42450Y-17809D01*
X42450Y-18046D01*
X42512Y-18109D01*
X43050Y-18109D01*
X43050Y-18209D01*
X42512Y-18209D01*
X42450Y-18271D01*
X42450Y-18509D01*
X42488Y-18601D01*
X42558Y-18671D01*
X42650Y-18709D01*
X42749Y-18709D01*
X42987Y-18709D01*
X43050Y-18646D01*
X43050Y-18748D01*
X43047Y-18748D01*
X42653Y-18748D01*
X42591Y-18773D01*
X42554Y-18811D01*
X42553Y-18811D01*
X42553Y-18811D01*
X42481Y-18825D01*
X42467Y-18828D01*
X42395Y-18876D01*
X42310Y-18960D01*
X40952Y-18960D01*
X41053Y-18774D01*
X41059Y-18745D01*
X41011Y-18660D01*
X40443Y-18660D01*
X40443Y-18668D01*
X40343Y-18668D01*
X40343Y-18660D01*
X39775Y-18660D01*
X39727Y-18745D01*
X39733Y-18774D01*
X39836Y-18963D01*
X40004Y-19099D01*
X40176Y-19150D01*
X39927Y-19150D01*
X39865Y-19175D01*
X39818Y-19222D01*
X39792Y-19284D01*
X39792Y-19351D01*
X39792Y-19951D01*
X39818Y-20013D01*
X39865Y-20060D01*
X39927Y-20086D01*
X39994Y-20086D01*
X40149Y-20086D01*
X40004Y-20129D01*
X39836Y-20264D01*
X39733Y-20453D01*
X39727Y-20483D01*
X39775Y-20568D01*
X40343Y-20568D01*
X40343Y-20560D01*
X40443Y-20560D01*
X40443Y-20568D01*
X41011Y-20568D01*
X41059Y-20483D01*
X41053Y-20453D01*
X40950Y-20264D01*
X40783Y-20129D01*
X40638Y-20086D01*
X40860Y-20086D01*
X40921Y-20060D01*
X40969Y-20013D01*
X40994Y-19951D01*
X40994Y-19884D01*
X40994Y-19407D01*
X42403Y-19407D01*
X42403Y-19407D01*
X42403Y-19407D01*
X42474Y-19393D01*
X42488Y-19390D01*
X42488Y-19390D01*
X42561Y-19341D01*
X42603Y-19299D01*
X42653Y-19320D01*
X42720Y-19320D01*
X43114Y-19320D01*
X43176Y-19294D01*
X43223Y-19247D01*
X43249Y-19185D01*
X43249Y-19481D01*
X43222Y-19454D01*
X43130Y-19416D01*
X43031Y-19416D01*
X42996Y-19416D01*
X42934Y-19478D01*
X42934Y-19734D01*
X43268Y-19734D01*
X43331Y-19671D01*
X43331Y-19896D01*
X43268Y-19834D01*
X42934Y-19834D01*
X42934Y-20089D01*
X42996Y-20152D01*
X43031Y-20152D01*
X43130Y-20152D01*
X43222Y-20114D01*
X43292Y-20044D01*
X43331Y-19952D01*
X43331Y-20845D01*
X42834Y-20845D01*
X42834Y-20089D01*
X42834Y-19834D01*
X42834Y-19734D01*
X42834Y-19478D01*
X42771Y-19416D01*
X42736Y-19416D01*
X42637Y-19416D01*
X42545Y-19454D01*
X42475Y-19524D01*
X42437Y-19616D01*
X42437Y-19671D01*
X42499Y-19734D01*
X42834Y-19734D01*
X42834Y-19834D01*
X42499Y-19834D01*
X42437Y-19896D01*
X42437Y-19952D01*
X42475Y-20044D01*
X42545Y-20114D01*
X42637Y-20152D01*
X42736Y-20152D01*
X42771Y-20152D01*
X42834Y-20089D01*
X42834Y-20845D01*
X42683Y-20845D01*
X42621Y-20871D01*
X42574Y-20918D01*
X42548Y-20980D01*
X42548Y-21047D01*
X42548Y-21402D01*
X40994Y-21402D01*
X40994Y-21292D01*
X40969Y-21230D01*
X40921Y-21183D01*
X40860Y-21157D01*
X40793Y-21157D01*
X40611Y-21157D01*
X40783Y-21107D01*
X40950Y-20971D01*
X41053Y-20782D01*
X41059Y-20753D01*
X41011Y-20668D01*
X40443Y-20668D01*
X40443Y-20675D01*
X40343Y-20675D01*
X40343Y-20668D01*
X39775Y-20668D01*
X39727Y-20753D01*
X39733Y-20782D01*
X39836Y-20971D01*
X40004Y-21107D01*
X40176Y-21157D01*
X39927Y-21157D01*
X39865Y-21183D01*
X39818Y-21230D01*
X39792Y-21292D01*
X39792Y-21359D01*
X39792Y-21959D01*
X39818Y-22021D01*
X39865Y-22068D01*
X39927Y-22094D01*
X39994Y-22094D01*
X40149Y-22094D01*
X40004Y-22136D01*
X39836Y-22272D01*
X39733Y-22461D01*
X39727Y-22490D01*
X39775Y-22575D01*
X40343Y-22575D01*
X40343Y-22568D01*
X40443Y-22568D01*
X40443Y-22575D01*
X41011Y-22575D01*
X41059Y-22490D01*
X41053Y-22461D01*
X40950Y-22272D01*
X40783Y-22136D01*
X40638Y-22094D01*
X40860Y-22094D01*
X40921Y-22068D01*
X40969Y-22021D01*
X40994Y-21959D01*
X40994Y-21892D01*
X40994Y-21849D01*
X42548Y-21849D01*
X42548Y-22130D01*
X42569Y-22180D01*
X42569Y-22548D01*
X42577Y-22548D01*
X42577Y-22648D01*
X42569Y-22648D01*
X42569Y-22656D01*
X42469Y-22656D01*
X42469Y-22648D01*
X42469Y-22548D01*
X42469Y-22095D01*
X42406Y-22033D01*
X42331Y-22033D01*
X42239Y-22071D01*
X42169Y-22141D01*
X42131Y-22233D01*
X42131Y-22333D01*
X42131Y-22485D01*
X42193Y-22548D01*
X42469Y-22548D01*
X42469Y-22648D01*
X42193Y-22648D01*
X42131Y-22710D01*
X42131Y-22863D01*
X42131Y-22963D01*
X42169Y-23055D01*
X42239Y-23125D01*
X42247Y-23128D01*
X42238Y-23150D01*
X42238Y-23249D01*
X42238Y-23312D01*
X42300Y-23375D01*
X42563Y-23375D01*
X42563Y-23367D01*
X42663Y-23367D01*
X42663Y-23375D01*
X42671Y-23375D01*
X42671Y-23475D01*
X42663Y-23475D01*
X42663Y-23837D01*
X42725Y-23900D01*
X42731Y-23900D01*
X42731Y-24464D01*
X42563Y-24631D01*
X42563Y-23837D01*
X42563Y-23475D01*
X42300Y-23475D01*
X42238Y-23537D01*
X42238Y-23600D01*
X42238Y-23699D01*
X42276Y-23791D01*
X42346Y-23862D01*
X42438Y-23900D01*
X42500Y-23900D01*
X42563Y-23837D01*
X42563Y-24631D01*
X42464Y-24731D01*
X42415Y-24803D01*
X42413Y-24817D01*
X42398Y-24888D01*
X42398Y-24888D01*
X42398Y-26963D01*
X41298Y-26963D01*
X41298Y-24892D01*
X41298Y-24792D01*
X41298Y-24521D01*
X41298Y-24296D01*
X41298Y-24026D01*
X41298Y-23926D01*
X41259Y-23834D01*
X41189Y-23764D01*
X41097Y-23726D01*
X41059Y-23726D01*
X41059Y-22761D01*
X41011Y-22675D01*
X40443Y-22675D01*
X40443Y-23175D01*
X40576Y-23175D01*
X40783Y-23114D01*
X40950Y-22979D01*
X41053Y-22790D01*
X41059Y-22761D01*
X41059Y-23726D01*
X40860Y-23726D01*
X40798Y-23788D01*
X40798Y-24359D01*
X41235Y-24359D01*
X41298Y-24296D01*
X41298Y-24521D01*
X41235Y-24459D01*
X40798Y-24459D01*
X40798Y-25029D01*
X40860Y-25092D01*
X41097Y-25092D01*
X41189Y-25054D01*
X41259Y-24984D01*
X41298Y-24892D01*
X41298Y-26963D01*
X41216Y-26963D01*
X41216Y-26253D01*
X41216Y-26186D01*
X41216Y-25320D01*
X41190Y-25259D01*
X41143Y-25211D01*
X41081Y-25186D01*
X41014Y-25186D01*
X40698Y-25186D01*
X40698Y-25029D01*
X40698Y-24459D01*
X40698Y-24359D01*
X40698Y-23788D01*
X40635Y-23726D01*
X40398Y-23726D01*
X40343Y-23749D01*
X40343Y-23175D01*
X40343Y-22675D01*
X39775Y-22675D01*
X39727Y-22761D01*
X39733Y-22790D01*
X39836Y-22979D01*
X40004Y-23114D01*
X40210Y-23175D01*
X40343Y-23175D01*
X40343Y-23749D01*
X40306Y-23764D01*
X40236Y-23834D01*
X40198Y-23926D01*
X40198Y-24026D01*
X40198Y-24296D01*
X40260Y-24359D01*
X40698Y-24359D01*
X40698Y-24459D01*
X40260Y-24459D01*
X40198Y-24521D01*
X40198Y-24792D01*
X40198Y-24892D01*
X40236Y-24984D01*
X40306Y-25054D01*
X40398Y-25092D01*
X40635Y-25092D01*
X40698Y-25029D01*
X40698Y-25186D01*
X40414Y-25186D01*
X40352Y-25211D01*
X40305Y-25259D01*
X40279Y-25320D01*
X40279Y-25387D01*
X40279Y-26253D01*
X40305Y-26315D01*
X40352Y-26362D01*
X40414Y-26388D01*
X40481Y-26388D01*
X41081Y-26388D01*
X41143Y-26362D01*
X41190Y-26315D01*
X41216Y-26253D01*
X41216Y-26963D01*
X40393Y-26963D01*
X40393Y-26963D01*
X40308Y-26980D01*
X40284Y-26996D01*
X40236Y-27029D01*
X40236Y-27029D01*
X39859Y-27405D01*
X39811Y-27477D01*
X39808Y-27492D01*
X39794Y-27563D01*
X39794Y-27563D01*
X39794Y-31718D01*
X39794Y-31718D01*
X39808Y-31789D01*
X39811Y-31803D01*
X39859Y-31876D01*
X40149Y-32165D01*
X40149Y-32165D01*
X40221Y-32214D01*
X40273Y-32224D01*
X40273Y-32266D01*
X40298Y-32328D01*
X40345Y-32375D01*
X40407Y-32400D01*
X40474Y-32400D01*
X40724Y-32400D01*
X40786Y-32375D01*
X40833Y-32328D01*
X40859Y-32266D01*
X40859Y-32199D01*
X40859Y-31887D01*
X40873Y-31900D01*
X40873Y-32266D01*
X40898Y-32328D01*
X40945Y-32375D01*
X41007Y-32400D01*
X41074Y-32400D01*
X41324Y-32400D01*
X41386Y-32375D01*
X41433Y-32328D01*
X41459Y-32266D01*
X41459Y-32199D01*
X41459Y-32159D01*
X41581Y-32038D01*
X41597Y-32054D01*
X41659Y-32080D01*
X41726Y-32080D01*
X41962Y-32080D01*
X42024Y-32054D01*
X42071Y-32007D01*
X42097Y-31945D01*
X42097Y-31878D01*
X42097Y-31484D01*
X42071Y-31422D01*
X42024Y-31375D01*
X41962Y-31350D01*
X41895Y-31350D01*
X41804Y-31350D01*
X41804Y-31129D01*
X41804Y-31030D01*
X41804Y-30995D01*
X41804Y-30770D01*
X41804Y-30735D01*
X41804Y-30636D01*
X41765Y-30544D01*
X41695Y-30474D01*
X41603Y-30436D01*
X41548Y-30436D01*
X41486Y-30498D01*
X41486Y-30833D01*
X41741Y-30833D01*
X41804Y-30770D01*
X41804Y-30995D01*
X41741Y-30933D01*
X41486Y-30933D01*
X41486Y-31267D01*
X41548Y-31330D01*
X41603Y-31330D01*
X41695Y-31292D01*
X41765Y-31221D01*
X41804Y-31129D01*
X41804Y-31350D01*
X41659Y-31350D01*
X41597Y-31375D01*
X41550Y-31422D01*
X41524Y-31484D01*
X41524Y-31498D01*
X41473Y-31508D01*
X41401Y-31557D01*
X41386Y-31580D01*
X41386Y-31267D01*
X41386Y-30933D01*
X41386Y-30833D01*
X41386Y-30498D01*
X41323Y-30436D01*
X41268Y-30436D01*
X41176Y-30474D01*
X41106Y-30544D01*
X41068Y-30636D01*
X41068Y-30735D01*
X41068Y-30770D01*
X41130Y-30833D01*
X41386Y-30833D01*
X41386Y-30933D01*
X41130Y-30933D01*
X41068Y-30995D01*
X41068Y-31030D01*
X41068Y-31129D01*
X41106Y-31221D01*
X41176Y-31292D01*
X41268Y-31330D01*
X41323Y-31330D01*
X41386Y-31267D01*
X41386Y-31580D01*
X41354Y-31627D01*
X41324Y-31614D01*
X41257Y-31614D01*
X41218Y-31614D01*
X40926Y-31322D01*
X40926Y-31321D01*
X40926Y-31137D01*
X40856Y-30967D01*
X40726Y-30836D01*
X40556Y-30765D01*
X40371Y-30765D01*
X40240Y-30819D01*
X40240Y-27655D01*
X40279Y-27616D01*
X40279Y-28222D01*
X40305Y-28284D01*
X40352Y-28331D01*
X40414Y-28357D01*
X40481Y-28357D01*
X41081Y-28357D01*
X41141Y-28332D01*
X42927Y-30118D01*
X42927Y-30118D01*
X42927Y-30118D01*
X42999Y-30166D01*
X42999Y-30166D01*
X43013Y-30169D01*
X43062Y-30179D01*
X43069Y-30196D01*
X43062Y-30214D01*
X43013Y-30224D01*
X42999Y-30227D01*
X42927Y-30275D01*
X42927Y-30275D01*
X42885Y-30316D01*
X42437Y-30316D01*
X42402Y-30316D01*
X41405Y-29319D01*
X41405Y-29133D01*
X41388Y-29048D01*
X41339Y-28976D01*
X41267Y-28927D01*
X41216Y-28917D01*
X41216Y-28667D01*
X41190Y-28605D01*
X41143Y-28558D01*
X41081Y-28532D01*
X41014Y-28532D01*
X40414Y-28532D01*
X40352Y-28558D01*
X40305Y-28605D01*
X40279Y-28667D01*
X40279Y-28734D01*
X40279Y-29600D01*
X40305Y-29662D01*
X40352Y-29709D01*
X40414Y-29734D01*
X40481Y-29734D01*
X41081Y-29734D01*
X41143Y-29709D01*
X41153Y-29699D01*
X41990Y-30536D01*
X41972Y-30543D01*
X41925Y-30590D01*
X41899Y-30652D01*
X41899Y-30719D01*
X41899Y-31113D01*
X41925Y-31175D01*
X41972Y-31222D01*
X42034Y-31248D01*
X42101Y-31248D01*
X42337Y-31248D01*
X42399Y-31222D01*
X42446Y-31175D01*
X42472Y-31113D01*
X42472Y-31099D01*
X42523Y-31089D01*
X42595Y-31041D01*
X42644Y-30968D01*
X42661Y-30883D01*
X42661Y-30763D01*
X42978Y-30763D01*
X42978Y-30763D01*
X42978Y-30763D01*
X43049Y-30749D01*
X43050Y-30748D01*
X43050Y-30781D01*
X43050Y-31095D01*
X43069Y-31141D01*
X43050Y-31187D01*
X43050Y-31254D01*
X43050Y-31568D01*
X43069Y-31614D01*
X43050Y-31659D01*
X43050Y-31726D01*
X43050Y-32040D01*
X43069Y-32086D01*
X43060Y-32110D01*
X42930Y-32056D01*
X42746Y-32056D01*
X42575Y-32127D01*
X42445Y-32257D01*
X42374Y-32427D01*
X42374Y-32611D01*
X42445Y-32782D01*
X42575Y-32912D01*
X42614Y-32929D01*
X42614Y-33028D01*
X42523Y-32967D01*
X42344Y-32931D01*
X42055Y-32931D01*
X41876Y-32967D01*
X41724Y-33068D01*
X41622Y-33220D01*
X41587Y-33400D01*
X41622Y-33579D01*
X41724Y-33731D01*
X41876Y-33832D01*
X42055Y-33868D01*
X42344Y-33868D01*
X42523Y-33832D01*
X42614Y-33771D01*
X42614Y-33931D01*
X42599Y-33931D01*
X41733Y-33931D01*
X41671Y-33957D01*
X41624Y-34004D01*
X41598Y-34066D01*
X41598Y-34133D01*
X41598Y-34733D01*
X41624Y-34795D01*
X41666Y-34836D01*
X41601Y-34836D01*
X41431Y-34907D01*
X41310Y-35027D01*
X41081Y-34798D01*
X40687Y-34634D01*
X40259Y-34634D01*
X39864Y-34797D01*
X39616Y-35045D01*
X39616Y-16529D01*
X39863Y-16776D01*
X40229Y-16928D01*
X40205Y-16944D01*
X40147Y-17030D01*
X40127Y-17132D01*
X40127Y-17142D01*
X39927Y-17142D01*
X39865Y-17167D01*
X39818Y-17215D01*
X39792Y-17276D01*
X39792Y-17343D01*
X39792Y-17943D01*
X39818Y-18005D01*
X39865Y-18052D01*
X39927Y-18078D01*
X39994Y-18078D01*
X40149Y-18078D01*
X40004Y-18121D01*
X39836Y-18256D01*
X39733Y-18445D01*
X39727Y-18475D01*
X39775Y-18560D01*
X40343Y-18560D01*
X40343Y-18552D01*
X40443Y-18552D01*
X40443Y-18560D01*
X41011Y-18560D01*
X41059Y-18475D01*
X41053Y-18445D01*
X40950Y-18256D01*
X40783Y-18121D01*
X40638Y-18078D01*
X40860Y-18078D01*
X40921Y-18052D01*
X40969Y-18005D01*
X40994Y-17943D01*
X40994Y-17876D01*
X40994Y-17399D01*
X42249Y-17399D01*
X42351Y-17379D01*
X42351Y-17379D01*
X42437Y-17321D01*
X42541Y-17217D01*
X42557Y-17254D01*
X42604Y-17301D01*
X42666Y-17327D01*
X42733Y-17327D01*
X43533Y-17327D01*
X43595Y-17301D01*
X43633Y-17263D01*
X43697Y-17275D01*
X43729Y-17275D01*
X43663Y-17342D01*
X43625Y-17434D01*
X43625Y-17496D01*
X43687Y-17559D01*
X44050Y-17559D01*
X44050Y-17551D01*
X44150Y-17551D01*
X44150Y-17559D01*
X44512Y-17559D01*
X44575Y-17496D01*
X44575Y-17434D01*
X44536Y-17342D01*
X44470Y-17275D01*
X44502Y-17275D01*
X44604Y-17255D01*
X44604Y-17255D01*
X44666Y-17213D01*
X44704Y-17251D01*
X44766Y-17277D01*
X44833Y-17277D01*
X46233Y-17277D01*
X46295Y-17251D01*
X46342Y-17204D01*
X46368Y-17142D01*
X46368Y-17076D01*
X46368Y-16376D01*
X46342Y-16314D01*
X46295Y-16266D01*
X46233Y-16241D01*
X46166Y-16241D01*
X44766Y-16241D01*
X44704Y-16266D01*
X44657Y-16314D01*
X44631Y-16376D01*
X44631Y-16442D01*
X44631Y-16492D01*
X44622Y-16492D01*
X44520Y-16513D01*
X44434Y-16570D01*
X44376Y-16657D01*
X44364Y-16718D01*
X44358Y-16716D01*
X44291Y-16716D01*
X43902Y-16716D01*
X43886Y-16691D01*
X43865Y-16670D01*
X43779Y-16613D01*
X43677Y-16592D01*
X43668Y-16592D01*
X43668Y-16526D01*
X43642Y-16464D01*
X43595Y-16416D01*
X43533Y-16391D01*
X43466Y-16391D01*
X42666Y-16391D01*
X42604Y-16416D01*
X42557Y-16464D01*
X42531Y-16526D01*
X42531Y-16592D01*
X42531Y-16592D01*
X42522Y-16592D01*
X42420Y-16613D01*
X42334Y-16670D01*
X42138Y-16866D01*
X40864Y-16866D01*
X41080Y-16777D01*
X41382Y-16475D01*
X41546Y-16080D01*
X41546Y-15653D01*
X41383Y-15258D01*
X41135Y-15010D01*
X50596Y-15010D01*
X50349Y-15256D01*
X50186Y-15651D01*
X50185Y-16078D01*
X50348Y-16473D01*
X50650Y-16776D01*
X51045Y-16939D01*
X51472Y-16940D01*
X51867Y-16777D01*
X52115Y-16529D01*
X52115Y-29479D01*
X52043Y-29304D01*
X51896Y-29157D01*
X51768Y-29104D01*
X51768Y-27666D01*
X51768Y-27599D01*
X51768Y-26733D01*
X51766Y-26728D01*
X51766Y-19344D01*
X51766Y-19074D01*
X51760Y-19045D01*
X51657Y-18855D01*
X51489Y-18720D01*
X51344Y-18677D01*
X51566Y-18677D01*
X51628Y-18651D01*
X51675Y-18604D01*
X51701Y-18542D01*
X51701Y-18476D01*
X51701Y-17876D01*
X51675Y-17814D01*
X51628Y-17766D01*
X51566Y-17741D01*
X51499Y-17741D01*
X50633Y-17741D01*
X50571Y-17766D01*
X50524Y-17814D01*
X50498Y-17876D01*
X50498Y-17942D01*
X50498Y-17986D01*
X49867Y-17986D01*
X49867Y-17644D01*
X49842Y-17582D01*
X49794Y-17535D01*
X49732Y-17509D01*
X49666Y-17509D01*
X48957Y-17509D01*
X48895Y-17535D01*
X48847Y-17582D01*
X48822Y-17644D01*
X48822Y-17711D01*
X48822Y-17986D01*
X48698Y-17986D01*
X48698Y-16800D01*
X48698Y-16800D01*
X48698Y-16800D01*
X48684Y-16729D01*
X48681Y-16715D01*
X48681Y-16715D01*
X48632Y-16642D01*
X48632Y-16642D01*
X48541Y-16551D01*
X48469Y-16503D01*
X48455Y-16500D01*
X48418Y-16493D01*
X48418Y-16401D01*
X48392Y-16339D01*
X48345Y-16291D01*
X48283Y-16266D01*
X48216Y-16266D01*
X47866Y-16266D01*
X47804Y-16291D01*
X47757Y-16339D01*
X47731Y-16401D01*
X47731Y-16467D01*
X47731Y-17017D01*
X47757Y-17079D01*
X47804Y-17126D01*
X47866Y-17152D01*
X47933Y-17152D01*
X48251Y-17152D01*
X48251Y-18209D01*
X48251Y-19472D01*
X48204Y-19491D01*
X48157Y-19539D01*
X48131Y-19601D01*
X48131Y-19667D01*
X48131Y-19711D01*
X48119Y-19703D01*
X48105Y-19700D01*
X48068Y-19693D01*
X48068Y-19601D01*
X48042Y-19539D01*
X47995Y-19491D01*
X47933Y-19466D01*
X47866Y-19466D01*
X47516Y-19466D01*
X47454Y-19491D01*
X47407Y-19539D01*
X47381Y-19601D01*
X47381Y-19667D01*
X47381Y-19686D01*
X47218Y-19686D01*
X47218Y-19601D01*
X47192Y-19539D01*
X47145Y-19491D01*
X47083Y-19466D01*
X47016Y-19466D01*
X46666Y-19466D01*
X46648Y-19473D01*
X46403Y-19228D01*
X46331Y-19180D01*
X46317Y-19177D01*
X46246Y-19163D01*
X46246Y-19163D01*
X45637Y-19163D01*
X45621Y-19124D01*
X45542Y-19044D01*
X45601Y-19032D01*
X45688Y-18975D01*
X45746Y-18888D01*
X45766Y-18786D01*
X45766Y-18777D01*
X46233Y-18777D01*
X46295Y-18751D01*
X46342Y-18704D01*
X46368Y-18642D01*
X46368Y-18576D01*
X46368Y-18525D01*
X46377Y-18525D01*
X46479Y-18505D01*
X46565Y-18447D01*
X46616Y-18372D01*
X46932Y-18056D01*
X46932Y-18774D01*
X46957Y-18836D01*
X47005Y-18883D01*
X47067Y-18909D01*
X47133Y-18909D01*
X47842Y-18909D01*
X47904Y-18883D01*
X47952Y-18836D01*
X47977Y-18774D01*
X47977Y-18707D01*
X47977Y-17644D01*
X47952Y-17582D01*
X47904Y-17535D01*
X47842Y-17509D01*
X47776Y-17509D01*
X47721Y-17509D01*
X47721Y-17500D01*
X47701Y-17398D01*
X47701Y-17398D01*
X47672Y-17355D01*
X47643Y-17312D01*
X47643Y-17312D01*
X47591Y-17260D01*
X47591Y-17128D01*
X47595Y-17126D01*
X47642Y-17079D01*
X47668Y-17017D01*
X47668Y-16951D01*
X47668Y-16401D01*
X47642Y-16339D01*
X47595Y-16291D01*
X47533Y-16266D01*
X47466Y-16266D01*
X47116Y-16266D01*
X47054Y-16291D01*
X47007Y-16339D01*
X46981Y-16401D01*
X46981Y-16467D01*
X46981Y-17017D01*
X47007Y-17079D01*
X47054Y-17126D01*
X47058Y-17128D01*
X47058Y-17178D01*
X47052Y-17182D01*
X46365Y-17869D01*
X46342Y-17814D01*
X46295Y-17766D01*
X46233Y-17741D01*
X46166Y-17741D01*
X44766Y-17741D01*
X44704Y-17766D01*
X44657Y-17814D01*
X44631Y-17876D01*
X44631Y-17942D01*
X44631Y-18642D01*
X44648Y-18682D01*
X44575Y-18755D01*
X44575Y-17784D01*
X44575Y-17721D01*
X44512Y-17659D01*
X44150Y-17659D01*
X44150Y-17921D01*
X44212Y-17984D01*
X44275Y-17984D01*
X44374Y-17984D01*
X44466Y-17946D01*
X44536Y-17876D01*
X44575Y-17784D01*
X44575Y-18755D01*
X44411Y-18918D01*
X44353Y-19005D01*
X44333Y-19107D01*
X44333Y-19119D01*
X44279Y-19141D01*
X44278Y-19142D01*
X44050Y-19142D01*
X44050Y-17921D01*
X44050Y-17659D01*
X43687Y-17659D01*
X43670Y-17676D01*
X43641Y-17647D01*
X43549Y-17609D01*
X43450Y-17609D01*
X43212Y-17609D01*
X43150Y-17671D01*
X43150Y-18109D01*
X43687Y-18109D01*
X43750Y-18046D01*
X43750Y-17953D01*
X43825Y-17984D01*
X43924Y-17984D01*
X43987Y-17984D01*
X44050Y-17921D01*
X44050Y-19142D01*
X43993Y-19142D01*
X43946Y-19123D01*
X43879Y-19123D01*
X43750Y-19123D01*
X43750Y-18509D01*
X43750Y-18271D01*
X43687Y-18209D01*
X43150Y-18209D01*
X43150Y-18646D01*
X43212Y-18709D01*
X43450Y-18709D01*
X43549Y-18709D01*
X43641Y-18671D01*
X43711Y-18601D01*
X43750Y-18509D01*
X43750Y-19123D01*
X43485Y-19123D01*
X43423Y-19148D01*
X43376Y-19196D01*
X43350Y-19258D01*
X43350Y-19324D01*
X43350Y-19560D01*
X43376Y-19622D01*
X43423Y-19669D01*
X43485Y-19695D01*
X43552Y-19695D01*
X43946Y-19695D01*
X43993Y-19675D01*
X44229Y-19675D01*
X44163Y-19742D01*
X44125Y-19834D01*
X44125Y-19896D01*
X44187Y-19959D01*
X44550Y-19959D01*
X44550Y-19951D01*
X44650Y-19951D01*
X44650Y-19959D01*
X45012Y-19959D01*
X45075Y-19896D01*
X45075Y-19834D01*
X45069Y-19822D01*
X45136Y-19850D01*
X45320Y-19850D01*
X45490Y-19779D01*
X45621Y-19649D01*
X45637Y-19610D01*
X45700Y-19610D01*
X45700Y-19684D01*
X45700Y-19796D01*
X45762Y-19859D01*
X46075Y-19859D01*
X46075Y-19851D01*
X46175Y-19851D01*
X46175Y-19859D01*
X46182Y-19859D01*
X46182Y-19959D01*
X46175Y-19959D01*
X46175Y-20371D01*
X46237Y-20434D01*
X46349Y-20434D01*
X46441Y-20396D01*
X46511Y-20326D01*
X46544Y-20247D01*
X46557Y-20279D01*
X46604Y-20326D01*
X46666Y-20352D01*
X46733Y-20352D01*
X47083Y-20352D01*
X47145Y-20326D01*
X47192Y-20279D01*
X47218Y-20217D01*
X47218Y-20151D01*
X47218Y-20132D01*
X47381Y-20132D01*
X47381Y-20217D01*
X47407Y-20279D01*
X47454Y-20326D01*
X47516Y-20352D01*
X47583Y-20352D01*
X47876Y-20352D01*
X47876Y-20663D01*
X47839Y-20701D01*
X47813Y-20763D01*
X47813Y-20829D01*
X47813Y-21223D01*
X47839Y-21285D01*
X47886Y-21332D01*
X47948Y-21358D01*
X48015Y-21358D01*
X48251Y-21358D01*
X48313Y-21332D01*
X48360Y-21285D01*
X48386Y-21223D01*
X48386Y-21157D01*
X48386Y-20763D01*
X48360Y-20701D01*
X48323Y-20663D01*
X48323Y-20352D01*
X48333Y-20352D01*
X48683Y-20352D01*
X48745Y-20326D01*
X48792Y-20279D01*
X48818Y-20217D01*
X48818Y-20151D01*
X48818Y-19601D01*
X48792Y-19539D01*
X48745Y-19491D01*
X48698Y-19472D01*
X48698Y-18432D01*
X48822Y-18432D01*
X48822Y-18774D01*
X48847Y-18836D01*
X48895Y-18883D01*
X48957Y-18909D01*
X49023Y-18909D01*
X49732Y-18909D01*
X49794Y-18883D01*
X49842Y-18836D01*
X49867Y-18774D01*
X49867Y-18707D01*
X49867Y-18432D01*
X50498Y-18432D01*
X50498Y-18542D01*
X50524Y-18604D01*
X50571Y-18651D01*
X50633Y-18677D01*
X50700Y-18677D01*
X50855Y-18677D01*
X50710Y-18720D01*
X50542Y-18855D01*
X50439Y-19045D01*
X50433Y-19074D01*
X50482Y-19159D01*
X51050Y-19159D01*
X51050Y-19151D01*
X51150Y-19151D01*
X51150Y-19159D01*
X51717Y-19159D01*
X51766Y-19074D01*
X51766Y-19344D01*
X51717Y-19259D01*
X51150Y-19259D01*
X51150Y-19759D01*
X51283Y-19759D01*
X51489Y-19698D01*
X51657Y-19563D01*
X51760Y-19373D01*
X51766Y-19344D01*
X51766Y-26728D01*
X51742Y-26671D01*
X51695Y-26624D01*
X51633Y-26598D01*
X51566Y-26598D01*
X51050Y-26598D01*
X51050Y-19759D01*
X51050Y-19259D01*
X50482Y-19259D01*
X50433Y-19344D01*
X50439Y-19373D01*
X50542Y-19563D01*
X50710Y-19698D01*
X50917Y-19759D01*
X51050Y-19759D01*
X51050Y-26598D01*
X50966Y-26598D01*
X50904Y-26624D01*
X50857Y-26671D01*
X50831Y-26733D01*
X50831Y-26800D01*
X50831Y-27666D01*
X50857Y-27728D01*
X50904Y-27775D01*
X50966Y-27801D01*
X51033Y-27801D01*
X51633Y-27801D01*
X51695Y-27775D01*
X51742Y-27728D01*
X51768Y-27666D01*
X51768Y-29104D01*
X51704Y-29077D01*
X51496Y-29077D01*
X51304Y-29156D01*
X51157Y-29303D01*
X51122Y-29387D01*
X51122Y-28496D01*
X51043Y-28304D01*
X50896Y-28157D01*
X50704Y-28077D01*
X50672Y-28077D01*
X50672Y-22638D01*
X50601Y-22468D01*
X50475Y-22341D01*
X50475Y-21384D01*
X50475Y-21321D01*
X50475Y-21096D01*
X50475Y-21034D01*
X50436Y-20942D01*
X50366Y-20872D01*
X50274Y-20834D01*
X50175Y-20834D01*
X50112Y-20834D01*
X50050Y-20896D01*
X50050Y-21159D01*
X50412Y-21159D01*
X50475Y-21096D01*
X50475Y-21321D01*
X50412Y-21259D01*
X50050Y-21259D01*
X50050Y-21267D01*
X49950Y-21267D01*
X49950Y-21259D01*
X49950Y-21159D01*
X49950Y-20896D01*
X49887Y-20834D01*
X49824Y-20834D01*
X49725Y-20834D01*
X49633Y-20872D01*
X49600Y-20905D01*
X49566Y-20872D01*
X49474Y-20834D01*
X49375Y-20834D01*
X49312Y-20834D01*
X49250Y-20896D01*
X49250Y-21159D01*
X49587Y-21159D01*
X49612Y-21159D01*
X49950Y-21159D01*
X49950Y-21259D01*
X49612Y-21259D01*
X49587Y-21259D01*
X49250Y-21259D01*
X49250Y-21267D01*
X49150Y-21267D01*
X49150Y-21259D01*
X49150Y-21159D01*
X49150Y-20896D01*
X49087Y-20834D01*
X49024Y-20834D01*
X48925Y-20834D01*
X48833Y-20872D01*
X48763Y-20942D01*
X48725Y-21034D01*
X48725Y-21096D01*
X48787Y-21159D01*
X49150Y-21159D01*
X49150Y-21259D01*
X48787Y-21259D01*
X48725Y-21321D01*
X48725Y-21384D01*
X48763Y-21476D01*
X48833Y-21546D01*
X48863Y-21558D01*
X48834Y-21587D01*
X48769Y-21600D01*
X48761Y-21602D01*
X48761Y-21595D01*
X48735Y-21533D01*
X48688Y-21485D01*
X48626Y-21460D01*
X48559Y-21460D01*
X48323Y-21460D01*
X48261Y-21485D01*
X48214Y-21533D01*
X48188Y-21595D01*
X48188Y-21661D01*
X48188Y-22055D01*
X48214Y-22117D01*
X48261Y-22164D01*
X48323Y-22190D01*
X48359Y-22190D01*
X48359Y-23761D01*
X48320Y-23777D01*
X48190Y-23907D01*
X48119Y-24077D01*
X48119Y-24262D01*
X48189Y-24432D01*
X48320Y-24562D01*
X48490Y-24633D01*
X48674Y-24633D01*
X48845Y-24563D01*
X48975Y-24433D01*
X49046Y-24262D01*
X49046Y-24078D01*
X48976Y-23908D01*
X48845Y-23777D01*
X48806Y-23761D01*
X48806Y-22137D01*
X48806Y-22137D01*
X48874Y-22091D01*
X48886Y-22079D01*
X48941Y-22102D01*
X49008Y-22102D01*
X49458Y-22102D01*
X49520Y-22076D01*
X49564Y-22032D01*
X49635Y-22032D01*
X49679Y-22076D01*
X49741Y-22102D01*
X49808Y-22102D01*
X50258Y-22102D01*
X50320Y-22076D01*
X50367Y-22029D01*
X50393Y-21967D01*
X50393Y-21901D01*
X50393Y-21651D01*
X50367Y-21589D01*
X50336Y-21558D01*
X50366Y-21546D01*
X50436Y-21476D01*
X50475Y-21384D01*
X50475Y-22341D01*
X50471Y-22338D01*
X50301Y-22267D01*
X50117Y-22267D01*
X49946Y-22337D01*
X49816Y-22467D01*
X49745Y-22638D01*
X49745Y-22822D01*
X49761Y-22862D01*
X49503Y-23120D01*
X49454Y-23193D01*
X49451Y-23207D01*
X49437Y-23278D01*
X49437Y-23278D01*
X49437Y-23903D01*
X49398Y-23919D01*
X49268Y-24049D01*
X49197Y-24219D01*
X49197Y-24404D01*
X49267Y-24574D01*
X49398Y-24705D01*
X49568Y-24775D01*
X49752Y-24775D01*
X49923Y-24705D01*
X50053Y-24575D01*
X50124Y-24405D01*
X50124Y-24220D01*
X50054Y-24050D01*
X49923Y-23919D01*
X49884Y-23903D01*
X49884Y-23370D01*
X50077Y-23177D01*
X50116Y-23193D01*
X50300Y-23194D01*
X50471Y-23123D01*
X50601Y-22993D01*
X50672Y-22823D01*
X50672Y-22638D01*
X50672Y-28077D01*
X50496Y-28077D01*
X50304Y-28156D01*
X50157Y-28303D01*
X50077Y-28495D01*
X50077Y-28703D01*
X50156Y-28895D01*
X50303Y-29042D01*
X50495Y-29122D01*
X50703Y-29122D01*
X50895Y-29043D01*
X51042Y-28896D01*
X51122Y-28704D01*
X51122Y-28496D01*
X51122Y-29387D01*
X51077Y-29495D01*
X51077Y-29703D01*
X51156Y-29895D01*
X51303Y-30042D01*
X51495Y-30122D01*
X51703Y-30122D01*
X51895Y-30043D01*
X52042Y-29896D01*
X52115Y-29721D01*
X52115Y-35045D01*
M02*
