G04 (created by PCBNEW (2013-mar-13)-testing) date Fri 28 Feb 2014 04:48:04 PM CET*
%MOIN*%
G04 Gerber Fmt 3.4, Leading zero omitted, Abs format*
%FSLAX34Y34*%
G01*
G70*
G90*
G04 APERTURE LIST*
%ADD10C,0.005906*%
%ADD11R,0.025000X0.045000*%
%ADD12R,0.086600X0.060000*%
%ADD13O,0.086600X0.060000*%
%ADD14R,0.060000X0.086600*%
%ADD15C,0.070866*%
%ADD16R,0.023600X0.039400*%
%ADD17R,0.029528X0.011811*%
%ADD18R,0.066929X0.055118*%
%ADD19C,0.126000*%
%ADD20C,0.059055*%
%ADD21C,0.011024*%
%ADD22C,0.010000*%
G04 APERTURE END LIST*
G54D10*
G54D11*
X49100Y-22900D03*
X49700Y-22900D03*
X49800Y-26300D03*
X49200Y-26300D03*
X45260Y-26141D03*
X44660Y-26141D03*
G54D12*
X51100Y-18209D03*
G54D13*
X51100Y-19209D03*
G54D12*
X40393Y-17610D03*
G54D13*
X40393Y-18610D03*
G54D12*
X40393Y-19618D03*
G54D13*
X40393Y-20618D03*
G54D12*
X50600Y-32600D03*
G54D13*
X50600Y-33600D03*
G54D12*
X42200Y-34400D03*
G54D13*
X42200Y-33400D03*
G54D14*
X40748Y-29133D03*
X40748Y-27755D03*
X40748Y-24409D03*
G54D12*
X40393Y-21625D03*
G54D13*
X40393Y-22625D03*
G54D14*
X47244Y-26771D03*
X47322Y-24921D03*
X51300Y-27200D03*
X40748Y-25787D03*
G54D11*
X42416Y-25393D03*
X43016Y-25393D03*
X42416Y-24606D03*
X43016Y-24606D03*
X44100Y-21600D03*
X43500Y-21600D03*
X43500Y-22400D03*
X44100Y-22400D03*
X42416Y-26377D03*
X43016Y-26377D03*
X47900Y-22900D03*
X48500Y-22900D03*
X49100Y-23600D03*
X49700Y-23600D03*
X51100Y-23500D03*
X51700Y-23500D03*
X51700Y-24200D03*
X51100Y-24200D03*
G54D15*
X50600Y-28600D03*
X51600Y-29600D03*
X50600Y-30600D03*
G54D16*
X40806Y-30725D03*
X41181Y-31557D03*
X41556Y-30725D03*
G54D17*
X48917Y-25669D03*
X48917Y-25472D03*
X48917Y-25275D03*
X48917Y-25078D03*
X50059Y-25078D03*
X50059Y-25275D03*
X50059Y-25472D03*
X50059Y-25669D03*
G54D18*
X49488Y-25374D03*
G54D17*
X44429Y-25511D03*
X44429Y-25314D03*
X44429Y-25118D03*
X44429Y-24921D03*
X45570Y-24921D03*
X45570Y-25118D03*
X45570Y-25314D03*
X45570Y-25511D03*
G54D18*
X45000Y-25216D03*
G54D19*
X51259Y-35708D03*
X51259Y-15866D03*
X40472Y-15866D03*
X40472Y-35708D03*
G54D20*
X49700Y-31266D03*
X42622Y-27544D03*
X50208Y-22730D03*
X49661Y-24312D03*
X44932Y-24305D03*
X42838Y-32520D03*
X51474Y-34034D03*
X41693Y-35300D03*
X43626Y-26004D03*
X45228Y-19386D03*
X48582Y-24170D03*
X40463Y-31229D03*
G54D21*
X50600Y-32600D02*
X50600Y-32166D01*
X50600Y-32166D02*
X49700Y-31266D01*
X45299Y-25782D02*
X45570Y-25511D01*
X45260Y-25782D02*
X45299Y-25782D01*
X45260Y-26141D02*
X45260Y-25782D01*
X44099Y-27544D02*
X42622Y-27544D01*
X45260Y-26382D02*
X44099Y-27544D01*
X45260Y-26141D02*
X45260Y-26382D01*
X43500Y-21600D02*
X43500Y-21515D01*
X40393Y-21625D02*
X40960Y-21625D01*
X41071Y-21515D02*
X43500Y-21515D01*
X40960Y-21625D02*
X41071Y-21515D01*
X49800Y-26300D02*
X50058Y-26300D01*
X50058Y-28058D02*
X50058Y-26300D01*
X50600Y-28600D02*
X50058Y-28058D01*
X50782Y-25669D02*
X50059Y-25669D01*
X51959Y-24493D02*
X50782Y-25669D01*
X51959Y-23197D02*
X51959Y-24493D01*
X49811Y-21049D02*
X51959Y-23197D01*
X43814Y-21049D02*
X49811Y-21049D01*
X43500Y-21363D02*
X43814Y-21049D01*
X43500Y-21515D02*
X43500Y-21363D01*
X50059Y-26299D02*
X50058Y-26300D01*
X50059Y-25669D02*
X50059Y-26299D01*
X50059Y-24710D02*
X50059Y-25078D01*
X49661Y-24312D02*
X50059Y-24710D01*
X49828Y-22350D02*
X50208Y-22730D01*
X44100Y-22350D02*
X49828Y-22350D01*
X44100Y-22400D02*
X44100Y-22350D01*
X44100Y-22350D02*
X44100Y-21600D01*
X44147Y-22806D02*
X44100Y-22758D01*
X44147Y-25118D02*
X44147Y-22806D01*
X44429Y-25118D02*
X44147Y-25118D01*
X44100Y-22400D02*
X44100Y-22758D01*
X40020Y-20184D02*
X40393Y-20184D01*
X39826Y-19990D02*
X40020Y-20184D01*
X39826Y-19231D02*
X39826Y-19990D01*
X40013Y-19044D02*
X39826Y-19231D01*
X40393Y-19044D02*
X40013Y-19044D01*
X40393Y-18610D02*
X40393Y-19044D01*
X40393Y-20618D02*
X40393Y-20184D01*
X49700Y-22900D02*
X49441Y-22900D01*
X48917Y-24449D02*
X48917Y-25078D01*
X49441Y-23925D02*
X48917Y-24449D01*
X49441Y-22900D02*
X49441Y-23925D01*
X41556Y-30725D02*
X41556Y-30394D01*
X40393Y-22625D02*
X40393Y-22408D01*
X43500Y-22400D02*
X43241Y-22400D01*
X43232Y-22408D02*
X40393Y-22408D01*
X43241Y-22400D02*
X43232Y-22408D01*
X40020Y-21052D02*
X40393Y-21052D01*
X39826Y-21245D02*
X40020Y-21052D01*
X39826Y-21983D02*
X39826Y-21245D01*
X40251Y-22408D02*
X39826Y-21983D01*
X40393Y-22408D02*
X40251Y-22408D01*
X40393Y-20618D02*
X40393Y-21052D01*
X44429Y-24809D02*
X44932Y-24305D01*
X44429Y-24921D02*
X44429Y-24809D01*
X49441Y-22692D02*
X49441Y-22900D01*
X49289Y-22540D02*
X49441Y-22692D01*
X46697Y-22540D02*
X49289Y-22540D01*
X44932Y-24305D02*
X46697Y-22540D01*
X40748Y-24409D02*
X40314Y-24409D01*
X40100Y-24623D02*
X40314Y-24409D01*
X40100Y-26926D02*
X40100Y-24623D01*
X43617Y-26926D02*
X44401Y-26141D01*
X40100Y-26926D02*
X43617Y-26926D01*
X44660Y-26141D02*
X44401Y-26141D01*
X41556Y-30394D02*
X41556Y-29282D01*
X40100Y-28309D02*
X40100Y-26926D01*
X40357Y-28566D02*
X40100Y-28309D01*
X41110Y-28566D02*
X40357Y-28566D01*
X41556Y-29012D02*
X41110Y-28566D01*
X41556Y-29282D02*
X41556Y-29012D01*
X49200Y-29282D02*
X49200Y-26300D01*
X49282Y-29282D02*
X49200Y-29282D01*
X50600Y-30600D02*
X49282Y-29282D01*
X49200Y-29282D02*
X41556Y-29282D01*
X42392Y-32966D02*
X42838Y-32520D01*
X42200Y-32966D02*
X42392Y-32966D01*
X42200Y-33400D02*
X42200Y-32966D01*
X51474Y-34033D02*
X51474Y-34034D01*
X50600Y-34033D02*
X51474Y-34033D01*
X50600Y-33600D02*
X50600Y-34033D01*
X42416Y-26377D02*
X42416Y-26018D01*
X42682Y-25752D02*
X42416Y-26018D01*
X43016Y-25752D02*
X42682Y-25752D01*
X43016Y-25393D02*
X43016Y-25752D01*
X43016Y-25393D02*
X43275Y-25393D01*
X43016Y-24606D02*
X43016Y-24965D01*
X43143Y-24965D02*
X43016Y-24965D01*
X43354Y-25176D02*
X43143Y-24965D01*
X43354Y-25314D02*
X43354Y-25176D01*
X44429Y-25314D02*
X43354Y-25314D01*
X43354Y-25314D02*
X43275Y-25393D01*
X51300Y-27200D02*
X51300Y-27766D01*
X45570Y-24921D02*
X45852Y-24921D01*
X50378Y-29091D02*
X51296Y-29091D01*
X49459Y-28171D02*
X50378Y-29091D01*
X49459Y-25996D02*
X49459Y-28171D01*
X49403Y-25940D02*
X49459Y-25996D01*
X49011Y-25940D02*
X49403Y-25940D01*
X47613Y-27338D02*
X49011Y-25940D01*
X46887Y-27338D02*
X47613Y-27338D01*
X46810Y-27261D02*
X46887Y-27338D01*
X46810Y-26273D02*
X46810Y-27261D01*
X47406Y-25677D02*
X46810Y-26273D01*
X47491Y-25677D02*
X47406Y-25677D01*
X47756Y-25412D02*
X47491Y-25677D01*
X47756Y-24402D02*
X47756Y-25412D01*
X47706Y-24352D02*
X47756Y-24402D01*
X46421Y-24352D02*
X47706Y-24352D01*
X45852Y-24921D02*
X46421Y-24352D01*
X51296Y-29296D02*
X51296Y-29091D01*
X51600Y-29600D02*
X51296Y-29296D01*
X51296Y-27770D02*
X51300Y-27766D01*
X51296Y-29091D02*
X51296Y-27770D01*
X40748Y-27755D02*
X41182Y-27755D01*
X45570Y-25314D02*
X45852Y-25314D01*
X45852Y-26093D02*
X45852Y-25314D01*
X43971Y-27973D02*
X45852Y-26093D01*
X41399Y-27973D02*
X43971Y-27973D01*
X41182Y-27755D02*
X41399Y-27973D01*
X42200Y-34400D02*
X42200Y-34833D01*
X42159Y-34833D02*
X41693Y-35300D01*
X42200Y-34833D02*
X42159Y-34833D01*
X47322Y-24921D02*
X46888Y-24921D01*
X45570Y-25118D02*
X46062Y-25118D01*
X46692Y-25118D02*
X46888Y-24921D01*
X46062Y-25118D02*
X46692Y-25118D01*
X43016Y-26377D02*
X43275Y-26377D01*
X44757Y-25690D02*
X44566Y-25690D01*
X44919Y-25852D02*
X44757Y-25690D01*
X44919Y-26445D02*
X44919Y-25852D01*
X44249Y-27115D02*
X44919Y-26445D01*
X40445Y-27115D02*
X44249Y-27115D01*
X40314Y-27246D02*
X40445Y-27115D01*
X40314Y-28246D02*
X40314Y-27246D01*
X40392Y-28324D02*
X40314Y-28246D01*
X43894Y-28324D02*
X40392Y-28324D01*
X46062Y-26157D02*
X43894Y-28324D01*
X46062Y-25118D02*
X46062Y-26157D01*
X44566Y-25648D02*
X44566Y-25690D01*
X44429Y-25511D02*
X44566Y-25648D01*
X43340Y-26443D02*
X43275Y-26377D01*
X43814Y-26443D02*
X43340Y-26443D01*
X44566Y-25690D02*
X43814Y-26443D01*
X48917Y-25472D02*
X48776Y-25472D01*
X48917Y-25669D02*
X48635Y-25669D01*
X47244Y-26771D02*
X47678Y-26771D01*
X47678Y-26626D02*
X47678Y-26771D01*
X48635Y-25669D02*
X47678Y-26626D01*
X47900Y-22900D02*
X47900Y-23258D01*
X48709Y-25472D02*
X48635Y-25546D01*
X48776Y-25472D02*
X48709Y-25472D01*
X48635Y-25546D02*
X48635Y-25669D01*
X47982Y-23341D02*
X47900Y-23258D01*
X47982Y-24893D02*
X47982Y-23341D01*
X48635Y-25546D02*
X47982Y-24893D01*
X42416Y-24606D02*
X42157Y-24606D01*
X42821Y-26004D02*
X43626Y-26004D01*
X42716Y-26109D02*
X42821Y-26004D01*
X42716Y-26620D02*
X42716Y-26109D01*
X42600Y-26736D02*
X42716Y-26620D01*
X40750Y-26736D02*
X42600Y-26736D01*
X40314Y-26300D02*
X40750Y-26736D01*
X40314Y-25298D02*
X40314Y-26300D01*
X40578Y-25034D02*
X40314Y-25298D01*
X41729Y-25034D02*
X40578Y-25034D01*
X42157Y-24606D02*
X41729Y-25034D01*
X44010Y-18168D02*
X45228Y-19386D01*
X40081Y-18168D02*
X44010Y-18168D01*
X39630Y-18619D02*
X40081Y-18168D01*
X39630Y-29043D02*
X39630Y-18619D01*
X41181Y-30594D02*
X39630Y-29043D01*
X41181Y-31557D02*
X41181Y-30594D01*
X48635Y-24222D02*
X48582Y-24170D01*
X48635Y-25275D02*
X48635Y-24222D01*
X48917Y-25275D02*
X48635Y-25275D01*
X48500Y-22900D02*
X48758Y-22900D01*
X49100Y-23600D02*
X49100Y-22900D01*
X49100Y-22900D02*
X48758Y-22900D01*
X51700Y-24200D02*
X51700Y-23500D01*
X49700Y-23600D02*
X49958Y-23600D01*
X50350Y-23990D02*
X50349Y-23990D01*
X50841Y-23500D02*
X50350Y-23990D01*
X50349Y-25184D02*
X50349Y-23990D01*
X50258Y-25275D02*
X50349Y-25184D01*
X50059Y-25275D02*
X50258Y-25275D01*
X50349Y-23990D02*
X49958Y-23600D01*
X51100Y-23500D02*
X50841Y-23500D01*
X40806Y-30725D02*
X40554Y-30725D01*
X40554Y-31138D02*
X40463Y-31229D01*
X40554Y-30725D02*
X40554Y-31138D01*
X41575Y-25393D02*
X41182Y-25787D01*
X42204Y-25393D02*
X41575Y-25393D01*
X50059Y-25472D02*
X50340Y-25472D01*
X40748Y-25787D02*
X41182Y-25787D01*
X42334Y-25393D02*
X42204Y-25393D01*
X42334Y-25393D02*
X42346Y-25393D01*
X42416Y-25393D02*
X42346Y-25393D01*
X42416Y-25393D02*
X42675Y-25393D01*
X51100Y-24713D02*
X51100Y-24200D01*
X50340Y-25472D02*
X51100Y-24713D01*
X51100Y-24200D02*
X51358Y-24200D01*
X51358Y-23214D02*
X51358Y-24200D01*
X49383Y-21238D02*
X51358Y-23214D01*
X43909Y-21238D02*
X49383Y-21238D01*
X43840Y-21307D02*
X43909Y-21238D01*
X43840Y-22617D02*
X43840Y-21307D01*
X42675Y-23782D02*
X43840Y-22617D01*
X42675Y-25393D02*
X42675Y-23782D01*
G54D10*
G36*
X43557Y-22450D02*
X43550Y-22450D01*
X43550Y-22457D01*
X43450Y-22457D01*
X43450Y-22450D01*
X43187Y-22450D01*
X43125Y-22512D01*
X43125Y-22575D01*
X43125Y-22674D01*
X43163Y-22766D01*
X43233Y-22836D01*
X43284Y-22858D01*
X42517Y-23624D01*
X42469Y-23697D01*
X42466Y-23711D01*
X42452Y-23782D01*
X42452Y-23782D01*
X42452Y-24213D01*
X42258Y-24213D01*
X42196Y-24238D01*
X42149Y-24286D01*
X42123Y-24347D01*
X42123Y-24389D01*
X42086Y-24397D01*
X42072Y-24400D01*
X41999Y-24448D01*
X41999Y-24448D01*
X41636Y-24811D01*
X41298Y-24811D01*
X41298Y-24792D01*
X41298Y-24521D01*
X41298Y-24296D01*
X41298Y-24026D01*
X41298Y-23926D01*
X41259Y-23834D01*
X41189Y-23764D01*
X41097Y-23726D01*
X41059Y-23726D01*
X41059Y-22761D01*
X41011Y-22675D01*
X40443Y-22675D01*
X40443Y-23175D01*
X40576Y-23175D01*
X40783Y-23114D01*
X40950Y-22979D01*
X41053Y-22790D01*
X41059Y-22761D01*
X41059Y-23726D01*
X40860Y-23726D01*
X40798Y-23788D01*
X40798Y-24359D01*
X41235Y-24359D01*
X41298Y-24296D01*
X41298Y-24521D01*
X41235Y-24459D01*
X40798Y-24459D01*
X40798Y-24467D01*
X40698Y-24467D01*
X40698Y-24459D01*
X40698Y-24359D01*
X40698Y-23788D01*
X40635Y-23726D01*
X40398Y-23726D01*
X40306Y-23764D01*
X40236Y-23834D01*
X40198Y-23926D01*
X40198Y-24026D01*
X40198Y-24296D01*
X40260Y-24359D01*
X40698Y-24359D01*
X40698Y-24459D01*
X40260Y-24459D01*
X40198Y-24521D01*
X40198Y-24792D01*
X40198Y-24892D01*
X40236Y-24984D01*
X40274Y-25022D01*
X40156Y-25141D01*
X40107Y-25213D01*
X40104Y-25227D01*
X40090Y-25298D01*
X40090Y-25298D01*
X40090Y-26300D01*
X40090Y-26300D01*
X40104Y-26371D01*
X40107Y-26386D01*
X40156Y-26458D01*
X40589Y-26891D01*
X40445Y-26891D01*
X40445Y-26891D01*
X40374Y-26906D01*
X40360Y-26908D01*
X40287Y-26957D01*
X40156Y-27088D01*
X40107Y-27161D01*
X40104Y-27175D01*
X40090Y-27246D01*
X40090Y-27246D01*
X40090Y-28246D01*
X40090Y-28246D01*
X40104Y-28317D01*
X40107Y-28331D01*
X40156Y-28403D01*
X40234Y-28482D01*
X40234Y-28482D01*
X40306Y-28530D01*
X40383Y-28545D01*
X40352Y-28558D01*
X40305Y-28605D01*
X40279Y-28667D01*
X40279Y-28734D01*
X40279Y-29377D01*
X39853Y-28950D01*
X39853Y-22993D01*
X40004Y-23114D01*
X40210Y-23175D01*
X40343Y-23175D01*
X40343Y-22675D01*
X40335Y-22675D01*
X40335Y-22575D01*
X40343Y-22575D01*
X40343Y-22568D01*
X40443Y-22568D01*
X40443Y-22575D01*
X41011Y-22575D01*
X41059Y-22490D01*
X41053Y-22461D01*
X40950Y-22272D01*
X40783Y-22136D01*
X40638Y-22094D01*
X40860Y-22094D01*
X40921Y-22068D01*
X40969Y-22021D01*
X40994Y-21959D01*
X40994Y-21892D01*
X40994Y-21842D01*
X40994Y-21842D01*
X41031Y-21835D01*
X41046Y-21832D01*
X41046Y-21832D01*
X41118Y-21783D01*
X41163Y-21738D01*
X43206Y-21738D01*
X43206Y-21858D01*
X43232Y-21920D01*
X43263Y-21950D01*
X43233Y-21963D01*
X43163Y-22033D01*
X43125Y-22125D01*
X43125Y-22224D01*
X43125Y-22287D01*
X43187Y-22350D01*
X43450Y-22350D01*
X43450Y-22342D01*
X43550Y-22342D01*
X43550Y-22350D01*
X43557Y-22350D01*
X43557Y-22450D01*
X43557Y-22450D01*
G37*
G54D22*
X43557Y-22450D02*
X43550Y-22450D01*
X43550Y-22457D01*
X43450Y-22457D01*
X43450Y-22450D01*
X43187Y-22450D01*
X43125Y-22512D01*
X43125Y-22575D01*
X43125Y-22674D01*
X43163Y-22766D01*
X43233Y-22836D01*
X43284Y-22858D01*
X42517Y-23624D01*
X42469Y-23697D01*
X42466Y-23711D01*
X42452Y-23782D01*
X42452Y-23782D01*
X42452Y-24213D01*
X42258Y-24213D01*
X42196Y-24238D01*
X42149Y-24286D01*
X42123Y-24347D01*
X42123Y-24389D01*
X42086Y-24397D01*
X42072Y-24400D01*
X41999Y-24448D01*
X41999Y-24448D01*
X41636Y-24811D01*
X41298Y-24811D01*
X41298Y-24792D01*
X41298Y-24521D01*
X41298Y-24296D01*
X41298Y-24026D01*
X41298Y-23926D01*
X41259Y-23834D01*
X41189Y-23764D01*
X41097Y-23726D01*
X41059Y-23726D01*
X41059Y-22761D01*
X41011Y-22675D01*
X40443Y-22675D01*
X40443Y-23175D01*
X40576Y-23175D01*
X40783Y-23114D01*
X40950Y-22979D01*
X41053Y-22790D01*
X41059Y-22761D01*
X41059Y-23726D01*
X40860Y-23726D01*
X40798Y-23788D01*
X40798Y-24359D01*
X41235Y-24359D01*
X41298Y-24296D01*
X41298Y-24521D01*
X41235Y-24459D01*
X40798Y-24459D01*
X40798Y-24467D01*
X40698Y-24467D01*
X40698Y-24459D01*
X40698Y-24359D01*
X40698Y-23788D01*
X40635Y-23726D01*
X40398Y-23726D01*
X40306Y-23764D01*
X40236Y-23834D01*
X40198Y-23926D01*
X40198Y-24026D01*
X40198Y-24296D01*
X40260Y-24359D01*
X40698Y-24359D01*
X40698Y-24459D01*
X40260Y-24459D01*
X40198Y-24521D01*
X40198Y-24792D01*
X40198Y-24892D01*
X40236Y-24984D01*
X40274Y-25022D01*
X40156Y-25141D01*
X40107Y-25213D01*
X40104Y-25227D01*
X40090Y-25298D01*
X40090Y-25298D01*
X40090Y-26300D01*
X40090Y-26300D01*
X40104Y-26371D01*
X40107Y-26386D01*
X40156Y-26458D01*
X40589Y-26891D01*
X40445Y-26891D01*
X40445Y-26891D01*
X40374Y-26906D01*
X40360Y-26908D01*
X40287Y-26957D01*
X40156Y-27088D01*
X40107Y-27161D01*
X40104Y-27175D01*
X40090Y-27246D01*
X40090Y-27246D01*
X40090Y-28246D01*
X40090Y-28246D01*
X40104Y-28317D01*
X40107Y-28331D01*
X40156Y-28403D01*
X40234Y-28482D01*
X40234Y-28482D01*
X40306Y-28530D01*
X40383Y-28545D01*
X40352Y-28558D01*
X40305Y-28605D01*
X40279Y-28667D01*
X40279Y-28734D01*
X40279Y-29377D01*
X39853Y-28950D01*
X39853Y-22993D01*
X40004Y-23114D01*
X40210Y-23175D01*
X40343Y-23175D01*
X40343Y-22675D01*
X40335Y-22675D01*
X40335Y-22575D01*
X40343Y-22575D01*
X40343Y-22568D01*
X40443Y-22568D01*
X40443Y-22575D01*
X41011Y-22575D01*
X41059Y-22490D01*
X41053Y-22461D01*
X40950Y-22272D01*
X40783Y-22136D01*
X40638Y-22094D01*
X40860Y-22094D01*
X40921Y-22068D01*
X40969Y-22021D01*
X40994Y-21959D01*
X40994Y-21892D01*
X40994Y-21842D01*
X40994Y-21842D01*
X41031Y-21835D01*
X41046Y-21832D01*
X41046Y-21832D01*
X41118Y-21783D01*
X41163Y-21738D01*
X43206Y-21738D01*
X43206Y-21858D01*
X43232Y-21920D01*
X43263Y-21950D01*
X43233Y-21963D01*
X43163Y-22033D01*
X43125Y-22125D01*
X43125Y-22224D01*
X43125Y-22287D01*
X43187Y-22350D01*
X43450Y-22350D01*
X43450Y-22342D01*
X43550Y-22342D01*
X43550Y-22350D01*
X43557Y-22350D01*
X43557Y-22450D01*
G54D10*
G36*
X44696Y-26199D02*
X44610Y-26199D01*
X44610Y-26191D01*
X44602Y-26191D01*
X44602Y-26091D01*
X44610Y-26091D01*
X44610Y-26083D01*
X44696Y-26083D01*
X44696Y-26199D01*
X44696Y-26199D01*
G37*
G54D22*
X44696Y-26199D02*
X44610Y-26199D01*
X44610Y-26191D01*
X44602Y-26191D01*
X44602Y-26091D01*
X44610Y-26091D01*
X44610Y-26083D01*
X44696Y-26083D01*
X44696Y-26199D01*
G54D10*
G36*
X47759Y-24139D02*
X47706Y-24128D01*
X47706Y-24128D01*
X46421Y-24128D01*
X46421Y-24128D01*
X46350Y-24143D01*
X46336Y-24145D01*
X46263Y-24194D01*
X46263Y-24194D01*
X45760Y-24697D01*
X45751Y-24694D01*
X45685Y-24694D01*
X45389Y-24694D01*
X45328Y-24719D01*
X45280Y-24766D01*
X45278Y-24772D01*
X44810Y-24772D01*
X44788Y-24720D01*
X44718Y-24650D01*
X44626Y-24612D01*
X44541Y-24612D01*
X44479Y-24674D01*
X44479Y-24890D01*
X44379Y-24890D01*
X44379Y-24674D01*
X44370Y-24666D01*
X44370Y-22806D01*
X44370Y-22806D01*
X44370Y-22806D01*
X44355Y-22731D01*
X44367Y-22720D01*
X44393Y-22658D01*
X44393Y-22591D01*
X44393Y-22573D01*
X47639Y-22573D01*
X47632Y-22579D01*
X47606Y-22641D01*
X47606Y-22708D01*
X47606Y-23158D01*
X47632Y-23220D01*
X47678Y-23265D01*
X47690Y-23330D01*
X47693Y-23344D01*
X47742Y-23416D01*
X47759Y-23433D01*
X47759Y-24139D01*
X47759Y-24139D01*
G37*
G54D22*
X47759Y-24139D02*
X47706Y-24128D01*
X47706Y-24128D01*
X46421Y-24128D01*
X46421Y-24128D01*
X46350Y-24143D01*
X46336Y-24145D01*
X46263Y-24194D01*
X46263Y-24194D01*
X45760Y-24697D01*
X45751Y-24694D01*
X45685Y-24694D01*
X45389Y-24694D01*
X45328Y-24719D01*
X45280Y-24766D01*
X45278Y-24772D01*
X44810Y-24772D01*
X44788Y-24720D01*
X44718Y-24650D01*
X44626Y-24612D01*
X44541Y-24612D01*
X44479Y-24674D01*
X44479Y-24890D01*
X44379Y-24890D01*
X44379Y-24674D01*
X44370Y-24666D01*
X44370Y-22806D01*
X44370Y-22806D01*
X44370Y-22806D01*
X44355Y-22731D01*
X44367Y-22720D01*
X44393Y-22658D01*
X44393Y-22591D01*
X44393Y-22573D01*
X47639Y-22573D01*
X47632Y-22579D01*
X47606Y-22641D01*
X47606Y-22708D01*
X47606Y-23158D01*
X47632Y-23220D01*
X47678Y-23265D01*
X47690Y-23330D01*
X47693Y-23344D01*
X47742Y-23416D01*
X47759Y-23433D01*
X47759Y-24139D01*
G54D10*
G36*
X49757Y-22950D02*
X49750Y-22950D01*
X49750Y-22957D01*
X49650Y-22957D01*
X49650Y-22950D01*
X49642Y-22950D01*
X49642Y-22850D01*
X49650Y-22850D01*
X49650Y-22842D01*
X49750Y-22842D01*
X49750Y-22850D01*
X49756Y-22850D01*
X49757Y-22852D01*
X49757Y-22950D01*
X49757Y-22950D01*
G37*
G54D22*
X49757Y-22950D02*
X49750Y-22950D01*
X49750Y-22957D01*
X49650Y-22957D01*
X49650Y-22950D01*
X49642Y-22950D01*
X49642Y-22850D01*
X49650Y-22850D01*
X49650Y-22842D01*
X49750Y-22842D01*
X49750Y-22850D01*
X49756Y-22850D01*
X49757Y-22852D01*
X49757Y-22950D01*
G54D10*
G36*
X52115Y-23038D02*
X51766Y-22688D01*
X51766Y-19344D01*
X51766Y-19074D01*
X51760Y-19045D01*
X51657Y-18855D01*
X51489Y-18720D01*
X51344Y-18677D01*
X51566Y-18677D01*
X51628Y-18651D01*
X51675Y-18604D01*
X51701Y-18542D01*
X51701Y-18476D01*
X51701Y-17876D01*
X51675Y-17814D01*
X51628Y-17766D01*
X51566Y-17741D01*
X51499Y-17741D01*
X50633Y-17741D01*
X50571Y-17766D01*
X50524Y-17814D01*
X50498Y-17876D01*
X50498Y-17942D01*
X50498Y-18542D01*
X50524Y-18604D01*
X50571Y-18651D01*
X50633Y-18677D01*
X50700Y-18677D01*
X50855Y-18677D01*
X50710Y-18720D01*
X50542Y-18855D01*
X50439Y-19045D01*
X50433Y-19074D01*
X50482Y-19159D01*
X51050Y-19159D01*
X51050Y-19151D01*
X51150Y-19151D01*
X51150Y-19159D01*
X51717Y-19159D01*
X51766Y-19074D01*
X51766Y-19344D01*
X51717Y-19259D01*
X51150Y-19259D01*
X51150Y-19759D01*
X51283Y-19759D01*
X51489Y-19698D01*
X51657Y-19563D01*
X51760Y-19373D01*
X51766Y-19344D01*
X51766Y-22688D01*
X51050Y-21972D01*
X51050Y-19759D01*
X51050Y-19259D01*
X50482Y-19259D01*
X50433Y-19344D01*
X50439Y-19373D01*
X50542Y-19563D01*
X50710Y-19698D01*
X50917Y-19759D01*
X51050Y-19759D01*
X51050Y-21972D01*
X49969Y-20891D01*
X49896Y-20843D01*
X49882Y-20840D01*
X49811Y-20826D01*
X49811Y-20826D01*
X43814Y-20826D01*
X43814Y-20826D01*
X43742Y-20840D01*
X43728Y-20843D01*
X43656Y-20891D01*
X43656Y-20891D01*
X43342Y-21206D01*
X43341Y-21206D01*
X43341Y-21206D01*
X43279Y-21232D01*
X43232Y-21279D01*
X43227Y-21292D01*
X41071Y-21292D01*
X40994Y-21307D01*
X40994Y-21292D01*
X40969Y-21230D01*
X40921Y-21183D01*
X40860Y-21157D01*
X40793Y-21157D01*
X40611Y-21157D01*
X40783Y-21107D01*
X40950Y-20971D01*
X41053Y-20782D01*
X41059Y-20753D01*
X41011Y-20668D01*
X40443Y-20668D01*
X40443Y-20675D01*
X40343Y-20675D01*
X40343Y-20668D01*
X40335Y-20668D01*
X40335Y-20568D01*
X40343Y-20568D01*
X40343Y-20560D01*
X40443Y-20560D01*
X40443Y-20568D01*
X41011Y-20568D01*
X41059Y-20483D01*
X41053Y-20453D01*
X40950Y-20264D01*
X40783Y-20129D01*
X40638Y-20086D01*
X40860Y-20086D01*
X40921Y-20060D01*
X40969Y-20013D01*
X40994Y-19951D01*
X40994Y-19884D01*
X40994Y-19284D01*
X40969Y-19222D01*
X40921Y-19175D01*
X40860Y-19150D01*
X40793Y-19150D01*
X40611Y-19150D01*
X40783Y-19099D01*
X40950Y-18963D01*
X41053Y-18774D01*
X41059Y-18745D01*
X41011Y-18660D01*
X40443Y-18660D01*
X40443Y-18668D01*
X40343Y-18668D01*
X40343Y-18660D01*
X40335Y-18660D01*
X40335Y-18560D01*
X40343Y-18560D01*
X40343Y-18552D01*
X40443Y-18552D01*
X40443Y-18560D01*
X41011Y-18560D01*
X41059Y-18475D01*
X41053Y-18445D01*
X41024Y-18391D01*
X43917Y-18391D01*
X44781Y-19255D01*
X44765Y-19294D01*
X44765Y-19478D01*
X44835Y-19648D01*
X44965Y-19779D01*
X45136Y-19850D01*
X45320Y-19850D01*
X45490Y-19779D01*
X45621Y-19649D01*
X45692Y-19479D01*
X45692Y-19295D01*
X45621Y-19124D01*
X45491Y-18994D01*
X45321Y-18923D01*
X45136Y-18923D01*
X45097Y-18939D01*
X44168Y-18010D01*
X44095Y-17962D01*
X44081Y-17959D01*
X44010Y-17945D01*
X44010Y-17945D01*
X40994Y-17945D01*
X40994Y-17943D01*
X40994Y-17876D01*
X40994Y-17276D01*
X40969Y-17215D01*
X40921Y-17167D01*
X40860Y-17142D01*
X40793Y-17142D01*
X39927Y-17142D01*
X39865Y-17167D01*
X39818Y-17215D01*
X39792Y-17276D01*
X39792Y-17343D01*
X39792Y-17943D01*
X39818Y-18005D01*
X39865Y-18052D01*
X39876Y-18057D01*
X39616Y-18316D01*
X39616Y-16529D01*
X39863Y-16776D01*
X40257Y-16939D01*
X40685Y-16940D01*
X41080Y-16777D01*
X41382Y-16475D01*
X41546Y-16080D01*
X41546Y-15653D01*
X41383Y-15258D01*
X41135Y-15010D01*
X50596Y-15010D01*
X50349Y-15256D01*
X50186Y-15651D01*
X50185Y-16078D01*
X50348Y-16473D01*
X50650Y-16776D01*
X51045Y-16939D01*
X51472Y-16940D01*
X51867Y-16777D01*
X52115Y-16529D01*
X52115Y-23038D01*
X52115Y-23038D01*
G37*
G54D22*
X52115Y-23038D02*
X51766Y-22688D01*
X51766Y-19344D01*
X51766Y-19074D01*
X51760Y-19045D01*
X51657Y-18855D01*
X51489Y-18720D01*
X51344Y-18677D01*
X51566Y-18677D01*
X51628Y-18651D01*
X51675Y-18604D01*
X51701Y-18542D01*
X51701Y-18476D01*
X51701Y-17876D01*
X51675Y-17814D01*
X51628Y-17766D01*
X51566Y-17741D01*
X51499Y-17741D01*
X50633Y-17741D01*
X50571Y-17766D01*
X50524Y-17814D01*
X50498Y-17876D01*
X50498Y-17942D01*
X50498Y-18542D01*
X50524Y-18604D01*
X50571Y-18651D01*
X50633Y-18677D01*
X50700Y-18677D01*
X50855Y-18677D01*
X50710Y-18720D01*
X50542Y-18855D01*
X50439Y-19045D01*
X50433Y-19074D01*
X50482Y-19159D01*
X51050Y-19159D01*
X51050Y-19151D01*
X51150Y-19151D01*
X51150Y-19159D01*
X51717Y-19159D01*
X51766Y-19074D01*
X51766Y-19344D01*
X51717Y-19259D01*
X51150Y-19259D01*
X51150Y-19759D01*
X51283Y-19759D01*
X51489Y-19698D01*
X51657Y-19563D01*
X51760Y-19373D01*
X51766Y-19344D01*
X51766Y-22688D01*
X51050Y-21972D01*
X51050Y-19759D01*
X51050Y-19259D01*
X50482Y-19259D01*
X50433Y-19344D01*
X50439Y-19373D01*
X50542Y-19563D01*
X50710Y-19698D01*
X50917Y-19759D01*
X51050Y-19759D01*
X51050Y-21972D01*
X49969Y-20891D01*
X49896Y-20843D01*
X49882Y-20840D01*
X49811Y-20826D01*
X49811Y-20826D01*
X43814Y-20826D01*
X43814Y-20826D01*
X43742Y-20840D01*
X43728Y-20843D01*
X43656Y-20891D01*
X43656Y-20891D01*
X43342Y-21206D01*
X43341Y-21206D01*
X43341Y-21206D01*
X43279Y-21232D01*
X43232Y-21279D01*
X43227Y-21292D01*
X41071Y-21292D01*
X40994Y-21307D01*
X40994Y-21292D01*
X40969Y-21230D01*
X40921Y-21183D01*
X40860Y-21157D01*
X40793Y-21157D01*
X40611Y-21157D01*
X40783Y-21107D01*
X40950Y-20971D01*
X41053Y-20782D01*
X41059Y-20753D01*
X41011Y-20668D01*
X40443Y-20668D01*
X40443Y-20675D01*
X40343Y-20675D01*
X40343Y-20668D01*
X40335Y-20668D01*
X40335Y-20568D01*
X40343Y-20568D01*
X40343Y-20560D01*
X40443Y-20560D01*
X40443Y-20568D01*
X41011Y-20568D01*
X41059Y-20483D01*
X41053Y-20453D01*
X40950Y-20264D01*
X40783Y-20129D01*
X40638Y-20086D01*
X40860Y-20086D01*
X40921Y-20060D01*
X40969Y-20013D01*
X40994Y-19951D01*
X40994Y-19884D01*
X40994Y-19284D01*
X40969Y-19222D01*
X40921Y-19175D01*
X40860Y-19150D01*
X40793Y-19150D01*
X40611Y-19150D01*
X40783Y-19099D01*
X40950Y-18963D01*
X41053Y-18774D01*
X41059Y-18745D01*
X41011Y-18660D01*
X40443Y-18660D01*
X40443Y-18668D01*
X40343Y-18668D01*
X40343Y-18660D01*
X40335Y-18660D01*
X40335Y-18560D01*
X40343Y-18560D01*
X40343Y-18552D01*
X40443Y-18552D01*
X40443Y-18560D01*
X41011Y-18560D01*
X41059Y-18475D01*
X41053Y-18445D01*
X41024Y-18391D01*
X43917Y-18391D01*
X44781Y-19255D01*
X44765Y-19294D01*
X44765Y-19478D01*
X44835Y-19648D01*
X44965Y-19779D01*
X45136Y-19850D01*
X45320Y-19850D01*
X45490Y-19779D01*
X45621Y-19649D01*
X45692Y-19479D01*
X45692Y-19295D01*
X45621Y-19124D01*
X45491Y-18994D01*
X45321Y-18923D01*
X45136Y-18923D01*
X45097Y-18939D01*
X44168Y-18010D01*
X44095Y-17962D01*
X44081Y-17959D01*
X44010Y-17945D01*
X44010Y-17945D01*
X40994Y-17945D01*
X40994Y-17943D01*
X40994Y-17876D01*
X40994Y-17276D01*
X40969Y-17215D01*
X40921Y-17167D01*
X40860Y-17142D01*
X40793Y-17142D01*
X39927Y-17142D01*
X39865Y-17167D01*
X39818Y-17215D01*
X39792Y-17276D01*
X39792Y-17343D01*
X39792Y-17943D01*
X39818Y-18005D01*
X39865Y-18052D01*
X39876Y-18057D01*
X39616Y-18316D01*
X39616Y-16529D01*
X39863Y-16776D01*
X40257Y-16939D01*
X40685Y-16940D01*
X41080Y-16777D01*
X41382Y-16475D01*
X41546Y-16080D01*
X41546Y-15653D01*
X41383Y-15258D01*
X41135Y-15010D01*
X50596Y-15010D01*
X50349Y-15256D01*
X50186Y-15651D01*
X50185Y-16078D01*
X50348Y-16473D01*
X50650Y-16776D01*
X51045Y-16939D01*
X51472Y-16940D01*
X51867Y-16777D01*
X52115Y-16529D01*
X52115Y-23038D01*
G54D10*
G36*
X52115Y-35045D02*
X51938Y-34868D01*
X51938Y-33942D01*
X51867Y-33772D01*
X51737Y-33641D01*
X51567Y-33571D01*
X51382Y-33571D01*
X51212Y-33641D01*
X51202Y-33651D01*
X51212Y-33600D01*
X51208Y-33579D01*
X51208Y-30694D01*
X51198Y-30454D01*
X51126Y-30279D01*
X51025Y-30245D01*
X50954Y-30316D01*
X50954Y-30174D01*
X50920Y-30073D01*
X50694Y-29991D01*
X50454Y-30001D01*
X50279Y-30073D01*
X50245Y-30174D01*
X50600Y-30529D01*
X50954Y-30174D01*
X50954Y-30316D01*
X50670Y-30600D01*
X51025Y-30954D01*
X51126Y-30920D01*
X51208Y-30694D01*
X51208Y-33579D01*
X51201Y-33540D01*
X51201Y-32933D01*
X51201Y-32866D01*
X51201Y-32266D01*
X51175Y-32204D01*
X51128Y-32157D01*
X51066Y-32131D01*
X50999Y-32131D01*
X50954Y-32131D01*
X50954Y-31025D01*
X50600Y-30670D01*
X50529Y-30741D01*
X50529Y-30600D01*
X50174Y-30245D01*
X50073Y-30279D01*
X49991Y-30505D01*
X50001Y-30745D01*
X50073Y-30920D01*
X50174Y-30954D01*
X50529Y-30600D01*
X50529Y-30741D01*
X50245Y-31025D01*
X50279Y-31126D01*
X50505Y-31208D01*
X50745Y-31198D01*
X50920Y-31126D01*
X50954Y-31025D01*
X50954Y-32131D01*
X50816Y-32131D01*
X50806Y-32080D01*
X50757Y-32008D01*
X50757Y-32008D01*
X50147Y-31397D01*
X50163Y-31358D01*
X50163Y-31174D01*
X50093Y-31003D01*
X49962Y-30873D01*
X49792Y-30802D01*
X49608Y-30802D01*
X49437Y-30872D01*
X49307Y-31003D01*
X49236Y-31173D01*
X49236Y-31357D01*
X49306Y-31528D01*
X49437Y-31658D01*
X49607Y-31729D01*
X49791Y-31729D01*
X49831Y-31713D01*
X50250Y-32131D01*
X50133Y-32131D01*
X50071Y-32157D01*
X50024Y-32204D01*
X49998Y-32266D01*
X49998Y-32333D01*
X49998Y-32933D01*
X50024Y-32995D01*
X50071Y-33042D01*
X50133Y-33068D01*
X50200Y-33068D01*
X51066Y-33068D01*
X51128Y-33042D01*
X51175Y-32995D01*
X51201Y-32933D01*
X51201Y-33540D01*
X51177Y-33420D01*
X51075Y-33268D01*
X50923Y-33167D01*
X50744Y-33131D01*
X50455Y-33131D01*
X50276Y-33167D01*
X50124Y-33268D01*
X50022Y-33420D01*
X49987Y-33600D01*
X50022Y-33779D01*
X50124Y-33931D01*
X50276Y-34032D01*
X50380Y-34053D01*
X50393Y-34119D01*
X50442Y-34191D01*
X50514Y-34240D01*
X50600Y-34257D01*
X51065Y-34257D01*
X51081Y-34296D01*
X51211Y-34427D01*
X51382Y-34497D01*
X51566Y-34498D01*
X51736Y-34427D01*
X51867Y-34297D01*
X51938Y-34127D01*
X51938Y-33942D01*
X51938Y-34868D01*
X51869Y-34798D01*
X51474Y-34634D01*
X51047Y-34634D01*
X50652Y-34797D01*
X50349Y-35099D01*
X50186Y-35494D01*
X50185Y-35921D01*
X50348Y-36316D01*
X50596Y-36564D01*
X43301Y-36564D01*
X43301Y-32428D01*
X43231Y-32257D01*
X43100Y-32127D01*
X42930Y-32056D01*
X42746Y-32056D01*
X42575Y-32127D01*
X42445Y-32257D01*
X42374Y-32427D01*
X42374Y-32611D01*
X42391Y-32651D01*
X42299Y-32742D01*
X42200Y-32742D01*
X42114Y-32759D01*
X42042Y-32808D01*
X41993Y-32880D01*
X41980Y-32946D01*
X41924Y-32957D01*
X41924Y-30972D01*
X41924Y-30873D01*
X41924Y-30838D01*
X41924Y-30613D01*
X41924Y-30578D01*
X41924Y-30479D01*
X41886Y-30387D01*
X41815Y-30316D01*
X41723Y-30278D01*
X41668Y-30278D01*
X41606Y-30341D01*
X41606Y-30675D01*
X41861Y-30675D01*
X41924Y-30613D01*
X41924Y-30838D01*
X41861Y-30775D01*
X41606Y-30775D01*
X41606Y-31110D01*
X41668Y-31172D01*
X41723Y-31172D01*
X41815Y-31134D01*
X41886Y-31064D01*
X41924Y-30972D01*
X41924Y-32957D01*
X41876Y-32967D01*
X41724Y-33068D01*
X41622Y-33220D01*
X41587Y-33400D01*
X41622Y-33579D01*
X41724Y-33731D01*
X41876Y-33832D01*
X42055Y-33868D01*
X42344Y-33868D01*
X42523Y-33832D01*
X42675Y-33731D01*
X42777Y-33579D01*
X42812Y-33400D01*
X42777Y-33220D01*
X42675Y-33068D01*
X42633Y-33040D01*
X42706Y-32967D01*
X42745Y-32983D01*
X42929Y-32983D01*
X43100Y-32913D01*
X43230Y-32782D01*
X43301Y-32612D01*
X43301Y-32428D01*
X43301Y-36564D01*
X41135Y-36564D01*
X41382Y-36317D01*
X41546Y-35923D01*
X41546Y-35740D01*
X41600Y-35763D01*
X41785Y-35763D01*
X41955Y-35693D01*
X42086Y-35563D01*
X42156Y-35392D01*
X42156Y-35208D01*
X42140Y-35168D01*
X42265Y-35044D01*
X42285Y-35040D01*
X42357Y-34991D01*
X42406Y-34919D01*
X42416Y-34868D01*
X42666Y-34868D01*
X42728Y-34842D01*
X42775Y-34795D01*
X42801Y-34733D01*
X42801Y-34666D01*
X42801Y-34066D01*
X42775Y-34004D01*
X42728Y-33957D01*
X42666Y-33931D01*
X42599Y-33931D01*
X41733Y-33931D01*
X41671Y-33957D01*
X41624Y-34004D01*
X41598Y-34066D01*
X41598Y-34133D01*
X41598Y-34733D01*
X41624Y-34795D01*
X41666Y-34836D01*
X41601Y-34836D01*
X41431Y-34907D01*
X41310Y-35027D01*
X41081Y-34798D01*
X40687Y-34634D01*
X40259Y-34634D01*
X39864Y-34797D01*
X39616Y-35045D01*
X39616Y-29345D01*
X40638Y-30367D01*
X40592Y-30386D01*
X40545Y-30433D01*
X40519Y-30495D01*
X40519Y-30509D01*
X40468Y-30519D01*
X40396Y-30567D01*
X40347Y-30640D01*
X40330Y-30725D01*
X40330Y-30782D01*
X40201Y-30836D01*
X40070Y-30966D01*
X40000Y-31136D01*
X39999Y-31321D01*
X40070Y-31491D01*
X40200Y-31621D01*
X40370Y-31692D01*
X40555Y-31692D01*
X40725Y-31622D01*
X40856Y-31492D01*
X40894Y-31398D01*
X40894Y-31788D01*
X40920Y-31849D01*
X40967Y-31897D01*
X41029Y-31922D01*
X41096Y-31922D01*
X41332Y-31922D01*
X41394Y-31897D01*
X41441Y-31849D01*
X41467Y-31788D01*
X41467Y-31721D01*
X41467Y-31327D01*
X41441Y-31265D01*
X41404Y-31228D01*
X41404Y-31172D01*
X41443Y-31172D01*
X41506Y-31110D01*
X41506Y-30775D01*
X41498Y-30775D01*
X41498Y-30675D01*
X41506Y-30675D01*
X41506Y-30341D01*
X41443Y-30278D01*
X41388Y-30278D01*
X41296Y-30316D01*
X41257Y-30355D01*
X40637Y-29734D01*
X41081Y-29734D01*
X41143Y-29709D01*
X41190Y-29662D01*
X41216Y-29600D01*
X41216Y-29533D01*
X41216Y-28667D01*
X41190Y-28605D01*
X41143Y-28558D01*
X41117Y-28547D01*
X43894Y-28547D01*
X43894Y-28547D01*
X43894Y-28547D01*
X43966Y-28533D01*
X43980Y-28530D01*
X43980Y-28530D01*
X44052Y-28482D01*
X46220Y-26314D01*
X46220Y-26314D01*
X46220Y-26314D01*
X46268Y-26242D01*
X46268Y-26242D01*
X46271Y-26228D01*
X46285Y-26157D01*
X46285Y-26157D01*
X46285Y-26157D01*
X46285Y-25341D01*
X46692Y-25341D01*
X46692Y-25341D01*
X46692Y-25341D01*
X46763Y-25327D01*
X46777Y-25324D01*
X46777Y-25324D01*
X46849Y-25275D01*
X46854Y-25271D01*
X46854Y-25387D01*
X46880Y-25449D01*
X46927Y-25496D01*
X46989Y-25522D01*
X47056Y-25522D01*
X47245Y-25522D01*
X46652Y-26116D01*
X46603Y-26188D01*
X46601Y-26202D01*
X46586Y-26273D01*
X46586Y-26273D01*
X46586Y-27261D01*
X46586Y-27261D01*
X46601Y-27332D01*
X46603Y-27347D01*
X46652Y-27419D01*
X46729Y-27496D01*
X46729Y-27496D01*
X46801Y-27544D01*
X46887Y-27561D01*
X47613Y-27561D01*
X47613Y-27561D01*
X47613Y-27561D01*
X47684Y-27547D01*
X47699Y-27544D01*
X47699Y-27544D01*
X47771Y-27496D01*
X48825Y-26443D01*
X48825Y-26475D01*
X48825Y-26574D01*
X48863Y-26666D01*
X48933Y-26736D01*
X49025Y-26775D01*
X49087Y-26775D01*
X49150Y-26712D01*
X49150Y-26350D01*
X49142Y-26350D01*
X49142Y-26250D01*
X49150Y-26250D01*
X49150Y-26242D01*
X49235Y-26242D01*
X49235Y-28171D01*
X49235Y-28171D01*
X49249Y-28242D01*
X49252Y-28257D01*
X49301Y-28329D01*
X50220Y-29249D01*
X50220Y-29249D01*
X50293Y-29297D01*
X50293Y-29297D01*
X50307Y-29300D01*
X50378Y-29314D01*
X50378Y-29314D01*
X50378Y-29314D01*
X51077Y-29314D01*
X51087Y-29368D01*
X51090Y-29382D01*
X51111Y-29413D01*
X51077Y-29495D01*
X51077Y-29703D01*
X51156Y-29895D01*
X51303Y-30042D01*
X51495Y-30122D01*
X51703Y-30122D01*
X51895Y-30043D01*
X52042Y-29896D01*
X52115Y-29721D01*
X52115Y-35045D01*
X52115Y-35045D01*
G37*
G54D22*
X52115Y-35045D02*
X51938Y-34868D01*
X51938Y-33942D01*
X51867Y-33772D01*
X51737Y-33641D01*
X51567Y-33571D01*
X51382Y-33571D01*
X51212Y-33641D01*
X51202Y-33651D01*
X51212Y-33600D01*
X51208Y-33579D01*
X51208Y-30694D01*
X51198Y-30454D01*
X51126Y-30279D01*
X51025Y-30245D01*
X50954Y-30316D01*
X50954Y-30174D01*
X50920Y-30073D01*
X50694Y-29991D01*
X50454Y-30001D01*
X50279Y-30073D01*
X50245Y-30174D01*
X50600Y-30529D01*
X50954Y-30174D01*
X50954Y-30316D01*
X50670Y-30600D01*
X51025Y-30954D01*
X51126Y-30920D01*
X51208Y-30694D01*
X51208Y-33579D01*
X51201Y-33540D01*
X51201Y-32933D01*
X51201Y-32866D01*
X51201Y-32266D01*
X51175Y-32204D01*
X51128Y-32157D01*
X51066Y-32131D01*
X50999Y-32131D01*
X50954Y-32131D01*
X50954Y-31025D01*
X50600Y-30670D01*
X50529Y-30741D01*
X50529Y-30600D01*
X50174Y-30245D01*
X50073Y-30279D01*
X49991Y-30505D01*
X50001Y-30745D01*
X50073Y-30920D01*
X50174Y-30954D01*
X50529Y-30600D01*
X50529Y-30741D01*
X50245Y-31025D01*
X50279Y-31126D01*
X50505Y-31208D01*
X50745Y-31198D01*
X50920Y-31126D01*
X50954Y-31025D01*
X50954Y-32131D01*
X50816Y-32131D01*
X50806Y-32080D01*
X50757Y-32008D01*
X50757Y-32008D01*
X50147Y-31397D01*
X50163Y-31358D01*
X50163Y-31174D01*
X50093Y-31003D01*
X49962Y-30873D01*
X49792Y-30802D01*
X49608Y-30802D01*
X49437Y-30872D01*
X49307Y-31003D01*
X49236Y-31173D01*
X49236Y-31357D01*
X49306Y-31528D01*
X49437Y-31658D01*
X49607Y-31729D01*
X49791Y-31729D01*
X49831Y-31713D01*
X50250Y-32131D01*
X50133Y-32131D01*
X50071Y-32157D01*
X50024Y-32204D01*
X49998Y-32266D01*
X49998Y-32333D01*
X49998Y-32933D01*
X50024Y-32995D01*
X50071Y-33042D01*
X50133Y-33068D01*
X50200Y-33068D01*
X51066Y-33068D01*
X51128Y-33042D01*
X51175Y-32995D01*
X51201Y-32933D01*
X51201Y-33540D01*
X51177Y-33420D01*
X51075Y-33268D01*
X50923Y-33167D01*
X50744Y-33131D01*
X50455Y-33131D01*
X50276Y-33167D01*
X50124Y-33268D01*
X50022Y-33420D01*
X49987Y-33600D01*
X50022Y-33779D01*
X50124Y-33931D01*
X50276Y-34032D01*
X50380Y-34053D01*
X50393Y-34119D01*
X50442Y-34191D01*
X50514Y-34240D01*
X50600Y-34257D01*
X51065Y-34257D01*
X51081Y-34296D01*
X51211Y-34427D01*
X51382Y-34497D01*
X51566Y-34498D01*
X51736Y-34427D01*
X51867Y-34297D01*
X51938Y-34127D01*
X51938Y-33942D01*
X51938Y-34868D01*
X51869Y-34798D01*
X51474Y-34634D01*
X51047Y-34634D01*
X50652Y-34797D01*
X50349Y-35099D01*
X50186Y-35494D01*
X50185Y-35921D01*
X50348Y-36316D01*
X50596Y-36564D01*
X43301Y-36564D01*
X43301Y-32428D01*
X43231Y-32257D01*
X43100Y-32127D01*
X42930Y-32056D01*
X42746Y-32056D01*
X42575Y-32127D01*
X42445Y-32257D01*
X42374Y-32427D01*
X42374Y-32611D01*
X42391Y-32651D01*
X42299Y-32742D01*
X42200Y-32742D01*
X42114Y-32759D01*
X42042Y-32808D01*
X41993Y-32880D01*
X41980Y-32946D01*
X41924Y-32957D01*
X41924Y-30972D01*
X41924Y-30873D01*
X41924Y-30838D01*
X41924Y-30613D01*
X41924Y-30578D01*
X41924Y-30479D01*
X41886Y-30387D01*
X41815Y-30316D01*
X41723Y-30278D01*
X41668Y-30278D01*
X41606Y-30341D01*
X41606Y-30675D01*
X41861Y-30675D01*
X41924Y-30613D01*
X41924Y-30838D01*
X41861Y-30775D01*
X41606Y-30775D01*
X41606Y-31110D01*
X41668Y-31172D01*
X41723Y-31172D01*
X41815Y-31134D01*
X41886Y-31064D01*
X41924Y-30972D01*
X41924Y-32957D01*
X41876Y-32967D01*
X41724Y-33068D01*
X41622Y-33220D01*
X41587Y-33400D01*
X41622Y-33579D01*
X41724Y-33731D01*
X41876Y-33832D01*
X42055Y-33868D01*
X42344Y-33868D01*
X42523Y-33832D01*
X42675Y-33731D01*
X42777Y-33579D01*
X42812Y-33400D01*
X42777Y-33220D01*
X42675Y-33068D01*
X42633Y-33040D01*
X42706Y-32967D01*
X42745Y-32983D01*
X42929Y-32983D01*
X43100Y-32913D01*
X43230Y-32782D01*
X43301Y-32612D01*
X43301Y-32428D01*
X43301Y-36564D01*
X41135Y-36564D01*
X41382Y-36317D01*
X41546Y-35923D01*
X41546Y-35740D01*
X41600Y-35763D01*
X41785Y-35763D01*
X41955Y-35693D01*
X42086Y-35563D01*
X42156Y-35392D01*
X42156Y-35208D01*
X42140Y-35168D01*
X42265Y-35044D01*
X42285Y-35040D01*
X42357Y-34991D01*
X42406Y-34919D01*
X42416Y-34868D01*
X42666Y-34868D01*
X42728Y-34842D01*
X42775Y-34795D01*
X42801Y-34733D01*
X42801Y-34666D01*
X42801Y-34066D01*
X42775Y-34004D01*
X42728Y-33957D01*
X42666Y-33931D01*
X42599Y-33931D01*
X41733Y-33931D01*
X41671Y-33957D01*
X41624Y-34004D01*
X41598Y-34066D01*
X41598Y-34133D01*
X41598Y-34733D01*
X41624Y-34795D01*
X41666Y-34836D01*
X41601Y-34836D01*
X41431Y-34907D01*
X41310Y-35027D01*
X41081Y-34798D01*
X40687Y-34634D01*
X40259Y-34634D01*
X39864Y-34797D01*
X39616Y-35045D01*
X39616Y-29345D01*
X40638Y-30367D01*
X40592Y-30386D01*
X40545Y-30433D01*
X40519Y-30495D01*
X40519Y-30509D01*
X40468Y-30519D01*
X40396Y-30567D01*
X40347Y-30640D01*
X40330Y-30725D01*
X40330Y-30782D01*
X40201Y-30836D01*
X40070Y-30966D01*
X40000Y-31136D01*
X39999Y-31321D01*
X40070Y-31491D01*
X40200Y-31621D01*
X40370Y-31692D01*
X40555Y-31692D01*
X40725Y-31622D01*
X40856Y-31492D01*
X40894Y-31398D01*
X40894Y-31788D01*
X40920Y-31849D01*
X40967Y-31897D01*
X41029Y-31922D01*
X41096Y-31922D01*
X41332Y-31922D01*
X41394Y-31897D01*
X41441Y-31849D01*
X41467Y-31788D01*
X41467Y-31721D01*
X41467Y-31327D01*
X41441Y-31265D01*
X41404Y-31228D01*
X41404Y-31172D01*
X41443Y-31172D01*
X41506Y-31110D01*
X41506Y-30775D01*
X41498Y-30775D01*
X41498Y-30675D01*
X41506Y-30675D01*
X41506Y-30341D01*
X41443Y-30278D01*
X41388Y-30278D01*
X41296Y-30316D01*
X41257Y-30355D01*
X40637Y-29734D01*
X41081Y-29734D01*
X41143Y-29709D01*
X41190Y-29662D01*
X41216Y-29600D01*
X41216Y-29533D01*
X41216Y-28667D01*
X41190Y-28605D01*
X41143Y-28558D01*
X41117Y-28547D01*
X43894Y-28547D01*
X43894Y-28547D01*
X43894Y-28547D01*
X43966Y-28533D01*
X43980Y-28530D01*
X43980Y-28530D01*
X44052Y-28482D01*
X46220Y-26314D01*
X46220Y-26314D01*
X46220Y-26314D01*
X46268Y-26242D01*
X46268Y-26242D01*
X46271Y-26228D01*
X46285Y-26157D01*
X46285Y-26157D01*
X46285Y-26157D01*
X46285Y-25341D01*
X46692Y-25341D01*
X46692Y-25341D01*
X46692Y-25341D01*
X46763Y-25327D01*
X46777Y-25324D01*
X46777Y-25324D01*
X46849Y-25275D01*
X46854Y-25271D01*
X46854Y-25387D01*
X46880Y-25449D01*
X46927Y-25496D01*
X46989Y-25522D01*
X47056Y-25522D01*
X47245Y-25522D01*
X46652Y-26116D01*
X46603Y-26188D01*
X46601Y-26202D01*
X46586Y-26273D01*
X46586Y-26273D01*
X46586Y-27261D01*
X46586Y-27261D01*
X46601Y-27332D01*
X46603Y-27347D01*
X46652Y-27419D01*
X46729Y-27496D01*
X46729Y-27496D01*
X46801Y-27544D01*
X46887Y-27561D01*
X47613Y-27561D01*
X47613Y-27561D01*
X47613Y-27561D01*
X47684Y-27547D01*
X47699Y-27544D01*
X47699Y-27544D01*
X47771Y-27496D01*
X48825Y-26443D01*
X48825Y-26475D01*
X48825Y-26574D01*
X48863Y-26666D01*
X48933Y-26736D01*
X49025Y-26775D01*
X49087Y-26775D01*
X49150Y-26712D01*
X49150Y-26350D01*
X49142Y-26350D01*
X49142Y-26250D01*
X49150Y-26250D01*
X49150Y-26242D01*
X49235Y-26242D01*
X49235Y-28171D01*
X49235Y-28171D01*
X49249Y-28242D01*
X49252Y-28257D01*
X49301Y-28329D01*
X50220Y-29249D01*
X50220Y-29249D01*
X50293Y-29297D01*
X50293Y-29297D01*
X50307Y-29300D01*
X50378Y-29314D01*
X50378Y-29314D01*
X50378Y-29314D01*
X51077Y-29314D01*
X51087Y-29368D01*
X51090Y-29382D01*
X51111Y-29413D01*
X51077Y-29495D01*
X51077Y-29703D01*
X51156Y-29895D01*
X51303Y-30042D01*
X51495Y-30122D01*
X51703Y-30122D01*
X51895Y-30043D01*
X52042Y-29896D01*
X52115Y-29721D01*
X52115Y-35045D01*
M02*
