M48
;DRILL file {kicad (2014-jul-16 BZR unknown)-product} date ons  6 aug 2014 15:25:23
;FORMAT={-:-/ absolute / inch / decimal}
FMAT,2
INCH,TZ
T1C0.025
T2C0.032
T3C0.035
T4C0.039
T5C0.040
T6C0.079
%
G90
G05
M72
T1
X7.2021Y-4.75
X7.3092Y-4.0863
X7.3594Y-4.6507
X7.395Y-3.6108
X7.4991Y-3.9667
X7.5064Y-4.7978
T2
X7.0039Y-4.5
X7.1961Y-4.5
T3
X5.6Y-3.4
X5.6Y-4.8
X5.7Y-3.4
X5.7Y-4.8
X5.8Y-3.4
X5.8Y-4.8
X6.35Y-3.4
X6.35Y-4.8
X6.45Y-3.4
X6.45Y-4.8
X6.55Y-3.4
X6.55Y-4.8
T4
X7.26Y-4.18
X7.36Y-4.28
X7.46Y-4.18
T5
X6.9866Y-3.2677
X7.0866Y-3.2677
X7.1866Y-3.2677
X7.63Y-3.47
X7.63Y-3.57
X7.63Y-3.67
X7.63Y-3.77
X7.63Y-3.87
X7.63Y-3.97
T6
X5.2362Y-3.2677
X5.2362Y-4.9606
X7.5984Y-3.2677
X7.5984Y-4.9606
T0
M30
