%FSLAX46Y46*%
G04 Gerber Fmt 4.6, Leading zero omitted, Abs format (unit mm)*
G04 Created by KiCad (PCBNEW (2014-jul-16 BZR unknown)-product) date ons  6 aug 2014 17:41:11*
%MOMM*%
G01*
G04 APERTURE LIST*
%ADD10C,0.150000*%
%ADD11C,1.800000*%
%ADD12R,0.635000X1.143000*%
%ADD13R,1.143000X0.635000*%
%ADD14R,1.524000X2.032000*%
%ADD15R,1.727200X2.032000*%
%ADD16O,1.727200X2.032000*%
%ADD17C,3.200400*%
%ADD18R,2.032000X1.727200*%
%ADD19O,2.032000X1.727200*%
%ADD20R,0.660400X0.406400*%
%ADD21R,1.600200X0.701040*%
%ADD22R,2.100580X0.701040*%
%ADD23R,2.750820X1.998980*%
%ADD24R,1.143000X0.508000*%
%ADD25C,1.501140*%
%ADD26R,1.399540X0.599440*%
%ADD27C,1.200000*%
%ADD28C,0.350000*%
%ADD29C,0.254000*%
G04 APERTURE END LIST*
D10*
D11*
X163830000Y-86360000D03*
X166370000Y-86360000D03*
X161290000Y-86360000D03*
X163830000Y-121920000D03*
X166370000Y-121920000D03*
X161290000Y-121920000D03*
X144780000Y-121920000D03*
X142240000Y-121920000D03*
X147320000Y-121920000D03*
X144780000Y-86360000D03*
X142240000Y-86360000D03*
X147320000Y-86360000D03*
D12*
X179612000Y-118100000D03*
X178088000Y-118100000D03*
D13*
X181610000Y-91313000D03*
X181610000Y-92837000D03*
D12*
X181483000Y-89535000D03*
X183007000Y-89535000D03*
D13*
X184658000Y-100838000D03*
X184658000Y-102362000D03*
X186563000Y-97663000D03*
X186563000Y-99187000D03*
D14*
X187706000Y-93980000D03*
X184404000Y-93980000D03*
D15*
X177460000Y-83000000D03*
D16*
X180000000Y-83000000D03*
X182540000Y-83000000D03*
D17*
X193000000Y-83000000D03*
X193000000Y-126000000D03*
D18*
X193802000Y-88138000D03*
D19*
X193802000Y-90678000D03*
X193802000Y-93218000D03*
X193802000Y-95758000D03*
X193802000Y-98298000D03*
X193802000Y-100838000D03*
D17*
X133000000Y-126000000D03*
X133000000Y-83000000D03*
D12*
X181102000Y-110490000D03*
X179578000Y-110490000D03*
D13*
X184658000Y-97663000D03*
X184658000Y-99187000D03*
X186563000Y-100838000D03*
X186563000Y-102362000D03*
X185420000Y-90043000D03*
X185420000Y-91567000D03*
D11*
X189484000Y-106172000D03*
X186944000Y-108712000D03*
X184404000Y-106172000D03*
D20*
X179324000Y-119989600D03*
X179324000Y-121310400D03*
X179324000Y-120650000D03*
X181356000Y-121310400D03*
X181356000Y-119989600D03*
X181356000Y-120650000D03*
D21*
X179064920Y-92941140D03*
D22*
X178816000Y-91440000D03*
D21*
X179064920Y-89938860D03*
D23*
X176415700Y-91440000D03*
D24*
X188976000Y-113030000D03*
X188976000Y-114300000D03*
X188976000Y-115570000D03*
X188976000Y-116840000D03*
X188976000Y-118110000D03*
X188976000Y-119380000D03*
X188976000Y-120650000D03*
X194310000Y-120650000D03*
X194310000Y-119380000D03*
X194310000Y-118110000D03*
X194310000Y-116840000D03*
X194310000Y-115570000D03*
X194310000Y-114300000D03*
X194310000Y-113030000D03*
D25*
X177899060Y-114300000D03*
X182780940Y-114300000D03*
D12*
X181038000Y-118100000D03*
X182562000Y-118100000D03*
D26*
X182245000Y-98171000D03*
X176911000Y-98171000D03*
X182245000Y-99441000D03*
X182245000Y-100711000D03*
X182245000Y-101981000D03*
X176911000Y-99441000D03*
X176911000Y-100711000D03*
X176911000Y-101981000D03*
D27*
X190476800Y-100753300D03*
X182932900Y-120650000D03*
X187832300Y-91714600D03*
X185654700Y-103792900D03*
X186927900Y-118127300D03*
X190663600Y-121863000D03*
D28*
X147320000Y-86360000D02*
X144780000Y-86360000D01*
X142240000Y-86360000D02*
X144780000Y-86360000D01*
X183374100Y-102078900D02*
X183657200Y-102362000D01*
X183374100Y-101981000D02*
X183374100Y-102078900D01*
X184658000Y-102362000D02*
X183657200Y-102362000D01*
X182245000Y-101981000D02*
X183374100Y-101981000D01*
X180083500Y-120055300D02*
X181038000Y-119100800D01*
X180083500Y-120650000D02*
X180083500Y-120055300D01*
X181038000Y-118100000D02*
X181038000Y-118600400D01*
X181038000Y-118600400D02*
X181038000Y-119100800D01*
X180859200Y-118600400D02*
X180358800Y-118100000D01*
X181038000Y-118600400D02*
X180859200Y-118600400D01*
X184658000Y-102362000D02*
X184658000Y-101615200D01*
X179703800Y-120650000D02*
X180083500Y-120650000D01*
X179703800Y-120650000D02*
X179324000Y-120650000D01*
X179612000Y-118100000D02*
X180190700Y-118100000D01*
X180190700Y-118100000D02*
X180324900Y-118100000D01*
X180324900Y-118100000D02*
X180358800Y-118100000D01*
X188976000Y-120650000D02*
X187975200Y-120650000D01*
X181848900Y-104170300D02*
X183657200Y-102362000D01*
X181848900Y-109430000D02*
X181848900Y-104170300D01*
X180610600Y-109430000D02*
X181848900Y-109430000D01*
X180324900Y-109715700D02*
X180610600Y-109430000D01*
X180324900Y-118100000D02*
X180324900Y-109715700D01*
X185799700Y-118474500D02*
X187975200Y-120650000D01*
X185799700Y-113870400D02*
X185799700Y-118474500D01*
X181848900Y-109919600D02*
X185799700Y-113870400D01*
X181848900Y-109430000D02*
X181848900Y-109919600D01*
X183007000Y-89535000D02*
X183007000Y-90535800D01*
X182834200Y-90708600D02*
X183007000Y-90535800D01*
X182834200Y-91612800D02*
X182834200Y-90708600D01*
X182356800Y-92090200D02*
X182834200Y-91612800D01*
X181610000Y-92090200D02*
X182356800Y-92090200D01*
X181610000Y-92837000D02*
X181610000Y-92090200D01*
X184404000Y-93980000D02*
X183229800Y-93980000D01*
X183229800Y-93980000D02*
X182006200Y-93980000D01*
X182006200Y-93980000D02*
X181610000Y-93583800D01*
X181095600Y-94890600D02*
X182006200Y-93980000D01*
X181095600Y-101981000D02*
X181095600Y-94890600D01*
X176911000Y-101981000D02*
X181095600Y-101981000D01*
X181095600Y-101981000D02*
X182245000Y-101981000D01*
X181610000Y-92837000D02*
X181610000Y-93210400D01*
X181610000Y-93210400D02*
X181610000Y-93583800D01*
X180563600Y-93210400D02*
X180294300Y-92941100D01*
X181610000Y-93210400D02*
X180563600Y-93210400D01*
X179064900Y-92941100D02*
X180294300Y-92941100D01*
X187563900Y-101333900D02*
X187563900Y-100753300D01*
X187282600Y-101615200D02*
X187563900Y-101333900D01*
X184658000Y-101615200D02*
X187282600Y-101615200D01*
X187563900Y-100187900D02*
X186563000Y-99187000D01*
X187563900Y-100753300D02*
X187563900Y-100187900D01*
X187563900Y-100753300D02*
X190476800Y-100753300D01*
X193802000Y-91237100D02*
X193802000Y-90678000D01*
X190476800Y-94562300D02*
X193802000Y-91237100D01*
X190476800Y-100753300D02*
X190476800Y-94562300D01*
D29*
X178088000Y-118100000D02*
X178088000Y-117147200D01*
X178612500Y-119577300D02*
X178088000Y-119052800D01*
X178612500Y-119989600D02*
X178612500Y-119577300D01*
X179324000Y-119989600D02*
X178612500Y-119989600D01*
X178088000Y-118100000D02*
X178088000Y-119052800D01*
X177899100Y-116958300D02*
X178088000Y-117147200D01*
X177899100Y-114300000D02*
X177899100Y-116958300D01*
X179578000Y-112621100D02*
X179578000Y-110490000D01*
X177899100Y-114300000D02*
X179578000Y-112621100D01*
X180936000Y-119989600D02*
X181356000Y-119989600D01*
X180639900Y-120285700D02*
X180936000Y-119989600D01*
X180639900Y-120880400D02*
X180639900Y-120285700D01*
X180209900Y-121310400D02*
X180639900Y-120880400D01*
X179324000Y-121310400D02*
X180209900Y-121310400D01*
X182067500Y-119547300D02*
X182067500Y-119989600D01*
X182562000Y-119052800D02*
X182067500Y-119547300D01*
X182562000Y-118100000D02*
X182562000Y-119052800D01*
X181356000Y-119989600D02*
X182067500Y-119989600D01*
X182562000Y-118100000D02*
X182562000Y-117147200D01*
X182780900Y-116928300D02*
X182562000Y-117147200D01*
X182780900Y-114300000D02*
X182780900Y-116928300D01*
X181102000Y-112621100D02*
X181102000Y-110490000D01*
X182780900Y-114300000D02*
X181102000Y-112621100D01*
D28*
X181483000Y-89535000D02*
X181109600Y-89535000D01*
X179064900Y-89938900D02*
X180294300Y-89938900D01*
X180698200Y-89535000D02*
X180294300Y-89938900D01*
X181109600Y-89535000D02*
X180698200Y-89535000D01*
X182932900Y-120650000D02*
X181356000Y-120650000D01*
X182229800Y-88788200D02*
X182229800Y-89535000D01*
X182503000Y-88515000D02*
X182229800Y-88788200D01*
X184638800Y-88515000D02*
X182503000Y-88515000D01*
X185420000Y-89296200D02*
X184638800Y-88515000D01*
X185420000Y-90043000D02*
X185420000Y-89296200D01*
X181483000Y-89535000D02*
X182229800Y-89535000D01*
X194310000Y-113030000D02*
X193309200Y-113030000D01*
X187975200Y-116840000D02*
X187975200Y-113030000D01*
X188976000Y-116840000D02*
X187975200Y-116840000D01*
X188976000Y-113030000D02*
X187975200Y-113030000D01*
X186420800Y-90303100D02*
X186420800Y-90043000D01*
X187832300Y-91714600D02*
X186420800Y-90303100D01*
X185420000Y-90043000D02*
X186420800Y-90043000D01*
X188976000Y-113030000D02*
X189976800Y-113030000D01*
X192342800Y-99757200D02*
X192342800Y-112063600D01*
X193802000Y-98298000D02*
X192342800Y-99757200D01*
X190943200Y-112063600D02*
X192342800Y-112063600D01*
X189976800Y-113030000D02*
X190943200Y-112063600D01*
X192342800Y-112063600D02*
X193309200Y-113030000D01*
D29*
X183578200Y-100711000D02*
X183705200Y-100838000D01*
X182245000Y-100711000D02*
X183578200Y-100711000D01*
X184658000Y-100838000D02*
X183705200Y-100838000D01*
D28*
X184658000Y-97663000D02*
X186563000Y-97663000D01*
X186563000Y-97663000D02*
X186563000Y-96916200D01*
X187216400Y-96916200D02*
X186563000Y-96916200D01*
X191752300Y-92380300D02*
X187216400Y-96916200D01*
X191752300Y-90187700D02*
X191752300Y-92380300D01*
X193802000Y-88138000D02*
X191752300Y-90187700D01*
X183657200Y-97887900D02*
X183657200Y-97663000D01*
X183374100Y-98171000D02*
X183657200Y-97887900D01*
X182245000Y-98171000D02*
X183374100Y-98171000D01*
X184658000Y-97663000D02*
X183657200Y-97663000D01*
D29*
X186562700Y-93408500D02*
X185420000Y-92265800D01*
X186562700Y-93980000D02*
X186562700Y-93408500D01*
X187706000Y-93980000D02*
X186562700Y-93980000D01*
X185420000Y-91567000D02*
X185420000Y-92265800D01*
D28*
X191536200Y-95483800D02*
X193802000Y-93218000D01*
X191536200Y-110093500D02*
X191536200Y-95483800D01*
X190722700Y-110907000D02*
X191536200Y-110093500D01*
X189226800Y-110907000D02*
X190722700Y-110907000D01*
X187357500Y-112776300D02*
X189226800Y-110907000D01*
X187357500Y-117084600D02*
X187357500Y-112776300D01*
X187975200Y-117702300D02*
X187357500Y-117084600D01*
X187975200Y-118110000D02*
X187975200Y-117702300D01*
X188976000Y-118110000D02*
X187975200Y-118110000D01*
D29*
X183451200Y-99441000D02*
X183705200Y-99187000D01*
X182245000Y-99441000D02*
X183451200Y-99441000D01*
X184658000Y-99187000D02*
X183705200Y-99187000D01*
X184911400Y-100139200D02*
X184658000Y-99885800D01*
X186563000Y-100139200D02*
X184911400Y-100139200D01*
X186563000Y-100838000D02*
X186563000Y-100139200D01*
X184658000Y-99187000D02*
X184658000Y-99885800D01*
X186386800Y-103060800D02*
X186563000Y-103060800D01*
X185654700Y-103792900D02*
X186386800Y-103060800D01*
X186563000Y-102362000D02*
X186563000Y-103060800D01*
X182463400Y-121706300D02*
X182067500Y-121310400D01*
X189332800Y-121706300D02*
X182463400Y-121706300D01*
X189928800Y-121110300D02*
X189332800Y-121706300D01*
X189928800Y-115570000D02*
X189928800Y-121110300D01*
X188976000Y-115570000D02*
X189928800Y-115570000D01*
X181356000Y-121310400D02*
X182067500Y-121310400D01*
X188976000Y-114300000D02*
X189928800Y-114300000D01*
X188023200Y-119222600D02*
X186927900Y-118127300D01*
X188023200Y-119380000D02*
X188023200Y-119222600D01*
X188976000Y-119380000D02*
X188023200Y-119380000D01*
X190663600Y-115034800D02*
X190663600Y-121863000D01*
X189928800Y-114300000D02*
X190663600Y-115034800D01*
D28*
X161290000Y-86360000D02*
X163830000Y-86360000D01*
X171450000Y-91440000D02*
X166370000Y-86360000D01*
X176415700Y-91440000D02*
X171450000Y-91440000D01*
X166370000Y-86360000D02*
X163830000Y-86360000D01*
X178816000Y-91440000D02*
X176415700Y-91440000D01*
X180422600Y-91313000D02*
X180295600Y-91440000D01*
X181610000Y-91313000D02*
X180422600Y-91313000D01*
X178816000Y-91440000D02*
X180295600Y-91440000D01*
X142240000Y-121920000D02*
X144780000Y-121920000D01*
X144780000Y-121920000D02*
X147320000Y-121920000D01*
X147320000Y-121920000D02*
X161290000Y-121920000D01*
X161290000Y-121920000D02*
X163830000Y-121920000D01*
X166370000Y-121920000D02*
X163830000Y-121920000D01*
X176911000Y-100711000D02*
X176346500Y-100711000D01*
X166370000Y-110687500D02*
X166370000Y-121920000D01*
X176346500Y-100711000D02*
X166370000Y-110687500D01*
X175781900Y-100146400D02*
X175781900Y-99441000D01*
X176346500Y-100711000D02*
X175781900Y-100146400D01*
X176911000Y-99441000D02*
X176346500Y-99441000D01*
X176346500Y-99441000D02*
X175781900Y-99441000D01*
X175781900Y-98876400D02*
X175781900Y-98171000D01*
X176346500Y-99441000D02*
X175781900Y-98876400D01*
X176911000Y-98171000D02*
X175781900Y-98171000D01*
D29*
G36*
X182018900Y-116614797D02*
X181858004Y-116855595D01*
X181817934Y-117057039D01*
X181817933Y-117057040D01*
X181800000Y-117074974D01*
X181715198Y-116990173D01*
X181481809Y-116893500D01*
X181323750Y-116893500D01*
X181165000Y-117052250D01*
X181165000Y-117973000D01*
X181185000Y-117973000D01*
X181185000Y-118227000D01*
X181165000Y-118227000D01*
X181165000Y-118247000D01*
X180911000Y-118247000D01*
X180911000Y-118227000D01*
X180911000Y-117973000D01*
X180911000Y-117052250D01*
X180752250Y-116893500D01*
X180594191Y-116893500D01*
X180360802Y-116990173D01*
X180325000Y-117025974D01*
X180289198Y-116990173D01*
X180055809Y-116893500D01*
X179897750Y-116893500D01*
X179739000Y-117052250D01*
X179739000Y-117973000D01*
X180244250Y-117973000D01*
X180405750Y-117973000D01*
X180911000Y-117973000D01*
X180911000Y-118227000D01*
X180405750Y-118227000D01*
X180244250Y-118227000D01*
X179739000Y-118227000D01*
X179739000Y-118247000D01*
X179485000Y-118247000D01*
X179485000Y-118227000D01*
X179465000Y-118227000D01*
X179465000Y-117973000D01*
X179485000Y-117973000D01*
X179485000Y-117052250D01*
X179326250Y-116893500D01*
X179168191Y-116893500D01*
X178934802Y-116990173D01*
X178850000Y-117074974D01*
X178832066Y-117057040D01*
X178791996Y-116855596D01*
X178791996Y-116855595D01*
X178661100Y-116659696D01*
X178661100Y-116659695D01*
X178661100Y-115484320D01*
X178682897Y-115475314D01*
X179073004Y-115085887D01*
X179284389Y-114576816D01*
X179284870Y-114025602D01*
X179275004Y-114001725D01*
X180116815Y-113159915D01*
X180281996Y-112912705D01*
X180339999Y-112621100D01*
X180340000Y-112621100D01*
X180398004Y-112912705D01*
X180563185Y-113159915D01*
X181404660Y-114001390D01*
X181395611Y-114023184D01*
X181395130Y-114574398D01*
X181605626Y-115083837D01*
X181995053Y-115473944D01*
X182018900Y-115483846D01*
X182018900Y-116614797D01*
X182018900Y-116614797D01*
G37*
X182018900Y-116614797D02*
X181858004Y-116855595D01*
X181817934Y-117057039D01*
X181817933Y-117057040D01*
X181800000Y-117074974D01*
X181715198Y-116990173D01*
X181481809Y-116893500D01*
X181323750Y-116893500D01*
X181165000Y-117052250D01*
X181165000Y-117973000D01*
X181185000Y-117973000D01*
X181185000Y-118227000D01*
X181165000Y-118227000D01*
X181165000Y-118247000D01*
X180911000Y-118247000D01*
X180911000Y-118227000D01*
X180911000Y-117973000D01*
X180911000Y-117052250D01*
X180752250Y-116893500D01*
X180594191Y-116893500D01*
X180360802Y-116990173D01*
X180325000Y-117025974D01*
X180289198Y-116990173D01*
X180055809Y-116893500D01*
X179897750Y-116893500D01*
X179739000Y-117052250D01*
X179739000Y-117973000D01*
X180244250Y-117973000D01*
X180405750Y-117973000D01*
X180911000Y-117973000D01*
X180911000Y-118227000D01*
X180405750Y-118227000D01*
X180244250Y-118227000D01*
X179739000Y-118227000D01*
X179739000Y-118247000D01*
X179485000Y-118247000D01*
X179485000Y-118227000D01*
X179465000Y-118227000D01*
X179465000Y-117973000D01*
X179485000Y-117973000D01*
X179485000Y-117052250D01*
X179326250Y-116893500D01*
X179168191Y-116893500D01*
X178934802Y-116990173D01*
X178850000Y-117074974D01*
X178832066Y-117057040D01*
X178791996Y-116855596D01*
X178791996Y-116855595D01*
X178661100Y-116659696D01*
X178661100Y-116659695D01*
X178661100Y-115484320D01*
X178682897Y-115475314D01*
X179073004Y-115085887D01*
X179284389Y-114576816D01*
X179284870Y-114025602D01*
X179275004Y-114001725D01*
X180116815Y-113159915D01*
X180281996Y-112912705D01*
X180339999Y-112621100D01*
X180340000Y-112621100D01*
X180398004Y-112912705D01*
X180563185Y-113159915D01*
X181404660Y-114001390D01*
X181395611Y-114023184D01*
X181395130Y-114574398D01*
X181605626Y-115083837D01*
X181995053Y-115473944D01*
X182018900Y-115483846D01*
X182018900Y-116614797D01*
G36*
X184805000Y-102489000D02*
X184785000Y-102489000D01*
X184785000Y-102509000D01*
X184531000Y-102509000D01*
X184531000Y-102489000D01*
X184511000Y-102489000D01*
X184511000Y-102235000D01*
X184531000Y-102235000D01*
X184531000Y-102215000D01*
X184785000Y-102215000D01*
X184785000Y-102235000D01*
X184805000Y-102235000D01*
X184805000Y-102489000D01*
X184805000Y-102489000D01*
G37*
X184805000Y-102489000D02*
X184785000Y-102489000D01*
X184785000Y-102509000D01*
X184531000Y-102509000D01*
X184531000Y-102489000D01*
X184511000Y-102489000D01*
X184511000Y-102235000D01*
X184531000Y-102235000D01*
X184531000Y-102215000D01*
X184785000Y-102215000D01*
X184785000Y-102235000D01*
X184805000Y-102235000D01*
X184805000Y-102489000D01*
G36*
X193949000Y-90805000D02*
X193929000Y-90805000D01*
X193929000Y-90825000D01*
X193675000Y-90825000D01*
X193675000Y-90805000D01*
X193655000Y-90805000D01*
X193655000Y-90551000D01*
X193675000Y-90551000D01*
X193675000Y-90531000D01*
X193929000Y-90531000D01*
X193929000Y-90551000D01*
X193949000Y-90551000D01*
X193949000Y-90805000D01*
X193949000Y-90805000D01*
G37*
X193949000Y-90805000D02*
X193929000Y-90805000D01*
X193929000Y-90825000D01*
X193675000Y-90825000D01*
X193675000Y-90805000D01*
X193655000Y-90805000D01*
X193655000Y-90551000D01*
X193675000Y-90551000D01*
X193675000Y-90531000D01*
X193929000Y-90531000D01*
X193929000Y-90551000D01*
X193949000Y-90551000D01*
X193949000Y-90805000D01*
G36*
X193949000Y-95885000D02*
X193929000Y-95885000D01*
X193929000Y-95905000D01*
X193675000Y-95905000D01*
X193675000Y-95885000D01*
X193655000Y-95885000D01*
X193655000Y-95631000D01*
X193675000Y-95631000D01*
X193675000Y-95611000D01*
X193929000Y-95611000D01*
X193929000Y-95631000D01*
X193949000Y-95631000D01*
X193949000Y-95885000D01*
X193949000Y-95885000D01*
G37*
X193949000Y-95885000D02*
X193929000Y-95885000D01*
X193929000Y-95905000D01*
X193675000Y-95905000D01*
X193675000Y-95885000D01*
X193655000Y-95885000D01*
X193655000Y-95631000D01*
X193675000Y-95631000D01*
X193675000Y-95611000D01*
X193929000Y-95611000D01*
X193929000Y-95631000D01*
X193949000Y-95631000D01*
X193949000Y-95885000D01*
G36*
X194815000Y-112141000D02*
X194755191Y-112141000D01*
X193612191Y-112141000D01*
X193579325Y-112154613D01*
X193152800Y-111728087D01*
X193152800Y-102222692D01*
X193440087Y-102323184D01*
X193675000Y-102178924D01*
X193675000Y-100965000D01*
X193655000Y-100965000D01*
X193655000Y-100711000D01*
X193675000Y-100711000D01*
X193675000Y-100691000D01*
X193929000Y-100691000D01*
X193929000Y-100711000D01*
X193949000Y-100711000D01*
X193949000Y-100965000D01*
X193929000Y-100965000D01*
X193929000Y-102178924D01*
X194163913Y-102323184D01*
X194716320Y-102129954D01*
X194815000Y-102041787D01*
X194815000Y-112141000D01*
X194815000Y-112141000D01*
G37*
X194815000Y-112141000D02*
X194755191Y-112141000D01*
X193612191Y-112141000D01*
X193579325Y-112154613D01*
X193152800Y-111728087D01*
X193152800Y-102222692D01*
X193440087Y-102323184D01*
X193675000Y-102178924D01*
X193675000Y-100965000D01*
X193655000Y-100965000D01*
X193655000Y-100711000D01*
X193675000Y-100711000D01*
X193675000Y-100691000D01*
X193929000Y-100691000D01*
X193929000Y-100711000D01*
X193949000Y-100711000D01*
X193949000Y-100965000D01*
X193929000Y-100965000D01*
X193929000Y-102178924D01*
X194163913Y-102323184D01*
X194716320Y-102129954D01*
X194815000Y-102041787D01*
X194815000Y-112141000D01*
G36*
X194815000Y-123956880D02*
X194547283Y-123688696D01*
X193545005Y-123272514D01*
X192459756Y-123271567D01*
X191456753Y-123685999D01*
X190688696Y-124452717D01*
X190272514Y-125454995D01*
X190271567Y-126540244D01*
X190685999Y-127543247D01*
X190957278Y-127815000D01*
X135043119Y-127815000D01*
X135311304Y-127547283D01*
X135727486Y-126545005D01*
X135728433Y-125459756D01*
X135314001Y-124456753D01*
X134547283Y-123688696D01*
X133545005Y-123272514D01*
X132459756Y-123271567D01*
X131456753Y-123685999D01*
X131185000Y-123957278D01*
X131185000Y-85043119D01*
X131452717Y-85311304D01*
X132454995Y-85727486D01*
X133540244Y-85728433D01*
X134543247Y-85314001D01*
X135311304Y-84547283D01*
X135727486Y-83545005D01*
X135728433Y-82459756D01*
X135314001Y-81456753D01*
X135042721Y-81185000D01*
X190956880Y-81185000D01*
X190688696Y-81452717D01*
X190272514Y-82454995D01*
X190271567Y-83540244D01*
X190685999Y-84543247D01*
X191452717Y-85311304D01*
X192454995Y-85727486D01*
X193540244Y-85728433D01*
X194543247Y-85314001D01*
X194815000Y-85042721D01*
X194815000Y-86639400D01*
X194691691Y-86639400D01*
X192659691Y-86639400D01*
X192426302Y-86736073D01*
X192247673Y-86914701D01*
X192151000Y-87148090D01*
X192151000Y-87400709D01*
X192151000Y-88643487D01*
X191179544Y-89614944D01*
X191003958Y-89877726D01*
X190942300Y-90187700D01*
X190942300Y-92044787D01*
X189103000Y-93884087D01*
X189103000Y-92837691D01*
X189006327Y-92604302D01*
X188847864Y-92445838D01*
X188878671Y-92415085D01*
X189067085Y-91961334D01*
X189067514Y-91470021D01*
X188879892Y-91015943D01*
X188532785Y-90668229D01*
X188079034Y-90479815D01*
X187742733Y-90479521D01*
X187212074Y-89948862D01*
X187169142Y-89733026D01*
X186993556Y-89470244D01*
X186730774Y-89294658D01*
X186420800Y-89233000D01*
X186397025Y-89233000D01*
X186351199Y-89187173D01*
X186195483Y-89122673D01*
X186168343Y-88986227D01*
X186168342Y-88986226D01*
X185992757Y-88723444D01*
X185211556Y-87942244D01*
X184948774Y-87766658D01*
X184638800Y-87705000D01*
X184038600Y-87705000D01*
X184038600Y-83184745D01*
X184038600Y-82815255D01*
X183924526Y-82241766D01*
X183599670Y-81755585D01*
X183113489Y-81430729D01*
X182540000Y-81316655D01*
X181966511Y-81430729D01*
X181480330Y-81755585D01*
X181273539Y-82065069D01*
X180902036Y-81649268D01*
X180374791Y-81395291D01*
X180359026Y-81392642D01*
X180127000Y-81513783D01*
X180127000Y-82873000D01*
X180147000Y-82873000D01*
X180147000Y-83127000D01*
X180127000Y-83127000D01*
X180127000Y-84486217D01*
X180359026Y-84607358D01*
X180374791Y-84604709D01*
X180902036Y-84350732D01*
X181273539Y-83934930D01*
X181480330Y-84244415D01*
X181966511Y-84569271D01*
X182540000Y-84683345D01*
X183113489Y-84569271D01*
X183599670Y-84244415D01*
X183924526Y-83758234D01*
X184038600Y-83184745D01*
X184038600Y-87705000D01*
X182503000Y-87705000D01*
X182193026Y-87766658D01*
X182061635Y-87854451D01*
X181930243Y-87942244D01*
X181657044Y-88215444D01*
X181581502Y-88328500D01*
X181039191Y-88328500D01*
X180805802Y-88425173D01*
X180627173Y-88603801D01*
X180566085Y-88751279D01*
X180526096Y-88759233D01*
X180388227Y-88786657D01*
X180125444Y-88962243D01*
X180092458Y-88995228D01*
X179991330Y-88953340D01*
X179873000Y-88953340D01*
X179873000Y-84486217D01*
X179873000Y-83127000D01*
X179853000Y-83127000D01*
X179853000Y-82873000D01*
X179873000Y-82873000D01*
X179873000Y-81513783D01*
X179640974Y-81392642D01*
X179625209Y-81395291D01*
X179097964Y-81649268D01*
X178943758Y-81821860D01*
X178861927Y-81624302D01*
X178683299Y-81445673D01*
X178449910Y-81349000D01*
X178197291Y-81349000D01*
X176470091Y-81349000D01*
X176236702Y-81445673D01*
X176058073Y-81624301D01*
X175961400Y-81857690D01*
X175961400Y-82110309D01*
X175961400Y-84142309D01*
X176058073Y-84375698D01*
X176236701Y-84554327D01*
X176470090Y-84651000D01*
X176722709Y-84651000D01*
X178449909Y-84651000D01*
X178683298Y-84554327D01*
X178861927Y-84375699D01*
X178943758Y-84178139D01*
X179097964Y-84350732D01*
X179625209Y-84604709D01*
X179640974Y-84607358D01*
X179873000Y-84486217D01*
X179873000Y-88953340D01*
X179738711Y-88953340D01*
X178138511Y-88953340D01*
X177905122Y-89050013D01*
X177726493Y-89228641D01*
X177629820Y-89462030D01*
X177629820Y-89714649D01*
X177629820Y-89805510D01*
X174913981Y-89805510D01*
X174680592Y-89902183D01*
X174501963Y-90080811D01*
X174405290Y-90314200D01*
X174405290Y-90566819D01*
X174405290Y-90630000D01*
X171785512Y-90630000D01*
X167880512Y-86725000D01*
X167904733Y-86666670D01*
X167905265Y-86056009D01*
X167672068Y-85491629D01*
X167240643Y-85059449D01*
X166676670Y-84825267D01*
X166066009Y-84824735D01*
X165501629Y-85057932D01*
X165099677Y-85459181D01*
X164700643Y-85059449D01*
X164136670Y-84825267D01*
X163526009Y-84824735D01*
X162961629Y-85057932D01*
X162559677Y-85459181D01*
X162160643Y-85059449D01*
X161596670Y-84825267D01*
X160986009Y-84824735D01*
X160421629Y-85057932D01*
X159989449Y-85489357D01*
X159755267Y-86053330D01*
X159754735Y-86663991D01*
X159987932Y-87228371D01*
X160419357Y-87660551D01*
X160983330Y-87894733D01*
X161593991Y-87895265D01*
X162158371Y-87662068D01*
X162560322Y-87260818D01*
X162959357Y-87660551D01*
X163523330Y-87894733D01*
X164133991Y-87895265D01*
X164698371Y-87662068D01*
X165100322Y-87260818D01*
X165499357Y-87660551D01*
X166063330Y-87894733D01*
X166673991Y-87895265D01*
X166734677Y-87870189D01*
X170877244Y-92012757D01*
X171034770Y-92118012D01*
X171140026Y-92188342D01*
X171140027Y-92188342D01*
X171450000Y-92250000D01*
X174405290Y-92250000D01*
X174405290Y-92565799D01*
X174501963Y-92799188D01*
X174680591Y-92977817D01*
X174913980Y-93074490D01*
X175166599Y-93074490D01*
X177782220Y-93074490D01*
X177629820Y-93226890D01*
X177629820Y-93417969D01*
X177726493Y-93651358D01*
X177905121Y-93829987D01*
X178138510Y-93926660D01*
X178391129Y-93926660D01*
X178779170Y-93926660D01*
X178937920Y-93767910D01*
X178937920Y-93068140D01*
X178917920Y-93068140D01*
X178917920Y-92814140D01*
X178937920Y-92814140D01*
X178937920Y-92794140D01*
X179191920Y-92794140D01*
X179191920Y-92814140D01*
X180341270Y-92814140D01*
X180500020Y-92655390D01*
X180500020Y-92647770D01*
X180562250Y-92710000D01*
X181483000Y-92710000D01*
X181483000Y-92690000D01*
X181737000Y-92690000D01*
X181737000Y-92710000D01*
X182657750Y-92710000D01*
X182816500Y-92551250D01*
X182816500Y-92393191D01*
X182719827Y-92159802D01*
X182635025Y-92075000D01*
X182719827Y-91990199D01*
X182816500Y-91756810D01*
X182816500Y-91504191D01*
X182816500Y-90869191D01*
X182751202Y-90711547D01*
X182880000Y-90582750D01*
X182880000Y-89991853D01*
X182978142Y-89844974D01*
X183039800Y-89535000D01*
X183039800Y-89388000D01*
X183134000Y-89388000D01*
X183134000Y-89408000D01*
X183800750Y-89408000D01*
X183883750Y-89325000D01*
X184303287Y-89325000D01*
X184327130Y-89348843D01*
X184310173Y-89365801D01*
X184213500Y-89599190D01*
X184213500Y-89851809D01*
X184213500Y-90486809D01*
X184310173Y-90720198D01*
X184394974Y-90804999D01*
X184310173Y-90889801D01*
X184213500Y-91123190D01*
X184213500Y-91375809D01*
X184213500Y-92010809D01*
X184310173Y-92244198D01*
X184394974Y-92329000D01*
X184276998Y-92329000D01*
X184276998Y-92487748D01*
X184118250Y-92329000D01*
X183959500Y-92329000D01*
X183959500Y-90232810D01*
X183959500Y-89980191D01*
X183959500Y-89820750D01*
X183800750Y-89662000D01*
X183134000Y-89662000D01*
X183134000Y-90582750D01*
X183292750Y-90741500D01*
X183450809Y-90741500D01*
X183684198Y-90644827D01*
X183862827Y-90466199D01*
X183959500Y-90232810D01*
X183959500Y-92329000D01*
X183515691Y-92329000D01*
X183282302Y-92425673D01*
X183103673Y-92604301D01*
X183007000Y-92837690D01*
X183007000Y-93090309D01*
X183007000Y-93694250D01*
X183165750Y-93853000D01*
X184277000Y-93853000D01*
X184277000Y-93833000D01*
X184531000Y-93833000D01*
X184531000Y-93853000D01*
X184551000Y-93853000D01*
X184551000Y-94107000D01*
X184531000Y-94107000D01*
X184531000Y-95472250D01*
X184689750Y-95631000D01*
X185292309Y-95631000D01*
X185525698Y-95534327D01*
X185704327Y-95355699D01*
X185801000Y-95122310D01*
X185801000Y-94869691D01*
X185801000Y-94265750D01*
X185642252Y-94107002D01*
X185801000Y-94107002D01*
X185801000Y-93981508D01*
X185858704Y-94271605D01*
X186023885Y-94518815D01*
X186271095Y-94683996D01*
X186309000Y-94691535D01*
X186309000Y-95122309D01*
X186405673Y-95355698D01*
X186584301Y-95534327D01*
X186817690Y-95631000D01*
X187070309Y-95631000D01*
X187356087Y-95631000D01*
X186880887Y-96106200D01*
X186563000Y-96106200D01*
X186253026Y-96167858D01*
X185990244Y-96343444D01*
X185814658Y-96606226D01*
X185801000Y-96674886D01*
X185787516Y-96742673D01*
X185631802Y-96807173D01*
X185610500Y-96828474D01*
X185589199Y-96807173D01*
X185355810Y-96710500D01*
X185103191Y-96710500D01*
X184277000Y-96710500D01*
X184277000Y-95472250D01*
X184277000Y-94107000D01*
X183165750Y-94107000D01*
X183007000Y-94265750D01*
X183007000Y-94869691D01*
X183007000Y-95122310D01*
X183103673Y-95355699D01*
X183282302Y-95534327D01*
X183515691Y-95631000D01*
X184118250Y-95631000D01*
X184277000Y-95472250D01*
X184277000Y-96710500D01*
X183960191Y-96710500D01*
X183726802Y-96807173D01*
X183680974Y-96853000D01*
X183657200Y-96853000D01*
X183347226Y-96914658D01*
X183084444Y-97090244D01*
X182986865Y-97236280D01*
X182818461Y-97236280D01*
X182816500Y-97236280D01*
X182816500Y-93280809D01*
X182816500Y-93122750D01*
X182657750Y-92964000D01*
X181737000Y-92964000D01*
X181737000Y-93630750D01*
X181895750Y-93789500D01*
X182055191Y-93789500D01*
X182307810Y-93789500D01*
X182541199Y-93692827D01*
X182719827Y-93514198D01*
X182816500Y-93280809D01*
X182816500Y-97236280D01*
X181483000Y-97236280D01*
X181483000Y-93630750D01*
X181483000Y-92964000D01*
X180562250Y-92964000D01*
X180403500Y-93122750D01*
X180403500Y-93130370D01*
X180341270Y-93068140D01*
X179191920Y-93068140D01*
X179191920Y-93767910D01*
X179350670Y-93926660D01*
X179738711Y-93926660D01*
X179991330Y-93926660D01*
X180224719Y-93829987D01*
X180403347Y-93651358D01*
X180480166Y-93465898D01*
X180500173Y-93514198D01*
X180678801Y-93692827D01*
X180912190Y-93789500D01*
X181164809Y-93789500D01*
X181324250Y-93789500D01*
X181483000Y-93630750D01*
X181483000Y-97236280D01*
X181418921Y-97236280D01*
X181185532Y-97332953D01*
X181006903Y-97511581D01*
X180910230Y-97744970D01*
X180910230Y-97997589D01*
X180910230Y-98597029D01*
X180996788Y-98805999D01*
X180910230Y-99014970D01*
X180910230Y-99267589D01*
X180910230Y-99867029D01*
X180996788Y-100075999D01*
X180910230Y-100284970D01*
X180910230Y-100537589D01*
X180910230Y-101137029D01*
X180996788Y-101346000D01*
X180910230Y-101554971D01*
X180910230Y-101695250D01*
X181068980Y-101854000D01*
X182118000Y-101854000D01*
X182118000Y-101834000D01*
X182372000Y-101834000D01*
X182372000Y-101854000D01*
X182392000Y-101854000D01*
X182392000Y-102108000D01*
X182372000Y-102108000D01*
X182372000Y-102756970D01*
X182530750Y-102915720D01*
X182818461Y-102915720D01*
X183071080Y-102915720D01*
X183304469Y-102819047D01*
X183451500Y-102672015D01*
X183451500Y-102805809D01*
X183548173Y-103039198D01*
X183726801Y-103217827D01*
X183960190Y-103314500D01*
X184212809Y-103314500D01*
X184372250Y-103314500D01*
X184530998Y-103155752D01*
X184530998Y-103278647D01*
X184419915Y-103546166D01*
X184419486Y-104037479D01*
X184607108Y-104491557D01*
X184782223Y-104666978D01*
X184710670Y-104637267D01*
X184100009Y-104636735D01*
X183535629Y-104869932D01*
X183103449Y-105301357D01*
X182869267Y-105865330D01*
X182868735Y-106475991D01*
X183101932Y-107040371D01*
X183533357Y-107472551D01*
X184097330Y-107706733D01*
X184707991Y-107707265D01*
X185272371Y-107474068D01*
X185704551Y-107042643D01*
X185938733Y-106478670D01*
X185939265Y-105868009D01*
X185706068Y-105303629D01*
X185430625Y-105027704D01*
X185899279Y-105028114D01*
X186353357Y-104840492D01*
X186701071Y-104493385D01*
X186889485Y-104039634D01*
X186889745Y-103741315D01*
X187101815Y-103599615D01*
X187266996Y-103352405D01*
X187275768Y-103308303D01*
X187494198Y-103217827D01*
X187672827Y-103039199D01*
X187769500Y-102805810D01*
X187769500Y-102553191D01*
X187769500Y-101918191D01*
X187672827Y-101684802D01*
X187588025Y-101600000D01*
X187672827Y-101515199D01*
X187769500Y-101281810D01*
X187769500Y-101029191D01*
X187769500Y-100394191D01*
X187672827Y-100160802D01*
X187524525Y-100012500D01*
X187672827Y-99864198D01*
X187769500Y-99630809D01*
X187769500Y-99472750D01*
X187610750Y-99314000D01*
X186690000Y-99314000D01*
X186690000Y-99334000D01*
X186436000Y-99334000D01*
X186436000Y-99314000D01*
X186416000Y-99314000D01*
X186416000Y-99060000D01*
X186436000Y-99060000D01*
X186436000Y-99040000D01*
X186690000Y-99040000D01*
X186690000Y-99060000D01*
X187610750Y-99060000D01*
X187769500Y-98901250D01*
X187769500Y-98743191D01*
X187672827Y-98509802D01*
X187588025Y-98425000D01*
X187672827Y-98340199D01*
X187769500Y-98106810D01*
X187769500Y-97854191D01*
X187769500Y-97502089D01*
X187789156Y-97488956D01*
X192133191Y-93144921D01*
X192118655Y-93218000D01*
X192207887Y-93666600D01*
X190963444Y-94911044D01*
X190787858Y-95173826D01*
X190726200Y-95483800D01*
X190726200Y-105326035D01*
X190564159Y-105271446D01*
X190384554Y-105451051D01*
X190384554Y-105091841D01*
X190298148Y-104835357D01*
X189724664Y-104625542D01*
X189114540Y-104651161D01*
X188669852Y-104835357D01*
X188583446Y-105091841D01*
X189484000Y-105992395D01*
X190384554Y-105091841D01*
X190384554Y-105451051D01*
X189663605Y-106172000D01*
X190564159Y-107072554D01*
X190726200Y-107017964D01*
X190726200Y-109757987D01*
X190387187Y-110097000D01*
X190384554Y-110097000D01*
X190384554Y-107252159D01*
X189484000Y-106351605D01*
X189304395Y-106531210D01*
X189304395Y-106172000D01*
X188403841Y-105271446D01*
X188147357Y-105357852D01*
X187937542Y-105931336D01*
X187963161Y-106541460D01*
X188147357Y-106986148D01*
X188403841Y-107072554D01*
X189304395Y-106172000D01*
X189304395Y-106531210D01*
X188583446Y-107252159D01*
X188669852Y-107508643D01*
X189243336Y-107718458D01*
X189853460Y-107692839D01*
X190298148Y-107508643D01*
X190384554Y-107252159D01*
X190384554Y-110097000D01*
X189226800Y-110097000D01*
X188916826Y-110158658D01*
X188785435Y-110246451D01*
X188654043Y-110334244D01*
X188490458Y-110497829D01*
X188490458Y-108952664D01*
X188464839Y-108342540D01*
X188280643Y-107897852D01*
X188024159Y-107811446D01*
X187844554Y-107991051D01*
X187844554Y-107631841D01*
X187758148Y-107375357D01*
X187184664Y-107165542D01*
X186574540Y-107191161D01*
X186129852Y-107375357D01*
X186043446Y-107631841D01*
X186944000Y-108532395D01*
X187844554Y-107631841D01*
X187844554Y-107991051D01*
X187123605Y-108712000D01*
X188024159Y-109612554D01*
X188280643Y-109526148D01*
X188490458Y-108952664D01*
X188490458Y-110497829D01*
X187844554Y-111143733D01*
X187844554Y-109792159D01*
X186944000Y-108891605D01*
X186764395Y-109071210D01*
X186764395Y-108712000D01*
X185863841Y-107811446D01*
X185607357Y-107897852D01*
X185397542Y-108471336D01*
X185423161Y-109081460D01*
X185607357Y-109526148D01*
X185863841Y-109612554D01*
X186764395Y-108712000D01*
X186764395Y-109071210D01*
X186043446Y-109792159D01*
X186129852Y-110048643D01*
X186703336Y-110258458D01*
X187313460Y-110232839D01*
X187758148Y-110048643D01*
X187844554Y-109792159D01*
X187844554Y-111143733D01*
X186784744Y-112203544D01*
X186609158Y-112466326D01*
X186547500Y-112776300D01*
X186547500Y-116948206D01*
X186229243Y-117079708D01*
X185881529Y-117426815D01*
X185693115Y-117880566D01*
X185692686Y-118371879D01*
X185880308Y-118825957D01*
X186227415Y-119173671D01*
X186681166Y-119362085D01*
X187085407Y-119362437D01*
X187300489Y-119577519D01*
X187319204Y-119671605D01*
X187484385Y-119918815D01*
X187731595Y-120083996D01*
X187837677Y-120105097D01*
X187769500Y-120269691D01*
X187769500Y-120364250D01*
X187928250Y-120523000D01*
X188849000Y-120523000D01*
X188849000Y-120503000D01*
X189103000Y-120503000D01*
X189103000Y-120523000D01*
X189123000Y-120523000D01*
X189123000Y-120777000D01*
X189103000Y-120777000D01*
X189103000Y-120797000D01*
X188849000Y-120797000D01*
X188849000Y-120777000D01*
X187928250Y-120777000D01*
X187769500Y-120935750D01*
X187769500Y-120944300D01*
X184147933Y-120944300D01*
X184167685Y-120896734D01*
X184168114Y-120405421D01*
X183980492Y-119951343D01*
X183633385Y-119603629D01*
X183210201Y-119427907D01*
X183265996Y-119344405D01*
X183265996Y-119344404D01*
X183306066Y-119142959D01*
X183417827Y-119031199D01*
X183514500Y-118797810D01*
X183514500Y-118545191D01*
X183514500Y-117402191D01*
X183456560Y-117262312D01*
X183484896Y-117219905D01*
X183542899Y-116928300D01*
X183542900Y-116928300D01*
X183542900Y-115484353D01*
X183564777Y-115475314D01*
X183954884Y-115085887D01*
X184166269Y-114576816D01*
X184166750Y-114025602D01*
X183956254Y-113516163D01*
X183566827Y-113126056D01*
X183057756Y-112914671D01*
X182506542Y-112914190D01*
X182482608Y-112924078D01*
X182118000Y-112559470D01*
X182118000Y-102756970D01*
X182118000Y-102108000D01*
X181068980Y-102108000D01*
X180910230Y-102266750D01*
X180910230Y-102407029D01*
X181006903Y-102640418D01*
X181185531Y-102819047D01*
X181418920Y-102915720D01*
X181671539Y-102915720D01*
X181959250Y-102915720D01*
X182118000Y-102756970D01*
X182118000Y-112559470D01*
X181864000Y-112305470D01*
X181864000Y-111515025D01*
X181957827Y-111421199D01*
X182054500Y-111187810D01*
X182054500Y-110935191D01*
X182054500Y-109792191D01*
X181957827Y-109558802D01*
X181779199Y-109380173D01*
X181545810Y-109283500D01*
X181293191Y-109283500D01*
X180658191Y-109283500D01*
X180424802Y-109380173D01*
X180340000Y-109464974D01*
X180255199Y-109380173D01*
X180021810Y-109283500D01*
X179769191Y-109283500D01*
X179134191Y-109283500D01*
X178900802Y-109380173D01*
X178722173Y-109558801D01*
X178625500Y-109792190D01*
X178625500Y-110044809D01*
X178625500Y-111187809D01*
X178722173Y-111421198D01*
X178816000Y-111515025D01*
X178816000Y-112305470D01*
X178245770Y-112875699D01*
X178245770Y-102407029D01*
X178245770Y-102266750D01*
X178245770Y-101695250D01*
X178245770Y-101554971D01*
X178159211Y-101346000D01*
X178245770Y-101137030D01*
X178245770Y-100884411D01*
X178245770Y-100284971D01*
X178159211Y-100076000D01*
X178245770Y-99867030D01*
X178245770Y-99614411D01*
X178245770Y-99014971D01*
X178159211Y-98806000D01*
X178245770Y-98597030D01*
X178245770Y-98344411D01*
X178245770Y-97744971D01*
X178149097Y-97511582D01*
X177970469Y-97332953D01*
X177737080Y-97236280D01*
X177484461Y-97236280D01*
X176084921Y-97236280D01*
X175851532Y-97332953D01*
X175823484Y-97361000D01*
X175781900Y-97361000D01*
X175471926Y-97422658D01*
X175209144Y-97598244D01*
X175033558Y-97861026D01*
X174971900Y-98171000D01*
X174971900Y-98876400D01*
X175028053Y-99158699D01*
X175028053Y-99158700D01*
X174971900Y-99441000D01*
X174971900Y-100146400D01*
X175033558Y-100456374D01*
X175202609Y-100709377D01*
X165797244Y-110114744D01*
X165621658Y-110377526D01*
X165560000Y-110687500D01*
X165560000Y-120593813D01*
X165501629Y-120617932D01*
X165099677Y-121019181D01*
X164700643Y-120619449D01*
X164136670Y-120385267D01*
X163526009Y-120384735D01*
X162961629Y-120617932D01*
X162559677Y-121019181D01*
X162160643Y-120619449D01*
X161596670Y-120385267D01*
X160986009Y-120384735D01*
X160421629Y-120617932D01*
X159989449Y-121049357D01*
X159964267Y-121110000D01*
X148855265Y-121110000D01*
X148855265Y-86056009D01*
X148622068Y-85491629D01*
X148190643Y-85059449D01*
X147626670Y-84825267D01*
X147016009Y-84824735D01*
X146451629Y-85057932D01*
X146049677Y-85459181D01*
X145650643Y-85059449D01*
X145086670Y-84825267D01*
X144476009Y-84824735D01*
X143911629Y-85057932D01*
X143509677Y-85459181D01*
X143110643Y-85059449D01*
X142546670Y-84825267D01*
X141936009Y-84824735D01*
X141371629Y-85057932D01*
X140939449Y-85489357D01*
X140705267Y-86053330D01*
X140704735Y-86663991D01*
X140937932Y-87228371D01*
X141369357Y-87660551D01*
X141933330Y-87894733D01*
X142543991Y-87895265D01*
X143108371Y-87662068D01*
X143510322Y-87260818D01*
X143909357Y-87660551D01*
X144473330Y-87894733D01*
X145083991Y-87895265D01*
X145648371Y-87662068D01*
X146050322Y-87260818D01*
X146449357Y-87660551D01*
X147013330Y-87894733D01*
X147623991Y-87895265D01*
X148188371Y-87662068D01*
X148620551Y-87230643D01*
X148854733Y-86666670D01*
X148855265Y-86056009D01*
X148855265Y-121110000D01*
X148646186Y-121110000D01*
X148622068Y-121051629D01*
X148190643Y-120619449D01*
X147626670Y-120385267D01*
X147016009Y-120384735D01*
X146451629Y-120617932D01*
X146049677Y-121019181D01*
X145650643Y-120619449D01*
X145086670Y-120385267D01*
X144476009Y-120384735D01*
X143911629Y-120617932D01*
X143509677Y-121019181D01*
X143110643Y-120619449D01*
X142546670Y-120385267D01*
X141936009Y-120384735D01*
X141371629Y-120617932D01*
X140939449Y-121049357D01*
X140705267Y-121613330D01*
X140704735Y-122223991D01*
X140937932Y-122788371D01*
X141369357Y-123220551D01*
X141933330Y-123454733D01*
X142543991Y-123455265D01*
X143108371Y-123222068D01*
X143510322Y-122820818D01*
X143909357Y-123220551D01*
X144473330Y-123454733D01*
X145083991Y-123455265D01*
X145648371Y-123222068D01*
X146050322Y-122820818D01*
X146449357Y-123220551D01*
X147013330Y-123454733D01*
X147623991Y-123455265D01*
X148188371Y-123222068D01*
X148620551Y-122790643D01*
X148645732Y-122730000D01*
X159963813Y-122730000D01*
X159987932Y-122788371D01*
X160419357Y-123220551D01*
X160983330Y-123454733D01*
X161593991Y-123455265D01*
X162158371Y-123222068D01*
X162560322Y-122820818D01*
X162959357Y-123220551D01*
X163523330Y-123454733D01*
X164133991Y-123455265D01*
X164698371Y-123222068D01*
X165100322Y-122820818D01*
X165499357Y-123220551D01*
X166063330Y-123454733D01*
X166673991Y-123455265D01*
X167238371Y-123222068D01*
X167670551Y-122790643D01*
X167904733Y-122226670D01*
X167905265Y-121616009D01*
X167672068Y-121051629D01*
X167240643Y-120619449D01*
X167180000Y-120594267D01*
X167180000Y-111023012D01*
X175640594Y-102562418D01*
X175672903Y-102640418D01*
X175851531Y-102819047D01*
X176084920Y-102915720D01*
X176337539Y-102915720D01*
X176625250Y-102915720D01*
X176784000Y-102756970D01*
X176784000Y-102108000D01*
X176764000Y-102108000D01*
X176764000Y-101854000D01*
X176784000Y-101854000D01*
X176784000Y-101834000D01*
X177038000Y-101834000D01*
X177038000Y-101854000D01*
X178087020Y-101854000D01*
X178245770Y-101695250D01*
X178245770Y-102266750D01*
X178087020Y-102108000D01*
X177038000Y-102108000D01*
X177038000Y-102756970D01*
X177196750Y-102915720D01*
X177484461Y-102915720D01*
X177737080Y-102915720D01*
X177970469Y-102819047D01*
X178149097Y-102640418D01*
X178245770Y-102407029D01*
X178245770Y-112875699D01*
X178197726Y-112923743D01*
X178175876Y-112914671D01*
X177624662Y-112914190D01*
X177115223Y-113124686D01*
X176725116Y-113514113D01*
X176513731Y-114023184D01*
X176513250Y-114574398D01*
X176723746Y-115083837D01*
X177113173Y-115473944D01*
X177137100Y-115483879D01*
X177137100Y-116958300D01*
X177195104Y-117249905D01*
X177197248Y-117253115D01*
X177135500Y-117402190D01*
X177135500Y-117654809D01*
X177135500Y-118797809D01*
X177232173Y-119031198D01*
X177343933Y-119142959D01*
X177343934Y-119142960D01*
X177384004Y-119344405D01*
X177549185Y-119591615D01*
X177850500Y-119892930D01*
X177850500Y-119989600D01*
X177908504Y-120281205D01*
X178073685Y-120528415D01*
X178320895Y-120693596D01*
X178358800Y-120701135D01*
X178358800Y-120777002D01*
X178443253Y-120777002D01*
X178408679Y-120860470D01*
X178358800Y-120910350D01*
X178358800Y-120979509D01*
X178359086Y-120980199D01*
X178358800Y-120980890D01*
X178358800Y-121233509D01*
X178358800Y-121639909D01*
X178455473Y-121873298D01*
X178634101Y-122051927D01*
X178867490Y-122148600D01*
X179120109Y-122148600D01*
X179780509Y-122148600D01*
X179964471Y-122072400D01*
X180209900Y-122072400D01*
X180209900Y-122072399D01*
X180501504Y-122014396D01*
X180501505Y-122014396D01*
X180577674Y-121963500D01*
X180577675Y-121963500D01*
X180666101Y-122051927D01*
X180899490Y-122148600D01*
X181152109Y-122148600D01*
X181812509Y-122148600D01*
X181823512Y-122144042D01*
X181924585Y-122245115D01*
X182171795Y-122410296D01*
X182463400Y-122468300D01*
X189332800Y-122468300D01*
X189332800Y-122468299D01*
X189558854Y-122423334D01*
X189616008Y-122561657D01*
X189963115Y-122909371D01*
X190416866Y-123097785D01*
X190908179Y-123098214D01*
X191362257Y-122910592D01*
X191709971Y-122563485D01*
X191898385Y-122109734D01*
X191898814Y-121618421D01*
X191711192Y-121164343D01*
X191425600Y-120878251D01*
X191425600Y-115034800D01*
X191367596Y-114743195D01*
X191202415Y-114495985D01*
X190467615Y-113761185D01*
X190390033Y-113709346D01*
X190549556Y-113602756D01*
X191278712Y-112873600D01*
X192007287Y-112873600D01*
X192736444Y-113602757D01*
X192893970Y-113708012D01*
X192999226Y-113778342D01*
X192999227Y-113778342D01*
X193149654Y-113808264D01*
X193103500Y-113919690D01*
X193103500Y-114172309D01*
X193103500Y-114680309D01*
X193200173Y-114913698D01*
X193221474Y-114934999D01*
X193200173Y-114956301D01*
X193103500Y-115189690D01*
X193103500Y-115442309D01*
X193103500Y-115950309D01*
X193200173Y-116183698D01*
X193221474Y-116204999D01*
X193200173Y-116226301D01*
X193103500Y-116459690D01*
X193103500Y-116712309D01*
X193103500Y-117220309D01*
X193200173Y-117453698D01*
X193221474Y-117474999D01*
X193200173Y-117496301D01*
X193103500Y-117729690D01*
X193103500Y-117982309D01*
X193103500Y-118490309D01*
X193200173Y-118723698D01*
X193221474Y-118744999D01*
X193200173Y-118766301D01*
X193103500Y-118999690D01*
X193103500Y-119252309D01*
X193103500Y-119760309D01*
X193200173Y-119993698D01*
X193221474Y-120014999D01*
X193200173Y-120036301D01*
X193103500Y-120269690D01*
X193103500Y-120522309D01*
X193103500Y-121030309D01*
X193200173Y-121263698D01*
X193378801Y-121442327D01*
X193612190Y-121539000D01*
X193864809Y-121539000D01*
X194815000Y-121539000D01*
X194815000Y-123956880D01*
X194815000Y-123956880D01*
G37*
X194815000Y-123956880D02*
X194547283Y-123688696D01*
X193545005Y-123272514D01*
X192459756Y-123271567D01*
X191456753Y-123685999D01*
X190688696Y-124452717D01*
X190272514Y-125454995D01*
X190271567Y-126540244D01*
X190685999Y-127543247D01*
X190957278Y-127815000D01*
X135043119Y-127815000D01*
X135311304Y-127547283D01*
X135727486Y-126545005D01*
X135728433Y-125459756D01*
X135314001Y-124456753D01*
X134547283Y-123688696D01*
X133545005Y-123272514D01*
X132459756Y-123271567D01*
X131456753Y-123685999D01*
X131185000Y-123957278D01*
X131185000Y-85043119D01*
X131452717Y-85311304D01*
X132454995Y-85727486D01*
X133540244Y-85728433D01*
X134543247Y-85314001D01*
X135311304Y-84547283D01*
X135727486Y-83545005D01*
X135728433Y-82459756D01*
X135314001Y-81456753D01*
X135042721Y-81185000D01*
X190956880Y-81185000D01*
X190688696Y-81452717D01*
X190272514Y-82454995D01*
X190271567Y-83540244D01*
X190685999Y-84543247D01*
X191452717Y-85311304D01*
X192454995Y-85727486D01*
X193540244Y-85728433D01*
X194543247Y-85314001D01*
X194815000Y-85042721D01*
X194815000Y-86639400D01*
X194691691Y-86639400D01*
X192659691Y-86639400D01*
X192426302Y-86736073D01*
X192247673Y-86914701D01*
X192151000Y-87148090D01*
X192151000Y-87400709D01*
X192151000Y-88643487D01*
X191179544Y-89614944D01*
X191003958Y-89877726D01*
X190942300Y-90187700D01*
X190942300Y-92044787D01*
X189103000Y-93884087D01*
X189103000Y-92837691D01*
X189006327Y-92604302D01*
X188847864Y-92445838D01*
X188878671Y-92415085D01*
X189067085Y-91961334D01*
X189067514Y-91470021D01*
X188879892Y-91015943D01*
X188532785Y-90668229D01*
X188079034Y-90479815D01*
X187742733Y-90479521D01*
X187212074Y-89948862D01*
X187169142Y-89733026D01*
X186993556Y-89470244D01*
X186730774Y-89294658D01*
X186420800Y-89233000D01*
X186397025Y-89233000D01*
X186351199Y-89187173D01*
X186195483Y-89122673D01*
X186168343Y-88986227D01*
X186168342Y-88986226D01*
X185992757Y-88723444D01*
X185211556Y-87942244D01*
X184948774Y-87766658D01*
X184638800Y-87705000D01*
X184038600Y-87705000D01*
X184038600Y-83184745D01*
X184038600Y-82815255D01*
X183924526Y-82241766D01*
X183599670Y-81755585D01*
X183113489Y-81430729D01*
X182540000Y-81316655D01*
X181966511Y-81430729D01*
X181480330Y-81755585D01*
X181273539Y-82065069D01*
X180902036Y-81649268D01*
X180374791Y-81395291D01*
X180359026Y-81392642D01*
X180127000Y-81513783D01*
X180127000Y-82873000D01*
X180147000Y-82873000D01*
X180147000Y-83127000D01*
X180127000Y-83127000D01*
X180127000Y-84486217D01*
X180359026Y-84607358D01*
X180374791Y-84604709D01*
X180902036Y-84350732D01*
X181273539Y-83934930D01*
X181480330Y-84244415D01*
X181966511Y-84569271D01*
X182540000Y-84683345D01*
X183113489Y-84569271D01*
X183599670Y-84244415D01*
X183924526Y-83758234D01*
X184038600Y-83184745D01*
X184038600Y-87705000D01*
X182503000Y-87705000D01*
X182193026Y-87766658D01*
X182061635Y-87854451D01*
X181930243Y-87942244D01*
X181657044Y-88215444D01*
X181581502Y-88328500D01*
X181039191Y-88328500D01*
X180805802Y-88425173D01*
X180627173Y-88603801D01*
X180566085Y-88751279D01*
X180526096Y-88759233D01*
X180388227Y-88786657D01*
X180125444Y-88962243D01*
X180092458Y-88995228D01*
X179991330Y-88953340D01*
X179873000Y-88953340D01*
X179873000Y-84486217D01*
X179873000Y-83127000D01*
X179853000Y-83127000D01*
X179853000Y-82873000D01*
X179873000Y-82873000D01*
X179873000Y-81513783D01*
X179640974Y-81392642D01*
X179625209Y-81395291D01*
X179097964Y-81649268D01*
X178943758Y-81821860D01*
X178861927Y-81624302D01*
X178683299Y-81445673D01*
X178449910Y-81349000D01*
X178197291Y-81349000D01*
X176470091Y-81349000D01*
X176236702Y-81445673D01*
X176058073Y-81624301D01*
X175961400Y-81857690D01*
X175961400Y-82110309D01*
X175961400Y-84142309D01*
X176058073Y-84375698D01*
X176236701Y-84554327D01*
X176470090Y-84651000D01*
X176722709Y-84651000D01*
X178449909Y-84651000D01*
X178683298Y-84554327D01*
X178861927Y-84375699D01*
X178943758Y-84178139D01*
X179097964Y-84350732D01*
X179625209Y-84604709D01*
X179640974Y-84607358D01*
X179873000Y-84486217D01*
X179873000Y-88953340D01*
X179738711Y-88953340D01*
X178138511Y-88953340D01*
X177905122Y-89050013D01*
X177726493Y-89228641D01*
X177629820Y-89462030D01*
X177629820Y-89714649D01*
X177629820Y-89805510D01*
X174913981Y-89805510D01*
X174680592Y-89902183D01*
X174501963Y-90080811D01*
X174405290Y-90314200D01*
X174405290Y-90566819D01*
X174405290Y-90630000D01*
X171785512Y-90630000D01*
X167880512Y-86725000D01*
X167904733Y-86666670D01*
X167905265Y-86056009D01*
X167672068Y-85491629D01*
X167240643Y-85059449D01*
X166676670Y-84825267D01*
X166066009Y-84824735D01*
X165501629Y-85057932D01*
X165099677Y-85459181D01*
X164700643Y-85059449D01*
X164136670Y-84825267D01*
X163526009Y-84824735D01*
X162961629Y-85057932D01*
X162559677Y-85459181D01*
X162160643Y-85059449D01*
X161596670Y-84825267D01*
X160986009Y-84824735D01*
X160421629Y-85057932D01*
X159989449Y-85489357D01*
X159755267Y-86053330D01*
X159754735Y-86663991D01*
X159987932Y-87228371D01*
X160419357Y-87660551D01*
X160983330Y-87894733D01*
X161593991Y-87895265D01*
X162158371Y-87662068D01*
X162560322Y-87260818D01*
X162959357Y-87660551D01*
X163523330Y-87894733D01*
X164133991Y-87895265D01*
X164698371Y-87662068D01*
X165100322Y-87260818D01*
X165499357Y-87660551D01*
X166063330Y-87894733D01*
X166673991Y-87895265D01*
X166734677Y-87870189D01*
X170877244Y-92012757D01*
X171034770Y-92118012D01*
X171140026Y-92188342D01*
X171140027Y-92188342D01*
X171450000Y-92250000D01*
X174405290Y-92250000D01*
X174405290Y-92565799D01*
X174501963Y-92799188D01*
X174680591Y-92977817D01*
X174913980Y-93074490D01*
X175166599Y-93074490D01*
X177782220Y-93074490D01*
X177629820Y-93226890D01*
X177629820Y-93417969D01*
X177726493Y-93651358D01*
X177905121Y-93829987D01*
X178138510Y-93926660D01*
X178391129Y-93926660D01*
X178779170Y-93926660D01*
X178937920Y-93767910D01*
X178937920Y-93068140D01*
X178917920Y-93068140D01*
X178917920Y-92814140D01*
X178937920Y-92814140D01*
X178937920Y-92794140D01*
X179191920Y-92794140D01*
X179191920Y-92814140D01*
X180341270Y-92814140D01*
X180500020Y-92655390D01*
X180500020Y-92647770D01*
X180562250Y-92710000D01*
X181483000Y-92710000D01*
X181483000Y-92690000D01*
X181737000Y-92690000D01*
X181737000Y-92710000D01*
X182657750Y-92710000D01*
X182816500Y-92551250D01*
X182816500Y-92393191D01*
X182719827Y-92159802D01*
X182635025Y-92075000D01*
X182719827Y-91990199D01*
X182816500Y-91756810D01*
X182816500Y-91504191D01*
X182816500Y-90869191D01*
X182751202Y-90711547D01*
X182880000Y-90582750D01*
X182880000Y-89991853D01*
X182978142Y-89844974D01*
X183039800Y-89535000D01*
X183039800Y-89388000D01*
X183134000Y-89388000D01*
X183134000Y-89408000D01*
X183800750Y-89408000D01*
X183883750Y-89325000D01*
X184303287Y-89325000D01*
X184327130Y-89348843D01*
X184310173Y-89365801D01*
X184213500Y-89599190D01*
X184213500Y-89851809D01*
X184213500Y-90486809D01*
X184310173Y-90720198D01*
X184394974Y-90804999D01*
X184310173Y-90889801D01*
X184213500Y-91123190D01*
X184213500Y-91375809D01*
X184213500Y-92010809D01*
X184310173Y-92244198D01*
X184394974Y-92329000D01*
X184276998Y-92329000D01*
X184276998Y-92487748D01*
X184118250Y-92329000D01*
X183959500Y-92329000D01*
X183959500Y-90232810D01*
X183959500Y-89980191D01*
X183959500Y-89820750D01*
X183800750Y-89662000D01*
X183134000Y-89662000D01*
X183134000Y-90582750D01*
X183292750Y-90741500D01*
X183450809Y-90741500D01*
X183684198Y-90644827D01*
X183862827Y-90466199D01*
X183959500Y-90232810D01*
X183959500Y-92329000D01*
X183515691Y-92329000D01*
X183282302Y-92425673D01*
X183103673Y-92604301D01*
X183007000Y-92837690D01*
X183007000Y-93090309D01*
X183007000Y-93694250D01*
X183165750Y-93853000D01*
X184277000Y-93853000D01*
X184277000Y-93833000D01*
X184531000Y-93833000D01*
X184531000Y-93853000D01*
X184551000Y-93853000D01*
X184551000Y-94107000D01*
X184531000Y-94107000D01*
X184531000Y-95472250D01*
X184689750Y-95631000D01*
X185292309Y-95631000D01*
X185525698Y-95534327D01*
X185704327Y-95355699D01*
X185801000Y-95122310D01*
X185801000Y-94869691D01*
X185801000Y-94265750D01*
X185642252Y-94107002D01*
X185801000Y-94107002D01*
X185801000Y-93981508D01*
X185858704Y-94271605D01*
X186023885Y-94518815D01*
X186271095Y-94683996D01*
X186309000Y-94691535D01*
X186309000Y-95122309D01*
X186405673Y-95355698D01*
X186584301Y-95534327D01*
X186817690Y-95631000D01*
X187070309Y-95631000D01*
X187356087Y-95631000D01*
X186880887Y-96106200D01*
X186563000Y-96106200D01*
X186253026Y-96167858D01*
X185990244Y-96343444D01*
X185814658Y-96606226D01*
X185801000Y-96674886D01*
X185787516Y-96742673D01*
X185631802Y-96807173D01*
X185610500Y-96828474D01*
X185589199Y-96807173D01*
X185355810Y-96710500D01*
X185103191Y-96710500D01*
X184277000Y-96710500D01*
X184277000Y-95472250D01*
X184277000Y-94107000D01*
X183165750Y-94107000D01*
X183007000Y-94265750D01*
X183007000Y-94869691D01*
X183007000Y-95122310D01*
X183103673Y-95355699D01*
X183282302Y-95534327D01*
X183515691Y-95631000D01*
X184118250Y-95631000D01*
X184277000Y-95472250D01*
X184277000Y-96710500D01*
X183960191Y-96710500D01*
X183726802Y-96807173D01*
X183680974Y-96853000D01*
X183657200Y-96853000D01*
X183347226Y-96914658D01*
X183084444Y-97090244D01*
X182986865Y-97236280D01*
X182818461Y-97236280D01*
X182816500Y-97236280D01*
X182816500Y-93280809D01*
X182816500Y-93122750D01*
X182657750Y-92964000D01*
X181737000Y-92964000D01*
X181737000Y-93630750D01*
X181895750Y-93789500D01*
X182055191Y-93789500D01*
X182307810Y-93789500D01*
X182541199Y-93692827D01*
X182719827Y-93514198D01*
X182816500Y-93280809D01*
X182816500Y-97236280D01*
X181483000Y-97236280D01*
X181483000Y-93630750D01*
X181483000Y-92964000D01*
X180562250Y-92964000D01*
X180403500Y-93122750D01*
X180403500Y-93130370D01*
X180341270Y-93068140D01*
X179191920Y-93068140D01*
X179191920Y-93767910D01*
X179350670Y-93926660D01*
X179738711Y-93926660D01*
X179991330Y-93926660D01*
X180224719Y-93829987D01*
X180403347Y-93651358D01*
X180480166Y-93465898D01*
X180500173Y-93514198D01*
X180678801Y-93692827D01*
X180912190Y-93789500D01*
X181164809Y-93789500D01*
X181324250Y-93789500D01*
X181483000Y-93630750D01*
X181483000Y-97236280D01*
X181418921Y-97236280D01*
X181185532Y-97332953D01*
X181006903Y-97511581D01*
X180910230Y-97744970D01*
X180910230Y-97997589D01*
X180910230Y-98597029D01*
X180996788Y-98805999D01*
X180910230Y-99014970D01*
X180910230Y-99267589D01*
X180910230Y-99867029D01*
X180996788Y-100075999D01*
X180910230Y-100284970D01*
X180910230Y-100537589D01*
X180910230Y-101137029D01*
X180996788Y-101346000D01*
X180910230Y-101554971D01*
X180910230Y-101695250D01*
X181068980Y-101854000D01*
X182118000Y-101854000D01*
X182118000Y-101834000D01*
X182372000Y-101834000D01*
X182372000Y-101854000D01*
X182392000Y-101854000D01*
X182392000Y-102108000D01*
X182372000Y-102108000D01*
X182372000Y-102756970D01*
X182530750Y-102915720D01*
X182818461Y-102915720D01*
X183071080Y-102915720D01*
X183304469Y-102819047D01*
X183451500Y-102672015D01*
X183451500Y-102805809D01*
X183548173Y-103039198D01*
X183726801Y-103217827D01*
X183960190Y-103314500D01*
X184212809Y-103314500D01*
X184372250Y-103314500D01*
X184530998Y-103155752D01*
X184530998Y-103278647D01*
X184419915Y-103546166D01*
X184419486Y-104037479D01*
X184607108Y-104491557D01*
X184782223Y-104666978D01*
X184710670Y-104637267D01*
X184100009Y-104636735D01*
X183535629Y-104869932D01*
X183103449Y-105301357D01*
X182869267Y-105865330D01*
X182868735Y-106475991D01*
X183101932Y-107040371D01*
X183533357Y-107472551D01*
X184097330Y-107706733D01*
X184707991Y-107707265D01*
X185272371Y-107474068D01*
X185704551Y-107042643D01*
X185938733Y-106478670D01*
X185939265Y-105868009D01*
X185706068Y-105303629D01*
X185430625Y-105027704D01*
X185899279Y-105028114D01*
X186353357Y-104840492D01*
X186701071Y-104493385D01*
X186889485Y-104039634D01*
X186889745Y-103741315D01*
X187101815Y-103599615D01*
X187266996Y-103352405D01*
X187275768Y-103308303D01*
X187494198Y-103217827D01*
X187672827Y-103039199D01*
X187769500Y-102805810D01*
X187769500Y-102553191D01*
X187769500Y-101918191D01*
X187672827Y-101684802D01*
X187588025Y-101600000D01*
X187672827Y-101515199D01*
X187769500Y-101281810D01*
X187769500Y-101029191D01*
X187769500Y-100394191D01*
X187672827Y-100160802D01*
X187524525Y-100012500D01*
X187672827Y-99864198D01*
X187769500Y-99630809D01*
X187769500Y-99472750D01*
X187610750Y-99314000D01*
X186690000Y-99314000D01*
X186690000Y-99334000D01*
X186436000Y-99334000D01*
X186436000Y-99314000D01*
X186416000Y-99314000D01*
X186416000Y-99060000D01*
X186436000Y-99060000D01*
X186436000Y-99040000D01*
X186690000Y-99040000D01*
X186690000Y-99060000D01*
X187610750Y-99060000D01*
X187769500Y-98901250D01*
X187769500Y-98743191D01*
X187672827Y-98509802D01*
X187588025Y-98425000D01*
X187672827Y-98340199D01*
X187769500Y-98106810D01*
X187769500Y-97854191D01*
X187769500Y-97502089D01*
X187789156Y-97488956D01*
X192133191Y-93144921D01*
X192118655Y-93218000D01*
X192207887Y-93666600D01*
X190963444Y-94911044D01*
X190787858Y-95173826D01*
X190726200Y-95483800D01*
X190726200Y-105326035D01*
X190564159Y-105271446D01*
X190384554Y-105451051D01*
X190384554Y-105091841D01*
X190298148Y-104835357D01*
X189724664Y-104625542D01*
X189114540Y-104651161D01*
X188669852Y-104835357D01*
X188583446Y-105091841D01*
X189484000Y-105992395D01*
X190384554Y-105091841D01*
X190384554Y-105451051D01*
X189663605Y-106172000D01*
X190564159Y-107072554D01*
X190726200Y-107017964D01*
X190726200Y-109757987D01*
X190387187Y-110097000D01*
X190384554Y-110097000D01*
X190384554Y-107252159D01*
X189484000Y-106351605D01*
X189304395Y-106531210D01*
X189304395Y-106172000D01*
X188403841Y-105271446D01*
X188147357Y-105357852D01*
X187937542Y-105931336D01*
X187963161Y-106541460D01*
X188147357Y-106986148D01*
X188403841Y-107072554D01*
X189304395Y-106172000D01*
X189304395Y-106531210D01*
X188583446Y-107252159D01*
X188669852Y-107508643D01*
X189243336Y-107718458D01*
X189853460Y-107692839D01*
X190298148Y-107508643D01*
X190384554Y-107252159D01*
X190384554Y-110097000D01*
X189226800Y-110097000D01*
X188916826Y-110158658D01*
X188785435Y-110246451D01*
X188654043Y-110334244D01*
X188490458Y-110497829D01*
X188490458Y-108952664D01*
X188464839Y-108342540D01*
X188280643Y-107897852D01*
X188024159Y-107811446D01*
X187844554Y-107991051D01*
X187844554Y-107631841D01*
X187758148Y-107375357D01*
X187184664Y-107165542D01*
X186574540Y-107191161D01*
X186129852Y-107375357D01*
X186043446Y-107631841D01*
X186944000Y-108532395D01*
X187844554Y-107631841D01*
X187844554Y-107991051D01*
X187123605Y-108712000D01*
X188024159Y-109612554D01*
X188280643Y-109526148D01*
X188490458Y-108952664D01*
X188490458Y-110497829D01*
X187844554Y-111143733D01*
X187844554Y-109792159D01*
X186944000Y-108891605D01*
X186764395Y-109071210D01*
X186764395Y-108712000D01*
X185863841Y-107811446D01*
X185607357Y-107897852D01*
X185397542Y-108471336D01*
X185423161Y-109081460D01*
X185607357Y-109526148D01*
X185863841Y-109612554D01*
X186764395Y-108712000D01*
X186764395Y-109071210D01*
X186043446Y-109792159D01*
X186129852Y-110048643D01*
X186703336Y-110258458D01*
X187313460Y-110232839D01*
X187758148Y-110048643D01*
X187844554Y-109792159D01*
X187844554Y-111143733D01*
X186784744Y-112203544D01*
X186609158Y-112466326D01*
X186547500Y-112776300D01*
X186547500Y-116948206D01*
X186229243Y-117079708D01*
X185881529Y-117426815D01*
X185693115Y-117880566D01*
X185692686Y-118371879D01*
X185880308Y-118825957D01*
X186227415Y-119173671D01*
X186681166Y-119362085D01*
X187085407Y-119362437D01*
X187300489Y-119577519D01*
X187319204Y-119671605D01*
X187484385Y-119918815D01*
X187731595Y-120083996D01*
X187837677Y-120105097D01*
X187769500Y-120269691D01*
X187769500Y-120364250D01*
X187928250Y-120523000D01*
X188849000Y-120523000D01*
X188849000Y-120503000D01*
X189103000Y-120503000D01*
X189103000Y-120523000D01*
X189123000Y-120523000D01*
X189123000Y-120777000D01*
X189103000Y-120777000D01*
X189103000Y-120797000D01*
X188849000Y-120797000D01*
X188849000Y-120777000D01*
X187928250Y-120777000D01*
X187769500Y-120935750D01*
X187769500Y-120944300D01*
X184147933Y-120944300D01*
X184167685Y-120896734D01*
X184168114Y-120405421D01*
X183980492Y-119951343D01*
X183633385Y-119603629D01*
X183210201Y-119427907D01*
X183265996Y-119344405D01*
X183265996Y-119344404D01*
X183306066Y-119142959D01*
X183417827Y-119031199D01*
X183514500Y-118797810D01*
X183514500Y-118545191D01*
X183514500Y-117402191D01*
X183456560Y-117262312D01*
X183484896Y-117219905D01*
X183542899Y-116928300D01*
X183542900Y-116928300D01*
X183542900Y-115484353D01*
X183564777Y-115475314D01*
X183954884Y-115085887D01*
X184166269Y-114576816D01*
X184166750Y-114025602D01*
X183956254Y-113516163D01*
X183566827Y-113126056D01*
X183057756Y-112914671D01*
X182506542Y-112914190D01*
X182482608Y-112924078D01*
X182118000Y-112559470D01*
X182118000Y-102756970D01*
X182118000Y-102108000D01*
X181068980Y-102108000D01*
X180910230Y-102266750D01*
X180910230Y-102407029D01*
X181006903Y-102640418D01*
X181185531Y-102819047D01*
X181418920Y-102915720D01*
X181671539Y-102915720D01*
X181959250Y-102915720D01*
X182118000Y-102756970D01*
X182118000Y-112559470D01*
X181864000Y-112305470D01*
X181864000Y-111515025D01*
X181957827Y-111421199D01*
X182054500Y-111187810D01*
X182054500Y-110935191D01*
X182054500Y-109792191D01*
X181957827Y-109558802D01*
X181779199Y-109380173D01*
X181545810Y-109283500D01*
X181293191Y-109283500D01*
X180658191Y-109283500D01*
X180424802Y-109380173D01*
X180340000Y-109464974D01*
X180255199Y-109380173D01*
X180021810Y-109283500D01*
X179769191Y-109283500D01*
X179134191Y-109283500D01*
X178900802Y-109380173D01*
X178722173Y-109558801D01*
X178625500Y-109792190D01*
X178625500Y-110044809D01*
X178625500Y-111187809D01*
X178722173Y-111421198D01*
X178816000Y-111515025D01*
X178816000Y-112305470D01*
X178245770Y-112875699D01*
X178245770Y-102407029D01*
X178245770Y-102266750D01*
X178245770Y-101695250D01*
X178245770Y-101554971D01*
X178159211Y-101346000D01*
X178245770Y-101137030D01*
X178245770Y-100884411D01*
X178245770Y-100284971D01*
X178159211Y-100076000D01*
X178245770Y-99867030D01*
X178245770Y-99614411D01*
X178245770Y-99014971D01*
X178159211Y-98806000D01*
X178245770Y-98597030D01*
X178245770Y-98344411D01*
X178245770Y-97744971D01*
X178149097Y-97511582D01*
X177970469Y-97332953D01*
X177737080Y-97236280D01*
X177484461Y-97236280D01*
X176084921Y-97236280D01*
X175851532Y-97332953D01*
X175823484Y-97361000D01*
X175781900Y-97361000D01*
X175471926Y-97422658D01*
X175209144Y-97598244D01*
X175033558Y-97861026D01*
X174971900Y-98171000D01*
X174971900Y-98876400D01*
X175028053Y-99158699D01*
X175028053Y-99158700D01*
X174971900Y-99441000D01*
X174971900Y-100146400D01*
X175033558Y-100456374D01*
X175202609Y-100709377D01*
X165797244Y-110114744D01*
X165621658Y-110377526D01*
X165560000Y-110687500D01*
X165560000Y-120593813D01*
X165501629Y-120617932D01*
X165099677Y-121019181D01*
X164700643Y-120619449D01*
X164136670Y-120385267D01*
X163526009Y-120384735D01*
X162961629Y-120617932D01*
X162559677Y-121019181D01*
X162160643Y-120619449D01*
X161596670Y-120385267D01*
X160986009Y-120384735D01*
X160421629Y-120617932D01*
X159989449Y-121049357D01*
X159964267Y-121110000D01*
X148855265Y-121110000D01*
X148855265Y-86056009D01*
X148622068Y-85491629D01*
X148190643Y-85059449D01*
X147626670Y-84825267D01*
X147016009Y-84824735D01*
X146451629Y-85057932D01*
X146049677Y-85459181D01*
X145650643Y-85059449D01*
X145086670Y-84825267D01*
X144476009Y-84824735D01*
X143911629Y-85057932D01*
X143509677Y-85459181D01*
X143110643Y-85059449D01*
X142546670Y-84825267D01*
X141936009Y-84824735D01*
X141371629Y-85057932D01*
X140939449Y-85489357D01*
X140705267Y-86053330D01*
X140704735Y-86663991D01*
X140937932Y-87228371D01*
X141369357Y-87660551D01*
X141933330Y-87894733D01*
X142543991Y-87895265D01*
X143108371Y-87662068D01*
X143510322Y-87260818D01*
X143909357Y-87660551D01*
X144473330Y-87894733D01*
X145083991Y-87895265D01*
X145648371Y-87662068D01*
X146050322Y-87260818D01*
X146449357Y-87660551D01*
X147013330Y-87894733D01*
X147623991Y-87895265D01*
X148188371Y-87662068D01*
X148620551Y-87230643D01*
X148854733Y-86666670D01*
X148855265Y-86056009D01*
X148855265Y-121110000D01*
X148646186Y-121110000D01*
X148622068Y-121051629D01*
X148190643Y-120619449D01*
X147626670Y-120385267D01*
X147016009Y-120384735D01*
X146451629Y-120617932D01*
X146049677Y-121019181D01*
X145650643Y-120619449D01*
X145086670Y-120385267D01*
X144476009Y-120384735D01*
X143911629Y-120617932D01*
X143509677Y-121019181D01*
X143110643Y-120619449D01*
X142546670Y-120385267D01*
X141936009Y-120384735D01*
X141371629Y-120617932D01*
X140939449Y-121049357D01*
X140705267Y-121613330D01*
X140704735Y-122223991D01*
X140937932Y-122788371D01*
X141369357Y-123220551D01*
X141933330Y-123454733D01*
X142543991Y-123455265D01*
X143108371Y-123222068D01*
X143510322Y-122820818D01*
X143909357Y-123220551D01*
X144473330Y-123454733D01*
X145083991Y-123455265D01*
X145648371Y-123222068D01*
X146050322Y-122820818D01*
X146449357Y-123220551D01*
X147013330Y-123454733D01*
X147623991Y-123455265D01*
X148188371Y-123222068D01*
X148620551Y-122790643D01*
X148645732Y-122730000D01*
X159963813Y-122730000D01*
X159987932Y-122788371D01*
X160419357Y-123220551D01*
X160983330Y-123454733D01*
X161593991Y-123455265D01*
X162158371Y-123222068D01*
X162560322Y-122820818D01*
X162959357Y-123220551D01*
X163523330Y-123454733D01*
X164133991Y-123455265D01*
X164698371Y-123222068D01*
X165100322Y-122820818D01*
X165499357Y-123220551D01*
X166063330Y-123454733D01*
X166673991Y-123455265D01*
X167238371Y-123222068D01*
X167670551Y-122790643D01*
X167904733Y-122226670D01*
X167905265Y-121616009D01*
X167672068Y-121051629D01*
X167240643Y-120619449D01*
X167180000Y-120594267D01*
X167180000Y-111023012D01*
X175640594Y-102562418D01*
X175672903Y-102640418D01*
X175851531Y-102819047D01*
X176084920Y-102915720D01*
X176337539Y-102915720D01*
X176625250Y-102915720D01*
X176784000Y-102756970D01*
X176784000Y-102108000D01*
X176764000Y-102108000D01*
X176764000Y-101854000D01*
X176784000Y-101854000D01*
X176784000Y-101834000D01*
X177038000Y-101834000D01*
X177038000Y-101854000D01*
X178087020Y-101854000D01*
X178245770Y-101695250D01*
X178245770Y-102266750D01*
X178087020Y-102108000D01*
X177038000Y-102108000D01*
X177038000Y-102756970D01*
X177196750Y-102915720D01*
X177484461Y-102915720D01*
X177737080Y-102915720D01*
X177970469Y-102819047D01*
X178149097Y-102640418D01*
X178245770Y-102407029D01*
X178245770Y-112875699D01*
X178197726Y-112923743D01*
X178175876Y-112914671D01*
X177624662Y-112914190D01*
X177115223Y-113124686D01*
X176725116Y-113514113D01*
X176513731Y-114023184D01*
X176513250Y-114574398D01*
X176723746Y-115083837D01*
X177113173Y-115473944D01*
X177137100Y-115483879D01*
X177137100Y-116958300D01*
X177195104Y-117249905D01*
X177197248Y-117253115D01*
X177135500Y-117402190D01*
X177135500Y-117654809D01*
X177135500Y-118797809D01*
X177232173Y-119031198D01*
X177343933Y-119142959D01*
X177343934Y-119142960D01*
X177384004Y-119344405D01*
X177549185Y-119591615D01*
X177850500Y-119892930D01*
X177850500Y-119989600D01*
X177908504Y-120281205D01*
X178073685Y-120528415D01*
X178320895Y-120693596D01*
X178358800Y-120701135D01*
X178358800Y-120777002D01*
X178443253Y-120777002D01*
X178408679Y-120860470D01*
X178358800Y-120910350D01*
X178358800Y-120979509D01*
X178359086Y-120980199D01*
X178358800Y-120980890D01*
X178358800Y-121233509D01*
X178358800Y-121639909D01*
X178455473Y-121873298D01*
X178634101Y-122051927D01*
X178867490Y-122148600D01*
X179120109Y-122148600D01*
X179780509Y-122148600D01*
X179964471Y-122072400D01*
X180209900Y-122072400D01*
X180209900Y-122072399D01*
X180501504Y-122014396D01*
X180501505Y-122014396D01*
X180577674Y-121963500D01*
X180577675Y-121963500D01*
X180666101Y-122051927D01*
X180899490Y-122148600D01*
X181152109Y-122148600D01*
X181812509Y-122148600D01*
X181823512Y-122144042D01*
X181924585Y-122245115D01*
X182171795Y-122410296D01*
X182463400Y-122468300D01*
X189332800Y-122468300D01*
X189332800Y-122468299D01*
X189558854Y-122423334D01*
X189616008Y-122561657D01*
X189963115Y-122909371D01*
X190416866Y-123097785D01*
X190908179Y-123098214D01*
X191362257Y-122910592D01*
X191709971Y-122563485D01*
X191898385Y-122109734D01*
X191898814Y-121618421D01*
X191711192Y-121164343D01*
X191425600Y-120878251D01*
X191425600Y-115034800D01*
X191367596Y-114743195D01*
X191202415Y-114495985D01*
X190467615Y-113761185D01*
X190390033Y-113709346D01*
X190549556Y-113602756D01*
X191278712Y-112873600D01*
X192007287Y-112873600D01*
X192736444Y-113602757D01*
X192893970Y-113708012D01*
X192999226Y-113778342D01*
X192999227Y-113778342D01*
X193149654Y-113808264D01*
X193103500Y-113919690D01*
X193103500Y-114172309D01*
X193103500Y-114680309D01*
X193200173Y-114913698D01*
X193221474Y-114934999D01*
X193200173Y-114956301D01*
X193103500Y-115189690D01*
X193103500Y-115442309D01*
X193103500Y-115950309D01*
X193200173Y-116183698D01*
X193221474Y-116204999D01*
X193200173Y-116226301D01*
X193103500Y-116459690D01*
X193103500Y-116712309D01*
X193103500Y-117220309D01*
X193200173Y-117453698D01*
X193221474Y-117474999D01*
X193200173Y-117496301D01*
X193103500Y-117729690D01*
X193103500Y-117982309D01*
X193103500Y-118490309D01*
X193200173Y-118723698D01*
X193221474Y-118744999D01*
X193200173Y-118766301D01*
X193103500Y-118999690D01*
X193103500Y-119252309D01*
X193103500Y-119760309D01*
X193200173Y-119993698D01*
X193221474Y-120014999D01*
X193200173Y-120036301D01*
X193103500Y-120269690D01*
X193103500Y-120522309D01*
X193103500Y-121030309D01*
X193200173Y-121263698D01*
X193378801Y-121442327D01*
X193612190Y-121539000D01*
X193864809Y-121539000D01*
X194815000Y-121539000D01*
X194815000Y-123956880D01*
M02*
