%FSLAX46Y46*%
G04 Gerber Fmt 4.6, Leading zero omitted, Abs format (unit mm)*
G04 Created by KiCad (PCBNEW (2014-jul-16 BZR unknown)-product) date ons  6 aug 2014 17:41:11*
%MOMM*%
G01*
G04 APERTURE LIST*
%ADD10C,0.150000*%
%ADD11C,0.127000*%
%ADD12C,0.254000*%
%ADD13C,0.203200*%
%ADD14C,0.381000*%
%ADD15C,0.114300*%
%ADD16C,0.060960*%
%ADD17C,0.200660*%
%ADD18C,0.304800*%
%ADD19C,0.152400*%
G04 APERTURE END LIST*
D10*
X163830000Y-85140000D02*
X172830000Y-85140000D01*
X172830000Y-85140000D02*
X172830000Y-123140000D01*
X172830000Y-123140000D02*
X163830000Y-123140000D01*
X163830000Y-123140000D02*
X154830000Y-123140000D01*
X154830000Y-123140000D02*
X154830000Y-85140000D01*
X154830000Y-85140000D02*
X163830000Y-85140000D01*
X144780000Y-123140000D02*
X135780000Y-123140000D01*
X135780000Y-123140000D02*
X135780000Y-85140000D01*
X135780000Y-85140000D02*
X144780000Y-85140000D01*
X144780000Y-85140000D02*
X153780000Y-85140000D01*
X153780000Y-85140000D02*
X153780000Y-123140000D01*
X153780000Y-123140000D02*
X144780000Y-123140000D01*
D11*
X179993000Y-118735000D02*
X177707000Y-118735000D01*
X177707000Y-118735000D02*
X177707000Y-117465000D01*
X177707000Y-117465000D02*
X179993000Y-117465000D01*
X179993000Y-117465000D02*
X179993000Y-118735000D01*
X182245000Y-90932000D02*
X182245000Y-93218000D01*
X182245000Y-93218000D02*
X180975000Y-93218000D01*
X180975000Y-93218000D02*
X180975000Y-90932000D01*
X180975000Y-90932000D02*
X182245000Y-90932000D01*
X181102000Y-88900000D02*
X183388000Y-88900000D01*
X183388000Y-88900000D02*
X183388000Y-90170000D01*
X183388000Y-90170000D02*
X181102000Y-90170000D01*
X181102000Y-90170000D02*
X181102000Y-88900000D01*
X185293000Y-100457000D02*
X185293000Y-102743000D01*
X185293000Y-102743000D02*
X184023000Y-102743000D01*
X184023000Y-102743000D02*
X184023000Y-100457000D01*
X184023000Y-100457000D02*
X185293000Y-100457000D01*
X187198000Y-97282000D02*
X187198000Y-99568000D01*
X187198000Y-99568000D02*
X185928000Y-99568000D01*
X185928000Y-99568000D02*
X185928000Y-97282000D01*
X185928000Y-97282000D02*
X187198000Y-97282000D01*
X188595000Y-95123000D02*
X188595000Y-92837000D01*
X188595000Y-92837000D02*
X186944000Y-92837000D01*
X185166000Y-95123000D02*
X183515000Y-95123000D01*
X183515000Y-95123000D02*
X183515000Y-92837000D01*
X183515000Y-92837000D02*
X185166000Y-92837000D01*
X186944000Y-95123000D02*
X188595000Y-95123000D01*
D12*
X178730000Y-84270000D02*
X183810000Y-84270000D01*
X183810000Y-84270000D02*
X183810000Y-81730000D01*
X183810000Y-81730000D02*
X178730000Y-81730000D01*
X176190000Y-81730000D02*
X178730000Y-81730000D01*
X178730000Y-81730000D02*
X178730000Y-84270000D01*
X176190000Y-81730000D02*
X176190000Y-84270000D01*
X176190000Y-84270000D02*
X178730000Y-84270000D01*
X195072000Y-89408000D02*
X195072000Y-102108000D01*
X195072000Y-102108000D02*
X192532000Y-102108000D01*
X192532000Y-102108000D02*
X192532000Y-89408000D01*
X195072000Y-86868000D02*
X195072000Y-89408000D01*
X195072000Y-89408000D02*
X192532000Y-89408000D01*
X195072000Y-86868000D02*
X192532000Y-86868000D01*
X192532000Y-86868000D02*
X192532000Y-89408000D01*
D11*
X181483000Y-111125000D02*
X179197000Y-111125000D01*
X179197000Y-111125000D02*
X179197000Y-109855000D01*
X179197000Y-109855000D02*
X181483000Y-109855000D01*
X181483000Y-109855000D02*
X181483000Y-111125000D01*
X185293000Y-97282000D02*
X185293000Y-99568000D01*
X185293000Y-99568000D02*
X184023000Y-99568000D01*
X184023000Y-99568000D02*
X184023000Y-97282000D01*
X184023000Y-97282000D02*
X185293000Y-97282000D01*
X187198000Y-100457000D02*
X187198000Y-102743000D01*
X187198000Y-102743000D02*
X185928000Y-102743000D01*
X185928000Y-102743000D02*
X185928000Y-100457000D01*
X185928000Y-100457000D02*
X187198000Y-100457000D01*
X186055000Y-89662000D02*
X186055000Y-91948000D01*
X186055000Y-91948000D02*
X184785000Y-91948000D01*
X184785000Y-91948000D02*
X184785000Y-89662000D01*
X184785000Y-89662000D02*
X186055000Y-89662000D01*
D10*
X190754000Y-104902000D02*
X190754000Y-109982000D01*
X190754000Y-109982000D02*
X183134000Y-109982000D01*
X183134000Y-109982000D02*
X183134000Y-104902000D01*
X183134000Y-104902000D02*
X190754000Y-104902000D01*
X180040000Y-119550000D02*
X180040000Y-119850000D01*
X180040000Y-119850000D02*
X179740000Y-119850000D01*
X179740000Y-121750000D02*
X180940000Y-121750000D01*
X180940000Y-119550000D02*
X179740000Y-119550000D01*
X179740000Y-119550000D02*
X179740000Y-121750000D01*
X180940000Y-121750000D02*
X180940000Y-119550000D01*
D11*
X179666900Y-90195400D02*
X179666900Y-89687400D01*
X179666900Y-89687400D02*
X178473100Y-89687400D01*
X179666900Y-90195400D02*
X178473100Y-90195400D01*
X179666900Y-91694000D02*
X178473100Y-91694000D01*
X179666900Y-91186000D02*
X178473100Y-91186000D01*
X179666900Y-91694000D02*
X179666900Y-91186000D01*
X179666900Y-93192600D02*
X179666900Y-92684600D01*
X179666900Y-92684600D02*
X178473100Y-92684600D01*
X179666900Y-93192600D02*
X178473100Y-93192600D01*
X175361600Y-92341700D02*
X175361600Y-90538300D01*
X175361600Y-90538300D02*
X175856900Y-90538300D01*
X175361600Y-92341700D02*
X175856900Y-92341700D01*
X178473100Y-93738700D02*
X175856900Y-93738700D01*
X175856900Y-93738700D02*
X175856900Y-89141300D01*
X175856900Y-89141300D02*
X178473100Y-89141300D01*
X178473100Y-89141300D02*
X178473100Y-93738700D01*
D13*
X193548000Y-112014000D02*
X193548000Y-121666000D01*
X193548000Y-121666000D02*
X189738000Y-121666000D01*
X189738000Y-121666000D02*
X189738000Y-112014000D01*
X189738000Y-112014000D02*
X193548000Y-112014000D01*
X192278000Y-112014000D02*
X192278000Y-112776000D01*
X192278000Y-112776000D02*
X191262000Y-112776000D01*
X191262000Y-112776000D02*
X191262000Y-112014000D01*
D14*
X185039000Y-113299240D02*
X185239660Y-113700560D01*
X185239660Y-113700560D02*
X185341260Y-114300000D01*
X185341260Y-114300000D02*
X185239660Y-114800380D01*
X185239660Y-114800380D02*
X184840880Y-115498880D01*
X184840880Y-115498880D02*
X184238900Y-115900200D01*
X184238900Y-115900200D02*
X183639460Y-116100860D01*
X183639460Y-116100860D02*
X177040540Y-116100860D01*
X177040540Y-116100860D02*
X176339500Y-115900200D01*
X176339500Y-115900200D02*
X175940720Y-115600480D01*
X175940720Y-115600480D02*
X175539400Y-115100100D01*
X175539400Y-115100100D02*
X175338740Y-114500660D01*
X175338740Y-114500660D02*
X175338740Y-114000280D01*
X175338740Y-114000280D02*
X175539400Y-113499900D01*
X175539400Y-113499900D02*
X176039780Y-112900460D01*
X176039780Y-112900460D02*
X176540160Y-112600740D01*
X176540160Y-112600740D02*
X177040540Y-112499140D01*
X177139600Y-112499140D02*
X183741060Y-112499140D01*
X183741060Y-112499140D02*
X184139840Y-112600740D01*
X184139840Y-112600740D02*
X184640220Y-112900460D01*
X184640220Y-112900460D02*
X185140600Y-113400840D01*
X177149760Y-111970820D02*
X176690020Y-112019080D01*
X176690020Y-112019080D02*
X176291240Y-112130840D01*
X176291240Y-112130840D02*
X175859440Y-112349280D01*
X175859440Y-112349280D02*
X175569880Y-112580420D01*
X175569880Y-112580420D02*
X175239680Y-112930940D01*
X175239680Y-112930940D02*
X174950120Y-113469420D01*
X174950120Y-113469420D02*
X174820580Y-114068860D01*
X174820580Y-114068860D02*
X174820580Y-114579400D01*
X174820580Y-114579400D02*
X174990760Y-115280440D01*
X174990760Y-115280440D02*
X175389540Y-115869720D01*
X175389540Y-115869720D02*
X175849280Y-116240560D01*
X175849280Y-116240560D02*
X176270920Y-116448840D01*
X176270920Y-116448840D02*
X176720500Y-116608860D01*
X176720500Y-116608860D02*
X177159920Y-116639340D01*
X184500520Y-116420900D02*
X184878980Y-116199920D01*
X184878980Y-116199920D02*
X185199020Y-115920520D01*
X185199020Y-115920520D02*
X185450480Y-115590320D01*
X185450480Y-115590320D02*
X185750200Y-115039140D01*
X185750200Y-115039140D02*
X185859420Y-114569240D01*
X185859420Y-114569240D02*
X185879740Y-114109500D01*
X185879740Y-114109500D02*
X185790840Y-113649760D01*
X185790840Y-113649760D02*
X185600340Y-113200180D01*
X185600340Y-113200180D02*
X185239660Y-112730280D01*
X185239660Y-112730280D02*
X184889140Y-112410240D01*
X184889140Y-112410240D02*
X184500520Y-112179100D01*
X184500520Y-112179100D02*
X184071260Y-112039400D01*
X184071260Y-112039400D02*
X183629300Y-111970820D01*
X177139600Y-116629180D02*
X183591200Y-116629180D01*
X183591200Y-116629180D02*
X184010300Y-116591080D01*
X184010300Y-116591080D02*
X184500520Y-116420900D01*
X177139600Y-111970820D02*
X183591200Y-111970820D01*
D11*
X180657000Y-117465000D02*
X182943000Y-117465000D01*
X182943000Y-117465000D02*
X182943000Y-118735000D01*
X182943000Y-118735000D02*
X180657000Y-118735000D01*
X180657000Y-118735000D02*
X180657000Y-117465000D01*
X177800000Y-97409000D02*
X177673000Y-97409000D01*
X177673000Y-97409000D02*
X177673000Y-102743000D01*
X181483000Y-102743000D02*
X181483000Y-97409000D01*
X181483000Y-97409000D02*
X177800000Y-97409000D01*
X180086000Y-97409000D02*
X180086000Y-97917000D01*
X180086000Y-97917000D02*
X179070000Y-97917000D01*
X179070000Y-97917000D02*
X179070000Y-97409000D01*
X181483000Y-102743000D02*
X177673000Y-102743000D01*
D10*
X165758571Y-104925714D02*
X165806190Y-104782857D01*
X165853810Y-104735238D01*
X165949048Y-104687619D01*
X166091905Y-104687619D01*
X166187143Y-104735238D01*
X166234762Y-104782857D01*
X166282381Y-104878095D01*
X166282381Y-105259048D01*
X165282381Y-105259048D01*
X165282381Y-104925714D01*
X165330000Y-104830476D01*
X165377619Y-104782857D01*
X165472857Y-104735238D01*
X165568095Y-104735238D01*
X165663333Y-104782857D01*
X165710952Y-104830476D01*
X165758571Y-104925714D01*
X165758571Y-105259048D01*
X165282381Y-104401905D02*
X165282381Y-103830476D01*
X166282381Y-104116191D02*
X165282381Y-104116191D01*
X166282381Y-102973333D02*
X166282381Y-103544762D01*
X166282381Y-103259048D02*
X165282381Y-103259048D01*
X165425238Y-103354286D01*
X165520476Y-103449524D01*
X165568095Y-103544762D01*
X163758571Y-106640000D02*
X163806190Y-106497143D01*
X163853810Y-106449524D01*
X163949048Y-106401905D01*
X164091905Y-106401905D01*
X164187143Y-106449524D01*
X164234762Y-106497143D01*
X164282381Y-106592381D01*
X164282381Y-106973334D01*
X163282381Y-106973334D01*
X163282381Y-106640000D01*
X163330000Y-106544762D01*
X163377619Y-106497143D01*
X163472857Y-106449524D01*
X163568095Y-106449524D01*
X163663333Y-106497143D01*
X163710952Y-106544762D01*
X163758571Y-106640000D01*
X163758571Y-106973334D01*
X163996667Y-106020953D02*
X163996667Y-105544762D01*
X164282381Y-106116191D02*
X163282381Y-105782858D01*
X164282381Y-105449524D01*
X163282381Y-105259048D02*
X163282381Y-104687619D01*
X164282381Y-104973334D02*
X163282381Y-104973334D01*
X163282381Y-104497143D02*
X163282381Y-103925714D01*
X164282381Y-104211429D02*
X163282381Y-104211429D01*
X163758571Y-103592381D02*
X163758571Y-103259047D01*
X164282381Y-103116190D02*
X164282381Y-103592381D01*
X163282381Y-103592381D01*
X163282381Y-103116190D01*
X164282381Y-102116190D02*
X163806190Y-102449524D01*
X164282381Y-102687619D02*
X163282381Y-102687619D01*
X163282381Y-102306666D01*
X163330000Y-102211428D01*
X163377619Y-102163809D01*
X163472857Y-102116190D01*
X163615714Y-102116190D01*
X163710952Y-102163809D01*
X163758571Y-102211428D01*
X163806190Y-102306666D01*
X163806190Y-102687619D01*
X163806190Y-101497143D02*
X164282381Y-101497143D01*
X163282381Y-101830476D02*
X163806190Y-101497143D01*
X163282381Y-101163809D01*
X142708571Y-104925714D02*
X142756190Y-104782857D01*
X142803810Y-104735238D01*
X142899048Y-104687619D01*
X143041905Y-104687619D01*
X143137143Y-104735238D01*
X143184762Y-104782857D01*
X143232381Y-104878095D01*
X143232381Y-105259048D01*
X142232381Y-105259048D01*
X142232381Y-104925714D01*
X142280000Y-104830476D01*
X142327619Y-104782857D01*
X142422857Y-104735238D01*
X142518095Y-104735238D01*
X142613333Y-104782857D01*
X142660952Y-104830476D01*
X142708571Y-104925714D01*
X142708571Y-105259048D01*
X142232381Y-104401905D02*
X142232381Y-103830476D01*
X143232381Y-104116191D02*
X142232381Y-104116191D01*
X142327619Y-103544762D02*
X142280000Y-103497143D01*
X142232381Y-103401905D01*
X142232381Y-103163809D01*
X142280000Y-103068571D01*
X142327619Y-103020952D01*
X142422857Y-102973333D01*
X142518095Y-102973333D01*
X142660952Y-103020952D01*
X143232381Y-103592381D01*
X143232381Y-102973333D01*
X144708571Y-106640000D02*
X144756190Y-106497143D01*
X144803810Y-106449524D01*
X144899048Y-106401905D01*
X145041905Y-106401905D01*
X145137143Y-106449524D01*
X145184762Y-106497143D01*
X145232381Y-106592381D01*
X145232381Y-106973334D01*
X144232381Y-106973334D01*
X144232381Y-106640000D01*
X144280000Y-106544762D01*
X144327619Y-106497143D01*
X144422857Y-106449524D01*
X144518095Y-106449524D01*
X144613333Y-106497143D01*
X144660952Y-106544762D01*
X144708571Y-106640000D01*
X144708571Y-106973334D01*
X144946667Y-106020953D02*
X144946667Y-105544762D01*
X145232381Y-106116191D02*
X144232381Y-105782858D01*
X145232381Y-105449524D01*
X144232381Y-105259048D02*
X144232381Y-104687619D01*
X145232381Y-104973334D02*
X144232381Y-104973334D01*
X144232381Y-104497143D02*
X144232381Y-103925714D01*
X145232381Y-104211429D02*
X144232381Y-104211429D01*
X144708571Y-103592381D02*
X144708571Y-103259047D01*
X145232381Y-103116190D02*
X145232381Y-103592381D01*
X144232381Y-103592381D01*
X144232381Y-103116190D01*
X145232381Y-102116190D02*
X144756190Y-102449524D01*
X145232381Y-102687619D02*
X144232381Y-102687619D01*
X144232381Y-102306666D01*
X144280000Y-102211428D01*
X144327619Y-102163809D01*
X144422857Y-102116190D01*
X144565714Y-102116190D01*
X144660952Y-102163809D01*
X144708571Y-102211428D01*
X144756190Y-102306666D01*
X144756190Y-102687619D01*
X144756190Y-101497143D02*
X145232381Y-101497143D01*
X144232381Y-101830476D02*
X144756190Y-101497143D01*
X144232381Y-101163809D01*
D15*
X178773800Y-118281429D02*
X178752029Y-118305619D01*
X178686715Y-118329810D01*
X178643172Y-118329810D01*
X178577857Y-118305619D01*
X178534315Y-118257238D01*
X178512543Y-118208857D01*
X178490772Y-118112095D01*
X178490772Y-118039524D01*
X178512543Y-117942762D01*
X178534315Y-117894381D01*
X178577857Y-117846000D01*
X178643172Y-117821810D01*
X178686715Y-117821810D01*
X178752029Y-117846000D01*
X178773800Y-117870190D01*
X179209229Y-118329810D02*
X178947972Y-118329810D01*
X179078600Y-118329810D02*
X179078600Y-117821810D01*
X179035057Y-117894381D01*
X178991515Y-117942762D01*
X178947972Y-117966952D01*
X181791429Y-92151200D02*
X181815619Y-92172971D01*
X181839810Y-92238285D01*
X181839810Y-92281828D01*
X181815619Y-92347143D01*
X181767238Y-92390685D01*
X181718857Y-92412457D01*
X181622095Y-92434228D01*
X181549524Y-92434228D01*
X181452762Y-92412457D01*
X181404381Y-92390685D01*
X181356000Y-92347143D01*
X181331810Y-92281828D01*
X181331810Y-92238285D01*
X181356000Y-92172971D01*
X181380190Y-92151200D01*
X181331810Y-91998800D02*
X181331810Y-91715771D01*
X181525333Y-91868171D01*
X181525333Y-91802857D01*
X181549524Y-91759314D01*
X181573714Y-91737543D01*
X181622095Y-91715771D01*
X181743048Y-91715771D01*
X181791429Y-91737543D01*
X181815619Y-91759314D01*
X181839810Y-91802857D01*
X181839810Y-91933485D01*
X181815619Y-91977028D01*
X181791429Y-91998800D01*
X182168800Y-89716429D02*
X182147029Y-89740619D01*
X182081715Y-89764810D01*
X182038172Y-89764810D01*
X181972857Y-89740619D01*
X181929315Y-89692238D01*
X181907543Y-89643857D01*
X181885772Y-89547095D01*
X181885772Y-89474524D01*
X181907543Y-89377762D01*
X181929315Y-89329381D01*
X181972857Y-89281000D01*
X182038172Y-89256810D01*
X182081715Y-89256810D01*
X182147029Y-89281000D01*
X182168800Y-89305190D01*
X182560686Y-89426143D02*
X182560686Y-89764810D01*
X182451829Y-89232619D02*
X182342972Y-89595476D01*
X182626000Y-89595476D01*
X184839429Y-101676200D02*
X184863619Y-101697971D01*
X184887810Y-101763285D01*
X184887810Y-101806828D01*
X184863619Y-101872143D01*
X184815238Y-101915685D01*
X184766857Y-101937457D01*
X184670095Y-101959228D01*
X184597524Y-101959228D01*
X184500762Y-101937457D01*
X184452381Y-101915685D01*
X184404000Y-101872143D01*
X184379810Y-101806828D01*
X184379810Y-101763285D01*
X184404000Y-101697971D01*
X184428190Y-101676200D01*
X184379810Y-101262543D02*
X184379810Y-101480257D01*
X184621714Y-101502028D01*
X184597524Y-101480257D01*
X184573333Y-101436714D01*
X184573333Y-101327857D01*
X184597524Y-101284314D01*
X184621714Y-101262543D01*
X184670095Y-101240771D01*
X184791048Y-101240771D01*
X184839429Y-101262543D01*
X184863619Y-101284314D01*
X184887810Y-101327857D01*
X184887810Y-101436714D01*
X184863619Y-101480257D01*
X184839429Y-101502028D01*
X186744429Y-98501200D02*
X186768619Y-98522971D01*
X186792810Y-98588285D01*
X186792810Y-98631828D01*
X186768619Y-98697143D01*
X186720238Y-98740685D01*
X186671857Y-98762457D01*
X186575095Y-98784228D01*
X186502524Y-98784228D01*
X186405762Y-98762457D01*
X186357381Y-98740685D01*
X186309000Y-98697143D01*
X186284810Y-98631828D01*
X186284810Y-98588285D01*
X186309000Y-98522971D01*
X186333190Y-98501200D01*
X186284810Y-98109314D02*
X186284810Y-98196400D01*
X186309000Y-98239943D01*
X186333190Y-98261714D01*
X186405762Y-98305257D01*
X186502524Y-98327028D01*
X186696048Y-98327028D01*
X186744429Y-98305257D01*
X186768619Y-98283485D01*
X186792810Y-98239943D01*
X186792810Y-98152857D01*
X186768619Y-98109314D01*
X186744429Y-98087543D01*
X186696048Y-98065771D01*
X186575095Y-98065771D01*
X186526714Y-98087543D01*
X186502524Y-98109314D01*
X186478333Y-98152857D01*
X186478333Y-98239943D01*
X186502524Y-98283485D01*
X186526714Y-98305257D01*
X186575095Y-98327028D01*
D11*
X185492572Y-94324714D02*
X185492572Y-93562714D01*
X185674000Y-93562714D01*
X185782857Y-93599000D01*
X185855429Y-93671571D01*
X185891714Y-93744143D01*
X185928000Y-93889286D01*
X185928000Y-93998143D01*
X185891714Y-94143286D01*
X185855429Y-94215857D01*
X185782857Y-94288429D01*
X185674000Y-94324714D01*
X185492572Y-94324714D01*
X186653714Y-94324714D02*
X186218286Y-94324714D01*
X186436000Y-94324714D02*
X186436000Y-93562714D01*
X186363429Y-93671571D01*
X186290857Y-93744143D01*
X186218286Y-93780429D01*
D13*
X174062619Y-83074524D02*
X174062619Y-81804524D01*
X174788333Y-83074524D02*
X174244048Y-82348810D01*
X174788333Y-81804524D02*
X174062619Y-82530238D01*
X175997857Y-83074524D02*
X175272143Y-83074524D01*
X175635000Y-83074524D02*
X175635000Y-81804524D01*
X175514048Y-81985952D01*
X175393095Y-82106905D01*
X175272143Y-82167381D01*
X196662524Y-95425381D02*
X195392524Y-95425381D01*
X195392524Y-94941572D01*
X195453000Y-94820619D01*
X195513476Y-94760143D01*
X195634429Y-94699667D01*
X195815857Y-94699667D01*
X195936810Y-94760143D01*
X195997286Y-94820619D01*
X196057762Y-94941572D01*
X196057762Y-95425381D01*
X195392524Y-94276333D02*
X195392524Y-93490143D01*
X195876333Y-93913476D01*
X195876333Y-93732048D01*
X195936810Y-93611095D01*
X195997286Y-93550619D01*
X196118238Y-93490143D01*
X196420619Y-93490143D01*
X196541571Y-93550619D01*
X196602048Y-93611095D01*
X196662524Y-93732048D01*
X196662524Y-94094905D01*
X196602048Y-94215857D01*
X196541571Y-94276333D01*
D15*
X180263800Y-110719810D02*
X180111400Y-110477905D01*
X180002543Y-110719810D02*
X180002543Y-110211810D01*
X180176715Y-110211810D01*
X180220257Y-110236000D01*
X180242029Y-110260190D01*
X180263800Y-110308571D01*
X180263800Y-110381143D01*
X180242029Y-110429524D01*
X180220257Y-110453714D01*
X180176715Y-110477905D01*
X180002543Y-110477905D01*
X180699229Y-110719810D02*
X180437972Y-110719810D01*
X180568600Y-110719810D02*
X180568600Y-110211810D01*
X180525057Y-110284381D01*
X180481515Y-110332762D01*
X180437972Y-110356952D01*
X184887810Y-98501200D02*
X184645905Y-98653600D01*
X184887810Y-98762457D02*
X184379810Y-98762457D01*
X184379810Y-98588285D01*
X184404000Y-98544743D01*
X184428190Y-98522971D01*
X184476571Y-98501200D01*
X184549143Y-98501200D01*
X184597524Y-98522971D01*
X184621714Y-98544743D01*
X184645905Y-98588285D01*
X184645905Y-98762457D01*
X184428190Y-98327028D02*
X184404000Y-98305257D01*
X184379810Y-98261714D01*
X184379810Y-98152857D01*
X184404000Y-98109314D01*
X184428190Y-98087543D01*
X184476571Y-98065771D01*
X184524952Y-98065771D01*
X184597524Y-98087543D01*
X184887810Y-98348800D01*
X184887810Y-98065771D01*
X186792810Y-101676200D02*
X186550905Y-101828600D01*
X186792810Y-101937457D02*
X186284810Y-101937457D01*
X186284810Y-101763285D01*
X186309000Y-101719743D01*
X186333190Y-101697971D01*
X186381571Y-101676200D01*
X186454143Y-101676200D01*
X186502524Y-101697971D01*
X186526714Y-101719743D01*
X186550905Y-101763285D01*
X186550905Y-101937457D01*
X186284810Y-101523800D02*
X186284810Y-101240771D01*
X186478333Y-101393171D01*
X186478333Y-101327857D01*
X186502524Y-101284314D01*
X186526714Y-101262543D01*
X186575095Y-101240771D01*
X186696048Y-101240771D01*
X186744429Y-101262543D01*
X186768619Y-101284314D01*
X186792810Y-101327857D01*
X186792810Y-101458485D01*
X186768619Y-101502028D01*
X186744429Y-101523800D01*
X185649810Y-90881200D02*
X185407905Y-91033600D01*
X185649810Y-91142457D02*
X185141810Y-91142457D01*
X185141810Y-90968285D01*
X185166000Y-90924743D01*
X185190190Y-90902971D01*
X185238571Y-90881200D01*
X185311143Y-90881200D01*
X185359524Y-90902971D01*
X185383714Y-90924743D01*
X185407905Y-90968285D01*
X185407905Y-91142457D01*
X185311143Y-90489314D02*
X185649810Y-90489314D01*
X185117619Y-90598171D02*
X185480476Y-90707028D01*
X185480476Y-90424000D01*
D10*
X186348762Y-107894381D02*
X186015428Y-107418190D01*
X185777333Y-107894381D02*
X185777333Y-106894381D01*
X186158286Y-106894381D01*
X186253524Y-106942000D01*
X186301143Y-106989619D01*
X186348762Y-107084857D01*
X186348762Y-107227714D01*
X186301143Y-107322952D01*
X186253524Y-107370571D01*
X186158286Y-107418190D01*
X185777333Y-107418190D01*
X186634476Y-106894381D02*
X186967809Y-107894381D01*
X187301143Y-106894381D01*
X188158286Y-107894381D02*
X187586857Y-107894381D01*
X187872571Y-107894381D02*
X187872571Y-106894381D01*
X187777333Y-107037238D01*
X187682095Y-107132476D01*
X187586857Y-107180095D01*
X185777333Y-105989381D02*
X185777333Y-104989381D01*
X186158286Y-104989381D01*
X186253524Y-105037000D01*
X186301143Y-105084619D01*
X186348762Y-105179857D01*
X186348762Y-105322714D01*
X186301143Y-105417952D01*
X186253524Y-105465571D01*
X186158286Y-105513190D01*
X185777333Y-105513190D01*
X186967809Y-104989381D02*
X187158286Y-104989381D01*
X187253524Y-105037000D01*
X187348762Y-105132238D01*
X187396381Y-105322714D01*
X187396381Y-105656048D01*
X187348762Y-105846524D01*
X187253524Y-105941762D01*
X187158286Y-105989381D01*
X186967809Y-105989381D01*
X186872571Y-105941762D01*
X186777333Y-105846524D01*
X186729714Y-105656048D01*
X186729714Y-105322714D01*
X186777333Y-105132238D01*
X186872571Y-105037000D01*
X186967809Y-104989381D01*
X187682095Y-104989381D02*
X188253524Y-104989381D01*
X187967809Y-105989381D02*
X187967809Y-104989381D01*
D16*
X180575868Y-122278358D02*
X180818498Y-122278358D01*
X180847043Y-122264086D01*
X180861315Y-122249813D01*
X180875588Y-122221269D01*
X180875588Y-122164179D01*
X180861315Y-122135634D01*
X180847043Y-122121362D01*
X180818498Y-122107090D01*
X180575868Y-122107090D01*
X180875588Y-121807370D02*
X180875588Y-121978638D01*
X180875588Y-121893004D02*
X180575868Y-121893004D01*
X180618685Y-121921549D01*
X180647230Y-121950094D01*
X180661502Y-121978638D01*
D17*
X176003736Y-87793165D02*
X176003736Y-88603304D01*
X176051391Y-88698614D01*
X176099047Y-88746270D01*
X176194357Y-88793925D01*
X176384978Y-88793925D01*
X176480289Y-88746270D01*
X176527944Y-88698614D01*
X176575599Y-88603304D01*
X176575599Y-87793165D01*
X177004496Y-87888475D02*
X177052151Y-87840820D01*
X177147462Y-87793165D01*
X177385738Y-87793165D01*
X177481048Y-87840820D01*
X177528704Y-87888475D01*
X177576359Y-87983786D01*
X177576359Y-88079096D01*
X177528704Y-88222062D01*
X176956841Y-88793925D01*
X177576359Y-88793925D01*
X173723783Y-94892465D02*
X173723783Y-93891705D01*
X174057370Y-94606533D01*
X174390957Y-93891705D01*
X174390957Y-94892465D01*
X175439372Y-94797154D02*
X175391717Y-94844810D01*
X175248751Y-94892465D01*
X175153441Y-94892465D01*
X175010475Y-94844810D01*
X174915164Y-94749499D01*
X174867509Y-94654189D01*
X174819854Y-94463568D01*
X174819854Y-94320602D01*
X174867509Y-94129981D01*
X174915164Y-94034670D01*
X175010475Y-93939360D01*
X175153441Y-93891705D01*
X175248751Y-93891705D01*
X175391717Y-93939360D01*
X175439372Y-93987015D01*
X175868269Y-94892465D02*
X175868269Y-93891705D01*
X176249511Y-93891705D01*
X176344822Y-93939360D01*
X176392477Y-93987015D01*
X176440132Y-94082326D01*
X176440132Y-94225291D01*
X176392477Y-94320602D01*
X176344822Y-94368257D01*
X176249511Y-94415912D01*
X175868269Y-94415912D01*
X177393237Y-94892465D02*
X176821374Y-94892465D01*
X177107305Y-94892465D02*
X177107305Y-93891705D01*
X177011995Y-94034670D01*
X176916684Y-94129981D01*
X176821374Y-94177636D01*
X177726824Y-93891705D02*
X178393997Y-93891705D01*
X177965100Y-94892465D01*
X178965860Y-93891705D02*
X179061171Y-93891705D01*
X179156481Y-93939360D01*
X179204136Y-93987015D01*
X179251792Y-94082326D01*
X179299447Y-94272947D01*
X179299447Y-94511223D01*
X179251792Y-94701844D01*
X179204136Y-94797154D01*
X179156481Y-94844810D01*
X179061171Y-94892465D01*
X178965860Y-94892465D01*
X178870550Y-94844810D01*
X178822894Y-94797154D01*
X178775239Y-94701844D01*
X178727584Y-94511223D01*
X178727584Y-94272947D01*
X178775239Y-94082326D01*
X178822894Y-93987015D01*
X178870550Y-93939360D01*
X178965860Y-93891705D01*
X179680689Y-93987015D02*
X179728344Y-93939360D01*
X179823655Y-93891705D01*
X180061931Y-93891705D01*
X180157241Y-93939360D01*
X180204897Y-93987015D01*
X180252552Y-94082326D01*
X180252552Y-94177636D01*
X180204897Y-94320602D01*
X179633034Y-94892465D01*
X180252552Y-94892465D01*
D11*
X191975619Y-117710857D02*
X192798095Y-117710857D01*
X192894857Y-117656429D01*
X192943238Y-117602000D01*
X192991619Y-117493143D01*
X192991619Y-117275429D01*
X192943238Y-117166571D01*
X192894857Y-117112143D01*
X192798095Y-117057714D01*
X191975619Y-117057714D01*
X192314286Y-116023571D02*
X192991619Y-116023571D01*
X191927238Y-116295714D02*
X192652952Y-116567857D01*
X192652952Y-115860285D01*
X190197619Y-120468571D02*
X190197619Y-119791238D01*
X191213619Y-120226666D01*
X190536286Y-118968762D02*
X191213619Y-118968762D01*
X190149238Y-119210666D02*
X190874952Y-119452571D01*
X190874952Y-118823619D01*
X191213619Y-117952762D02*
X191213619Y-118436571D01*
X190197619Y-118436571D01*
X191165238Y-117662476D02*
X191213619Y-117517333D01*
X191213619Y-117275429D01*
X191165238Y-117178667D01*
X191116857Y-117130286D01*
X191020095Y-117081905D01*
X190923333Y-117081905D01*
X190826571Y-117130286D01*
X190778190Y-117178667D01*
X190729810Y-117275429D01*
X190681429Y-117468952D01*
X190633048Y-117565714D01*
X190584667Y-117614095D01*
X190487905Y-117662476D01*
X190391143Y-117662476D01*
X190294381Y-117614095D01*
X190246000Y-117565714D01*
X190197619Y-117468952D01*
X190197619Y-117227048D01*
X190246000Y-117081905D01*
X190197619Y-116743238D02*
X190197619Y-116065905D01*
X191213619Y-116501333D01*
X190536286Y-115243429D02*
X191213619Y-115243429D01*
X190149238Y-115485333D02*
X190874952Y-115727238D01*
X190874952Y-115098286D01*
X190923333Y-114759619D02*
X190923333Y-114275810D01*
X191213619Y-114856381D02*
X190197619Y-114517714D01*
X191213619Y-114179048D01*
X191213619Y-113840381D02*
X190197619Y-113840381D01*
X190197619Y-113598476D01*
X190246000Y-113453334D01*
X190342762Y-113356572D01*
X190439524Y-113308191D01*
X190633048Y-113259810D01*
X190778190Y-113259810D01*
X190971714Y-113308191D01*
X191068476Y-113356572D01*
X191165238Y-113453334D01*
X191213619Y-113598476D01*
X191213619Y-113840381D01*
D18*
X179106285Y-113465429D02*
X180122285Y-114989429D01*
X180122285Y-113465429D02*
X179106285Y-114989429D01*
X181501143Y-114989429D02*
X180630286Y-114989429D01*
X181065714Y-114989429D02*
X181065714Y-113465429D01*
X180920571Y-113683143D01*
X180775429Y-113828286D01*
X180630286Y-113900857D01*
D15*
X181723800Y-118281429D02*
X181702029Y-118305619D01*
X181636715Y-118329810D01*
X181593172Y-118329810D01*
X181527857Y-118305619D01*
X181484315Y-118257238D01*
X181462543Y-118208857D01*
X181440772Y-118112095D01*
X181440772Y-118039524D01*
X181462543Y-117942762D01*
X181484315Y-117894381D01*
X181527857Y-117846000D01*
X181593172Y-117821810D01*
X181636715Y-117821810D01*
X181702029Y-117846000D01*
X181723800Y-117870190D01*
X181897972Y-117870190D02*
X181919743Y-117846000D01*
X181963286Y-117821810D01*
X182072143Y-117821810D01*
X182115686Y-117846000D01*
X182137457Y-117870190D01*
X182159229Y-117918571D01*
X182159229Y-117966952D01*
X182137457Y-118039524D01*
X181876200Y-118329810D01*
X182159229Y-118329810D01*
D19*
X179841071Y-100946857D02*
X180766357Y-100946857D01*
X180875214Y-100892429D01*
X180929643Y-100838000D01*
X180984071Y-100729143D01*
X180984071Y-100511429D01*
X180929643Y-100402571D01*
X180875214Y-100348143D01*
X180766357Y-100293714D01*
X179841071Y-100293714D01*
X179841071Y-99858285D02*
X179841071Y-99150714D01*
X180276500Y-99531714D01*
X180276500Y-99368428D01*
X180330929Y-99259571D01*
X180385357Y-99205142D01*
X180494214Y-99150714D01*
X180766357Y-99150714D01*
X180875214Y-99205142D01*
X180929643Y-99259571D01*
X180984071Y-99368428D01*
X180984071Y-99695000D01*
X180929643Y-99803857D01*
X180875214Y-99858285D01*
X178964167Y-102954667D02*
X178075167Y-102954667D01*
X178710167Y-102658334D01*
X178075167Y-102362001D01*
X178964167Y-102362001D01*
X178879500Y-101430667D02*
X178921833Y-101473001D01*
X178964167Y-101600001D01*
X178964167Y-101684667D01*
X178921833Y-101811667D01*
X178837167Y-101896334D01*
X178752500Y-101938667D01*
X178583167Y-101981001D01*
X178456167Y-101981001D01*
X178286833Y-101938667D01*
X178202167Y-101896334D01*
X178117500Y-101811667D01*
X178075167Y-101684667D01*
X178075167Y-101600001D01*
X178117500Y-101473001D01*
X178159833Y-101430667D01*
X178964167Y-101049667D02*
X178075167Y-101049667D01*
X178075167Y-100711001D01*
X178117500Y-100626334D01*
X178159833Y-100584001D01*
X178244500Y-100541667D01*
X178371500Y-100541667D01*
X178456167Y-100584001D01*
X178498500Y-100626334D01*
X178540833Y-100711001D01*
X178540833Y-101049667D01*
X178964167Y-99695001D02*
X178964167Y-100203001D01*
X178964167Y-99949001D02*
X178075167Y-99949001D01*
X178202167Y-100033667D01*
X178286833Y-100118334D01*
X178329167Y-100203001D01*
X178075167Y-99398667D02*
X178075167Y-98806000D01*
X178964167Y-99187000D01*
X178159833Y-98509667D02*
X178117500Y-98467333D01*
X178075167Y-98382667D01*
X178075167Y-98171000D01*
X178117500Y-98086333D01*
X178159833Y-98044000D01*
X178244500Y-98001667D01*
X178329167Y-98001667D01*
X178456167Y-98044000D01*
X178964167Y-98552000D01*
X178964167Y-98001667D01*
X178075167Y-97197333D02*
X178075167Y-97620666D01*
X178498500Y-97663000D01*
X178456167Y-97620666D01*
X178413833Y-97536000D01*
X178413833Y-97324333D01*
X178456167Y-97239666D01*
X178498500Y-97197333D01*
X178583167Y-97155000D01*
X178794833Y-97155000D01*
X178879500Y-97197333D01*
X178921833Y-97239666D01*
X178964167Y-97324333D01*
X178964167Y-97536000D01*
X178921833Y-97620666D01*
X178879500Y-97663000D01*
M02*
