%FSLAX34Y34*%
G04 Gerber Fmt 3.4, Leading zero omitted, Abs format*
G04 (created by PCBNEW (2014-04-07 BZR 4791)-product) date Mon 14 Apr 2014 04:16:44 PM CEST*
%MOIN*%
G01*
G70*
G90*
G04 APERTURE LIST*
%ADD10C,0.005906*%
%ADD11C,0.005000*%
%ADD12C,0.010000*%
%ADD13C,0.001600*%
%ADD14C,0.004500*%
%ADD15C,0.008000*%
G04 APERTURE END LIST*
G54D10*
G54D11*
X59879Y-46282D02*
X60199Y-46282D01*
X60189Y-45842D02*
X59879Y-45842D01*
X60199Y-45742D02*
X60199Y-46382D01*
X60199Y-46382D02*
X59879Y-46382D01*
X59879Y-46382D02*
X59879Y-45742D01*
X59879Y-45742D02*
X60199Y-45742D01*
X56729Y-46282D02*
X57049Y-46282D01*
X57039Y-45842D02*
X56729Y-45842D01*
X57049Y-45742D02*
X57049Y-46382D01*
X57049Y-46382D02*
X56729Y-46382D01*
X56729Y-46382D02*
X56729Y-45742D01*
X56729Y-45742D02*
X57049Y-45742D01*
X56336Y-37818D02*
X56656Y-37818D01*
X56646Y-37378D02*
X56336Y-37378D01*
X56656Y-37278D02*
X56656Y-37918D01*
X56656Y-37918D02*
X56336Y-37918D01*
X56336Y-37918D02*
X56336Y-37278D01*
X56336Y-37278D02*
X56656Y-37278D01*
X58267Y-37873D02*
X58545Y-37873D01*
X58545Y-37873D02*
X58545Y-37323D01*
X58545Y-37323D02*
X58267Y-37323D01*
X57595Y-37873D02*
X57873Y-37873D01*
X57595Y-37873D02*
X57595Y-37323D01*
X57595Y-37323D02*
X57873Y-37323D01*
X59054Y-37323D02*
X58776Y-37323D01*
X58776Y-37323D02*
X58776Y-37873D01*
X58776Y-37873D02*
X59054Y-37873D01*
X59726Y-37323D02*
X59448Y-37323D01*
X59726Y-37323D02*
X59726Y-37873D01*
X59726Y-37873D02*
X59448Y-37873D01*
G54D10*
X56102Y-38584D02*
X60827Y-38584D01*
X60827Y-38584D02*
X60827Y-44292D01*
X60827Y-44292D02*
X56102Y-44292D01*
X56102Y-44292D02*
X56102Y-38584D01*
G54D12*
X56964Y-35826D02*
X57964Y-35826D01*
X57964Y-35826D02*
X57964Y-36826D01*
X56964Y-36826D02*
X59964Y-36826D01*
X59964Y-36826D02*
X59964Y-34826D01*
X59964Y-34826D02*
X57964Y-34826D01*
X56964Y-36826D02*
X56964Y-35826D01*
X56964Y-34826D02*
X56964Y-35826D01*
X57964Y-34826D02*
X56964Y-34826D01*
X57464Y-46062D02*
X57464Y-47062D01*
X57464Y-47062D02*
X58464Y-47062D01*
X58464Y-47062D02*
X58464Y-46062D01*
X58464Y-46062D02*
X57464Y-46062D01*
X57464Y-46062D02*
X57464Y-45062D01*
X57464Y-45062D02*
X59464Y-45062D01*
X59464Y-45062D02*
X59464Y-47062D01*
X59464Y-47062D02*
X58464Y-47062D01*
G54D13*
X60317Y-46076D02*
X60321Y-46079D01*
X60325Y-46091D01*
X60325Y-46098D01*
X60321Y-46110D01*
X60313Y-46117D01*
X60306Y-46121D01*
X60291Y-46125D01*
X60279Y-46125D01*
X60264Y-46121D01*
X60257Y-46117D01*
X60249Y-46110D01*
X60246Y-46098D01*
X60246Y-46091D01*
X60249Y-46079D01*
X60253Y-46076D01*
X60325Y-46000D02*
X60325Y-46046D01*
X60325Y-46023D02*
X60246Y-46023D01*
X60257Y-46031D01*
X60264Y-46038D01*
X60268Y-46046D01*
X57167Y-46076D02*
X57171Y-46079D01*
X57175Y-46091D01*
X57175Y-46098D01*
X57171Y-46110D01*
X57164Y-46117D01*
X57156Y-46121D01*
X57141Y-46125D01*
X57130Y-46125D01*
X57115Y-46121D01*
X57107Y-46117D01*
X57100Y-46110D01*
X57096Y-46098D01*
X57096Y-46091D01*
X57100Y-46079D01*
X57104Y-46076D01*
X57104Y-46046D02*
X57100Y-46042D01*
X57096Y-46034D01*
X57096Y-46015D01*
X57100Y-46008D01*
X57104Y-46004D01*
X57111Y-46000D01*
X57119Y-46000D01*
X57130Y-46004D01*
X57175Y-46049D01*
X57175Y-46000D01*
X56774Y-37611D02*
X56778Y-37615D01*
X56781Y-37626D01*
X56781Y-37634D01*
X56778Y-37645D01*
X56770Y-37652D01*
X56762Y-37656D01*
X56747Y-37660D01*
X56736Y-37660D01*
X56721Y-37656D01*
X56714Y-37652D01*
X56706Y-37645D01*
X56702Y-37634D01*
X56702Y-37626D01*
X56706Y-37615D01*
X56710Y-37611D01*
X56702Y-37585D02*
X56702Y-37536D01*
X56732Y-37562D01*
X56732Y-37551D01*
X56736Y-37543D01*
X56740Y-37540D01*
X56747Y-37536D01*
X56766Y-37536D01*
X56774Y-37540D01*
X56778Y-37543D01*
X56781Y-37551D01*
X56781Y-37573D01*
X56778Y-37581D01*
X56774Y-37585D01*
G54D14*
X58134Y-37653D02*
X58041Y-37713D01*
X58134Y-37756D02*
X57937Y-37756D01*
X57937Y-37687D01*
X57947Y-37670D01*
X57956Y-37661D01*
X57975Y-37653D01*
X58003Y-37653D01*
X58022Y-37661D01*
X58031Y-37670D01*
X58041Y-37687D01*
X58041Y-37756D01*
X58003Y-37499D02*
X58134Y-37499D01*
X57928Y-37541D02*
X58069Y-37584D01*
X58069Y-37473D01*
X58830Y-37542D02*
X58735Y-37602D01*
X58830Y-37645D02*
X58630Y-37645D01*
X58630Y-37576D01*
X58639Y-37559D01*
X58649Y-37551D01*
X58668Y-37542D01*
X58697Y-37542D01*
X58716Y-37551D01*
X58725Y-37559D01*
X58735Y-37576D01*
X58735Y-37645D01*
X59366Y-37603D02*
X59272Y-37663D01*
X59366Y-37706D02*
X59169Y-37706D01*
X59169Y-37637D01*
X59178Y-37620D01*
X59187Y-37611D01*
X59206Y-37603D01*
X59234Y-37603D01*
X59253Y-37611D01*
X59262Y-37620D01*
X59272Y-37637D01*
X59272Y-37706D01*
X59169Y-37440D02*
X59169Y-37526D01*
X59262Y-37534D01*
X59253Y-37526D01*
X59244Y-37509D01*
X59244Y-37466D01*
X59253Y-37449D01*
X59262Y-37440D01*
X59281Y-37431D01*
X59328Y-37431D01*
X59347Y-37440D01*
X59356Y-37449D01*
X59366Y-37466D01*
X59366Y-37509D01*
X59356Y-37526D01*
X59347Y-37534D01*
X58673Y-37542D02*
X58578Y-37602D01*
X58673Y-37645D02*
X58473Y-37645D01*
X58473Y-37576D01*
X58482Y-37559D01*
X58492Y-37551D01*
X58511Y-37542D01*
X58540Y-37542D01*
X58559Y-37551D01*
X58568Y-37559D01*
X58578Y-37576D01*
X58578Y-37645D01*
G54D10*
X58164Y-41124D02*
X58164Y-41443D01*
X58183Y-41480D01*
X58202Y-41499D01*
X58239Y-41518D01*
X58314Y-41518D01*
X58352Y-41499D01*
X58371Y-41480D01*
X58389Y-41443D01*
X58389Y-41124D01*
X58783Y-41518D02*
X58558Y-41518D01*
X58671Y-41518D02*
X58671Y-41124D01*
X58633Y-41180D01*
X58596Y-41218D01*
X58558Y-41237D01*
X57134Y-40672D02*
X57265Y-40672D01*
X57321Y-40878D02*
X57134Y-40878D01*
X57134Y-40484D01*
X57321Y-40484D01*
X57490Y-40878D02*
X57490Y-40484D01*
X57715Y-40878D01*
X57715Y-40484D01*
X58128Y-40840D02*
X58109Y-40859D01*
X58053Y-40878D01*
X58015Y-40878D01*
X57959Y-40859D01*
X57921Y-40822D01*
X57903Y-40784D01*
X57884Y-40709D01*
X57884Y-40653D01*
X57903Y-40578D01*
X57921Y-40540D01*
X57959Y-40503D01*
X58015Y-40484D01*
X58053Y-40484D01*
X58109Y-40503D01*
X58128Y-40522D01*
X58371Y-40484D02*
X58446Y-40484D01*
X58484Y-40503D01*
X58521Y-40540D01*
X58540Y-40615D01*
X58540Y-40747D01*
X58521Y-40822D01*
X58484Y-40859D01*
X58446Y-40878D01*
X58371Y-40878D01*
X58334Y-40859D01*
X58296Y-40822D01*
X58278Y-40747D01*
X58278Y-40615D01*
X58296Y-40540D01*
X58334Y-40503D01*
X58371Y-40484D01*
X58709Y-40878D02*
X58709Y-40484D01*
X58803Y-40484D01*
X58859Y-40503D01*
X58896Y-40540D01*
X58915Y-40578D01*
X58934Y-40653D01*
X58934Y-40709D01*
X58915Y-40784D01*
X58896Y-40822D01*
X58859Y-40859D01*
X58803Y-40878D01*
X58709Y-40878D01*
X59102Y-40672D02*
X59234Y-40672D01*
X59290Y-40878D02*
X59102Y-40878D01*
X59102Y-40484D01*
X59290Y-40484D01*
X59684Y-40878D02*
X59552Y-40690D01*
X59459Y-40878D02*
X59459Y-40484D01*
X59609Y-40484D01*
X59646Y-40503D01*
X59665Y-40522D01*
X59684Y-40559D01*
X59684Y-40615D01*
X59665Y-40653D01*
X59646Y-40672D01*
X59609Y-40690D01*
X59459Y-40690D01*
G54D15*
X55930Y-36643D02*
X55930Y-36143D01*
X56120Y-36143D01*
X56168Y-36167D01*
X56192Y-36191D01*
X56215Y-36238D01*
X56215Y-36310D01*
X56192Y-36357D01*
X56168Y-36381D01*
X56120Y-36405D01*
X55930Y-36405D01*
X56406Y-36191D02*
X56430Y-36167D01*
X56477Y-36143D01*
X56596Y-36143D01*
X56644Y-36167D01*
X56668Y-36191D01*
X56692Y-36238D01*
X56692Y-36286D01*
X56668Y-36357D01*
X56382Y-36643D01*
X56692Y-36643D01*
X56520Y-47076D02*
X56520Y-46576D01*
X56711Y-46576D01*
X56758Y-46600D01*
X56782Y-46624D01*
X56806Y-46671D01*
X56806Y-46743D01*
X56782Y-46790D01*
X56758Y-46814D01*
X56711Y-46838D01*
X56520Y-46838D01*
X57282Y-47076D02*
X56996Y-47076D01*
X57139Y-47076D02*
X57139Y-46576D01*
X57092Y-46648D01*
X57044Y-46695D01*
X56996Y-46719D01*
M02*
