M48
;DRILL file {pcbnew (2014-04-07 BZR 4791)-product} date Mon 14 Apr 2014 04:16:48 PM CEST
;FORMAT={-:-/ absolute / inch / decimal}
FMAT,2
INCH,TZ
T1C0.035
T2C0.040
T3C0.079
T4C0.094
%
G90
G05
M72
T1
X5.7284Y-3.8584
X5.7481Y-4.4293
X5.8071Y-3.8584
X5.8465Y-4.4293
X5.8859Y-3.8584
X5.9449Y-4.4293
X5.9646Y-3.8584
T2
X5.7465Y-3.5327
X5.7465Y-3.6327
X5.7965Y-4.5563
X5.7965Y-4.6563
X5.8465Y-3.5327
X5.8465Y-3.6327
X5.8965Y-4.5563
X5.8965Y-4.6563
X5.9465Y-3.5327
X5.9465Y-3.6327
T3
X5.5709Y-3.5827
X6.122Y-3.5827
T4
X5.5906Y-4.134
X6.1024Y-4.134
T0
M30
