%FSLAX34Y34*%
G04 Gerber Fmt 3.4, Leading zero omitted, Abs format*
G04 (created by PCBNEW (2014-04-07 BZR 4791)-product) date Mon 14 Apr 2014 04:16:44 PM CEST*
%MOIN*%
G01*
G70*
G90*
G04 APERTURE LIST*
%ADD10C,0.005906*%
%ADD11R,0.039400X0.035400*%
%ADD12R,0.025000X0.045000*%
%ADD13O,0.059055X0.078740*%
%ADD14C,0.118110*%
%ADD15R,0.068000X0.068000*%
%ADD16O,0.068000X0.068000*%
%ADD17C,0.126000*%
%ADD18C,0.011811*%
G04 APERTURE END LIST*
G54D10*
G54D11*
X60039Y-46358D03*
X60039Y-45766D03*
X56889Y-46358D03*
X56889Y-45766D03*
X56496Y-37894D03*
X56496Y-37302D03*
G54D12*
X58370Y-37598D03*
X57770Y-37598D03*
X58951Y-37598D03*
X59551Y-37598D03*
G54D13*
X59646Y-38584D03*
X58858Y-38584D03*
X58071Y-38584D03*
X57283Y-38584D03*
X57480Y-44292D03*
X58464Y-44292D03*
X59449Y-44292D03*
G54D14*
X55905Y-41340D03*
X61024Y-41340D03*
G54D15*
X57464Y-36326D03*
G54D16*
X57464Y-35326D03*
X58464Y-36326D03*
X58464Y-35326D03*
X59464Y-36326D03*
X59464Y-35326D03*
G54D17*
X61220Y-35826D03*
X55708Y-35826D03*
G54D15*
X57964Y-46562D03*
G54D16*
X57964Y-45562D03*
X58964Y-46562D03*
X58964Y-45562D03*
G54D18*
X59257Y-35825D02*
X59464Y-35825D01*
X59646Y-38584D02*
X59246Y-38184D01*
X59246Y-38184D02*
X59246Y-37300D01*
X59246Y-37300D02*
X58964Y-37018D01*
X58964Y-37018D02*
X58964Y-36119D01*
X58964Y-36119D02*
X59257Y-35825D01*
X59257Y-35825D02*
X58963Y-35531D01*
X58963Y-35531D02*
X58963Y-35326D01*
X58464Y-35326D02*
X58963Y-35326D01*
X59464Y-35326D02*
X59464Y-35825D01*
X59646Y-43731D02*
X59646Y-38584D01*
X58682Y-45063D02*
X58464Y-44845D01*
X58964Y-45063D02*
X58682Y-45063D01*
X58682Y-45063D02*
X58463Y-45283D01*
X58463Y-45283D02*
X58463Y-45562D01*
X57964Y-45562D02*
X58463Y-45562D01*
X56889Y-45767D02*
X57245Y-45767D01*
X57964Y-45562D02*
X57449Y-45562D01*
X57449Y-45562D02*
X57245Y-45767D01*
X58464Y-44292D02*
X58919Y-44292D01*
X59646Y-43731D02*
X60039Y-44124D01*
X60039Y-44124D02*
X60039Y-45767D01*
X58919Y-44292D02*
X58919Y-44065D01*
X58919Y-44065D02*
X59253Y-43731D01*
X59253Y-43731D02*
X59646Y-43731D01*
X58464Y-44491D02*
X58464Y-44292D01*
X58464Y-44491D02*
X58464Y-44845D01*
X58964Y-45562D02*
X58964Y-45063D01*
X57464Y-35326D02*
X57464Y-35825D01*
X57464Y-35825D02*
X57058Y-35825D01*
X57058Y-35825D02*
X56496Y-36388D01*
X56496Y-36388D02*
X56496Y-37302D01*
X58464Y-35326D02*
X57464Y-35326D01*
X58964Y-46562D02*
X59463Y-46562D01*
X59479Y-46358D02*
X59683Y-46358D01*
X59463Y-46562D02*
X59463Y-46374D01*
X59463Y-46374D02*
X59479Y-46358D01*
X59449Y-44845D02*
X59479Y-44875D01*
X59479Y-44875D02*
X59479Y-46358D01*
X59449Y-44292D02*
X59449Y-44845D01*
X60039Y-46358D02*
X59683Y-46358D01*
X56889Y-46358D02*
X56533Y-46358D01*
X57480Y-44292D02*
X57026Y-44292D01*
X57026Y-44292D02*
X56533Y-44785D01*
X56533Y-44785D02*
X56533Y-46358D01*
X56889Y-46358D02*
X57245Y-46358D01*
X57964Y-46562D02*
X57449Y-46562D01*
X57449Y-46562D02*
X57245Y-46358D01*
X57283Y-38584D02*
X56829Y-38584D01*
X56829Y-38584D02*
X56829Y-38297D01*
X56829Y-38297D02*
X56852Y-38274D01*
X56852Y-38274D02*
X56852Y-37894D01*
X56496Y-37894D02*
X56852Y-37894D01*
X57464Y-36326D02*
X57464Y-37282D01*
X57464Y-37282D02*
X56852Y-37894D01*
X58370Y-37598D02*
X58370Y-37982D01*
X58071Y-38584D02*
X58071Y-38031D01*
X58071Y-38031D02*
X58120Y-37982D01*
X58120Y-37982D02*
X58370Y-37982D01*
X58951Y-37598D02*
X58951Y-37982D01*
X58858Y-38584D02*
X58858Y-38031D01*
X58858Y-38031D02*
X58907Y-37982D01*
X58907Y-37982D02*
X58951Y-37982D01*
X57770Y-37598D02*
X57770Y-37214D01*
X58464Y-36326D02*
X58464Y-36825D01*
X58464Y-36825D02*
X58076Y-37214D01*
X58076Y-37214D02*
X57770Y-37214D01*
X59464Y-36326D02*
X59464Y-36825D01*
X59464Y-36825D02*
X59551Y-36913D01*
X59551Y-36913D02*
X59551Y-37598D01*
M02*
