%FSLAX46Y46*%
G04 Gerber Fmt 4.6, Leading zero omitted, Abs format (unit mm)*
G04 Created by KiCad (PCBNEW (2014-jul-16 BZR unknown)-product) date fre  8 aug 2014 14:25:07*
%MOMM*%
G01*
G04 APERTURE LIST*
%ADD10C,0.100000*%
%ADD11R,0.900000X0.350000*%
%ADD12R,0.350000X0.900000*%
%ADD13R,2.500000X2.500000*%
%ADD14R,2.286000X1.574800*%
%ADD15O,2.286000X1.574800*%
%ADD16C,3.200400*%
%ADD17C,1.200000*%
%ADD18C,0.254000*%
G04 APERTURE END LIST*
D10*
D11*
X41000000Y-39675000D03*
X41000000Y-40325000D03*
X41000000Y-39025000D03*
X41000000Y-40975000D03*
D12*
X42675000Y-42000000D03*
X42025000Y-42000000D03*
X43325000Y-42000000D03*
X43975000Y-42000000D03*
D11*
X45000000Y-40975000D03*
X45000000Y-40325000D03*
X45000000Y-39675000D03*
X45000000Y-39025000D03*
D12*
X43975000Y-38000000D03*
X43325000Y-38000000D03*
X42675000Y-38000000D03*
X42025000Y-38000000D03*
D13*
X43000000Y-40000000D03*
D14*
X39501200Y-50986700D03*
D15*
X39501200Y-53526700D03*
X39501200Y-56066700D03*
X39501200Y-58606700D03*
X39501200Y-61146700D03*
X39501200Y-63686700D03*
X39501200Y-66226700D03*
X47121200Y-66226700D03*
X47121200Y-63686700D03*
X47121200Y-61146700D03*
X47121200Y-58606700D03*
X47121200Y-56066700D03*
X47121200Y-53526700D03*
X47121200Y-50986700D03*
D16*
X33000000Y-40000000D03*
X53000000Y-40000000D03*
D17*
X36493800Y-52461800D03*
X50137000Y-45185600D03*
X35453400Y-49852300D03*
D18*
X40358600Y-39675000D02*
X41000000Y-39675000D01*
X37959000Y-42074600D02*
X40358600Y-39675000D01*
X37959000Y-54013200D02*
X37959000Y-42074600D01*
X38843800Y-54898000D02*
X37959000Y-54013200D01*
X39501200Y-54898000D02*
X38843800Y-54898000D01*
X39501200Y-56066700D02*
X39501200Y-54898000D01*
X40476800Y-40325000D02*
X41000000Y-40325000D01*
X40168600Y-40633200D02*
X40476800Y-40325000D01*
X40168600Y-49100800D02*
X40168600Y-40633200D01*
X41025600Y-49957800D02*
X40168600Y-49100800D01*
X41025600Y-56571000D02*
X41025600Y-49957800D01*
X40158600Y-57438000D02*
X41025600Y-56571000D01*
X39501200Y-57438000D02*
X40158600Y-57438000D01*
X39501200Y-58606700D02*
X39501200Y-57438000D01*
X36493800Y-42699900D02*
X40168700Y-39025000D01*
X36493800Y-52461800D02*
X36493800Y-42699900D01*
X41000000Y-39025000D02*
X40168700Y-39025000D01*
X41000000Y-47758800D02*
X41000000Y-40975000D01*
X41605600Y-48364400D02*
X41000000Y-47758800D01*
X41605600Y-58575200D02*
X41605600Y-48364400D01*
X40012500Y-60168300D02*
X41605600Y-58575200D01*
X39501200Y-60168300D02*
X40012500Y-60168300D01*
X39501200Y-61146700D02*
X39501200Y-60168300D01*
X42675000Y-62541600D02*
X42675000Y-42000000D01*
X40158600Y-65058000D02*
X42675000Y-62541600D01*
X39501200Y-65058000D02*
X40158600Y-65058000D01*
X39501200Y-66226700D02*
X39501200Y-65058000D01*
X42118600Y-42924900D02*
X42025000Y-42831300D01*
X42118600Y-60558000D02*
X42118600Y-42924900D01*
X40158600Y-62518000D02*
X42118600Y-60558000D01*
X39501200Y-62518000D02*
X40158600Y-62518000D01*
X39501200Y-63686700D02*
X39501200Y-62518000D01*
X42025000Y-42000000D02*
X42025000Y-42831300D01*
X47121200Y-66226700D02*
X47121200Y-65058000D01*
X46463800Y-65058000D02*
X47121200Y-65058000D01*
X43325000Y-61919200D02*
X46463800Y-65058000D01*
X43325000Y-42000000D02*
X43325000Y-61919200D01*
X47121200Y-63686700D02*
X47121200Y-62518000D01*
X43975000Y-42000000D02*
X43975000Y-42831300D01*
X46463800Y-62518000D02*
X47121200Y-62518000D01*
X43975000Y-60029200D02*
X46463800Y-62518000D01*
X43975000Y-42831300D02*
X43975000Y-60029200D01*
X45000000Y-46914200D02*
X45000000Y-40975000D01*
X44548800Y-47365400D02*
X45000000Y-46914200D01*
X44548800Y-58063000D02*
X44548800Y-47365400D01*
X46463800Y-59978000D02*
X44548800Y-58063000D01*
X47121200Y-59978000D02*
X46463800Y-59978000D01*
X47121200Y-61146700D02*
X47121200Y-59978000D01*
X45523200Y-40325000D02*
X45000000Y-40325000D01*
X45831400Y-40633200D02*
X45523200Y-40325000D01*
X45831400Y-47161000D02*
X45831400Y-40633200D01*
X45060200Y-47932200D02*
X45831400Y-47161000D01*
X45060200Y-56034400D02*
X45060200Y-47932200D01*
X46463800Y-57438000D02*
X45060200Y-56034400D01*
X47121200Y-57438000D02*
X46463800Y-57438000D01*
X47121200Y-58606700D02*
X47121200Y-57438000D01*
X47121200Y-56066700D02*
X47121200Y-54898000D01*
X45667000Y-39675000D02*
X45000000Y-39675000D01*
X46344600Y-40352600D02*
X45667000Y-39675000D01*
X46344600Y-48085600D02*
X46344600Y-40352600D01*
X45568600Y-48861600D02*
X46344600Y-48085600D01*
X45568600Y-54002800D02*
X45568600Y-48861600D01*
X46463800Y-54898000D02*
X45568600Y-54002800D01*
X47121200Y-54898000D02*
X46463800Y-54898000D01*
X48687000Y-41880700D02*
X45831300Y-39025000D01*
X48687000Y-51449600D02*
X48687000Y-41880700D01*
X47778600Y-52358000D02*
X48687000Y-51449600D01*
X47121200Y-52358000D02*
X47778600Y-52358000D01*
X47121200Y-53526700D02*
X47121200Y-52358000D01*
X45000000Y-39025000D02*
X45831300Y-39025000D01*
X45580100Y-38000000D02*
X43975000Y-38000000D01*
X50137000Y-42556900D02*
X45580100Y-38000000D01*
X50137000Y-45185600D02*
X50137000Y-42556900D01*
X40448500Y-38000000D02*
X42025000Y-38000000D01*
X35453400Y-42995100D02*
X40448500Y-38000000D01*
X35453400Y-49852300D02*
X35453400Y-42995100D01*
M02*
