G04 (created by PCBNEW (2011-nov-30)-testing) date Mon 13 Aug 2012 02:39:08 PM CEST*
%MOIN*%
G04 Gerber Fmt 3.4, Leading zero omitted, Abs format*
%FSLAX34Y34*%
G01*
G70*
G90*
G04 APERTURE LIST*
%ADD10C,0.001*%
%ADD11C,0.015*%
%ADD12C,0.005*%
G04 APERTURE END LIST*
G54D10*
G54D11*
X9449Y-23228D02*
X9449Y-42126D01*
X28740Y-23228D02*
X9449Y-23228D01*
X28740Y-42126D02*
X28740Y-23228D01*
X9449Y-42126D02*
X28740Y-42126D01*
G54D10*
X19134Y-36426D02*
X19448Y-36740D01*
X19448Y-36426D02*
X19134Y-36740D01*
X19134Y-40426D02*
X19448Y-40740D01*
X19448Y-40426D02*
X19134Y-40740D01*
X25040Y-25077D02*
X25354Y-25391D01*
X25354Y-25077D02*
X25040Y-25391D01*
X25040Y-26577D02*
X25354Y-26891D01*
X25354Y-26577D02*
X25040Y-26891D01*
X11221Y-32677D02*
G75*
G03X11221Y-32677I-197J0D01*
G74*
G01*
X11614Y-35008D02*
G75*
G03X11614Y-35008I-197J0D01*
G74*
G01*
X11614Y-39008D02*
G75*
G03X11614Y-39008I-197J0D01*
G74*
G01*
X13221Y-32677D02*
G75*
G03X13221Y-32677I-197J0D01*
G74*
G01*
X15551Y-37189D02*
G75*
G03X15551Y-37189I-197J0D01*
G74*
G01*
X15561Y-39189D02*
G75*
G03X15561Y-39189I-197J0D01*
G74*
G01*
X20851Y-24803D02*
G75*
G03X20851Y-24803I-197J0D01*
G74*
G01*
X21851Y-24803D02*
G75*
G03X21851Y-24803I-197J0D01*
G74*
G01*
X22851Y-24803D02*
G75*
G03X22851Y-24803I-197J0D01*
G74*
G01*
X23063Y-29646D02*
G75*
G03X23063Y-29646I-197J0D01*
G74*
G01*
X23063Y-31646D02*
G75*
G03X23063Y-31646I-197J0D01*
G74*
G01*
X23063Y-33646D02*
G75*
G03X23063Y-33646I-197J0D01*
G74*
G01*
X23063Y-35646D02*
G75*
G03X23063Y-35646I-197J0D01*
G74*
G01*
X23063Y-38646D02*
G75*
G03X23063Y-38646I-197J0D01*
G74*
G01*
X26969Y-29725D02*
G75*
G03X26969Y-29725I-197J0D01*
G74*
G01*
X26969Y-38583D02*
G75*
G03X26969Y-38583I-197J0D01*
G74*
G01*
X15551Y-26122D02*
X15551Y-26634D01*
X15295Y-26378D02*
X15807Y-26378D01*
X15551Y-33996D02*
X15551Y-34508D01*
X15295Y-34252D02*
X15807Y-34252D01*
X18504Y-24744D02*
X18504Y-25256D01*
X18248Y-25000D02*
X18760Y-25000D01*
X18504Y-27500D02*
X18504Y-28012D01*
X18248Y-27756D02*
X18760Y-27756D01*
X18504Y-33996D02*
X18504Y-34508D01*
X18248Y-34252D02*
X18760Y-34252D01*
X11232Y-29343D02*
X11232Y-28925D01*
X10814Y-28925D01*
X10814Y-29343D01*
X11232Y-29343D01*
X13201Y-29343D02*
X13201Y-28925D01*
X12783Y-28925D01*
X12783Y-29343D01*
X13201Y-29343D01*
X10630Y-24724D02*
X10945Y-24409D01*
X10630Y-24094D01*
X10315Y-24409D01*
X10630Y-24724D01*
X10630Y-41260D02*
X10945Y-40945D01*
X10630Y-40630D01*
X10315Y-40945D01*
X10630Y-41260D01*
X27559Y-24724D02*
X27874Y-24409D01*
X27559Y-24094D01*
X27244Y-24409D01*
X27559Y-24724D01*
X27559Y-41260D02*
X27874Y-40945D01*
X27559Y-40630D01*
X27244Y-40945D01*
X27559Y-41260D01*
G54D12*
X8732Y-42954D02*
X8732Y-42454D01*
X8851Y-42454D01*
X8923Y-42478D01*
X8970Y-42526D01*
X8994Y-42573D01*
X9018Y-42669D01*
X9018Y-42740D01*
X8994Y-42835D01*
X8970Y-42883D01*
X8923Y-42931D01*
X8851Y-42954D01*
X8732Y-42954D01*
X9232Y-42954D02*
X9232Y-42621D01*
X9232Y-42716D02*
X9256Y-42669D01*
X9280Y-42645D01*
X9327Y-42621D01*
X9375Y-42621D01*
X9542Y-42954D02*
X9542Y-42621D01*
X9542Y-42454D02*
X9518Y-42478D01*
X9542Y-42502D01*
X9566Y-42478D01*
X9542Y-42454D01*
X9542Y-42502D01*
X9851Y-42954D02*
X9804Y-42931D01*
X9780Y-42883D01*
X9780Y-42454D01*
X10113Y-42954D02*
X10066Y-42931D01*
X10042Y-42883D01*
X10042Y-42454D01*
X10685Y-42954D02*
X10685Y-42454D01*
X10852Y-42812D01*
X11018Y-42454D01*
X11018Y-42954D01*
X11470Y-42954D02*
X11470Y-42692D01*
X11447Y-42645D01*
X11399Y-42621D01*
X11304Y-42621D01*
X11256Y-42645D01*
X11470Y-42931D02*
X11423Y-42954D01*
X11304Y-42954D01*
X11256Y-42931D01*
X11232Y-42883D01*
X11232Y-42835D01*
X11256Y-42788D01*
X11304Y-42764D01*
X11423Y-42764D01*
X11470Y-42740D01*
X11708Y-42621D02*
X11708Y-43121D01*
X11708Y-42645D02*
X11756Y-42621D01*
X11851Y-42621D01*
X11899Y-42645D01*
X11922Y-42669D01*
X11946Y-42716D01*
X11946Y-42859D01*
X11922Y-42907D01*
X11899Y-42931D01*
X11851Y-42954D01*
X11756Y-42954D01*
X11708Y-42931D01*
X12160Y-42907D02*
X12184Y-42931D01*
X12160Y-42954D01*
X12136Y-42931D01*
X12160Y-42907D01*
X12160Y-42954D01*
X12160Y-42645D02*
X12184Y-42669D01*
X12160Y-42692D01*
X12136Y-42669D01*
X12160Y-42645D01*
X12160Y-42692D01*
X8098Y-43645D02*
X8412Y-43959D01*
X8412Y-43645D02*
X8098Y-43959D01*
X8827Y-43504D02*
X8875Y-43504D01*
X8923Y-43528D01*
X8946Y-43552D01*
X8970Y-43600D01*
X8994Y-43695D01*
X8994Y-43814D01*
X8970Y-43909D01*
X8946Y-43957D01*
X8923Y-43981D01*
X8875Y-44004D01*
X8827Y-44004D01*
X8780Y-43981D01*
X8756Y-43957D01*
X8732Y-43909D01*
X8708Y-43814D01*
X8708Y-43695D01*
X8732Y-43600D01*
X8756Y-43552D01*
X8780Y-43528D01*
X8827Y-43504D01*
X9208Y-43957D02*
X9232Y-43981D01*
X9208Y-44004D01*
X9184Y-43981D01*
X9208Y-43957D01*
X9208Y-44004D01*
X9541Y-43504D02*
X9589Y-43504D01*
X9637Y-43528D01*
X9660Y-43552D01*
X9684Y-43600D01*
X9708Y-43695D01*
X9708Y-43814D01*
X9684Y-43909D01*
X9660Y-43957D01*
X9637Y-43981D01*
X9589Y-44004D01*
X9541Y-44004D01*
X9494Y-43981D01*
X9470Y-43957D01*
X9446Y-43909D01*
X9422Y-43814D01*
X9422Y-43695D01*
X9446Y-43600D01*
X9470Y-43552D01*
X9494Y-43528D01*
X9541Y-43504D01*
X9874Y-43504D02*
X10184Y-43504D01*
X10017Y-43695D01*
X10089Y-43695D01*
X10136Y-43719D01*
X10160Y-43742D01*
X10184Y-43790D01*
X10184Y-43909D01*
X10160Y-43957D01*
X10136Y-43981D01*
X10089Y-44004D01*
X9946Y-44004D01*
X9898Y-43981D01*
X9874Y-43957D01*
X10374Y-43552D02*
X10398Y-43528D01*
X10446Y-43504D01*
X10565Y-43504D01*
X10612Y-43528D01*
X10636Y-43552D01*
X10660Y-43600D01*
X10660Y-43647D01*
X10636Y-43719D01*
X10350Y-44004D01*
X10660Y-44004D01*
X10850Y-43504D02*
X10850Y-43600D01*
X11041Y-43504D02*
X11041Y-43600D01*
X11993Y-43481D02*
X11565Y-44123D01*
X12636Y-43504D02*
X12684Y-43504D01*
X12732Y-43528D01*
X12755Y-43552D01*
X12779Y-43600D01*
X12803Y-43695D01*
X12803Y-43814D01*
X12779Y-43909D01*
X12755Y-43957D01*
X12732Y-43981D01*
X12684Y-44004D01*
X12636Y-44004D01*
X12589Y-43981D01*
X12565Y-43957D01*
X12541Y-43909D01*
X12517Y-43814D01*
X12517Y-43695D01*
X12541Y-43600D01*
X12565Y-43552D01*
X12589Y-43528D01*
X12636Y-43504D01*
X13017Y-43957D02*
X13041Y-43981D01*
X13017Y-44004D01*
X12993Y-43981D01*
X13017Y-43957D01*
X13017Y-44004D01*
X13326Y-43719D02*
X13279Y-43695D01*
X13255Y-43671D01*
X13231Y-43623D01*
X13231Y-43600D01*
X13255Y-43552D01*
X13279Y-43528D01*
X13326Y-43504D01*
X13422Y-43504D01*
X13469Y-43528D01*
X13493Y-43552D01*
X13517Y-43600D01*
X13517Y-43623D01*
X13493Y-43671D01*
X13469Y-43695D01*
X13422Y-43719D01*
X13326Y-43719D01*
X13279Y-43742D01*
X13255Y-43766D01*
X13231Y-43814D01*
X13231Y-43909D01*
X13255Y-43957D01*
X13279Y-43981D01*
X13326Y-44004D01*
X13422Y-44004D01*
X13469Y-43981D01*
X13493Y-43957D01*
X13517Y-43909D01*
X13517Y-43814D01*
X13493Y-43766D01*
X13469Y-43742D01*
X13422Y-43719D01*
X13826Y-43504D02*
X13874Y-43504D01*
X13922Y-43528D01*
X13945Y-43552D01*
X13969Y-43600D01*
X13993Y-43695D01*
X13993Y-43814D01*
X13969Y-43909D01*
X13945Y-43957D01*
X13922Y-43981D01*
X13874Y-44004D01*
X13826Y-44004D01*
X13779Y-43981D01*
X13755Y-43957D01*
X13731Y-43909D01*
X13707Y-43814D01*
X13707Y-43695D01*
X13731Y-43600D01*
X13755Y-43552D01*
X13779Y-43528D01*
X13826Y-43504D01*
X14207Y-44004D02*
X14207Y-43671D01*
X14207Y-43719D02*
X14231Y-43695D01*
X14278Y-43671D01*
X14350Y-43671D01*
X14398Y-43695D01*
X14421Y-43742D01*
X14421Y-44004D01*
X14421Y-43742D02*
X14445Y-43695D01*
X14493Y-43671D01*
X14564Y-43671D01*
X14612Y-43695D01*
X14636Y-43742D01*
X14636Y-44004D01*
X14874Y-44004D02*
X14874Y-43671D01*
X14874Y-43719D02*
X14898Y-43695D01*
X14945Y-43671D01*
X15017Y-43671D01*
X15065Y-43695D01*
X15088Y-43742D01*
X15088Y-44004D01*
X15088Y-43742D02*
X15112Y-43695D01*
X15160Y-43671D01*
X15231Y-43671D01*
X15279Y-43695D01*
X15303Y-43742D01*
X15303Y-44004D01*
X16065Y-44195D02*
X16041Y-44171D01*
X15993Y-44100D01*
X15970Y-44052D01*
X15946Y-43981D01*
X15922Y-43862D01*
X15922Y-43766D01*
X15946Y-43647D01*
X15970Y-43576D01*
X15993Y-43528D01*
X16041Y-43457D01*
X16065Y-43433D01*
X16469Y-43671D02*
X16469Y-44004D01*
X16350Y-43481D02*
X16231Y-43838D01*
X16541Y-43838D01*
X17112Y-44004D02*
X17112Y-43504D01*
X17326Y-44004D02*
X17326Y-43742D01*
X17303Y-43695D01*
X17255Y-43671D01*
X17183Y-43671D01*
X17136Y-43695D01*
X17112Y-43719D01*
X17635Y-44004D02*
X17588Y-43981D01*
X17564Y-43957D01*
X17540Y-43909D01*
X17540Y-43766D01*
X17564Y-43719D01*
X17588Y-43695D01*
X17635Y-43671D01*
X17707Y-43671D01*
X17755Y-43695D01*
X17778Y-43719D01*
X17802Y-43766D01*
X17802Y-43909D01*
X17778Y-43957D01*
X17755Y-43981D01*
X17707Y-44004D01*
X17635Y-44004D01*
X18087Y-44004D02*
X18040Y-43981D01*
X18016Y-43933D01*
X18016Y-43504D01*
X18469Y-43981D02*
X18421Y-44004D01*
X18326Y-44004D01*
X18278Y-43981D01*
X18254Y-43933D01*
X18254Y-43742D01*
X18278Y-43695D01*
X18326Y-43671D01*
X18421Y-43671D01*
X18469Y-43695D01*
X18492Y-43742D01*
X18492Y-43790D01*
X18254Y-43838D01*
X18683Y-43981D02*
X18731Y-44004D01*
X18826Y-44004D01*
X18874Y-43981D01*
X18898Y-43933D01*
X18898Y-43909D01*
X18874Y-43862D01*
X18826Y-43838D01*
X18755Y-43838D01*
X18707Y-43814D01*
X18683Y-43766D01*
X18683Y-43742D01*
X18707Y-43695D01*
X18755Y-43671D01*
X18826Y-43671D01*
X18874Y-43695D01*
X19064Y-44195D02*
X19088Y-44171D01*
X19136Y-44100D01*
X19160Y-44052D01*
X19183Y-43981D01*
X19207Y-43862D01*
X19207Y-43766D01*
X19183Y-43647D01*
X19160Y-43576D01*
X19136Y-43528D01*
X19088Y-43457D01*
X19064Y-43433D01*
G54D10*
X8413Y-44462D02*
G75*
G03X8413Y-44462I-197J0D01*
G74*
G01*
G54D12*
X8827Y-44164D02*
X8875Y-44164D01*
X8923Y-44188D01*
X8946Y-44212D01*
X8970Y-44260D01*
X8994Y-44355D01*
X8994Y-44474D01*
X8970Y-44569D01*
X8946Y-44617D01*
X8923Y-44641D01*
X8875Y-44664D01*
X8827Y-44664D01*
X8780Y-44641D01*
X8756Y-44617D01*
X8732Y-44569D01*
X8708Y-44474D01*
X8708Y-44355D01*
X8732Y-44260D01*
X8756Y-44212D01*
X8780Y-44188D01*
X8827Y-44164D01*
X9208Y-44617D02*
X9232Y-44641D01*
X9208Y-44664D01*
X9184Y-44641D01*
X9208Y-44617D01*
X9208Y-44664D01*
X9541Y-44164D02*
X9589Y-44164D01*
X9637Y-44188D01*
X9660Y-44212D01*
X9684Y-44260D01*
X9708Y-44355D01*
X9708Y-44474D01*
X9684Y-44569D01*
X9660Y-44617D01*
X9637Y-44641D01*
X9589Y-44664D01*
X9541Y-44664D01*
X9494Y-44641D01*
X9470Y-44617D01*
X9446Y-44569D01*
X9422Y-44474D01*
X9422Y-44355D01*
X9446Y-44260D01*
X9470Y-44212D01*
X9494Y-44188D01*
X9541Y-44164D01*
X9874Y-44164D02*
X10184Y-44164D01*
X10017Y-44355D01*
X10089Y-44355D01*
X10136Y-44379D01*
X10160Y-44402D01*
X10184Y-44450D01*
X10184Y-44569D01*
X10160Y-44617D01*
X10136Y-44641D01*
X10089Y-44664D01*
X9946Y-44664D01*
X9898Y-44641D01*
X9874Y-44617D01*
X10422Y-44664D02*
X10517Y-44664D01*
X10565Y-44641D01*
X10589Y-44617D01*
X10636Y-44545D01*
X10660Y-44450D01*
X10660Y-44260D01*
X10636Y-44212D01*
X10612Y-44188D01*
X10565Y-44164D01*
X10469Y-44164D01*
X10422Y-44188D01*
X10398Y-44212D01*
X10374Y-44260D01*
X10374Y-44379D01*
X10398Y-44426D01*
X10422Y-44450D01*
X10469Y-44474D01*
X10565Y-44474D01*
X10612Y-44450D01*
X10636Y-44426D01*
X10660Y-44379D01*
X10850Y-44164D02*
X10850Y-44260D01*
X11041Y-44164D02*
X11041Y-44260D01*
X11993Y-44141D02*
X11565Y-44783D01*
X12803Y-44664D02*
X12517Y-44664D01*
X12660Y-44664D02*
X12660Y-44164D01*
X12612Y-44236D01*
X12565Y-44283D01*
X12517Y-44307D01*
X13017Y-44617D02*
X13041Y-44641D01*
X13017Y-44664D01*
X12993Y-44641D01*
X13017Y-44617D01*
X13017Y-44664D01*
X13350Y-44164D02*
X13398Y-44164D01*
X13446Y-44188D01*
X13469Y-44212D01*
X13493Y-44260D01*
X13517Y-44355D01*
X13517Y-44474D01*
X13493Y-44569D01*
X13469Y-44617D01*
X13446Y-44641D01*
X13398Y-44664D01*
X13350Y-44664D01*
X13303Y-44641D01*
X13279Y-44617D01*
X13255Y-44569D01*
X13231Y-44474D01*
X13231Y-44355D01*
X13255Y-44260D01*
X13279Y-44212D01*
X13303Y-44188D01*
X13350Y-44164D01*
X13826Y-44164D02*
X13874Y-44164D01*
X13922Y-44188D01*
X13945Y-44212D01*
X13969Y-44260D01*
X13993Y-44355D01*
X13993Y-44474D01*
X13969Y-44569D01*
X13945Y-44617D01*
X13922Y-44641D01*
X13874Y-44664D01*
X13826Y-44664D01*
X13779Y-44641D01*
X13755Y-44617D01*
X13731Y-44569D01*
X13707Y-44474D01*
X13707Y-44355D01*
X13731Y-44260D01*
X13755Y-44212D01*
X13779Y-44188D01*
X13826Y-44164D01*
X14207Y-44664D02*
X14207Y-44331D01*
X14207Y-44379D02*
X14231Y-44355D01*
X14278Y-44331D01*
X14350Y-44331D01*
X14398Y-44355D01*
X14421Y-44402D01*
X14421Y-44664D01*
X14421Y-44402D02*
X14445Y-44355D01*
X14493Y-44331D01*
X14564Y-44331D01*
X14612Y-44355D01*
X14636Y-44402D01*
X14636Y-44664D01*
X14874Y-44664D02*
X14874Y-44331D01*
X14874Y-44379D02*
X14898Y-44355D01*
X14945Y-44331D01*
X15017Y-44331D01*
X15065Y-44355D01*
X15088Y-44402D01*
X15088Y-44664D01*
X15088Y-44402D02*
X15112Y-44355D01*
X15160Y-44331D01*
X15231Y-44331D01*
X15279Y-44355D01*
X15303Y-44402D01*
X15303Y-44664D01*
X16065Y-44855D02*
X16041Y-44831D01*
X15993Y-44760D01*
X15970Y-44712D01*
X15946Y-44641D01*
X15922Y-44522D01*
X15922Y-44426D01*
X15946Y-44307D01*
X15970Y-44236D01*
X15993Y-44188D01*
X16041Y-44117D01*
X16065Y-44093D01*
X16517Y-44664D02*
X16231Y-44664D01*
X16374Y-44664D02*
X16374Y-44164D01*
X16326Y-44236D01*
X16279Y-44283D01*
X16231Y-44307D01*
X16945Y-44164D02*
X16850Y-44164D01*
X16802Y-44188D01*
X16779Y-44212D01*
X16731Y-44283D01*
X16707Y-44379D01*
X16707Y-44569D01*
X16731Y-44617D01*
X16755Y-44641D01*
X16802Y-44664D01*
X16898Y-44664D01*
X16945Y-44641D01*
X16969Y-44617D01*
X16993Y-44569D01*
X16993Y-44450D01*
X16969Y-44402D01*
X16945Y-44379D01*
X16898Y-44355D01*
X16802Y-44355D01*
X16755Y-44379D01*
X16731Y-44402D01*
X16707Y-44450D01*
X17588Y-44664D02*
X17588Y-44164D01*
X17802Y-44664D02*
X17802Y-44402D01*
X17779Y-44355D01*
X17731Y-44331D01*
X17659Y-44331D01*
X17612Y-44355D01*
X17588Y-44379D01*
X18111Y-44664D02*
X18064Y-44641D01*
X18040Y-44617D01*
X18016Y-44569D01*
X18016Y-44426D01*
X18040Y-44379D01*
X18064Y-44355D01*
X18111Y-44331D01*
X18183Y-44331D01*
X18231Y-44355D01*
X18254Y-44379D01*
X18278Y-44426D01*
X18278Y-44569D01*
X18254Y-44617D01*
X18231Y-44641D01*
X18183Y-44664D01*
X18111Y-44664D01*
X18563Y-44664D02*
X18516Y-44641D01*
X18492Y-44593D01*
X18492Y-44164D01*
X18945Y-44641D02*
X18897Y-44664D01*
X18802Y-44664D01*
X18754Y-44641D01*
X18730Y-44593D01*
X18730Y-44402D01*
X18754Y-44355D01*
X18802Y-44331D01*
X18897Y-44331D01*
X18945Y-44355D01*
X18968Y-44402D01*
X18968Y-44450D01*
X18730Y-44498D01*
X19159Y-44641D02*
X19207Y-44664D01*
X19302Y-44664D01*
X19350Y-44641D01*
X19374Y-44593D01*
X19374Y-44569D01*
X19350Y-44522D01*
X19302Y-44498D01*
X19231Y-44498D01*
X19183Y-44474D01*
X19159Y-44426D01*
X19159Y-44402D01*
X19183Y-44355D01*
X19231Y-44331D01*
X19302Y-44331D01*
X19350Y-44355D01*
X19540Y-44855D02*
X19564Y-44831D01*
X19612Y-44760D01*
X19636Y-44712D01*
X19659Y-44641D01*
X19683Y-44522D01*
X19683Y-44426D01*
X19659Y-44307D01*
X19636Y-44236D01*
X19612Y-44188D01*
X19564Y-44117D01*
X19540Y-44093D01*
X8157Y-44866D02*
X8157Y-45378D01*
X7901Y-45122D02*
X8413Y-45122D01*
X8827Y-44824D02*
X8875Y-44824D01*
X8923Y-44848D01*
X8946Y-44872D01*
X8970Y-44920D01*
X8994Y-45015D01*
X8994Y-45134D01*
X8970Y-45229D01*
X8946Y-45277D01*
X8923Y-45301D01*
X8875Y-45324D01*
X8827Y-45324D01*
X8780Y-45301D01*
X8756Y-45277D01*
X8732Y-45229D01*
X8708Y-45134D01*
X8708Y-45015D01*
X8732Y-44920D01*
X8756Y-44872D01*
X8780Y-44848D01*
X8827Y-44824D01*
X9208Y-45277D02*
X9232Y-45301D01*
X9208Y-45324D01*
X9184Y-45301D01*
X9208Y-45277D01*
X9208Y-45324D01*
X9541Y-44824D02*
X9589Y-44824D01*
X9637Y-44848D01*
X9660Y-44872D01*
X9684Y-44920D01*
X9708Y-45015D01*
X9708Y-45134D01*
X9684Y-45229D01*
X9660Y-45277D01*
X9637Y-45301D01*
X9589Y-45324D01*
X9541Y-45324D01*
X9494Y-45301D01*
X9470Y-45277D01*
X9446Y-45229D01*
X9422Y-45134D01*
X9422Y-45015D01*
X9446Y-44920D01*
X9470Y-44872D01*
X9494Y-44848D01*
X9541Y-44824D01*
X10160Y-44824D02*
X9922Y-44824D01*
X9898Y-45062D01*
X9922Y-45039D01*
X9970Y-45015D01*
X10089Y-45015D01*
X10136Y-45039D01*
X10160Y-45062D01*
X10184Y-45110D01*
X10184Y-45229D01*
X10160Y-45277D01*
X10136Y-45301D01*
X10089Y-45324D01*
X9970Y-45324D01*
X9922Y-45301D01*
X9898Y-45277D01*
X10660Y-45324D02*
X10374Y-45324D01*
X10517Y-45324D02*
X10517Y-44824D01*
X10469Y-44896D01*
X10422Y-44943D01*
X10374Y-44967D01*
X10850Y-44824D02*
X10850Y-44920D01*
X11041Y-44824D02*
X11041Y-44920D01*
X11993Y-44801D02*
X11565Y-45443D01*
X12803Y-45324D02*
X12517Y-45324D01*
X12660Y-45324D02*
X12660Y-44824D01*
X12612Y-44896D01*
X12565Y-44943D01*
X12517Y-44967D01*
X13017Y-45277D02*
X13041Y-45301D01*
X13017Y-45324D01*
X12993Y-45301D01*
X13017Y-45277D01*
X13017Y-45324D01*
X13207Y-44824D02*
X13517Y-44824D01*
X13350Y-45015D01*
X13422Y-45015D01*
X13469Y-45039D01*
X13493Y-45062D01*
X13517Y-45110D01*
X13517Y-45229D01*
X13493Y-45277D01*
X13469Y-45301D01*
X13422Y-45324D01*
X13279Y-45324D01*
X13231Y-45301D01*
X13207Y-45277D01*
X13826Y-44824D02*
X13874Y-44824D01*
X13922Y-44848D01*
X13945Y-44872D01*
X13969Y-44920D01*
X13993Y-45015D01*
X13993Y-45134D01*
X13969Y-45229D01*
X13945Y-45277D01*
X13922Y-45301D01*
X13874Y-45324D01*
X13826Y-45324D01*
X13779Y-45301D01*
X13755Y-45277D01*
X13731Y-45229D01*
X13707Y-45134D01*
X13707Y-45015D01*
X13731Y-44920D01*
X13755Y-44872D01*
X13779Y-44848D01*
X13826Y-44824D01*
X14207Y-45324D02*
X14207Y-44991D01*
X14207Y-45039D02*
X14231Y-45015D01*
X14278Y-44991D01*
X14350Y-44991D01*
X14398Y-45015D01*
X14421Y-45062D01*
X14421Y-45324D01*
X14421Y-45062D02*
X14445Y-45015D01*
X14493Y-44991D01*
X14564Y-44991D01*
X14612Y-45015D01*
X14636Y-45062D01*
X14636Y-45324D01*
X14874Y-45324D02*
X14874Y-44991D01*
X14874Y-45039D02*
X14898Y-45015D01*
X14945Y-44991D01*
X15017Y-44991D01*
X15065Y-45015D01*
X15088Y-45062D01*
X15088Y-45324D01*
X15088Y-45062D02*
X15112Y-45015D01*
X15160Y-44991D01*
X15231Y-44991D01*
X15279Y-45015D01*
X15303Y-45062D01*
X15303Y-45324D01*
X16065Y-45515D02*
X16041Y-45491D01*
X15993Y-45420D01*
X15970Y-45372D01*
X15946Y-45301D01*
X15922Y-45182D01*
X15922Y-45086D01*
X15946Y-44967D01*
X15970Y-44896D01*
X15993Y-44848D01*
X16041Y-44777D01*
X16065Y-44753D01*
X16493Y-44824D02*
X16255Y-44824D01*
X16231Y-45062D01*
X16255Y-45039D01*
X16303Y-45015D01*
X16422Y-45015D01*
X16469Y-45039D01*
X16493Y-45062D01*
X16517Y-45110D01*
X16517Y-45229D01*
X16493Y-45277D01*
X16469Y-45301D01*
X16422Y-45324D01*
X16303Y-45324D01*
X16255Y-45301D01*
X16231Y-45277D01*
X17112Y-45324D02*
X17112Y-44824D01*
X17326Y-45324D02*
X17326Y-45062D01*
X17303Y-45015D01*
X17255Y-44991D01*
X17183Y-44991D01*
X17136Y-45015D01*
X17112Y-45039D01*
X17635Y-45324D02*
X17588Y-45301D01*
X17564Y-45277D01*
X17540Y-45229D01*
X17540Y-45086D01*
X17564Y-45039D01*
X17588Y-45015D01*
X17635Y-44991D01*
X17707Y-44991D01*
X17755Y-45015D01*
X17778Y-45039D01*
X17802Y-45086D01*
X17802Y-45229D01*
X17778Y-45277D01*
X17755Y-45301D01*
X17707Y-45324D01*
X17635Y-45324D01*
X18087Y-45324D02*
X18040Y-45301D01*
X18016Y-45253D01*
X18016Y-44824D01*
X18469Y-45301D02*
X18421Y-45324D01*
X18326Y-45324D01*
X18278Y-45301D01*
X18254Y-45253D01*
X18254Y-45062D01*
X18278Y-45015D01*
X18326Y-44991D01*
X18421Y-44991D01*
X18469Y-45015D01*
X18492Y-45062D01*
X18492Y-45110D01*
X18254Y-45158D01*
X18683Y-45301D02*
X18731Y-45324D01*
X18826Y-45324D01*
X18874Y-45301D01*
X18898Y-45253D01*
X18898Y-45229D01*
X18874Y-45182D01*
X18826Y-45158D01*
X18755Y-45158D01*
X18707Y-45134D01*
X18683Y-45086D01*
X18683Y-45062D01*
X18707Y-45015D01*
X18755Y-44991D01*
X18826Y-44991D01*
X18874Y-45015D01*
X19064Y-45515D02*
X19088Y-45491D01*
X19136Y-45420D01*
X19160Y-45372D01*
X19183Y-45301D01*
X19207Y-45182D01*
X19207Y-45086D01*
X19183Y-44967D01*
X19160Y-44896D01*
X19136Y-44848D01*
X19088Y-44777D01*
X19064Y-44753D01*
G54D10*
X8326Y-46093D02*
X8326Y-45675D01*
X7908Y-45675D01*
X7908Y-46093D01*
X8326Y-46093D01*
G54D12*
X8827Y-45586D02*
X8875Y-45586D01*
X8923Y-45610D01*
X8946Y-45634D01*
X8970Y-45682D01*
X8994Y-45777D01*
X8994Y-45896D01*
X8970Y-45991D01*
X8946Y-46039D01*
X8923Y-46063D01*
X8875Y-46086D01*
X8827Y-46086D01*
X8780Y-46063D01*
X8756Y-46039D01*
X8732Y-45991D01*
X8708Y-45896D01*
X8708Y-45777D01*
X8732Y-45682D01*
X8756Y-45634D01*
X8780Y-45610D01*
X8827Y-45586D01*
X9208Y-46039D02*
X9232Y-46063D01*
X9208Y-46086D01*
X9184Y-46063D01*
X9208Y-46039D01*
X9208Y-46086D01*
X9541Y-45586D02*
X9589Y-45586D01*
X9637Y-45610D01*
X9660Y-45634D01*
X9684Y-45682D01*
X9708Y-45777D01*
X9708Y-45896D01*
X9684Y-45991D01*
X9660Y-46039D01*
X9637Y-46063D01*
X9589Y-46086D01*
X9541Y-46086D01*
X9494Y-46063D01*
X9470Y-46039D01*
X9446Y-45991D01*
X9422Y-45896D01*
X9422Y-45777D01*
X9446Y-45682D01*
X9470Y-45634D01*
X9494Y-45610D01*
X9541Y-45586D01*
X10160Y-45586D02*
X9922Y-45586D01*
X9898Y-45824D01*
X9922Y-45801D01*
X9970Y-45777D01*
X10089Y-45777D01*
X10136Y-45801D01*
X10160Y-45824D01*
X10184Y-45872D01*
X10184Y-45991D01*
X10160Y-46039D01*
X10136Y-46063D01*
X10089Y-46086D01*
X9970Y-46086D01*
X9922Y-46063D01*
X9898Y-46039D01*
X10422Y-46086D02*
X10517Y-46086D01*
X10565Y-46063D01*
X10589Y-46039D01*
X10636Y-45967D01*
X10660Y-45872D01*
X10660Y-45682D01*
X10636Y-45634D01*
X10612Y-45610D01*
X10565Y-45586D01*
X10469Y-45586D01*
X10422Y-45610D01*
X10398Y-45634D01*
X10374Y-45682D01*
X10374Y-45801D01*
X10398Y-45848D01*
X10422Y-45872D01*
X10469Y-45896D01*
X10565Y-45896D01*
X10612Y-45872D01*
X10636Y-45848D01*
X10660Y-45801D01*
X10850Y-45586D02*
X10850Y-45682D01*
X11041Y-45586D02*
X11041Y-45682D01*
X11993Y-45563D02*
X11565Y-46205D01*
X12803Y-46086D02*
X12517Y-46086D01*
X12660Y-46086D02*
X12660Y-45586D01*
X12612Y-45658D01*
X12565Y-45705D01*
X12517Y-45729D01*
X13017Y-46039D02*
X13041Y-46063D01*
X13017Y-46086D01*
X12993Y-46063D01*
X13017Y-46039D01*
X13017Y-46086D01*
X13493Y-45586D02*
X13255Y-45586D01*
X13231Y-45824D01*
X13255Y-45801D01*
X13303Y-45777D01*
X13422Y-45777D01*
X13469Y-45801D01*
X13493Y-45824D01*
X13517Y-45872D01*
X13517Y-45991D01*
X13493Y-46039D01*
X13469Y-46063D01*
X13422Y-46086D01*
X13303Y-46086D01*
X13255Y-46063D01*
X13231Y-46039D01*
X13826Y-45586D02*
X13874Y-45586D01*
X13922Y-45610D01*
X13945Y-45634D01*
X13969Y-45682D01*
X13993Y-45777D01*
X13993Y-45896D01*
X13969Y-45991D01*
X13945Y-46039D01*
X13922Y-46063D01*
X13874Y-46086D01*
X13826Y-46086D01*
X13779Y-46063D01*
X13755Y-46039D01*
X13731Y-45991D01*
X13707Y-45896D01*
X13707Y-45777D01*
X13731Y-45682D01*
X13755Y-45634D01*
X13779Y-45610D01*
X13826Y-45586D01*
X14207Y-46086D02*
X14207Y-45753D01*
X14207Y-45801D02*
X14231Y-45777D01*
X14278Y-45753D01*
X14350Y-45753D01*
X14398Y-45777D01*
X14421Y-45824D01*
X14421Y-46086D01*
X14421Y-45824D02*
X14445Y-45777D01*
X14493Y-45753D01*
X14564Y-45753D01*
X14612Y-45777D01*
X14636Y-45824D01*
X14636Y-46086D01*
X14874Y-46086D02*
X14874Y-45753D01*
X14874Y-45801D02*
X14898Y-45777D01*
X14945Y-45753D01*
X15017Y-45753D01*
X15065Y-45777D01*
X15088Y-45824D01*
X15088Y-46086D01*
X15088Y-45824D02*
X15112Y-45777D01*
X15160Y-45753D01*
X15231Y-45753D01*
X15279Y-45777D01*
X15303Y-45824D01*
X15303Y-46086D01*
X16065Y-46277D02*
X16041Y-46253D01*
X15993Y-46182D01*
X15970Y-46134D01*
X15946Y-46063D01*
X15922Y-45944D01*
X15922Y-45848D01*
X15946Y-45729D01*
X15970Y-45658D01*
X15993Y-45610D01*
X16041Y-45539D01*
X16065Y-45515D01*
X16231Y-45634D02*
X16255Y-45610D01*
X16303Y-45586D01*
X16422Y-45586D01*
X16469Y-45610D01*
X16493Y-45634D01*
X16517Y-45682D01*
X16517Y-45729D01*
X16493Y-45801D01*
X16207Y-46086D01*
X16517Y-46086D01*
X17112Y-46086D02*
X17112Y-45586D01*
X17326Y-46086D02*
X17326Y-45824D01*
X17303Y-45777D01*
X17255Y-45753D01*
X17183Y-45753D01*
X17136Y-45777D01*
X17112Y-45801D01*
X17635Y-46086D02*
X17588Y-46063D01*
X17564Y-46039D01*
X17540Y-45991D01*
X17540Y-45848D01*
X17564Y-45801D01*
X17588Y-45777D01*
X17635Y-45753D01*
X17707Y-45753D01*
X17755Y-45777D01*
X17778Y-45801D01*
X17802Y-45848D01*
X17802Y-45991D01*
X17778Y-46039D01*
X17755Y-46063D01*
X17707Y-46086D01*
X17635Y-46086D01*
X18087Y-46086D02*
X18040Y-46063D01*
X18016Y-46015D01*
X18016Y-45586D01*
X18469Y-46063D02*
X18421Y-46086D01*
X18326Y-46086D01*
X18278Y-46063D01*
X18254Y-46015D01*
X18254Y-45824D01*
X18278Y-45777D01*
X18326Y-45753D01*
X18421Y-45753D01*
X18469Y-45777D01*
X18492Y-45824D01*
X18492Y-45872D01*
X18254Y-45920D01*
X18683Y-46063D02*
X18731Y-46086D01*
X18826Y-46086D01*
X18874Y-46063D01*
X18898Y-46015D01*
X18898Y-45991D01*
X18874Y-45944D01*
X18826Y-45920D01*
X18755Y-45920D01*
X18707Y-45896D01*
X18683Y-45848D01*
X18683Y-45824D01*
X18707Y-45777D01*
X18755Y-45753D01*
X18826Y-45753D01*
X18874Y-45777D01*
X19064Y-46277D02*
X19088Y-46253D01*
X19136Y-46182D01*
X19160Y-46134D01*
X19183Y-46063D01*
X19207Y-45944D01*
X19207Y-45848D01*
X19183Y-45729D01*
X19160Y-45658D01*
X19136Y-45610D01*
X19088Y-45539D01*
X19064Y-45515D01*
G54D10*
X8098Y-47040D02*
X8413Y-46725D01*
X8098Y-46410D01*
X7783Y-46725D01*
X8098Y-47040D01*
G54D12*
X8827Y-46427D02*
X8875Y-46427D01*
X8923Y-46451D01*
X8946Y-46475D01*
X8970Y-46523D01*
X8994Y-46618D01*
X8994Y-46737D01*
X8970Y-46832D01*
X8946Y-46880D01*
X8923Y-46904D01*
X8875Y-46927D01*
X8827Y-46927D01*
X8780Y-46904D01*
X8756Y-46880D01*
X8732Y-46832D01*
X8708Y-46737D01*
X8708Y-46618D01*
X8732Y-46523D01*
X8756Y-46475D01*
X8780Y-46451D01*
X8827Y-46427D01*
X9208Y-46880D02*
X9232Y-46904D01*
X9208Y-46927D01*
X9184Y-46904D01*
X9208Y-46880D01*
X9208Y-46927D01*
X9541Y-46427D02*
X9589Y-46427D01*
X9637Y-46451D01*
X9660Y-46475D01*
X9684Y-46523D01*
X9708Y-46618D01*
X9708Y-46737D01*
X9684Y-46832D01*
X9660Y-46880D01*
X9637Y-46904D01*
X9589Y-46927D01*
X9541Y-46927D01*
X9494Y-46904D01*
X9470Y-46880D01*
X9446Y-46832D01*
X9422Y-46737D01*
X9422Y-46618D01*
X9446Y-46523D01*
X9470Y-46475D01*
X9494Y-46451D01*
X9541Y-46427D01*
X10136Y-46427D02*
X10041Y-46427D01*
X9993Y-46451D01*
X9970Y-46475D01*
X9922Y-46546D01*
X9898Y-46642D01*
X9898Y-46832D01*
X9922Y-46880D01*
X9946Y-46904D01*
X9993Y-46927D01*
X10089Y-46927D01*
X10136Y-46904D01*
X10160Y-46880D01*
X10184Y-46832D01*
X10184Y-46713D01*
X10160Y-46665D01*
X10136Y-46642D01*
X10089Y-46618D01*
X9993Y-46618D01*
X9946Y-46642D01*
X9922Y-46665D01*
X9898Y-46713D01*
X10350Y-46427D02*
X10660Y-46427D01*
X10493Y-46618D01*
X10565Y-46618D01*
X10612Y-46642D01*
X10636Y-46665D01*
X10660Y-46713D01*
X10660Y-46832D01*
X10636Y-46880D01*
X10612Y-46904D01*
X10565Y-46927D01*
X10422Y-46927D01*
X10374Y-46904D01*
X10350Y-46880D01*
X10850Y-46427D02*
X10850Y-46523D01*
X11041Y-46427D02*
X11041Y-46523D01*
X11993Y-46404D02*
X11565Y-47046D01*
X12803Y-46927D02*
X12517Y-46927D01*
X12660Y-46927D02*
X12660Y-46427D01*
X12612Y-46499D01*
X12565Y-46546D01*
X12517Y-46570D01*
X13017Y-46880D02*
X13041Y-46904D01*
X13017Y-46927D01*
X12993Y-46904D01*
X13017Y-46880D01*
X13017Y-46927D01*
X13469Y-46427D02*
X13374Y-46427D01*
X13326Y-46451D01*
X13303Y-46475D01*
X13255Y-46546D01*
X13231Y-46642D01*
X13231Y-46832D01*
X13255Y-46880D01*
X13279Y-46904D01*
X13326Y-46927D01*
X13422Y-46927D01*
X13469Y-46904D01*
X13493Y-46880D01*
X13517Y-46832D01*
X13517Y-46713D01*
X13493Y-46665D01*
X13469Y-46642D01*
X13422Y-46618D01*
X13326Y-46618D01*
X13279Y-46642D01*
X13255Y-46665D01*
X13231Y-46713D01*
X13826Y-46427D02*
X13874Y-46427D01*
X13922Y-46451D01*
X13945Y-46475D01*
X13969Y-46523D01*
X13993Y-46618D01*
X13993Y-46737D01*
X13969Y-46832D01*
X13945Y-46880D01*
X13922Y-46904D01*
X13874Y-46927D01*
X13826Y-46927D01*
X13779Y-46904D01*
X13755Y-46880D01*
X13731Y-46832D01*
X13707Y-46737D01*
X13707Y-46618D01*
X13731Y-46523D01*
X13755Y-46475D01*
X13779Y-46451D01*
X13826Y-46427D01*
X14207Y-46927D02*
X14207Y-46594D01*
X14207Y-46642D02*
X14231Y-46618D01*
X14278Y-46594D01*
X14350Y-46594D01*
X14398Y-46618D01*
X14421Y-46665D01*
X14421Y-46927D01*
X14421Y-46665D02*
X14445Y-46618D01*
X14493Y-46594D01*
X14564Y-46594D01*
X14612Y-46618D01*
X14636Y-46665D01*
X14636Y-46927D01*
X14874Y-46927D02*
X14874Y-46594D01*
X14874Y-46642D02*
X14898Y-46618D01*
X14945Y-46594D01*
X15017Y-46594D01*
X15065Y-46618D01*
X15088Y-46665D01*
X15088Y-46927D01*
X15088Y-46665D02*
X15112Y-46618D01*
X15160Y-46594D01*
X15231Y-46594D01*
X15279Y-46618D01*
X15303Y-46665D01*
X15303Y-46927D01*
X16065Y-47118D02*
X16041Y-47094D01*
X15993Y-47023D01*
X15970Y-46975D01*
X15946Y-46904D01*
X15922Y-46785D01*
X15922Y-46689D01*
X15946Y-46570D01*
X15970Y-46499D01*
X15993Y-46451D01*
X16041Y-46380D01*
X16065Y-46356D01*
X16469Y-46594D02*
X16469Y-46927D01*
X16350Y-46404D02*
X16231Y-46761D01*
X16541Y-46761D01*
X17112Y-46927D02*
X17112Y-46427D01*
X17326Y-46927D02*
X17326Y-46665D01*
X17303Y-46618D01*
X17255Y-46594D01*
X17183Y-46594D01*
X17136Y-46618D01*
X17112Y-46642D01*
X17635Y-46927D02*
X17588Y-46904D01*
X17564Y-46880D01*
X17540Y-46832D01*
X17540Y-46689D01*
X17564Y-46642D01*
X17588Y-46618D01*
X17635Y-46594D01*
X17707Y-46594D01*
X17755Y-46618D01*
X17778Y-46642D01*
X17802Y-46689D01*
X17802Y-46832D01*
X17778Y-46880D01*
X17755Y-46904D01*
X17707Y-46927D01*
X17635Y-46927D01*
X18087Y-46927D02*
X18040Y-46904D01*
X18016Y-46856D01*
X18016Y-46427D01*
X18469Y-46904D02*
X18421Y-46927D01*
X18326Y-46927D01*
X18278Y-46904D01*
X18254Y-46856D01*
X18254Y-46665D01*
X18278Y-46618D01*
X18326Y-46594D01*
X18421Y-46594D01*
X18469Y-46618D01*
X18492Y-46665D01*
X18492Y-46713D01*
X18254Y-46761D01*
X18683Y-46904D02*
X18731Y-46927D01*
X18826Y-46927D01*
X18874Y-46904D01*
X18898Y-46856D01*
X18898Y-46832D01*
X18874Y-46785D01*
X18826Y-46761D01*
X18755Y-46761D01*
X18707Y-46737D01*
X18683Y-46689D01*
X18683Y-46665D01*
X18707Y-46618D01*
X18755Y-46594D01*
X18826Y-46594D01*
X18874Y-46618D01*
X19064Y-47118D02*
X19088Y-47094D01*
X19136Y-47023D01*
X19160Y-46975D01*
X19183Y-46904D01*
X19207Y-46785D01*
X19207Y-46689D01*
X19183Y-46570D01*
X19160Y-46499D01*
X19136Y-46451D01*
X19088Y-46380D01*
X19064Y-46356D01*
M02*
