G04 (created by PCBNEW-RS274X (2011-nov-30)-testing) date Mon 06 Aug 2012 03:20:33 PM CEST*
%MOIN*%
G04 Gerber Fmt 3.4, Leading zero omitted, Abs format*
%FSLAX34Y34*%
G01*
G70*
G90*
G04 APERTURE LIST*
%ADD10C,0.006*%
%ADD11C,0.012*%
%ADD12C,0.015*%
%ADD13C,0.01*%
%ADD14C,0.008*%
G04 APERTURE END LIST*
G54D10*
G54D11*
X19291Y-40583D02*
X19291Y-40183D01*
X19291Y-40183D02*
X18891Y-40183D01*
X18891Y-40183D02*
X18891Y-36983D01*
X18891Y-36983D02*
X19691Y-36983D01*
X19691Y-36983D02*
X19691Y-40183D01*
X19691Y-40183D02*
X19291Y-40183D01*
X19091Y-40183D02*
X18891Y-39983D01*
X19291Y-36583D02*
X19291Y-36983D01*
X22154Y-23909D02*
X22154Y-24909D01*
X23154Y-24909D02*
X20154Y-24909D01*
X20154Y-24909D02*
X20154Y-23909D01*
X20154Y-23909D02*
X23154Y-23909D01*
X23154Y-23909D02*
X23154Y-24909D01*
G54D12*
X19488Y-35236D02*
X19488Y-23819D01*
X19488Y-23819D02*
X14567Y-23819D01*
X14567Y-23819D02*
X14567Y-35236D01*
X14567Y-35236D02*
X19488Y-35236D01*
G54D11*
X11917Y-35508D02*
X11917Y-38508D01*
X11917Y-38508D02*
X10917Y-38508D01*
X10917Y-38508D02*
X10917Y-35508D01*
X10917Y-35508D02*
X11917Y-35508D01*
X11917Y-38258D02*
X10917Y-38258D01*
X10917Y-38008D02*
X11917Y-38008D01*
X11417Y-35508D02*
X11417Y-35008D01*
X11417Y-38508D02*
X11417Y-39008D01*
G54D13*
X24397Y-27334D02*
X25997Y-27334D01*
X25997Y-27334D02*
X25847Y-27384D01*
X25847Y-27384D02*
X24547Y-27384D01*
X24547Y-27384D02*
X24397Y-27334D01*
X26797Y-25984D02*
G75*
G03X26797Y-25984I-1600J0D01*
G74*
G01*
X24847Y-27134D02*
X24497Y-27134D01*
X24797Y-27534D02*
X25597Y-27534D01*
X25597Y-27484D02*
X24797Y-27484D01*
X25797Y-27434D02*
X24597Y-27434D01*
X14554Y-35839D02*
X16154Y-35839D01*
X16504Y-35939D02*
X14254Y-35939D01*
X14254Y-35939D02*
X14604Y-35939D01*
X15904Y-35689D02*
X14854Y-35689D01*
X14504Y-35789D02*
X16204Y-35789D01*
X16454Y-35889D02*
X14254Y-35889D01*
X14254Y-35889D02*
X14304Y-35889D01*
X16754Y-35989D02*
X13954Y-35989D01*
X13954Y-35989D02*
X15004Y-35639D01*
X15004Y-35639D02*
X15704Y-35639D01*
X15704Y-35639D02*
X16704Y-35989D01*
X16704Y-35989D02*
X16554Y-35939D01*
X17954Y-38189D02*
G75*
G03X17954Y-38189I-2600J0D01*
G74*
G01*
X15904Y-36239D02*
X16254Y-36239D01*
G54D12*
X13976Y-27559D02*
X10039Y-27559D01*
X10039Y-27559D02*
X10039Y-31103D01*
X10039Y-31103D02*
X13976Y-31103D01*
X13976Y-31103D02*
X13976Y-27559D01*
X25591Y-39764D02*
X27953Y-39764D01*
X27953Y-39764D02*
X27953Y-28347D01*
X27953Y-28347D02*
X25591Y-28347D01*
X25591Y-28347D02*
X25591Y-39764D01*
X21866Y-40646D02*
X23866Y-40646D01*
X23866Y-40646D02*
X23866Y-27646D01*
X23866Y-27646D02*
X21866Y-27646D01*
X21866Y-27646D02*
X21866Y-40646D01*
X10532Y-31988D02*
X13485Y-31988D01*
X13485Y-31988D02*
X13485Y-33268D01*
X13485Y-33268D02*
X10532Y-33268D01*
X10532Y-33268D02*
X10532Y-31988D01*
G54D14*
X19514Y-38666D02*
X19252Y-38833D01*
X19514Y-38952D02*
X18964Y-38952D01*
X18964Y-38761D01*
X18990Y-38714D01*
X19016Y-38690D01*
X19068Y-38666D01*
X19147Y-38666D01*
X19199Y-38690D01*
X19226Y-38714D01*
X19252Y-38761D01*
X19252Y-38952D01*
X19514Y-38190D02*
X19514Y-38476D01*
X19514Y-38333D02*
X18964Y-38333D01*
X19042Y-38381D01*
X19095Y-38428D01*
X19121Y-38476D01*
X21359Y-25421D02*
X21359Y-25021D01*
X21588Y-25421D02*
X21416Y-25192D01*
X21588Y-25021D02*
X21359Y-25249D01*
X21969Y-25421D02*
X21740Y-25421D01*
X21854Y-25421D02*
X21854Y-25021D01*
X21816Y-25078D01*
X21778Y-25116D01*
X21740Y-25135D01*
G54D11*
X16572Y-31166D02*
X17058Y-31166D01*
X17115Y-31138D01*
X17143Y-31109D01*
X17172Y-31052D01*
X17172Y-30938D01*
X17143Y-30880D01*
X17115Y-30852D01*
X17058Y-30823D01*
X16572Y-30823D01*
X16629Y-30566D02*
X16600Y-30537D01*
X16572Y-30480D01*
X16572Y-30337D01*
X16600Y-30280D01*
X16629Y-30251D01*
X16686Y-30223D01*
X16743Y-30223D01*
X16829Y-30251D01*
X17172Y-30594D01*
X17172Y-30223D01*
X15222Y-33313D02*
X15194Y-33370D01*
X15194Y-33456D01*
X15222Y-33541D01*
X15280Y-33599D01*
X15337Y-33627D01*
X15451Y-33656D01*
X15537Y-33656D01*
X15651Y-33627D01*
X15708Y-33599D01*
X15765Y-33541D01*
X15794Y-33456D01*
X15794Y-33399D01*
X15765Y-33313D01*
X15737Y-33284D01*
X15537Y-33284D01*
X15537Y-33399D01*
X15251Y-33056D02*
X15222Y-33027D01*
X15194Y-32970D01*
X15194Y-32827D01*
X15222Y-32770D01*
X15251Y-32741D01*
X15308Y-32713D01*
X15365Y-32713D01*
X15451Y-32741D01*
X15794Y-33084D01*
X15794Y-32713D01*
X15794Y-32113D02*
X15508Y-32313D01*
X15794Y-32456D02*
X15194Y-32456D01*
X15194Y-32228D01*
X15222Y-32170D01*
X15251Y-32142D01*
X15308Y-32113D01*
X15394Y-32113D01*
X15451Y-32142D01*
X15480Y-32170D01*
X15508Y-32228D01*
X15508Y-32456D01*
X15794Y-31570D02*
X15794Y-31856D01*
X15194Y-31856D01*
X15565Y-31370D02*
X15565Y-30913D01*
X15794Y-30313D02*
X15794Y-30656D01*
X15794Y-30484D02*
X15194Y-30484D01*
X15280Y-30541D01*
X15337Y-30599D01*
X15365Y-30656D01*
X15565Y-30056D02*
X15565Y-29599D01*
X15794Y-29313D02*
X15194Y-29313D01*
X15480Y-29313D02*
X15480Y-28970D01*
X15794Y-28970D02*
X15194Y-28970D01*
G54D14*
X11619Y-37303D02*
X11119Y-37303D01*
X11119Y-37208D01*
X11143Y-37150D01*
X11191Y-37112D01*
X11238Y-37093D01*
X11334Y-37074D01*
X11405Y-37074D01*
X11500Y-37093D01*
X11548Y-37112D01*
X11596Y-37150D01*
X11619Y-37208D01*
X11619Y-37303D01*
X11619Y-36693D02*
X11619Y-36922D01*
X11619Y-36808D02*
X11119Y-36808D01*
X11191Y-36846D01*
X11238Y-36884D01*
X11262Y-36922D01*
G54D11*
X25098Y-28170D02*
X25069Y-28198D01*
X24983Y-28227D01*
X24926Y-28227D01*
X24841Y-28198D01*
X24783Y-28141D01*
X24755Y-28084D01*
X24726Y-27970D01*
X24726Y-27884D01*
X24755Y-27770D01*
X24783Y-27713D01*
X24841Y-27655D01*
X24926Y-27627D01*
X24983Y-27627D01*
X25069Y-27655D01*
X25098Y-27684D01*
X25298Y-27627D02*
X25669Y-27627D01*
X25469Y-27855D01*
X25555Y-27855D01*
X25612Y-27884D01*
X25641Y-27913D01*
X25669Y-27970D01*
X25669Y-28113D01*
X25641Y-28170D01*
X25612Y-28198D01*
X25555Y-28227D01*
X25383Y-28227D01*
X25326Y-28198D01*
X25298Y-28170D01*
X24526Y-24227D02*
X24183Y-24227D01*
X24355Y-24227D02*
X24355Y-23627D01*
X24298Y-23713D01*
X24240Y-23770D01*
X24183Y-23798D01*
X24897Y-23627D02*
X24954Y-23627D01*
X25011Y-23655D01*
X25040Y-23684D01*
X25069Y-23741D01*
X25097Y-23855D01*
X25097Y-23998D01*
X25069Y-24113D01*
X25040Y-24170D01*
X25011Y-24198D01*
X24954Y-24227D01*
X24897Y-24227D01*
X24840Y-24198D01*
X24811Y-24170D01*
X24783Y-24113D01*
X24754Y-23998D01*
X24754Y-23855D01*
X24783Y-23741D01*
X24811Y-23684D01*
X24840Y-23655D01*
X24897Y-23627D01*
X25468Y-23627D02*
X25525Y-23627D01*
X25582Y-23655D01*
X25611Y-23684D01*
X25640Y-23741D01*
X25668Y-23855D01*
X25668Y-23998D01*
X25640Y-24113D01*
X25611Y-24170D01*
X25582Y-24198D01*
X25525Y-24227D01*
X25468Y-24227D01*
X25411Y-24198D01*
X25382Y-24170D01*
X25354Y-24113D01*
X25325Y-23998D01*
X25325Y-23855D01*
X25354Y-23741D01*
X25382Y-23684D01*
X25411Y-23655D01*
X25468Y-23627D01*
X26182Y-23827D02*
X26182Y-24227D01*
X25925Y-23827D02*
X25925Y-24141D01*
X25953Y-24198D01*
X26011Y-24227D01*
X26096Y-24227D01*
X26153Y-24198D01*
X26182Y-24170D01*
X14074Y-38375D02*
X14045Y-38403D01*
X13959Y-38432D01*
X13902Y-38432D01*
X13817Y-38403D01*
X13759Y-38346D01*
X13731Y-38289D01*
X13702Y-38175D01*
X13702Y-38089D01*
X13731Y-37975D01*
X13759Y-37918D01*
X13817Y-37860D01*
X13902Y-37832D01*
X13959Y-37832D01*
X14045Y-37860D01*
X14074Y-37889D01*
X14645Y-38432D02*
X14302Y-38432D01*
X14474Y-38432D02*
X14474Y-37832D01*
X14417Y-37918D01*
X14359Y-37975D01*
X14302Y-38003D01*
X16544Y-38432D02*
X16201Y-38432D01*
X16373Y-38432D02*
X16373Y-37832D01*
X16316Y-37918D01*
X16258Y-37975D01*
X16201Y-38003D01*
X16915Y-37832D02*
X16972Y-37832D01*
X17029Y-37860D01*
X17058Y-37889D01*
X17087Y-37946D01*
X17115Y-38060D01*
X17115Y-38203D01*
X17087Y-38318D01*
X17058Y-38375D01*
X17029Y-38403D01*
X16972Y-38432D01*
X16915Y-38432D01*
X16858Y-38403D01*
X16829Y-38375D01*
X16801Y-38318D01*
X16772Y-38203D01*
X16772Y-38060D01*
X16801Y-37946D01*
X16829Y-37889D01*
X16858Y-37860D01*
X16915Y-37832D01*
X17629Y-38032D02*
X17629Y-38432D01*
X17372Y-38032D02*
X17372Y-38346D01*
X17400Y-38403D01*
X17458Y-38432D01*
X17543Y-38432D01*
X17600Y-38403D01*
X17629Y-38375D01*
X11763Y-30558D02*
X11763Y-29958D01*
X11991Y-29958D01*
X12049Y-29986D01*
X12077Y-30015D01*
X12106Y-30072D01*
X12106Y-30158D01*
X12077Y-30215D01*
X12049Y-30244D01*
X11991Y-30272D01*
X11763Y-30272D01*
X12334Y-30015D02*
X12363Y-29986D01*
X12420Y-29958D01*
X12563Y-29958D01*
X12620Y-29986D01*
X12649Y-30015D01*
X12677Y-30072D01*
X12677Y-30129D01*
X12649Y-30215D01*
X12306Y-30558D01*
X12677Y-30558D01*
X10933Y-28139D02*
X10904Y-28167D01*
X10818Y-28196D01*
X10761Y-28196D01*
X10676Y-28167D01*
X10618Y-28110D01*
X10590Y-28053D01*
X10561Y-27939D01*
X10561Y-27853D01*
X10590Y-27739D01*
X10618Y-27682D01*
X10676Y-27624D01*
X10761Y-27596D01*
X10818Y-27596D01*
X10904Y-27624D01*
X10933Y-27653D01*
X11304Y-27596D02*
X11418Y-27596D01*
X11476Y-27624D01*
X11533Y-27682D01*
X11561Y-27796D01*
X11561Y-27996D01*
X11533Y-28110D01*
X11476Y-28167D01*
X11418Y-28196D01*
X11304Y-28196D01*
X11247Y-28167D01*
X11190Y-28110D01*
X11161Y-27996D01*
X11161Y-27796D01*
X11190Y-27682D01*
X11247Y-27624D01*
X11304Y-27596D01*
X11819Y-28196D02*
X11819Y-27596D01*
X12162Y-28196D01*
X12162Y-27596D01*
X12448Y-28196D02*
X12448Y-27596D01*
X12791Y-28196D01*
X12791Y-27596D01*
X12934Y-28253D02*
X13391Y-28253D01*
X13505Y-27653D02*
X13534Y-27624D01*
X13591Y-27596D01*
X13734Y-27596D01*
X13791Y-27624D01*
X13820Y-27653D01*
X13848Y-27710D01*
X13848Y-27767D01*
X13820Y-27853D01*
X13477Y-28196D01*
X13848Y-28196D01*
X26958Y-34154D02*
X26986Y-34183D01*
X27015Y-34269D01*
X27015Y-34326D01*
X26986Y-34411D01*
X26929Y-34469D01*
X26872Y-34497D01*
X26758Y-34526D01*
X26672Y-34526D01*
X26558Y-34497D01*
X26501Y-34469D01*
X26443Y-34411D01*
X26415Y-34326D01*
X26415Y-34269D01*
X26443Y-34183D01*
X26472Y-34154D01*
X26472Y-33926D02*
X26443Y-33897D01*
X26415Y-33840D01*
X26415Y-33697D01*
X26443Y-33640D01*
X26472Y-33611D01*
X26529Y-33583D01*
X26586Y-33583D01*
X26672Y-33611D01*
X27015Y-33954D01*
X27015Y-33583D01*
X26021Y-37342D02*
X26021Y-37285D01*
X26049Y-37228D01*
X26078Y-37199D01*
X26135Y-37170D01*
X26249Y-37142D01*
X26392Y-37142D01*
X26507Y-37170D01*
X26564Y-37199D01*
X26592Y-37228D01*
X26621Y-37285D01*
X26621Y-37342D01*
X26592Y-37399D01*
X26564Y-37428D01*
X26507Y-37456D01*
X26392Y-37485D01*
X26249Y-37485D01*
X26135Y-37456D01*
X26078Y-37428D01*
X26049Y-37399D01*
X26021Y-37342D01*
X26564Y-36885D02*
X26592Y-36857D01*
X26621Y-36885D01*
X26592Y-36914D01*
X26564Y-36885D01*
X26621Y-36885D01*
X26621Y-36285D02*
X26621Y-36628D01*
X26621Y-36456D02*
X26021Y-36456D01*
X26107Y-36513D01*
X26164Y-36571D01*
X26192Y-36628D01*
X26221Y-35771D02*
X26621Y-35771D01*
X26221Y-36028D02*
X26535Y-36028D01*
X26592Y-36000D01*
X26621Y-35942D01*
X26621Y-35857D01*
X26592Y-35800D01*
X26564Y-35771D01*
X22872Y-40221D02*
X23358Y-40221D01*
X23415Y-40193D01*
X23443Y-40164D01*
X23472Y-40107D01*
X23472Y-39993D01*
X23443Y-39935D01*
X23415Y-39907D01*
X23358Y-39878D01*
X22872Y-39878D01*
X23472Y-39278D02*
X23472Y-39621D01*
X23472Y-39449D02*
X22872Y-39449D01*
X22958Y-39506D01*
X23015Y-39564D01*
X23043Y-39621D01*
X21189Y-40130D02*
X21217Y-40044D01*
X21246Y-40016D01*
X21303Y-39987D01*
X21389Y-39987D01*
X21446Y-40016D01*
X21474Y-40044D01*
X21503Y-40102D01*
X21503Y-40330D01*
X20903Y-40330D01*
X20903Y-40130D01*
X20931Y-40073D01*
X20960Y-40044D01*
X21017Y-40016D01*
X21074Y-40016D01*
X21131Y-40044D01*
X21160Y-40073D01*
X21189Y-40130D01*
X21189Y-40330D01*
X21503Y-39730D02*
X20903Y-39730D01*
X20903Y-39502D01*
X20931Y-39444D01*
X20960Y-39416D01*
X21017Y-39387D01*
X21103Y-39387D01*
X21160Y-39416D01*
X21189Y-39444D01*
X21217Y-39502D01*
X21217Y-39730D01*
X20903Y-38844D02*
X20903Y-39130D01*
X21189Y-39159D01*
X21160Y-39130D01*
X21131Y-39073D01*
X21131Y-38930D01*
X21160Y-38873D01*
X21189Y-38844D01*
X21246Y-38816D01*
X21389Y-38816D01*
X21446Y-38844D01*
X21474Y-38873D01*
X21503Y-38930D01*
X21503Y-39073D01*
X21474Y-39130D01*
X21446Y-39159D01*
X20903Y-38445D02*
X20903Y-38388D01*
X20931Y-38331D01*
X20960Y-38302D01*
X21017Y-38273D01*
X21131Y-38245D01*
X21274Y-38245D01*
X21389Y-38273D01*
X21446Y-38302D01*
X21474Y-38331D01*
X21503Y-38388D01*
X21503Y-38445D01*
X21474Y-38502D01*
X21446Y-38531D01*
X21389Y-38559D01*
X21274Y-38588D01*
X21131Y-38588D01*
X21017Y-38559D01*
X20960Y-38531D01*
X20931Y-38502D01*
X20903Y-38445D01*
X21103Y-37731D02*
X21503Y-37731D01*
X20874Y-37874D02*
X21303Y-38017D01*
X21303Y-37645D01*
X21503Y-37103D02*
X21503Y-37446D01*
X21503Y-37274D02*
X20903Y-37274D01*
X20989Y-37331D01*
X21046Y-37389D01*
X21074Y-37446D01*
X21331Y-36875D02*
X21331Y-36589D01*
X21503Y-36932D02*
X20903Y-36732D01*
X21503Y-36532D01*
X20903Y-36046D02*
X20903Y-36332D01*
X21189Y-36361D01*
X21160Y-36332D01*
X21131Y-36275D01*
X21131Y-36132D01*
X21160Y-36075D01*
X21189Y-36046D01*
X21246Y-36018D01*
X21389Y-36018D01*
X21446Y-36046D01*
X21474Y-36075D01*
X21503Y-36132D01*
X21503Y-36275D01*
X21474Y-36332D01*
X21446Y-36361D01*
X11763Y-31739D02*
X11763Y-31139D01*
X11991Y-31139D01*
X12049Y-31167D01*
X12077Y-31196D01*
X12106Y-31253D01*
X12106Y-31339D01*
X12077Y-31396D01*
X12049Y-31425D01*
X11991Y-31453D01*
X11763Y-31453D01*
X12677Y-31739D02*
X12334Y-31739D01*
X12506Y-31739D02*
X12506Y-31139D01*
X12449Y-31225D01*
X12391Y-31282D01*
X12334Y-31310D01*
X10934Y-34044D02*
X10905Y-34072D01*
X10819Y-34101D01*
X10762Y-34101D01*
X10677Y-34072D01*
X10619Y-34015D01*
X10591Y-33958D01*
X10562Y-33844D01*
X10562Y-33758D01*
X10591Y-33644D01*
X10619Y-33587D01*
X10677Y-33529D01*
X10762Y-33501D01*
X10819Y-33501D01*
X10905Y-33529D01*
X10934Y-33558D01*
X11305Y-33501D02*
X11419Y-33501D01*
X11477Y-33529D01*
X11534Y-33587D01*
X11562Y-33701D01*
X11562Y-33901D01*
X11534Y-34015D01*
X11477Y-34072D01*
X11419Y-34101D01*
X11305Y-34101D01*
X11248Y-34072D01*
X11191Y-34015D01*
X11162Y-33901D01*
X11162Y-33701D01*
X11191Y-33587D01*
X11248Y-33529D01*
X11305Y-33501D01*
X11820Y-34101D02*
X11820Y-33501D01*
X12163Y-34101D01*
X12163Y-33501D01*
X12449Y-34101D02*
X12449Y-33501D01*
X12792Y-34101D01*
X12792Y-33501D01*
X12935Y-34158D02*
X13392Y-34158D01*
X13506Y-33558D02*
X13535Y-33529D01*
X13592Y-33501D01*
X13735Y-33501D01*
X13792Y-33529D01*
X13821Y-33558D01*
X13849Y-33615D01*
X13849Y-33672D01*
X13821Y-33758D01*
X13478Y-34101D01*
X13849Y-34101D01*
M02*
