G04 (created by PCBNEW-RS274X (2011-nov-30)-testing) date Mon 13 Aug 2012 02:38:31 PM CEST*
%MOIN*%
G04 Gerber Fmt 3.4, Leading zero omitted, Abs format*
%FSLAX34Y34*%
G01*
G70*
G90*
G04 APERTURE LIST*
%ADD10C,0.006*%
%ADD11C,0.06*%
%ADD12R,0.06X0.0866*%
%ADD13O,0.06X0.0866*%
%ADD14C,0.126*%
%ADD15C,0.1024*%
%ADD16C,0.1378*%
%ADD17C,0.07*%
%ADD18R,0.07X0.07*%
%ADD19R,0.0787X0.0787*%
%ADD20C,0.0787*%
%ADD21C,0.1181*%
%ADD22C,0.0669*%
%ADD23O,0.0866X0.06*%
%ADD24C,0.0236*%
%ADD25C,0.01*%
G04 APERTURE END LIST*
G54D10*
G54D11*
X19291Y-40583D03*
X19291Y-36583D03*
G54D12*
X22654Y-24803D03*
G54D13*
X21654Y-24803D03*
X20654Y-24803D03*
G54D14*
X10630Y-40945D03*
X27559Y-40945D03*
G54D15*
X18504Y-34252D03*
G54D16*
X18504Y-27756D03*
X18504Y-25000D03*
X15551Y-26378D03*
G54D15*
X15551Y-34252D03*
G54D17*
X11417Y-35008D03*
G54D18*
X11417Y-39008D03*
G54D19*
X25197Y-25234D03*
G54D20*
X25197Y-26734D03*
G54D19*
X15364Y-39189D03*
G54D20*
X15354Y-37189D03*
G54D21*
X12992Y-29134D03*
X11023Y-29134D03*
G54D22*
X26772Y-38583D03*
X26772Y-29725D03*
G54D23*
X22866Y-29646D03*
X22866Y-31646D03*
X22866Y-33646D03*
X22866Y-35646D03*
X22866Y-38646D03*
G54D14*
X27559Y-24409D03*
X10630Y-24409D03*
G54D12*
X11024Y-32677D03*
G54D13*
X13024Y-32677D03*
G54D24*
X11024Y-34615D02*
X11024Y-32677D01*
X11417Y-35008D02*
X11024Y-34615D01*
X10577Y-31440D02*
X11024Y-31887D01*
X10577Y-28797D02*
X10577Y-31440D01*
X11024Y-32677D02*
X11024Y-31887D01*
X15354Y-36727D02*
X15354Y-37189D01*
X13024Y-34397D02*
X15354Y-36727D01*
X13024Y-32677D02*
X13024Y-34397D01*
X25948Y-25983D02*
X25197Y-26734D01*
X25948Y-24378D02*
X25948Y-25983D01*
X25583Y-24013D02*
X25948Y-24378D01*
X21654Y-24013D02*
X25583Y-24013D01*
X21654Y-24803D02*
X21654Y-24013D01*
X20716Y-33646D02*
X22866Y-33646D01*
X17635Y-36727D02*
X20716Y-33646D01*
X15354Y-36727D02*
X17635Y-36727D01*
X22866Y-33646D02*
X22866Y-32989D01*
X26772Y-29725D02*
X25197Y-29725D01*
X25197Y-30658D02*
X25197Y-29725D01*
X22866Y-32989D02*
X25197Y-30658D01*
X25197Y-29725D02*
X25197Y-26734D01*
X22866Y-29646D02*
X22866Y-28989D01*
X22866Y-28989D02*
X22866Y-25234D01*
X25197Y-25234D02*
X22866Y-25234D01*
X22654Y-25022D02*
X22654Y-24803D01*
X22866Y-25234D02*
X22654Y-25022D01*
X22453Y-30303D02*
X22866Y-30303D01*
X18504Y-34252D02*
X22453Y-30303D01*
X22866Y-29646D02*
X22866Y-30303D01*
X20654Y-31163D02*
X20654Y-24803D01*
X18762Y-33055D02*
X20654Y-31163D01*
X16748Y-33055D02*
X18762Y-33055D01*
X15551Y-34252D02*
X16748Y-33055D01*
X21354Y-38646D02*
X19291Y-36583D01*
X22866Y-38646D02*
X21354Y-38646D01*
X23719Y-38583D02*
X23656Y-38646D01*
X26772Y-38583D02*
X23719Y-38583D01*
X22866Y-38646D02*
X23656Y-38646D01*
X11417Y-39008D02*
X12124Y-39008D01*
X12305Y-39189D02*
X15364Y-39189D01*
X12124Y-39008D02*
X12305Y-39189D01*
X17897Y-39189D02*
X19291Y-40583D01*
X15364Y-39189D02*
X17897Y-39189D01*
G54D10*
G36*
X19232Y-27577D02*
X18265Y-30479D01*
X16718Y-31446D01*
X14392Y-31446D01*
X12642Y-29502D01*
X12459Y-28951D01*
X12816Y-28593D01*
X15960Y-28593D01*
X18135Y-27209D01*
X18499Y-27027D01*
X19232Y-27577D01*
X19232Y-27577D01*
G37*
G54D25*
X19232Y-27577D02*
X18265Y-30479D01*
X16718Y-31446D01*
X14392Y-31446D01*
X12642Y-29502D01*
X12459Y-28951D01*
X12816Y-28593D01*
X15960Y-28593D01*
X18135Y-27209D01*
X18499Y-27027D01*
X19232Y-27577D01*
G54D10*
G36*
X16092Y-26745D02*
X15536Y-27115D01*
X12381Y-27115D01*
X11564Y-27932D01*
X11564Y-29109D01*
X10825Y-29663D01*
X9774Y-28962D01*
X9774Y-25730D01*
X9864Y-25641D01*
X11248Y-25641D01*
X11839Y-24656D01*
X14938Y-24656D01*
X16092Y-26002D01*
X16092Y-26745D01*
X16092Y-26745D01*
G37*
G54D25*
X16092Y-26745D02*
X15536Y-27115D01*
X12381Y-27115D01*
X11564Y-27932D01*
X11564Y-29109D01*
X10825Y-29663D01*
X9774Y-28962D01*
X9774Y-25730D01*
X9864Y-25641D01*
X11248Y-25641D01*
X11839Y-24656D01*
X14938Y-24656D01*
X16092Y-26002D01*
X16092Y-26745D01*
M02*
