M48
;DRILL file {Pcbnew (2011-nov-30)-testing} date Mon 13 Aug 2012 02:39:05 PM CEST
;FORMAT={-:-/ absolute / inch / decimal}
FMAT,2
INCH,TZ
T1C0.032
T2C0.039
T3C0.051
T4C0.059
T5C0.063
%
G90
G05
M72
T1
X1.9291Y-3.6583
X1.9291Y-4.0583
X2.5197Y-2.5234
X2.5197Y-2.6734
T2
X1.1024Y-3.2677
X1.1417Y-3.5008
X1.1417Y-3.9008
X1.3024Y-3.2677
X1.5354Y-3.7189
X1.5364Y-3.9189
X2.0654Y-2.4803
X2.1654Y-2.4803
X2.2654Y-2.4803
X2.2866Y-2.9646
X2.2866Y-3.1646
X2.2866Y-3.3646
X2.2866Y-3.5646
X2.2866Y-3.8646
X2.6772Y-2.9725
X2.6772Y-3.8583
T3
X1.5551Y-2.6378
X1.5551Y-3.4252
X1.8504Y-2.5
X1.8504Y-2.7756
X1.8504Y-3.4252
T4
X1.1023Y-2.9134
X1.2992Y-2.9134
T5
X1.063Y-2.4409
X1.063Y-4.0945
X2.7559Y-2.4409
X2.7559Y-4.0945
T0
M30
