M48
;DRILL file {pcbnew (2014-04-07 BZR 4791)-product} date Mon 12 May 2014 02:29:31 PM CEST
;FORMAT={-:-/ absolute / inch / decimal}
FMAT,2
INCH,TZ
T1C0.024
T2C0.040
T3C0.079
%
G90
G05
M72
T1
X5.546Y-3.0581
X5.5928Y-3.4005
X5.6264Y-3.503
X5.6326Y-3.0474
X5.6333Y-3.1132
X5.6721Y-3.2872
X5.744Y-3.6295
X5.7442Y-2.7719
X5.7639Y-3.3641
X5.8159Y-3.7192
X5.8281Y-3.1244
X5.8303Y-3.0481
X5.8468Y-2.9303
X5.8644Y-3.0823
X5.8669Y-3.517
X5.8821Y-2.9963
X5.9181Y-3.2922
X5.9288Y-2.9379
X5.9303Y-2.8271
X5.9558Y-3.5547
X6.0262Y-3.1213
X6.0555Y-3.4836
X6.076Y-3.2932
X6.108Y-3.4667
X6.2438Y-3.6778
T2
X5.25Y-3.425
X5.25Y-3.525
X5.25Y-3.775
X5.25Y-3.875
X5.275Y-3.05
X5.3937Y-2.9528
X5.498Y-2.6378
X5.525Y-4.075
X5.598Y-2.6378
X5.625Y-4.075
X5.698Y-2.6378
X5.725Y-4.075
X5.798Y-2.6378
X5.825Y-4.075
X5.898Y-2.6378
X5.998Y-2.6378
X6.125Y-2.625
X6.225Y-2.625
X6.225Y-2.85
X6.225Y-2.95
X6.325Y-2.85
X6.325Y-2.95
X6.425Y-3.175
X6.425Y-3.275
T3
X5.315Y-2.6772
X5.315Y-4.0551
X6.4173Y-2.6772
X6.4173Y-4.0551
T0
M30
