%FSLAX34Y34*%
G04 Gerber Fmt 3.4, Leading zero omitted, Abs format*
G04 (created by PCBNEW (2014-04-07 BZR 4791)-product) date Tue 13 May 2014 10:41:45 AM CEST*
%MOIN*%
G01*
G70*
G90*
G04 APERTURE LIST*
%ADD10C,0.005906*%
%ADD11C,0.002800*%
%ADD12C,0.010000*%
%ADD13C,0.003100*%
%ADD14C,0.008000*%
%ADD15C,0.004700*%
%ADD16C,0.003900*%
G04 APERTURE END LIST*
G54D10*
G54D11*
X60011Y-34474D02*
X60211Y-34474D01*
X60211Y-34474D02*
X60211Y-34774D01*
X60211Y-34774D02*
X60011Y-34774D01*
X59811Y-34474D02*
X59611Y-34474D01*
X59611Y-34474D02*
X59611Y-34774D01*
X59611Y-34774D02*
X59811Y-34774D01*
X53350Y-34650D02*
X53350Y-34450D01*
X53350Y-34450D02*
X53650Y-34450D01*
X53650Y-34450D02*
X53650Y-34650D01*
X53350Y-34850D02*
X53350Y-35050D01*
X53350Y-35050D02*
X53650Y-35050D01*
X53650Y-35050D02*
X53650Y-34850D01*
X62100Y-27350D02*
X62300Y-27350D01*
X62300Y-27350D02*
X62300Y-27650D01*
X62300Y-27650D02*
X62100Y-27650D01*
X61900Y-27350D02*
X61700Y-27350D01*
X61700Y-27350D02*
X61700Y-27650D01*
X61700Y-27650D02*
X61900Y-27650D01*
X53850Y-34650D02*
X53850Y-34450D01*
X53850Y-34450D02*
X54150Y-34450D01*
X54150Y-34450D02*
X54150Y-34650D01*
X53850Y-34850D02*
X53850Y-35050D01*
X53850Y-35050D02*
X54150Y-35050D01*
X54150Y-35050D02*
X54150Y-34850D01*
X60400Y-27650D02*
X60200Y-27650D01*
X60200Y-27650D02*
X60200Y-27350D01*
X60200Y-27350D02*
X60400Y-27350D01*
X60600Y-27650D02*
X60800Y-27650D01*
X60800Y-27650D02*
X60800Y-27350D01*
X60800Y-27350D02*
X60600Y-27350D01*
X55523Y-35220D02*
X55523Y-35020D01*
X55523Y-35020D02*
X55823Y-35020D01*
X55823Y-35020D02*
X55823Y-35220D01*
X55523Y-35420D02*
X55523Y-35620D01*
X55523Y-35620D02*
X55823Y-35620D01*
X55823Y-35620D02*
X55823Y-35420D01*
X57864Y-36445D02*
X57664Y-36445D01*
X57664Y-36445D02*
X57664Y-36145D01*
X57664Y-36145D02*
X57864Y-36145D01*
X58064Y-36445D02*
X58264Y-36445D01*
X58264Y-36445D02*
X58264Y-36145D01*
X58264Y-36145D02*
X58064Y-36145D01*
G54D12*
X50900Y-34750D02*
X51900Y-33750D01*
X50900Y-33750D02*
X51900Y-34750D01*
X50850Y-34200D02*
X48550Y-34200D01*
X48550Y-34200D02*
X48550Y-34300D01*
X48550Y-34300D02*
X50850Y-34300D01*
X50850Y-34300D02*
X50850Y-34250D01*
X50850Y-34250D02*
X48550Y-34250D01*
X51900Y-34150D02*
X52050Y-34150D01*
X51900Y-34350D02*
X52050Y-34350D01*
X51900Y-35150D02*
X52050Y-35150D01*
X51900Y-35350D02*
X52050Y-35350D01*
X51900Y-33750D02*
X50900Y-33750D01*
X51900Y-34750D02*
X50900Y-34750D01*
X51900Y-34750D02*
X51900Y-35750D01*
X51900Y-35750D02*
X50900Y-35750D01*
X50900Y-35150D02*
X48500Y-35150D01*
X48500Y-35150D02*
X48500Y-35350D01*
X48500Y-35350D02*
X50900Y-35350D01*
X50900Y-35750D02*
X50900Y-34750D01*
X50900Y-34750D02*
X50900Y-33750D01*
X48500Y-34350D02*
X50900Y-34350D01*
X48500Y-34150D02*
X48500Y-34350D01*
X50900Y-34150D02*
X48500Y-34150D01*
X51900Y-34750D02*
X50900Y-34750D01*
X51900Y-33750D02*
X51900Y-34750D01*
X55750Y-42350D02*
X54750Y-41350D01*
X54750Y-42350D02*
X55750Y-41350D01*
X55200Y-42400D02*
X55200Y-44700D01*
X55200Y-44700D02*
X55300Y-44700D01*
X55300Y-44700D02*
X55300Y-42400D01*
X55300Y-42400D02*
X55250Y-42400D01*
X55250Y-42400D02*
X55250Y-44700D01*
X55150Y-41350D02*
X55150Y-41200D01*
X55350Y-41350D02*
X55350Y-41200D01*
X56150Y-41350D02*
X56150Y-41200D01*
X56350Y-41350D02*
X56350Y-41200D01*
X57150Y-41350D02*
X57150Y-41200D01*
X57350Y-41350D02*
X57350Y-41200D01*
X58350Y-41350D02*
X58350Y-41200D01*
X58150Y-41350D02*
X58150Y-41200D01*
X54750Y-41350D02*
X54750Y-42350D01*
X55750Y-41350D02*
X55750Y-42350D01*
X55750Y-41350D02*
X56750Y-41350D01*
X56750Y-41350D02*
X56750Y-42350D01*
X56150Y-42350D02*
X56150Y-44750D01*
X56150Y-44750D02*
X56350Y-44750D01*
X56350Y-44750D02*
X56350Y-42350D01*
X56750Y-42350D02*
X55750Y-42350D01*
X55750Y-42350D02*
X54750Y-42350D01*
X55350Y-44750D02*
X55350Y-42350D01*
X55150Y-44750D02*
X55350Y-44750D01*
X55150Y-42350D02*
X55150Y-44750D01*
X55750Y-41350D02*
X55750Y-42350D01*
X54750Y-41350D02*
X55750Y-41350D01*
X57750Y-41350D02*
X57750Y-42350D01*
X57750Y-41350D02*
X58750Y-41350D01*
X58750Y-41350D02*
X58750Y-42350D01*
X58150Y-42350D02*
X58150Y-44750D01*
X58150Y-44750D02*
X58350Y-44750D01*
X58350Y-44750D02*
X58350Y-42350D01*
X58750Y-42350D02*
X57750Y-42350D01*
X57750Y-42350D02*
X56750Y-42350D01*
X57350Y-44750D02*
X57350Y-42350D01*
X57150Y-44750D02*
X57350Y-44750D01*
X57150Y-42350D02*
X57150Y-44750D01*
X57750Y-41350D02*
X57750Y-42350D01*
X56750Y-41350D02*
X57750Y-41350D01*
X56750Y-41350D02*
X56750Y-42350D01*
G54D11*
X58850Y-27850D02*
X59050Y-27850D01*
X59050Y-27850D02*
X59050Y-28150D01*
X59050Y-28150D02*
X58850Y-28150D01*
X58650Y-27850D02*
X58450Y-27850D01*
X58450Y-27850D02*
X58450Y-28150D01*
X58450Y-28150D02*
X58650Y-28150D01*
X57426Y-34970D02*
X57426Y-34770D01*
X57426Y-34770D02*
X57726Y-34770D01*
X57726Y-34770D02*
X57726Y-34970D01*
X57426Y-35170D02*
X57426Y-35370D01*
X57426Y-35370D02*
X57726Y-35370D01*
X57726Y-35370D02*
X57726Y-35170D01*
X58226Y-35170D02*
X58226Y-35370D01*
X58226Y-35370D02*
X57926Y-35370D01*
X57926Y-35370D02*
X57926Y-35170D01*
X58226Y-34970D02*
X58226Y-34770D01*
X58226Y-34770D02*
X57926Y-34770D01*
X57926Y-34770D02*
X57926Y-34970D01*
X55023Y-35220D02*
X55023Y-35020D01*
X55023Y-35020D02*
X55323Y-35020D01*
X55323Y-35020D02*
X55323Y-35220D01*
X55023Y-35420D02*
X55023Y-35620D01*
X55023Y-35620D02*
X55323Y-35620D01*
X55323Y-35620D02*
X55323Y-35420D01*
X54823Y-35420D02*
X54823Y-35620D01*
X54823Y-35620D02*
X54523Y-35620D01*
X54523Y-35620D02*
X54523Y-35420D01*
X54823Y-35220D02*
X54823Y-35020D01*
X54823Y-35020D02*
X54523Y-35020D01*
X54523Y-35020D02*
X54523Y-35220D01*
X57864Y-36945D02*
X57664Y-36945D01*
X57664Y-36945D02*
X57664Y-36645D01*
X57664Y-36645D02*
X57864Y-36645D01*
X58064Y-36945D02*
X58264Y-36945D01*
X58264Y-36945D02*
X58264Y-36645D01*
X58264Y-36645D02*
X58064Y-36645D01*
X61364Y-36445D02*
X61164Y-36445D01*
X61164Y-36445D02*
X61164Y-36145D01*
X61164Y-36145D02*
X61364Y-36145D01*
X61564Y-36445D02*
X61764Y-36445D01*
X61764Y-36445D02*
X61764Y-36145D01*
X61764Y-36145D02*
X61564Y-36145D01*
X61364Y-35945D02*
X61164Y-35945D01*
X61164Y-35945D02*
X61164Y-35645D01*
X61164Y-35645D02*
X61364Y-35645D01*
X61564Y-35945D02*
X61764Y-35945D01*
X61764Y-35945D02*
X61764Y-35645D01*
X61764Y-35645D02*
X61564Y-35645D01*
X58261Y-33724D02*
X58461Y-33724D01*
X58461Y-33724D02*
X58461Y-34024D01*
X58461Y-34024D02*
X58261Y-34024D01*
X58061Y-33724D02*
X57861Y-33724D01*
X57861Y-33724D02*
X57861Y-34024D01*
X57861Y-34024D02*
X58061Y-34024D01*
X58061Y-33524D02*
X57861Y-33524D01*
X57861Y-33524D02*
X57861Y-33224D01*
X57861Y-33224D02*
X58061Y-33224D01*
X58261Y-33524D02*
X58461Y-33524D01*
X58461Y-33524D02*
X58461Y-33224D01*
X58461Y-33224D02*
X58261Y-33224D01*
X61364Y-36945D02*
X61164Y-36945D01*
X61164Y-36945D02*
X61164Y-36645D01*
X61164Y-36645D02*
X61364Y-36645D01*
X61564Y-36945D02*
X61764Y-36945D01*
X61764Y-36945D02*
X61764Y-36645D01*
X61764Y-36645D02*
X61564Y-36645D01*
X58261Y-32724D02*
X58461Y-32724D01*
X58461Y-32724D02*
X58461Y-33024D01*
X58461Y-33024D02*
X58261Y-33024D01*
X58061Y-32724D02*
X57861Y-32724D01*
X57861Y-32724D02*
X57861Y-33024D01*
X57861Y-33024D02*
X58061Y-33024D01*
X61811Y-33974D02*
X61811Y-34174D01*
X61811Y-34174D02*
X61511Y-34174D01*
X61511Y-34174D02*
X61511Y-33974D01*
X61811Y-33774D02*
X61811Y-33574D01*
X61811Y-33574D02*
X61511Y-33574D01*
X61511Y-33574D02*
X61511Y-33774D01*
X60011Y-32724D02*
X60211Y-32724D01*
X60211Y-32724D02*
X60211Y-33024D01*
X60211Y-33024D02*
X60011Y-33024D01*
X59811Y-32724D02*
X59611Y-32724D01*
X59611Y-32724D02*
X59611Y-33024D01*
X59611Y-33024D02*
X59811Y-33024D01*
G54D10*
X57874Y-28582D02*
X57637Y-28346D01*
X57637Y-29921D02*
X57874Y-29921D01*
X57874Y-29921D02*
X57874Y-29685D01*
X56299Y-29685D02*
X56299Y-29921D01*
X56299Y-29921D02*
X56535Y-29921D01*
X56535Y-28346D02*
X56299Y-28346D01*
X56299Y-28346D02*
X56299Y-28582D01*
X57637Y-28346D02*
X57874Y-28346D01*
X57874Y-28346D02*
X57874Y-28582D01*
G54D13*
X54809Y-33952D02*
G75*
G03X54809Y-33952I-79J0D01*
G74*
G01*
X55673Y-34270D02*
X55673Y-33870D01*
X54648Y-34270D02*
X54648Y-33870D01*
X55673Y-33870D02*
X54648Y-33870D01*
X54648Y-34270D02*
X55673Y-34270D01*
G54D10*
X59061Y-37149D02*
G75*
G03X59061Y-37149I-55J0D01*
G74*
G01*
X59084Y-36047D02*
X58887Y-36047D01*
X58887Y-36047D02*
X58887Y-36204D01*
X60541Y-36047D02*
X60383Y-36047D01*
X60541Y-36165D02*
X60541Y-36047D01*
X60383Y-36952D02*
X60541Y-36952D01*
X60541Y-36952D02*
X60541Y-36755D01*
X58887Y-36755D02*
X58887Y-36952D01*
X58887Y-36952D02*
X59084Y-36952D01*
G54D13*
X60947Y-27807D02*
G75*
G03X60947Y-27807I-79J0D01*
G74*
G01*
X60550Y-28750D02*
X60950Y-28750D01*
X60550Y-27725D02*
X60950Y-27725D01*
X60950Y-28750D02*
X60950Y-27725D01*
X60550Y-27725D02*
X60550Y-28750D01*
G54D10*
X59258Y-34478D02*
G75*
G03X59258Y-34478I-55J0D01*
G74*
G01*
X59281Y-33375D02*
X59084Y-33375D01*
X59084Y-33375D02*
X59084Y-33533D01*
X60738Y-33375D02*
X60580Y-33375D01*
X60738Y-33494D02*
X60738Y-33375D01*
X60580Y-34281D02*
X60738Y-34281D01*
X60738Y-34281D02*
X60738Y-34084D01*
X59084Y-34084D02*
X59084Y-34281D01*
X59084Y-34281D02*
X59281Y-34281D01*
G54D11*
X59931Y-34673D02*
X59937Y-34679D01*
X59954Y-34686D01*
X59965Y-34686D01*
X59982Y-34679D01*
X59994Y-34666D01*
X59999Y-34653D01*
X60005Y-34627D01*
X60005Y-34607D01*
X59999Y-34581D01*
X59994Y-34568D01*
X59982Y-34555D01*
X59965Y-34548D01*
X59954Y-34548D01*
X59937Y-34555D01*
X59931Y-34561D01*
X59862Y-34607D02*
X59874Y-34601D01*
X59879Y-34594D01*
X59885Y-34581D01*
X59885Y-34574D01*
X59879Y-34561D01*
X59874Y-34555D01*
X59862Y-34548D01*
X59839Y-34548D01*
X59828Y-34555D01*
X59822Y-34561D01*
X59817Y-34574D01*
X59817Y-34581D01*
X59822Y-34594D01*
X59828Y-34601D01*
X59839Y-34607D01*
X59862Y-34607D01*
X59874Y-34614D01*
X59879Y-34620D01*
X59885Y-34633D01*
X59885Y-34660D01*
X59879Y-34673D01*
X59874Y-34679D01*
X59862Y-34686D01*
X59839Y-34686D01*
X59828Y-34679D01*
X59822Y-34673D01*
X59817Y-34660D01*
X59817Y-34633D01*
X59822Y-34620D01*
X59828Y-34614D01*
X59839Y-34607D01*
X53549Y-34730D02*
X53555Y-34724D01*
X53562Y-34707D01*
X53562Y-34695D01*
X53555Y-34678D01*
X53542Y-34667D01*
X53529Y-34661D01*
X53503Y-34655D01*
X53483Y-34655D01*
X53457Y-34661D01*
X53444Y-34667D01*
X53431Y-34678D01*
X53424Y-34695D01*
X53424Y-34707D01*
X53431Y-34724D01*
X53437Y-34730D01*
X53562Y-34787D02*
X53562Y-34810D01*
X53555Y-34821D01*
X53549Y-34827D01*
X53529Y-34838D01*
X53503Y-34844D01*
X53450Y-34844D01*
X53437Y-34838D01*
X53431Y-34832D01*
X53424Y-34821D01*
X53424Y-34798D01*
X53431Y-34787D01*
X53437Y-34781D01*
X53450Y-34775D01*
X53483Y-34775D01*
X53496Y-34781D01*
X53503Y-34787D01*
X53509Y-34798D01*
X53509Y-34821D01*
X53503Y-34832D01*
X53496Y-34838D01*
X53483Y-34844D01*
X62077Y-27549D02*
X62082Y-27555D01*
X62100Y-27562D01*
X62111Y-27562D01*
X62128Y-27555D01*
X62140Y-27542D01*
X62145Y-27529D01*
X62151Y-27503D01*
X62151Y-27483D01*
X62145Y-27457D01*
X62140Y-27444D01*
X62128Y-27431D01*
X62111Y-27424D01*
X62100Y-27424D01*
X62082Y-27431D01*
X62077Y-27437D01*
X61962Y-27562D02*
X62031Y-27562D01*
X61997Y-27562D02*
X61997Y-27424D01*
X62008Y-27444D01*
X62020Y-27457D01*
X62031Y-27463D01*
X61888Y-27424D02*
X61877Y-27424D01*
X61865Y-27431D01*
X61860Y-27437D01*
X61854Y-27450D01*
X61848Y-27477D01*
X61848Y-27509D01*
X61854Y-27536D01*
X61860Y-27549D01*
X61865Y-27555D01*
X61877Y-27562D01*
X61888Y-27562D01*
X61900Y-27555D01*
X61905Y-27549D01*
X61911Y-27536D01*
X61917Y-27509D01*
X61917Y-27477D01*
X61911Y-27450D01*
X61905Y-27437D01*
X61900Y-27431D01*
X61888Y-27424D01*
X54049Y-34672D02*
X54055Y-34667D01*
X54062Y-34650D01*
X54062Y-34638D01*
X54055Y-34621D01*
X54042Y-34610D01*
X54029Y-34604D01*
X54003Y-34598D01*
X53983Y-34598D01*
X53957Y-34604D01*
X53944Y-34610D01*
X53931Y-34621D01*
X53924Y-34638D01*
X53924Y-34650D01*
X53931Y-34667D01*
X53937Y-34672D01*
X54062Y-34787D02*
X54062Y-34718D01*
X54062Y-34752D02*
X53924Y-34752D01*
X53944Y-34741D01*
X53957Y-34730D01*
X53963Y-34718D01*
X54062Y-34901D02*
X54062Y-34832D01*
X54062Y-34867D02*
X53924Y-34867D01*
X53944Y-34855D01*
X53957Y-34844D01*
X53963Y-34832D01*
X60577Y-27549D02*
X60582Y-27555D01*
X60600Y-27562D01*
X60611Y-27562D01*
X60628Y-27555D01*
X60640Y-27542D01*
X60645Y-27529D01*
X60651Y-27503D01*
X60651Y-27483D01*
X60645Y-27457D01*
X60640Y-27444D01*
X60628Y-27431D01*
X60611Y-27424D01*
X60600Y-27424D01*
X60582Y-27431D01*
X60577Y-27437D01*
X60462Y-27562D02*
X60531Y-27562D01*
X60497Y-27562D02*
X60497Y-27424D01*
X60508Y-27444D01*
X60520Y-27457D01*
X60531Y-27463D01*
X60417Y-27437D02*
X60411Y-27431D01*
X60400Y-27424D01*
X60371Y-27424D01*
X60360Y-27431D01*
X60354Y-27437D01*
X60348Y-27450D01*
X60348Y-27463D01*
X60354Y-27483D01*
X60422Y-27562D01*
X60348Y-27562D01*
X55722Y-35243D02*
X55729Y-35238D01*
X55735Y-35220D01*
X55735Y-35209D01*
X55729Y-35192D01*
X55715Y-35180D01*
X55702Y-35175D01*
X55676Y-35169D01*
X55656Y-35169D01*
X55630Y-35175D01*
X55617Y-35180D01*
X55604Y-35192D01*
X55597Y-35209D01*
X55597Y-35220D01*
X55604Y-35238D01*
X55610Y-35243D01*
X55735Y-35358D02*
X55735Y-35289D01*
X55735Y-35323D02*
X55597Y-35323D01*
X55617Y-35312D01*
X55630Y-35300D01*
X55637Y-35289D01*
X55597Y-35398D02*
X55597Y-35472D01*
X55650Y-35432D01*
X55650Y-35449D01*
X55656Y-35460D01*
X55663Y-35466D01*
X55676Y-35472D01*
X55709Y-35472D01*
X55722Y-35466D01*
X55729Y-35460D01*
X55735Y-35449D01*
X55735Y-35415D01*
X55729Y-35403D01*
X55722Y-35398D01*
X58041Y-36344D02*
X58047Y-36351D01*
X58064Y-36357D01*
X58075Y-36357D01*
X58093Y-36351D01*
X58104Y-36337D01*
X58110Y-36324D01*
X58115Y-36298D01*
X58115Y-36278D01*
X58110Y-36252D01*
X58104Y-36239D01*
X58093Y-36226D01*
X58075Y-36219D01*
X58064Y-36219D01*
X58047Y-36226D01*
X58041Y-36232D01*
X57927Y-36357D02*
X57995Y-36357D01*
X57961Y-36357D02*
X57961Y-36219D01*
X57973Y-36239D01*
X57984Y-36252D01*
X57995Y-36259D01*
X57887Y-36219D02*
X57807Y-36219D01*
X57858Y-36357D01*
G54D14*
X53626Y-34666D02*
X53626Y-34428D01*
X53126Y-34428D01*
X53626Y-35095D02*
X53626Y-34809D01*
X53626Y-34952D02*
X53126Y-34952D01*
X53197Y-34904D01*
X53245Y-34857D01*
X53269Y-34809D01*
X57119Y-40076D02*
X57119Y-39576D01*
X56928Y-39576D01*
X56880Y-39600D01*
X56857Y-39623D01*
X56833Y-39671D01*
X56833Y-39742D01*
X56857Y-39790D01*
X56880Y-39814D01*
X56928Y-39838D01*
X57119Y-39838D01*
X56404Y-39742D02*
X56404Y-40076D01*
X56523Y-39552D02*
X56642Y-39909D01*
X56333Y-39909D01*
G54D11*
X58770Y-28062D02*
X58810Y-27996D01*
X58838Y-28062D02*
X58838Y-27924D01*
X58792Y-27924D01*
X58781Y-27931D01*
X58775Y-27937D01*
X58770Y-27950D01*
X58770Y-27970D01*
X58775Y-27983D01*
X58781Y-27990D01*
X58792Y-27996D01*
X58838Y-27996D01*
X58655Y-28062D02*
X58724Y-28062D01*
X58690Y-28062D02*
X58690Y-27924D01*
X58701Y-27944D01*
X58712Y-27957D01*
X58724Y-27963D01*
X57639Y-35050D02*
X57573Y-35010D01*
X57639Y-34982D02*
X57501Y-34982D01*
X57501Y-35028D01*
X57507Y-35039D01*
X57514Y-35045D01*
X57527Y-35050D01*
X57547Y-35050D01*
X57560Y-35045D01*
X57566Y-35039D01*
X57573Y-35028D01*
X57573Y-34982D01*
X57547Y-35153D02*
X57639Y-35153D01*
X57494Y-35125D02*
X57593Y-35096D01*
X57593Y-35170D01*
X58139Y-35050D02*
X58073Y-35010D01*
X58139Y-34982D02*
X58001Y-34982D01*
X58001Y-35028D01*
X58007Y-35039D01*
X58014Y-35045D01*
X58027Y-35050D01*
X58047Y-35050D01*
X58060Y-35045D01*
X58066Y-35039D01*
X58073Y-35028D01*
X58073Y-34982D01*
X58001Y-35159D02*
X58001Y-35102D01*
X58066Y-35096D01*
X58060Y-35102D01*
X58053Y-35113D01*
X58053Y-35142D01*
X58060Y-35153D01*
X58066Y-35159D01*
X58080Y-35165D01*
X58112Y-35165D01*
X58126Y-35159D01*
X58132Y-35153D01*
X58139Y-35142D01*
X58139Y-35113D01*
X58132Y-35102D01*
X58126Y-35096D01*
X55235Y-35300D02*
X55169Y-35260D01*
X55235Y-35232D02*
X55097Y-35232D01*
X55097Y-35278D01*
X55104Y-35289D01*
X55110Y-35295D01*
X55123Y-35300D01*
X55143Y-35300D01*
X55156Y-35295D01*
X55163Y-35289D01*
X55169Y-35278D01*
X55169Y-35232D01*
X55097Y-35403D02*
X55097Y-35380D01*
X55104Y-35369D01*
X55110Y-35363D01*
X55130Y-35352D01*
X55156Y-35346D01*
X55209Y-35346D01*
X55222Y-35352D01*
X55229Y-35358D01*
X55235Y-35369D01*
X55235Y-35392D01*
X55229Y-35403D01*
X55222Y-35409D01*
X55209Y-35415D01*
X55176Y-35415D01*
X55163Y-35409D01*
X55156Y-35403D01*
X55150Y-35392D01*
X55150Y-35369D01*
X55156Y-35358D01*
X55163Y-35352D01*
X55176Y-35346D01*
X54735Y-35300D02*
X54669Y-35260D01*
X54735Y-35232D02*
X54597Y-35232D01*
X54597Y-35278D01*
X54604Y-35289D01*
X54610Y-35295D01*
X54623Y-35300D01*
X54643Y-35300D01*
X54656Y-35295D01*
X54663Y-35289D01*
X54669Y-35278D01*
X54669Y-35232D01*
X54597Y-35340D02*
X54597Y-35420D01*
X54735Y-35369D01*
X57984Y-36857D02*
X58024Y-36791D01*
X58053Y-36857D02*
X58053Y-36719D01*
X58007Y-36719D01*
X57995Y-36726D01*
X57990Y-36732D01*
X57984Y-36745D01*
X57984Y-36765D01*
X57990Y-36778D01*
X57995Y-36785D01*
X58007Y-36791D01*
X58053Y-36791D01*
X57915Y-36778D02*
X57927Y-36772D01*
X57933Y-36765D01*
X57938Y-36752D01*
X57938Y-36745D01*
X57933Y-36732D01*
X57927Y-36726D01*
X57915Y-36719D01*
X57893Y-36719D01*
X57881Y-36726D01*
X57875Y-36732D01*
X57870Y-36745D01*
X57870Y-36752D01*
X57875Y-36765D01*
X57881Y-36772D01*
X57893Y-36778D01*
X57915Y-36778D01*
X57927Y-36785D01*
X57933Y-36791D01*
X57938Y-36805D01*
X57938Y-36831D01*
X57933Y-36844D01*
X57927Y-36851D01*
X57915Y-36857D01*
X57893Y-36857D01*
X57881Y-36851D01*
X57875Y-36844D01*
X57870Y-36831D01*
X57870Y-36805D01*
X57875Y-36791D01*
X57881Y-36785D01*
X57893Y-36778D01*
X61484Y-36357D02*
X61524Y-36291D01*
X61553Y-36357D02*
X61553Y-36219D01*
X61507Y-36219D01*
X61495Y-36226D01*
X61490Y-36232D01*
X61484Y-36245D01*
X61484Y-36265D01*
X61490Y-36278D01*
X61495Y-36285D01*
X61507Y-36291D01*
X61553Y-36291D01*
X61427Y-36357D02*
X61404Y-36357D01*
X61393Y-36351D01*
X61387Y-36344D01*
X61375Y-36324D01*
X61370Y-36298D01*
X61370Y-36245D01*
X61375Y-36232D01*
X61381Y-36226D01*
X61393Y-36219D01*
X61415Y-36219D01*
X61427Y-36226D01*
X61433Y-36232D01*
X61438Y-36245D01*
X61438Y-36278D01*
X61433Y-36291D01*
X61427Y-36298D01*
X61415Y-36305D01*
X61393Y-36305D01*
X61381Y-36298D01*
X61375Y-36291D01*
X61370Y-36278D01*
X61541Y-35857D02*
X61581Y-35791D01*
X61610Y-35857D02*
X61610Y-35719D01*
X61564Y-35719D01*
X61553Y-35726D01*
X61547Y-35732D01*
X61541Y-35745D01*
X61541Y-35765D01*
X61547Y-35778D01*
X61553Y-35785D01*
X61564Y-35791D01*
X61610Y-35791D01*
X61427Y-35857D02*
X61495Y-35857D01*
X61461Y-35857D02*
X61461Y-35719D01*
X61473Y-35739D01*
X61484Y-35752D01*
X61495Y-35759D01*
X61353Y-35719D02*
X61341Y-35719D01*
X61330Y-35726D01*
X61324Y-35732D01*
X61318Y-35745D01*
X61313Y-35772D01*
X61313Y-35805D01*
X61318Y-35831D01*
X61324Y-35844D01*
X61330Y-35851D01*
X61341Y-35857D01*
X61353Y-35857D01*
X61364Y-35851D01*
X61370Y-35844D01*
X61375Y-35831D01*
X61381Y-35805D01*
X61381Y-35772D01*
X61375Y-35745D01*
X61370Y-35732D01*
X61364Y-35726D01*
X61353Y-35719D01*
X58238Y-33936D02*
X58278Y-33870D01*
X58307Y-33936D02*
X58307Y-33798D01*
X58261Y-33798D01*
X58249Y-33805D01*
X58244Y-33811D01*
X58238Y-33824D01*
X58238Y-33844D01*
X58244Y-33857D01*
X58249Y-33864D01*
X58261Y-33870D01*
X58307Y-33870D01*
X58124Y-33936D02*
X58192Y-33936D01*
X58158Y-33936D02*
X58158Y-33798D01*
X58169Y-33818D01*
X58181Y-33831D01*
X58192Y-33837D01*
X58009Y-33936D02*
X58078Y-33936D01*
X58044Y-33936D02*
X58044Y-33798D01*
X58055Y-33818D01*
X58067Y-33831D01*
X58078Y-33837D01*
X58238Y-33436D02*
X58278Y-33370D01*
X58307Y-33436D02*
X58307Y-33298D01*
X58261Y-33298D01*
X58249Y-33305D01*
X58244Y-33311D01*
X58238Y-33324D01*
X58238Y-33344D01*
X58244Y-33357D01*
X58249Y-33364D01*
X58261Y-33370D01*
X58307Y-33370D01*
X58124Y-33436D02*
X58192Y-33436D01*
X58158Y-33436D02*
X58158Y-33298D01*
X58169Y-33318D01*
X58181Y-33331D01*
X58192Y-33337D01*
X58078Y-33311D02*
X58072Y-33305D01*
X58061Y-33298D01*
X58032Y-33298D01*
X58021Y-33305D01*
X58015Y-33311D01*
X58009Y-33324D01*
X58009Y-33337D01*
X58015Y-33357D01*
X58084Y-33436D01*
X58009Y-33436D01*
X61541Y-36857D02*
X61581Y-36791D01*
X61610Y-36857D02*
X61610Y-36719D01*
X61564Y-36719D01*
X61553Y-36726D01*
X61547Y-36732D01*
X61541Y-36745D01*
X61541Y-36765D01*
X61547Y-36778D01*
X61553Y-36785D01*
X61564Y-36791D01*
X61610Y-36791D01*
X61427Y-36857D02*
X61495Y-36857D01*
X61461Y-36857D02*
X61461Y-36719D01*
X61473Y-36739D01*
X61484Y-36752D01*
X61495Y-36759D01*
X61387Y-36719D02*
X61313Y-36719D01*
X61353Y-36772D01*
X61335Y-36772D01*
X61324Y-36778D01*
X61318Y-36785D01*
X61313Y-36798D01*
X61313Y-36831D01*
X61318Y-36844D01*
X61324Y-36851D01*
X61335Y-36857D01*
X61370Y-36857D01*
X61381Y-36851D01*
X61387Y-36844D01*
X58238Y-32936D02*
X58278Y-32870D01*
X58307Y-32936D02*
X58307Y-32798D01*
X58261Y-32798D01*
X58249Y-32805D01*
X58244Y-32811D01*
X58238Y-32824D01*
X58238Y-32844D01*
X58244Y-32857D01*
X58249Y-32864D01*
X58261Y-32870D01*
X58307Y-32870D01*
X58124Y-32936D02*
X58192Y-32936D01*
X58158Y-32936D02*
X58158Y-32798D01*
X58169Y-32818D01*
X58181Y-32831D01*
X58192Y-32837D01*
X58021Y-32844D02*
X58021Y-32936D01*
X58049Y-32791D02*
X58078Y-32890D01*
X58004Y-32890D01*
X61723Y-33796D02*
X61658Y-33756D01*
X61723Y-33728D02*
X61585Y-33728D01*
X61585Y-33774D01*
X61592Y-33785D01*
X61598Y-33791D01*
X61612Y-33796D01*
X61631Y-33796D01*
X61644Y-33791D01*
X61651Y-33785D01*
X61658Y-33774D01*
X61658Y-33728D01*
X61723Y-33911D02*
X61723Y-33842D01*
X61723Y-33876D02*
X61585Y-33876D01*
X61605Y-33865D01*
X61618Y-33854D01*
X61625Y-33842D01*
X61585Y-34019D02*
X61585Y-33962D01*
X61651Y-33956D01*
X61644Y-33962D01*
X61638Y-33974D01*
X61638Y-34002D01*
X61644Y-34014D01*
X61651Y-34019D01*
X61664Y-34025D01*
X61697Y-34025D01*
X61710Y-34019D01*
X61717Y-34014D01*
X61723Y-34002D01*
X61723Y-33974D01*
X61717Y-33962D01*
X61710Y-33956D01*
X59988Y-32936D02*
X60028Y-32870D01*
X60057Y-32936D02*
X60057Y-32798D01*
X60011Y-32798D01*
X59999Y-32805D01*
X59994Y-32811D01*
X59988Y-32824D01*
X59988Y-32844D01*
X59994Y-32857D01*
X59999Y-32864D01*
X60011Y-32870D01*
X60057Y-32870D01*
X59874Y-32936D02*
X59942Y-32936D01*
X59908Y-32936D02*
X59908Y-32798D01*
X59919Y-32818D01*
X59931Y-32831D01*
X59942Y-32837D01*
X59771Y-32798D02*
X59794Y-32798D01*
X59805Y-32805D01*
X59811Y-32811D01*
X59822Y-32831D01*
X59828Y-32857D01*
X59828Y-32910D01*
X59822Y-32923D01*
X59817Y-32929D01*
X59805Y-32936D01*
X59782Y-32936D01*
X59771Y-32929D01*
X59765Y-32923D01*
X59759Y-32910D01*
X59759Y-32877D01*
X59765Y-32864D01*
X59771Y-32857D01*
X59782Y-32851D01*
X59805Y-32851D01*
X59817Y-32857D01*
X59822Y-32864D01*
X59828Y-32877D01*
G54D10*
X57386Y-30788D02*
X57386Y-31107D01*
X57367Y-31144D01*
X57349Y-31163D01*
X57311Y-31182D01*
X57236Y-31182D01*
X57199Y-31163D01*
X57180Y-31144D01*
X57161Y-31107D01*
X57161Y-30788D01*
X56992Y-30825D02*
X56974Y-30807D01*
X56936Y-30788D01*
X56842Y-30788D01*
X56805Y-30807D01*
X56786Y-30825D01*
X56767Y-30863D01*
X56767Y-30900D01*
X56786Y-30957D01*
X57011Y-31182D01*
X56767Y-31182D01*
X58685Y-30699D02*
X58685Y-30306D01*
X58535Y-30306D01*
X58497Y-30324D01*
X58479Y-30343D01*
X58460Y-30381D01*
X58460Y-30437D01*
X58479Y-30474D01*
X58497Y-30493D01*
X58535Y-30512D01*
X58685Y-30512D01*
X58291Y-30699D02*
X58291Y-30306D01*
X57879Y-30662D02*
X57897Y-30681D01*
X57954Y-30699D01*
X57991Y-30699D01*
X58047Y-30681D01*
X58085Y-30643D01*
X58104Y-30606D01*
X58122Y-30531D01*
X58122Y-30474D01*
X58104Y-30399D01*
X58085Y-30362D01*
X58047Y-30324D01*
X57991Y-30306D01*
X57954Y-30306D01*
X57897Y-30324D01*
X57879Y-30343D01*
X57504Y-30699D02*
X57729Y-30699D01*
X57616Y-30699D02*
X57616Y-30306D01*
X57654Y-30362D01*
X57691Y-30399D01*
X57729Y-30418D01*
X57166Y-30306D02*
X57241Y-30306D01*
X57279Y-30324D01*
X57297Y-30343D01*
X57335Y-30399D01*
X57354Y-30474D01*
X57354Y-30624D01*
X57335Y-30662D01*
X57316Y-30681D01*
X57279Y-30699D01*
X57204Y-30699D01*
X57166Y-30681D01*
X57148Y-30662D01*
X57129Y-30624D01*
X57129Y-30531D01*
X57148Y-30493D01*
X57166Y-30474D01*
X57204Y-30456D01*
X57279Y-30456D01*
X57316Y-30474D01*
X57335Y-30493D01*
X57354Y-30531D01*
X56829Y-30493D02*
X56960Y-30493D01*
X56960Y-30699D02*
X56960Y-30306D01*
X56773Y-30306D01*
X56416Y-30699D02*
X56641Y-30699D01*
X56529Y-30699D02*
X56529Y-30306D01*
X56566Y-30362D01*
X56604Y-30399D01*
X56641Y-30418D01*
X56191Y-30474D02*
X56229Y-30456D01*
X56248Y-30437D01*
X56266Y-30399D01*
X56266Y-30381D01*
X56248Y-30343D01*
X56229Y-30324D01*
X56191Y-30306D01*
X56116Y-30306D01*
X56079Y-30324D01*
X56060Y-30343D01*
X56041Y-30381D01*
X56041Y-30399D01*
X56060Y-30437D01*
X56079Y-30456D01*
X56116Y-30474D01*
X56191Y-30474D01*
X56229Y-30493D01*
X56248Y-30512D01*
X56266Y-30549D01*
X56266Y-30624D01*
X56248Y-30662D01*
X56229Y-30681D01*
X56191Y-30699D01*
X56116Y-30699D01*
X56079Y-30681D01*
X56060Y-30662D01*
X56041Y-30624D01*
X56041Y-30549D01*
X56060Y-30512D01*
X56079Y-30493D01*
X56116Y-30474D01*
X55891Y-30343D02*
X55873Y-30324D01*
X55835Y-30306D01*
X55741Y-30306D01*
X55704Y-30324D01*
X55685Y-30343D01*
X55666Y-30381D01*
X55666Y-30418D01*
X55685Y-30474D01*
X55910Y-30699D01*
X55666Y-30699D01*
X55535Y-30306D02*
X55291Y-30306D01*
X55423Y-30456D01*
X55366Y-30456D01*
X55329Y-30474D01*
X55310Y-30493D01*
X55291Y-30531D01*
X55291Y-30624D01*
X55310Y-30662D01*
X55329Y-30681D01*
X55366Y-30699D01*
X55479Y-30699D01*
X55516Y-30681D01*
X55535Y-30662D01*
G54D15*
X55795Y-33881D02*
X56038Y-33881D01*
X56067Y-33895D01*
X56081Y-33909D01*
X56095Y-33938D01*
X56095Y-33995D01*
X56081Y-34024D01*
X56067Y-34038D01*
X56038Y-34052D01*
X55795Y-34052D01*
X55795Y-34167D02*
X55795Y-34352D01*
X55910Y-34252D01*
X55910Y-34295D01*
X55924Y-34324D01*
X55938Y-34338D01*
X55967Y-34352D01*
X56038Y-34352D01*
X56067Y-34338D01*
X56081Y-34324D01*
X56095Y-34295D01*
X56095Y-34209D01*
X56081Y-34181D01*
X56067Y-34167D01*
G54D16*
X55550Y-34056D02*
X55521Y-34066D01*
X55512Y-34075D01*
X55503Y-34094D01*
X55503Y-34122D01*
X55512Y-34141D01*
X55521Y-34150D01*
X55540Y-34159D01*
X55615Y-34159D01*
X55615Y-33962D01*
X55550Y-33962D01*
X55531Y-33972D01*
X55521Y-33981D01*
X55512Y-34000D01*
X55512Y-34019D01*
X55521Y-34038D01*
X55531Y-34047D01*
X55550Y-34056D01*
X55615Y-34056D01*
X55428Y-34103D02*
X55334Y-34103D01*
X55446Y-34159D02*
X55381Y-33962D01*
X55315Y-34159D01*
X55259Y-34150D02*
X55231Y-34159D01*
X55184Y-34159D01*
X55165Y-34150D01*
X55156Y-34141D01*
X55146Y-34122D01*
X55146Y-34103D01*
X55156Y-34084D01*
X55165Y-34075D01*
X55184Y-34066D01*
X55221Y-34056D01*
X55240Y-34047D01*
X55249Y-34038D01*
X55259Y-34019D01*
X55259Y-34000D01*
X55249Y-33981D01*
X55240Y-33972D01*
X55221Y-33962D01*
X55174Y-33962D01*
X55146Y-33972D01*
X55080Y-33962D02*
X54949Y-33962D01*
X55034Y-34159D01*
X54837Y-33962D02*
X54818Y-33962D01*
X54799Y-33972D01*
X54790Y-33981D01*
X54780Y-34000D01*
X54771Y-34038D01*
X54771Y-34084D01*
X54780Y-34122D01*
X54790Y-34141D01*
X54799Y-34150D01*
X54818Y-34159D01*
X54837Y-34159D01*
X54855Y-34150D01*
X54865Y-34141D01*
X54874Y-34122D01*
X54883Y-34084D01*
X54883Y-34038D01*
X54874Y-34000D01*
X54865Y-33981D01*
X54855Y-33972D01*
X54837Y-33962D01*
G54D10*
X60053Y-38016D02*
X60053Y-38335D01*
X60035Y-38372D01*
X60016Y-38391D01*
X59978Y-38410D01*
X59903Y-38410D01*
X59866Y-38391D01*
X59847Y-38372D01*
X59828Y-38335D01*
X59828Y-38016D01*
X59472Y-38147D02*
X59472Y-38410D01*
X59566Y-37997D02*
X59660Y-38279D01*
X59416Y-38279D01*
X61028Y-37642D02*
X61028Y-37248D01*
X60897Y-37530D01*
X60766Y-37248D01*
X60766Y-37642D01*
X60353Y-37605D02*
X60372Y-37623D01*
X60428Y-37642D01*
X60466Y-37642D01*
X60522Y-37623D01*
X60560Y-37586D01*
X60578Y-37548D01*
X60597Y-37473D01*
X60597Y-37417D01*
X60578Y-37342D01*
X60560Y-37305D01*
X60522Y-37267D01*
X60466Y-37248D01*
X60428Y-37248D01*
X60372Y-37267D01*
X60353Y-37286D01*
X60185Y-37642D02*
X60185Y-37248D01*
X60035Y-37248D01*
X59997Y-37267D01*
X59978Y-37286D01*
X59960Y-37323D01*
X59960Y-37380D01*
X59978Y-37417D01*
X59997Y-37436D01*
X60035Y-37455D01*
X60185Y-37455D01*
X59622Y-37248D02*
X59697Y-37248D01*
X59735Y-37267D01*
X59753Y-37286D01*
X59791Y-37342D01*
X59810Y-37417D01*
X59810Y-37567D01*
X59791Y-37605D01*
X59772Y-37623D01*
X59735Y-37642D01*
X59660Y-37642D01*
X59622Y-37623D01*
X59603Y-37605D01*
X59585Y-37567D01*
X59585Y-37473D01*
X59603Y-37436D01*
X59622Y-37417D01*
X59660Y-37398D01*
X59735Y-37398D01*
X59772Y-37417D01*
X59791Y-37436D01*
X59810Y-37473D01*
X59341Y-37248D02*
X59303Y-37248D01*
X59266Y-37267D01*
X59247Y-37286D01*
X59229Y-37323D01*
X59210Y-37398D01*
X59210Y-37492D01*
X59229Y-37567D01*
X59247Y-37605D01*
X59266Y-37623D01*
X59303Y-37642D01*
X59341Y-37642D01*
X59378Y-37623D01*
X59397Y-37605D01*
X59416Y-37567D01*
X59435Y-37492D01*
X59435Y-37398D01*
X59416Y-37323D01*
X59397Y-37286D01*
X59378Y-37267D01*
X59341Y-37248D01*
X58966Y-37248D02*
X58929Y-37248D01*
X58891Y-37267D01*
X58872Y-37286D01*
X58854Y-37323D01*
X58835Y-37398D01*
X58835Y-37492D01*
X58854Y-37567D01*
X58872Y-37605D01*
X58891Y-37623D01*
X58929Y-37642D01*
X58966Y-37642D01*
X59004Y-37623D01*
X59022Y-37605D01*
X59041Y-37567D01*
X59060Y-37492D01*
X59060Y-37398D01*
X59041Y-37323D01*
X59022Y-37286D01*
X59004Y-37267D01*
X58966Y-37248D01*
X58685Y-37286D02*
X58666Y-37267D01*
X58629Y-37248D01*
X58535Y-37248D01*
X58497Y-37267D01*
X58479Y-37286D01*
X58460Y-37323D01*
X58460Y-37361D01*
X58479Y-37417D01*
X58704Y-37642D01*
X58460Y-37642D01*
G54D15*
X60939Y-28872D02*
X60939Y-29115D01*
X60925Y-29144D01*
X60911Y-29158D01*
X60882Y-29172D01*
X60825Y-29172D01*
X60796Y-29158D01*
X60782Y-29144D01*
X60768Y-29115D01*
X60768Y-28872D01*
X60482Y-28872D02*
X60625Y-28872D01*
X60639Y-29015D01*
X60625Y-29001D01*
X60596Y-28987D01*
X60525Y-28987D01*
X60496Y-29001D01*
X60482Y-29015D01*
X60468Y-29044D01*
X60468Y-29115D01*
X60482Y-29144D01*
X60496Y-29158D01*
X60525Y-29172D01*
X60596Y-29172D01*
X60625Y-29158D01*
X60639Y-29144D01*
G54D16*
X60839Y-27637D02*
X60642Y-27637D01*
X60782Y-27702D01*
X60642Y-27768D01*
X60839Y-27768D01*
X60820Y-27974D02*
X60829Y-27965D01*
X60839Y-27937D01*
X60839Y-27918D01*
X60829Y-27890D01*
X60810Y-27871D01*
X60792Y-27862D01*
X60754Y-27852D01*
X60726Y-27852D01*
X60689Y-27862D01*
X60670Y-27871D01*
X60651Y-27890D01*
X60642Y-27918D01*
X60642Y-27937D01*
X60651Y-27965D01*
X60660Y-27974D01*
X60839Y-28059D02*
X60642Y-28059D01*
X60642Y-28134D01*
X60651Y-28153D01*
X60660Y-28162D01*
X60679Y-28171D01*
X60707Y-28171D01*
X60726Y-28162D01*
X60735Y-28153D01*
X60745Y-28134D01*
X60745Y-28059D01*
X60839Y-28359D02*
X60839Y-28246D01*
X60839Y-28303D02*
X60642Y-28303D01*
X60670Y-28284D01*
X60689Y-28265D01*
X60698Y-28246D01*
X60642Y-28425D02*
X60642Y-28556D01*
X60839Y-28472D01*
X60642Y-28669D02*
X60642Y-28687D01*
X60651Y-28706D01*
X60660Y-28715D01*
X60679Y-28725D01*
X60717Y-28734D01*
X60764Y-28734D01*
X60801Y-28725D01*
X60820Y-28715D01*
X60829Y-28706D01*
X60839Y-28687D01*
X60839Y-28669D01*
X60829Y-28650D01*
X60820Y-28640D01*
X60801Y-28631D01*
X60764Y-28622D01*
X60717Y-28622D01*
X60679Y-28631D01*
X60660Y-28640D01*
X60651Y-28650D01*
X60642Y-28669D01*
X60660Y-28809D02*
X60651Y-28819D01*
X60642Y-28837D01*
X60642Y-28884D01*
X60651Y-28903D01*
X60660Y-28912D01*
X60679Y-28922D01*
X60698Y-28922D01*
X60726Y-28912D01*
X60839Y-28800D01*
X60839Y-28922D01*
G54D10*
X60250Y-35345D02*
X60250Y-35664D01*
X60232Y-35701D01*
X60213Y-35720D01*
X60175Y-35739D01*
X60100Y-35739D01*
X60063Y-35720D01*
X60044Y-35701D01*
X60025Y-35664D01*
X60025Y-35345D01*
X59669Y-35345D02*
X59744Y-35345D01*
X59782Y-35364D01*
X59800Y-35382D01*
X59838Y-35439D01*
X59857Y-35514D01*
X59857Y-35664D01*
X59838Y-35701D01*
X59819Y-35720D01*
X59782Y-35739D01*
X59707Y-35739D01*
X59669Y-35720D01*
X59650Y-35701D01*
X59632Y-35664D01*
X59632Y-35570D01*
X59650Y-35532D01*
X59669Y-35514D01*
X59707Y-35495D01*
X59782Y-35495D01*
X59819Y-35514D01*
X59838Y-35532D01*
X59857Y-35570D01*
X61225Y-34971D02*
X61225Y-34577D01*
X61094Y-34858D01*
X60963Y-34577D01*
X60963Y-34971D01*
X60550Y-34933D02*
X60569Y-34952D01*
X60625Y-34971D01*
X60663Y-34971D01*
X60719Y-34952D01*
X60756Y-34915D01*
X60775Y-34877D01*
X60794Y-34802D01*
X60794Y-34746D01*
X60775Y-34671D01*
X60756Y-34633D01*
X60719Y-34596D01*
X60663Y-34577D01*
X60625Y-34577D01*
X60569Y-34596D01*
X60550Y-34615D01*
X60381Y-34971D02*
X60381Y-34577D01*
X60232Y-34577D01*
X60194Y-34596D01*
X60175Y-34615D01*
X60157Y-34652D01*
X60157Y-34708D01*
X60175Y-34746D01*
X60194Y-34765D01*
X60232Y-34783D01*
X60381Y-34783D01*
X59819Y-34577D02*
X59894Y-34577D01*
X59932Y-34596D01*
X59950Y-34615D01*
X59988Y-34671D01*
X60007Y-34746D01*
X60007Y-34896D01*
X59988Y-34933D01*
X59969Y-34952D01*
X59932Y-34971D01*
X59857Y-34971D01*
X59819Y-34952D01*
X59800Y-34933D01*
X59782Y-34896D01*
X59782Y-34802D01*
X59800Y-34765D01*
X59819Y-34746D01*
X59857Y-34727D01*
X59932Y-34727D01*
X59969Y-34746D01*
X59988Y-34765D01*
X60007Y-34802D01*
X59538Y-34577D02*
X59500Y-34577D01*
X59463Y-34596D01*
X59444Y-34615D01*
X59425Y-34652D01*
X59407Y-34727D01*
X59407Y-34821D01*
X59425Y-34896D01*
X59444Y-34933D01*
X59463Y-34952D01*
X59500Y-34971D01*
X59538Y-34971D01*
X59575Y-34952D01*
X59594Y-34933D01*
X59613Y-34896D01*
X59632Y-34821D01*
X59632Y-34727D01*
X59613Y-34652D01*
X59594Y-34615D01*
X59575Y-34596D01*
X59538Y-34577D01*
X59163Y-34577D02*
X59125Y-34577D01*
X59088Y-34596D01*
X59069Y-34615D01*
X59050Y-34652D01*
X59032Y-34727D01*
X59032Y-34821D01*
X59050Y-34896D01*
X59069Y-34933D01*
X59088Y-34952D01*
X59125Y-34971D01*
X59163Y-34971D01*
X59200Y-34952D01*
X59219Y-34933D01*
X59238Y-34896D01*
X59257Y-34821D01*
X59257Y-34727D01*
X59238Y-34652D01*
X59219Y-34615D01*
X59200Y-34596D01*
X59163Y-34577D01*
X58882Y-34615D02*
X58863Y-34596D01*
X58825Y-34577D01*
X58732Y-34577D01*
X58694Y-34596D01*
X58675Y-34615D01*
X58657Y-34652D01*
X58657Y-34690D01*
X58675Y-34746D01*
X58900Y-34971D01*
X58657Y-34971D01*
M02*
