G04 (created by PCBNEW (2013-mar-13)-testing) date Thu 06 Mar 2014 05:50:53 PM CET*
%MOIN*%
G04 Gerber Fmt 3.4, Leading zero omitted, Abs format*
%FSLAX34Y34*%
G01*
G70*
G90*
G04 APERTURE LIST*
%ADD10C,0.005906*%
%ADD11R,0.025000X0.045000*%
%ADD12R,0.060000X0.060000*%
%ADD13C,0.060000*%
%ADD14R,0.026000X0.016000*%
%ADD15C,0.070866*%
%ADD16C,0.010000*%
G04 APERTURE END LIST*
G54D10*
G54D11*
X57200Y-41500D03*
X57800Y-41500D03*
X56392Y-38976D03*
X56992Y-38976D03*
X58567Y-38976D03*
X57967Y-38976D03*
G54D12*
X55511Y-40444D03*
G54D13*
X55511Y-41444D03*
G54D12*
X59448Y-40444D03*
G54D13*
X59448Y-41444D03*
G54D11*
X57780Y-35826D03*
X57180Y-35826D03*
G54D14*
X57100Y-40240D03*
X57100Y-40760D03*
X57100Y-40500D03*
X57900Y-40760D03*
X57900Y-40240D03*
X57900Y-40500D03*
G54D15*
X56480Y-37401D03*
X58480Y-37401D03*
G54D16*
X57800Y-41500D02*
X57800Y-41403D01*
X58213Y-40990D02*
X57800Y-41403D01*
X59736Y-40990D02*
X58213Y-40990D01*
X59898Y-40827D02*
X59736Y-40990D01*
X59898Y-40044D02*
X59898Y-40827D01*
X59848Y-39994D02*
X59898Y-40044D01*
X58737Y-39994D02*
X59848Y-39994D01*
X58232Y-40500D02*
X58737Y-39994D01*
X57900Y-40500D02*
X58232Y-40500D01*
X55511Y-40444D02*
X55961Y-40444D01*
X56641Y-41124D02*
X55961Y-40444D01*
X57521Y-41124D02*
X56641Y-41124D01*
X57800Y-41403D02*
X57521Y-41124D01*
X59018Y-41875D02*
X59448Y-41444D01*
X57609Y-41875D02*
X59018Y-41875D01*
X57475Y-41740D02*
X57609Y-41875D01*
X57475Y-41500D02*
X57475Y-41740D01*
X57200Y-41500D02*
X57475Y-41500D01*
X55511Y-41444D02*
X55551Y-41404D01*
X56829Y-41404D02*
X56924Y-41500D01*
X55551Y-41404D02*
X56829Y-41404D01*
X57200Y-41500D02*
X56924Y-41500D01*
X56796Y-40500D02*
X57100Y-40500D01*
X56291Y-39994D02*
X56796Y-40500D01*
X55111Y-39994D02*
X56291Y-39994D01*
X55061Y-40044D02*
X55111Y-39994D01*
X55061Y-40914D02*
X55061Y-40044D01*
X55551Y-41404D02*
X55061Y-40914D01*
X57100Y-40500D02*
X57380Y-40500D01*
X57380Y-40500D02*
X57380Y-38976D01*
X57967Y-38976D02*
X57380Y-38976D01*
X57380Y-38976D02*
X56992Y-38976D01*
X58683Y-40760D02*
X58998Y-40444D01*
X57900Y-40760D02*
X58683Y-40760D01*
X59448Y-40444D02*
X58998Y-40444D01*
X56392Y-38788D02*
X56392Y-38601D01*
X56392Y-38788D02*
X56392Y-38976D01*
X56392Y-39813D02*
X56819Y-40240D01*
X56392Y-38976D02*
X56392Y-39813D01*
X57100Y-40240D02*
X56819Y-40240D01*
X56480Y-38513D02*
X56392Y-38601D01*
X56480Y-37401D02*
X56480Y-38513D01*
X57180Y-36701D02*
X57180Y-35826D01*
X56480Y-37401D02*
X57180Y-36701D01*
X58567Y-38976D02*
X58567Y-38601D01*
X58292Y-40127D02*
X58292Y-38976D01*
X58180Y-40240D02*
X58292Y-40127D01*
X58567Y-38976D02*
X58292Y-38976D01*
X58480Y-38513D02*
X58567Y-38601D01*
X58480Y-37401D02*
X58480Y-38513D01*
X57780Y-36701D02*
X57780Y-35826D01*
X58480Y-37401D02*
X57780Y-36701D01*
X58040Y-40240D02*
X58180Y-40240D01*
X58040Y-40240D02*
X57900Y-40240D01*
X57409Y-40760D02*
X57100Y-40760D01*
X57619Y-40550D02*
X57409Y-40760D01*
X57619Y-40240D02*
X57619Y-40550D01*
X57900Y-40240D02*
X57619Y-40240D01*
M02*
