G04 (created by PCBNEW-RS274X (2012-01-19 BZR 3256)-stable) date Fri 09 Mar 2012 12:00:35 PM CET*
G01*
G70*
G90*
%MOIN*%
G04 Gerber Fmt 3.4, Leading zero omitted, Abs format*
%FSLAX34Y34*%
G04 APERTURE LIST*
%ADD10C,0.006000*%
%ADD11R,0.063000X0.027600*%
%ADD12R,0.082700X0.027600*%
%ADD13R,0.108300X0.078700*%
%ADD14R,0.060000X0.080000*%
%ADD15R,0.080000X0.060000*%
%ADD16R,0.025000X0.045000*%
%ADD17R,0.045000X0.025000*%
%ADD18R,0.013800X0.031500*%
%ADD19R,0.031500X0.013800*%
%ADD20R,0.128000X0.128000*%
%ADD21R,0.216500X0.078700*%
%ADD22R,0.086600X0.060000*%
%ADD23O,0.086600X0.060000*%
%ADD24C,0.078700*%
%ADD25C,0.063000*%
%ADD26R,0.086600X0.031500*%
%ADD27R,0.062900X0.070900*%
%ADD28C,0.067000*%
%ADD29C,0.078800*%
%ADD30C,0.023600*%
%ADD31C,0.013600*%
%ADD32C,0.011800*%
%ADD33C,0.010000*%
G04 APERTURE END LIST*
G54D10*
G54D11*
X34291Y-32166D03*
G54D12*
X34193Y-31575D03*
G54D11*
X34291Y-30984D03*
G54D13*
X33248Y-31575D03*
G54D14*
X26516Y-29055D03*
X25216Y-29055D03*
X31870Y-33504D03*
X33170Y-33504D03*
G54D15*
X29626Y-23977D03*
X29626Y-22677D03*
G54D14*
X32540Y-29370D03*
X31240Y-29370D03*
G54D16*
X26157Y-21811D03*
X26757Y-21811D03*
X28489Y-21811D03*
X27889Y-21811D03*
G54D17*
X33622Y-29355D03*
X33622Y-28755D03*
G54D16*
X25842Y-22835D03*
X26442Y-22835D03*
G54D18*
X28051Y-28189D03*
X28307Y-28189D03*
X28819Y-28189D03*
X29075Y-28189D03*
X29331Y-28189D03*
X29587Y-28189D03*
G54D19*
X30906Y-27382D03*
X30906Y-27126D03*
X30906Y-26870D03*
X30906Y-26614D03*
X30906Y-26358D03*
X30906Y-26102D03*
X30906Y-25846D03*
G54D18*
X28563Y-28189D03*
G54D20*
X29971Y-27254D03*
X28691Y-27254D03*
X28691Y-25974D03*
X29971Y-25974D03*
G54D18*
X30099Y-25039D03*
X29843Y-25039D03*
X29587Y-25039D03*
X29331Y-25039D03*
X29075Y-25039D03*
X28819Y-25039D03*
X28563Y-25039D03*
G54D19*
X27756Y-25846D03*
X27756Y-26102D03*
X27756Y-26358D03*
X27756Y-26614D03*
X27756Y-26870D03*
X27756Y-27126D03*
X27756Y-27382D03*
G54D18*
X29843Y-28189D03*
X30099Y-28189D03*
X30355Y-28189D03*
X30611Y-28189D03*
G54D19*
X30906Y-27894D03*
X30906Y-27638D03*
X30906Y-25590D03*
X30906Y-25334D03*
G54D18*
X30611Y-25039D03*
X30355Y-25039D03*
X28307Y-25039D03*
X28051Y-25039D03*
G54D19*
X27756Y-25334D03*
X27756Y-25590D03*
X27756Y-27638D03*
X27756Y-27894D03*
G54D21*
X29724Y-20157D03*
X26024Y-20157D03*
G54D22*
X34685Y-29508D03*
G54D23*
X34685Y-28508D03*
X34685Y-27508D03*
X34685Y-26508D03*
X34685Y-25508D03*
X34685Y-24508D03*
G54D24*
X33130Y-24154D03*
X31358Y-21594D03*
X31358Y-24154D03*
X33130Y-21594D03*
G54D25*
X29823Y-30867D03*
X29823Y-32441D03*
X27855Y-30867D03*
X27855Y-32441D03*
G54D26*
X25019Y-25867D03*
X25019Y-26379D03*
X25019Y-26891D03*
G54D27*
X26504Y-23819D03*
X25386Y-23819D03*
G54D28*
X25862Y-24629D03*
X27084Y-26358D03*
G54D29*
X30442Y-29117D03*
G54D28*
X32533Y-27432D03*
X31681Y-26614D03*
X33183Y-25659D03*
X27105Y-27245D03*
X31507Y-25537D03*
G54D30*
X33248Y-31575D02*
X33248Y-31374D01*
X33248Y-31374D02*
X33248Y-30960D01*
X33357Y-31374D02*
X33558Y-31575D01*
X33248Y-31374D02*
X33357Y-31374D01*
X34193Y-31575D02*
X33558Y-31575D01*
X34685Y-28508D02*
X34031Y-28508D01*
X33622Y-28755D02*
X33622Y-28582D01*
X33622Y-28582D02*
X33622Y-28409D01*
X33061Y-29143D02*
X33061Y-29370D01*
X33622Y-28582D02*
X33061Y-29143D01*
X32540Y-29370D02*
X33061Y-29370D01*
X32540Y-29370D02*
X32540Y-29991D01*
G54D31*
X29587Y-28189D02*
X29587Y-28517D01*
G54D30*
X32540Y-30252D02*
X32540Y-29991D01*
X33248Y-30960D02*
X32540Y-30252D01*
X30157Y-29991D02*
X32540Y-29991D01*
X29805Y-29639D02*
X30157Y-29991D01*
X29805Y-28517D02*
X29805Y-29639D01*
G54D31*
X29587Y-28517D02*
X29805Y-28517D01*
X29805Y-28517D02*
X29843Y-28517D01*
X29843Y-28189D02*
X29843Y-28517D01*
G54D30*
X34031Y-28508D02*
X33888Y-28365D01*
X33844Y-28409D02*
X33622Y-28409D01*
X33888Y-28365D02*
X33844Y-28409D01*
X24849Y-23311D02*
X25325Y-22835D01*
X24849Y-25697D02*
X24849Y-23311D01*
X25019Y-25867D02*
X24849Y-25697D01*
X25325Y-22835D02*
X25842Y-22835D01*
X29626Y-23977D02*
X30247Y-23977D01*
X34030Y-28223D02*
X33888Y-28365D01*
X34030Y-24129D02*
X34030Y-28223D01*
X33277Y-23376D02*
X34030Y-24129D01*
X32523Y-23376D02*
X33277Y-23376D01*
X32353Y-23206D02*
X32523Y-23376D01*
X32353Y-20454D02*
X32353Y-23206D01*
X31020Y-19121D02*
X32353Y-20454D01*
X25271Y-19121D02*
X31020Y-19121D01*
X24719Y-19673D02*
X25271Y-19121D01*
X24719Y-22229D02*
X24719Y-19673D01*
X25325Y-22835D02*
X24719Y-22229D01*
X31195Y-24925D02*
X30247Y-23977D01*
X31459Y-24925D02*
X31195Y-24925D01*
X32523Y-23861D02*
X31459Y-24925D01*
X32523Y-23376D02*
X32523Y-23861D01*
X29626Y-23977D02*
X29626Y-24498D01*
X29339Y-24498D02*
X29626Y-24498D01*
X29271Y-24566D02*
X29339Y-24498D01*
X29271Y-25039D02*
X29271Y-24566D01*
G54D31*
X29331Y-25039D02*
X29271Y-25039D01*
X29271Y-25039D02*
X29075Y-25039D01*
G54D30*
X30286Y-32441D02*
X31349Y-33504D01*
X29823Y-32441D02*
X30286Y-32441D01*
X31870Y-33504D02*
X31610Y-33504D01*
X31610Y-33504D02*
X31349Y-33504D01*
X34827Y-33376D02*
X34827Y-30984D01*
X34077Y-34126D02*
X34827Y-33376D01*
X32232Y-34126D02*
X34077Y-34126D01*
X31610Y-33504D02*
X32232Y-34126D01*
X34291Y-30984D02*
X34827Y-30984D01*
G54D32*
X25386Y-23819D02*
X25862Y-23819D01*
X25862Y-23819D02*
X25862Y-24629D01*
X27084Y-26358D02*
X27756Y-26358D01*
G54D30*
X28242Y-31620D02*
X29331Y-31620D01*
X29626Y-22677D02*
X30247Y-22677D01*
X29626Y-22677D02*
X29626Y-23198D01*
G54D31*
X28819Y-25039D02*
X28733Y-25039D01*
X28733Y-25039D02*
X28563Y-25039D01*
G54D30*
X29105Y-23198D02*
X29626Y-23198D01*
X28733Y-23570D02*
X29105Y-23198D01*
X28733Y-25039D02*
X28733Y-23570D01*
X25524Y-29676D02*
X27855Y-32007D01*
X25216Y-29676D02*
X25524Y-29676D01*
X27855Y-32007D02*
X27855Y-32441D01*
X25216Y-29055D02*
X25216Y-29676D01*
X26757Y-21811D02*
X27103Y-21811D01*
X27889Y-21811D02*
X27103Y-21811D01*
X31240Y-29370D02*
X30719Y-29370D01*
X30695Y-29370D02*
X30442Y-29117D01*
X30719Y-29370D02*
X30695Y-29370D01*
X33170Y-33504D02*
X33161Y-33504D01*
X33161Y-33504D02*
X33152Y-33504D01*
X34291Y-32374D02*
X34291Y-32166D01*
X33161Y-33504D02*
X34291Y-32374D01*
X25673Y-27977D02*
X25216Y-28434D01*
X25673Y-26891D02*
X25673Y-27977D01*
X25019Y-26891D02*
X25673Y-26891D01*
X25216Y-29055D02*
X25216Y-28434D01*
G54D31*
X29331Y-31263D02*
X29331Y-28189D01*
G54D30*
X29331Y-31620D02*
X29331Y-31263D01*
X27855Y-32007D02*
X28242Y-31620D01*
X31268Y-31620D02*
X33152Y-33504D01*
X29331Y-31620D02*
X31268Y-31620D01*
X30247Y-23043D02*
X30247Y-22677D01*
X31358Y-24154D02*
X30247Y-23043D01*
X27889Y-20072D02*
X27889Y-21811D01*
X28419Y-19542D02*
X27889Y-20072D01*
X30960Y-19542D02*
X28419Y-19542D01*
X31084Y-19666D02*
X30960Y-19542D01*
X31084Y-20602D02*
X31084Y-19666D01*
X30247Y-21439D02*
X31084Y-20602D01*
X30247Y-22677D02*
X30247Y-21439D01*
G54D32*
X28307Y-22380D02*
X28489Y-22198D01*
X28307Y-25039D02*
X28307Y-22380D01*
X28489Y-21811D02*
X28489Y-22198D01*
X28776Y-21661D02*
X28776Y-21811D01*
X29724Y-20713D02*
X28776Y-21661D01*
X29724Y-20157D02*
X29724Y-20713D01*
X28489Y-21811D02*
X28776Y-21811D01*
X26157Y-20846D02*
X26157Y-21811D01*
X26024Y-20713D02*
X26157Y-20846D01*
X26024Y-20157D02*
X26024Y-20713D01*
X26444Y-22098D02*
X26444Y-21811D01*
X28051Y-23705D02*
X26444Y-22098D01*
X28051Y-25039D02*
X28051Y-23705D01*
X26157Y-21811D02*
X26444Y-21811D01*
X30906Y-26358D02*
X31226Y-26358D01*
X32533Y-26721D02*
X32533Y-27432D01*
X31846Y-26034D02*
X32533Y-26721D01*
X31550Y-26034D02*
X31846Y-26034D01*
X31226Y-26358D02*
X31550Y-26034D01*
X34090Y-29436D02*
X34009Y-29355D01*
X34090Y-29508D02*
X34090Y-29436D01*
X33622Y-29355D02*
X34009Y-29355D01*
X34685Y-29508D02*
X34090Y-29508D01*
X31681Y-26614D02*
X30906Y-26614D01*
X30906Y-26870D02*
X31226Y-26870D01*
X32319Y-27963D02*
X31226Y-26870D01*
X32708Y-27963D02*
X32319Y-27963D01*
X33183Y-27488D02*
X32708Y-27963D01*
X33183Y-25659D02*
X33183Y-27488D01*
X27437Y-29135D02*
X27437Y-27638D01*
X26948Y-29624D02*
X27437Y-29135D01*
X26075Y-29624D02*
X26948Y-29624D01*
X25971Y-29520D02*
X26075Y-29624D01*
X25971Y-26412D02*
X25971Y-29520D01*
X25938Y-26379D02*
X25971Y-26412D01*
X25019Y-26379D02*
X25938Y-26379D01*
X27756Y-27638D02*
X27437Y-27638D01*
X26516Y-29055D02*
X26516Y-28493D01*
X26516Y-26036D02*
X26516Y-28493D01*
X26785Y-25767D02*
X26516Y-26036D01*
X27196Y-25767D02*
X26785Y-25767D01*
X27531Y-26102D02*
X27196Y-25767D01*
X27756Y-26102D02*
X27531Y-26102D01*
X27242Y-27382D02*
X27105Y-27245D01*
X27756Y-27382D02*
X27242Y-27382D01*
X32474Y-28508D02*
X30099Y-28508D01*
X33749Y-27233D02*
X32474Y-28508D01*
X33749Y-24773D02*
X33749Y-27233D01*
X33130Y-24154D02*
X33749Y-24773D01*
X30099Y-28189D02*
X30099Y-28508D01*
X26442Y-23241D02*
X26442Y-22835D01*
X26504Y-23303D02*
X26442Y-23241D01*
X26504Y-23819D02*
X26504Y-23303D01*
X31168Y-26102D02*
X30906Y-26102D01*
X31507Y-25763D02*
X31168Y-26102D01*
X31507Y-25537D02*
X31507Y-25763D01*
G54D10*
G36*
X30921Y-19542D02*
X30856Y-19515D01*
X30757Y-19515D01*
X28593Y-19515D01*
X28501Y-19553D01*
X28431Y-19623D01*
X28393Y-19714D01*
X28393Y-19813D01*
X28393Y-20599D01*
X28431Y-20691D01*
X28501Y-20761D01*
X28592Y-20799D01*
X28691Y-20799D01*
X29201Y-20799D01*
X28663Y-21337D01*
X28565Y-21337D01*
X28315Y-21337D01*
X28223Y-21375D01*
X28189Y-21409D01*
X28155Y-21375D01*
X28063Y-21337D01*
X28001Y-21336D01*
X27939Y-21398D01*
X27939Y-21711D01*
X27939Y-21761D01*
X27939Y-21861D01*
X27939Y-21911D01*
X27939Y-22224D01*
X28001Y-22286D01*
X28017Y-22285D01*
X27998Y-22380D01*
X27998Y-23215D01*
X27839Y-23056D01*
X27839Y-22224D01*
X27839Y-21861D01*
X27839Y-21761D01*
X27839Y-21398D01*
X27777Y-21336D01*
X27715Y-21337D01*
X27623Y-21375D01*
X27553Y-21445D01*
X27515Y-21536D01*
X27515Y-21635D01*
X27514Y-21699D01*
X27576Y-21761D01*
X27839Y-21761D01*
X27839Y-21861D01*
X27576Y-21861D01*
X27514Y-21923D01*
X27515Y-21987D01*
X27515Y-22086D01*
X27553Y-22177D01*
X27623Y-22247D01*
X27715Y-22285D01*
X27777Y-22286D01*
X27839Y-22224D01*
X27839Y-23056D01*
X27026Y-22243D01*
X27093Y-22177D01*
X27131Y-22086D01*
X27131Y-21987D01*
X27132Y-21923D01*
X27132Y-21699D01*
X27131Y-21635D01*
X27131Y-21536D01*
X27093Y-21445D01*
X27023Y-21375D01*
X26931Y-21337D01*
X26869Y-21336D01*
X26807Y-21398D01*
X26807Y-21761D01*
X27070Y-21761D01*
X27132Y-21699D01*
X27132Y-21923D01*
X27070Y-21861D01*
X26857Y-21861D01*
X26807Y-21861D01*
X26753Y-21861D01*
X26753Y-21811D01*
X26729Y-21693D01*
X26707Y-21660D01*
X26707Y-21398D01*
X26645Y-21336D01*
X26583Y-21337D01*
X26491Y-21375D01*
X26466Y-21400D01*
X26466Y-20846D01*
X26456Y-20799D01*
X27155Y-20799D01*
X27247Y-20761D01*
X27317Y-20691D01*
X27355Y-20600D01*
X27355Y-20501D01*
X27355Y-19715D01*
X27317Y-19623D01*
X27247Y-19553D01*
X27156Y-19515D01*
X27057Y-19515D01*
X25397Y-19515D01*
X25423Y-19489D01*
X30868Y-19489D01*
X30921Y-19542D01*
X30921Y-19542D01*
G37*
G54D33*
X30921Y-19542D02*
X30856Y-19515D01*
X30757Y-19515D01*
X28593Y-19515D01*
X28501Y-19553D01*
X28431Y-19623D01*
X28393Y-19714D01*
X28393Y-19813D01*
X28393Y-20599D01*
X28431Y-20691D01*
X28501Y-20761D01*
X28592Y-20799D01*
X28691Y-20799D01*
X29201Y-20799D01*
X28663Y-21337D01*
X28565Y-21337D01*
X28315Y-21337D01*
X28223Y-21375D01*
X28189Y-21409D01*
X28155Y-21375D01*
X28063Y-21337D01*
X28001Y-21336D01*
X27939Y-21398D01*
X27939Y-21711D01*
X27939Y-21761D01*
X27939Y-21861D01*
X27939Y-21911D01*
X27939Y-22224D01*
X28001Y-22286D01*
X28017Y-22285D01*
X27998Y-22380D01*
X27998Y-23215D01*
X27839Y-23056D01*
X27839Y-22224D01*
X27839Y-21861D01*
X27839Y-21761D01*
X27839Y-21398D01*
X27777Y-21336D01*
X27715Y-21337D01*
X27623Y-21375D01*
X27553Y-21445D01*
X27515Y-21536D01*
X27515Y-21635D01*
X27514Y-21699D01*
X27576Y-21761D01*
X27839Y-21761D01*
X27839Y-21861D01*
X27576Y-21861D01*
X27514Y-21923D01*
X27515Y-21987D01*
X27515Y-22086D01*
X27553Y-22177D01*
X27623Y-22247D01*
X27715Y-22285D01*
X27777Y-22286D01*
X27839Y-22224D01*
X27839Y-23056D01*
X27026Y-22243D01*
X27093Y-22177D01*
X27131Y-22086D01*
X27131Y-21987D01*
X27132Y-21923D01*
X27132Y-21699D01*
X27131Y-21635D01*
X27131Y-21536D01*
X27093Y-21445D01*
X27023Y-21375D01*
X26931Y-21337D01*
X26869Y-21336D01*
X26807Y-21398D01*
X26807Y-21761D01*
X27070Y-21761D01*
X27132Y-21699D01*
X27132Y-21923D01*
X27070Y-21861D01*
X26857Y-21861D01*
X26807Y-21861D01*
X26753Y-21861D01*
X26753Y-21811D01*
X26729Y-21693D01*
X26707Y-21660D01*
X26707Y-21398D01*
X26645Y-21336D01*
X26583Y-21337D01*
X26491Y-21375D01*
X26466Y-21400D01*
X26466Y-20846D01*
X26456Y-20799D01*
X27155Y-20799D01*
X27247Y-20761D01*
X27317Y-20691D01*
X27355Y-20600D01*
X27355Y-20501D01*
X27355Y-19715D01*
X27317Y-19623D01*
X27247Y-19553D01*
X27156Y-19515D01*
X27057Y-19515D01*
X25397Y-19515D01*
X25423Y-19489D01*
X30868Y-19489D01*
X30921Y-19542D01*
G54D10*
G36*
X32041Y-28817D02*
X32029Y-28829D01*
X31991Y-28920D01*
X31991Y-29019D01*
X31991Y-29623D01*
X31789Y-29623D01*
X31790Y-29482D01*
X31728Y-29420D01*
X31340Y-29420D01*
X31290Y-29420D01*
X31190Y-29420D01*
X31140Y-29420D01*
X30752Y-29420D01*
X30690Y-29482D01*
X30690Y-29623D01*
X30309Y-29623D01*
X30173Y-29486D01*
X30173Y-28817D01*
X30741Y-28817D01*
X30729Y-28829D01*
X30691Y-28920D01*
X30691Y-29019D01*
X30690Y-29258D01*
X30752Y-29320D01*
X31140Y-29320D01*
X31190Y-29320D01*
X31290Y-29320D01*
X31340Y-29320D01*
X31728Y-29320D01*
X31790Y-29258D01*
X31789Y-29019D01*
X31789Y-28920D01*
X31751Y-28829D01*
X31739Y-28817D01*
X32041Y-28817D01*
X32041Y-28817D01*
G37*
G54D33*
X32041Y-28817D02*
X32029Y-28829D01*
X31991Y-28920D01*
X31991Y-29019D01*
X31991Y-29623D01*
X31789Y-29623D01*
X31790Y-29482D01*
X31728Y-29420D01*
X31340Y-29420D01*
X31290Y-29420D01*
X31190Y-29420D01*
X31140Y-29420D01*
X30752Y-29420D01*
X30690Y-29482D01*
X30690Y-29623D01*
X30309Y-29623D01*
X30173Y-29486D01*
X30173Y-28817D01*
X30741Y-28817D01*
X30729Y-28829D01*
X30691Y-28920D01*
X30691Y-29019D01*
X30690Y-29258D01*
X30752Y-29320D01*
X31140Y-29320D01*
X31190Y-29320D01*
X31290Y-29320D01*
X31340Y-29320D01*
X31728Y-29320D01*
X31790Y-29258D01*
X31789Y-29019D01*
X31789Y-28920D01*
X31751Y-28829D01*
X31739Y-28817D01*
X32041Y-28817D01*
G54D10*
G36*
X32155Y-23708D02*
X31946Y-23916D01*
X31906Y-23818D01*
X31802Y-23781D01*
X31731Y-23852D01*
X31731Y-23710D01*
X31694Y-23606D01*
X31458Y-23519D01*
X31208Y-23529D01*
X31022Y-23606D01*
X30985Y-23710D01*
X31358Y-24083D01*
X31731Y-23710D01*
X31731Y-23852D01*
X31464Y-24119D01*
X31429Y-24154D01*
X31358Y-24225D01*
X31287Y-24154D01*
X31252Y-24119D01*
X30914Y-23781D01*
X30810Y-23818D01*
X30755Y-23965D01*
X30507Y-23717D01*
X30388Y-23637D01*
X30276Y-23614D01*
X30276Y-22789D01*
X30276Y-22565D01*
X30275Y-22328D01*
X30237Y-22236D01*
X30167Y-22166D01*
X30076Y-22128D01*
X29977Y-22128D01*
X29738Y-22127D01*
X29676Y-22189D01*
X29676Y-22627D01*
X30214Y-22627D01*
X30276Y-22565D01*
X30276Y-22789D01*
X30214Y-22727D01*
X29676Y-22727D01*
X29676Y-23165D01*
X29738Y-23227D01*
X29977Y-23226D01*
X30076Y-23226D01*
X30167Y-23188D01*
X30237Y-23118D01*
X30275Y-23026D01*
X30276Y-22789D01*
X30276Y-23614D01*
X30268Y-23613D01*
X30237Y-23536D01*
X30167Y-23466D01*
X30076Y-23428D01*
X29977Y-23428D01*
X29576Y-23428D01*
X29576Y-23165D01*
X29576Y-22727D01*
X29576Y-22627D01*
X29576Y-22189D01*
X29514Y-22127D01*
X29275Y-22128D01*
X29176Y-22128D01*
X29085Y-22166D01*
X29015Y-22236D01*
X28977Y-22328D01*
X28976Y-22565D01*
X29038Y-22627D01*
X29576Y-22627D01*
X29576Y-22727D01*
X29038Y-22727D01*
X28976Y-22789D01*
X28977Y-23026D01*
X29015Y-23118D01*
X29085Y-23188D01*
X29176Y-23226D01*
X29275Y-23226D01*
X29514Y-23227D01*
X29576Y-23165D01*
X29576Y-23428D01*
X29177Y-23428D01*
X29085Y-23466D01*
X29015Y-23536D01*
X28977Y-23627D01*
X28977Y-23726D01*
X28977Y-24326D01*
X28984Y-24344D01*
X28931Y-24425D01*
X28903Y-24566D01*
X28903Y-24644D01*
X28883Y-24663D01*
X28865Y-24671D01*
X28819Y-24717D01*
X28773Y-24671D01*
X28754Y-24663D01*
X28723Y-24632D01*
X28701Y-24633D01*
X28691Y-24637D01*
X28681Y-24633D01*
X28663Y-24632D01*
X28659Y-24632D01*
X28616Y-24632D01*
X28616Y-22507D01*
X28707Y-22417D01*
X28707Y-22416D01*
X28774Y-22316D01*
X28796Y-22205D01*
X28825Y-22177D01*
X28855Y-22103D01*
X28894Y-22096D01*
X28994Y-22029D01*
X29061Y-21929D01*
X29085Y-21811D01*
X29085Y-21788D01*
X29942Y-20932D01*
X29942Y-20931D01*
X29986Y-20865D01*
X30008Y-20832D01*
X30009Y-20831D01*
X30015Y-20799D01*
X30855Y-20799D01*
X30947Y-20761D01*
X31017Y-20691D01*
X31055Y-20600D01*
X31055Y-20501D01*
X31055Y-19715D01*
X31027Y-19648D01*
X31985Y-20606D01*
X31985Y-21428D01*
X31903Y-21231D01*
X31723Y-21050D01*
X31487Y-20951D01*
X31231Y-20951D01*
X30995Y-21049D01*
X30814Y-21229D01*
X30715Y-21465D01*
X30715Y-21721D01*
X30813Y-21957D01*
X30993Y-22138D01*
X31229Y-22237D01*
X31485Y-22237D01*
X31721Y-22139D01*
X31902Y-21959D01*
X31985Y-21761D01*
X31985Y-23206D01*
X32013Y-23347D01*
X32093Y-23466D01*
X32155Y-23528D01*
X32155Y-23708D01*
X32155Y-23708D01*
G37*
G54D33*
X32155Y-23708D02*
X31946Y-23916D01*
X31906Y-23818D01*
X31802Y-23781D01*
X31731Y-23852D01*
X31731Y-23710D01*
X31694Y-23606D01*
X31458Y-23519D01*
X31208Y-23529D01*
X31022Y-23606D01*
X30985Y-23710D01*
X31358Y-24083D01*
X31731Y-23710D01*
X31731Y-23852D01*
X31464Y-24119D01*
X31429Y-24154D01*
X31358Y-24225D01*
X31287Y-24154D01*
X31252Y-24119D01*
X30914Y-23781D01*
X30810Y-23818D01*
X30755Y-23965D01*
X30507Y-23717D01*
X30388Y-23637D01*
X30276Y-23614D01*
X30276Y-22789D01*
X30276Y-22565D01*
X30275Y-22328D01*
X30237Y-22236D01*
X30167Y-22166D01*
X30076Y-22128D01*
X29977Y-22128D01*
X29738Y-22127D01*
X29676Y-22189D01*
X29676Y-22627D01*
X30214Y-22627D01*
X30276Y-22565D01*
X30276Y-22789D01*
X30214Y-22727D01*
X29676Y-22727D01*
X29676Y-23165D01*
X29738Y-23227D01*
X29977Y-23226D01*
X30076Y-23226D01*
X30167Y-23188D01*
X30237Y-23118D01*
X30275Y-23026D01*
X30276Y-22789D01*
X30276Y-23614D01*
X30268Y-23613D01*
X30237Y-23536D01*
X30167Y-23466D01*
X30076Y-23428D01*
X29977Y-23428D01*
X29576Y-23428D01*
X29576Y-23165D01*
X29576Y-22727D01*
X29576Y-22627D01*
X29576Y-22189D01*
X29514Y-22127D01*
X29275Y-22128D01*
X29176Y-22128D01*
X29085Y-22166D01*
X29015Y-22236D01*
X28977Y-22328D01*
X28976Y-22565D01*
X29038Y-22627D01*
X29576Y-22627D01*
X29576Y-22727D01*
X29038Y-22727D01*
X28976Y-22789D01*
X28977Y-23026D01*
X29015Y-23118D01*
X29085Y-23188D01*
X29176Y-23226D01*
X29275Y-23226D01*
X29514Y-23227D01*
X29576Y-23165D01*
X29576Y-23428D01*
X29177Y-23428D01*
X29085Y-23466D01*
X29015Y-23536D01*
X28977Y-23627D01*
X28977Y-23726D01*
X28977Y-24326D01*
X28984Y-24344D01*
X28931Y-24425D01*
X28903Y-24566D01*
X28903Y-24644D01*
X28883Y-24663D01*
X28865Y-24671D01*
X28819Y-24717D01*
X28773Y-24671D01*
X28754Y-24663D01*
X28723Y-24632D01*
X28701Y-24633D01*
X28691Y-24637D01*
X28681Y-24633D01*
X28663Y-24632D01*
X28659Y-24632D01*
X28616Y-24632D01*
X28616Y-22507D01*
X28707Y-22417D01*
X28707Y-22416D01*
X28774Y-22316D01*
X28796Y-22205D01*
X28825Y-22177D01*
X28855Y-22103D01*
X28894Y-22096D01*
X28994Y-22029D01*
X29061Y-21929D01*
X29085Y-21811D01*
X29085Y-21788D01*
X29942Y-20932D01*
X29942Y-20931D01*
X29986Y-20865D01*
X30008Y-20832D01*
X30009Y-20831D01*
X30015Y-20799D01*
X30855Y-20799D01*
X30947Y-20761D01*
X31017Y-20691D01*
X31055Y-20600D01*
X31055Y-20501D01*
X31055Y-19715D01*
X31027Y-19648D01*
X31985Y-20606D01*
X31985Y-21428D01*
X31903Y-21231D01*
X31723Y-21050D01*
X31487Y-20951D01*
X31231Y-20951D01*
X30995Y-21049D01*
X30814Y-21229D01*
X30715Y-21465D01*
X30715Y-21721D01*
X30813Y-21957D01*
X30993Y-22138D01*
X31229Y-22237D01*
X31485Y-22237D01*
X31721Y-22139D01*
X31902Y-21959D01*
X31985Y-21761D01*
X31985Y-23206D01*
X32013Y-23347D01*
X32093Y-23466D01*
X32155Y-23528D01*
X32155Y-23708D01*
G54D10*
G36*
X34459Y-33223D02*
X33924Y-33758D01*
X33719Y-33758D01*
X33720Y-33616D01*
X33720Y-33392D01*
X33719Y-33153D01*
X33719Y-33054D01*
X33681Y-32963D01*
X33611Y-32893D01*
X33519Y-32855D01*
X33282Y-32854D01*
X33220Y-32916D01*
X33220Y-33454D01*
X33658Y-33454D01*
X33720Y-33392D01*
X33720Y-33616D01*
X33658Y-33554D01*
X33270Y-33554D01*
X33220Y-33554D01*
X33120Y-33554D01*
X33120Y-33454D01*
X33120Y-32916D01*
X33058Y-32854D01*
X32821Y-32855D01*
X32729Y-32893D01*
X32659Y-32963D01*
X32621Y-33054D01*
X32621Y-33153D01*
X32620Y-33392D01*
X32682Y-33454D01*
X33120Y-33454D01*
X33120Y-33554D01*
X33070Y-33554D01*
X32682Y-33554D01*
X32620Y-33616D01*
X32620Y-33758D01*
X32419Y-33758D01*
X32419Y-33055D01*
X32381Y-32963D01*
X32311Y-32893D01*
X32220Y-32855D01*
X32121Y-32855D01*
X31521Y-32855D01*
X31429Y-32893D01*
X31359Y-32963D01*
X31349Y-32984D01*
X30546Y-32181D01*
X30427Y-32101D01*
X30388Y-32093D01*
X30388Y-30980D01*
X30388Y-30755D01*
X30302Y-30547D01*
X30143Y-30388D01*
X29936Y-30302D01*
X29711Y-30302D01*
X29503Y-30388D01*
X29344Y-30547D01*
X29258Y-30754D01*
X29258Y-30979D01*
X29344Y-31187D01*
X29503Y-31346D01*
X29710Y-31432D01*
X29935Y-31432D01*
X30143Y-31346D01*
X30302Y-31187D01*
X30388Y-30980D01*
X30388Y-32093D01*
X30286Y-32073D01*
X30254Y-32073D01*
X30143Y-31962D01*
X29936Y-31876D01*
X29711Y-31876D01*
X29503Y-31962D01*
X29344Y-32121D01*
X29258Y-32328D01*
X29258Y-32553D01*
X29344Y-32761D01*
X29503Y-32920D01*
X29710Y-33006D01*
X29935Y-33006D01*
X30143Y-32920D01*
X30194Y-32869D01*
X31089Y-33764D01*
X31208Y-33844D01*
X31321Y-33866D01*
X31321Y-33953D01*
X31359Y-34045D01*
X31429Y-34115D01*
X31520Y-34153D01*
X31619Y-34153D01*
X31738Y-34153D01*
X31787Y-34202D01*
X28420Y-34202D01*
X28420Y-30980D01*
X28420Y-30755D01*
X28334Y-30547D01*
X28175Y-30388D01*
X27968Y-30302D01*
X27743Y-30302D01*
X27535Y-30388D01*
X27376Y-30547D01*
X27290Y-30754D01*
X27290Y-30979D01*
X27376Y-31187D01*
X27535Y-31346D01*
X27742Y-31432D01*
X27967Y-31432D01*
X28175Y-31346D01*
X28334Y-31187D01*
X28420Y-30980D01*
X28420Y-34202D01*
X28413Y-34202D01*
X28413Y-32524D01*
X28402Y-32304D01*
X28339Y-32151D01*
X28244Y-32123D01*
X28173Y-32194D01*
X28173Y-32052D01*
X28145Y-31957D01*
X27938Y-31883D01*
X27718Y-31894D01*
X27565Y-31957D01*
X27537Y-32052D01*
X27855Y-32370D01*
X28173Y-32052D01*
X28173Y-32194D01*
X27926Y-32441D01*
X28244Y-32759D01*
X28339Y-32731D01*
X28413Y-32524D01*
X28413Y-34202D01*
X28173Y-34202D01*
X28173Y-32830D01*
X27855Y-32512D01*
X27784Y-32583D01*
X27784Y-32441D01*
X27466Y-32123D01*
X27371Y-32151D01*
X27297Y-32358D01*
X27308Y-32578D01*
X27371Y-32731D01*
X27466Y-32759D01*
X27784Y-32441D01*
X27784Y-32583D01*
X27537Y-32830D01*
X27565Y-32925D01*
X27772Y-32999D01*
X27992Y-32988D01*
X28145Y-32925D01*
X28173Y-32830D01*
X28173Y-34202D01*
X24853Y-34202D01*
X24853Y-33558D01*
X25081Y-33653D01*
X25508Y-33653D01*
X25903Y-33490D01*
X26205Y-33188D01*
X26369Y-32793D01*
X26369Y-32366D01*
X26206Y-31971D01*
X25904Y-31669D01*
X25509Y-31505D01*
X25082Y-31505D01*
X24853Y-31599D01*
X24853Y-29698D01*
X24867Y-29704D01*
X25104Y-29705D01*
X25166Y-29643D01*
X25166Y-29155D01*
X25166Y-29105D01*
X25166Y-29005D01*
X25166Y-28955D01*
X25166Y-28467D01*
X25104Y-28405D01*
X24867Y-28406D01*
X24853Y-28411D01*
X24853Y-27297D01*
X24907Y-27298D01*
X24969Y-27236D01*
X24969Y-26991D01*
X24969Y-26941D01*
X24969Y-26841D01*
X25069Y-26841D01*
X25069Y-26941D01*
X25069Y-26991D01*
X25069Y-27236D01*
X25131Y-27298D01*
X25403Y-27297D01*
X25502Y-27297D01*
X25593Y-27259D01*
X25662Y-27190D01*
X25662Y-28449D01*
X25657Y-28444D01*
X25565Y-28406D01*
X25328Y-28405D01*
X25266Y-28467D01*
X25266Y-28955D01*
X25266Y-29005D01*
X25266Y-29105D01*
X25266Y-29155D01*
X25266Y-29643D01*
X25328Y-29705D01*
X25565Y-29704D01*
X25657Y-29666D01*
X25685Y-29637D01*
X25686Y-29638D01*
X25753Y-29738D01*
X25856Y-29842D01*
X25857Y-29842D01*
X25957Y-29909D01*
X26075Y-29933D01*
X26948Y-29933D01*
X26948Y-29932D01*
X27066Y-29909D01*
X27166Y-29842D01*
X27655Y-29354D01*
X27655Y-29353D01*
X27722Y-29253D01*
X27745Y-29135D01*
X27746Y-29135D01*
X27746Y-28426D01*
X27771Y-28487D01*
X27841Y-28557D01*
X27932Y-28595D01*
X28031Y-28595D01*
X28169Y-28595D01*
X28178Y-28591D01*
X28188Y-28595D01*
X28287Y-28595D01*
X28425Y-28595D01*
X28434Y-28591D01*
X28444Y-28595D01*
X28543Y-28595D01*
X28681Y-28595D01*
X28690Y-28591D01*
X28700Y-28595D01*
X28799Y-28595D01*
X28937Y-28595D01*
X28946Y-28591D01*
X28956Y-28595D01*
X29055Y-28595D01*
X29193Y-28595D01*
X29203Y-28590D01*
X29213Y-28595D01*
X29231Y-28595D01*
X29231Y-28596D01*
X29235Y-28596D01*
X29284Y-28596D01*
X29293Y-28639D01*
X29362Y-28742D01*
X29437Y-28792D01*
X29437Y-29639D01*
X29465Y-29780D01*
X29545Y-29899D01*
X29896Y-30251D01*
X29897Y-30251D01*
X30016Y-30331D01*
X30156Y-30358D01*
X30157Y-30359D01*
X32193Y-30359D01*
X32200Y-30393D01*
X32280Y-30512D01*
X32701Y-30933D01*
X32658Y-30933D01*
X32566Y-30971D01*
X32496Y-31041D01*
X32458Y-31132D01*
X32458Y-31231D01*
X32458Y-32017D01*
X32496Y-32109D01*
X32566Y-32179D01*
X32657Y-32217D01*
X32756Y-32217D01*
X33726Y-32217D01*
X33726Y-32266D01*
X33738Y-32266D01*
X33726Y-32278D01*
X33727Y-32353D01*
X33765Y-32445D01*
X33835Y-32515D01*
X33926Y-32553D01*
X34025Y-32553D01*
X34179Y-32554D01*
X34241Y-32492D01*
X34241Y-32266D01*
X34241Y-32216D01*
X34241Y-32116D01*
X34341Y-32116D01*
X34341Y-32216D01*
X34341Y-32266D01*
X34341Y-32492D01*
X34403Y-32554D01*
X34459Y-32553D01*
X34459Y-33223D01*
X34459Y-33223D01*
G37*
G54D33*
X34459Y-33223D02*
X33924Y-33758D01*
X33719Y-33758D01*
X33720Y-33616D01*
X33720Y-33392D01*
X33719Y-33153D01*
X33719Y-33054D01*
X33681Y-32963D01*
X33611Y-32893D01*
X33519Y-32855D01*
X33282Y-32854D01*
X33220Y-32916D01*
X33220Y-33454D01*
X33658Y-33454D01*
X33720Y-33392D01*
X33720Y-33616D01*
X33658Y-33554D01*
X33270Y-33554D01*
X33220Y-33554D01*
X33120Y-33554D01*
X33120Y-33454D01*
X33120Y-32916D01*
X33058Y-32854D01*
X32821Y-32855D01*
X32729Y-32893D01*
X32659Y-32963D01*
X32621Y-33054D01*
X32621Y-33153D01*
X32620Y-33392D01*
X32682Y-33454D01*
X33120Y-33454D01*
X33120Y-33554D01*
X33070Y-33554D01*
X32682Y-33554D01*
X32620Y-33616D01*
X32620Y-33758D01*
X32419Y-33758D01*
X32419Y-33055D01*
X32381Y-32963D01*
X32311Y-32893D01*
X32220Y-32855D01*
X32121Y-32855D01*
X31521Y-32855D01*
X31429Y-32893D01*
X31359Y-32963D01*
X31349Y-32984D01*
X30546Y-32181D01*
X30427Y-32101D01*
X30388Y-32093D01*
X30388Y-30980D01*
X30388Y-30755D01*
X30302Y-30547D01*
X30143Y-30388D01*
X29936Y-30302D01*
X29711Y-30302D01*
X29503Y-30388D01*
X29344Y-30547D01*
X29258Y-30754D01*
X29258Y-30979D01*
X29344Y-31187D01*
X29503Y-31346D01*
X29710Y-31432D01*
X29935Y-31432D01*
X30143Y-31346D01*
X30302Y-31187D01*
X30388Y-30980D01*
X30388Y-32093D01*
X30286Y-32073D01*
X30254Y-32073D01*
X30143Y-31962D01*
X29936Y-31876D01*
X29711Y-31876D01*
X29503Y-31962D01*
X29344Y-32121D01*
X29258Y-32328D01*
X29258Y-32553D01*
X29344Y-32761D01*
X29503Y-32920D01*
X29710Y-33006D01*
X29935Y-33006D01*
X30143Y-32920D01*
X30194Y-32869D01*
X31089Y-33764D01*
X31208Y-33844D01*
X31321Y-33866D01*
X31321Y-33953D01*
X31359Y-34045D01*
X31429Y-34115D01*
X31520Y-34153D01*
X31619Y-34153D01*
X31738Y-34153D01*
X31787Y-34202D01*
X28420Y-34202D01*
X28420Y-30980D01*
X28420Y-30755D01*
X28334Y-30547D01*
X28175Y-30388D01*
X27968Y-30302D01*
X27743Y-30302D01*
X27535Y-30388D01*
X27376Y-30547D01*
X27290Y-30754D01*
X27290Y-30979D01*
X27376Y-31187D01*
X27535Y-31346D01*
X27742Y-31432D01*
X27967Y-31432D01*
X28175Y-31346D01*
X28334Y-31187D01*
X28420Y-30980D01*
X28420Y-34202D01*
X28413Y-34202D01*
X28413Y-32524D01*
X28402Y-32304D01*
X28339Y-32151D01*
X28244Y-32123D01*
X28173Y-32194D01*
X28173Y-32052D01*
X28145Y-31957D01*
X27938Y-31883D01*
X27718Y-31894D01*
X27565Y-31957D01*
X27537Y-32052D01*
X27855Y-32370D01*
X28173Y-32052D01*
X28173Y-32194D01*
X27926Y-32441D01*
X28244Y-32759D01*
X28339Y-32731D01*
X28413Y-32524D01*
X28413Y-34202D01*
X28173Y-34202D01*
X28173Y-32830D01*
X27855Y-32512D01*
X27784Y-32583D01*
X27784Y-32441D01*
X27466Y-32123D01*
X27371Y-32151D01*
X27297Y-32358D01*
X27308Y-32578D01*
X27371Y-32731D01*
X27466Y-32759D01*
X27784Y-32441D01*
X27784Y-32583D01*
X27537Y-32830D01*
X27565Y-32925D01*
X27772Y-32999D01*
X27992Y-32988D01*
X28145Y-32925D01*
X28173Y-32830D01*
X28173Y-34202D01*
X24853Y-34202D01*
X24853Y-33558D01*
X25081Y-33653D01*
X25508Y-33653D01*
X25903Y-33490D01*
X26205Y-33188D01*
X26369Y-32793D01*
X26369Y-32366D01*
X26206Y-31971D01*
X25904Y-31669D01*
X25509Y-31505D01*
X25082Y-31505D01*
X24853Y-31599D01*
X24853Y-29698D01*
X24867Y-29704D01*
X25104Y-29705D01*
X25166Y-29643D01*
X25166Y-29155D01*
X25166Y-29105D01*
X25166Y-29005D01*
X25166Y-28955D01*
X25166Y-28467D01*
X25104Y-28405D01*
X24867Y-28406D01*
X24853Y-28411D01*
X24853Y-27297D01*
X24907Y-27298D01*
X24969Y-27236D01*
X24969Y-26991D01*
X24969Y-26941D01*
X24969Y-26841D01*
X25069Y-26841D01*
X25069Y-26941D01*
X25069Y-26991D01*
X25069Y-27236D01*
X25131Y-27298D01*
X25403Y-27297D01*
X25502Y-27297D01*
X25593Y-27259D01*
X25662Y-27190D01*
X25662Y-28449D01*
X25657Y-28444D01*
X25565Y-28406D01*
X25328Y-28405D01*
X25266Y-28467D01*
X25266Y-28955D01*
X25266Y-29005D01*
X25266Y-29105D01*
X25266Y-29155D01*
X25266Y-29643D01*
X25328Y-29705D01*
X25565Y-29704D01*
X25657Y-29666D01*
X25685Y-29637D01*
X25686Y-29638D01*
X25753Y-29738D01*
X25856Y-29842D01*
X25857Y-29842D01*
X25957Y-29909D01*
X26075Y-29933D01*
X26948Y-29933D01*
X26948Y-29932D01*
X27066Y-29909D01*
X27166Y-29842D01*
X27655Y-29354D01*
X27655Y-29353D01*
X27722Y-29253D01*
X27745Y-29135D01*
X27746Y-29135D01*
X27746Y-28426D01*
X27771Y-28487D01*
X27841Y-28557D01*
X27932Y-28595D01*
X28031Y-28595D01*
X28169Y-28595D01*
X28178Y-28591D01*
X28188Y-28595D01*
X28287Y-28595D01*
X28425Y-28595D01*
X28434Y-28591D01*
X28444Y-28595D01*
X28543Y-28595D01*
X28681Y-28595D01*
X28690Y-28591D01*
X28700Y-28595D01*
X28799Y-28595D01*
X28937Y-28595D01*
X28946Y-28591D01*
X28956Y-28595D01*
X29055Y-28595D01*
X29193Y-28595D01*
X29203Y-28590D01*
X29213Y-28595D01*
X29231Y-28595D01*
X29231Y-28596D01*
X29235Y-28596D01*
X29284Y-28596D01*
X29293Y-28639D01*
X29362Y-28742D01*
X29437Y-28792D01*
X29437Y-29639D01*
X29465Y-29780D01*
X29545Y-29899D01*
X29896Y-30251D01*
X29897Y-30251D01*
X30016Y-30331D01*
X30156Y-30358D01*
X30157Y-30359D01*
X32193Y-30359D01*
X32200Y-30393D01*
X32280Y-30512D01*
X32701Y-30933D01*
X32658Y-30933D01*
X32566Y-30971D01*
X32496Y-31041D01*
X32458Y-31132D01*
X32458Y-31231D01*
X32458Y-32017D01*
X32496Y-32109D01*
X32566Y-32179D01*
X32657Y-32217D01*
X32756Y-32217D01*
X33726Y-32217D01*
X33726Y-32266D01*
X33738Y-32266D01*
X33726Y-32278D01*
X33727Y-32353D01*
X33765Y-32445D01*
X33835Y-32515D01*
X33926Y-32553D01*
X34025Y-32553D01*
X34179Y-32554D01*
X34241Y-32492D01*
X34241Y-32266D01*
X34241Y-32216D01*
X34241Y-32116D01*
X34341Y-32116D01*
X34341Y-32216D01*
X34341Y-32266D01*
X34341Y-32492D01*
X34403Y-32554D01*
X34459Y-32553D01*
X34459Y-33223D01*
G54D10*
G36*
X34735Y-27558D02*
X34635Y-27558D01*
X34635Y-27458D01*
X34735Y-27458D01*
X34735Y-27558D01*
X34735Y-27558D01*
G37*
G54D33*
X34735Y-27558D02*
X34635Y-27558D01*
X34635Y-27458D01*
X34735Y-27458D01*
X34735Y-27558D01*
M02*
