G04 (created by PCBNEW-RS274X (2012-01-19 BZR 3256)-stable) date Fri 09 Mar 2012 12:00:35 PM CET*
G01*
G70*
G90*
%MOIN*%
G04 Gerber Fmt 3.4, Leading zero omitted, Abs format*
%FSLAX34Y34*%
G04 APERTURE LIST*
%ADD10C,0.006000*%
%ADD11R,0.086600X0.060000*%
%ADD12O,0.086600X0.060000*%
%ADD13C,0.078700*%
%ADD14C,0.063000*%
%ADD15R,0.086600X0.031500*%
%ADD16R,0.078700X0.059100*%
%ADD17C,0.067000*%
%ADD18C,0.078800*%
%ADD19C,0.011800*%
%ADD20C,0.023600*%
%ADD21C,0.010000*%
G04 APERTURE END LIST*
G54D10*
G54D11*
X34685Y-29508D03*
G54D12*
X34685Y-28508D03*
X34685Y-27508D03*
X34685Y-26508D03*
X34685Y-25508D03*
X34685Y-24508D03*
G54D13*
X33130Y-24154D03*
X31358Y-21594D03*
X31358Y-24154D03*
X33130Y-21594D03*
G54D14*
X29823Y-30867D03*
X29823Y-32441D03*
X27855Y-30867D03*
X27855Y-32441D03*
G54D15*
X25019Y-26123D03*
X25019Y-26635D03*
G54D16*
X24980Y-25217D03*
X24980Y-27539D03*
G54D17*
X25862Y-24629D03*
X27084Y-26358D03*
G54D18*
X30442Y-29117D03*
G54D17*
X32533Y-27432D03*
X31681Y-26614D03*
X33183Y-25659D03*
X27105Y-27245D03*
X31507Y-25537D03*
G54D19*
X27084Y-25851D02*
X27084Y-26358D01*
X25862Y-24629D02*
X27084Y-25851D01*
G54D20*
X27855Y-32441D02*
X27855Y-31750D01*
X25019Y-26635D02*
X25673Y-26635D01*
X27275Y-31170D02*
X27275Y-28237D01*
X27855Y-31750D02*
X27275Y-31170D01*
X27275Y-28237D02*
X31358Y-24154D01*
X30442Y-31092D02*
X30442Y-29117D01*
X29784Y-31750D02*
X30442Y-31092D01*
X27855Y-31750D02*
X29784Y-31750D01*
X30442Y-28737D02*
X30442Y-29117D01*
X34053Y-26876D02*
X32303Y-26876D01*
X34685Y-27508D02*
X34053Y-26876D01*
X32303Y-26876D02*
X30442Y-28737D01*
X25673Y-26635D02*
X27275Y-28237D01*
G54D19*
X34685Y-29508D02*
X34685Y-29046D01*
X34147Y-29046D02*
X32533Y-27432D01*
X34685Y-29046D02*
X34147Y-29046D01*
X31787Y-26508D02*
X31681Y-26614D01*
X34685Y-26508D02*
X31787Y-26508D01*
X33334Y-25508D02*
X33183Y-25659D01*
X34685Y-25508D02*
X33334Y-25508D01*
X25983Y-26123D02*
X27105Y-27245D01*
X25019Y-26123D02*
X25983Y-26123D01*
X27855Y-30867D02*
X29823Y-30867D01*
X29823Y-27221D02*
X31507Y-25537D01*
X29823Y-30867D02*
X29823Y-27221D01*
G54D10*
G36*
X34989Y-33808D02*
X30388Y-33808D01*
X30388Y-32554D01*
X30388Y-32329D01*
X30302Y-32121D01*
X30143Y-31962D01*
X29936Y-31876D01*
X29711Y-31876D01*
X29503Y-31962D01*
X29344Y-32121D01*
X29258Y-32328D01*
X29258Y-32553D01*
X29344Y-32761D01*
X29503Y-32920D01*
X29710Y-33006D01*
X29935Y-33006D01*
X30143Y-32920D01*
X30302Y-32761D01*
X30388Y-32554D01*
X30388Y-33808D01*
X28413Y-33808D01*
X28413Y-32524D01*
X28402Y-32304D01*
X28339Y-32151D01*
X28244Y-32123D01*
X28173Y-32194D01*
X28173Y-32052D01*
X28145Y-31957D01*
X27938Y-31883D01*
X27718Y-31894D01*
X27565Y-31957D01*
X27537Y-32052D01*
X27855Y-32370D01*
X28173Y-32052D01*
X28173Y-32194D01*
X27926Y-32441D01*
X28244Y-32759D01*
X28339Y-32731D01*
X28413Y-32524D01*
X28413Y-33808D01*
X28173Y-33808D01*
X28173Y-32830D01*
X27855Y-32512D01*
X27784Y-32583D01*
X27784Y-32441D01*
X27466Y-32123D01*
X27371Y-32151D01*
X27297Y-32358D01*
X27308Y-32578D01*
X27371Y-32731D01*
X27466Y-32759D01*
X27784Y-32441D01*
X27784Y-32583D01*
X27537Y-32830D01*
X27565Y-32925D01*
X27772Y-32999D01*
X27992Y-32988D01*
X28145Y-32925D01*
X28173Y-32830D01*
X28173Y-33808D01*
X24853Y-33808D01*
X24853Y-33558D01*
X25081Y-33653D01*
X25508Y-33653D01*
X25903Y-33490D01*
X26205Y-33188D01*
X26369Y-32793D01*
X26369Y-32366D01*
X26206Y-31971D01*
X25904Y-31669D01*
X25509Y-31505D01*
X25082Y-31505D01*
X24853Y-31599D01*
X24853Y-28083D01*
X25422Y-28083D01*
X25514Y-28045D01*
X25584Y-27975D01*
X25622Y-27884D01*
X25622Y-27785D01*
X25622Y-27195D01*
X25584Y-27103D01*
X25516Y-27035D01*
X25593Y-27003D01*
X25663Y-26933D01*
X25701Y-26841D01*
X25702Y-26747D01*
X25640Y-26685D01*
X25119Y-26685D01*
X25069Y-26685D01*
X24969Y-26685D01*
X24969Y-26585D01*
X25069Y-26585D01*
X25119Y-26585D01*
X25640Y-26585D01*
X25702Y-26523D01*
X25701Y-26432D01*
X25855Y-26432D01*
X26529Y-27105D01*
X26520Y-27128D01*
X26520Y-27361D01*
X26609Y-27576D01*
X26773Y-27741D01*
X26988Y-27830D01*
X27221Y-27830D01*
X27436Y-27741D01*
X27601Y-27577D01*
X27690Y-27362D01*
X27690Y-27129D01*
X27601Y-26914D01*
X27478Y-26790D01*
X27580Y-26690D01*
X27669Y-26475D01*
X27669Y-26242D01*
X27580Y-26027D01*
X27416Y-25862D01*
X27393Y-25852D01*
X27393Y-25851D01*
X27369Y-25733D01*
X27302Y-25633D01*
X27302Y-25632D01*
X26437Y-24768D01*
X26447Y-24746D01*
X26447Y-24513D01*
X26358Y-24298D01*
X26194Y-24133D01*
X25979Y-24044D01*
X25746Y-24044D01*
X25531Y-24133D01*
X25366Y-24297D01*
X25277Y-24512D01*
X25277Y-24673D01*
X24853Y-24673D01*
X24853Y-19341D01*
X34989Y-19341D01*
X34989Y-19788D01*
X34761Y-19694D01*
X34334Y-19694D01*
X33939Y-19857D01*
X33637Y-20159D01*
X33473Y-20554D01*
X33473Y-20981D01*
X33506Y-21061D01*
X33495Y-21050D01*
X33259Y-20951D01*
X33003Y-20951D01*
X32767Y-21049D01*
X32586Y-21229D01*
X32487Y-21465D01*
X32487Y-21721D01*
X32585Y-21957D01*
X32765Y-22138D01*
X33001Y-22237D01*
X33257Y-22237D01*
X33493Y-22139D01*
X33674Y-21959D01*
X33773Y-21723D01*
X33773Y-21513D01*
X33938Y-21678D01*
X34333Y-21842D01*
X34760Y-21842D01*
X34989Y-21747D01*
X34989Y-23988D01*
X34939Y-23968D01*
X34724Y-23968D01*
X34432Y-23968D01*
X34233Y-24050D01*
X34082Y-24202D01*
X33999Y-24400D01*
X33999Y-24615D01*
X34081Y-24814D01*
X34233Y-24965D01*
X34335Y-25007D01*
X34233Y-25050D01*
X34084Y-25199D01*
X33773Y-25199D01*
X33773Y-24283D01*
X33773Y-24027D01*
X33675Y-23791D01*
X33495Y-23610D01*
X33259Y-23511D01*
X33003Y-23511D01*
X32767Y-23609D01*
X32586Y-23789D01*
X32487Y-24025D01*
X32487Y-24281D01*
X32585Y-24517D01*
X32765Y-24698D01*
X33001Y-24797D01*
X33257Y-24797D01*
X33493Y-24699D01*
X33674Y-24519D01*
X33773Y-24283D01*
X33773Y-25199D01*
X33550Y-25199D01*
X33515Y-25163D01*
X33300Y-25074D01*
X33067Y-25074D01*
X32852Y-25163D01*
X32687Y-25327D01*
X32598Y-25542D01*
X32598Y-25775D01*
X32687Y-25990D01*
X32851Y-26155D01*
X32957Y-26199D01*
X32093Y-26199D01*
X32013Y-26118D01*
X31822Y-26039D01*
X31838Y-26033D01*
X32003Y-25869D01*
X32092Y-25654D01*
X32092Y-25421D01*
X32003Y-25206D01*
X32001Y-25203D01*
X32001Y-21723D01*
X32001Y-21467D01*
X31903Y-21231D01*
X31723Y-21050D01*
X31487Y-20951D01*
X31231Y-20951D01*
X30995Y-21049D01*
X30814Y-21229D01*
X30715Y-21465D01*
X30715Y-21721D01*
X30813Y-21957D01*
X30993Y-22138D01*
X31229Y-22237D01*
X31485Y-22237D01*
X31721Y-22139D01*
X31902Y-21959D01*
X32001Y-21723D01*
X32001Y-25203D01*
X31993Y-25195D01*
X31993Y-24254D01*
X31983Y-24004D01*
X31906Y-23818D01*
X31802Y-23781D01*
X31731Y-23852D01*
X31731Y-23710D01*
X31694Y-23606D01*
X31458Y-23519D01*
X31208Y-23529D01*
X31022Y-23606D01*
X30985Y-23710D01*
X31358Y-24083D01*
X31731Y-23710D01*
X31731Y-23852D01*
X31429Y-24154D01*
X31802Y-24527D01*
X31906Y-24490D01*
X31993Y-24254D01*
X31993Y-25195D01*
X31839Y-25041D01*
X31731Y-24996D01*
X31731Y-24598D01*
X31358Y-24225D01*
X31287Y-24296D01*
X31287Y-24154D01*
X30914Y-23781D01*
X30810Y-23818D01*
X30723Y-24054D01*
X30733Y-24304D01*
X30810Y-24490D01*
X30914Y-24527D01*
X31287Y-24154D01*
X31287Y-24296D01*
X30985Y-24598D01*
X31022Y-24702D01*
X31258Y-24789D01*
X31508Y-24779D01*
X31694Y-24702D01*
X31731Y-24598D01*
X31731Y-24996D01*
X31624Y-24952D01*
X31391Y-24952D01*
X31176Y-25041D01*
X31011Y-25205D01*
X30922Y-25420D01*
X30922Y-25653D01*
X30931Y-25675D01*
X29605Y-27003D01*
X29538Y-27103D01*
X29514Y-27221D01*
X29514Y-30383D01*
X29503Y-30388D01*
X29344Y-30547D01*
X29339Y-30558D01*
X28338Y-30558D01*
X28334Y-30547D01*
X28175Y-30388D01*
X27968Y-30302D01*
X27743Y-30302D01*
X27535Y-30388D01*
X27376Y-30547D01*
X27290Y-30754D01*
X27290Y-30979D01*
X27376Y-31187D01*
X27535Y-31346D01*
X27742Y-31432D01*
X27967Y-31432D01*
X28175Y-31346D01*
X28334Y-31187D01*
X28338Y-31176D01*
X29339Y-31176D01*
X29344Y-31187D01*
X29503Y-31346D01*
X29710Y-31432D01*
X29935Y-31432D01*
X30143Y-31346D01*
X30302Y-31187D01*
X30388Y-30980D01*
X30388Y-30755D01*
X30302Y-30547D01*
X30143Y-30388D01*
X30132Y-30383D01*
X30132Y-27348D01*
X31175Y-26305D01*
X31096Y-26497D01*
X31096Y-26730D01*
X31185Y-26945D01*
X31349Y-27110D01*
X31564Y-27199D01*
X31797Y-27199D01*
X32012Y-27110D01*
X32177Y-26946D01*
X32230Y-26817D01*
X34084Y-26817D01*
X34233Y-26965D01*
X34329Y-27005D01*
X34327Y-27006D01*
X34152Y-27130D01*
X34038Y-27312D01*
X34020Y-27373D01*
X34067Y-27458D01*
X34585Y-27458D01*
X34635Y-27458D01*
X34735Y-27458D01*
X34735Y-27558D01*
X34635Y-27558D01*
X34585Y-27558D01*
X34067Y-27558D01*
X34020Y-27643D01*
X34038Y-27704D01*
X34152Y-27886D01*
X34327Y-28010D01*
X34233Y-28050D01*
X34082Y-28202D01*
X33999Y-28400D01*
X33999Y-28461D01*
X33108Y-27571D01*
X33118Y-27549D01*
X33118Y-27316D01*
X33029Y-27101D01*
X32865Y-26936D01*
X32650Y-26847D01*
X32417Y-26847D01*
X32202Y-26936D01*
X32037Y-27100D01*
X31948Y-27315D01*
X31948Y-27548D01*
X32037Y-27763D01*
X32201Y-27928D01*
X32416Y-28017D01*
X32649Y-28017D01*
X32672Y-28007D01*
X33928Y-29264D01*
X33929Y-29264D01*
X34003Y-29313D01*
X34003Y-29857D01*
X34041Y-29949D01*
X34111Y-30019D01*
X34202Y-30057D01*
X34301Y-30057D01*
X34989Y-30057D01*
X34989Y-33808D01*
X34989Y-33808D01*
G37*
G54D21*
X34989Y-33808D02*
X30388Y-33808D01*
X30388Y-32554D01*
X30388Y-32329D01*
X30302Y-32121D01*
X30143Y-31962D01*
X29936Y-31876D01*
X29711Y-31876D01*
X29503Y-31962D01*
X29344Y-32121D01*
X29258Y-32328D01*
X29258Y-32553D01*
X29344Y-32761D01*
X29503Y-32920D01*
X29710Y-33006D01*
X29935Y-33006D01*
X30143Y-32920D01*
X30302Y-32761D01*
X30388Y-32554D01*
X30388Y-33808D01*
X28413Y-33808D01*
X28413Y-32524D01*
X28402Y-32304D01*
X28339Y-32151D01*
X28244Y-32123D01*
X28173Y-32194D01*
X28173Y-32052D01*
X28145Y-31957D01*
X27938Y-31883D01*
X27718Y-31894D01*
X27565Y-31957D01*
X27537Y-32052D01*
X27855Y-32370D01*
X28173Y-32052D01*
X28173Y-32194D01*
X27926Y-32441D01*
X28244Y-32759D01*
X28339Y-32731D01*
X28413Y-32524D01*
X28413Y-33808D01*
X28173Y-33808D01*
X28173Y-32830D01*
X27855Y-32512D01*
X27784Y-32583D01*
X27784Y-32441D01*
X27466Y-32123D01*
X27371Y-32151D01*
X27297Y-32358D01*
X27308Y-32578D01*
X27371Y-32731D01*
X27466Y-32759D01*
X27784Y-32441D01*
X27784Y-32583D01*
X27537Y-32830D01*
X27565Y-32925D01*
X27772Y-32999D01*
X27992Y-32988D01*
X28145Y-32925D01*
X28173Y-32830D01*
X28173Y-33808D01*
X24853Y-33808D01*
X24853Y-33558D01*
X25081Y-33653D01*
X25508Y-33653D01*
X25903Y-33490D01*
X26205Y-33188D01*
X26369Y-32793D01*
X26369Y-32366D01*
X26206Y-31971D01*
X25904Y-31669D01*
X25509Y-31505D01*
X25082Y-31505D01*
X24853Y-31599D01*
X24853Y-28083D01*
X25422Y-28083D01*
X25514Y-28045D01*
X25584Y-27975D01*
X25622Y-27884D01*
X25622Y-27785D01*
X25622Y-27195D01*
X25584Y-27103D01*
X25516Y-27035D01*
X25593Y-27003D01*
X25663Y-26933D01*
X25701Y-26841D01*
X25702Y-26747D01*
X25640Y-26685D01*
X25119Y-26685D01*
X25069Y-26685D01*
X24969Y-26685D01*
X24969Y-26585D01*
X25069Y-26585D01*
X25119Y-26585D01*
X25640Y-26585D01*
X25702Y-26523D01*
X25701Y-26432D01*
X25855Y-26432D01*
X26529Y-27105D01*
X26520Y-27128D01*
X26520Y-27361D01*
X26609Y-27576D01*
X26773Y-27741D01*
X26988Y-27830D01*
X27221Y-27830D01*
X27436Y-27741D01*
X27601Y-27577D01*
X27690Y-27362D01*
X27690Y-27129D01*
X27601Y-26914D01*
X27478Y-26790D01*
X27580Y-26690D01*
X27669Y-26475D01*
X27669Y-26242D01*
X27580Y-26027D01*
X27416Y-25862D01*
X27393Y-25852D01*
X27393Y-25851D01*
X27369Y-25733D01*
X27302Y-25633D01*
X27302Y-25632D01*
X26437Y-24768D01*
X26447Y-24746D01*
X26447Y-24513D01*
X26358Y-24298D01*
X26194Y-24133D01*
X25979Y-24044D01*
X25746Y-24044D01*
X25531Y-24133D01*
X25366Y-24297D01*
X25277Y-24512D01*
X25277Y-24673D01*
X24853Y-24673D01*
X24853Y-19341D01*
X34989Y-19341D01*
X34989Y-19788D01*
X34761Y-19694D01*
X34334Y-19694D01*
X33939Y-19857D01*
X33637Y-20159D01*
X33473Y-20554D01*
X33473Y-20981D01*
X33506Y-21061D01*
X33495Y-21050D01*
X33259Y-20951D01*
X33003Y-20951D01*
X32767Y-21049D01*
X32586Y-21229D01*
X32487Y-21465D01*
X32487Y-21721D01*
X32585Y-21957D01*
X32765Y-22138D01*
X33001Y-22237D01*
X33257Y-22237D01*
X33493Y-22139D01*
X33674Y-21959D01*
X33773Y-21723D01*
X33773Y-21513D01*
X33938Y-21678D01*
X34333Y-21842D01*
X34760Y-21842D01*
X34989Y-21747D01*
X34989Y-23988D01*
X34939Y-23968D01*
X34724Y-23968D01*
X34432Y-23968D01*
X34233Y-24050D01*
X34082Y-24202D01*
X33999Y-24400D01*
X33999Y-24615D01*
X34081Y-24814D01*
X34233Y-24965D01*
X34335Y-25007D01*
X34233Y-25050D01*
X34084Y-25199D01*
X33773Y-25199D01*
X33773Y-24283D01*
X33773Y-24027D01*
X33675Y-23791D01*
X33495Y-23610D01*
X33259Y-23511D01*
X33003Y-23511D01*
X32767Y-23609D01*
X32586Y-23789D01*
X32487Y-24025D01*
X32487Y-24281D01*
X32585Y-24517D01*
X32765Y-24698D01*
X33001Y-24797D01*
X33257Y-24797D01*
X33493Y-24699D01*
X33674Y-24519D01*
X33773Y-24283D01*
X33773Y-25199D01*
X33550Y-25199D01*
X33515Y-25163D01*
X33300Y-25074D01*
X33067Y-25074D01*
X32852Y-25163D01*
X32687Y-25327D01*
X32598Y-25542D01*
X32598Y-25775D01*
X32687Y-25990D01*
X32851Y-26155D01*
X32957Y-26199D01*
X32093Y-26199D01*
X32013Y-26118D01*
X31822Y-26039D01*
X31838Y-26033D01*
X32003Y-25869D01*
X32092Y-25654D01*
X32092Y-25421D01*
X32003Y-25206D01*
X32001Y-25203D01*
X32001Y-21723D01*
X32001Y-21467D01*
X31903Y-21231D01*
X31723Y-21050D01*
X31487Y-20951D01*
X31231Y-20951D01*
X30995Y-21049D01*
X30814Y-21229D01*
X30715Y-21465D01*
X30715Y-21721D01*
X30813Y-21957D01*
X30993Y-22138D01*
X31229Y-22237D01*
X31485Y-22237D01*
X31721Y-22139D01*
X31902Y-21959D01*
X32001Y-21723D01*
X32001Y-25203D01*
X31993Y-25195D01*
X31993Y-24254D01*
X31983Y-24004D01*
X31906Y-23818D01*
X31802Y-23781D01*
X31731Y-23852D01*
X31731Y-23710D01*
X31694Y-23606D01*
X31458Y-23519D01*
X31208Y-23529D01*
X31022Y-23606D01*
X30985Y-23710D01*
X31358Y-24083D01*
X31731Y-23710D01*
X31731Y-23852D01*
X31429Y-24154D01*
X31802Y-24527D01*
X31906Y-24490D01*
X31993Y-24254D01*
X31993Y-25195D01*
X31839Y-25041D01*
X31731Y-24996D01*
X31731Y-24598D01*
X31358Y-24225D01*
X31287Y-24296D01*
X31287Y-24154D01*
X30914Y-23781D01*
X30810Y-23818D01*
X30723Y-24054D01*
X30733Y-24304D01*
X30810Y-24490D01*
X30914Y-24527D01*
X31287Y-24154D01*
X31287Y-24296D01*
X30985Y-24598D01*
X31022Y-24702D01*
X31258Y-24789D01*
X31508Y-24779D01*
X31694Y-24702D01*
X31731Y-24598D01*
X31731Y-24996D01*
X31624Y-24952D01*
X31391Y-24952D01*
X31176Y-25041D01*
X31011Y-25205D01*
X30922Y-25420D01*
X30922Y-25653D01*
X30931Y-25675D01*
X29605Y-27003D01*
X29538Y-27103D01*
X29514Y-27221D01*
X29514Y-30383D01*
X29503Y-30388D01*
X29344Y-30547D01*
X29339Y-30558D01*
X28338Y-30558D01*
X28334Y-30547D01*
X28175Y-30388D01*
X27968Y-30302D01*
X27743Y-30302D01*
X27535Y-30388D01*
X27376Y-30547D01*
X27290Y-30754D01*
X27290Y-30979D01*
X27376Y-31187D01*
X27535Y-31346D01*
X27742Y-31432D01*
X27967Y-31432D01*
X28175Y-31346D01*
X28334Y-31187D01*
X28338Y-31176D01*
X29339Y-31176D01*
X29344Y-31187D01*
X29503Y-31346D01*
X29710Y-31432D01*
X29935Y-31432D01*
X30143Y-31346D01*
X30302Y-31187D01*
X30388Y-30980D01*
X30388Y-30755D01*
X30302Y-30547D01*
X30143Y-30388D01*
X30132Y-30383D01*
X30132Y-27348D01*
X31175Y-26305D01*
X31096Y-26497D01*
X31096Y-26730D01*
X31185Y-26945D01*
X31349Y-27110D01*
X31564Y-27199D01*
X31797Y-27199D01*
X32012Y-27110D01*
X32177Y-26946D01*
X32230Y-26817D01*
X34084Y-26817D01*
X34233Y-26965D01*
X34329Y-27005D01*
X34327Y-27006D01*
X34152Y-27130D01*
X34038Y-27312D01*
X34020Y-27373D01*
X34067Y-27458D01*
X34585Y-27458D01*
X34635Y-27458D01*
X34735Y-27458D01*
X34735Y-27558D01*
X34635Y-27558D01*
X34585Y-27558D01*
X34067Y-27558D01*
X34020Y-27643D01*
X34038Y-27704D01*
X34152Y-27886D01*
X34327Y-28010D01*
X34233Y-28050D01*
X34082Y-28202D01*
X33999Y-28400D01*
X33999Y-28461D01*
X33108Y-27571D01*
X33118Y-27549D01*
X33118Y-27316D01*
X33029Y-27101D01*
X32865Y-26936D01*
X32650Y-26847D01*
X32417Y-26847D01*
X32202Y-26936D01*
X32037Y-27100D01*
X31948Y-27315D01*
X31948Y-27548D01*
X32037Y-27763D01*
X32201Y-27928D01*
X32416Y-28017D01*
X32649Y-28017D01*
X32672Y-28007D01*
X33928Y-29264D01*
X33929Y-29264D01*
X34003Y-29313D01*
X34003Y-29857D01*
X34041Y-29949D01*
X34111Y-30019D01*
X34202Y-30057D01*
X34301Y-30057D01*
X34989Y-30057D01*
X34989Y-33808D01*
M02*
