G04 (created by PCBNEW-RS274X (2012-01-19 BZR 3256)-stable) date Fri 09 Mar 2012 12:00:35 PM CET*
G01*
G70*
G90*
%MOIN*%
G04 Gerber Fmt 3.4, Leading zero omitted, Abs format*
%FSLAX34Y34*%
G04 APERTURE LIST*
%ADD10C,0.006000*%
%ADD11C,0.005000*%
%ADD12C,0.007900*%
%ADD13C,0.008000*%
%ADD14C,0.012000*%
%ADD15C,0.015000*%
%ADD16C,0.100000*%
%ADD17C,0.002600*%
%ADD18C,0.004000*%
%ADD19C,0.004500*%
%ADD20C,0.003100*%
%ADD21C,0.012500*%
%ADD22C,0.010000*%
%ADD23C,0.003500*%
G04 APERTURE END LIST*
G54D10*
G54D11*
X34528Y-31085D02*
X34528Y-30885D01*
X34528Y-30885D02*
X34058Y-30885D01*
X34528Y-31085D02*
X34058Y-31085D01*
X34528Y-31675D02*
X34058Y-31675D01*
X34528Y-31475D02*
X34058Y-31475D01*
X34528Y-31675D02*
X34528Y-31475D01*
X34528Y-32265D02*
X34528Y-32065D01*
X34528Y-32065D02*
X34058Y-32065D01*
X34528Y-32265D02*
X34058Y-32265D01*
X32833Y-31930D02*
X32833Y-31220D01*
X32833Y-31220D02*
X33028Y-31220D01*
X32833Y-31930D02*
X33028Y-31930D01*
X34058Y-32480D02*
X33028Y-32480D01*
X33028Y-32480D02*
X33028Y-30670D01*
X33028Y-30670D02*
X34058Y-30670D01*
X34058Y-30670D02*
X34058Y-32480D01*
X26866Y-29505D02*
X26866Y-28605D01*
X26866Y-28605D02*
X26216Y-28605D01*
X25516Y-29505D02*
X24866Y-29505D01*
X24866Y-29505D02*
X24866Y-28605D01*
X24866Y-28605D02*
X25516Y-28605D01*
X26216Y-29505D02*
X26866Y-29505D01*
X31520Y-33054D02*
X31520Y-33954D01*
X31520Y-33954D02*
X32170Y-33954D01*
X32870Y-33054D02*
X33520Y-33054D01*
X33520Y-33054D02*
X33520Y-33954D01*
X33520Y-33954D02*
X32870Y-33954D01*
X32170Y-33054D02*
X31520Y-33054D01*
X29176Y-24327D02*
X30076Y-24327D01*
X30076Y-24327D02*
X30076Y-23677D01*
X29176Y-22977D02*
X29176Y-22327D01*
X29176Y-22327D02*
X30076Y-22327D01*
X30076Y-22327D02*
X30076Y-22977D01*
X29176Y-23677D02*
X29176Y-24327D01*
X32890Y-29820D02*
X32890Y-28920D01*
X32890Y-28920D02*
X32240Y-28920D01*
X31540Y-29820D02*
X30890Y-29820D01*
X30890Y-29820D02*
X30890Y-28920D01*
X30890Y-28920D02*
X31540Y-28920D01*
X32240Y-29820D02*
X32890Y-29820D01*
X26007Y-21561D02*
X26907Y-21561D01*
X26907Y-21561D02*
X26907Y-22061D01*
X26907Y-22061D02*
X26007Y-22061D01*
X26007Y-22061D02*
X26007Y-21561D01*
X28639Y-22061D02*
X27739Y-22061D01*
X27739Y-22061D02*
X27739Y-21561D01*
X27739Y-21561D02*
X28639Y-21561D01*
X28639Y-21561D02*
X28639Y-22061D01*
X33372Y-29505D02*
X33372Y-28605D01*
X33372Y-28605D02*
X33872Y-28605D01*
X33872Y-28605D02*
X33872Y-29505D01*
X33872Y-29505D02*
X33372Y-29505D01*
X25692Y-22585D02*
X26592Y-22585D01*
X26592Y-22585D02*
X26592Y-23085D01*
X26592Y-23085D02*
X25692Y-23085D01*
X25692Y-23085D02*
X25692Y-22585D01*
G54D12*
X28198Y-27834D02*
X28196Y-27850D01*
X28191Y-27867D01*
X28183Y-27882D01*
X28172Y-27895D01*
X28159Y-27906D01*
X28144Y-27914D01*
X28128Y-27919D01*
X28111Y-27920D01*
X28095Y-27919D01*
X28079Y-27914D01*
X28064Y-27906D01*
X28051Y-27896D01*
X28040Y-27883D01*
X28032Y-27868D01*
X28026Y-27852D01*
X28025Y-27835D01*
X28026Y-27819D01*
X28031Y-27802D01*
X28038Y-27787D01*
X28049Y-27774D01*
X28062Y-27763D01*
X28077Y-27755D01*
X28093Y-27750D01*
X28110Y-27748D01*
X28126Y-27749D01*
X28142Y-27753D01*
X28157Y-27761D01*
X28170Y-27771D01*
X28182Y-27784D01*
X28190Y-27799D01*
X28195Y-27815D01*
X28197Y-27832D01*
X28198Y-27834D01*
X27756Y-28189D02*
X30906Y-28189D01*
X30906Y-28189D02*
X30906Y-25039D01*
X30906Y-25039D02*
X27756Y-25039D01*
X27756Y-25039D02*
X27756Y-28189D01*
G54D13*
X29824Y-20807D02*
X29824Y-20657D01*
X29824Y-19507D02*
X29824Y-19657D01*
X25924Y-19507D02*
X25924Y-19657D01*
X25924Y-20807D02*
X25924Y-20657D01*
X25624Y-21157D02*
X25624Y-20657D01*
X25624Y-19157D02*
X25624Y-19657D01*
X30124Y-19157D02*
X30124Y-19657D01*
X30124Y-21157D02*
X30124Y-20657D01*
X29824Y-19507D02*
X29574Y-19257D01*
X29574Y-19257D02*
X26174Y-19257D01*
X26174Y-19257D02*
X25924Y-19507D01*
X25924Y-20807D02*
X26174Y-21057D01*
X26174Y-21057D02*
X29574Y-21057D01*
X29574Y-21057D02*
X29824Y-20807D01*
X25624Y-19157D02*
X30124Y-19157D01*
X30124Y-21157D02*
X25624Y-21157D01*
G54D14*
X36185Y-30008D02*
X35185Y-29008D01*
X35185Y-29008D02*
X36185Y-29008D01*
X36185Y-29008D02*
X35185Y-30008D01*
G54D15*
X34685Y-29508D02*
X38685Y-29508D01*
X34685Y-24508D02*
X38685Y-24508D01*
X34685Y-25508D02*
X38685Y-25508D01*
X34685Y-26508D02*
X38685Y-26508D01*
X38685Y-27508D02*
X34685Y-27508D01*
X34685Y-28508D02*
X38685Y-28508D01*
G54D14*
X36185Y-30008D02*
X35185Y-30008D01*
X35185Y-30008D02*
X35185Y-24008D01*
X35185Y-24008D02*
X36185Y-24008D01*
X36185Y-24008D02*
X36185Y-30008D01*
X33444Y-24074D02*
X31044Y-24074D01*
X31044Y-24074D02*
X31044Y-21674D01*
X31044Y-21674D02*
X33444Y-21674D01*
X33444Y-21674D02*
X33444Y-24074D01*
G54D16*
X32560Y-22874D02*
X32553Y-22935D01*
X32536Y-22994D01*
X32507Y-23048D01*
X32468Y-23096D01*
X32420Y-23135D01*
X32366Y-23165D01*
X32307Y-23183D01*
X32246Y-23189D01*
X32185Y-23184D01*
X32126Y-23166D01*
X32071Y-23138D01*
X32023Y-23099D01*
X31984Y-23052D01*
X31954Y-22998D01*
X31935Y-22939D01*
X31929Y-22878D01*
X31934Y-22817D01*
X31951Y-22758D01*
X31979Y-22703D01*
X32017Y-22655D01*
X32064Y-22615D01*
X32118Y-22585D01*
X32177Y-22566D01*
X32238Y-22559D01*
X32298Y-22563D01*
X32358Y-22580D01*
X32413Y-22608D01*
X32461Y-22646D01*
X32502Y-22692D01*
X32532Y-22746D01*
X32552Y-22804D01*
X32559Y-22866D01*
X32560Y-22874D01*
G54D15*
X31398Y-31654D02*
X31349Y-32151D01*
X31204Y-32629D01*
X30970Y-33070D01*
X30654Y-33457D01*
X30269Y-33775D01*
X29830Y-34013D01*
X29353Y-34160D01*
X28856Y-34212D01*
X28360Y-34167D01*
X27881Y-34026D01*
X27438Y-33795D01*
X27049Y-33482D01*
X26728Y-33099D01*
X26487Y-32662D01*
X26336Y-32186D01*
X26281Y-31689D01*
X26323Y-31193D01*
X26460Y-30712D01*
X26688Y-30268D01*
X26999Y-29877D01*
X27379Y-29553D01*
X27815Y-29310D01*
X28290Y-29155D01*
X28786Y-29096D01*
X29283Y-29134D01*
X29764Y-29269D01*
X30210Y-29494D01*
X30603Y-29801D01*
X30930Y-30179D01*
X31176Y-30614D01*
X31334Y-31088D01*
X31397Y-31583D01*
X31398Y-31654D01*
X26161Y-26378D02*
X26161Y-24764D01*
X26122Y-24764D02*
X24665Y-24764D01*
X26161Y-26378D02*
X26161Y-27992D01*
X26161Y-27992D02*
X24665Y-27992D01*
G54D17*
X25984Y-23780D02*
X25906Y-23780D01*
X25906Y-23780D02*
X25906Y-23858D01*
X25984Y-23858D02*
X25906Y-23858D01*
X25984Y-23780D02*
X25984Y-23858D01*
X25768Y-23544D02*
X25631Y-23544D01*
X25631Y-23544D02*
X25631Y-23642D01*
X25768Y-23642D02*
X25631Y-23642D01*
X25768Y-23544D02*
X25768Y-23642D01*
X25631Y-23544D02*
X25591Y-23544D01*
X25591Y-23544D02*
X25591Y-24015D01*
X25631Y-24015D02*
X25591Y-24015D01*
X25631Y-23544D02*
X25631Y-24015D01*
X25631Y-24035D02*
X25591Y-24035D01*
X25591Y-24035D02*
X25591Y-24094D01*
X25631Y-24094D02*
X25591Y-24094D01*
X25631Y-24035D02*
X25631Y-24094D01*
X26299Y-23544D02*
X26259Y-23544D01*
X26259Y-23544D02*
X26259Y-24015D01*
X26299Y-24015D02*
X26259Y-24015D01*
X26299Y-23544D02*
X26299Y-24015D01*
X26299Y-24035D02*
X26259Y-24035D01*
X26259Y-24035D02*
X26259Y-24094D01*
X26299Y-24094D02*
X26259Y-24094D01*
X26299Y-24035D02*
X26299Y-24094D01*
X25768Y-23544D02*
X25709Y-23544D01*
X25709Y-23544D02*
X25709Y-23642D01*
X25768Y-23642D02*
X25709Y-23642D01*
X25768Y-23544D02*
X25768Y-23642D01*
G54D18*
X25335Y-23524D02*
X26555Y-23524D01*
X26555Y-23524D02*
X26555Y-24114D01*
X26555Y-24114D02*
X25335Y-24114D01*
X25335Y-24114D02*
X25335Y-23524D01*
X26159Y-23623D02*
X26141Y-23605D01*
X26122Y-23589D01*
X26101Y-23574D01*
X26079Y-23562D01*
X26056Y-23551D01*
X26032Y-23542D01*
X26008Y-23536D01*
X25983Y-23531D01*
X25958Y-23529D01*
X25933Y-23529D01*
X25908Y-23531D01*
X25883Y-23535D01*
X25858Y-23542D01*
X25835Y-23550D01*
X25812Y-23561D01*
X25790Y-23574D01*
X25769Y-23588D01*
X25749Y-23605D01*
X25731Y-23623D01*
X25730Y-23624D01*
X26160Y-24014D02*
X26176Y-23995D01*
X26190Y-23974D01*
X26203Y-23952D01*
X26214Y-23929D01*
X26222Y-23905D01*
X26229Y-23880D01*
X26233Y-23855D01*
X26235Y-23830D01*
X26235Y-23806D01*
X26233Y-23781D01*
X26228Y-23756D01*
X26222Y-23731D01*
X26213Y-23707D01*
X26202Y-23684D01*
X26189Y-23662D01*
X26175Y-23642D01*
X26160Y-23624D01*
X25731Y-24015D02*
X25749Y-24033D01*
X25768Y-24049D01*
X25789Y-24064D01*
X25811Y-24076D01*
X25834Y-24087D01*
X25858Y-24096D01*
X25882Y-24102D01*
X25907Y-24107D01*
X25932Y-24109D01*
X25957Y-24109D01*
X25982Y-24107D01*
X26007Y-24103D01*
X26032Y-24096D01*
X26055Y-24088D01*
X26078Y-24077D01*
X26100Y-24064D01*
X26121Y-24050D01*
X26141Y-24033D01*
X26159Y-24015D01*
X26160Y-24014D01*
X25730Y-23624D02*
X25714Y-23643D01*
X25700Y-23664D01*
X25687Y-23686D01*
X25676Y-23709D01*
X25668Y-23733D01*
X25661Y-23758D01*
X25657Y-23783D01*
X25655Y-23808D01*
X25655Y-23832D01*
X25657Y-23857D01*
X25662Y-23882D01*
X25668Y-23907D01*
X25677Y-23931D01*
X25688Y-23954D01*
X25701Y-23976D01*
X25715Y-23996D01*
X25730Y-24014D01*
G54D12*
X31478Y-31865D02*
X31797Y-31865D01*
X31835Y-31846D01*
X31854Y-31828D01*
X31872Y-31790D01*
X31872Y-31715D01*
X31854Y-31678D01*
X31835Y-31659D01*
X31797Y-31640D01*
X31478Y-31640D01*
X31478Y-31490D02*
X31478Y-31246D01*
X31629Y-31377D01*
X31629Y-31321D01*
X31647Y-31283D01*
X31666Y-31265D01*
X31704Y-31246D01*
X31797Y-31246D01*
X31835Y-31265D01*
X31854Y-31283D01*
X31872Y-31321D01*
X31872Y-31433D01*
X31854Y-31471D01*
X31835Y-31490D01*
G54D11*
X25816Y-29148D02*
X25802Y-29162D01*
X25759Y-29176D01*
X25730Y-29176D01*
X25687Y-29162D01*
X25659Y-29134D01*
X25644Y-29105D01*
X25630Y-29048D01*
X25630Y-29005D01*
X25644Y-28948D01*
X25659Y-28919D01*
X25687Y-28891D01*
X25730Y-28876D01*
X25759Y-28876D01*
X25802Y-28891D01*
X25816Y-28905D01*
X26102Y-29176D02*
X25930Y-29176D01*
X26016Y-29176D02*
X26016Y-28876D01*
X25987Y-28919D01*
X25959Y-28948D01*
X25930Y-28962D01*
X32470Y-33597D02*
X32456Y-33611D01*
X32413Y-33625D01*
X32384Y-33625D01*
X32341Y-33611D01*
X32313Y-33583D01*
X32298Y-33554D01*
X32284Y-33497D01*
X32284Y-33454D01*
X32298Y-33397D01*
X32313Y-33368D01*
X32341Y-33340D01*
X32384Y-33325D01*
X32413Y-33325D01*
X32456Y-33340D01*
X32470Y-33354D01*
X32584Y-33354D02*
X32598Y-33340D01*
X32627Y-33325D01*
X32698Y-33325D01*
X32727Y-33340D01*
X32741Y-33354D01*
X32756Y-33383D01*
X32756Y-33411D01*
X32741Y-33454D01*
X32570Y-33625D01*
X32756Y-33625D01*
X29719Y-23377D02*
X29733Y-23391D01*
X29747Y-23434D01*
X29747Y-23463D01*
X29733Y-23506D01*
X29705Y-23534D01*
X29676Y-23549D01*
X29619Y-23563D01*
X29576Y-23563D01*
X29519Y-23549D01*
X29490Y-23534D01*
X29462Y-23506D01*
X29447Y-23463D01*
X29447Y-23434D01*
X29462Y-23391D01*
X29476Y-23377D01*
X29447Y-23277D02*
X29447Y-23091D01*
X29562Y-23191D01*
X29562Y-23149D01*
X29576Y-23120D01*
X29590Y-23106D01*
X29619Y-23091D01*
X29690Y-23091D01*
X29719Y-23106D01*
X29733Y-23120D01*
X29747Y-23149D01*
X29747Y-23234D01*
X29733Y-23263D01*
X29719Y-23277D01*
X31840Y-29463D02*
X31826Y-29477D01*
X31783Y-29491D01*
X31754Y-29491D01*
X31711Y-29477D01*
X31683Y-29449D01*
X31668Y-29420D01*
X31654Y-29363D01*
X31654Y-29320D01*
X31668Y-29263D01*
X31683Y-29234D01*
X31711Y-29206D01*
X31754Y-29191D01*
X31783Y-29191D01*
X31826Y-29206D01*
X31840Y-29220D01*
X32097Y-29191D02*
X32040Y-29191D01*
X32011Y-29206D01*
X31997Y-29220D01*
X31968Y-29263D01*
X31954Y-29320D01*
X31954Y-29434D01*
X31968Y-29463D01*
X31983Y-29477D01*
X32011Y-29491D01*
X32068Y-29491D01*
X32097Y-29477D01*
X32111Y-29463D01*
X32126Y-29434D01*
X32126Y-29363D01*
X32111Y-29334D01*
X32097Y-29320D01*
X32068Y-29306D01*
X32011Y-29306D01*
X31983Y-29320D01*
X31968Y-29334D01*
X31954Y-29363D01*
G54D19*
X26428Y-21873D02*
X26419Y-21882D01*
X26393Y-21892D01*
X26376Y-21892D01*
X26351Y-21882D01*
X26333Y-21863D01*
X26325Y-21844D01*
X26316Y-21806D01*
X26316Y-21778D01*
X26325Y-21740D01*
X26333Y-21721D01*
X26351Y-21701D01*
X26376Y-21692D01*
X26393Y-21692D01*
X26419Y-21701D01*
X26428Y-21711D01*
X26582Y-21759D02*
X26582Y-21892D01*
X26539Y-21682D02*
X26496Y-21825D01*
X26608Y-21825D01*
X28160Y-21873D02*
X28151Y-21882D01*
X28125Y-21892D01*
X28108Y-21892D01*
X28083Y-21882D01*
X28065Y-21863D01*
X28057Y-21844D01*
X28048Y-21806D01*
X28048Y-21778D01*
X28057Y-21740D01*
X28065Y-21721D01*
X28083Y-21701D01*
X28108Y-21692D01*
X28125Y-21692D01*
X28151Y-21701D01*
X28160Y-21711D01*
X28323Y-21692D02*
X28237Y-21692D01*
X28228Y-21787D01*
X28237Y-21778D01*
X28254Y-21768D01*
X28297Y-21768D01*
X28314Y-21778D01*
X28323Y-21787D01*
X28331Y-21806D01*
X28331Y-21854D01*
X28323Y-21873D01*
X28314Y-21882D01*
X28297Y-21892D01*
X28254Y-21892D01*
X28237Y-21882D01*
X28228Y-21873D01*
X33703Y-29084D02*
X33608Y-29144D01*
X33703Y-29187D02*
X33503Y-29187D01*
X33503Y-29119D01*
X33512Y-29101D01*
X33522Y-29093D01*
X33541Y-29084D01*
X33570Y-29084D01*
X33589Y-29093D01*
X33598Y-29101D01*
X33608Y-29119D01*
X33608Y-29187D01*
X33522Y-29016D02*
X33512Y-29007D01*
X33503Y-28990D01*
X33503Y-28947D01*
X33512Y-28930D01*
X33522Y-28921D01*
X33541Y-28913D01*
X33560Y-28913D01*
X33589Y-28921D01*
X33703Y-29024D01*
X33703Y-28913D01*
X26113Y-22916D02*
X26053Y-22821D01*
X26010Y-22916D02*
X26010Y-22716D01*
X26078Y-22716D01*
X26096Y-22725D01*
X26104Y-22735D01*
X26113Y-22754D01*
X26113Y-22783D01*
X26104Y-22802D01*
X26096Y-22811D01*
X26078Y-22821D01*
X26010Y-22821D01*
X26284Y-22916D02*
X26181Y-22916D01*
X26233Y-22916D02*
X26233Y-22716D01*
X26216Y-22745D01*
X26198Y-22764D01*
X26181Y-22773D01*
G54D20*
X29211Y-24591D02*
X29211Y-24718D01*
X29219Y-24733D01*
X29226Y-24741D01*
X29241Y-24748D01*
X29271Y-24748D01*
X29286Y-24741D01*
X29294Y-24733D01*
X29301Y-24718D01*
X29301Y-24591D01*
X29458Y-24748D02*
X29368Y-24748D01*
X29413Y-24748D02*
X29413Y-24591D01*
X29398Y-24613D01*
X29383Y-24628D01*
X29368Y-24636D01*
X28365Y-28646D02*
X28365Y-28489D01*
X28425Y-28489D01*
X28440Y-28497D01*
X28448Y-28504D01*
X28455Y-28519D01*
X28455Y-28541D01*
X28448Y-28556D01*
X28440Y-28564D01*
X28425Y-28571D01*
X28365Y-28571D01*
X28522Y-28646D02*
X28522Y-28489D01*
X28687Y-28631D02*
X28680Y-28639D01*
X28657Y-28646D01*
X28642Y-28646D01*
X28620Y-28639D01*
X28605Y-28624D01*
X28597Y-28609D01*
X28590Y-28579D01*
X28590Y-28556D01*
X28597Y-28526D01*
X28605Y-28511D01*
X28620Y-28497D01*
X28642Y-28489D01*
X28657Y-28489D01*
X28680Y-28497D01*
X28687Y-28504D01*
X28837Y-28646D02*
X28747Y-28646D01*
X28792Y-28646D02*
X28792Y-28489D01*
X28777Y-28511D01*
X28762Y-28526D01*
X28747Y-28534D01*
X28927Y-28556D02*
X28912Y-28549D01*
X28904Y-28541D01*
X28897Y-28526D01*
X28897Y-28519D01*
X28904Y-28504D01*
X28912Y-28497D01*
X28927Y-28489D01*
X28957Y-28489D01*
X28972Y-28497D01*
X28979Y-28504D01*
X28987Y-28519D01*
X28987Y-28526D01*
X28979Y-28541D01*
X28972Y-28549D01*
X28957Y-28556D01*
X28927Y-28556D01*
X28912Y-28564D01*
X28904Y-28571D01*
X28897Y-28586D01*
X28897Y-28616D01*
X28904Y-28631D01*
X28912Y-28639D01*
X28927Y-28646D01*
X28957Y-28646D01*
X28972Y-28639D01*
X28979Y-28631D01*
X28987Y-28616D01*
X28987Y-28586D01*
X28979Y-28571D01*
X28972Y-28564D01*
X28957Y-28556D01*
X29107Y-28564D02*
X29054Y-28564D01*
X29054Y-28646D02*
X29054Y-28489D01*
X29129Y-28489D01*
X29257Y-28541D02*
X29257Y-28646D01*
X29219Y-28482D02*
X29182Y-28594D01*
X29279Y-28594D01*
X29414Y-28489D02*
X29339Y-28489D01*
X29332Y-28564D01*
X29339Y-28556D01*
X29354Y-28549D01*
X29392Y-28549D01*
X29407Y-28556D01*
X29414Y-28564D01*
X29422Y-28579D01*
X29422Y-28616D01*
X29414Y-28631D01*
X29407Y-28639D01*
X29392Y-28646D01*
X29354Y-28646D01*
X29339Y-28639D01*
X29332Y-28631D01*
X29564Y-28489D02*
X29489Y-28489D01*
X29482Y-28564D01*
X29489Y-28556D01*
X29504Y-28549D01*
X29542Y-28549D01*
X29557Y-28556D01*
X29564Y-28564D01*
X29572Y-28579D01*
X29572Y-28616D01*
X29564Y-28631D01*
X29557Y-28639D01*
X29542Y-28646D01*
X29504Y-28646D01*
X29489Y-28639D01*
X29482Y-28631D01*
X29624Y-28489D02*
X29722Y-28489D01*
X29669Y-28549D01*
X29692Y-28549D01*
X29707Y-28556D01*
X29714Y-28564D01*
X29722Y-28579D01*
X29722Y-28616D01*
X29714Y-28631D01*
X29707Y-28639D01*
X29692Y-28646D01*
X29647Y-28646D01*
X29632Y-28639D01*
X29624Y-28631D01*
X29752Y-28661D02*
X29872Y-28661D01*
X30014Y-28661D02*
X29999Y-28654D01*
X29984Y-28639D01*
X29962Y-28616D01*
X29947Y-28609D01*
X29932Y-28609D01*
X29939Y-28646D02*
X29924Y-28639D01*
X29909Y-28624D01*
X29902Y-28594D01*
X29902Y-28541D01*
X29909Y-28511D01*
X29924Y-28497D01*
X29939Y-28489D01*
X29969Y-28489D01*
X29984Y-28497D01*
X29999Y-28511D01*
X30007Y-28541D01*
X30007Y-28594D01*
X29999Y-28624D01*
X29984Y-28639D01*
X29969Y-28646D01*
X29939Y-28646D01*
X30126Y-28564D02*
X30073Y-28564D01*
X30073Y-28646D02*
X30073Y-28489D01*
X30148Y-28489D01*
X30208Y-28646D02*
X30208Y-28489D01*
X30298Y-28646D01*
X30298Y-28489D01*
G54D13*
X27541Y-20599D02*
X27774Y-20949D01*
X27774Y-20599D02*
X27541Y-20949D01*
X28091Y-20949D02*
X27891Y-20949D01*
X27991Y-20949D02*
X27991Y-20599D01*
X27957Y-20649D01*
X27924Y-20682D01*
X27891Y-20699D01*
X27408Y-19332D02*
X27424Y-19315D01*
X27458Y-19299D01*
X27541Y-19299D01*
X27574Y-19315D01*
X27591Y-19332D01*
X27608Y-19365D01*
X27608Y-19399D01*
X27591Y-19449D01*
X27391Y-19649D01*
X27608Y-19649D01*
X27824Y-19299D02*
X27857Y-19299D01*
X27891Y-19315D01*
X27907Y-19332D01*
X27924Y-19365D01*
X27941Y-19432D01*
X27941Y-19515D01*
X27924Y-19582D01*
X27907Y-19615D01*
X27891Y-19632D01*
X27857Y-19649D01*
X27824Y-19649D01*
X27791Y-19632D01*
X27774Y-19615D01*
X27757Y-19582D01*
X27741Y-19515D01*
X27741Y-19432D01*
X27757Y-19365D01*
X27774Y-19332D01*
X27791Y-19315D01*
X27824Y-19299D01*
X28090Y-19649D02*
X28090Y-19299D01*
X28207Y-19549D01*
X28324Y-19299D01*
X28324Y-19649D01*
X33997Y-27303D02*
X33597Y-27303D01*
X33597Y-27150D01*
X33616Y-27112D01*
X33635Y-27093D01*
X33673Y-27074D01*
X33730Y-27074D01*
X33768Y-27093D01*
X33787Y-27112D01*
X33806Y-27150D01*
X33806Y-27303D01*
X33635Y-26922D02*
X33616Y-26903D01*
X33597Y-26865D01*
X33597Y-26769D01*
X33616Y-26731D01*
X33635Y-26712D01*
X33673Y-26693D01*
X33711Y-26693D01*
X33768Y-26712D01*
X33997Y-26941D01*
X33997Y-26693D01*
G54D21*
X31863Y-25053D02*
X31935Y-25076D01*
X32054Y-25076D01*
X32101Y-25053D01*
X32125Y-25029D01*
X32149Y-24981D01*
X32149Y-24934D01*
X32125Y-24886D01*
X32101Y-24862D01*
X32054Y-24838D01*
X31958Y-24814D01*
X31911Y-24791D01*
X31887Y-24767D01*
X31863Y-24719D01*
X31863Y-24672D01*
X31887Y-24624D01*
X31911Y-24600D01*
X31958Y-24576D01*
X32078Y-24576D01*
X32149Y-24600D01*
X32625Y-25076D02*
X32339Y-25076D01*
X32482Y-25076D02*
X32482Y-24576D01*
X32434Y-24648D01*
X32387Y-24695D01*
X32339Y-24719D01*
G54D22*
X30696Y-20876D02*
X30696Y-20376D01*
X30887Y-20376D01*
X30934Y-20400D01*
X30958Y-20424D01*
X30982Y-20472D01*
X30982Y-20543D01*
X30958Y-20591D01*
X30934Y-20614D01*
X30887Y-20638D01*
X30696Y-20638D01*
X31363Y-20614D02*
X31434Y-20638D01*
X31458Y-20662D01*
X31482Y-20710D01*
X31482Y-20781D01*
X31458Y-20829D01*
X31434Y-20853D01*
X31387Y-20876D01*
X31196Y-20876D01*
X31196Y-20376D01*
X31363Y-20376D01*
X31410Y-20400D01*
X31434Y-20424D01*
X31458Y-20472D01*
X31458Y-20519D01*
X31434Y-20567D01*
X31410Y-20591D01*
X31363Y-20614D01*
X31196Y-20614D01*
X31696Y-20376D02*
X31696Y-20781D01*
X31720Y-20829D01*
X31744Y-20853D01*
X31791Y-20876D01*
X31887Y-20876D01*
X31934Y-20853D01*
X31958Y-20829D01*
X31982Y-20781D01*
X31982Y-20376D01*
X32149Y-20376D02*
X32434Y-20376D01*
X32291Y-20876D02*
X32291Y-20376D01*
X32530Y-20376D02*
X32815Y-20376D01*
X32672Y-20876D02*
X32672Y-20376D01*
X33077Y-20376D02*
X33173Y-20376D01*
X33220Y-20400D01*
X33268Y-20448D01*
X33292Y-20543D01*
X33292Y-20710D01*
X33268Y-20805D01*
X33220Y-20853D01*
X33173Y-20876D01*
X33077Y-20876D01*
X33030Y-20853D01*
X32982Y-20805D01*
X32958Y-20710D01*
X32958Y-20543D01*
X32982Y-20448D01*
X33030Y-20400D01*
X33077Y-20376D01*
X33506Y-20876D02*
X33506Y-20376D01*
X33792Y-20876D01*
X33792Y-20376D01*
G54D14*
X25332Y-32111D02*
X25818Y-32111D01*
X25875Y-32083D01*
X25903Y-32054D01*
X25932Y-31997D01*
X25932Y-31883D01*
X25903Y-31825D01*
X25875Y-31797D01*
X25818Y-31768D01*
X25332Y-31768D01*
X25389Y-31511D02*
X25360Y-31482D01*
X25332Y-31425D01*
X25332Y-31282D01*
X25360Y-31225D01*
X25389Y-31196D01*
X25446Y-31168D01*
X25503Y-31168D01*
X25589Y-31196D01*
X25932Y-31539D01*
X25932Y-31168D01*
X26719Y-26820D02*
X26119Y-26820D01*
X26119Y-26592D01*
X26147Y-26534D01*
X26176Y-26506D01*
X26233Y-26477D01*
X26319Y-26477D01*
X26376Y-26506D01*
X26405Y-26534D01*
X26433Y-26592D01*
X26433Y-26820D01*
X26719Y-25906D02*
X26719Y-26249D01*
X26719Y-26077D02*
X26119Y-26077D01*
X26205Y-26134D01*
X26262Y-26192D01*
X26290Y-26249D01*
G54D23*
X25623Y-24540D02*
X25623Y-24240D01*
X25695Y-24240D01*
X25738Y-24255D01*
X25766Y-24283D01*
X25781Y-24312D01*
X25795Y-24369D01*
X25795Y-24412D01*
X25781Y-24469D01*
X25766Y-24498D01*
X25738Y-24526D01*
X25695Y-24540D01*
X25623Y-24540D01*
X26081Y-24540D02*
X25909Y-24540D01*
X25995Y-24540D02*
X25995Y-24240D01*
X25966Y-24283D01*
X25938Y-24312D01*
X25909Y-24326D01*
X25752Y-23340D02*
X25609Y-23340D01*
X25609Y-23040D01*
X25852Y-23183D02*
X25952Y-23183D01*
X25995Y-23340D02*
X25852Y-23340D01*
X25852Y-23040D01*
X25995Y-23040D01*
X26123Y-23340D02*
X26123Y-23040D01*
X26195Y-23040D01*
X26238Y-23055D01*
X26266Y-23083D01*
X26281Y-23112D01*
X26295Y-23169D01*
X26295Y-23212D01*
X26281Y-23269D01*
X26266Y-23298D01*
X26238Y-23326D01*
X26195Y-23340D01*
X26123Y-23340D01*
M02*
