M48
;DRILL file {Pcbnew (2012-01-19 BZR 3256)-stable} date Fri 09 Mar 2012 12:00:51 PM CET
;FORMAT={-:-/ absolute / inch / decimal}
FMAT,2
INCH,TZ
T1C0.024
T2C0.035
T3C0.039
%
G90
G05
M72
T1
X2.586Y-2.463
X2.708Y-2.636
X2.711Y-2.724
X3.151Y-2.554
X3.168Y-2.661
X3.253Y-2.743
X3.318Y-2.566
T2
X2.786Y-3.087
X2.786Y-3.244
X2.982Y-3.087
X2.982Y-3.244
T3
X3.044Y-2.912
X3.136Y-2.159
X3.136Y-2.415
X3.313Y-2.159
X3.313Y-2.415
X3.469Y-2.451
X3.469Y-2.551
X3.469Y-2.651
X3.469Y-2.751
X3.469Y-2.851
X3.469Y-2.951
T0
M30
