G04 (created by PCBNEW (2012-01-19 BZR 3256)-stable) date Fri 09 Mar 2012 12:00:56 PM CET*
G01*
G70*
G90*
%MOIN*%
G04 Gerber Fmt 3.4, Leading zero omitted, Abs format*
%FSLAX34Y34*%
G04 APERTURE LIST*
%ADD10C,0.001000*%
%ADD11C,0.015000*%
%ADD12C,0.008000*%
G04 APERTURE END LIST*
G54D10*
G54D11*
X24311Y-34547D02*
X24311Y-18799D01*
X35531Y-34547D02*
X24311Y-34547D01*
X35531Y-18799D02*
X35531Y-34547D01*
X24311Y-18799D02*
X35531Y-18799D01*
G54D10*
X24665Y-31949D02*
X25925Y-33209D01*
X25925Y-31949D02*
X24665Y-33209D01*
X33917Y-20138D02*
X35177Y-21398D01*
X35177Y-20138D02*
X33917Y-21398D01*
G54D12*
X23604Y-35902D02*
X23604Y-35102D01*
X23795Y-35102D01*
X23909Y-35140D01*
X23985Y-35216D01*
X24024Y-35292D01*
X24062Y-35445D01*
X24062Y-35559D01*
X24024Y-35711D01*
X23985Y-35788D01*
X23909Y-35864D01*
X23795Y-35902D01*
X23604Y-35902D01*
X24404Y-35902D02*
X24404Y-35368D01*
X24404Y-35521D02*
X24443Y-35445D01*
X24481Y-35407D01*
X24557Y-35368D01*
X24633Y-35368D01*
X24899Y-35902D02*
X24899Y-35368D01*
X24899Y-35102D02*
X24861Y-35140D01*
X24899Y-35178D01*
X24938Y-35140D01*
X24899Y-35102D01*
X24899Y-35178D01*
X25395Y-35902D02*
X25319Y-35864D01*
X25280Y-35788D01*
X25280Y-35102D01*
X25814Y-35902D02*
X25738Y-35864D01*
X25699Y-35788D01*
X25699Y-35102D01*
X26728Y-35902D02*
X26728Y-35102D01*
X26995Y-35673D01*
X27262Y-35102D01*
X27262Y-35902D01*
X27985Y-35902D02*
X27985Y-35483D01*
X27947Y-35407D01*
X27871Y-35368D01*
X27719Y-35368D01*
X27642Y-35407D01*
X27985Y-35864D02*
X27909Y-35902D01*
X27719Y-35902D01*
X27642Y-35864D01*
X27604Y-35788D01*
X27604Y-35711D01*
X27642Y-35635D01*
X27719Y-35597D01*
X27909Y-35597D01*
X27985Y-35559D01*
X28366Y-35368D02*
X28366Y-36168D01*
X28366Y-35407D02*
X28443Y-35368D01*
X28595Y-35368D01*
X28671Y-35407D01*
X28709Y-35445D01*
X28747Y-35521D01*
X28747Y-35749D01*
X28709Y-35826D01*
X28671Y-35864D01*
X28595Y-35902D01*
X28443Y-35902D01*
X28366Y-35864D01*
X29090Y-35826D02*
X29129Y-35864D01*
X29090Y-35902D01*
X29052Y-35864D01*
X29090Y-35826D01*
X29090Y-35902D01*
X29090Y-35407D02*
X29129Y-35445D01*
X29090Y-35483D01*
X29052Y-35445D01*
X29090Y-35407D01*
X29090Y-35483D01*
X21954Y-36628D02*
X23214Y-37888D01*
X23214Y-36628D02*
X21954Y-37888D01*
X23757Y-36782D02*
X23833Y-36782D01*
X23909Y-36820D01*
X23947Y-36858D01*
X23985Y-36934D01*
X24024Y-37087D01*
X24024Y-37277D01*
X23985Y-37429D01*
X23947Y-37506D01*
X23909Y-37544D01*
X23833Y-37582D01*
X23757Y-37582D01*
X23681Y-37544D01*
X23643Y-37506D01*
X23604Y-37429D01*
X23566Y-37277D01*
X23566Y-37087D01*
X23604Y-36934D01*
X23643Y-36858D01*
X23681Y-36820D01*
X23757Y-36782D01*
X24366Y-37506D02*
X24405Y-37544D01*
X24366Y-37582D01*
X24328Y-37544D01*
X24366Y-37506D01*
X24366Y-37582D01*
X25167Y-37582D02*
X24709Y-37582D01*
X24938Y-37582D02*
X24938Y-36782D01*
X24862Y-36896D01*
X24786Y-36972D01*
X24709Y-37010D01*
X25471Y-36858D02*
X25509Y-36820D01*
X25586Y-36782D01*
X25776Y-36782D01*
X25852Y-36820D01*
X25890Y-36858D01*
X25929Y-36934D01*
X25929Y-37010D01*
X25890Y-37125D01*
X25433Y-37582D01*
X25929Y-37582D01*
X26614Y-36782D02*
X26462Y-36782D01*
X26386Y-36820D01*
X26348Y-36858D01*
X26271Y-36972D01*
X26233Y-37125D01*
X26233Y-37429D01*
X26271Y-37506D01*
X26310Y-37544D01*
X26386Y-37582D01*
X26538Y-37582D01*
X26614Y-37544D01*
X26652Y-37506D01*
X26691Y-37429D01*
X26691Y-37239D01*
X26652Y-37163D01*
X26614Y-37125D01*
X26538Y-37087D01*
X26386Y-37087D01*
X26310Y-37125D01*
X26271Y-37163D01*
X26233Y-37239D01*
X26995Y-36782D02*
X26995Y-36934D01*
X27300Y-36782D02*
X27300Y-36934D01*
X28825Y-36744D02*
X28139Y-37772D01*
X29625Y-36782D02*
X30121Y-36782D01*
X29854Y-37087D01*
X29968Y-37087D01*
X30044Y-37125D01*
X30082Y-37163D01*
X30121Y-37239D01*
X30121Y-37429D01*
X30082Y-37506D01*
X30044Y-37544D01*
X29968Y-37582D01*
X29740Y-37582D01*
X29663Y-37544D01*
X29625Y-37506D01*
X30463Y-37506D02*
X30502Y-37544D01*
X30463Y-37582D01*
X30425Y-37544D01*
X30463Y-37506D01*
X30463Y-37582D01*
X30806Y-36858D02*
X30844Y-36820D01*
X30921Y-36782D01*
X31111Y-36782D01*
X31187Y-36820D01*
X31225Y-36858D01*
X31264Y-36934D01*
X31264Y-37010D01*
X31225Y-37125D01*
X30768Y-37582D01*
X31264Y-37582D01*
X31759Y-36782D02*
X31835Y-36782D01*
X31911Y-36820D01*
X31949Y-36858D01*
X31987Y-36934D01*
X32026Y-37087D01*
X32026Y-37277D01*
X31987Y-37429D01*
X31949Y-37506D01*
X31911Y-37544D01*
X31835Y-37582D01*
X31759Y-37582D01*
X31683Y-37544D01*
X31645Y-37506D01*
X31606Y-37429D01*
X31568Y-37277D01*
X31568Y-37087D01*
X31606Y-36934D01*
X31645Y-36858D01*
X31683Y-36820D01*
X31759Y-36782D01*
X32368Y-37582D02*
X32368Y-37048D01*
X32368Y-37125D02*
X32407Y-37087D01*
X32483Y-37048D01*
X32597Y-37048D01*
X32673Y-37087D01*
X32711Y-37163D01*
X32711Y-37582D01*
X32711Y-37163D02*
X32749Y-37087D01*
X32826Y-37048D01*
X32940Y-37048D01*
X33016Y-37087D01*
X33054Y-37163D01*
X33054Y-37582D01*
X33435Y-37582D02*
X33435Y-37048D01*
X33435Y-37125D02*
X33474Y-37087D01*
X33550Y-37048D01*
X33664Y-37048D01*
X33740Y-37087D01*
X33778Y-37163D01*
X33778Y-37582D01*
X33778Y-37163D02*
X33816Y-37087D01*
X33893Y-37048D01*
X34007Y-37048D01*
X34083Y-37087D01*
X34121Y-37163D01*
X34121Y-37582D01*
X35341Y-37887D02*
X35303Y-37848D01*
X35227Y-37734D01*
X35189Y-37658D01*
X35151Y-37544D01*
X35112Y-37353D01*
X35112Y-37201D01*
X35151Y-37010D01*
X35189Y-36896D01*
X35227Y-36820D01*
X35303Y-36706D01*
X35341Y-36668D01*
X35607Y-36858D02*
X35645Y-36820D01*
X35722Y-36782D01*
X35912Y-36782D01*
X35988Y-36820D01*
X36026Y-36858D01*
X36065Y-36934D01*
X36065Y-37010D01*
X36026Y-37125D01*
X35569Y-37582D01*
X36065Y-37582D01*
X37017Y-37582D02*
X37017Y-36782D01*
X37360Y-37582D02*
X37360Y-37163D01*
X37322Y-37087D01*
X37246Y-37048D01*
X37132Y-37048D01*
X37056Y-37087D01*
X37017Y-37125D01*
X37856Y-37582D02*
X37780Y-37544D01*
X37741Y-37506D01*
X37703Y-37429D01*
X37703Y-37201D01*
X37741Y-37125D01*
X37780Y-37087D01*
X37856Y-37048D01*
X37970Y-37048D01*
X38046Y-37087D01*
X38084Y-37125D01*
X38122Y-37201D01*
X38122Y-37429D01*
X38084Y-37506D01*
X38046Y-37544D01*
X37970Y-37582D01*
X37856Y-37582D01*
X38580Y-37582D02*
X38504Y-37544D01*
X38465Y-37468D01*
X38465Y-36782D01*
X39189Y-37544D02*
X39113Y-37582D01*
X38961Y-37582D01*
X38884Y-37544D01*
X38846Y-37468D01*
X38846Y-37163D01*
X38884Y-37087D01*
X38961Y-37048D01*
X39113Y-37048D01*
X39189Y-37087D01*
X39227Y-37163D01*
X39227Y-37239D01*
X38846Y-37315D01*
X39532Y-37544D02*
X39609Y-37582D01*
X39761Y-37582D01*
X39837Y-37544D01*
X39875Y-37468D01*
X39875Y-37429D01*
X39837Y-37353D01*
X39761Y-37315D01*
X39647Y-37315D01*
X39570Y-37277D01*
X39532Y-37201D01*
X39532Y-37163D01*
X39570Y-37087D01*
X39647Y-37048D01*
X39761Y-37048D01*
X39837Y-37087D01*
X40142Y-37887D02*
X40180Y-37848D01*
X40257Y-37734D01*
X40295Y-37658D01*
X40333Y-37544D01*
X40371Y-37353D01*
X40371Y-37201D01*
X40333Y-37010D01*
X40295Y-36896D01*
X40257Y-36820D01*
X40180Y-36706D01*
X40142Y-36668D01*
M02*
