G04 (created by PCBNEW (2013-mar-13)-testing) date Wed 05 Feb 2014 03:02:11 PM CET*
%MOIN*%
G04 Gerber Fmt 3.4, Leading zero omitted, Abs format*
%FSLAX34Y34*%
G01*
G70*
G90*
G04 APERTURE LIST*
%ADD10C,0.005906*%
%ADD11R,0.045000X0.025000*%
%ADD12R,0.086600X0.060000*%
%ADD13O,0.086600X0.060000*%
%ADD14R,0.080000X0.060000*%
%ADD15R,0.140000X0.070000*%
%ADD16R,0.035000X0.055000*%
%ADD17R,0.039400X0.023600*%
%ADD18R,0.070900X0.106300*%
%ADD19C,0.126000*%
%ADD20C,0.039370*%
%ADD21C,0.023622*%
%ADD22C,0.010000*%
G04 APERTURE END LIST*
G54D10*
G54D11*
X55610Y-41137D03*
X55610Y-41737D03*
G54D12*
X61023Y-44381D03*
G54D13*
X61023Y-45381D03*
G54D11*
X57480Y-45762D03*
X57480Y-46362D03*
G54D14*
X54429Y-41082D03*
X54429Y-42382D03*
G54D15*
X57086Y-41375D03*
X57086Y-42875D03*
G54D16*
X58680Y-42913D03*
X59430Y-42913D03*
G54D12*
X52755Y-42019D03*
G54D13*
X52755Y-43019D03*
G54D12*
X52755Y-45169D03*
G54D13*
X52755Y-46169D03*
G54D17*
X55489Y-45294D03*
X56321Y-45669D03*
X55489Y-46044D03*
G54D18*
X57322Y-44488D03*
X59212Y-44488D03*
G54D19*
X51968Y-40551D03*
X61417Y-40551D03*
X51968Y-47637D03*
X61417Y-47637D03*
G54D20*
X52755Y-42019D02*
X52755Y-41811D01*
X52755Y-42019D02*
X52755Y-41811D01*
X56694Y-40984D02*
X57086Y-41375D01*
X55196Y-40984D02*
X56694Y-40984D01*
X55098Y-41082D02*
X55196Y-40984D01*
X53484Y-41082D02*
X55098Y-41082D01*
X52755Y-41811D02*
X53484Y-41082D01*
G54D21*
X52755Y-45169D02*
X55364Y-45169D01*
X55364Y-45169D02*
X55489Y-45294D01*
X55489Y-46044D02*
X55364Y-46169D01*
X52755Y-43019D02*
X52610Y-43019D01*
X52074Y-46169D02*
X52755Y-46169D01*
X51732Y-45826D02*
X52074Y-46169D01*
X51732Y-43897D02*
X51732Y-45826D01*
X52610Y-43019D02*
X51732Y-43897D01*
X52755Y-46169D02*
X55364Y-46169D01*
X55364Y-46169D02*
X56006Y-46811D01*
X56006Y-46811D02*
X57032Y-46811D01*
X57032Y-46811D02*
X57465Y-46377D01*
X57465Y-46377D02*
X60027Y-46377D01*
X60027Y-46377D02*
X61023Y-45381D01*
X52755Y-43019D02*
X53791Y-43019D01*
X55610Y-42066D02*
X55610Y-41737D01*
X55314Y-42362D02*
X55610Y-42066D01*
X54449Y-42362D02*
X55314Y-42362D01*
X53791Y-43019D02*
X54449Y-42362D01*
X59430Y-42913D02*
X59430Y-44270D01*
X59430Y-44270D02*
X59212Y-44488D01*
X59212Y-44488D02*
X60917Y-44488D01*
X60917Y-44488D02*
X61023Y-44381D01*
X57322Y-44488D02*
X57322Y-45605D01*
X57322Y-45605D02*
X57480Y-45762D01*
X56321Y-45669D02*
X57386Y-45669D01*
X57386Y-45669D02*
X57480Y-45762D01*
X57086Y-42875D02*
X57086Y-44252D01*
X57086Y-44252D02*
X57322Y-44488D01*
X57086Y-42875D02*
X58642Y-42875D01*
X58642Y-42875D02*
X58680Y-42913D01*
G54D10*
G36*
X61957Y-46699D02*
X61689Y-46588D01*
X61689Y-45516D01*
X61689Y-45246D01*
X61683Y-45217D01*
X61580Y-45028D01*
X61413Y-44892D01*
X61206Y-44831D01*
X61486Y-44831D01*
X61541Y-44809D01*
X61583Y-44766D01*
X61606Y-44711D01*
X61606Y-44652D01*
X61606Y-44052D01*
X61583Y-43996D01*
X61541Y-43954D01*
X61486Y-43931D01*
X61426Y-43931D01*
X60560Y-43931D01*
X60505Y-43954D01*
X60463Y-43996D01*
X60440Y-44052D01*
X60440Y-44111D01*
X60440Y-44220D01*
X59717Y-44220D01*
X59717Y-43926D01*
X59698Y-43881D01*
X59698Y-43307D01*
X59732Y-43273D01*
X59755Y-43218D01*
X59755Y-43158D01*
X59755Y-42608D01*
X59732Y-42553D01*
X59690Y-42511D01*
X59634Y-42488D01*
X59575Y-42488D01*
X59225Y-42488D01*
X59170Y-42511D01*
X59127Y-42553D01*
X59105Y-42608D01*
X59105Y-42668D01*
X59105Y-43218D01*
X59127Y-43273D01*
X59162Y-43307D01*
X59162Y-43806D01*
X59005Y-43806D01*
X59005Y-43218D01*
X59005Y-43158D01*
X59005Y-42608D01*
X58982Y-42553D01*
X58940Y-42511D01*
X58884Y-42488D01*
X58825Y-42488D01*
X58475Y-42488D01*
X58420Y-42511D01*
X58377Y-42553D01*
X58355Y-42607D01*
X57936Y-42607D01*
X57936Y-42496D01*
X57913Y-42441D01*
X57871Y-42398D01*
X57816Y-42375D01*
X57756Y-42375D01*
X56356Y-42375D01*
X56301Y-42398D01*
X56259Y-42441D01*
X56236Y-42496D01*
X56236Y-42555D01*
X56236Y-43255D01*
X56259Y-43310D01*
X56301Y-43353D01*
X56356Y-43375D01*
X56416Y-43375D01*
X56818Y-43375D01*
X56818Y-43926D01*
X56818Y-43926D01*
X56818Y-43986D01*
X56818Y-45049D01*
X56841Y-45104D01*
X56883Y-45146D01*
X56938Y-45169D01*
X56998Y-45169D01*
X57054Y-45169D01*
X57054Y-45401D01*
X56321Y-45401D01*
X56320Y-45401D01*
X56094Y-45401D01*
X56085Y-45405D01*
X56085Y-41911D01*
X56085Y-41849D01*
X56022Y-41787D01*
X55660Y-41787D01*
X55660Y-42049D01*
X55722Y-42112D01*
X55785Y-42112D01*
X55884Y-42112D01*
X55976Y-42073D01*
X56047Y-42003D01*
X56085Y-41911D01*
X56085Y-45405D01*
X56039Y-45424D01*
X55997Y-45466D01*
X55974Y-45521D01*
X55974Y-45581D01*
X55974Y-45817D01*
X55997Y-45872D01*
X56039Y-45914D01*
X56094Y-45937D01*
X56154Y-45937D01*
X56320Y-45937D01*
X56321Y-45937D01*
X57113Y-45937D01*
X57128Y-45972D01*
X57161Y-46006D01*
X57113Y-46026D01*
X57043Y-46096D01*
X57005Y-46188D01*
X57005Y-46250D01*
X57067Y-46312D01*
X57430Y-46312D01*
X57430Y-46305D01*
X57530Y-46305D01*
X57530Y-46312D01*
X57892Y-46312D01*
X57955Y-46250D01*
X57955Y-46188D01*
X57917Y-46096D01*
X57846Y-46026D01*
X57799Y-46006D01*
X57832Y-45972D01*
X57855Y-45917D01*
X57855Y-45858D01*
X57855Y-45608D01*
X57832Y-45553D01*
X57790Y-45510D01*
X57735Y-45487D01*
X57675Y-45487D01*
X57590Y-45487D01*
X57590Y-45169D01*
X57707Y-45169D01*
X57762Y-45146D01*
X57804Y-45104D01*
X57827Y-45049D01*
X57827Y-44989D01*
X57827Y-43926D01*
X57804Y-43871D01*
X57762Y-43829D01*
X57707Y-43806D01*
X57647Y-43806D01*
X57354Y-43806D01*
X57354Y-43375D01*
X57816Y-43375D01*
X57871Y-43353D01*
X57913Y-43310D01*
X57936Y-43255D01*
X57936Y-43196D01*
X57936Y-43144D01*
X58355Y-43144D01*
X58355Y-43218D01*
X58377Y-43273D01*
X58420Y-43315D01*
X58475Y-43338D01*
X58534Y-43338D01*
X58884Y-43338D01*
X58940Y-43315D01*
X58982Y-43273D01*
X59005Y-43218D01*
X59005Y-43806D01*
X58828Y-43806D01*
X58773Y-43829D01*
X58731Y-43871D01*
X58708Y-43926D01*
X58708Y-43986D01*
X58708Y-45049D01*
X58731Y-45104D01*
X58773Y-45146D01*
X58828Y-45169D01*
X58888Y-45169D01*
X59597Y-45169D01*
X59652Y-45146D01*
X59694Y-45104D01*
X59717Y-45049D01*
X59717Y-44989D01*
X59717Y-44756D01*
X60459Y-44756D01*
X60463Y-44766D01*
X60505Y-44809D01*
X60560Y-44831D01*
X60620Y-44831D01*
X60840Y-44831D01*
X60633Y-44892D01*
X60466Y-45028D01*
X60363Y-45217D01*
X60357Y-45246D01*
X60405Y-45331D01*
X60973Y-45331D01*
X60973Y-44831D01*
X61073Y-44831D01*
X61073Y-45331D01*
X61641Y-45331D01*
X61689Y-45246D01*
X61689Y-45516D01*
X61641Y-45431D01*
X61073Y-45431D01*
X61073Y-45931D01*
X61206Y-45931D01*
X61413Y-45870D01*
X61580Y-45735D01*
X61683Y-45546D01*
X61689Y-45516D01*
X61689Y-46588D01*
X61631Y-46563D01*
X61204Y-46563D01*
X60973Y-46659D01*
X60973Y-45931D01*
X60973Y-45431D01*
X60405Y-45431D01*
X60357Y-45516D01*
X60363Y-45546D01*
X60466Y-45735D01*
X60633Y-45870D01*
X60840Y-45931D01*
X60973Y-45931D01*
X60973Y-46659D01*
X60809Y-46726D01*
X60507Y-47028D01*
X60343Y-47423D01*
X60343Y-47850D01*
X60478Y-48178D01*
X57955Y-48178D01*
X57955Y-46537D01*
X57955Y-46475D01*
X57892Y-46412D01*
X57530Y-46412D01*
X57530Y-46675D01*
X57592Y-46737D01*
X57655Y-46737D01*
X57755Y-46737D01*
X57846Y-46699D01*
X57917Y-46629D01*
X57955Y-46537D01*
X57955Y-48178D01*
X57430Y-48178D01*
X57430Y-46675D01*
X57430Y-46412D01*
X57067Y-46412D01*
X57005Y-46475D01*
X57005Y-46537D01*
X57043Y-46629D01*
X57113Y-46699D01*
X57205Y-46737D01*
X57305Y-46737D01*
X57367Y-46737D01*
X57430Y-46675D01*
X57430Y-48178D01*
X55936Y-48178D01*
X55936Y-46212D01*
X55936Y-46156D01*
X55936Y-45931D01*
X55936Y-45876D01*
X55898Y-45784D01*
X55836Y-45722D01*
X55836Y-45442D01*
X55836Y-45382D01*
X55836Y-45146D01*
X55813Y-45091D01*
X55771Y-45049D01*
X55716Y-45026D01*
X55656Y-45026D01*
X55600Y-45026D01*
X55560Y-44985D01*
X55560Y-42049D01*
X55560Y-41787D01*
X55197Y-41787D01*
X55135Y-41849D01*
X55135Y-41911D01*
X55173Y-42003D01*
X55243Y-42073D01*
X55335Y-42112D01*
X55434Y-42112D01*
X55497Y-42112D01*
X55560Y-42049D01*
X55560Y-44985D01*
X55554Y-44979D01*
X55467Y-44921D01*
X55364Y-44901D01*
X55079Y-44901D01*
X55079Y-42732D01*
X55079Y-42494D01*
X55079Y-42269D01*
X55079Y-42032D01*
X55041Y-41940D01*
X54970Y-41870D01*
X54878Y-41832D01*
X54779Y-41832D01*
X54541Y-41832D01*
X54479Y-41894D01*
X54479Y-42332D01*
X55016Y-42332D01*
X55079Y-42269D01*
X55079Y-42494D01*
X55016Y-42432D01*
X54479Y-42432D01*
X54479Y-42869D01*
X54541Y-42932D01*
X54779Y-42932D01*
X54878Y-42932D01*
X54970Y-42894D01*
X55041Y-42823D01*
X55079Y-42732D01*
X55079Y-44901D01*
X54379Y-44901D01*
X54379Y-42869D01*
X54379Y-42432D01*
X54379Y-42332D01*
X54379Y-41894D01*
X54316Y-41832D01*
X54078Y-41832D01*
X53979Y-41832D01*
X53887Y-41870D01*
X53817Y-41940D01*
X53779Y-42032D01*
X53779Y-42269D01*
X53841Y-42332D01*
X54379Y-42332D01*
X54379Y-42432D01*
X53841Y-42432D01*
X53779Y-42494D01*
X53779Y-42732D01*
X53817Y-42823D01*
X53887Y-42894D01*
X53979Y-42932D01*
X54078Y-42932D01*
X54316Y-42932D01*
X54379Y-42869D01*
X54379Y-44901D01*
X53422Y-44901D01*
X53422Y-43154D01*
X53373Y-43069D01*
X52805Y-43069D01*
X52805Y-43569D01*
X52938Y-43569D01*
X53145Y-43508D01*
X53313Y-43373D01*
X53416Y-43183D01*
X53422Y-43154D01*
X53422Y-44901D01*
X53338Y-44901D01*
X53338Y-44839D01*
X53316Y-44784D01*
X53273Y-44742D01*
X53218Y-44719D01*
X53159Y-44719D01*
X52705Y-44719D01*
X52705Y-43569D01*
X52705Y-43069D01*
X52137Y-43069D01*
X52089Y-43154D01*
X52095Y-43183D01*
X52198Y-43373D01*
X52366Y-43508D01*
X52572Y-43569D01*
X52705Y-43569D01*
X52705Y-44719D01*
X52293Y-44719D01*
X52237Y-44742D01*
X52195Y-44784D01*
X52172Y-44839D01*
X52172Y-44899D01*
X52172Y-45499D01*
X52195Y-45554D01*
X52237Y-45596D01*
X52293Y-45619D01*
X52352Y-45619D01*
X52572Y-45619D01*
X52366Y-45680D01*
X52198Y-45815D01*
X52095Y-46005D01*
X52089Y-46034D01*
X52137Y-46119D01*
X52705Y-46119D01*
X52705Y-45619D01*
X52805Y-45619D01*
X52805Y-46119D01*
X53373Y-46119D01*
X53422Y-46034D01*
X53416Y-46005D01*
X53313Y-45815D01*
X53145Y-45680D01*
X52938Y-45619D01*
X53218Y-45619D01*
X53273Y-45596D01*
X53316Y-45554D01*
X53338Y-45499D01*
X53338Y-45439D01*
X53338Y-45437D01*
X55142Y-45437D01*
X55142Y-45442D01*
X55165Y-45497D01*
X55207Y-45539D01*
X55262Y-45562D01*
X55322Y-45562D01*
X55488Y-45562D01*
X55489Y-45562D01*
X55490Y-45562D01*
X55716Y-45562D01*
X55771Y-45539D01*
X55813Y-45497D01*
X55836Y-45442D01*
X55836Y-45722D01*
X55828Y-45714D01*
X55736Y-45676D01*
X55636Y-45676D01*
X55602Y-45676D01*
X55539Y-45738D01*
X55539Y-45994D01*
X55874Y-45994D01*
X55936Y-45931D01*
X55936Y-46156D01*
X55874Y-46094D01*
X55539Y-46094D01*
X55539Y-46349D01*
X55602Y-46412D01*
X55636Y-46412D01*
X55736Y-46412D01*
X55828Y-46374D01*
X55898Y-46303D01*
X55936Y-46212D01*
X55936Y-48178D01*
X55439Y-48178D01*
X55439Y-46349D01*
X55439Y-46094D01*
X55439Y-45994D01*
X55439Y-45738D01*
X55377Y-45676D01*
X55342Y-45676D01*
X55242Y-45676D01*
X55150Y-45714D01*
X55080Y-45784D01*
X55042Y-45876D01*
X55042Y-45931D01*
X55105Y-45994D01*
X55439Y-45994D01*
X55439Y-46094D01*
X55105Y-46094D01*
X55042Y-46156D01*
X55042Y-46212D01*
X55080Y-46303D01*
X55150Y-46374D01*
X55242Y-46412D01*
X55342Y-46412D01*
X55377Y-46412D01*
X55439Y-46349D01*
X55439Y-48178D01*
X53422Y-48178D01*
X53422Y-46304D01*
X53373Y-46219D01*
X52805Y-46219D01*
X52805Y-46719D01*
X52938Y-46719D01*
X53145Y-46658D01*
X53313Y-46522D01*
X53416Y-46333D01*
X53422Y-46304D01*
X53422Y-48178D01*
X52906Y-48178D01*
X53042Y-47852D01*
X53042Y-47425D01*
X52879Y-47030D01*
X52577Y-46727D01*
X52518Y-46703D01*
X52572Y-46719D01*
X52705Y-46719D01*
X52705Y-46219D01*
X52137Y-46219D01*
X52089Y-46304D01*
X52095Y-46333D01*
X52198Y-46522D01*
X52319Y-46620D01*
X52183Y-46563D01*
X51755Y-46563D01*
X51427Y-46699D01*
X51427Y-41489D01*
X51753Y-41624D01*
X52181Y-41625D01*
X52221Y-41608D01*
X52195Y-41634D01*
X52172Y-41689D01*
X52172Y-41749D01*
X52172Y-42349D01*
X52195Y-42404D01*
X52237Y-42446D01*
X52293Y-42469D01*
X52352Y-42469D01*
X52572Y-42469D01*
X52366Y-42530D01*
X52198Y-42666D01*
X52095Y-42855D01*
X52089Y-42884D01*
X52137Y-42969D01*
X52705Y-42969D01*
X52705Y-42469D01*
X52805Y-42469D01*
X52805Y-42969D01*
X53373Y-42969D01*
X53422Y-42884D01*
X53416Y-42855D01*
X53313Y-42666D01*
X53145Y-42530D01*
X52938Y-42469D01*
X53218Y-42469D01*
X53273Y-42446D01*
X53316Y-42404D01*
X53338Y-42349D01*
X53338Y-42289D01*
X53338Y-41718D01*
X53628Y-41429D01*
X53886Y-41429D01*
X53901Y-41467D01*
X53944Y-41509D01*
X53999Y-41532D01*
X54058Y-41532D01*
X54858Y-41532D01*
X54914Y-41509D01*
X54956Y-41467D01*
X54972Y-41429D01*
X55098Y-41429D01*
X55231Y-41402D01*
X55280Y-41369D01*
X55291Y-41380D01*
X55243Y-41400D01*
X55173Y-41470D01*
X55135Y-41562D01*
X55135Y-41624D01*
X55197Y-41687D01*
X55560Y-41687D01*
X55560Y-41679D01*
X55660Y-41679D01*
X55660Y-41687D01*
X56022Y-41687D01*
X56085Y-41624D01*
X56085Y-41562D01*
X56047Y-41470D01*
X55976Y-41400D01*
X55929Y-41380D01*
X55962Y-41346D01*
X55968Y-41331D01*
X56236Y-41331D01*
X56236Y-41755D01*
X56259Y-41810D01*
X56301Y-41853D01*
X56356Y-41875D01*
X56416Y-41875D01*
X57816Y-41875D01*
X57871Y-41853D01*
X57913Y-41810D01*
X57936Y-41755D01*
X57936Y-41696D01*
X57936Y-40996D01*
X57913Y-40941D01*
X57871Y-40898D01*
X57816Y-40875D01*
X57756Y-40875D01*
X57077Y-40875D01*
X56940Y-40738D01*
X56827Y-40663D01*
X56694Y-40637D01*
X55196Y-40637D01*
X55064Y-40663D01*
X54968Y-40727D01*
X54956Y-40697D01*
X54914Y-40655D01*
X54858Y-40632D01*
X54799Y-40632D01*
X53999Y-40632D01*
X53944Y-40655D01*
X53901Y-40697D01*
X53886Y-40735D01*
X53484Y-40735D01*
X53351Y-40761D01*
X53239Y-40837D01*
X52510Y-41565D01*
X52508Y-41569D01*
X52315Y-41569D01*
X52576Y-41462D01*
X52878Y-41160D01*
X53042Y-40765D01*
X53042Y-40338D01*
X52907Y-40010D01*
X60478Y-40010D01*
X60343Y-40336D01*
X60343Y-40763D01*
X60506Y-41158D01*
X60808Y-41461D01*
X61202Y-41624D01*
X61630Y-41625D01*
X61957Y-41489D01*
X61957Y-46699D01*
X61957Y-46699D01*
G37*
G54D22*
X61957Y-46699D02*
X61689Y-46588D01*
X61689Y-45516D01*
X61689Y-45246D01*
X61683Y-45217D01*
X61580Y-45028D01*
X61413Y-44892D01*
X61206Y-44831D01*
X61486Y-44831D01*
X61541Y-44809D01*
X61583Y-44766D01*
X61606Y-44711D01*
X61606Y-44652D01*
X61606Y-44052D01*
X61583Y-43996D01*
X61541Y-43954D01*
X61486Y-43931D01*
X61426Y-43931D01*
X60560Y-43931D01*
X60505Y-43954D01*
X60463Y-43996D01*
X60440Y-44052D01*
X60440Y-44111D01*
X60440Y-44220D01*
X59717Y-44220D01*
X59717Y-43926D01*
X59698Y-43881D01*
X59698Y-43307D01*
X59732Y-43273D01*
X59755Y-43218D01*
X59755Y-43158D01*
X59755Y-42608D01*
X59732Y-42553D01*
X59690Y-42511D01*
X59634Y-42488D01*
X59575Y-42488D01*
X59225Y-42488D01*
X59170Y-42511D01*
X59127Y-42553D01*
X59105Y-42608D01*
X59105Y-42668D01*
X59105Y-43218D01*
X59127Y-43273D01*
X59162Y-43307D01*
X59162Y-43806D01*
X59005Y-43806D01*
X59005Y-43218D01*
X59005Y-43158D01*
X59005Y-42608D01*
X58982Y-42553D01*
X58940Y-42511D01*
X58884Y-42488D01*
X58825Y-42488D01*
X58475Y-42488D01*
X58420Y-42511D01*
X58377Y-42553D01*
X58355Y-42607D01*
X57936Y-42607D01*
X57936Y-42496D01*
X57913Y-42441D01*
X57871Y-42398D01*
X57816Y-42375D01*
X57756Y-42375D01*
X56356Y-42375D01*
X56301Y-42398D01*
X56259Y-42441D01*
X56236Y-42496D01*
X56236Y-42555D01*
X56236Y-43255D01*
X56259Y-43310D01*
X56301Y-43353D01*
X56356Y-43375D01*
X56416Y-43375D01*
X56818Y-43375D01*
X56818Y-43926D01*
X56818Y-43926D01*
X56818Y-43986D01*
X56818Y-45049D01*
X56841Y-45104D01*
X56883Y-45146D01*
X56938Y-45169D01*
X56998Y-45169D01*
X57054Y-45169D01*
X57054Y-45401D01*
X56321Y-45401D01*
X56320Y-45401D01*
X56094Y-45401D01*
X56085Y-45405D01*
X56085Y-41911D01*
X56085Y-41849D01*
X56022Y-41787D01*
X55660Y-41787D01*
X55660Y-42049D01*
X55722Y-42112D01*
X55785Y-42112D01*
X55884Y-42112D01*
X55976Y-42073D01*
X56047Y-42003D01*
X56085Y-41911D01*
X56085Y-45405D01*
X56039Y-45424D01*
X55997Y-45466D01*
X55974Y-45521D01*
X55974Y-45581D01*
X55974Y-45817D01*
X55997Y-45872D01*
X56039Y-45914D01*
X56094Y-45937D01*
X56154Y-45937D01*
X56320Y-45937D01*
X56321Y-45937D01*
X57113Y-45937D01*
X57128Y-45972D01*
X57161Y-46006D01*
X57113Y-46026D01*
X57043Y-46096D01*
X57005Y-46188D01*
X57005Y-46250D01*
X57067Y-46312D01*
X57430Y-46312D01*
X57430Y-46305D01*
X57530Y-46305D01*
X57530Y-46312D01*
X57892Y-46312D01*
X57955Y-46250D01*
X57955Y-46188D01*
X57917Y-46096D01*
X57846Y-46026D01*
X57799Y-46006D01*
X57832Y-45972D01*
X57855Y-45917D01*
X57855Y-45858D01*
X57855Y-45608D01*
X57832Y-45553D01*
X57790Y-45510D01*
X57735Y-45487D01*
X57675Y-45487D01*
X57590Y-45487D01*
X57590Y-45169D01*
X57707Y-45169D01*
X57762Y-45146D01*
X57804Y-45104D01*
X57827Y-45049D01*
X57827Y-44989D01*
X57827Y-43926D01*
X57804Y-43871D01*
X57762Y-43829D01*
X57707Y-43806D01*
X57647Y-43806D01*
X57354Y-43806D01*
X57354Y-43375D01*
X57816Y-43375D01*
X57871Y-43353D01*
X57913Y-43310D01*
X57936Y-43255D01*
X57936Y-43196D01*
X57936Y-43144D01*
X58355Y-43144D01*
X58355Y-43218D01*
X58377Y-43273D01*
X58420Y-43315D01*
X58475Y-43338D01*
X58534Y-43338D01*
X58884Y-43338D01*
X58940Y-43315D01*
X58982Y-43273D01*
X59005Y-43218D01*
X59005Y-43806D01*
X58828Y-43806D01*
X58773Y-43829D01*
X58731Y-43871D01*
X58708Y-43926D01*
X58708Y-43986D01*
X58708Y-45049D01*
X58731Y-45104D01*
X58773Y-45146D01*
X58828Y-45169D01*
X58888Y-45169D01*
X59597Y-45169D01*
X59652Y-45146D01*
X59694Y-45104D01*
X59717Y-45049D01*
X59717Y-44989D01*
X59717Y-44756D01*
X60459Y-44756D01*
X60463Y-44766D01*
X60505Y-44809D01*
X60560Y-44831D01*
X60620Y-44831D01*
X60840Y-44831D01*
X60633Y-44892D01*
X60466Y-45028D01*
X60363Y-45217D01*
X60357Y-45246D01*
X60405Y-45331D01*
X60973Y-45331D01*
X60973Y-44831D01*
X61073Y-44831D01*
X61073Y-45331D01*
X61641Y-45331D01*
X61689Y-45246D01*
X61689Y-45516D01*
X61641Y-45431D01*
X61073Y-45431D01*
X61073Y-45931D01*
X61206Y-45931D01*
X61413Y-45870D01*
X61580Y-45735D01*
X61683Y-45546D01*
X61689Y-45516D01*
X61689Y-46588D01*
X61631Y-46563D01*
X61204Y-46563D01*
X60973Y-46659D01*
X60973Y-45931D01*
X60973Y-45431D01*
X60405Y-45431D01*
X60357Y-45516D01*
X60363Y-45546D01*
X60466Y-45735D01*
X60633Y-45870D01*
X60840Y-45931D01*
X60973Y-45931D01*
X60973Y-46659D01*
X60809Y-46726D01*
X60507Y-47028D01*
X60343Y-47423D01*
X60343Y-47850D01*
X60478Y-48178D01*
X57955Y-48178D01*
X57955Y-46537D01*
X57955Y-46475D01*
X57892Y-46412D01*
X57530Y-46412D01*
X57530Y-46675D01*
X57592Y-46737D01*
X57655Y-46737D01*
X57755Y-46737D01*
X57846Y-46699D01*
X57917Y-46629D01*
X57955Y-46537D01*
X57955Y-48178D01*
X57430Y-48178D01*
X57430Y-46675D01*
X57430Y-46412D01*
X57067Y-46412D01*
X57005Y-46475D01*
X57005Y-46537D01*
X57043Y-46629D01*
X57113Y-46699D01*
X57205Y-46737D01*
X57305Y-46737D01*
X57367Y-46737D01*
X57430Y-46675D01*
X57430Y-48178D01*
X55936Y-48178D01*
X55936Y-46212D01*
X55936Y-46156D01*
X55936Y-45931D01*
X55936Y-45876D01*
X55898Y-45784D01*
X55836Y-45722D01*
X55836Y-45442D01*
X55836Y-45382D01*
X55836Y-45146D01*
X55813Y-45091D01*
X55771Y-45049D01*
X55716Y-45026D01*
X55656Y-45026D01*
X55600Y-45026D01*
X55560Y-44985D01*
X55560Y-42049D01*
X55560Y-41787D01*
X55197Y-41787D01*
X55135Y-41849D01*
X55135Y-41911D01*
X55173Y-42003D01*
X55243Y-42073D01*
X55335Y-42112D01*
X55434Y-42112D01*
X55497Y-42112D01*
X55560Y-42049D01*
X55560Y-44985D01*
X55554Y-44979D01*
X55467Y-44921D01*
X55364Y-44901D01*
X55079Y-44901D01*
X55079Y-42732D01*
X55079Y-42494D01*
X55079Y-42269D01*
X55079Y-42032D01*
X55041Y-41940D01*
X54970Y-41870D01*
X54878Y-41832D01*
X54779Y-41832D01*
X54541Y-41832D01*
X54479Y-41894D01*
X54479Y-42332D01*
X55016Y-42332D01*
X55079Y-42269D01*
X55079Y-42494D01*
X55016Y-42432D01*
X54479Y-42432D01*
X54479Y-42869D01*
X54541Y-42932D01*
X54779Y-42932D01*
X54878Y-42932D01*
X54970Y-42894D01*
X55041Y-42823D01*
X55079Y-42732D01*
X55079Y-44901D01*
X54379Y-44901D01*
X54379Y-42869D01*
X54379Y-42432D01*
X54379Y-42332D01*
X54379Y-41894D01*
X54316Y-41832D01*
X54078Y-41832D01*
X53979Y-41832D01*
X53887Y-41870D01*
X53817Y-41940D01*
X53779Y-42032D01*
X53779Y-42269D01*
X53841Y-42332D01*
X54379Y-42332D01*
X54379Y-42432D01*
X53841Y-42432D01*
X53779Y-42494D01*
X53779Y-42732D01*
X53817Y-42823D01*
X53887Y-42894D01*
X53979Y-42932D01*
X54078Y-42932D01*
X54316Y-42932D01*
X54379Y-42869D01*
X54379Y-44901D01*
X53422Y-44901D01*
X53422Y-43154D01*
X53373Y-43069D01*
X52805Y-43069D01*
X52805Y-43569D01*
X52938Y-43569D01*
X53145Y-43508D01*
X53313Y-43373D01*
X53416Y-43183D01*
X53422Y-43154D01*
X53422Y-44901D01*
X53338Y-44901D01*
X53338Y-44839D01*
X53316Y-44784D01*
X53273Y-44742D01*
X53218Y-44719D01*
X53159Y-44719D01*
X52705Y-44719D01*
X52705Y-43569D01*
X52705Y-43069D01*
X52137Y-43069D01*
X52089Y-43154D01*
X52095Y-43183D01*
X52198Y-43373D01*
X52366Y-43508D01*
X52572Y-43569D01*
X52705Y-43569D01*
X52705Y-44719D01*
X52293Y-44719D01*
X52237Y-44742D01*
X52195Y-44784D01*
X52172Y-44839D01*
X52172Y-44899D01*
X52172Y-45499D01*
X52195Y-45554D01*
X52237Y-45596D01*
X52293Y-45619D01*
X52352Y-45619D01*
X52572Y-45619D01*
X52366Y-45680D01*
X52198Y-45815D01*
X52095Y-46005D01*
X52089Y-46034D01*
X52137Y-46119D01*
X52705Y-46119D01*
X52705Y-45619D01*
X52805Y-45619D01*
X52805Y-46119D01*
X53373Y-46119D01*
X53422Y-46034D01*
X53416Y-46005D01*
X53313Y-45815D01*
X53145Y-45680D01*
X52938Y-45619D01*
X53218Y-45619D01*
X53273Y-45596D01*
X53316Y-45554D01*
X53338Y-45499D01*
X53338Y-45439D01*
X53338Y-45437D01*
X55142Y-45437D01*
X55142Y-45442D01*
X55165Y-45497D01*
X55207Y-45539D01*
X55262Y-45562D01*
X55322Y-45562D01*
X55488Y-45562D01*
X55489Y-45562D01*
X55490Y-45562D01*
X55716Y-45562D01*
X55771Y-45539D01*
X55813Y-45497D01*
X55836Y-45442D01*
X55836Y-45722D01*
X55828Y-45714D01*
X55736Y-45676D01*
X55636Y-45676D01*
X55602Y-45676D01*
X55539Y-45738D01*
X55539Y-45994D01*
X55874Y-45994D01*
X55936Y-45931D01*
X55936Y-46156D01*
X55874Y-46094D01*
X55539Y-46094D01*
X55539Y-46349D01*
X55602Y-46412D01*
X55636Y-46412D01*
X55736Y-46412D01*
X55828Y-46374D01*
X55898Y-46303D01*
X55936Y-46212D01*
X55936Y-48178D01*
X55439Y-48178D01*
X55439Y-46349D01*
X55439Y-46094D01*
X55439Y-45994D01*
X55439Y-45738D01*
X55377Y-45676D01*
X55342Y-45676D01*
X55242Y-45676D01*
X55150Y-45714D01*
X55080Y-45784D01*
X55042Y-45876D01*
X55042Y-45931D01*
X55105Y-45994D01*
X55439Y-45994D01*
X55439Y-46094D01*
X55105Y-46094D01*
X55042Y-46156D01*
X55042Y-46212D01*
X55080Y-46303D01*
X55150Y-46374D01*
X55242Y-46412D01*
X55342Y-46412D01*
X55377Y-46412D01*
X55439Y-46349D01*
X55439Y-48178D01*
X53422Y-48178D01*
X53422Y-46304D01*
X53373Y-46219D01*
X52805Y-46219D01*
X52805Y-46719D01*
X52938Y-46719D01*
X53145Y-46658D01*
X53313Y-46522D01*
X53416Y-46333D01*
X53422Y-46304D01*
X53422Y-48178D01*
X52906Y-48178D01*
X53042Y-47852D01*
X53042Y-47425D01*
X52879Y-47030D01*
X52577Y-46727D01*
X52518Y-46703D01*
X52572Y-46719D01*
X52705Y-46719D01*
X52705Y-46219D01*
X52137Y-46219D01*
X52089Y-46304D01*
X52095Y-46333D01*
X52198Y-46522D01*
X52319Y-46620D01*
X52183Y-46563D01*
X51755Y-46563D01*
X51427Y-46699D01*
X51427Y-41489D01*
X51753Y-41624D01*
X52181Y-41625D01*
X52221Y-41608D01*
X52195Y-41634D01*
X52172Y-41689D01*
X52172Y-41749D01*
X52172Y-42349D01*
X52195Y-42404D01*
X52237Y-42446D01*
X52293Y-42469D01*
X52352Y-42469D01*
X52572Y-42469D01*
X52366Y-42530D01*
X52198Y-42666D01*
X52095Y-42855D01*
X52089Y-42884D01*
X52137Y-42969D01*
X52705Y-42969D01*
X52705Y-42469D01*
X52805Y-42469D01*
X52805Y-42969D01*
X53373Y-42969D01*
X53422Y-42884D01*
X53416Y-42855D01*
X53313Y-42666D01*
X53145Y-42530D01*
X52938Y-42469D01*
X53218Y-42469D01*
X53273Y-42446D01*
X53316Y-42404D01*
X53338Y-42349D01*
X53338Y-42289D01*
X53338Y-41718D01*
X53628Y-41429D01*
X53886Y-41429D01*
X53901Y-41467D01*
X53944Y-41509D01*
X53999Y-41532D01*
X54058Y-41532D01*
X54858Y-41532D01*
X54914Y-41509D01*
X54956Y-41467D01*
X54972Y-41429D01*
X55098Y-41429D01*
X55231Y-41402D01*
X55280Y-41369D01*
X55291Y-41380D01*
X55243Y-41400D01*
X55173Y-41470D01*
X55135Y-41562D01*
X55135Y-41624D01*
X55197Y-41687D01*
X55560Y-41687D01*
X55560Y-41679D01*
X55660Y-41679D01*
X55660Y-41687D01*
X56022Y-41687D01*
X56085Y-41624D01*
X56085Y-41562D01*
X56047Y-41470D01*
X55976Y-41400D01*
X55929Y-41380D01*
X55962Y-41346D01*
X55968Y-41331D01*
X56236Y-41331D01*
X56236Y-41755D01*
X56259Y-41810D01*
X56301Y-41853D01*
X56356Y-41875D01*
X56416Y-41875D01*
X57816Y-41875D01*
X57871Y-41853D01*
X57913Y-41810D01*
X57936Y-41755D01*
X57936Y-41696D01*
X57936Y-40996D01*
X57913Y-40941D01*
X57871Y-40898D01*
X57816Y-40875D01*
X57756Y-40875D01*
X57077Y-40875D01*
X56940Y-40738D01*
X56827Y-40663D01*
X56694Y-40637D01*
X55196Y-40637D01*
X55064Y-40663D01*
X54968Y-40727D01*
X54956Y-40697D01*
X54914Y-40655D01*
X54858Y-40632D01*
X54799Y-40632D01*
X53999Y-40632D01*
X53944Y-40655D01*
X53901Y-40697D01*
X53886Y-40735D01*
X53484Y-40735D01*
X53351Y-40761D01*
X53239Y-40837D01*
X52510Y-41565D01*
X52508Y-41569D01*
X52315Y-41569D01*
X52576Y-41462D01*
X52878Y-41160D01*
X53042Y-40765D01*
X53042Y-40338D01*
X52907Y-40010D01*
X60478Y-40010D01*
X60343Y-40336D01*
X60343Y-40763D01*
X60506Y-41158D01*
X60808Y-41461D01*
X61202Y-41624D01*
X61630Y-41625D01*
X61957Y-41489D01*
X61957Y-46699D01*
M02*
