G04 (created by PCBNEW (2013-mar-13)-testing) date Mon 10 Mar 2014 10:58:13 AM CET*
%MOIN*%
G04 Gerber Fmt 3.4, Leading zero omitted, Abs format*
%FSLAX34Y34*%
G01*
G70*
G90*
G04 APERTURE LIST*
%ADD10C,0.005906*%
%ADD11R,0.098425X0.098425*%
%ADD12C,0.098425*%
%ADD13C,0.125984*%
%ADD14R,0.086600X0.060000*%
%ADD15O,0.086600X0.060000*%
%ADD16R,0.060000X0.060000*%
%ADD17C,0.060000*%
%ADD18C,0.126000*%
%ADD19C,0.013780*%
%ADD20C,0.010000*%
G04 APERTURE END LIST*
G54D10*
G54D11*
X45250Y-53470D03*
G54D12*
X45250Y-31029D03*
G54D13*
X45250Y-48746D03*
X45250Y-35753D03*
G54D14*
X50250Y-41000D03*
G54D15*
X50250Y-40000D03*
G54D14*
X52250Y-41000D03*
G54D15*
X52250Y-40000D03*
G54D14*
X54500Y-31750D03*
G54D15*
X54500Y-32750D03*
X54500Y-33750D03*
X54500Y-34750D03*
X54500Y-35750D03*
X54500Y-36750D03*
G54D16*
X52462Y-54980D03*
G54D17*
X51462Y-54980D03*
X50462Y-54980D03*
G54D18*
X54724Y-29133D03*
X42519Y-29133D03*
X54724Y-55511D03*
X42519Y-55511D03*
G54D19*
X50719Y-39530D02*
X50250Y-39530D01*
X54500Y-35750D02*
X50719Y-39530D01*
X50250Y-40000D02*
X50250Y-39530D01*
X54793Y-32219D02*
X54500Y-32219D01*
X55349Y-32775D02*
X54793Y-32219D01*
X55349Y-51624D02*
X55349Y-32775D01*
X52462Y-54511D02*
X55349Y-51624D01*
X52462Y-54980D02*
X52462Y-54511D01*
X54500Y-31750D02*
X54500Y-32219D01*
G54D20*
X51789Y-40460D02*
X52250Y-40000D01*
X49932Y-40460D02*
X51789Y-40460D01*
X49663Y-40190D02*
X49932Y-40460D01*
X49663Y-38811D02*
X49663Y-40190D01*
X54274Y-34200D02*
X49663Y-38811D01*
X54500Y-34200D02*
X54274Y-34200D01*
X54500Y-33750D02*
X54500Y-34200D01*
G54D19*
X50250Y-41000D02*
X50852Y-41000D01*
X52543Y-40530D02*
X52250Y-40530D01*
X54500Y-38574D02*
X52543Y-40530D01*
X54500Y-36750D02*
X54500Y-38574D01*
X52250Y-41000D02*
X50852Y-41000D01*
X52250Y-41000D02*
X52250Y-40530D01*
X54500Y-32750D02*
X54500Y-32935D01*
X47156Y-32935D02*
X54500Y-32935D01*
X45250Y-31029D02*
X47156Y-32935D01*
X55105Y-34144D02*
X54500Y-34750D01*
X55105Y-33541D02*
X55105Y-34144D01*
X54500Y-32935D02*
X55105Y-33541D01*
X54500Y-36750D02*
X54500Y-36280D01*
X54786Y-36280D02*
X54500Y-36280D01*
X55108Y-35959D02*
X54786Y-36280D01*
X55108Y-35534D02*
X55108Y-35959D01*
X54793Y-35219D02*
X55108Y-35534D01*
X54500Y-35219D02*
X54793Y-35219D01*
X54500Y-34750D02*
X54500Y-35219D01*
X49952Y-53470D02*
X45250Y-53470D01*
X51462Y-54980D02*
X49952Y-53470D01*
G54D10*
G36*
X54557Y-34800D02*
X54550Y-34800D01*
X54550Y-34807D01*
X54450Y-34807D01*
X54450Y-34800D01*
X54442Y-34800D01*
X54442Y-34700D01*
X54450Y-34700D01*
X54450Y-34692D01*
X54550Y-34692D01*
X54550Y-34700D01*
X54557Y-34700D01*
X54557Y-34800D01*
X54557Y-34800D01*
G37*
G54D20*
X54557Y-34800D02*
X54550Y-34800D01*
X54550Y-34807D01*
X54450Y-34807D01*
X54450Y-34800D01*
X54442Y-34800D01*
X54442Y-34700D01*
X54450Y-34700D01*
X54450Y-34692D01*
X54550Y-34692D01*
X54550Y-34700D01*
X54557Y-34700D01*
X54557Y-34800D01*
G54D10*
G36*
X55112Y-33749D02*
X55077Y-33570D01*
X54975Y-33418D01*
X54823Y-33317D01*
X54704Y-33293D01*
X54889Y-33238D01*
X55057Y-33103D01*
X55112Y-33001D01*
X55112Y-33749D01*
X55112Y-33749D01*
G37*
G54D20*
X55112Y-33749D02*
X55077Y-33570D01*
X54975Y-33418D01*
X54823Y-33317D01*
X54704Y-33293D01*
X54889Y-33238D01*
X55057Y-33103D01*
X55112Y-33001D01*
X55112Y-33749D01*
G54D10*
G36*
X55112Y-34498D02*
X55057Y-34396D01*
X54889Y-34261D01*
X54716Y-34209D01*
X54717Y-34203D01*
X54823Y-34182D01*
X54975Y-34081D01*
X55077Y-33929D01*
X55112Y-33750D01*
X55112Y-34498D01*
X55112Y-34498D01*
G37*
G54D20*
X55112Y-34498D02*
X55057Y-34396D01*
X54889Y-34261D01*
X54716Y-34209D01*
X54717Y-34203D01*
X54823Y-34182D01*
X54975Y-34081D01*
X55077Y-33929D01*
X55112Y-33750D01*
X55112Y-34498D01*
G54D10*
G36*
X55112Y-35749D02*
X55077Y-35570D01*
X54975Y-35418D01*
X54823Y-35317D01*
X54704Y-35293D01*
X54889Y-35238D01*
X55057Y-35103D01*
X55112Y-35001D01*
X55112Y-35749D01*
X55112Y-35749D01*
G37*
G54D20*
X55112Y-35749D02*
X55077Y-35570D01*
X54975Y-35418D01*
X54823Y-35317D01*
X54704Y-35293D01*
X54889Y-35238D01*
X55057Y-35103D01*
X55112Y-35001D01*
X55112Y-35749D01*
G54D10*
G36*
X55112Y-36498D02*
X55057Y-36396D01*
X54889Y-36261D01*
X54704Y-36206D01*
X54823Y-36182D01*
X54975Y-36081D01*
X55077Y-35929D01*
X55112Y-35750D01*
X55112Y-36498D01*
X55112Y-36498D01*
G37*
G54D20*
X55112Y-36498D02*
X55057Y-36396D01*
X54889Y-36261D01*
X54704Y-36206D01*
X54823Y-36182D01*
X54975Y-36081D01*
X55077Y-35929D01*
X55112Y-35750D01*
X55112Y-36498D01*
G54D10*
G36*
X55550Y-54818D02*
X55333Y-54601D01*
X54938Y-54437D01*
X54511Y-54437D01*
X54116Y-54600D01*
X53814Y-54902D01*
X53650Y-55297D01*
X53650Y-55724D01*
X53813Y-56119D01*
X54043Y-56350D01*
X51930Y-56350D01*
X51930Y-54887D01*
X51859Y-54715D01*
X51728Y-54583D01*
X51556Y-54512D01*
X51369Y-54512D01*
X51341Y-54523D01*
X50933Y-54115D01*
X50933Y-41349D01*
X50933Y-41112D01*
X50870Y-41050D01*
X50300Y-41050D01*
X50300Y-41487D01*
X50362Y-41550D01*
X50633Y-41550D01*
X50732Y-41550D01*
X50824Y-41511D01*
X50894Y-41441D01*
X50933Y-41349D01*
X50933Y-54115D01*
X50200Y-53382D01*
X50200Y-41487D01*
X50200Y-41050D01*
X49629Y-41050D01*
X49567Y-41112D01*
X49567Y-41349D01*
X49605Y-41441D01*
X49675Y-41511D01*
X49767Y-41550D01*
X49866Y-41550D01*
X50137Y-41550D01*
X50200Y-41487D01*
X50200Y-53382D01*
X50120Y-53302D01*
X50043Y-53251D01*
X49952Y-53233D01*
X46048Y-53233D01*
X46048Y-48588D01*
X46048Y-35595D01*
X45995Y-35469D01*
X45995Y-31157D01*
X45987Y-30862D01*
X45890Y-30626D01*
X45774Y-30575D01*
X45704Y-30646D01*
X45704Y-30504D01*
X45653Y-30389D01*
X45377Y-30283D01*
X45082Y-30291D01*
X44846Y-30389D01*
X44795Y-30504D01*
X45250Y-30958D01*
X45704Y-30504D01*
X45704Y-30646D01*
X45320Y-31029D01*
X45774Y-31483D01*
X45890Y-31432D01*
X45995Y-31157D01*
X45995Y-35469D01*
X45926Y-35302D01*
X45704Y-35079D01*
X45704Y-31554D01*
X45250Y-31100D01*
X45179Y-31170D01*
X45179Y-31029D01*
X44725Y-30575D01*
X44609Y-30626D01*
X44504Y-30901D01*
X44512Y-31197D01*
X44609Y-31432D01*
X44725Y-31483D01*
X45179Y-31029D01*
X45179Y-31170D01*
X44795Y-31554D01*
X44846Y-31669D01*
X45122Y-31775D01*
X45417Y-31767D01*
X45653Y-31669D01*
X45704Y-31554D01*
X45704Y-35079D01*
X45702Y-35077D01*
X45409Y-34956D01*
X45091Y-34955D01*
X44798Y-35077D01*
X44573Y-35301D01*
X44452Y-35594D01*
X44451Y-35911D01*
X44573Y-36205D01*
X44797Y-36430D01*
X45090Y-36551D01*
X45408Y-36552D01*
X45701Y-36430D01*
X45926Y-36206D01*
X46047Y-35913D01*
X46048Y-35595D01*
X46048Y-48588D01*
X45926Y-48294D01*
X45702Y-48069D01*
X45409Y-47948D01*
X45091Y-47947D01*
X44798Y-48069D01*
X44573Y-48293D01*
X44452Y-48586D01*
X44451Y-48904D01*
X44573Y-49197D01*
X44797Y-49422D01*
X45090Y-49543D01*
X45408Y-49544D01*
X45701Y-49422D01*
X45926Y-49198D01*
X46047Y-48905D01*
X46048Y-48588D01*
X46048Y-53233D01*
X45910Y-53233D01*
X45910Y-52944D01*
X45884Y-52883D01*
X45837Y-52835D01*
X45775Y-52810D01*
X45708Y-52810D01*
X44724Y-52810D01*
X44662Y-52835D01*
X44615Y-52883D01*
X44589Y-52944D01*
X44589Y-53011D01*
X44589Y-53996D01*
X44615Y-54057D01*
X44662Y-54105D01*
X44724Y-54130D01*
X44791Y-54130D01*
X45775Y-54130D01*
X45837Y-54105D01*
X45884Y-54057D01*
X45910Y-53996D01*
X45910Y-53929D01*
X45910Y-53707D01*
X49854Y-53707D01*
X51006Y-54859D01*
X50994Y-54886D01*
X50994Y-55073D01*
X51065Y-55245D01*
X51197Y-55376D01*
X51369Y-55448D01*
X51555Y-55448D01*
X51727Y-55377D01*
X51859Y-55245D01*
X51930Y-55073D01*
X51930Y-54887D01*
X51930Y-56350D01*
X50930Y-56350D01*
X50930Y-54887D01*
X50859Y-54715D01*
X50728Y-54583D01*
X50556Y-54512D01*
X50369Y-54512D01*
X50197Y-54583D01*
X50065Y-54714D01*
X49994Y-54886D01*
X49994Y-55073D01*
X50065Y-55245D01*
X50197Y-55376D01*
X50369Y-55448D01*
X50555Y-55448D01*
X50727Y-55377D01*
X50859Y-55245D01*
X50930Y-55073D01*
X50930Y-54887D01*
X50930Y-56350D01*
X43200Y-56350D01*
X43429Y-56120D01*
X43593Y-55726D01*
X43593Y-55299D01*
X43430Y-54904D01*
X43128Y-54601D01*
X42734Y-54437D01*
X42306Y-54437D01*
X41912Y-54600D01*
X41650Y-54862D01*
X41650Y-29782D01*
X41910Y-30043D01*
X42305Y-30207D01*
X42732Y-30208D01*
X43127Y-30044D01*
X43429Y-29743D01*
X43593Y-29348D01*
X43593Y-28921D01*
X43430Y-28526D01*
X43354Y-28450D01*
X53889Y-28450D01*
X53814Y-28524D01*
X53650Y-28919D01*
X53650Y-29346D01*
X53813Y-29741D01*
X54115Y-30043D01*
X54509Y-30207D01*
X54937Y-30208D01*
X55331Y-30044D01*
X55550Y-29827D01*
X55550Y-32656D01*
X55517Y-32608D01*
X55065Y-32155D01*
X55075Y-32145D01*
X55101Y-32083D01*
X55101Y-32016D01*
X55101Y-31416D01*
X55075Y-31354D01*
X55028Y-31307D01*
X54966Y-31281D01*
X54899Y-31281D01*
X54033Y-31281D01*
X53971Y-31307D01*
X53924Y-31354D01*
X53898Y-31416D01*
X53898Y-31483D01*
X53898Y-32083D01*
X53924Y-32145D01*
X53971Y-32192D01*
X54033Y-32218D01*
X54100Y-32218D01*
X54255Y-32218D01*
X54110Y-32261D01*
X53942Y-32396D01*
X53839Y-32585D01*
X53833Y-32614D01*
X53882Y-32700D01*
X54450Y-32700D01*
X54450Y-32692D01*
X54550Y-32692D01*
X54550Y-32700D01*
X54557Y-32700D01*
X54557Y-32800D01*
X54550Y-32800D01*
X54550Y-32807D01*
X54450Y-32807D01*
X54450Y-32800D01*
X53882Y-32800D01*
X53833Y-32885D01*
X53839Y-32914D01*
X53942Y-33103D01*
X54110Y-33238D01*
X54295Y-33293D01*
X54176Y-33317D01*
X54024Y-33418D01*
X53922Y-33570D01*
X53887Y-33750D01*
X53922Y-33929D01*
X54024Y-34081D01*
X54061Y-34105D01*
X49508Y-38657D01*
X49461Y-38728D01*
X49445Y-38811D01*
X49445Y-40190D01*
X49461Y-40274D01*
X49508Y-40345D01*
X49663Y-40499D01*
X49605Y-40558D01*
X49567Y-40650D01*
X49567Y-40887D01*
X49629Y-40950D01*
X50200Y-40950D01*
X50200Y-40942D01*
X50300Y-40942D01*
X50300Y-40950D01*
X50870Y-40950D01*
X50933Y-40887D01*
X50933Y-40678D01*
X51567Y-40678D01*
X51567Y-40887D01*
X51629Y-40950D01*
X52200Y-40950D01*
X52200Y-40942D01*
X52300Y-40942D01*
X52300Y-40950D01*
X52870Y-40950D01*
X52933Y-40887D01*
X52933Y-40650D01*
X52894Y-40558D01*
X52824Y-40488D01*
X52732Y-40450D01*
X52633Y-40450D01*
X52485Y-40450D01*
X52573Y-40432D01*
X52725Y-40331D01*
X52827Y-40179D01*
X52862Y-40000D01*
X52827Y-39820D01*
X52725Y-39668D01*
X52573Y-39567D01*
X52394Y-39531D01*
X52105Y-39531D01*
X51926Y-39567D01*
X51774Y-39668D01*
X51672Y-39820D01*
X51637Y-40000D01*
X51672Y-40179D01*
X51708Y-40232D01*
X51699Y-40241D01*
X50785Y-40241D01*
X50827Y-40179D01*
X50862Y-40000D01*
X50827Y-39820D01*
X50783Y-39755D01*
X50809Y-39749D01*
X50886Y-39698D01*
X53817Y-36768D01*
X53817Y-36800D01*
X53882Y-36800D01*
X53833Y-36885D01*
X53839Y-36914D01*
X53942Y-37103D01*
X54110Y-37238D01*
X54317Y-37300D01*
X54450Y-37300D01*
X54450Y-36800D01*
X54442Y-36800D01*
X54442Y-36700D01*
X54450Y-36700D01*
X54450Y-36692D01*
X54550Y-36692D01*
X54550Y-36700D01*
X54557Y-36700D01*
X54557Y-36800D01*
X54550Y-36800D01*
X54550Y-37300D01*
X54683Y-37300D01*
X54889Y-37238D01*
X55057Y-37103D01*
X55112Y-37001D01*
X55112Y-51525D01*
X54450Y-52188D01*
X52933Y-53705D01*
X52933Y-41349D01*
X52933Y-41112D01*
X52870Y-41050D01*
X52300Y-41050D01*
X52300Y-41487D01*
X52362Y-41550D01*
X52633Y-41550D01*
X52732Y-41550D01*
X52824Y-41511D01*
X52894Y-41441D01*
X52933Y-41349D01*
X52933Y-53705D01*
X52295Y-54343D01*
X52243Y-54420D01*
X52225Y-54511D01*
X52225Y-54512D01*
X52200Y-54512D01*
X52200Y-41487D01*
X52200Y-41050D01*
X51629Y-41050D01*
X51567Y-41112D01*
X51567Y-41349D01*
X51605Y-41441D01*
X51675Y-41511D01*
X51767Y-41550D01*
X51866Y-41550D01*
X52137Y-41550D01*
X52200Y-41487D01*
X52200Y-54512D01*
X52129Y-54512D01*
X52067Y-54537D01*
X52020Y-54585D01*
X51994Y-54646D01*
X51994Y-54713D01*
X51994Y-55313D01*
X52020Y-55375D01*
X52067Y-55422D01*
X52129Y-55448D01*
X52196Y-55448D01*
X52796Y-55448D01*
X52857Y-55422D01*
X52905Y-55375D01*
X52930Y-55313D01*
X52930Y-55246D01*
X52930Y-54646D01*
X52905Y-54585D01*
X52857Y-54537D01*
X52796Y-54512D01*
X55517Y-51791D01*
X55517Y-51791D01*
X55550Y-51742D01*
X55550Y-54818D01*
X55550Y-54818D01*
G37*
G54D20*
X55550Y-54818D02*
X55333Y-54601D01*
X54938Y-54437D01*
X54511Y-54437D01*
X54116Y-54600D01*
X53814Y-54902D01*
X53650Y-55297D01*
X53650Y-55724D01*
X53813Y-56119D01*
X54043Y-56350D01*
X51930Y-56350D01*
X51930Y-54887D01*
X51859Y-54715D01*
X51728Y-54583D01*
X51556Y-54512D01*
X51369Y-54512D01*
X51341Y-54523D01*
X50933Y-54115D01*
X50933Y-41349D01*
X50933Y-41112D01*
X50870Y-41050D01*
X50300Y-41050D01*
X50300Y-41487D01*
X50362Y-41550D01*
X50633Y-41550D01*
X50732Y-41550D01*
X50824Y-41511D01*
X50894Y-41441D01*
X50933Y-41349D01*
X50933Y-54115D01*
X50200Y-53382D01*
X50200Y-41487D01*
X50200Y-41050D01*
X49629Y-41050D01*
X49567Y-41112D01*
X49567Y-41349D01*
X49605Y-41441D01*
X49675Y-41511D01*
X49767Y-41550D01*
X49866Y-41550D01*
X50137Y-41550D01*
X50200Y-41487D01*
X50200Y-53382D01*
X50120Y-53302D01*
X50043Y-53251D01*
X49952Y-53233D01*
X46048Y-53233D01*
X46048Y-48588D01*
X46048Y-35595D01*
X45995Y-35469D01*
X45995Y-31157D01*
X45987Y-30862D01*
X45890Y-30626D01*
X45774Y-30575D01*
X45704Y-30646D01*
X45704Y-30504D01*
X45653Y-30389D01*
X45377Y-30283D01*
X45082Y-30291D01*
X44846Y-30389D01*
X44795Y-30504D01*
X45250Y-30958D01*
X45704Y-30504D01*
X45704Y-30646D01*
X45320Y-31029D01*
X45774Y-31483D01*
X45890Y-31432D01*
X45995Y-31157D01*
X45995Y-35469D01*
X45926Y-35302D01*
X45704Y-35079D01*
X45704Y-31554D01*
X45250Y-31100D01*
X45179Y-31170D01*
X45179Y-31029D01*
X44725Y-30575D01*
X44609Y-30626D01*
X44504Y-30901D01*
X44512Y-31197D01*
X44609Y-31432D01*
X44725Y-31483D01*
X45179Y-31029D01*
X45179Y-31170D01*
X44795Y-31554D01*
X44846Y-31669D01*
X45122Y-31775D01*
X45417Y-31767D01*
X45653Y-31669D01*
X45704Y-31554D01*
X45704Y-35079D01*
X45702Y-35077D01*
X45409Y-34956D01*
X45091Y-34955D01*
X44798Y-35077D01*
X44573Y-35301D01*
X44452Y-35594D01*
X44451Y-35911D01*
X44573Y-36205D01*
X44797Y-36430D01*
X45090Y-36551D01*
X45408Y-36552D01*
X45701Y-36430D01*
X45926Y-36206D01*
X46047Y-35913D01*
X46048Y-35595D01*
X46048Y-48588D01*
X45926Y-48294D01*
X45702Y-48069D01*
X45409Y-47948D01*
X45091Y-47947D01*
X44798Y-48069D01*
X44573Y-48293D01*
X44452Y-48586D01*
X44451Y-48904D01*
X44573Y-49197D01*
X44797Y-49422D01*
X45090Y-49543D01*
X45408Y-49544D01*
X45701Y-49422D01*
X45926Y-49198D01*
X46047Y-48905D01*
X46048Y-48588D01*
X46048Y-53233D01*
X45910Y-53233D01*
X45910Y-52944D01*
X45884Y-52883D01*
X45837Y-52835D01*
X45775Y-52810D01*
X45708Y-52810D01*
X44724Y-52810D01*
X44662Y-52835D01*
X44615Y-52883D01*
X44589Y-52944D01*
X44589Y-53011D01*
X44589Y-53996D01*
X44615Y-54057D01*
X44662Y-54105D01*
X44724Y-54130D01*
X44791Y-54130D01*
X45775Y-54130D01*
X45837Y-54105D01*
X45884Y-54057D01*
X45910Y-53996D01*
X45910Y-53929D01*
X45910Y-53707D01*
X49854Y-53707D01*
X51006Y-54859D01*
X50994Y-54886D01*
X50994Y-55073D01*
X51065Y-55245D01*
X51197Y-55376D01*
X51369Y-55448D01*
X51555Y-55448D01*
X51727Y-55377D01*
X51859Y-55245D01*
X51930Y-55073D01*
X51930Y-54887D01*
X51930Y-56350D01*
X50930Y-56350D01*
X50930Y-54887D01*
X50859Y-54715D01*
X50728Y-54583D01*
X50556Y-54512D01*
X50369Y-54512D01*
X50197Y-54583D01*
X50065Y-54714D01*
X49994Y-54886D01*
X49994Y-55073D01*
X50065Y-55245D01*
X50197Y-55376D01*
X50369Y-55448D01*
X50555Y-55448D01*
X50727Y-55377D01*
X50859Y-55245D01*
X50930Y-55073D01*
X50930Y-54887D01*
X50930Y-56350D01*
X43200Y-56350D01*
X43429Y-56120D01*
X43593Y-55726D01*
X43593Y-55299D01*
X43430Y-54904D01*
X43128Y-54601D01*
X42734Y-54437D01*
X42306Y-54437D01*
X41912Y-54600D01*
X41650Y-54862D01*
X41650Y-29782D01*
X41910Y-30043D01*
X42305Y-30207D01*
X42732Y-30208D01*
X43127Y-30044D01*
X43429Y-29743D01*
X43593Y-29348D01*
X43593Y-28921D01*
X43430Y-28526D01*
X43354Y-28450D01*
X53889Y-28450D01*
X53814Y-28524D01*
X53650Y-28919D01*
X53650Y-29346D01*
X53813Y-29741D01*
X54115Y-30043D01*
X54509Y-30207D01*
X54937Y-30208D01*
X55331Y-30044D01*
X55550Y-29827D01*
X55550Y-32656D01*
X55517Y-32608D01*
X55065Y-32155D01*
X55075Y-32145D01*
X55101Y-32083D01*
X55101Y-32016D01*
X55101Y-31416D01*
X55075Y-31354D01*
X55028Y-31307D01*
X54966Y-31281D01*
X54899Y-31281D01*
X54033Y-31281D01*
X53971Y-31307D01*
X53924Y-31354D01*
X53898Y-31416D01*
X53898Y-31483D01*
X53898Y-32083D01*
X53924Y-32145D01*
X53971Y-32192D01*
X54033Y-32218D01*
X54100Y-32218D01*
X54255Y-32218D01*
X54110Y-32261D01*
X53942Y-32396D01*
X53839Y-32585D01*
X53833Y-32614D01*
X53882Y-32700D01*
X54450Y-32700D01*
X54450Y-32692D01*
X54550Y-32692D01*
X54550Y-32700D01*
X54557Y-32700D01*
X54557Y-32800D01*
X54550Y-32800D01*
X54550Y-32807D01*
X54450Y-32807D01*
X54450Y-32800D01*
X53882Y-32800D01*
X53833Y-32885D01*
X53839Y-32914D01*
X53942Y-33103D01*
X54110Y-33238D01*
X54295Y-33293D01*
X54176Y-33317D01*
X54024Y-33418D01*
X53922Y-33570D01*
X53887Y-33750D01*
X53922Y-33929D01*
X54024Y-34081D01*
X54061Y-34105D01*
X49508Y-38657D01*
X49461Y-38728D01*
X49445Y-38811D01*
X49445Y-40190D01*
X49461Y-40274D01*
X49508Y-40345D01*
X49663Y-40499D01*
X49605Y-40558D01*
X49567Y-40650D01*
X49567Y-40887D01*
X49629Y-40950D01*
X50200Y-40950D01*
X50200Y-40942D01*
X50300Y-40942D01*
X50300Y-40950D01*
X50870Y-40950D01*
X50933Y-40887D01*
X50933Y-40678D01*
X51567Y-40678D01*
X51567Y-40887D01*
X51629Y-40950D01*
X52200Y-40950D01*
X52200Y-40942D01*
X52300Y-40942D01*
X52300Y-40950D01*
X52870Y-40950D01*
X52933Y-40887D01*
X52933Y-40650D01*
X52894Y-40558D01*
X52824Y-40488D01*
X52732Y-40450D01*
X52633Y-40450D01*
X52485Y-40450D01*
X52573Y-40432D01*
X52725Y-40331D01*
X52827Y-40179D01*
X52862Y-40000D01*
X52827Y-39820D01*
X52725Y-39668D01*
X52573Y-39567D01*
X52394Y-39531D01*
X52105Y-39531D01*
X51926Y-39567D01*
X51774Y-39668D01*
X51672Y-39820D01*
X51637Y-40000D01*
X51672Y-40179D01*
X51708Y-40232D01*
X51699Y-40241D01*
X50785Y-40241D01*
X50827Y-40179D01*
X50862Y-40000D01*
X50827Y-39820D01*
X50783Y-39755D01*
X50809Y-39749D01*
X50886Y-39698D01*
X53817Y-36768D01*
X53817Y-36800D01*
X53882Y-36800D01*
X53833Y-36885D01*
X53839Y-36914D01*
X53942Y-37103D01*
X54110Y-37238D01*
X54317Y-37300D01*
X54450Y-37300D01*
X54450Y-36800D01*
X54442Y-36800D01*
X54442Y-36700D01*
X54450Y-36700D01*
X54450Y-36692D01*
X54550Y-36692D01*
X54550Y-36700D01*
X54557Y-36700D01*
X54557Y-36800D01*
X54550Y-36800D01*
X54550Y-37300D01*
X54683Y-37300D01*
X54889Y-37238D01*
X55057Y-37103D01*
X55112Y-37001D01*
X55112Y-51525D01*
X54450Y-52188D01*
X52933Y-53705D01*
X52933Y-41349D01*
X52933Y-41112D01*
X52870Y-41050D01*
X52300Y-41050D01*
X52300Y-41487D01*
X52362Y-41550D01*
X52633Y-41550D01*
X52732Y-41550D01*
X52824Y-41511D01*
X52894Y-41441D01*
X52933Y-41349D01*
X52933Y-53705D01*
X52295Y-54343D01*
X52243Y-54420D01*
X52225Y-54511D01*
X52225Y-54512D01*
X52200Y-54512D01*
X52200Y-41487D01*
X52200Y-41050D01*
X51629Y-41050D01*
X51567Y-41112D01*
X51567Y-41349D01*
X51605Y-41441D01*
X51675Y-41511D01*
X51767Y-41550D01*
X51866Y-41550D01*
X52137Y-41550D01*
X52200Y-41487D01*
X52200Y-54512D01*
X52129Y-54512D01*
X52067Y-54537D01*
X52020Y-54585D01*
X51994Y-54646D01*
X51994Y-54713D01*
X51994Y-55313D01*
X52020Y-55375D01*
X52067Y-55422D01*
X52129Y-55448D01*
X52196Y-55448D01*
X52796Y-55448D01*
X52857Y-55422D01*
X52905Y-55375D01*
X52930Y-55313D01*
X52930Y-55246D01*
X52930Y-54646D01*
X52905Y-54585D01*
X52857Y-54537D01*
X52796Y-54512D01*
X55517Y-51791D01*
X55517Y-51791D01*
X55550Y-51742D01*
X55550Y-54818D01*
M02*
