M48
;DRILL file {Pcbnew (2013-mar-13)-testing} date Mon 10 Mar 2014 10:58:17 AM CET
;FORMAT={-:-/ absolute / inch / decimal}
FMAT,2
INCH,TZ
T1C0.039
T2C0.040
T3C0.055
T4C0.071
%
G90
G05
M72
T1
X5.025Y-4.
X5.025Y-4.1
X5.225Y-4.
X5.225Y-4.1
X5.45Y-3.175
X5.45Y-3.275
X5.45Y-3.375
X5.45Y-3.475
X5.45Y-3.575
X5.45Y-3.675
T2
X5.0463Y-5.498
X5.1463Y-5.498
X5.2463Y-5.498
T3
X4.525Y-3.103
X4.525Y-5.347
T4
X4.252Y-2.9134
X4.252Y-5.5512
X4.525Y-3.5754
X4.525Y-4.8746
X5.4724Y-2.9134
X5.4724Y-5.5512
T0
M30
