<?xml version="1.0" standalone="no"?>
 <!DOCTYPE svg PUBLIC "-//W3C//DTD SVG 1.1//EN" 
 "http://www.w3.org/Graphics/SVG/1.1/DTD/svg11.dtd"> 
<svg xmlns="http://www.w3.org/2000/svg" version="1.1" 
    width="29.7002cm" height="21.0007cm" viewBox="0 0 116930 82680 ">
<title>SVG Picture created as bio2-F_SilkS.svg date 2013/11/07 09:15:49 </title>
  <desc>Picture generated by PCBNEW </desc>
<g style="fill:#000000; fill-opacity:1;stroke:#000000; stroke-opacity:1;
stroke-linecap:round; stroke-linejoin:round; "
 transform="translate(0 0) scale(1 1)">
</g>
<g style="fill:#000000; fill-opacity:0.0; 
stroke:#000000; stroke-width:39.3701; stroke-opacity:1; 
stroke-linecap:round; stroke-linejoin:round;">
<rect x="-845466" y="-845466" width="0" height="0" rx="0" />
<rect x="-845466" y="-845466" width="0" height="0" rx="0" />
<path d="M-845466 -845466
L-845466 -845466
" />
<path d="M-845466 -845466
L-845466 -845466
" />
<path d="M-845466 -845466
L-845466 -845466
" />
<path d="M-845466 -845466
L-845466 -845466
" />
<path d="M-845466 -845466
L-845466 -845466
" />
<path d="M-845353 -845227
L-845269 -845199
L-845128 -845199
L-845072 -845227
L-845044 -845255
L-845016 -845311
L-845016 -845367
L-845044 -845423
L-845072 -845451
L-845128 845451
L-845241 845423
L-845297 845395
L-845325 845367
L-845353 845311
L-845353 845255
L-845325 845199
L-845297 845171
L-845241 845142
L-845100 845142
L-845016 845171
" />
<path d="M-844763 -845199
L-844763 845142
" />
<path d="M-844510 -845199
L-844510 845423
L-844538 845367
L-844595 845339
L-844679 845339
L-844735 845367
L-844763 845395
" />
<path d="M-844005 -845227
L-844061 -845199
L-844173 -845199
L-844229 -845227
L-844257 -845283
L-844257 845423
L-844229 845367
L-844173 845339
L-844061 845339
L-844005 845367
L-843976 845423
L-843976 -845451
L-844257 -845395
" />
<path d="M-843499 -845227
L-843555 -845199
L-843667 -845199
L-843724 -845227
L-843752 -845283
L-843752 845423
L-843724 845367
L-843667 845339
L-843555 845339
L-843499 845367
L-843471 845423
L-843471 -845451
L-843752 -845395
" />
<path d="M-843302 845339
L-843077 845339
" />
<path d="M-843218 845142
L-843218 -845283
L-843190 -845227
L-843134 -845199
L-843077 -845199
" />
<path d="M-842881 -845255
L-842853 -845227
L-842881 -845199
L-842909 -845227
L-842881 -845255
L-842881 -845199
" />
<path d="M-842881 845367
L-842853 845395
L-842881 845423
L-842909 845395
L-842881 845367
L-842881 845423
" />
<path d="M-841729 845114
L-842235 -845058
" />
<path d="M-841532 -845199
L-841532 845142
" />
<path d="M-841279 -845199
L-841279 845423
L-841307 845367
L-841364 845339
L-841448 845339
L-841504 845367
L-841532 845395
" />
<path d="M-840914 -845199
L-840970 -845227
L-840998 -845255
L-841026 -845311
L-841026 845451
L-840998 845395
L-840970 845367
L-840914 845339
L-840830 845339
L-840774 845367
L-840746 845395
L-840717 845451
L-840717 -845311
L-840746 -845255
L-840774 -845227
L-840830 -845199
L-840914 -845199
" />
<path d="M-840465 -845199
L-840465 845339
" />
<path d="M-840465 845395
L-840436 845367
L-840380 845339
L-840296 845339
L-840240 845367
L-840212 845423
L-840212 -845199
" />
<path d="M-840212 845423
L-840184 845367
L-840127 845339
L-840043 845339
L-839987 845367
L-839959 845423
L-839959 -845199
" />
<path d="M-839453 -845227
L-839509 -845199
L-839622 -845199
L-839678 -845227
L-839706 -845283
L-839706 845423
L-839678 845367
L-839622 845339
L-839509 845339
L-839453 845367
L-839425 845423
L-839425 -845451
L-839706 -845395
" />
<path d="M-838751 845114
L-839256 -845058
" />
<path d="M-838582 -845227
L-838526 -845199
L-838414 -845199
L-838357 -845227
L-838329 -845283
L-838329 -845311
L-838357 -845367
L-838414 -845395
L-838498 -845395
L-838554 -845423
L-838582 845451
L-838582 845423
L-838554 845367
L-838498 845339
L-838414 845339
L-838357 845367
" />
<path d="M-837824 -845199
L-837824 845423
L-837852 845367
L-837908 845339
L-838020 845339
L-838076 845367
" />
<path d="M-837824 -845227
L-837880 -845199
L-838020 -845199
L-838076 -845227
L-838105 -845283
L-838105 -845339
L-838076 -845395
L-838020 -845423
L-837880 -845423
L-837824 -845451
" />
<path d="M-837290 845339
L-837290 -845199
" />
<path d="M-837543 845339
L-837543 -845283
L-837515 -845227
L-837458 -845199
L-837374 -845199
L-837318 -845227
L-837290 -845255
" />
<path d="M-836925 -845199
L-836981 -845227
L-837009 -845283
L-837009 845142
" />
<path d="M-836278 845114
L-836784 -845058
" />
<path d="M-836082 -845199
L-836082 845142
L-835941 845142
L-835857 845171
L-835801 845227
L-835773 845283
L-835745 845395
L-835745 -845451
L-835773 -845339
L-835801 -845283
L-835857 -845227
L-835941 -845199
L-836082 -845199
" />
<path d="M-835492 -845199
L-835492 845339
" />
<path d="M-835492 845451
L-835464 845395
L-835436 845367
L-835379 845339
L-835323 845339
" />
<path d="M-835042 -845199
L-835098 -845227
L-835126 -845255
L-835155 -845311
L-835155 845451
L-835126 845395
L-835098 845367
L-835042 845339
L-834958 845339
L-834902 845367
L-834874 845395
L-834846 845451
L-834846 -845311
L-834874 -845255
L-834902 -845227
L-834958 -845199
L-835042 -845199
" />
<path d="M-834593 845339
L-834593 -845002
" />
<path d="M-834593 845367
L-834536 845339
L-834424 845339
L-834368 845367
L-834340 845395
L-834312 845451
L-834312 -845311
L-834340 -845255
L-834368 -845227
L-834424 -845199
L-834536 -845199
L-834593 -845227
" />
<path d="M-834059 -845199
L-834059 845142
" />
<path d="M-834059 845367
L-834003 845339
L-833890 845339
L-833834 845367
L-833806 845395
L-833778 845451
L-833778 -845311
L-833806 -845255
L-833834 -845227
L-833890 -845199
L-834003 -845199
L-834059 -845227
" />
<path d="M-833441 -845199
L-833497 -845227
L-833525 -845255
L-833553 -845311
L-833553 845451
L-833525 845395
L-833497 845367
L-833441 845339
L-833356 845339
L-833300 845367
L-833272 845395
L-833244 845451
L-833244 -845311
L-833272 -845255
L-833300 -845227
L-833356 -845199
L-833441 -845199
" />
<path d="M-833047 -845199
L-832738 845339
" />
<path d="M-833047 845339
L-832738 -845199
" />
<path d="M-832092 845114
L-832598 -845058
" />
<path d="M-831952 845142
L-831811 -845199
L-831699 845311
L-831586 -845199
L-831446 845142
" />
<path d="M-831137 -845199
L-831193 -845227
L-831221 -845255
L-831249 -845311
L-831249 845451
L-831221 845395
L-831193 845367
L-831137 845339
L-831053 845339
L-830996 845367
L-830968 845395
L-830940 845451
L-830940 -845311
L-830968 -845255
L-830996 -845227
L-831053 -845199
L-831137 -845199
" />
<path d="M-830687 -845199
L-830687 845339
" />
<path d="M-830687 845451
L-830659 845395
L-830631 845367
L-830575 845339
L-830519 845339
" />
<path d="M-830322 -845199
L-830322 845142
" />
<path d="M-830266 -845423
L-830097 -845199
" />
<path d="M-830097 845339
L-830322 -845367
" />
<path d="M-829423 845114
L-829929 -845058
" />
<path d="M-829226 845339
L-829226 -845002
" />
<path d="M-829226 845367
L-829170 845339
L-829058 845339
L-829002 845367
L-828974 845395
L-828946 845451
L-828946 -845311
L-828974 -845255
L-829002 -845227
L-829058 -845199
L-829170 -845199
L-829226 -845227
" />
<path d="M-828693 -845199
L-828693 845339
" />
<path d="M-828693 845451
L-828665 845395
L-828636 845367
L-828580 845339
L-828524 845339
" />
<path d="M-828243 -845199
L-828299 -845227
L-828327 -845255
L-828356 -845311
L-828356 845451
L-828327 845395
L-828299 845367
L-828243 845339
L-828159 845339
L-828103 845367
L-828075 845395
L-828046 845451
L-828046 -845311
L-828075 -845255
L-828103 -845227
L-828159 -845199
L-828243 -845199
" />
<path d="M-827794 845339
L-827794 -845086
L-827822 -845030
L-827878 -845002
L-827906 -845002
" />
<path d="M-827794 845142
L-827822 845171
L-827794 845199
L-827766 845171
L-827794 845142
L-827794 845199
" />
<path d="M-827288 -845227
L-827344 -845199
L-827456 -845199
L-827513 -845227
L-827541 -845283
L-827541 845423
L-827513 845367
L-827456 845339
L-827344 845339
L-827288 845367
L-827260 845423
L-827260 -845451
L-827541 -845395
" />
<path d="M-826754 -845227
L-826810 -845199
L-826923 -845199
L-826979 -845227
L-827007 -845255
L-827035 -845311
L-827035 845451
L-827007 845395
L-826979 845367
L-826923 845339
L-826810 845339
L-826754 845367
" />
<path d="M-826586 845339
L-826361 845339
" />
<path d="M-826501 845142
L-826501 -845283
L-826473 -845227
L-826417 -845199
L-826361 -845199
" />
<path d="M-826192 -845227
L-826136 -845199
L-826024 -845199
L-825967 -845227
L-825939 -845283
L-825939 -845311
L-825967 -845367
L-826024 -845395
L-826108 -845395
L-826164 -845423
L-826192 845451
L-826192 845423
L-826164 845367
L-826108 845339
L-826024 845339
L-825967 845367
" />
<path d="M-825265 845114
L-825771 -845058
" />
<path d="M-825068 -845199
L-825068 845142
" />
<path d="M-825012 -845423
L-824844 -845199
" />
<path d="M-824844 845339
L-825068 -845367
" />
<path d="M-824591 -845199
L-824591 845339
" />
<path d="M-824591 845142
L-824619 845171
L-824591 845199
L-824563 845171
L-824591 845142
L-824591 845199
" />
<path d="M-824057 -845227
L-824113 -845199
L-824226 -845199
L-824282 -845227
L-824310 -845255
L-824338 -845311
L-824338 845451
L-824310 845395
L-824282 845367
L-824226 845339
L-824113 845339
L-824057 845367
" />
<path d="M-823551 -845199
L-823551 845423
L-823579 845367
L-823636 845339
L-823748 845339
L-823804 845367
" />
<path d="M-823551 -845227
L-823607 -845199
L-823748 -845199
L-823804 -845227
L-823832 -845283
L-823832 -845339
L-823804 -845395
L-823748 -845423
L-823607 -845423
L-823551 -845451
" />
<path d="M-823017 -845199
L-823017 845142
" />
<path d="M-823017 -845227
L-823074 -845199
L-823186 -845199
L-823242 -845227
L-823270 -845255
L-823298 -845311
L-823298 845451
L-823270 845395
L-823242 845367
L-823186 845339
L-823074 845339
L-823017 845367
" />
<path d="M-822315 845114
L-822821 -845058
" />
<path d="M-821922 845423
L-821837 845451
L-821809 -845451
L-821781 -845395
L-821781 -845311
L-821809 -845255
L-821837 -845227
L-821894 -845199
L-822118 -845199
L-822118 845142
L-821922 845142
L-821866 845171
L-821837 845199
L-821809 845255
L-821809 845311
L-821837 845367
L-821866 845395
L-821922 845423
L-822118 845423
" />
<path d="M-821528 -845199
L-821528 845142
" />
<path d="M-821135 845142
L-821023 845142
L-820966 845171
L-820910 845227
L-820882 845339
L-820882 -845395
L-820910 -845283
L-820966 -845227
L-821023 -845199
L-821135 -845199
L-821191 -845227
L-821247 -845283
L-821276 -845395
L-821276 845339
L-821247 845227
L-821191 845171
L-821135 845142
" />
<path d="M-820657 845199
L-820629 845171
L-820573 845142
L-820433 845142
L-820376 845171
L-820348 845199
L-820320 845255
L-820320 845311
L-820348 845395
L-820686 -845199
L-820320 -845199
" />
<path d="M-819646 845114
L-820152 -845058
" />
<path d="M-819449 -845199
L-819449 845142
" />
<path d="M-819449 845367
L-819393 845339
L-819281 845339
L-819225 845367
L-819196 845395
L-819168 845451
L-819168 -845311
L-819196 -845255
L-819225 -845227
L-819281 -845199
L-819393 -845199
L-819449 -845227
" />
<path d="M-818916 -845199
L-818916 845339
" />
<path d="M-818916 845142
L-818944 845171
L-818916 845199
L-818887 845171
L-818916 845142
L-818916 845199
" />
<path d="M-818550 -845199
L-818606 -845227
L-818635 -845255
L-818663 -845311
L-818663 845451
L-818635 845395
L-818606 845367
L-818550 845339
L-818466 845339
L-818410 845367
L-818382 845395
L-818354 845451
L-818354 -845311
L-818382 -845255
L-818410 -845227
L-818466 -845199
L-818550 -845199
" />
<path d="M-818129 845199
L-818101 845171
L-818045 845142
L-817904 845142
L-817848 845171
L-817820 845199
L-817792 845255
L-817792 845311
L-817820 845395
L-818157 -845199
L-817792 -845199
" />
<path d="M-817539 -845255
L-817511 -845227
L-817539 -845199
L-817567 -845227
L-817539 -845255
L-817539 -845199
" />
<path d="M-817258 -845199
L-817258 845142
" />
<path d="M-817202 -845423
L-817033 -845199
" />
<path d="M-817033 845339
L-817258 -845367
" />
<path d="M-816780 -845199
L-816780 845339
" />
<path d="M-816780 845142
L-816808 845171
L-816780 845199
L-816752 845171
L-816780 845142
L-816780 845199
" />
<path d="M-816246 -845227
L-816303 -845199
L-816415 -845199
L-816471 -845227
L-816499 -845255
L-816527 -845311
L-816527 845451
L-816499 845395
L-816471 845367
L-816415 845339
L-816303 845339
L-816246 845367
" />
<path d="M-815741 -845199
L-815741 845423
L-815769 845367
L-815825 845339
L-815937 845339
L-815994 845367
" />
<path d="M-815741 -845227
L-815797 -845199
L-815937 -845199
L-815994 -845227
L-816022 -845283
L-816022 -845339
L-815994 -845395
L-815937 -845423
L-815797 -845423
L-815741 -845451
" />
<path d="M-815207 -845199
L-815207 845142
" />
<path d="M-815207 -845227
L-815263 -845199
L-815376 -845199
L-815432 -845227
L-815460 -845255
L-815488 -845311
L-815488 845451
L-815460 845395
L-815432 845367
L-815376 845339
L-815263 845339
L-815207 845367
" />
<path d="M-815066 -845142
L-814617 -845142
" />
<path d="M-814476 845339
L-814476 -845002
" />
<path d="M-814476 845367
L-814420 845339
L-814308 845339
L-814252 845367
L-814224 845395
L-814196 845451
L-814196 -845311
L-814224 -845255
L-814252 -845227
L-814308 -845199
L-814420 -845199
L-814476 -845227
" />
<path d="M-813690 -845227
L-813746 -845199
L-813858 -845199
L-813915 -845227
L-813943 -845255
L-813971 -845311
L-813971 845451
L-813943 845395
L-813915 845367
L-813858 845339
L-813746 845339
L-813690 845367
" />
<path d="M-813437 -845199
L-813437 845142
" />
<path d="M-813437 845367
L-813381 845339
L-813268 845339
L-813212 845367
L-813184 845395
L-813156 845451
L-813156 -845311
L-813184 -845255
L-813212 -845227
L-813268 -845199
L-813381 -845199
L-813437 -845227
" />
<path d="M-845128 845423
L-845325 845423
" />
<path d="M-845325 -845199
L-845325 845142
L-845044 845142
" />
<path d="M-844819 -845199
L-844819 845339
" />
<path d="M-844819 845142
L-844847 845171
L-844819 845199
L-844791 845171
L-844819 845142
L-844819 845199
" />
<path d="M-844454 -845199
L-844510 -845227
L-844538 -845283
L-844538 845142
" />
<path d="M-844005 -845227
L-844061 -845199
L-844173 -845199
L-844229 -845227
L-844257 -845283
L-844257 845423
L-844229 845367
L-844173 845339
L-844061 845339
L-844005 845367
L-843976 845423
L-843976 -845451
L-844257 -845395
" />
<path d="M-843724 -845255
L-843696 -845227
L-843724 -845199
L-843752 -845227
L-843724 -845255
L-843724 -845199
" />
<path d="M-843724 845367
L-843696 845395
L-843724 845423
L-843752 845395
L-843724 845367
L-843724 845423
" />
</g>
<g style="fill:#000000; fill-opacity:0.0; 
stroke:#000000; stroke-width:118; stroke-opacity:1; 
stroke-linecap:round; stroke-linejoin:round;">
<path d="M-845409 845142
L-845072 845142
" />
<path d="M-845241 -845199
L-845241 845142
" />
<path d="M-844876 -845199
L-844876 845339
" />
<path d="M-844876 845142
L-844904 845171
L-844876 845199
L-844847 845171
L-844876 845142
L-844876 845199
" />
<path d="M-844679 845339
L-844454 845339
" />
<path d="M-844595 845142
L-844595 -845283
L-844566 -845227
L-844510 -845199
L-844454 -845199
" />
<path d="M-844173 -845199
L-844229 -845227
L-844257 -845283
L-844257 845142
" />
<path d="M-843724 -845227
L-843780 -845199
L-843892 -845199
L-843948 -845227
L-843976 -845283
L-843976 845423
L-843948 845367
L-843892 845339
L-843780 845339
L-843724 845367
L-843696 845423
L-843696 -845451
L-843976 -845395
" />
<path d="M-843443 -845255
L-843415 -845227
L-843443 -845199
L-843471 -845227
L-843443 -845255
L-843443 -845199
" />
<path d="M-843443 845367
L-843415 845395
L-843443 845423
L-843471 845395
L-843443 845367
L-843443 845423
" />
</g>
<g style="fill:#000000; fill-opacity:0.0; 
stroke:#000000; stroke-width:39.3701; stroke-opacity:1; 
stroke-linecap:round; stroke-linejoin:round;">
<path d="M-845325 -845199
L-845325 845142
" />
<path d="M-844791 -845199
L-844791 845142
" />
<path d="M-844791 -845227
L-844847 -845199
L-844960 -845199
L-845016 -845227
L-845044 -845255
L-845072 -845311
L-845072 845451
L-845044 845395
L-845016 845367
L-844960 845339
L-844847 845339
L-844791 845367
" />
<path d="M-844510 -845255
L-844482 -845227
L-844510 -845199
L-844538 -845227
L-844510 -845255
L-844510 -845199
" />
<path d="M-844510 845367
L-844482 845395
L-844510 845423
L-844538 845395
L-844510 845367
L-844510 845423
" />
<path d="M-843471 -845199
L-843808 -845199
" />
<path d="M-843639 -845199
L-843639 845142
L-843696 845227
L-843752 845283
L-843808 845311
" />
<path d="M-842796 845114
L-843302 -845058
" />
<path d="M-842291 -845199
L-842628 -845199
" />
<path d="M-842459 -845199
L-842459 845142
L-842516 845227
L-842572 845283
L-842628 845311
" />
<path d="M-845353 -845227
L-845269 -845199
L-845128 -845199
L-845072 -845227
L-845044 -845255
L-845016 -845311
L-845016 -845367
L-845044 -845423
L-845072 -845451
L-845128 845451
L-845241 845423
L-845297 845395
L-845325 845367
L-845353 845311
L-845353 845255
L-845325 845199
L-845297 845171
L-845241 845142
L-845100 845142
L-845016 845171
" />
<path d="M-844763 -845199
L-844763 845339
" />
<path d="M-844763 845142
L-844791 845171
L-844763 845199
L-844735 845171
L-844763 845142
L-844763 845199
" />
<path d="M-844538 845339
L-844229 845339
L-844538 -845199
L-844229 -845199
" />
<path d="M-843780 -845227
L-843836 -845199
L-843948 -845199
L-844005 -845227
L-844033 -845283
L-844033 845423
L-844005 845367
L-843948 845339
L-843836 845339
L-843780 845367
L-843752 845423
L-843752 -845451
L-844033 -845395
" />
<path d="M-843499 -845255
L-843471 -845227
L-843499 -845199
L-843527 -845227
L-843499 -845255
L-843499 -845199
" />
<path d="M-843499 845367
L-843471 845395
L-843499 845423
L-843527 845395
L-843499 845367
L-843499 845423
" />
<path d="M-842796 -845367
L-842516 -845367
" />
<path d="M-842853 -845199
L-842656 845142
L-842459 -845199
" />
<path d="M-842010 845339
L-842010 -845199
" />
<path d="M-842150 845114
L-842291 -845395
L-841926 -845395
" />
</g>
<g style="fill:#000000; fill-opacity:0.0; 
stroke:#000000; stroke-width:118; stroke-opacity:1; 
stroke-linecap:round; stroke-linejoin:round;">
<path d="M-844988 -845199
L-845185 845451
" />
<path d="M-845325 -845199
L-845325 845142
L-845100 845142
L-845044 845171
L-845016 845199
L-844988 845255
L-844988 845339
L-845016 845395
L-845044 845423
L-845100 845451
L-845325 845451
" />
<path d="M-844510 -845227
L-844566 -845199
L-844679 -845199
L-844735 -845227
L-844763 -845283
L-844763 845423
L-844735 845367
L-844679 845339
L-844566 845339
L-844510 845367
L-844482 845423
L-844482 -845451
L-844763 -845395
" />
<path d="M-844286 845339
L-844145 -845199
L-844005 845339
" />
<path d="M-843780 -845255
L-843752 -845227
L-843780 -845199
L-843808 -845227
L-843780 -845255
L-843780 -845199
" />
<path d="M-843780 845367
L-843752 845395
L-843780 845423
L-843808 845395
L-843780 845367
L-843780 845423
" />
</g>
<g style="fill:#000000; fill-opacity:0.0; 
stroke:#000000; stroke-width:39.3701; stroke-opacity:1; 
stroke-linecap:round; stroke-linejoin:round;">
<path d="M-845325 -845199
L-845325 845142
" />
<path d="M-844988 -845199
L-845241 845395
" />
<path d="M-844988 845142
L-845325 -845451
" />
<path d="M-844735 -845199
L-844735 845339
" />
<path d="M-844735 845142
L-844763 845171
L-844735 845199
L-844707 845171
L-844735 845142
L-844735 845199
" />
<path d="M-844117 -845255
L-844145 -845227
L-844229 -845199
L-844286 -845199
L-844370 -845227
L-844426 -845283
L-844454 -845339
L-844482 -845451
L-844482 845395
L-844454 845283
L-844426 845227
L-844370 845171
L-844286 845142
L-844229 845142
L-844145 845171
L-844117 845199
" />
<path d="M-843611 -845199
L-843611 845423
L-843639 845367
L-843696 845339
L-843808 845339
L-843864 845367
" />
<path d="M-843611 -845227
L-843667 -845199
L-843808 -845199
L-843864 -845227
L-843892 -845283
L-843892 -845339
L-843864 -845395
L-843808 -845423
L-843667 -845423
L-843611 -845451
" />
<path d="M-843077 -845199
L-843077 845142
" />
<path d="M-843077 -845227
L-843134 -845199
L-843246 -845199
L-843302 -845227
L-843330 -845255
L-843358 -845311
L-843358 845451
L-843330 845395
L-843302 845367
L-843246 845339
L-843134 845339
L-843077 845367
" />
<path d="M-842347 845423
L-842150 845423
" />
<path d="M-842066 -845199
L-842347 -845199
L-842347 845142
L-842066 845142
" />
<path d="M-841813 -845255
L-841785 -845227
L-841813 -845199
L-841841 -845227
L-841813 -845255
L-841813 -845199
" />
<path d="M-841532 -845199
L-841532 845142
L-841392 845142
L-841307 845171
L-841251 845227
L-841223 845283
L-841195 845395
L-841195 -845451
L-841223 -845339
L-841251 -845283
L-841307 -845227
L-841392 -845199
L-841532 -845199
" />
<path d="M-840942 -845255
L-840914 -845227
L-840942 -845199
L-840970 -845227
L-840942 -845255
L-840942 -845199
" />
<path d="M-840689 -845367
L-840408 -845367
" />
<path d="M-840746 -845199
L-840549 845142
L-840352 -845199
" />
<path d="M-840156 -845255
L-840127 -845227
L-840156 -845199
L-840184 -845227
L-840156 -845255
L-840156 -845199
" />
<path d="M-838976 845339
L-838976 -845002
" />
<path d="M-838976 845367
L-838919 845339
L-838807 845339
L-838751 845367
L-838723 845395
L-838695 845451
L-838695 -845311
L-838723 -845255
L-838751 -845227
L-838807 -845199
L-838919 -845199
L-838976 -845227
" />
<path d="M-838189 -845227
L-838245 -845199
L-838357 -845199
L-838414 -845227
L-838442 -845255
L-838470 -845311
L-838470 845451
L-838442 845395
L-838414 845367
L-838357 845339
L-838245 845339
L-838189 845367
" />
<path d="M-837936 -845199
L-837936 845142
" />
<path d="M-837936 845367
L-837880 845339
L-837767 845339
L-837711 845367
L-837683 845395
L-837655 845451
L-837655 -845311
L-837683 -845255
L-837711 -845227
L-837767 -845199
L-837880 -845199
L-837936 -845227
" />
<path d="M-837402 845339
L-837402 -845199
" />
<path d="M-837402 845395
L-837374 845367
L-837318 845339
L-837234 845339
L-837177 845367
L-837149 845423
L-837149 -845199
" />
<path d="M-836644 -845227
L-836700 -845199
L-836812 -845199
L-836868 -845227
L-836896 -845283
L-836896 845423
L-836868 845367
L-836812 845339
L-836700 845339
L-836644 845367
L-836616 845423
L-836616 -845451
L-836896 -845395
" />
<path d="M-836419 845339
L-836306 -845199
L-836194 845451
L-836082 -845199
L-835969 845339
" />
<path d="M-835126 -844974
L-835155 -845002
L-835211 -845086
L-835239 -845142
L-835267 -845227
L-835295 -845367
L-835295 845451
L-835267 845311
L-835239 845227
L-835211 845171
L-835155 845086
L-835126 845058
" />
<path d="M-834930 845199
L-834902 845171
L-834846 845142
L-834705 845142
L-834649 845171
L-834621 845199
L-834593 845255
L-834593 845311
L-834621 845395
L-834958 -845199
L-834593 -845199
" />
<path d="M-834227 845142
L-834171 845142
L-834115 845171
L-834087 845199
L-834059 845255
L-834031 845367
L-834031 -845423
L-834059 -845311
L-834087 -845255
L-834115 -845227
L-834171 -845199
L-834227 -845199
L-834284 -845227
L-834312 -845255
L-834340 -845311
L-834368 -845423
L-834368 845367
L-834340 845255
L-834312 845199
L-834284 845171
L-834227 845142
" />
<path d="M-833469 -845199
L-833806 -845199
" />
<path d="M-833637 -845199
L-833637 845142
L-833694 845227
L-833750 845283
L-833806 845311
" />
<path d="M-833272 845142
L-832907 845142
L-833104 845367
L-833019 845367
L-832963 845395
L-832935 845423
L-832907 -845451
L-832907 -845311
L-832935 -845255
L-832963 -845227
L-833019 -845199
L-833188 -845199
L-833244 -845227
L-833272 -845255
" />
<path d="M-832654 -845423
L-832205 -845423
" />
<path d="M-831924 -845199
L-831924 845339
" />
<path d="M-831924 845395
L-831896 845367
L-831839 845339
L-831755 845339
L-831699 845367
L-831671 845423
L-831671 -845199
" />
<path d="M-831671 845423
L-831643 845367
L-831586 845339
L-831502 845339
L-831446 845367
L-831418 845423
L-831418 -845199
" />
<path d="M-830884 -845199
L-830884 845423
L-830912 845367
L-830968 845339
L-831081 845339
L-831137 845367
" />
<path d="M-830884 -845227
L-830940 -845199
L-831081 -845199
L-831137 -845227
L-831165 -845283
L-831165 -845339
L-831137 -845395
L-831081 -845423
L-830940 -845423
L-830884 -845451
" />
<path d="M-830603 -845199
L-830603 845339
" />
<path d="M-830603 845451
L-830575 845395
L-830547 845367
L-830491 845339
L-830435 845339
" />
<path d="M-830238 -845423
L-829788 -845423
" />
<path d="M-829198 -845199
L-829536 -845199
" />
<path d="M-829367 -845199
L-829367 845142
L-829423 845227
L-829479 845283
L-829536 845311
" />
<path d="M-829002 845142
L-828636 845142
L-828833 845367
L-828749 845367
L-828693 845395
L-828665 845423
L-828636 -845451
L-828636 -845311
L-828665 -845255
L-828693 -845227
L-828749 -845199
L-828917 -845199
L-828974 -845227
L-829002 -845255
" />
<path d="M-828440 -844974
L-828412 -845002
L-828356 -845086
L-828327 -845142
L-828299 -845227
L-828271 -845367
L-828271 845451
L-828299 845311
L-828327 845227
L-828356 845171
L-828412 845086
L-828440 845058
" />
<path d="M-827990 -845423
L-827541 -845423
" />
<path d="M-827344 845339
L-827119 845339
" />
<path d="M-827260 845142
L-827260 -845283
L-827232 -845227
L-827176 -845199
L-827119 -845199
" />
<path d="M-826698 -845227
L-826754 -845199
L-826866 -845199
L-826923 -845227
L-826951 -845283
L-826951 845423
L-826923 845367
L-826866 845339
L-826754 845339
L-826698 845367
L-826670 845423
L-826670 -845451
L-826951 -845395
" />
<path d="M-826445 -845227
L-826389 -845199
L-826276 -845199
L-826220 -845227
L-826192 -845283
L-826192 -845311
L-826220 -845367
L-826276 -845395
L-826361 -845395
L-826417 -845423
L-826445 845451
L-826445 845423
L-826417 845367
L-826361 845339
L-826276 845339
L-826220 845367
" />
<path d="M-826024 845339
L-825799 845339
" />
<path d="M-825939 845142
L-825939 -845283
L-825911 -845227
L-825855 -845199
L-825799 -845199
" />
<path d="M-825602 -845199
L-825602 845339
" />
<path d="M-825602 845142
L-825630 845171
L-825602 845199
L-825574 845171
L-825602 845142
L-825602 845199
" />
<path d="M-825321 845339
L-825321 -845199
" />
<path d="M-825321 845395
L-825293 845367
L-825237 845339
L-825153 845339
L-825096 845367
L-825068 845423
L-825068 -845199
" />
<path d="M-824535 845339
L-824535 -845114
L-824563 -845058
L-824591 -845030
L-824647 -845002
L-824731 -845002
L-824787 -845030
" />
<path d="M-824535 -845227
L-824591 -845199
L-824703 -845199
L-824759 -845227
L-824787 -845255
L-824816 -845311
L-824816 845451
L-824787 845395
L-824759 845367
L-824703 845339
L-824591 845339
L-824535 845367
" />
<path d="M-845325 -845199
L-845325 845142
L-845185 845142
L-845100 845171
L-845044 845227
L-845016 845283
L-844988 845395
L-844988 -845451
L-845016 -845339
L-845044 -845283
L-845100 -845227
L-845185 -845199
L-845325 -845199
" />
<path d="M-844482 -845199
L-844482 845423
L-844510 845367
L-844566 845339
L-844679 845339
L-844735 845367
" />
<path d="M-844482 -845227
L-844538 -845199
L-844679 -845199
L-844735 -845227
L-844763 -845283
L-844763 -845339
L-844735 -845395
L-844679 -845423
L-844538 -845423
L-844482 -845451
" />
<path d="M-844286 845339
L-844061 845339
" />
<path d="M-844201 845142
L-844201 -845283
L-844173 -845227
L-844117 -845199
L-844061 -845199
" />
<path d="M-843639 -845227
L-843696 -845199
L-843808 -845199
L-843864 -845227
L-843892 -845283
L-843892 845423
L-843864 845367
L-843808 845339
L-843696 845339
L-843639 845367
L-843611 845423
L-843611 -845451
L-843892 -845395
" />
<path d="M-843358 -845255
L-843330 -845227
L-843358 -845199
L-843386 -845227
L-843358 -845255
L-843358 -845199
" />
<path d="M-843358 845367
L-843330 845395
L-843358 845423
L-843386 845395
L-843358 845367
L-843358 845423
" />
<path d="M-845466 -845466
L-845466 -845466
" />
<path d="M-845466 -845466
L-845466 -845466
" />
<path d="M-845466 -845466
L-845466 -845466
" />
</g>
<g style="fill:#C2C200; fill-opacity:0.0; 
stroke:#C2C200; stroke-width:39.3701; stroke-opacity:1; 
stroke-linecap:round; stroke-linejoin:round;">
<path d="M58366 49704
L42519 49704
" />
<path d="M58366 20374
L58366 49704
" />
<path d="M42519 20374
L58366 20374
" />
<path d="M42519 49704
L42519 20374
" />
</g>
<g style="fill:#008484; fill-opacity:0.0; 
stroke:#008484; stroke-width:45; stroke-opacity:1; 
stroke-linecap:round; stroke-linejoin:round;">
<path d="M50622 47628
L50632 47636
L50641 47662
L50641 47679
L50632 47705
L50613 47722
L50594 47731
L50555 47739
L50527 47739
L50489 47731
L50470 47722
L50451 47705
L50441 47679
L50441 47662
L50451 47636
L50460 47628
" />
<path d="M50641 47456
L50641 47559
" />
<path d="M50641 47508
L50441 47508
L50470 47525
L50489 47542
L50498 47559
" />
<path d="M49810 47902
L49801 47894
L49791 47876
L49791 47834
L49801 47816
L49810 47808
L49829 47799
L49848 47799
L49877 47808
L49991 47911
L49991 47799
" />
<path d="M49791 47688
L49791 47671
L49801 47654
L49810 47645
L49829 47636
L49867 47628
L49915 47628
L49953 47636
L49972 47645
L49982 47654
L49991 47671
L49991 47688
L49982 47705
L49972 47714
L49953 47722
L49915 47731
L49867 47731
L49829 47722
L49810 47714
L49801 47705
L49791 47688
" />
<path d="M49791 47516
L49791 47499
L49801 47482
L49810 47474
L49829 47465
L49867 47456
L49915 47456
L49953 47465
L49972 47474
L49982 47482
L49991 47499
L49991 47516
L49982 47534
L49972 47542
L49953 47551
L49915 47559
L49867 47559
L49829 47551
L49810 47542
L49801 47534
L49791 47516
" />
<path d="M49858 47379
L50058 47379
" />
<path d="M49867 47379
L49858 47362
L49858 47328
L49867 47311
L49877 47302
L49896 47294
L49953 47294
L49972 47302
L49982 47311
L49991 47328
L49991 47362
L49982 47379
" />
<path d="M52079 47628
L52088 47636
L52098 47662
L52098 47679
L52088 47705
L52069 47722
L52050 47731
L52012 47739
L51984 47739
L51945 47731
L51926 47722
L51907 47705
L51898 47679
L51898 47662
L51907 47636
L51917 47628
" />
<path d="M51917 47559
L51907 47551
L51898 47534
L51898 47491
L51907 47474
L51917 47465
L51936 47456
L51955 47456
L51984 47465
L52098 47568
L52098 47456
" />
<path d="M51267 47902
L51257 47894
L51248 47876
L51248 47834
L51257 47816
L51267 47808
L51286 47799
L51305 47799
L51334 47808
L51448 47911
L51448 47799
" />
<path d="M51248 47688
L51248 47671
L51257 47654
L51267 47645
L51286 47636
L51324 47628
L51372 47628
L51410 47636
L51429 47645
L51438 47654
L51448 47671
L51448 47688
L51438 47705
L51429 47714
L51410 47722
L51372 47731
L51324 47731
L51286 47722
L51267 47714
L51257 47705
L51248 47688
" />
<path d="M51248 47516
L51248 47499
L51257 47482
L51267 47474
L51286 47465
L51324 47456
L51372 47456
L51410 47465
L51429 47474
L51438 47482
L51448 47499
L51448 47516
L51438 47534
L51429 47542
L51410 47551
L51372 47559
L51324 47559
L51286 47551
L51267 47542
L51257 47534
L51248 47516
" />
<path d="M51315 47379
L51515 47379
" />
<path d="M51324 47379
L51315 47362
L51315 47328
L51324 47311
L51334 47302
L51353 47294
L51410 47294
L51429 47302
L51438 47311
L51448 47328
L51448 47362
L51438 47379
" />
<path d="M54970 44953
L54961 44962
L54935 44972
L54918 44972
L54892 44962
L54875 44943
L54867 44924
L54858 44886
L54858 44858
L54867 44819
L54875 44800
L54892 44781
L54918 44772
L54935 44772
L54961 44781
L54970 44791
" />
<path d="M55030 44772
L55141 44772
L55081 44848
L55107 44848
L55124 44858
L55132 44867
L55141 44886
L55141 44934
L55132 44953
L55124 44962
L55107 44972
L55055 44972
L55038 44962
L55030 44953
" />
<path d="M54781 44122
L54798 44122
L54815 44131
L54824 44141
L54832 44160
L54841 44198
L54841 44246
L54832 44284
L54824 44303
L54815 44312
L54798 44322
L54781 44322
L54764 44312
L54755 44303
L54747 44284
L54738 44246
L54738 44198
L54747 44160
L54755 44141
L54764 44131
L54781 44122
" />
<path d="M54918 44303
L54927 44312
L54918 44322
L54910 44312
L54918 44303
L54918 44322
" />
<path d="M55098 44322
L54995 44322
" />
<path d="M55047 44322
L55047 44122
L55030 44150
L55012 44169
L54995 44179
" />
<path d="M55252 44189
L55252 44322
" />
<path d="M55175 44189
L55175 44293
L55184 44312
L55201 44322
L55227 44322
L55244 44312
L55252 44303
" />
<path d="M55425 42667
L55435 42676
L55444 42702
L55444 42719
L55435 42744
L55416 42762
L55397 42770
L55359 42779
L55330 42779
L55292 42770
L55273 42762
L55254 42744
L55244 42719
L55244 42702
L55254 42676
L55263 42667
" />
<path d="M55311 42513
L55444 42513
" />
<path d="M55235 42556
L55378 42599
L55378 42487
" />
<path d="M54661 42856
L54794 42856
" />
<path d="M54585 42899
L54728 42942
L54728 42830
" />
<path d="M54594 42779
L54594 42659
L54794 42736
" />
<path d="M54594 42556
L54594 42539
L54604 42522
L54613 42513
L54632 42504
L54670 42496
L54718 42496
L54756 42504
L54775 42513
L54785 42522
L54794 42539
L54794 42556
L54785 42573
L54775 42582
L54756 42590
L54718 42599
L54670 42599
L54632 42590
L54613 42582
L54604 42573
L54594 42556
" />
<path d="M54661 42419
L54861 42419
" />
<path d="M54670 42419
L54661 42402
L54661 42367
L54670 42350
L54680 42342
L54699 42333
L54756 42333
L54775 42342
L54785 42350
L54794 42367
L54794 42402
L54785 42419
" />
<path d="M55425 41841
L55435 41849
L55444 41875
L55444 41892
L55435 41918
L55416 41935
L55397 41943
L55359 41952
L55330 41952
L55292 41943
L55273 41935
L55254 41918
L55244 41892
L55244 41875
L55254 41849
L55263 41841
" />
<path d="M55244 41678
L55244 41763
L55340 41772
L55330 41763
L55320 41746
L55320 41703
L55330 41686
L55340 41678
L55359 41669
L55406 41669
L55425 41678
L55435 41686
L55444 41703
L55444 41746
L55435 41763
L55425 41772
" />
<path d="M54661 42029
L54794 42029
" />
<path d="M54585 42072
L54728 42115
L54728 42003
" />
<path d="M54594 41952
L54594 41832
L54794 41909
" />
<path d="M54594 41729
L54594 41712
L54604 41695
L54613 41686
L54632 41678
L54670 41669
L54718 41669
L54756 41678
L54775 41686
L54785 41695
L54794 41712
L54794 41729
L54785 41746
L54775 41755
L54756 41763
L54718 41772
L54670 41772
L54632 41763
L54613 41755
L54604 41746
L54594 41729
" />
<path d="M54661 41592
L54861 41592
" />
<path d="M54670 41592
L54661 41575
L54661 41541
L54670 41523
L54680 41515
L54699 41506
L54756 41506
L54775 41515
L54785 41523
L54794 41541
L54794 41575
L54785 41592
" />
<path d="M55425 41014
L55435 41022
L55444 41048
L55444 41065
L55435 41091
L55416 41108
L55397 41117
L55359 41125
L55330 41125
L55292 41117
L55273 41108
L55254 41091
L55244 41065
L55244 41048
L55254 41022
L55263 41014
" />
<path d="M55244 40859
L55244 40894
L55254 40911
L55263 40919
L55292 40937
L55330 40945
L55406 40945
L55425 40937
L55435 40928
L55444 40911
L55444 40877
L55435 40859
L55425 40851
L55406 40842
L55359 40842
L55340 40851
L55330 40859
L55320 40877
L55320 40911
L55330 40928
L55340 40937
L55359 40945
" />
<path d="M54661 41202
L54794 41202
" />
<path d="M54585 41245
L54728 41288
L54728 41177
" />
<path d="M54594 41125
L54594 41005
L54794 41082
" />
<path d="M54594 40902
L54594 40885
L54604 40868
L54613 40859
L54632 40851
L54670 40842
L54718 40842
L54756 40851
L54775 40859
L54785 40868
L54794 40885
L54794 40902
L54785 40919
L54775 40928
L54756 40937
L54718 40945
L54670 40945
L54632 40937
L54613 40928
L54604 40919
L54594 40902
" />
<path d="M54661 40765
L54861 40765
" />
<path d="M54670 40765
L54661 40748
L54661 40714
L54670 40697
L54680 40688
L54699 40679
L54756 40679
L54775 40688
L54785 40697
L54794 40714
L54794 40748
L54785 40765
" />
<path d="M55425 40226
L55435 40235
L55444 40261
L55444 40278
L55435 40303
L55416 40321
L55397 40329
L55359 40338
L55330 40338
L55292 40329
L55273 40321
L55254 40303
L55244 40278
L55244 40261
L55254 40235
L55263 40226
" />
<path d="M55244 40166
L55244 40046
L55444 40123
" />
<path d="M54661 40415
L54794 40415
" />
<path d="M54585 40458
L54728 40501
L54728 40389
" />
<path d="M54594 40338
L54594 40218
L54794 40295
" />
<path d="M54594 40115
L54594 40098
L54604 40081
L54613 40072
L54632 40063
L54670 40055
L54718 40055
L54756 40063
L54775 40072
L54785 40081
L54794 40098
L54794 40115
L54785 40132
L54775 40141
L54756 40149
L54718 40158
L54670 40158
L54632 40149
L54613 40141
L54604 40132
L54594 40115
" />
<path d="M54661 39978
L54861 39978
" />
<path d="M54670 39978
L54661 39961
L54661 39926
L54670 39909
L54680 39901
L54699 39892
L54756 39892
L54775 39901
L54785 39909
L54794 39926
L54794 39961
L54785 39978
" />
<path d="M54126 30108
L54136 30117
L54145 30143
L54145 30160
L54136 30185
L54117 30203
L54097 30211
L54059 30220
L54031 30220
L53993 30211
L53974 30203
L53955 30185
L53945 30160
L53945 30143
L53955 30117
L53964 30108
" />
<path d="M54031 30005
L54021 30023
L54012 30031
L53993 30040
L53983 30040
L53964 30031
L53955 30023
L53945 30005
L53945 29971
L53955 29954
L53964 29945
L53983 29937
L53993 29937
L54012 29945
L54021 29954
L54031 29971
L54031 30005
L54040 30023
L54050 30031
L54069 30040
L54107 30040
L54126 30031
L54136 30023
L54145 30005
L54145 29971
L54136 29954
L54126 29945
L54107 29937
L54069 29937
L54050 29945
L54040 29954
L54031 29971
" />
<path d="M53295 30297
L53295 30280
L53305 30263
L53314 30254
L53333 30245
L53371 30237
L53419 30237
L53457 30245
L53476 30254
L53486 30263
L53495 30280
L53495 30297
L53486 30314
L53476 30323
L53457 30331
L53419 30340
L53371 30340
L53333 30331
L53314 30323
L53305 30314
L53295 30297
" />
<path d="M53476 30160
L53486 30151
L53495 30160
L53486 30168
L53476 30160
L53495 30160
" />
<path d="M53495 29980
L53495 30083
" />
<path d="M53495 30031
L53295 30031
L53324 30048
L53343 30065
L53352 30083
" />
<path d="M53362 29825
L53495 29825
" />
<path d="M53362 29903
L53467 29903
L53486 29894
L53495 29877
L53495 29851
L53486 29834
L53476 29825
" />
<path d="M49323 34636
L49332 34644
L49342 34670
L49342 34687
L49332 34713
L49313 34730
L49294 34739
L49256 34747
L49228 34747
L49190 34739
L49171 34730
L49151 34713
L49142 34687
L49142 34670
L49151 34644
L49161 34636
" />
<path d="M49342 34550
L49342 34516
L49332 34499
L49323 34490
L49294 34473
L49256 34464
L49180 34464
L49161 34473
L49151 34482
L49142 34499
L49142 34533
L49151 34550
L49161 34559
L49180 34567
L49228 34567
L49247 34559
L49256 34550
L49266 34533
L49266 34499
L49256 34482
L49247 34473
L49228 34464
" />
<path d="M48492 34824
L48492 34807
L48501 34790
L48511 34782
L48530 34773
L48568 34764
L48616 34764
L48654 34773
L48673 34782
L48682 34790
L48692 34807
L48692 34824
L48682 34842
L48673 34850
L48654 34859
L48616 34867
L48568 34867
L48530 34859
L48511 34850
L48501 34842
L48492 34824
" />
<path d="M48673 34687
L48682 34679
L48692 34687
L48682 34696
L48673 34687
L48692 34687
" />
<path d="M48692 34507
L48692 34610
" />
<path d="M48692 34559
L48492 34559
L48521 34576
L48540 34593
L48549 34610
" />
<path d="M48559 34353
L48692 34353
" />
<path d="M48559 34430
L48663 34430
L48682 34422
L48692 34404
L48692 34379
L48682 34362
L48673 34353
" />
<path d="M53772 25745
L53781 25754
L53791 25779
L53791 25797
L53781 25822
L53762 25839
L53743 25848
L53705 25857
L53676 25857
L53638 25848
L53619 25839
L53600 25822
L53591 25797
L53591 25779
L53600 25754
L53610 25745
" />
<path d="M53791 25574
L53791 25677
" />
<path d="M53791 25625
L53591 25625
L53619 25642
L53638 25659
L53648 25677
" />
<path d="M53591 25462
L53591 25445
L53600 25428
L53610 25419
L53629 25411
L53667 25402
L53715 25402
L53753 25411
L53772 25419
L53781 25428
L53791 25445
L53791 25462
L53781 25479
L53772 25488
L53753 25497
L53715 25505
L53667 25505
L53629 25497
L53610 25488
L53600 25479
L53591 25462
" />
<path d="M54441 25659
L54441 25762
" />
<path d="M54441 25711
L54241 25711
L54269 25728
L54288 25745
L54298 25762
" />
<path d="M54307 25505
L54441 25505
" />
<path d="M54307 25582
L54412 25582
L54431 25574
L54441 25557
L54441 25531
L54431 25514
L54422 25505
" />
<path d="M48260 25863
L48269 25872
L48279 25898
L48279 25915
L48269 25940
L48250 25958
L48231 25966
L48193 25975
L48165 25975
L48127 25966
L48108 25958
L48088 25940
L48079 25915
L48079 25898
L48088 25872
L48098 25863
" />
<path d="M48279 25692
L48279 25795
" />
<path d="M48279 25743
L48079 25743
L48108 25760
L48127 25778
L48136 25795
" />
<path d="M48279 25520
L48279 25623
" />
<path d="M48279 25572
L48079 25572
L48108 25589
L48127 25606
L48136 25623
" />
<path d="M48929 25778
L48929 25880
" />
<path d="M48929 25829
L48729 25829
L48758 25846
L48777 25863
L48786 25880
" />
<path d="M48796 25623
L48929 25623
" />
<path d="M48796 25700
L48900 25700
L48919 25692
L48929 25675
L48929 25649
L48919 25632
L48910 25623
" />
<path d="M54884 23693
L54875 23702
L54850 23712
L54832 23712
L54807 23702
L54790 23683
L54781 23664
L54772 23626
L54772 23598
L54781 23560
L54790 23541
L54807 23522
L54832 23512
L54850 23512
L54875 23522
L54884 23531
" />
<path d="M55055 23712
L54952 23712
" />
<path d="M55004 23712
L55004 23512
L54987 23541
L54970 23560
L54952 23569
" />
<path d="M55124 23531
L55132 23522
L55150 23512
L55192 23512
L55210 23522
L55218 23531
L55227 23550
L55227 23569
L55218 23598
L55115 23712
L55227 23712
" />
<path d="M54970 24362
L54867 24362
" />
<path d="M54918 24362
L54918 24162
L54901 24191
L54884 24210
L54867 24219
" />
<path d="M55124 24229
L55124 24362
" />
<path d="M55047 24229
L55047 24333
L55055 24352
L55072 24362
L55098 24362
L55115 24352
L55124 24343
" />
</g>
<g style="fill:#008484; fill-opacity:0.0; 
stroke:#008484; stroke-width:50; stroke-opacity:1; 
stroke-linecap:round; stroke-linejoin:round;">
<path d="M45933 24247
L45948 24262
L45962 24305
L45962 24333
L45948 24376
L45919 24405
L45891 24419
L45833 24433
L45791 24433
L45733 24419
L45705 24405
L45676 24376
L45662 24333
L45662 24305
L45676 24262
L45691 24247
" />
<path d="M45962 23962
L45962 24133
" />
<path d="M45962 24047
L45662 24047
L45705 24076
L45733 24105
L45748 24133
" />
<path d="M45662 23862
L45662 23676
L45776 23776
L45776 23733
L45791 23705
L45805 23690
L45833 23676
L45905 23676
L45933 23690
L45948 23705
L45962 23733
L45962 23819
L45948 23847
L45933 23862
" />
</g>
<g style="fill:#008484; fill-opacity:0.0; 
stroke:#008484; stroke-width:35; stroke-opacity:1; 
stroke-linecap:round; stroke-linejoin:round;">
<path d="M55351 25795
L55351 25495
L55422 25495
L55465 25509
L55493 25538
L55508 25566
L55522 25624
L55522 25666
L55508 25724
L55493 25752
L55465 25781
L55422 25795
L55351 25795
" />
<path d="M55808 25795
L55636 25795
" />
<path d="M55722 25795
L55722 25495
L55693 25538
L55665 25566
L55636 25581
" />
<path d="M55279 26995
L55136 26995
L55136 26695
" />
<path d="M55379 26838
L55479 26838
" />
<path d="M55522 26995
L55379 26995
L55379 26695
L55522 26695
" />
<path d="M55651 26995
L55651 26695
L55722 26695
L55765 26709
L55793 26738
L55808 26766
L55822 26824
L55822 26866
L55808 26924
L55793 26952
L55765 26981
L55722 26995
L55651 26995
" />
</g>
<g style="fill:#008484; fill-opacity:0.0; 
stroke:#008484; stroke-width:59.0551; stroke-opacity:1; 
stroke-linecap:round; stroke-linejoin:round;">
<path d="M47110 19430
L47110 19036
" />
<path d="M47335 19430
L47167 19205
" />
<path d="M47335 19036
L47110 19261
" />
<path d="M47710 19430
L47485 19430
" />
<path d="M47598 19430
L47598 19036
L47560 19092
L47523 19130
L47485 19148
" />
<path d="M46567 19786
L46548 19805
L46492 19823
L46454 19823
L46398 19805
L46361 19767
L46342 19730
L46323 19655
L46323 19598
L46342 19523
L46361 19486
L46398 19448
L46454 19430
L46492 19430
L46548 19448
L46567 19467
" />
<path d="M46811 19430
L46886 19430
L46923 19448
L46961 19486
L46979 19561
L46979 19692
L46961 19767
L46923 19805
L46886 19823
L46811 19823
L46773 19805
L46736 19767
L46717 19692
L46717 19561
L46736 19486
L46773 19448
L46811 19430
" />
<path d="M47148 19823
L47148 19430
L47373 19823
L47373 19430
" />
<path d="M47560 19823
L47560 19430
L47785 19823
L47785 19430
" />
<path d="M47879 19861
L48179 19861
" />
<path d="M48235 19430
L48479 19430
L48348 19580
L48404 19580
L48442 19598
L48460 19617
L48479 19655
L48479 19748
L48460 19786
L48442 19805
L48404 19823
L48292 19823
L48254 19805
L48235 19786
" />
<path d="M53331 19430
L53331 19036
" />
<path d="M53556 19430
L53387 19205
" />
<path d="M53556 19036
L53331 19261
" />
<path d="M53706 19073
L53725 19055
L53762 19036
L53856 19036
L53893 19055
L53912 19073
L53931 19111
L53931 19148
L53912 19205
L53687 19430
L53931 19430
" />
<path d="M52787 19786
L52769 19805
L52712 19823
L52675 19823
L52619 19805
L52581 19767
L52562 19730
L52544 19655
L52544 19598
L52562 19523
L52581 19486
L52619 19448
L52675 19430
L52712 19430
L52769 19448
L52787 19467
" />
<path d="M53031 19430
L53106 19430
L53143 19448
L53181 19486
L53200 19561
L53200 19692
L53181 19767
L53143 19805
L53106 19823
L53031 19823
L52994 19805
L52956 19767
L52937 19692
L52937 19561
L52956 19486
L52994 19448
L53031 19430
" />
<path d="M53368 19823
L53368 19430
L53593 19823
L53593 19430
" />
<path d="M53781 19823
L53781 19430
L54006 19823
L54006 19430
" />
<path d="M54100 19861
L54400 19861
" />
<path d="M54456 19430
L54700 19430
L54568 19580
L54625 19580
L54662 19598
L54681 19617
L54700 19655
L54700 19748
L54681 19786
L54662 19805
L54625 19823
L54512 19823
L54475 19805
L54456 19786
" />
</g>
<g style="fill:#008484; fill-opacity:0.0; 
stroke:#008484; stroke-width:80; stroke-opacity:1; 
stroke-linecap:round; stroke-linejoin:round;">
<path d="M55964 26070
L55964 25670
L56116 25670
L56155 25689
L56174 25708
L56193 25746
L56193 25803
L56174 25841
L56155 25860
L56116 25879
L55964 25879
" />
<path d="M56574 26070
L56345 26070
" />
<path d="M56459 26070
L56459 25670
L56421 25727
L56383 25765
L56345 25784
" />
<path d="M44259 40964
L43859 40964
L43859 40812
L43878 40774
L43897 40755
L43935 40735
L43992 40735
L44030 40755
L44049 40774
L44068 40812
L44068 40964
" />
<path d="M43897 40583
L43878 40564
L43859 40526
L43859 40431
L43878 40393
L43897 40374
L43935 40355
L43973 40355
L44030 40374
L44259 40602
L44259 40355
" />
<path d="M44259 45767
L43859 45767
L43859 45615
L43878 45577
L43897 45558
L43935 45539
L43992 45539
L44030 45558
L44049 45577
L44068 45615
L44068 45767
" />
<path d="M43859 45405
L43859 45158
L44011 45291
L44011 45234
L44030 45196
L44049 45177
L44087 45158
L44183 45158
L44221 45177
L44240 45196
L44259 45234
L44259 45348
L44240 45386
L44221 45405
" />
<path d="M56693 31161
L56293 31161
L56293 31008
L56312 30970
L56331 30951
L56369 30932
L56426 30932
L56464 30951
L56483 30970
L56502 31008
L56502 31161
" />
<path d="M56293 30570
L56293 30761
L56483 30780
L56464 30761
L56445 30723
L56445 30628
L56464 30589
L56483 30570
L56521 30551
L56616 30551
L56655 30570
L56674 30589
L56693 30628
L56693 30723
L56674 30761
L56655 30780
" />
<path d="M56267 38602
L55867 38602
L55867 38449
L55886 38411
L55905 38392
L55943 38373
L56000 38373
L56038 38392
L56057 38411
L56076 38449
L56076 38602
" />
<path d="M55867 38030
L55867 38107
L55886 38145
L55905 38164
L55962 38202
L56038 38221
L56190 38221
L56229 38202
L56248 38183
L56267 38145
L56267 38068
L56248 38030
L56229 38011
L56190 37992
L56095 37992
L56057 38011
L56038 38030
L56019 38068
L56019 38145
L56038 38183
L56057 38202
L56095 38221
" />
<path d="M46279 36778
L46279 36378
L46431 36378
L46470 36398
L46489 36417
L46508 36455
L46508 36512
L46489 36550
L46470 36569
L46431 36588
L46279 36588
" />
<path d="M46641 36378
L46908 36378
L46736 36778
" />
<path d="M50354 24704
L49954 24704
L49954 24552
L49973 24514
L49992 24495
L50030 24476
L50087 24476
L50126 24495
L50145 24514
L50164 24552
L50164 24704
" />
<path d="M50126 24247
L50106 24285
L50087 24304
L50049 24323
L50030 24323
L49992 24304
L49973 24285
L49954 24247
L49954 24171
L49973 24133
L49992 24114
L50030 24095
L50049 24095
L50087 24114
L50106 24133
L50126 24171
L50126 24247
L50145 24285
L50164 24304
L50202 24323
L50278 24323
L50316 24304
L50335 24285
L50354 24247
L50354 24171
L50335 24133
L50316 24114
L50278 24095
L50202 24095
L50164 24114
L50145 24133
L50126 24171
" />
<path d="M45452 27605
L45452 27205
L45605 27205
L45643 27224
L45662 27243
L45681 27281
L45681 27339
L45662 27377
L45643 27396
L45605 27415
L45452 27415
" />
<path d="M45871 27605
L45948 27605
L45986 27586
L46005 27567
L46043 27510
L46062 27434
L46062 27281
L46043 27243
L46024 27224
L45986 27205
L45909 27205
L45871 27224
L45852 27243
L45833 27281
L45833 27377
L45852 27415
L45871 27434
L45909 27453
L45986 27453
L46024 27434
L46043 27415
L46062 27377
" />
</g>
<g style="fill:#008484; fill-opacity:0.0; 
stroke:#008484; stroke-width:45; stroke-opacity:1; 
stroke-linecap:round; stroke-linejoin:round;">
<path d="M55260 27614
L55167 27674
" />
<path d="M55260 27716
L55063 27716
L55063 27648
L55073 27631
L55082 27622
L55101 27614
L55129 27614
L55148 27622
L55157 27631
L55167 27648
L55167 27716
" />
<path d="M55260 27442
L55260 27545
" />
<path d="M55260 27494
L55063 27494
L55092 27511
L55110 27528
L55120 27545
" />
<path d="M55956 27597
L55956 27700
" />
<path d="M55956 27649
L55756 27649
L55784 27666
L55803 27683
L55813 27700
" />
<path d="M55956 27520
L55756 27520
" />
<path d="M55956 27417
L55842 27494
" />
<path d="M55756 27417
L55870 27520
" />
<path d="M57003 38705
L56910 38765
" />
<path d="M57003 38808
L56806 38808
L56806 38740
L56816 38722
L56825 38714
L56844 38705
L56872 38705
L56891 38714
L56900 38722
L56910 38740
L56910 38808
" />
<path d="M56825 38637
L56816 38628
L56806 38611
L56806 38568
L56816 38551
L56825 38542
L56844 38534
L56863 38534
L56891 38542
L57003 38645
L57003 38534
" />
<path d="M56130 39013
L56120 39005
L56111 38987
L56111 38945
L56120 38927
L56130 38919
L56149 38910
L56168 38910
L56196 38919
L56311 39022
L56311 38910
" />
<path d="M56111 38850
L56111 38730
L56311 38807
" />
<path d="M56111 38627
L56111 38610
L56120 38593
L56130 38585
L56149 38576
L56187 38567
L56235 38567
L56273 38576
L56292 38585
L56301 38593
L56311 38610
L56311 38627
L56301 38645
L56292 38653
L56273 38662
L56235 38670
L56187 38670
L56149 38662
L56130 38653
L56120 38645
L56111 38627
" />
<path d="M56311 38490
L56111 38490
" />
<path d="M56311 38387
L56196 38465
" />
<path d="M56111 38387
L56225 38490
" />
<path d="M56953 37889
L56860 37949
" />
<path d="M56953 37992
L56756 37992
L56756 37923
L56766 37906
L56775 37898
L56794 37889
L56822 37889
L56841 37898
L56850 37906
L56860 37923
L56860 37992
" />
<path d="M56756 37829
L56756 37718
L56831 37778
L56831 37752
L56841 37735
L56850 37726
L56869 37718
L56916 37718
L56935 37726
L56944 37735
L56953 37752
L56953 37803
L56944 37821
L56935 37829
" />
<path d="M57649 37886
L57649 37988
" />
<path d="M57649 37937
L57449 37937
L57477 37954
L57496 37971
L57506 37988
" />
<path d="M57649 37808
L57449 37808
L57592 37748
L57449 37688
L57649 37688
" />
<path d="M48253 26629
L48159 26689
" />
<path d="M48253 26732
L48056 26732
L48056 26664
L48065 26646
L48074 26638
L48093 26629
L48121 26629
L48140 26638
L48149 26646
L48159 26664
L48159 26732
" />
<path d="M48121 26475
L48253 26475
" />
<path d="M48046 26518
L48187 26561
L48187 26449
" />
<path d="M48948 26613
L48948 26716
" />
<path d="M48948 26664
L48748 26664
L48777 26681
L48796 26699
L48805 26716
" />
<path d="M48948 26536
L48748 26536
" />
<path d="M48948 26433
L48834 26510
" />
<path d="M48748 26433
L48862 26536
" />
<path d="M50862 26776
L50768 26836
" />
<path d="M50862 26879
L50665 26879
L50665 26810
L50674 26793
L50683 26785
L50702 26776
L50730 26776
L50749 26785
L50758 26793
L50768 26810
L50768 26879
" />
<path d="M50665 26613
L50665 26699
L50758 26708
L50749 26699
L50740 26682
L50740 26639
L50749 26622
L50758 26613
L50777 26605
L50824 26605
L50843 26613
L50852 26622
L50862 26639
L50862 26682
L50852 26699
L50843 26708
" />
<path d="M50169 26895
L50169 26998
" />
<path d="M50169 26947
L49969 26947
L49998 26964
L50017 26981
L50026 26998
" />
<path d="M50169 26818
L49969 26818
" />
<path d="M50169 26715
L50055 26793
" />
<path d="M49969 26715
L50083 26818
" />
<path d="M49969 26553
L49969 26638
L50064 26647
L50055 26638
L50045 26621
L50045 26578
L50055 26561
L50064 26553
L50083 26544
L50131 26544
L50150 26553
L50159 26561
L50169 26578
L50169 26621
L50159 26638
L50150 26647
" />
<path d="M51727 27200
L51667 27106
" />
<path d="M51624 27200
L51624 27003
L51692 27003
L51710 27013
L51718 27022
L51727 27041
L51727 27069
L51718 27088
L51710 27097
L51692 27106
L51624 27106
" />
<path d="M51881 27003
L51847 27003
L51830 27013
L51821 27022
L51804 27050
L51795 27088
L51795 27163
L51804 27181
L51812 27191
L51830 27200
L51864 27200
L51881 27191
L51890 27181
L51898 27163
L51898 27116
L51890 27097
L51881 27088
L51864 27078
L51830 27078
L51812 27088
L51804 27097
L51795 27116
" />
<path d="M51505 26327
L51513 26317
L51530 26308
L51573 26308
L51590 26317
L51599 26327
L51607 26346
L51607 26365
L51599 26393
L51496 26508
L51607 26508
" />
<path d="M51685 26508
L51685 26308
" />
<path d="M51787 26508
L51710 26393
" />
<path d="M51787 26308
L51685 26422
" />
<path d="M51856 26327
L51865 26317
L51882 26308
L51925 26308
L51942 26317
L51950 26327
L51959 26346
L51959 26365
L51950 26393
L51847 26508
L51959 26508
" />
</g>
<g style="fill:#008484; fill-opacity:0.0; 
stroke:#008484; stroke-width:80; stroke-opacity:1; 
stroke-linecap:round; stroke-linejoin:round;">
<path d="M49301 40353
L49301 40757
L49320 40805
L49339 40829
L49377 40853
L49453 40853
L49492 40829
L49511 40805
L49530 40757
L49530 40353
" />
<path d="M49930 40853
L49701 40853
" />
<path d="M49815 40853
L49815 40353
L49777 40424
L49739 40472
L49701 40496
" />
<path d="M49022 43490
L49094 43514
L49118 43537
L49142 43585
L49142 43656
L49118 43704
L49094 43728
L49046 43752
L48856 43752
L48856 43252
L49022 43252
L49070 43275
L49094 43299
L49118 43347
L49118 43395
L49094 43442
L49070 43466
L49022 43490
L48856 43490
" />
<path d="M49356 43752
L49356 43252
" />
<path d="M49689 43252
L49784 43252
L49832 43275
L49880 43323
L49903 43418
L49903 43585
L49880 43680
L49832 43728
L49784 43752
L49689 43752
L49642 43728
L49594 43680
L49570 43585
L49570 43418
L49594 43323
L49642 43275
L49689 43252
" />
<path d="M50094 43299
L50118 43275
L50165 43252
L50284 43252
L50332 43275
L50356 43299
L50380 43347
L50380 43395
L50356 43466
L50070 43752
L50380 43752
" />
</g>
<g style="fill:#008484; fill-opacity:0.0; 
stroke:#008484; stroke-width:120; stroke-opacity:1; 
stroke-linecap:round; stroke-linejoin:round;">
<path d="M45182 31322
L45668 31322
L45725 31294
L45754 31265
L45782 31208
L45782 31094
L45754 31037
L45725 31008
L45668 30980
L45182 30980
" />
<path d="M45182 30751
L45182 30380
L45411 30580
L45411 30494
L45440 30437
L45468 30408
L45525 30380
L45668 30380
L45725 30408
L45754 30437
L45782 30494
L45782 30665
L45754 30722
L45725 30751
" />
<path d="M46963 31408
L46678 31608
" />
<path d="M46963 31751
L46363 31751
L46363 31523
L46392 31465
L46421 31437
L46478 31408
L46563 31408
L46621 31437
L46649 31465
L46678 31523
L46678 31751
" />
<path d="M46963 31151
L46363 31151
L46963 30808
L46363 30808
" />
<path d="M46563 30265
L46963 30265
" />
<path d="M46335 30408
L46763 30551
L46763 30180
" />
<path d="M46421 29980
L46392 29951
L46363 29894
L46363 29751
L46392 29694
L46421 29665
L46478 29637
L46535 29637
L46621 29665
L46963 30008
L46963 29637
" />
</g>
<g style="fill:#008484; fill-opacity:0.0; 
stroke:#008484; stroke-width:79; stroke-opacity:1; 
stroke-linecap:round; stroke-linejoin:round;">
<path d="M48760 24119
L49079 24119
L49116 24100
L49135 24082
L49154 24044
L49154 23969
L49135 23931
L49116 23913
L49079 23894
L48760 23894
" />
<path d="M48891 23537
L49154 23537
" />
<path d="M48741 23631
L49022 23725
L49022 23481
" />
<path d="M46753 25173
L46359 25173
L46640 25041
L46359 24910
L46753 24910
" />
<path d="M46715 24497
L46734 24516
L46753 24572
L46753 24610
L46734 24666
L46696 24704
L46659 24722
L46584 24741
L46528 24741
L46452 24722
L46415 24704
L46377 24666
L46359 24610
L46359 24572
L46377 24516
L46396 24497
" />
<path d="M46753 24328
L46359 24328
L46359 24178
L46377 24141
L46396 24122
L46434 24103
L46490 24103
L46528 24122
L46546 24141
L46565 24178
L46565 24328
" />
<path d="M46753 23728
L46753 23953
" />
<path d="M46753 23841
L46359 23841
L46415 23878
L46452 23916
L46471 23953
" />
<path d="M46359 23597
L46359 23334
L46753 23503
" />
<path d="M46359 23109
L46359 23071
L46377 23034
L46396 23015
L46434 22996
L46509 22978
L46603 22978
L46678 22996
L46715 23015
L46734 23034
L46753 23071
L46753 23109
L46734 23146
L46715 23165
L46678 23184
L46603 23203
L46509 23203
L46434 23184
L46396 23165
L46377 23146
L46359 23109
" />
<path d="M46396 22827
L46377 22809
L46359 22771
L46359 22677
L46377 22640
L46396 22621
L46434 22602
L46471 22602
L46528 22621
L46753 22846
L46753 22602
" />
</g>
<g style="fill:#008484; fill-opacity:0.0; 
stroke:#008484; stroke-width:39; stroke-opacity:1; 
stroke-linecap:round; stroke-linejoin:round;">
<path d="M53629 23947
L53629 24106
L53638 24125
L53648 24134
L53666 24144
L53704 24144
L53723 24134
L53732 24125
L53742 24106
L53742 23947
" />
<path d="M53929 23947
L53835 23947
L53826 24041
L53835 24031
L53854 24022
L53901 24022
L53920 24031
L53929 24041
L53939 24059
L53939 24106
L53929 24125
L53920 24134
L53901 24144
L53854 24144
L53835 24134
L53826 24125
" />
</g>
<g style="fill:#008484; fill-opacity:0.0; 
stroke:#008484; stroke-width:80; stroke-opacity:1; 
stroke-linecap:round; stroke-linejoin:round;">
<path d="M48090 48228
L48090 47828
L48242 47828
L48281 47847
L48300 47866
L48319 47904
L48319 47961
L48300 48000
L48281 48019
L48242 48038
L48090 48038
" />
<path d="M48662 47961
L48662 48228
" />
<path d="M48566 47809
L48471 48095
L48719 48095
" />
</g>
<g style="fill:#008484; fill-opacity:0.0; 
stroke:#008484; stroke-width:45; stroke-opacity:1; 
stroke-linecap:round; stroke-linejoin:round;">
<path d="M48969 36808
L48978 36817
L48988 36842
L48988 36860
L48978 36885
L48959 36902
L48940 36911
L48902 36920
L48873 36920
L48835 36911
L48816 36902
L48797 36885
L48788 36860
L48788 36842
L48797 36817
L48807 36808
" />
<path d="M48988 36637
L48988 36740
" />
<path d="M48988 36688
L48788 36688
L48816 36705
L48835 36722
L48845 36740
" />
<path d="M48854 36482
L48988 36482
" />
<path d="M48778 36525
L48921 36568
L48921 36457
" />
<path d="M48138 36911
L48138 36894
L48147 36877
L48157 36868
L48176 36860
L48214 36851
L48261 36851
L48300 36860
L48319 36868
L48328 36877
L48338 36894
L48338 36911
L48328 36928
L48319 36937
L48300 36945
L48261 36954
L48214 36954
L48176 36945
L48157 36937
L48147 36928
L48138 36911
" />
<path d="M48319 36774
L48328 36765
L48338 36774
L48328 36782
L48319 36774
L48338 36774
" />
<path d="M48338 36594
L48338 36697
" />
<path d="M48338 36645
L48138 36645
L48166 36662
L48185 36680
L48195 36697
" />
<path d="M48204 36440
L48338 36440
" />
<path d="M48204 36517
L48309 36517
L48328 36508
L48338 36491
L48338 36465
L48328 36448
L48319 36440
" />
</g>
<g style="fill:#008484; fill-opacity:0.0; 
stroke:#008484; stroke-width:59.0551; stroke-opacity:1; 
stroke-linecap:round; stroke-linejoin:round;">
<path d="M53755 33386
L53755 33705
L53773 33742
L53792 33761
L53830 33780
L53905 33780
L53942 33761
L53961 33742
L53980 33705
L53980 33386
" />
<path d="M54148 33424
L54167 33405
L54205 33386
L54298 33386
L54336 33405
L54355 33424
L54373 33461
L54373 33499
L54355 33555
L54130 33780
L54373 33780
" />
<path d="M52456 33298
L52456 32904
L52606 32904
L52643 32923
L52662 32941
L52681 32979
L52681 33035
L52662 33073
L52643 33091
L52606 33110
L52456 33110
" />
<path d="M52850 33298
L52850 32904
" />
<path d="M53262 33260
L53243 33279
L53187 33298
L53150 33298
L53093 33279
L53056 33241
L53037 33204
L53018 33129
L53018 33073
L53037 32998
L53056 32960
L53093 32923
L53150 32904
L53187 32904
L53243 32923
L53262 32941
" />
<path d="M53637 33298
L53412 33298
" />
<path d="M53525 33298
L53525 32904
L53487 32960
L53450 32998
L53412 33016
" />
<path d="M53974 32904
L53899 32904
L53862 32923
L53843 32941
L53806 32998
L53787 33073
L53787 33223
L53806 33260
L53824 33279
L53862 33298
L53937 33298
L53974 33279
L53993 33260
L54012 33223
L54012 33129
L53993 33091
L53974 33073
L53937 33054
L53862 33054
L53824 33073
L53806 33091
L53787 33129
" />
<path d="M54312 33091
L54181 33091
" />
<path d="M54181 33298
L54181 32904
L54368 32904
" />
<path d="M54724 33298
L54499 33298
" />
<path d="M54612 33298
L54612 32904
L54574 32960
L54537 32998
L54499 33016
" />
<path d="M54949 33073
L54912 33054
L54893 33035
L54874 32998
L54874 32979
L54893 32941
L54912 32923
L54949 32904
L55024 32904
L55062 32923
L55081 32941
L55099 32979
L55099 32998
L55081 33035
L55062 33054
L55024 33073
L54949 33073
L54912 33091
L54893 33110
L54874 33148
L54874 33223
L54893 33260
L54912 33279
L54949 33298
L55024 33298
L55062 33279
L55081 33260
L55099 33223
L55099 33148
L55081 33110
L55062 33091
L55024 33073
" />
<path d="M55249 32941
L55268 32923
L55306 32904
L55399 32904
L55437 32923
L55456 32941
L55474 32979
L55474 33016
L55456 33073
L55231 33298
L55474 33298
" />
<path d="M55606 32904
L55849 32904
L55718 33054
L55774 33054
L55812 33073
L55830 33091
L55849 33129
L55849 33223
L55830 33260
L55812 33279
L55774 33298
L55662 33298
L55624 33279
L55606 33260
" />
</g>
<g style="fill:#008484; fill-opacity:0.0; 
stroke:#008484; stroke-width:47; stroke-opacity:1; 
stroke-linecap:round; stroke-linejoin:round;">
<path d="M50748 47854
L51023 47854
" />
<path d="M50354 47854
L50079 47854
" />
<path d="M50748 47342
L51023 47342
" />
<path d="M50079 47342
L50354 47342
" />
<path d="M51023 47348
L51023 47848
" />
<path d="M50079 47848
L50079 47348
" />
<path d="M52204 47854
L52479 47854
" />
<path d="M51810 47854
L51535 47854
" />
<path d="M52204 47342
L52479 47342
" />
<path d="M51535 47342
L51810 47342
" />
<path d="M52479 47348
L52479 47848
" />
<path d="M51535 47848
L51535 47348
" />
<path d="M54744 45078
L54744 45353
" />
<path d="M54744 44684
L54744 44409
" />
<path d="M55256 45078
L55256 45353
" />
<path d="M55256 44409
L55256 44684
" />
<path d="M55250 45353
L54750 45353
" />
<path d="M54750 44409
L55250 44409
" />
<path d="M55551 42893
L55826 42893
" />
<path d="M55157 42893
L54882 42893
" />
<path d="M55551 42381
L55826 42381
" />
<path d="M54882 42381
L55157 42381
" />
<path d="M55826 42387
L55826 42887
" />
<path d="M54882 42887
L54882 42387
" />
<path d="M55551 42067
L55826 42067
" />
<path d="M55157 42067
L54882 42067
" />
<path d="M55551 41555
L55826 41555
" />
<path d="M54882 41555
L55157 41555
" />
<path d="M55826 41561
L55826 42061
" />
<path d="M54882 42061
L54882 41561
" />
<path d="M55551 41240
L55826 41240
" />
<path d="M55157 41240
L54882 41240
" />
<path d="M55551 40728
L55826 40728
" />
<path d="M54882 40728
L55157 40728
" />
<path d="M55826 40734
L55826 41234
" />
<path d="M54882 41234
L54882 40734
" />
<path d="M55551 40452
L55826 40452
" />
<path d="M55157 40452
L54882 40452
" />
<path d="M55551 39940
L55826 39940
" />
<path d="M54882 39940
L55157 39940
" />
<path d="M55826 39946
L55826 40446
" />
<path d="M54882 40446
L54882 39946
" />
<path d="M54252 30334
L54527 30334
" />
<path d="M53858 30334
L53583 30334
" />
<path d="M54252 29822
L54527 29822
" />
<path d="M53583 29822
L53858 29822
" />
<path d="M54527 29828
L54527 30328
" />
<path d="M53583 30328
L53583 29828
" />
<path d="M49448 34862
L49723 34862
" />
<path d="M49054 34862
L48779 34862
" />
<path d="M49448 34350
L49723 34350
" />
<path d="M48779 34350
L49054 34350
" />
<path d="M49723 34356
L49723 34856
" />
<path d="M48779 34856
L48779 34356
" />
<path d="M53503 25373
L53228 25373
" />
<path d="M53897 25373
L54172 25373
" />
<path d="M53503 25885
L53228 25885
" />
<path d="M54172 25885
L53897 25885
" />
<path d="M53228 25879
L53228 25379
" />
<path d="M54172 25379
L54172 25879
" />
<path d="M47991 25492
L47716 25492
" />
<path d="M48385 25492
L48660 25492
" />
<path d="M47991 26004
L47716 26004
" />
<path d="M48660 26004
L48385 26004
" />
<path d="M47716 25998
L47716 25498
" />
<path d="M48660 25498
L48660 25998
" />
<path d="M55256 23425
L55256 23150
" />
<path d="M55256 23819
L55256 24094
" />
<path d="M54744 23425
L54744 23150
" />
<path d="M54744 24094
L54744 23819
" />
<path d="M54750 23150
L55250 23150
" />
<path d="M55250 24094
L54750 24094
" />
</g>
<g style="fill:#008484; fill-opacity:0.0; 
stroke:#008484; stroke-width:50; stroke-opacity:1; 
stroke-linecap:round; stroke-linejoin:round;">
<path d="M46276 23055
L45376 23055
" />
<path d="M45376 23055
L45376 23705
" />
<path d="M46276 24405
L46276 25055
" />
<path d="M46276 25055
L45376 25055
" />
<path d="M45376 25055
L45376 24405
" />
<path d="M46276 23705
L46276 23055
" />
</g>
<g style="fill:#008484; fill-opacity:0.0; 
stroke:#008484; stroke-width:26; stroke-opacity:1; 
stroke-linecap:round; stroke-linejoin:round;">
<path d="M55433 26298
L55511 26298
" />
<path d="M55511 26298
L55511 26220
" />
<path d="M55433 26220
L55511 26220
" />
<path d="M55433 26298
L55433 26220
" />
<path d="M55649 26534
L55786 26534
" />
<path d="M55786 26534
L55786 26436
" />
<path d="M55649 26436
L55786 26436
" />
<path d="M55649 26534
L55649 26436
" />
<path d="M55786 26534
L55826 26534
" />
<path d="M55826 26534
L55826 26063
" />
<path d="M55786 26063
L55826 26063
" />
<path d="M55786 26534
L55786 26063
" />
<path d="M55786 26043
L55826 26043
" />
<path d="M55826 26043
L55826 25984
" />
<path d="M55786 25984
L55826 25984
" />
<path d="M55786 26043
L55786 25984
" />
<path d="M55118 26534
L55158 26534
" />
<path d="M55158 26534
L55158 26063
" />
<path d="M55118 26063
L55158 26063
" />
<path d="M55118 26534
L55118 26063
" />
<path d="M55118 26043
L55158 26043
" />
<path d="M55158 26043
L55158 25984
" />
<path d="M55118 25984
L55158 25984
" />
<path d="M55118 26043
L55118 25984
" />
<path d="M55649 26534
L55708 26534
" />
<path d="M55708 26534
L55708 26436
" />
<path d="M55649 26436
L55708 26436
" />
<path d="M55649 26534
L55649 26436
" />
</g>
<g style="fill:#008484; fill-opacity:0.0; 
stroke:#008484; stroke-width:40; stroke-opacity:1; 
stroke-linecap:round; stroke-linejoin:round;">
<path d="M56082 26554
L54862 26554
" />
<path d="M54862 26554
L54862 25964
" />
<path d="M54862 25964
L56082 25964
" />
<path d="M56082 25964
L56082 26554
" />
<path d="M55257 26456.4 A291.671 291.671 0.0 0 0 55688.4 26455.8 " />
<path d="M55256.6 26063.6 A291.671 291.671 0.0 0 0 55256.4 26455.8 " />
<path d="M55687.9 26063.2 A291.671 291.671 0.0 0 0 55256.4 26063.8 " />
<path d="M55688.2 26456.1 A291.671 291.671 0.0 0 0 55688.4 26063.8 " />
</g>
<g style="fill:#008484; fill-opacity:0.0; 
stroke:#008484; stroke-width:120; stroke-opacity:1; 
stroke-linecap:round; stroke-linejoin:round;">
<path d="M56259 25539
L56259 24539
" />
<path d="M56259 24539
L57259 25539
" />
<path d="M57259 24539
L56259 25539
" />
<path d="M55259 24539
L57259 24539
" />
<path d="M57259 25539
L55259 25539
" />
<path d="M57259 24539
L57259 25539
" />
<path d="M55259 25539
L55259 24539
" />
<path d="M43728 38169
L42728 38169
" />
<path d="M42728 37169
L42728 44169
" />
<path d="M43728 44169
L43728 37169
" />
<path d="M42728 37169
L43728 37169
" />
<path d="M43728 44169
L42728 44169
" />
<path d="M43728 45472
L42728 45472
" />
<path d="M42728 45472
L43728 44472
" />
<path d="M42728 44472
L43728 45472
" />
<path d="M42728 46472
L42728 44472
" />
<path d="M43728 44472
L43728 46472
" />
<path d="M42728 44472
L43728 44472
" />
<path d="M43728 46472
L42728 46472
" />
<path d="M58862 33866
L57862 32866
" />
<path d="M57862 32866
L58862 32866
" />
<path d="M58862 32866
L57862 33866
" />
</g>
<g style="fill:#008484; fill-opacity:0.0; 
stroke:#008484; stroke-width:150; stroke-opacity:1; 
stroke-linecap:round; stroke-linejoin:round;">
<path d="M57362 33366
L61362 33366
" />
<path d="M57362 28366
L61362 28366
" />
<path d="M57362 29366
L61362 29366
" />
<path d="M57362 30366
L61362 30366
" />
<path d="M61362 31366
L57362 31366
" />
<path d="M57362 32366
L61362 32366
" />
</g>
<g style="fill:#008484; fill-opacity:0.0; 
stroke:#008484; stroke-width:120; stroke-opacity:1; 
stroke-linecap:round; stroke-linejoin:round;">
<path d="M58862 33866
L57862 33866
" />
<path d="M57862 33866
L57862 27866
" />
<path d="M57862 27866
L58862 27866
" />
<path d="M58862 27866
L58862 33866
" />
<path d="M55736 38307
L54736 38307
" />
<path d="M54736 38307
L55736 37307
" />
<path d="M54736 37307
L55736 38307
" />
<path d="M54736 39307
L54736 37307
" />
<path d="M55736 37307
L55736 39307
" />
<path d="M54736 37307
L55736 37307
" />
<path d="M55736 39307
L54736 39307
" />
<path d="M46574 36248
L46574 35248
" />
<path d="M46574 35248
L47574 36248
" />
<path d="M47574 35248
L46574 36248
" />
<path d="M45574 35248
L47574 35248
" />
<path d="M47574 36248
L45574 36248
" />
<path d="M47574 35248
L47574 36248
" />
<path d="M45574 36248
L45574 35248
" />
<path d="M50523 24409
L51523 24409
" />
<path d="M51523 24409
L50523 25409
" />
<path d="M51523 25409
L50523 24409
" />
<path d="M51523 23409
L51523 25409
" />
<path d="M50523 25409
L50523 23409
" />
<path d="M51523 25409
L50523 25409
" />
<path d="M50523 23409
L51523 23409
" />
<path d="M45748 27074
L45748 26074
" />
<path d="M45748 26074
L46748 27074
" />
<path d="M46748 26074
L45748 27074
" />
<path d="M44748 26074
L46748 26074
" />
<path d="M46748 27074
L44748 27074
" />
<path d="M46748 26074
L46748 27074
" />
<path d="M44748 27074
L44748 26074
" />
</g>
<g style="fill:#008484; fill-opacity:0.0; 
stroke:#008484; stroke-width:50; stroke-opacity:1; 
stroke-linecap:round; stroke-linejoin:round;">
<path d="M55393 27834
L55671 27834
" />
<path d="M55671 27834
L55671 27284
" />
<path d="M55671 27284
L55393 27284
" />
<path d="M54721 27834
L54999 27834
" />
<path d="M54721 27834
L54721 27284
" />
<path d="M54721 27284
L54999 27284
" />
<path d="M56692 38425
L56414 38425
" />
<path d="M56414 38425
L56414 38975
" />
<path d="M56414 38975
L56692 38975
" />
<path d="M57364 38425
L57086 38425
" />
<path d="M57364 38425
L57364 38975
" />
<path d="M57364 38975
L57086 38975
" />
<path d="M57086 38109
L57364 38109
" />
<path d="M57364 38109
L57364 37559
" />
<path d="M57364 37559
L57086 37559
" />
<path d="M56414 38109
L56692 38109
" />
<path d="M56414 38109
L56414 37559
" />
<path d="M56414 37559
L56692 37559
" />
<path d="M48385 26849
L48663 26849
" />
<path d="M48663 26849
L48663 26299
" />
<path d="M48663 26299
L48385 26299
" />
<path d="M47713 26849
L47991 26849
" />
<path d="M47713 26849
L47713 26299
" />
<path d="M47713 26299
L47991 26299
" />
<path d="M50551 26496
L50273 26496
" />
<path d="M50273 26496
L50273 27046
" />
<path d="M50273 27046
L50551 27046
" />
<path d="M51223 26496
L50945 26496
" />
<path d="M51223 26496
L51223 27046
" />
<path d="M51223 27046
L50945 27046
" />
<path d="M52007 26889
L52007 26611
" />
<path d="M52007 26611
L51457 26611
" />
<path d="M51457 26611
L51457 26889
" />
<path d="M52007 27561
L52007 27283
" />
<path d="M52007 27561
L51457 27561
" />
<path d="M51457 27561
L51457 27283
" />
</g>
<g style="fill:#008484; fill-opacity:0.0; 
stroke:#008484; stroke-width:120; stroke-opacity:1; 
stroke-linecap:round; stroke-linejoin:round;">
<circle cx="47606.3" cy="42126" r="500" /> 
<path d="M47856 44625
L52106 44625
" />
<path d="M52106 39625
L52106 44625
" />
<path d="M47106 39625
L52106 39625
" />
<path d="M47856 44625
L47106 43875
" />
<path d="M47106 43875
L47106 39625
" />
<path d="M45106 46125
L45606 46625
" />
<path d="M45606 46625
L54106 46625
" />
<path d="M54106 46625
L54106 37625
" />
<path d="M54106 37625
L45106 37625
" />
<path d="M45106 37625
L45106 46125
" />
</g>
<g style="fill:#008484; fill-opacity:0.0; 
stroke:#008484; stroke-width:150; stroke-opacity:1; 
stroke-linecap:round; stroke-linejoin:round;">
<path d="M42716 33700
L40511 33700
" />
<path d="M40511 33700
L40511 28424
" />
<path d="M40511 28424
L42716 28424
" />
<path d="M50590 33700
L42716 33700
" />
<path d="M42716 33700
L42716 28424
" />
<path d="M42716 28424
L50590 28424
" />
<path d="M50590 28424
L50590 33700
" />
</g>
<g style="fill:#008484; fill-opacity:0.0; 
stroke:#008484; stroke-width:50; stroke-opacity:1; 
stroke-linecap:round; stroke-linejoin:round;">
<path d="M48245 24961
L48445 24961
" />
<path d="M48445 24961
L48445 24491
" />
<path d="M48245 24961
L48245 24491
" />
<path d="M47655 24961
L47655 24491
" />
<path d="M47855 24961
L47855 24491
" />
<path d="M47655 24961
L47855 24961
" />
<path d="M47065 24961
L47265 24961
" />
<path d="M47265 24961
L47265 24491
" />
<path d="M47065 24961
L47065 24491
" />
<path d="M47400 23266
L48110 23266
" />
<path d="M48110 23266
L48110 23461
" />
<path d="M47400 23266
L47400 23461
" />
<path d="M46850 24491
L46850 23461
" />
<path d="M46850 23461
L48660 23461
" />
<path d="M48660 23461
L48660 24491
" />
<path d="M48660 24491
L46850 24491
" />
<path d="M54154 24330
L54154 24590
" />
<path d="M53404 24330
L53404 24590
" />
<path d="M53779 23780
L53779 23520
" />
<path d="M53189 23780
L54369 23780
" />
<path d="M54369 23780
L54369 24330
" />
<path d="M54369 24330
L53189 24330
" />
<path d="M53189 24330
L53189 23780
" />
</g>
<g style="fill:#008484; fill-opacity:0.0; 
stroke:#008484; stroke-width:120; stroke-opacity:1; 
stroke-linecap:round; stroke-linejoin:round;">
<path d="M46385 49397
L47385 50397
" />
<path d="M47385 49397
L46385 50397
" />
<path d="M46385 49397
L50385 49397
" />
<path d="M50385 49397
L50385 50397
" />
<path d="M50385 50397
L46385 50397
" />
<path d="M47385 49397
L47385 50397
" />
<path d="M46885 48897
L46885 52897
" />
<path d="M49885 48897
L49885 52897
" />
<path d="M48885 52897
L48885 48897
" />
<path d="M47885 48897
L47885 52897
" />
<path d="M46385 50397
L46385 49397
" />
</g>
<g style="fill:#008484; fill-opacity:0.0; 
stroke:#008484; stroke-width:47; stroke-opacity:1; 
stroke-linecap:round; stroke-linejoin:round;">
<path d="M49094 36948
L49369 36948
" />
<path d="M48700 36948
L48425 36948
" />
<path d="M49094 36436
L49369 36436
" />
<path d="M48425 36436
L48700 36436
" />
<path d="M49369 36442
L49369 36942
" />
<path d="M48425 36942
L48425 36442
" />
</g>
<g style="fill:#008484; fill-opacity:0.0; 
stroke:#008484; stroke-width:59.0551; stroke-opacity:1; 
stroke-linecap:round; stroke-linejoin:round;">
<path d="M53267 31181
L53503 30944
" />
<path d="M53503 32519
L53267 32519
" />
<path d="M53267 32519
L53267 32283
" />
<path d="M54842 32283
L54842 32519
" />
<path d="M54842 32519
L54606 32519
" />
<path d="M54606 30944
L54842 30944
" />
<path d="M54842 30944
L54842 31181
" />
<path d="M53503 30944
L53267 30944
" />
<path d="M53267 30944
L53267 31181
" />
</g>
<g style="fill:#840000; fill-opacity:0.0; 
stroke:#840000; stroke-width:39.3701; stroke-opacity:1; 
stroke-linecap:round; stroke-linejoin:round;">
</g>
<g style="fill:#840000; fill-opacity:1.0; 
stroke:#840000; stroke-width:39.3701; stroke-opacity:1; 
stroke-linecap:round; stroke-linejoin:round;">
<polyline style="fill-rule:evenodd;"
points="57040,24626
57040,25452
56479,25452
56479,24626
57040,24626
" /> 
</g>
<g style="fill:#840000; fill-opacity:1.0; 
stroke:#840000; stroke-width:600; stroke-opacity:1; 
stroke-linecap:round; stroke-linejoin:round;">
<path d="M55759 25172
L55759 24906
" />
</g>
<g style="fill:#840000; fill-opacity:1.0; 
stroke:#840000; stroke-width:39.3701; stroke-opacity:1; 
stroke-linecap:round; stroke-linejoin:round;">
<polyline style="fill-rule:evenodd;"
points="42815,37388
43641,37388
43641,37949
42815,37949
42815,37388
" /> 
</g>
<g style="fill:#840000; fill-opacity:1.0; 
stroke:#840000; stroke-width:600; stroke-opacity:1; 
stroke-linecap:round; stroke-linejoin:round;">
<path d="M43361 38669
L43095 38669
" />
<path d="M43361 39669
L43095 39669
" />
<path d="M43361 40669
L43095 40669
" />
<path d="M43361 41669
L43095 41669
" />
<path d="M43361 42669
L43095 42669
" />
<path d="M43361 43669
L43095 43669
" />
</g>
<g style="fill:#840000; fill-opacity:1.0; 
stroke:#840000; stroke-width:39.3701; stroke-opacity:1; 
stroke-linecap:round; stroke-linejoin:round;">
<polyline style="fill-rule:evenodd;"
points="42815,44692
43641,44692
43641,45252
42815,45252
42815,44692
" /> 
</g>
<g style="fill:#840000; fill-opacity:1.0; 
stroke:#840000; stroke-width:600; stroke-opacity:1; 
stroke-linecap:round; stroke-linejoin:round;">
<path d="M43361 45972
L43095 45972
" />
</g>
<g style="fill:#840000; fill-opacity:1.0; 
stroke:#840000; stroke-width:39.3701; stroke-opacity:1; 
stroke-linecap:round; stroke-linejoin:round;">
<polyline style="fill-rule:evenodd;"
points="57775,33646
56948,33646
56948,33085
57775,33085
57775,33646
" /> 
</g>
<g style="fill:#840000; fill-opacity:1.0; 
stroke:#840000; stroke-width:600; stroke-opacity:1; 
stroke-linecap:round; stroke-linejoin:round;">
<path d="M57229 32366
L57495 32366
" />
<path d="M57229 31366
L57495 31366
" />
<path d="M57229 30366
L57495 30366
" />
<path d="M57229 29366
L57495 29366
" />
<path d="M57229 28366
L57495 28366
" />
</g>
<g style="fill:#840000; fill-opacity:1.0; 
stroke:#840000; stroke-width:39.3701; stroke-opacity:1; 
stroke-linecap:round; stroke-linejoin:round;">
<polyline style="fill-rule:evenodd;"
points="54822,37526
55649,37526
55649,38087
54822,38087
54822,37526
" /> 
</g>
<g style="fill:#840000; fill-opacity:1.0; 
stroke:#840000; stroke-width:600; stroke-opacity:1; 
stroke-linecap:round; stroke-linejoin:round;">
<path d="M55369 38807
L55103 38807
" />
</g>
<g style="fill:#840000; fill-opacity:1.0; 
stroke:#840000; stroke-width:39.3701; stroke-opacity:1; 
stroke-linecap:round; stroke-linejoin:round;">
<polyline style="fill-rule:evenodd;"
points="47355,35334
47355,36161
46794,36161
46794,35334
47355,35334
" /> 
</g>
<g style="fill:#840000; fill-opacity:1.0; 
stroke:#840000; stroke-width:600; stroke-opacity:1; 
stroke-linecap:round; stroke-linejoin:round;">
<path d="M46074 35881
L46074 35615
" />
</g>
<g style="fill:#840000; fill-opacity:1.0; 
stroke:#840000; stroke-width:39.3701; stroke-opacity:1; 
stroke-linecap:round; stroke-linejoin:round;">
<polyline style="fill-rule:evenodd;"
points="51436,25189
50610,25189
50610,24629
51436,24629
51436,25189
" /> 
</g>
<g style="fill:#840000; fill-opacity:1.0; 
stroke:#840000; stroke-width:600; stroke-opacity:1; 
stroke-linecap:round; stroke-linejoin:round;">
<path d="M50890 23909
L51156 23909
" />
</g>
<g style="fill:#840000; fill-opacity:1.0; 
stroke:#840000; stroke-width:39.3701; stroke-opacity:1; 
stroke-linecap:round; stroke-linejoin:round;">
<polyline style="fill-rule:evenodd;"
points="46528,26161
46528,26988
45967,26988
45967,26161
46528,26161
" /> 
</g>
<g style="fill:#840000; fill-opacity:1.0; 
stroke:#840000; stroke-width:600; stroke-opacity:1; 
stroke-linecap:round; stroke-linejoin:round;">
<path d="M45248 26707
L45248 26441
" />
</g>
<g style="fill:#840000; fill-opacity:1.0; 
stroke:#840000; stroke-width:39.3701; stroke-opacity:1; 
stroke-linecap:round; stroke-linejoin:round;">
<polyline style="fill-rule:evenodd;"
points="46605,49310
46605,48484
47166,48484
47166,49310
46605,49310
" /> 
</g>
<g style="fill:#840000; fill-opacity:1.0; 
stroke:#840000; stroke-width:600; stroke-opacity:1; 
stroke-linecap:round; stroke-linejoin:round;">
<path d="M47885 48764
L47885 49030
" />
<path d="M48885 48764
L48885 49030
" />
<path d="M49885 48764
L49885 49030
" />
</g>
<g style="fill:#840000; fill-opacity:1.0; 
stroke:#840000; stroke-width:39.3701; stroke-opacity:1; 
stroke-linecap:round; stroke-linejoin:round;">
<circle cx="57244.1" cy="21496.1" r="610.315" /> 
<circle cx="43582.7" cy="48622" r="610.315" /> 
<circle cx="57204.7" cy="48622" r="610.315" /> 
<circle cx="43543.3" cy="21496.1" r="610.315" /> 
</g> 
</svg>
