G04 (created by PCBNEW (2013-mar-13)-testing) date Wed 06 Nov 2013 09:32:46 AM CET*
%MOIN*%
G04 Gerber Fmt 3.4, Leading zero omitted, Abs format*
%FSLAX34Y34*%
G01*
G70*
G90*
G04 APERTURE LIST*
%ADD10C,0.005906*%
%ADD11R,0.060000X0.086600*%
%ADD12O,0.060000X0.086600*%
%ADD13R,0.086600X0.060000*%
%ADD14O,0.086600X0.060000*%
%ADD15C,0.126000*%
%ADD16C,0.062992*%
%ADD17C,0.078740*%
%ADD18C,0.011811*%
%ADD19C,0.023622*%
%ADD20C,0.010000*%
G04 APERTURE END LIST*
G54D10*
G54D11*
X56759Y-25039D03*
G54D12*
X55759Y-25039D03*
G54D13*
X43228Y-37669D03*
G54D14*
X43228Y-38669D03*
X43228Y-39669D03*
X43228Y-40669D03*
X43228Y-41669D03*
X43228Y-42669D03*
X43228Y-43669D03*
G54D13*
X43228Y-44972D03*
G54D14*
X43228Y-45972D03*
G54D13*
X57362Y-33366D03*
G54D14*
X57362Y-32366D03*
X57362Y-31366D03*
X57362Y-30366D03*
X57362Y-29366D03*
X57362Y-28366D03*
G54D13*
X55236Y-37807D03*
G54D14*
X55236Y-38807D03*
G54D11*
X47074Y-35748D03*
G54D12*
X46074Y-35748D03*
G54D13*
X51023Y-24909D03*
G54D14*
X51023Y-23909D03*
G54D11*
X46248Y-26574D03*
G54D12*
X45248Y-26574D03*
G54D11*
X46885Y-48897D03*
G54D12*
X47885Y-48897D03*
X48885Y-48897D03*
X49885Y-48897D03*
G54D15*
X57244Y-21496D03*
X43582Y-48622D03*
X57204Y-48622D03*
X43543Y-21496D03*
G54D16*
X49254Y-35763D03*
X54650Y-29239D03*
G54D17*
X49096Y-26657D03*
X48355Y-34579D03*
G54D16*
X53980Y-33468D03*
X50780Y-35960D03*
X52315Y-31227D03*
X44495Y-42774D03*
X53790Y-34485D03*
X50106Y-36489D03*
X52437Y-32307D03*
X53234Y-30078D03*
X51606Y-37012D03*
X54913Y-33464D03*
X54717Y-43462D03*
X55239Y-35845D03*
X44483Y-44444D03*
X53256Y-23535D03*
X45264Y-27612D03*
X45708Y-34675D03*
X47412Y-26994D03*
X44484Y-43715D03*
X54883Y-25039D03*
X54702Y-36967D03*
X56844Y-37217D03*
G54D18*
X57362Y-32366D02*
X57362Y-31936D01*
X56759Y-27129D02*
X54650Y-29239D01*
X56759Y-25039D02*
X56759Y-27129D01*
X57023Y-31936D02*
X57362Y-31936D01*
X54891Y-29804D02*
X57023Y-31936D01*
X54891Y-29480D02*
X54650Y-29239D01*
X54891Y-29804D02*
X54891Y-29480D01*
X51836Y-33180D02*
X49254Y-35763D01*
X51836Y-32278D02*
X51836Y-33180D01*
X52252Y-31862D02*
X51836Y-32278D01*
X52834Y-31862D02*
X52252Y-31862D01*
X54891Y-29804D02*
X52834Y-31862D01*
G54D19*
X51023Y-24909D02*
X51023Y-25398D01*
X49096Y-26657D02*
X49179Y-26741D01*
X49680Y-26741D02*
X51023Y-25398D01*
X49179Y-26741D02*
X49680Y-26741D01*
X47074Y-35748D02*
X47563Y-35748D01*
X48355Y-34956D02*
X48355Y-34579D01*
X47563Y-35748D02*
X48355Y-34956D01*
X49179Y-33755D02*
X48355Y-34579D01*
X49179Y-26741D02*
X49179Y-33755D01*
G54D18*
X53273Y-33468D02*
X53980Y-33468D01*
X50780Y-35960D02*
X53273Y-33468D01*
X44495Y-39438D02*
X44495Y-42774D01*
X51458Y-32475D02*
X44495Y-39438D01*
X51458Y-32084D02*
X51458Y-32475D01*
X52315Y-31227D02*
X51458Y-32084D01*
X51785Y-36489D02*
X53790Y-34485D01*
X50106Y-36489D02*
X51785Y-36489D01*
X57362Y-33366D02*
X57362Y-32936D01*
X53066Y-32936D02*
X52437Y-32307D01*
X57362Y-32936D02*
X53066Y-32936D01*
X49839Y-37012D02*
X51606Y-37012D01*
X48804Y-35977D02*
X49839Y-37012D01*
X48804Y-35423D02*
X48804Y-35977D01*
X51647Y-32579D02*
X48804Y-35423D01*
X51647Y-32199D02*
X51647Y-32579D01*
X52174Y-31672D02*
X51647Y-32199D01*
X52502Y-31672D02*
X52174Y-31672D01*
X53234Y-30941D02*
X52502Y-31672D01*
X53234Y-30078D02*
X53234Y-30941D01*
X54237Y-34140D02*
X54913Y-33464D01*
X54237Y-42982D02*
X54237Y-34140D01*
X54717Y-43462D02*
X54237Y-42982D01*
X55825Y-35845D02*
X55239Y-35845D01*
X57925Y-33745D02*
X55825Y-35845D01*
X57925Y-31929D02*
X57925Y-33745D01*
X57362Y-31366D02*
X57925Y-31929D01*
X43598Y-45542D02*
X43228Y-45542D01*
X44483Y-44658D02*
X43598Y-45542D01*
X44483Y-44444D02*
X44483Y-44658D01*
X43228Y-45972D02*
X43228Y-45542D01*
X51023Y-23909D02*
X51586Y-23909D01*
X51960Y-23535D02*
X53256Y-23535D01*
X51586Y-23909D02*
X51960Y-23535D01*
X45248Y-27596D02*
X45248Y-26574D01*
X45264Y-27612D02*
X45248Y-27596D01*
X46074Y-35042D02*
X45708Y-34675D01*
X46074Y-35748D02*
X46074Y-35042D01*
X47097Y-26994D02*
X47412Y-26994D01*
X46678Y-26574D02*
X47097Y-26994D01*
X46248Y-26574D02*
X46678Y-26574D01*
X43228Y-44972D02*
X43228Y-44542D01*
X43658Y-44542D02*
X44484Y-43715D01*
X43228Y-44542D02*
X43658Y-44542D01*
X55759Y-25039D02*
X54883Y-25039D01*
X55236Y-38807D02*
X55236Y-38377D01*
X54865Y-38377D02*
X55236Y-38377D01*
X54673Y-38184D02*
X54865Y-38377D01*
X54673Y-36996D02*
X54673Y-38184D01*
X54702Y-36967D02*
X54673Y-36996D01*
X55236Y-37807D02*
X55236Y-37377D01*
X56685Y-37377D02*
X56844Y-37217D01*
X55236Y-37377D02*
X56685Y-37377D01*
G54D10*
G36*
X58020Y-47919D02*
X57813Y-47712D01*
X57419Y-47548D01*
X56992Y-47547D01*
X56597Y-47711D01*
X56294Y-48012D01*
X56130Y-48407D01*
X56130Y-48834D01*
X56293Y-49229D01*
X56423Y-49359D01*
X50167Y-49359D01*
X50188Y-49344D01*
X50281Y-49205D01*
X50314Y-49041D01*
X50314Y-48753D01*
X50281Y-48589D01*
X50188Y-48450D01*
X50049Y-48357D01*
X49885Y-48324D01*
X49721Y-48357D01*
X49582Y-48450D01*
X49489Y-48589D01*
X49457Y-48753D01*
X49457Y-49041D01*
X49489Y-49205D01*
X49582Y-49344D01*
X49604Y-49359D01*
X49167Y-49359D01*
X49188Y-49344D01*
X49281Y-49205D01*
X49314Y-49041D01*
X49314Y-48753D01*
X49281Y-48589D01*
X49188Y-48450D01*
X49049Y-48357D01*
X48885Y-48324D01*
X48721Y-48357D01*
X48582Y-48450D01*
X48489Y-48589D01*
X48457Y-48753D01*
X48457Y-49041D01*
X48489Y-49205D01*
X48582Y-49344D01*
X48604Y-49359D01*
X48167Y-49359D01*
X48188Y-49344D01*
X48281Y-49205D01*
X48314Y-49041D01*
X48314Y-48753D01*
X48281Y-48589D01*
X48188Y-48450D01*
X48049Y-48357D01*
X47885Y-48324D01*
X47721Y-48357D01*
X47582Y-48450D01*
X47489Y-48589D01*
X47457Y-48753D01*
X47457Y-49041D01*
X47489Y-49205D01*
X47582Y-49344D01*
X47604Y-49359D01*
X47313Y-49359D01*
X47314Y-49356D01*
X47314Y-49305D01*
X47314Y-48439D01*
X47294Y-48391D01*
X47258Y-48355D01*
X47211Y-48335D01*
X47160Y-48335D01*
X46560Y-48335D01*
X46512Y-48355D01*
X46476Y-48391D01*
X46457Y-48439D01*
X46457Y-48490D01*
X46457Y-49356D01*
X46458Y-49359D01*
X44364Y-49359D01*
X44492Y-49231D01*
X44656Y-48836D01*
X44656Y-48409D01*
X44493Y-48014D01*
X44191Y-47712D01*
X43797Y-47548D01*
X43369Y-47547D01*
X42975Y-47711D01*
X42766Y-47919D01*
X42766Y-46253D01*
X42781Y-46275D01*
X42920Y-46368D01*
X43084Y-46401D01*
X43372Y-46401D01*
X43536Y-46368D01*
X43675Y-46275D01*
X43768Y-46136D01*
X43801Y-45972D01*
X43768Y-45808D01*
X43695Y-45699D01*
X43731Y-45675D01*
X44519Y-44887D01*
X44571Y-44887D01*
X44734Y-44820D01*
X44859Y-44695D01*
X44926Y-44532D01*
X44926Y-44356D01*
X44859Y-44193D01*
X44747Y-44080D01*
X44860Y-43967D01*
X44928Y-43804D01*
X44928Y-43628D01*
X44861Y-43464D01*
X44736Y-43340D01*
X44573Y-43272D01*
X44396Y-43272D01*
X44233Y-43339D01*
X44108Y-43464D01*
X44041Y-43627D01*
X44041Y-43803D01*
X44067Y-43867D01*
X43580Y-44354D01*
X43228Y-44354D01*
X43156Y-44368D01*
X43095Y-44409D01*
X43054Y-44470D01*
X43040Y-44542D01*
X43040Y-44543D01*
X42769Y-44543D01*
X42766Y-44545D01*
X42766Y-43950D01*
X42781Y-43972D01*
X42920Y-44065D01*
X43084Y-44098D01*
X43372Y-44098D01*
X43536Y-44065D01*
X43675Y-43972D01*
X43768Y-43833D01*
X43801Y-43669D01*
X43768Y-43505D01*
X43675Y-43366D01*
X43536Y-43273D01*
X43372Y-43240D01*
X43084Y-43240D01*
X42920Y-43273D01*
X42781Y-43366D01*
X42766Y-43388D01*
X42766Y-42950D01*
X42781Y-42972D01*
X42920Y-43065D01*
X43084Y-43098D01*
X43372Y-43098D01*
X43536Y-43065D01*
X43675Y-42972D01*
X43768Y-42833D01*
X43801Y-42669D01*
X43768Y-42505D01*
X43675Y-42366D01*
X43536Y-42273D01*
X43372Y-42240D01*
X43084Y-42240D01*
X42920Y-42273D01*
X42781Y-42366D01*
X42766Y-42388D01*
X42766Y-41950D01*
X42781Y-41972D01*
X42920Y-42065D01*
X43084Y-42098D01*
X43372Y-42098D01*
X43536Y-42065D01*
X43675Y-41972D01*
X43768Y-41833D01*
X43801Y-41669D01*
X43768Y-41505D01*
X43675Y-41366D01*
X43536Y-41273D01*
X43372Y-41240D01*
X43084Y-41240D01*
X42920Y-41273D01*
X42781Y-41366D01*
X42766Y-41388D01*
X42766Y-40950D01*
X42781Y-40972D01*
X42920Y-41065D01*
X43084Y-41098D01*
X43372Y-41098D01*
X43536Y-41065D01*
X43675Y-40972D01*
X43768Y-40833D01*
X43801Y-40669D01*
X43768Y-40505D01*
X43675Y-40366D01*
X43536Y-40273D01*
X43372Y-40240D01*
X43084Y-40240D01*
X42920Y-40273D01*
X42781Y-40366D01*
X42766Y-40388D01*
X42766Y-39950D01*
X42781Y-39972D01*
X42920Y-40065D01*
X43084Y-40098D01*
X43372Y-40098D01*
X43536Y-40065D01*
X43675Y-39972D01*
X43768Y-39833D01*
X43801Y-39669D01*
X43768Y-39505D01*
X43675Y-39366D01*
X43536Y-39273D01*
X43372Y-39240D01*
X43084Y-39240D01*
X42920Y-39273D01*
X42781Y-39366D01*
X42766Y-39388D01*
X42766Y-38950D01*
X42781Y-38972D01*
X42920Y-39065D01*
X43084Y-39098D01*
X43372Y-39098D01*
X43536Y-39065D01*
X43675Y-38972D01*
X43768Y-38833D01*
X43801Y-38669D01*
X43768Y-38505D01*
X43675Y-38366D01*
X43536Y-38273D01*
X43372Y-38240D01*
X43084Y-38240D01*
X42920Y-38273D01*
X42781Y-38366D01*
X42766Y-38388D01*
X42766Y-38096D01*
X42769Y-38098D01*
X42820Y-38098D01*
X43686Y-38098D01*
X43734Y-38078D01*
X43770Y-38042D01*
X43790Y-37994D01*
X43790Y-37943D01*
X43790Y-37343D01*
X43770Y-37296D01*
X43734Y-37260D01*
X43686Y-37240D01*
X43635Y-37240D01*
X42769Y-37240D01*
X42766Y-37241D01*
X42766Y-22238D01*
X42934Y-22406D01*
X43328Y-22569D01*
X43756Y-22570D01*
X44150Y-22407D01*
X44453Y-22105D01*
X44617Y-21710D01*
X44617Y-21283D01*
X44454Y-20888D01*
X44285Y-20719D01*
X56502Y-20719D01*
X56334Y-20886D01*
X56170Y-21281D01*
X56169Y-21708D01*
X56333Y-22103D01*
X56634Y-22406D01*
X57029Y-22569D01*
X57456Y-22570D01*
X57851Y-22407D01*
X58020Y-22238D01*
X58020Y-31198D01*
X57934Y-31041D01*
X57934Y-30366D01*
X57934Y-29366D01*
X57934Y-28366D01*
X57902Y-28202D01*
X57809Y-28062D01*
X57670Y-27970D01*
X57506Y-27937D01*
X57218Y-27937D01*
X57054Y-27970D01*
X56915Y-28062D01*
X56822Y-28202D01*
X56789Y-28366D01*
X56822Y-28530D01*
X56915Y-28669D01*
X57054Y-28762D01*
X57218Y-28794D01*
X57506Y-28794D01*
X57670Y-28762D01*
X57809Y-28669D01*
X57902Y-28530D01*
X57934Y-28366D01*
X57934Y-29366D01*
X57902Y-29202D01*
X57809Y-29062D01*
X57670Y-28970D01*
X57506Y-28937D01*
X57218Y-28937D01*
X57054Y-28970D01*
X56915Y-29062D01*
X56822Y-29202D01*
X56789Y-29366D01*
X56822Y-29530D01*
X56915Y-29669D01*
X57054Y-29762D01*
X57218Y-29794D01*
X57506Y-29794D01*
X57670Y-29762D01*
X57809Y-29669D01*
X57902Y-29530D01*
X57934Y-29366D01*
X57934Y-30366D01*
X57902Y-30202D01*
X57809Y-30062D01*
X57670Y-29970D01*
X57506Y-29937D01*
X57218Y-29937D01*
X57054Y-29970D01*
X56915Y-30062D01*
X56822Y-30202D01*
X56789Y-30366D01*
X56822Y-30530D01*
X56915Y-30669D01*
X57054Y-30762D01*
X57218Y-30794D01*
X57506Y-30794D01*
X57670Y-30762D01*
X57809Y-30669D01*
X57902Y-30530D01*
X57934Y-30366D01*
X57934Y-31041D01*
X57919Y-31012D01*
X57751Y-30877D01*
X57545Y-30816D01*
X57412Y-30816D01*
X57412Y-31316D01*
X57420Y-31316D01*
X57420Y-31416D01*
X57412Y-31416D01*
X57412Y-31424D01*
X57312Y-31424D01*
X57312Y-31416D01*
X57304Y-31416D01*
X57304Y-31316D01*
X57312Y-31316D01*
X57312Y-30816D01*
X57179Y-30816D01*
X56972Y-30877D01*
X56804Y-31012D01*
X56701Y-31201D01*
X56696Y-31231D01*
X56744Y-31316D01*
X56679Y-31316D01*
X56679Y-31326D01*
X55079Y-29726D01*
X55079Y-29480D01*
X55065Y-29408D01*
X55062Y-29404D01*
X55093Y-29327D01*
X55093Y-29151D01*
X55067Y-29087D01*
X56892Y-27262D01*
X56933Y-27201D01*
X56933Y-27201D01*
X56947Y-27129D01*
X56947Y-25601D01*
X57085Y-25601D01*
X57132Y-25581D01*
X57168Y-25545D01*
X57188Y-25497D01*
X57188Y-25446D01*
X57188Y-24580D01*
X57168Y-24533D01*
X57132Y-24497D01*
X57085Y-24477D01*
X57034Y-24477D01*
X56434Y-24477D01*
X56386Y-24497D01*
X56350Y-24533D01*
X56331Y-24580D01*
X56331Y-24631D01*
X56331Y-25497D01*
X56350Y-25545D01*
X56386Y-25581D01*
X56434Y-25601D01*
X56485Y-25601D01*
X56572Y-25601D01*
X56572Y-27051D01*
X56188Y-27435D01*
X56188Y-25183D01*
X56188Y-24895D01*
X56155Y-24731D01*
X56063Y-24592D01*
X55923Y-24499D01*
X55759Y-24466D01*
X55595Y-24499D01*
X55456Y-24592D01*
X55363Y-24731D01*
X55339Y-24851D01*
X55285Y-24851D01*
X55259Y-24788D01*
X55134Y-24663D01*
X54971Y-24595D01*
X54795Y-24595D01*
X54632Y-24662D01*
X54507Y-24787D01*
X54439Y-24950D01*
X54439Y-25127D01*
X54506Y-25290D01*
X54631Y-25415D01*
X54794Y-25482D01*
X54970Y-25483D01*
X55134Y-25415D01*
X55259Y-25291D01*
X55285Y-25227D01*
X55339Y-25227D01*
X55363Y-25347D01*
X55456Y-25486D01*
X55595Y-25579D01*
X55759Y-25612D01*
X55923Y-25579D01*
X56063Y-25486D01*
X56155Y-25347D01*
X56188Y-25183D01*
X56188Y-27435D01*
X54802Y-28821D01*
X54738Y-28795D01*
X54562Y-28795D01*
X54399Y-28862D01*
X54274Y-28987D01*
X54206Y-29150D01*
X54206Y-29327D01*
X54273Y-29490D01*
X54398Y-29615D01*
X54561Y-29682D01*
X54703Y-29682D01*
X54703Y-29726D01*
X53700Y-30730D01*
X53700Y-23447D01*
X53632Y-23284D01*
X53508Y-23159D01*
X53344Y-23092D01*
X53168Y-23092D01*
X53005Y-23159D01*
X52880Y-23284D01*
X52853Y-23347D01*
X51960Y-23347D01*
X51888Y-23362D01*
X51827Y-23402D01*
X51532Y-23698D01*
X51470Y-23606D01*
X51331Y-23513D01*
X51167Y-23480D01*
X50879Y-23480D01*
X50715Y-23513D01*
X50576Y-23606D01*
X50483Y-23745D01*
X50450Y-23909D01*
X50483Y-24073D01*
X50576Y-24212D01*
X50715Y-24305D01*
X50879Y-24338D01*
X51167Y-24338D01*
X51331Y-24305D01*
X51470Y-24212D01*
X51547Y-24097D01*
X51586Y-24097D01*
X51658Y-24082D01*
X51719Y-24042D01*
X52038Y-23723D01*
X52853Y-23723D01*
X52879Y-23786D01*
X53004Y-23911D01*
X53167Y-23979D01*
X53344Y-23979D01*
X53507Y-23912D01*
X53632Y-23787D01*
X53699Y-23624D01*
X53700Y-23447D01*
X53700Y-30730D01*
X53389Y-31041D01*
X53408Y-31012D01*
X53422Y-30941D01*
X53422Y-30481D01*
X53485Y-30455D01*
X53610Y-30330D01*
X53678Y-30167D01*
X53678Y-29990D01*
X53611Y-29827D01*
X53486Y-29702D01*
X53323Y-29635D01*
X53146Y-29634D01*
X52983Y-29702D01*
X52858Y-29826D01*
X52791Y-29990D01*
X52791Y-30166D01*
X52858Y-30329D01*
X52983Y-30454D01*
X53047Y-30481D01*
X53047Y-30863D01*
X52758Y-31151D01*
X52758Y-31140D01*
X52691Y-30976D01*
X52566Y-30851D01*
X52403Y-30784D01*
X52227Y-30784D01*
X52064Y-30851D01*
X51939Y-30976D01*
X51871Y-31139D01*
X51871Y-31315D01*
X51897Y-31379D01*
X51325Y-31951D01*
X51285Y-32012D01*
X51270Y-32084D01*
X51270Y-32397D01*
X48801Y-34866D01*
X48877Y-34684D01*
X48877Y-34476D01*
X48857Y-34426D01*
X49354Y-33929D01*
X49407Y-33849D01*
X49407Y-33849D01*
X49426Y-33755D01*
X49426Y-27066D01*
X49504Y-26988D01*
X49680Y-26988D01*
X49775Y-26969D01*
X49775Y-26969D01*
X49855Y-26915D01*
X51198Y-25573D01*
X51251Y-25493D01*
X51251Y-25493D01*
X51270Y-25398D01*
X51270Y-25338D01*
X51482Y-25338D01*
X51529Y-25318D01*
X51565Y-25282D01*
X51585Y-25235D01*
X51585Y-25183D01*
X51585Y-24583D01*
X51565Y-24536D01*
X51529Y-24500D01*
X51482Y-24480D01*
X51431Y-24480D01*
X50565Y-24480D01*
X50517Y-24500D01*
X50481Y-24536D01*
X50461Y-24583D01*
X50461Y-24635D01*
X50461Y-25235D01*
X50481Y-25282D01*
X50517Y-25318D01*
X50565Y-25338D01*
X50616Y-25338D01*
X50734Y-25338D01*
X49589Y-26483D01*
X49539Y-26362D01*
X49392Y-26215D01*
X49200Y-26135D01*
X48992Y-26135D01*
X48800Y-26214D01*
X48653Y-26361D01*
X48573Y-26553D01*
X48573Y-26761D01*
X48652Y-26953D01*
X48799Y-27100D01*
X48932Y-27155D01*
X48932Y-33652D01*
X48508Y-34077D01*
X48459Y-34057D01*
X48251Y-34057D01*
X48059Y-34136D01*
X47912Y-34283D01*
X47856Y-34419D01*
X47856Y-26906D01*
X47788Y-26743D01*
X47664Y-26618D01*
X47501Y-26550D01*
X47324Y-26550D01*
X47161Y-26618D01*
X47074Y-26705D01*
X46810Y-26442D01*
X46749Y-26401D01*
X46678Y-26387D01*
X46676Y-26387D01*
X46676Y-26116D01*
X46657Y-26068D01*
X46620Y-26032D01*
X46573Y-26013D01*
X46522Y-26013D01*
X45922Y-26013D01*
X45875Y-26032D01*
X45838Y-26068D01*
X45819Y-26116D01*
X45819Y-26167D01*
X45819Y-27033D01*
X45838Y-27080D01*
X45875Y-27116D01*
X45922Y-27136D01*
X45973Y-27136D01*
X46573Y-27136D01*
X46620Y-27116D01*
X46657Y-27080D01*
X46676Y-27033D01*
X46676Y-26982D01*
X46676Y-26839D01*
X46964Y-27127D01*
X46995Y-27147D01*
X47035Y-27245D01*
X47160Y-27370D01*
X47323Y-27438D01*
X47500Y-27438D01*
X47663Y-27370D01*
X47788Y-27246D01*
X47855Y-27083D01*
X47856Y-26906D01*
X47856Y-34419D01*
X47832Y-34475D01*
X47832Y-34683D01*
X47911Y-34875D01*
X47999Y-34963D01*
X47503Y-35459D01*
X47503Y-35289D01*
X47483Y-35242D01*
X47447Y-35205D01*
X47400Y-35186D01*
X47349Y-35186D01*
X46749Y-35186D01*
X46701Y-35205D01*
X46665Y-35242D01*
X46646Y-35289D01*
X46646Y-35340D01*
X46646Y-36206D01*
X46665Y-36253D01*
X46701Y-36290D01*
X46749Y-36309D01*
X46800Y-36309D01*
X47358Y-36309D01*
X46503Y-37164D01*
X46503Y-35892D01*
X46503Y-35604D01*
X46470Y-35439D01*
X46377Y-35300D01*
X46262Y-35223D01*
X46262Y-35042D01*
X46248Y-34970D01*
X46207Y-34909D01*
X46125Y-34827D01*
X46152Y-34764D01*
X46152Y-34587D01*
X46084Y-34424D01*
X45960Y-34299D01*
X45797Y-34232D01*
X45707Y-34232D01*
X45707Y-27524D01*
X45640Y-27361D01*
X45515Y-27236D01*
X45435Y-27203D01*
X45435Y-27099D01*
X45551Y-27021D01*
X45644Y-26882D01*
X45676Y-26718D01*
X45676Y-26430D01*
X45644Y-26266D01*
X45551Y-26127D01*
X45412Y-26034D01*
X45248Y-26002D01*
X45083Y-26034D01*
X44944Y-26127D01*
X44851Y-26266D01*
X44819Y-26430D01*
X44819Y-26718D01*
X44851Y-26882D01*
X44944Y-27021D01*
X45060Y-27099D01*
X45060Y-27216D01*
X45013Y-27236D01*
X44888Y-27361D01*
X44820Y-27524D01*
X44820Y-27700D01*
X44887Y-27863D01*
X45012Y-27988D01*
X45175Y-28056D01*
X45351Y-28056D01*
X45515Y-27989D01*
X45639Y-27864D01*
X45707Y-27701D01*
X45707Y-27524D01*
X45707Y-34232D01*
X45620Y-34231D01*
X45457Y-34299D01*
X45332Y-34424D01*
X45264Y-34587D01*
X45264Y-34763D01*
X45332Y-34926D01*
X45456Y-35051D01*
X45619Y-35119D01*
X45796Y-35119D01*
X45860Y-35093D01*
X45887Y-35119D01*
X45887Y-35223D01*
X45771Y-35300D01*
X45678Y-35439D01*
X45646Y-35604D01*
X45646Y-35892D01*
X45678Y-36056D01*
X45771Y-36195D01*
X45910Y-36288D01*
X46074Y-36320D01*
X46238Y-36288D01*
X46377Y-36195D01*
X46470Y-36056D01*
X46503Y-35892D01*
X46503Y-37164D01*
X44362Y-39305D01*
X44322Y-39366D01*
X44307Y-39438D01*
X44307Y-42371D01*
X44244Y-42397D01*
X44119Y-42522D01*
X44052Y-42685D01*
X44051Y-42862D01*
X44119Y-43025D01*
X44244Y-43150D01*
X44407Y-43217D01*
X44583Y-43217D01*
X44746Y-43150D01*
X44871Y-43025D01*
X44939Y-42862D01*
X44939Y-42686D01*
X44872Y-42523D01*
X44747Y-42398D01*
X44683Y-42371D01*
X44683Y-39515D01*
X48616Y-35582D01*
X48616Y-35977D01*
X48631Y-36048D01*
X48671Y-36109D01*
X49706Y-37145D01*
X49767Y-37185D01*
X49839Y-37200D01*
X51203Y-37200D01*
X51229Y-37263D01*
X51354Y-37388D01*
X51517Y-37455D01*
X51694Y-37456D01*
X51857Y-37388D01*
X51982Y-37263D01*
X52049Y-37100D01*
X52050Y-36924D01*
X51982Y-36761D01*
X51873Y-36652D01*
X51918Y-36622D01*
X53638Y-34902D01*
X53701Y-34928D01*
X53878Y-34929D01*
X54041Y-34861D01*
X54049Y-34853D01*
X54049Y-42982D01*
X54063Y-43054D01*
X54104Y-43114D01*
X54300Y-43311D01*
X54274Y-43374D01*
X54274Y-43550D01*
X54341Y-43714D01*
X54466Y-43838D01*
X54629Y-43906D01*
X54805Y-43906D01*
X54968Y-43839D01*
X55093Y-43714D01*
X55161Y-43551D01*
X55161Y-43375D01*
X55094Y-43211D01*
X54969Y-43087D01*
X54806Y-43019D01*
X54629Y-43019D01*
X54566Y-43045D01*
X54424Y-42904D01*
X54424Y-37317D01*
X54450Y-37343D01*
X54485Y-37357D01*
X54485Y-38184D01*
X54499Y-38256D01*
X54540Y-38317D01*
X54732Y-38509D01*
X54768Y-38533D01*
X54696Y-38643D01*
X54663Y-38807D01*
X54696Y-38971D01*
X54789Y-39110D01*
X54928Y-39203D01*
X55092Y-39235D01*
X55380Y-39235D01*
X55544Y-39203D01*
X55683Y-39110D01*
X55776Y-38971D01*
X55808Y-38807D01*
X55776Y-38643D01*
X55683Y-38503D01*
X55544Y-38410D01*
X55424Y-38387D01*
X55424Y-38377D01*
X55409Y-38305D01*
X55369Y-38244D01*
X55356Y-38235D01*
X55694Y-38235D01*
X55742Y-38216D01*
X55778Y-38180D01*
X55797Y-38132D01*
X55797Y-38081D01*
X55797Y-37564D01*
X56564Y-37564D01*
X56593Y-37593D01*
X56756Y-37661D01*
X56932Y-37661D01*
X57095Y-37594D01*
X57220Y-37469D01*
X57288Y-37306D01*
X57288Y-37130D01*
X57221Y-36966D01*
X57096Y-36842D01*
X56933Y-36774D01*
X56756Y-36774D01*
X56593Y-36841D01*
X56468Y-36966D01*
X56401Y-37129D01*
X56401Y-37189D01*
X55236Y-37189D01*
X55164Y-37203D01*
X55103Y-37244D01*
X55062Y-37305D01*
X55048Y-37377D01*
X55048Y-37378D01*
X54869Y-37378D01*
X54953Y-37343D01*
X55078Y-37218D01*
X55145Y-37055D01*
X55146Y-36879D01*
X55078Y-36716D01*
X54953Y-36591D01*
X54790Y-36523D01*
X54614Y-36523D01*
X54451Y-36590D01*
X54424Y-36617D01*
X54424Y-34217D01*
X54761Y-33881D01*
X54824Y-33907D01*
X55000Y-33907D01*
X55164Y-33840D01*
X55289Y-33715D01*
X55356Y-33552D01*
X55356Y-33376D01*
X55289Y-33213D01*
X55200Y-33123D01*
X56800Y-33123D01*
X56800Y-33691D01*
X56820Y-33739D01*
X56856Y-33775D01*
X56903Y-33794D01*
X56954Y-33794D01*
X57820Y-33794D01*
X57868Y-33775D01*
X57904Y-33739D01*
X57923Y-33691D01*
X57923Y-33640D01*
X57923Y-33040D01*
X57904Y-32993D01*
X57868Y-32957D01*
X57820Y-32937D01*
X57769Y-32937D01*
X57550Y-32937D01*
X57550Y-32936D01*
X57535Y-32864D01*
X57494Y-32803D01*
X57482Y-32794D01*
X57506Y-32794D01*
X57670Y-32762D01*
X57809Y-32669D01*
X57902Y-32530D01*
X57934Y-32366D01*
X57902Y-32202D01*
X57809Y-32062D01*
X57670Y-31970D01*
X57550Y-31946D01*
X57550Y-31936D01*
X57545Y-31915D01*
X57751Y-31855D01*
X57919Y-31719D01*
X58020Y-31533D01*
X58020Y-47919D01*
X58020Y-47919D01*
G37*
G54D20*
X58020Y-47919D02*
X57813Y-47712D01*
X57419Y-47548D01*
X56992Y-47547D01*
X56597Y-47711D01*
X56294Y-48012D01*
X56130Y-48407D01*
X56130Y-48834D01*
X56293Y-49229D01*
X56423Y-49359D01*
X50167Y-49359D01*
X50188Y-49344D01*
X50281Y-49205D01*
X50314Y-49041D01*
X50314Y-48753D01*
X50281Y-48589D01*
X50188Y-48450D01*
X50049Y-48357D01*
X49885Y-48324D01*
X49721Y-48357D01*
X49582Y-48450D01*
X49489Y-48589D01*
X49457Y-48753D01*
X49457Y-49041D01*
X49489Y-49205D01*
X49582Y-49344D01*
X49604Y-49359D01*
X49167Y-49359D01*
X49188Y-49344D01*
X49281Y-49205D01*
X49314Y-49041D01*
X49314Y-48753D01*
X49281Y-48589D01*
X49188Y-48450D01*
X49049Y-48357D01*
X48885Y-48324D01*
X48721Y-48357D01*
X48582Y-48450D01*
X48489Y-48589D01*
X48457Y-48753D01*
X48457Y-49041D01*
X48489Y-49205D01*
X48582Y-49344D01*
X48604Y-49359D01*
X48167Y-49359D01*
X48188Y-49344D01*
X48281Y-49205D01*
X48314Y-49041D01*
X48314Y-48753D01*
X48281Y-48589D01*
X48188Y-48450D01*
X48049Y-48357D01*
X47885Y-48324D01*
X47721Y-48357D01*
X47582Y-48450D01*
X47489Y-48589D01*
X47457Y-48753D01*
X47457Y-49041D01*
X47489Y-49205D01*
X47582Y-49344D01*
X47604Y-49359D01*
X47313Y-49359D01*
X47314Y-49356D01*
X47314Y-49305D01*
X47314Y-48439D01*
X47294Y-48391D01*
X47258Y-48355D01*
X47211Y-48335D01*
X47160Y-48335D01*
X46560Y-48335D01*
X46512Y-48355D01*
X46476Y-48391D01*
X46457Y-48439D01*
X46457Y-48490D01*
X46457Y-49356D01*
X46458Y-49359D01*
X44364Y-49359D01*
X44492Y-49231D01*
X44656Y-48836D01*
X44656Y-48409D01*
X44493Y-48014D01*
X44191Y-47712D01*
X43797Y-47548D01*
X43369Y-47547D01*
X42975Y-47711D01*
X42766Y-47919D01*
X42766Y-46253D01*
X42781Y-46275D01*
X42920Y-46368D01*
X43084Y-46401D01*
X43372Y-46401D01*
X43536Y-46368D01*
X43675Y-46275D01*
X43768Y-46136D01*
X43801Y-45972D01*
X43768Y-45808D01*
X43695Y-45699D01*
X43731Y-45675D01*
X44519Y-44887D01*
X44571Y-44887D01*
X44734Y-44820D01*
X44859Y-44695D01*
X44926Y-44532D01*
X44926Y-44356D01*
X44859Y-44193D01*
X44747Y-44080D01*
X44860Y-43967D01*
X44928Y-43804D01*
X44928Y-43628D01*
X44861Y-43464D01*
X44736Y-43340D01*
X44573Y-43272D01*
X44396Y-43272D01*
X44233Y-43339D01*
X44108Y-43464D01*
X44041Y-43627D01*
X44041Y-43803D01*
X44067Y-43867D01*
X43580Y-44354D01*
X43228Y-44354D01*
X43156Y-44368D01*
X43095Y-44409D01*
X43054Y-44470D01*
X43040Y-44542D01*
X43040Y-44543D01*
X42769Y-44543D01*
X42766Y-44545D01*
X42766Y-43950D01*
X42781Y-43972D01*
X42920Y-44065D01*
X43084Y-44098D01*
X43372Y-44098D01*
X43536Y-44065D01*
X43675Y-43972D01*
X43768Y-43833D01*
X43801Y-43669D01*
X43768Y-43505D01*
X43675Y-43366D01*
X43536Y-43273D01*
X43372Y-43240D01*
X43084Y-43240D01*
X42920Y-43273D01*
X42781Y-43366D01*
X42766Y-43388D01*
X42766Y-42950D01*
X42781Y-42972D01*
X42920Y-43065D01*
X43084Y-43098D01*
X43372Y-43098D01*
X43536Y-43065D01*
X43675Y-42972D01*
X43768Y-42833D01*
X43801Y-42669D01*
X43768Y-42505D01*
X43675Y-42366D01*
X43536Y-42273D01*
X43372Y-42240D01*
X43084Y-42240D01*
X42920Y-42273D01*
X42781Y-42366D01*
X42766Y-42388D01*
X42766Y-41950D01*
X42781Y-41972D01*
X42920Y-42065D01*
X43084Y-42098D01*
X43372Y-42098D01*
X43536Y-42065D01*
X43675Y-41972D01*
X43768Y-41833D01*
X43801Y-41669D01*
X43768Y-41505D01*
X43675Y-41366D01*
X43536Y-41273D01*
X43372Y-41240D01*
X43084Y-41240D01*
X42920Y-41273D01*
X42781Y-41366D01*
X42766Y-41388D01*
X42766Y-40950D01*
X42781Y-40972D01*
X42920Y-41065D01*
X43084Y-41098D01*
X43372Y-41098D01*
X43536Y-41065D01*
X43675Y-40972D01*
X43768Y-40833D01*
X43801Y-40669D01*
X43768Y-40505D01*
X43675Y-40366D01*
X43536Y-40273D01*
X43372Y-40240D01*
X43084Y-40240D01*
X42920Y-40273D01*
X42781Y-40366D01*
X42766Y-40388D01*
X42766Y-39950D01*
X42781Y-39972D01*
X42920Y-40065D01*
X43084Y-40098D01*
X43372Y-40098D01*
X43536Y-40065D01*
X43675Y-39972D01*
X43768Y-39833D01*
X43801Y-39669D01*
X43768Y-39505D01*
X43675Y-39366D01*
X43536Y-39273D01*
X43372Y-39240D01*
X43084Y-39240D01*
X42920Y-39273D01*
X42781Y-39366D01*
X42766Y-39388D01*
X42766Y-38950D01*
X42781Y-38972D01*
X42920Y-39065D01*
X43084Y-39098D01*
X43372Y-39098D01*
X43536Y-39065D01*
X43675Y-38972D01*
X43768Y-38833D01*
X43801Y-38669D01*
X43768Y-38505D01*
X43675Y-38366D01*
X43536Y-38273D01*
X43372Y-38240D01*
X43084Y-38240D01*
X42920Y-38273D01*
X42781Y-38366D01*
X42766Y-38388D01*
X42766Y-38096D01*
X42769Y-38098D01*
X42820Y-38098D01*
X43686Y-38098D01*
X43734Y-38078D01*
X43770Y-38042D01*
X43790Y-37994D01*
X43790Y-37943D01*
X43790Y-37343D01*
X43770Y-37296D01*
X43734Y-37260D01*
X43686Y-37240D01*
X43635Y-37240D01*
X42769Y-37240D01*
X42766Y-37241D01*
X42766Y-22238D01*
X42934Y-22406D01*
X43328Y-22569D01*
X43756Y-22570D01*
X44150Y-22407D01*
X44453Y-22105D01*
X44617Y-21710D01*
X44617Y-21283D01*
X44454Y-20888D01*
X44285Y-20719D01*
X56502Y-20719D01*
X56334Y-20886D01*
X56170Y-21281D01*
X56169Y-21708D01*
X56333Y-22103D01*
X56634Y-22406D01*
X57029Y-22569D01*
X57456Y-22570D01*
X57851Y-22407D01*
X58020Y-22238D01*
X58020Y-31198D01*
X57934Y-31041D01*
X57934Y-30366D01*
X57934Y-29366D01*
X57934Y-28366D01*
X57902Y-28202D01*
X57809Y-28062D01*
X57670Y-27970D01*
X57506Y-27937D01*
X57218Y-27937D01*
X57054Y-27970D01*
X56915Y-28062D01*
X56822Y-28202D01*
X56789Y-28366D01*
X56822Y-28530D01*
X56915Y-28669D01*
X57054Y-28762D01*
X57218Y-28794D01*
X57506Y-28794D01*
X57670Y-28762D01*
X57809Y-28669D01*
X57902Y-28530D01*
X57934Y-28366D01*
X57934Y-29366D01*
X57902Y-29202D01*
X57809Y-29062D01*
X57670Y-28970D01*
X57506Y-28937D01*
X57218Y-28937D01*
X57054Y-28970D01*
X56915Y-29062D01*
X56822Y-29202D01*
X56789Y-29366D01*
X56822Y-29530D01*
X56915Y-29669D01*
X57054Y-29762D01*
X57218Y-29794D01*
X57506Y-29794D01*
X57670Y-29762D01*
X57809Y-29669D01*
X57902Y-29530D01*
X57934Y-29366D01*
X57934Y-30366D01*
X57902Y-30202D01*
X57809Y-30062D01*
X57670Y-29970D01*
X57506Y-29937D01*
X57218Y-29937D01*
X57054Y-29970D01*
X56915Y-30062D01*
X56822Y-30202D01*
X56789Y-30366D01*
X56822Y-30530D01*
X56915Y-30669D01*
X57054Y-30762D01*
X57218Y-30794D01*
X57506Y-30794D01*
X57670Y-30762D01*
X57809Y-30669D01*
X57902Y-30530D01*
X57934Y-30366D01*
X57934Y-31041D01*
X57919Y-31012D01*
X57751Y-30877D01*
X57545Y-30816D01*
X57412Y-30816D01*
X57412Y-31316D01*
X57420Y-31316D01*
X57420Y-31416D01*
X57412Y-31416D01*
X57412Y-31424D01*
X57312Y-31424D01*
X57312Y-31416D01*
X57304Y-31416D01*
X57304Y-31316D01*
X57312Y-31316D01*
X57312Y-30816D01*
X57179Y-30816D01*
X56972Y-30877D01*
X56804Y-31012D01*
X56701Y-31201D01*
X56696Y-31231D01*
X56744Y-31316D01*
X56679Y-31316D01*
X56679Y-31326D01*
X55079Y-29726D01*
X55079Y-29480D01*
X55065Y-29408D01*
X55062Y-29404D01*
X55093Y-29327D01*
X55093Y-29151D01*
X55067Y-29087D01*
X56892Y-27262D01*
X56933Y-27201D01*
X56933Y-27201D01*
X56947Y-27129D01*
X56947Y-25601D01*
X57085Y-25601D01*
X57132Y-25581D01*
X57168Y-25545D01*
X57188Y-25497D01*
X57188Y-25446D01*
X57188Y-24580D01*
X57168Y-24533D01*
X57132Y-24497D01*
X57085Y-24477D01*
X57034Y-24477D01*
X56434Y-24477D01*
X56386Y-24497D01*
X56350Y-24533D01*
X56331Y-24580D01*
X56331Y-24631D01*
X56331Y-25497D01*
X56350Y-25545D01*
X56386Y-25581D01*
X56434Y-25601D01*
X56485Y-25601D01*
X56572Y-25601D01*
X56572Y-27051D01*
X56188Y-27435D01*
X56188Y-25183D01*
X56188Y-24895D01*
X56155Y-24731D01*
X56063Y-24592D01*
X55923Y-24499D01*
X55759Y-24466D01*
X55595Y-24499D01*
X55456Y-24592D01*
X55363Y-24731D01*
X55339Y-24851D01*
X55285Y-24851D01*
X55259Y-24788D01*
X55134Y-24663D01*
X54971Y-24595D01*
X54795Y-24595D01*
X54632Y-24662D01*
X54507Y-24787D01*
X54439Y-24950D01*
X54439Y-25127D01*
X54506Y-25290D01*
X54631Y-25415D01*
X54794Y-25482D01*
X54970Y-25483D01*
X55134Y-25415D01*
X55259Y-25291D01*
X55285Y-25227D01*
X55339Y-25227D01*
X55363Y-25347D01*
X55456Y-25486D01*
X55595Y-25579D01*
X55759Y-25612D01*
X55923Y-25579D01*
X56063Y-25486D01*
X56155Y-25347D01*
X56188Y-25183D01*
X56188Y-27435D01*
X54802Y-28821D01*
X54738Y-28795D01*
X54562Y-28795D01*
X54399Y-28862D01*
X54274Y-28987D01*
X54206Y-29150D01*
X54206Y-29327D01*
X54273Y-29490D01*
X54398Y-29615D01*
X54561Y-29682D01*
X54703Y-29682D01*
X54703Y-29726D01*
X53700Y-30730D01*
X53700Y-23447D01*
X53632Y-23284D01*
X53508Y-23159D01*
X53344Y-23092D01*
X53168Y-23092D01*
X53005Y-23159D01*
X52880Y-23284D01*
X52853Y-23347D01*
X51960Y-23347D01*
X51888Y-23362D01*
X51827Y-23402D01*
X51532Y-23698D01*
X51470Y-23606D01*
X51331Y-23513D01*
X51167Y-23480D01*
X50879Y-23480D01*
X50715Y-23513D01*
X50576Y-23606D01*
X50483Y-23745D01*
X50450Y-23909D01*
X50483Y-24073D01*
X50576Y-24212D01*
X50715Y-24305D01*
X50879Y-24338D01*
X51167Y-24338D01*
X51331Y-24305D01*
X51470Y-24212D01*
X51547Y-24097D01*
X51586Y-24097D01*
X51658Y-24082D01*
X51719Y-24042D01*
X52038Y-23723D01*
X52853Y-23723D01*
X52879Y-23786D01*
X53004Y-23911D01*
X53167Y-23979D01*
X53344Y-23979D01*
X53507Y-23912D01*
X53632Y-23787D01*
X53699Y-23624D01*
X53700Y-23447D01*
X53700Y-30730D01*
X53389Y-31041D01*
X53408Y-31012D01*
X53422Y-30941D01*
X53422Y-30481D01*
X53485Y-30455D01*
X53610Y-30330D01*
X53678Y-30167D01*
X53678Y-29990D01*
X53611Y-29827D01*
X53486Y-29702D01*
X53323Y-29635D01*
X53146Y-29634D01*
X52983Y-29702D01*
X52858Y-29826D01*
X52791Y-29990D01*
X52791Y-30166D01*
X52858Y-30329D01*
X52983Y-30454D01*
X53047Y-30481D01*
X53047Y-30863D01*
X52758Y-31151D01*
X52758Y-31140D01*
X52691Y-30976D01*
X52566Y-30851D01*
X52403Y-30784D01*
X52227Y-30784D01*
X52064Y-30851D01*
X51939Y-30976D01*
X51871Y-31139D01*
X51871Y-31315D01*
X51897Y-31379D01*
X51325Y-31951D01*
X51285Y-32012D01*
X51270Y-32084D01*
X51270Y-32397D01*
X48801Y-34866D01*
X48877Y-34684D01*
X48877Y-34476D01*
X48857Y-34426D01*
X49354Y-33929D01*
X49407Y-33849D01*
X49407Y-33849D01*
X49426Y-33755D01*
X49426Y-27066D01*
X49504Y-26988D01*
X49680Y-26988D01*
X49775Y-26969D01*
X49775Y-26969D01*
X49855Y-26915D01*
X51198Y-25573D01*
X51251Y-25493D01*
X51251Y-25493D01*
X51270Y-25398D01*
X51270Y-25338D01*
X51482Y-25338D01*
X51529Y-25318D01*
X51565Y-25282D01*
X51585Y-25235D01*
X51585Y-25183D01*
X51585Y-24583D01*
X51565Y-24536D01*
X51529Y-24500D01*
X51482Y-24480D01*
X51431Y-24480D01*
X50565Y-24480D01*
X50517Y-24500D01*
X50481Y-24536D01*
X50461Y-24583D01*
X50461Y-24635D01*
X50461Y-25235D01*
X50481Y-25282D01*
X50517Y-25318D01*
X50565Y-25338D01*
X50616Y-25338D01*
X50734Y-25338D01*
X49589Y-26483D01*
X49539Y-26362D01*
X49392Y-26215D01*
X49200Y-26135D01*
X48992Y-26135D01*
X48800Y-26214D01*
X48653Y-26361D01*
X48573Y-26553D01*
X48573Y-26761D01*
X48652Y-26953D01*
X48799Y-27100D01*
X48932Y-27155D01*
X48932Y-33652D01*
X48508Y-34077D01*
X48459Y-34057D01*
X48251Y-34057D01*
X48059Y-34136D01*
X47912Y-34283D01*
X47856Y-34419D01*
X47856Y-26906D01*
X47788Y-26743D01*
X47664Y-26618D01*
X47501Y-26550D01*
X47324Y-26550D01*
X47161Y-26618D01*
X47074Y-26705D01*
X46810Y-26442D01*
X46749Y-26401D01*
X46678Y-26387D01*
X46676Y-26387D01*
X46676Y-26116D01*
X46657Y-26068D01*
X46620Y-26032D01*
X46573Y-26013D01*
X46522Y-26013D01*
X45922Y-26013D01*
X45875Y-26032D01*
X45838Y-26068D01*
X45819Y-26116D01*
X45819Y-26167D01*
X45819Y-27033D01*
X45838Y-27080D01*
X45875Y-27116D01*
X45922Y-27136D01*
X45973Y-27136D01*
X46573Y-27136D01*
X46620Y-27116D01*
X46657Y-27080D01*
X46676Y-27033D01*
X46676Y-26982D01*
X46676Y-26839D01*
X46964Y-27127D01*
X46995Y-27147D01*
X47035Y-27245D01*
X47160Y-27370D01*
X47323Y-27438D01*
X47500Y-27438D01*
X47663Y-27370D01*
X47788Y-27246D01*
X47855Y-27083D01*
X47856Y-26906D01*
X47856Y-34419D01*
X47832Y-34475D01*
X47832Y-34683D01*
X47911Y-34875D01*
X47999Y-34963D01*
X47503Y-35459D01*
X47503Y-35289D01*
X47483Y-35242D01*
X47447Y-35205D01*
X47400Y-35186D01*
X47349Y-35186D01*
X46749Y-35186D01*
X46701Y-35205D01*
X46665Y-35242D01*
X46646Y-35289D01*
X46646Y-35340D01*
X46646Y-36206D01*
X46665Y-36253D01*
X46701Y-36290D01*
X46749Y-36309D01*
X46800Y-36309D01*
X47358Y-36309D01*
X46503Y-37164D01*
X46503Y-35892D01*
X46503Y-35604D01*
X46470Y-35439D01*
X46377Y-35300D01*
X46262Y-35223D01*
X46262Y-35042D01*
X46248Y-34970D01*
X46207Y-34909D01*
X46125Y-34827D01*
X46152Y-34764D01*
X46152Y-34587D01*
X46084Y-34424D01*
X45960Y-34299D01*
X45797Y-34232D01*
X45707Y-34232D01*
X45707Y-27524D01*
X45640Y-27361D01*
X45515Y-27236D01*
X45435Y-27203D01*
X45435Y-27099D01*
X45551Y-27021D01*
X45644Y-26882D01*
X45676Y-26718D01*
X45676Y-26430D01*
X45644Y-26266D01*
X45551Y-26127D01*
X45412Y-26034D01*
X45248Y-26002D01*
X45083Y-26034D01*
X44944Y-26127D01*
X44851Y-26266D01*
X44819Y-26430D01*
X44819Y-26718D01*
X44851Y-26882D01*
X44944Y-27021D01*
X45060Y-27099D01*
X45060Y-27216D01*
X45013Y-27236D01*
X44888Y-27361D01*
X44820Y-27524D01*
X44820Y-27700D01*
X44887Y-27863D01*
X45012Y-27988D01*
X45175Y-28056D01*
X45351Y-28056D01*
X45515Y-27989D01*
X45639Y-27864D01*
X45707Y-27701D01*
X45707Y-27524D01*
X45707Y-34232D01*
X45620Y-34231D01*
X45457Y-34299D01*
X45332Y-34424D01*
X45264Y-34587D01*
X45264Y-34763D01*
X45332Y-34926D01*
X45456Y-35051D01*
X45619Y-35119D01*
X45796Y-35119D01*
X45860Y-35093D01*
X45887Y-35119D01*
X45887Y-35223D01*
X45771Y-35300D01*
X45678Y-35439D01*
X45646Y-35604D01*
X45646Y-35892D01*
X45678Y-36056D01*
X45771Y-36195D01*
X45910Y-36288D01*
X46074Y-36320D01*
X46238Y-36288D01*
X46377Y-36195D01*
X46470Y-36056D01*
X46503Y-35892D01*
X46503Y-37164D01*
X44362Y-39305D01*
X44322Y-39366D01*
X44307Y-39438D01*
X44307Y-42371D01*
X44244Y-42397D01*
X44119Y-42522D01*
X44052Y-42685D01*
X44051Y-42862D01*
X44119Y-43025D01*
X44244Y-43150D01*
X44407Y-43217D01*
X44583Y-43217D01*
X44746Y-43150D01*
X44871Y-43025D01*
X44939Y-42862D01*
X44939Y-42686D01*
X44872Y-42523D01*
X44747Y-42398D01*
X44683Y-42371D01*
X44683Y-39515D01*
X48616Y-35582D01*
X48616Y-35977D01*
X48631Y-36048D01*
X48671Y-36109D01*
X49706Y-37145D01*
X49767Y-37185D01*
X49839Y-37200D01*
X51203Y-37200D01*
X51229Y-37263D01*
X51354Y-37388D01*
X51517Y-37455D01*
X51694Y-37456D01*
X51857Y-37388D01*
X51982Y-37263D01*
X52049Y-37100D01*
X52050Y-36924D01*
X51982Y-36761D01*
X51873Y-36652D01*
X51918Y-36622D01*
X53638Y-34902D01*
X53701Y-34928D01*
X53878Y-34929D01*
X54041Y-34861D01*
X54049Y-34853D01*
X54049Y-42982D01*
X54063Y-43054D01*
X54104Y-43114D01*
X54300Y-43311D01*
X54274Y-43374D01*
X54274Y-43550D01*
X54341Y-43714D01*
X54466Y-43838D01*
X54629Y-43906D01*
X54805Y-43906D01*
X54968Y-43839D01*
X55093Y-43714D01*
X55161Y-43551D01*
X55161Y-43375D01*
X55094Y-43211D01*
X54969Y-43087D01*
X54806Y-43019D01*
X54629Y-43019D01*
X54566Y-43045D01*
X54424Y-42904D01*
X54424Y-37317D01*
X54450Y-37343D01*
X54485Y-37357D01*
X54485Y-38184D01*
X54499Y-38256D01*
X54540Y-38317D01*
X54732Y-38509D01*
X54768Y-38533D01*
X54696Y-38643D01*
X54663Y-38807D01*
X54696Y-38971D01*
X54789Y-39110D01*
X54928Y-39203D01*
X55092Y-39235D01*
X55380Y-39235D01*
X55544Y-39203D01*
X55683Y-39110D01*
X55776Y-38971D01*
X55808Y-38807D01*
X55776Y-38643D01*
X55683Y-38503D01*
X55544Y-38410D01*
X55424Y-38387D01*
X55424Y-38377D01*
X55409Y-38305D01*
X55369Y-38244D01*
X55356Y-38235D01*
X55694Y-38235D01*
X55742Y-38216D01*
X55778Y-38180D01*
X55797Y-38132D01*
X55797Y-38081D01*
X55797Y-37564D01*
X56564Y-37564D01*
X56593Y-37593D01*
X56756Y-37661D01*
X56932Y-37661D01*
X57095Y-37594D01*
X57220Y-37469D01*
X57288Y-37306D01*
X57288Y-37130D01*
X57221Y-36966D01*
X57096Y-36842D01*
X56933Y-36774D01*
X56756Y-36774D01*
X56593Y-36841D01*
X56468Y-36966D01*
X56401Y-37129D01*
X56401Y-37189D01*
X55236Y-37189D01*
X55164Y-37203D01*
X55103Y-37244D01*
X55062Y-37305D01*
X55048Y-37377D01*
X55048Y-37378D01*
X54869Y-37378D01*
X54953Y-37343D01*
X55078Y-37218D01*
X55145Y-37055D01*
X55146Y-36879D01*
X55078Y-36716D01*
X54953Y-36591D01*
X54790Y-36523D01*
X54614Y-36523D01*
X54451Y-36590D01*
X54424Y-36617D01*
X54424Y-34217D01*
X54761Y-33881D01*
X54824Y-33907D01*
X55000Y-33907D01*
X55164Y-33840D01*
X55289Y-33715D01*
X55356Y-33552D01*
X55356Y-33376D01*
X55289Y-33213D01*
X55200Y-33123D01*
X56800Y-33123D01*
X56800Y-33691D01*
X56820Y-33739D01*
X56856Y-33775D01*
X56903Y-33794D01*
X56954Y-33794D01*
X57820Y-33794D01*
X57868Y-33775D01*
X57904Y-33739D01*
X57923Y-33691D01*
X57923Y-33640D01*
X57923Y-33040D01*
X57904Y-32993D01*
X57868Y-32957D01*
X57820Y-32937D01*
X57769Y-32937D01*
X57550Y-32937D01*
X57550Y-32936D01*
X57535Y-32864D01*
X57494Y-32803D01*
X57482Y-32794D01*
X57506Y-32794D01*
X57670Y-32762D01*
X57809Y-32669D01*
X57902Y-32530D01*
X57934Y-32366D01*
X57902Y-32202D01*
X57809Y-32062D01*
X57670Y-31970D01*
X57550Y-31946D01*
X57550Y-31936D01*
X57545Y-31915D01*
X57751Y-31855D01*
X57919Y-31719D01*
X58020Y-31533D01*
X58020Y-47919D01*
M02*
