M48
;DRILL file {Pcbnew (2013-mar-13)-testing} date Wed 06 Nov 2013 09:32:59 AM CET
;FORMAT={-:-/ absolute / inch / decimal}
FMAT,2
INCH,TZ
T1C0.024
T2C0.035
T3C0.039
T4C0.059
%
G90
G05
M72
T1
X4.4483Y-4.4444
X4.4485Y-4.3716
X4.4496Y-4.2774
X4.5264Y-2.7613
X4.5709Y-3.4676
X4.7412Y-2.6994
X4.9254Y-3.5763
X5.0106Y-3.649
X5.0781Y-3.5961
X5.1606Y-3.7012
X5.2315Y-3.1228
X5.2437Y-3.2307
X5.3235Y-3.0079
X5.3256Y-2.3536
X5.379Y-3.4485
X5.3981Y-3.3468
X5.465Y-2.9239
X5.4702Y-3.6967
X5.4718Y-4.3463
X5.4883Y-2.5039
X5.4913Y-3.3464
X5.5239Y-3.5846
X5.6845Y-3.7218
T2
X4.8355Y-3.458
X4.9096Y-2.6658
T3
X4.3228Y-3.7669
X4.3228Y-3.8669
X4.3228Y-3.9669
X4.3228Y-4.0669
X4.3228Y-4.1669
X4.3228Y-4.2669
X4.3228Y-4.3669
X4.3228Y-4.4972
X4.3228Y-4.5972
X4.5248Y-2.6575
X4.6075Y-3.5748
X4.6248Y-2.6575
X4.6886Y-4.8898
X4.7075Y-3.5748
X4.7886Y-4.8898
X4.8886Y-4.8898
X4.9886Y-4.8898
X5.1024Y-2.3909
X5.1024Y-2.4909
X5.5236Y-3.7807
X5.5236Y-3.8807
X5.576Y-2.5039
X5.676Y-2.5039
X5.7362Y-2.8366
X5.7362Y-2.9366
X5.7362Y-3.0366
X5.7362Y-3.1366
X5.7362Y-3.2366
X5.7362Y-3.3366
T4
X4.3543Y-2.1496
X4.3583Y-4.8622
X5.7205Y-4.8622
X5.7244Y-2.1496
T0
M30
