G04 (created by PCBNEW (2013-mar-13)-testing) date Wed 06 Nov 2013 09:32:46 AM CET*
%MOIN*%
G04 Gerber Fmt 3.4, Leading zero omitted, Abs format*
%FSLAX34Y34*%
G01*
G70*
G90*
G04 APERTURE LIST*
%ADD10C,0.005906*%
%ADD11R,0.025000X0.045000*%
%ADD12R,0.045000X0.025000*%
%ADD13R,0.080000X0.060000*%
%ADD14R,0.062900X0.070900*%
%ADD15R,0.051181X0.196850*%
%ADD16R,0.059055X0.196850*%
%ADD17R,0.060000X0.086600*%
%ADD18O,0.060000X0.086600*%
%ADD19R,0.086600X0.060000*%
%ADD20O,0.086600X0.060000*%
%ADD21R,0.080000X0.030000*%
%ADD22R,0.030000X0.080000*%
%ADD23R,0.031400X0.088600*%
%ADD24R,0.088600X0.031400*%
%ADD25R,0.035400X0.070800*%
%ADD26R,0.035400X0.070700*%
%ADD27R,0.027600X0.063000*%
%ADD28R,0.027600X0.082700*%
%ADD29R,0.078700X0.108300*%
%ADD30R,0.023600X0.039400*%
%ADD31C,0.126000*%
%ADD32R,0.035433X0.013780*%
%ADD33R,0.013780X0.035433*%
%ADD34R,0.098425X0.098425*%
%ADD35C,0.062992*%
%ADD36C,0.078740*%
%ADD37C,0.011811*%
%ADD38C,0.023622*%
%ADD39C,0.010000*%
G04 APERTURE END LIST*
G54D10*
G54D11*
X50251Y-47598D03*
X50851Y-47598D03*
X51707Y-47598D03*
X52307Y-47598D03*
G54D12*
X55000Y-44581D03*
X55000Y-45181D03*
G54D11*
X55054Y-42637D03*
X55654Y-42637D03*
X55054Y-41811D03*
X55654Y-41811D03*
X55054Y-40984D03*
X55654Y-40984D03*
X55054Y-40196D03*
X55654Y-40196D03*
X53755Y-30078D03*
X54355Y-30078D03*
X48951Y-34606D03*
X49551Y-34606D03*
X54000Y-25629D03*
X53400Y-25629D03*
X48488Y-25748D03*
X47888Y-25748D03*
G54D12*
X55000Y-23922D03*
X55000Y-23322D03*
G54D13*
X45826Y-23405D03*
X45826Y-24705D03*
G54D14*
X54913Y-26259D03*
X56031Y-26259D03*
G54D15*
X47401Y-21417D03*
G54D16*
X45984Y-21417D03*
X48818Y-21417D03*
G54D15*
X53622Y-21417D03*
G54D16*
X52204Y-21417D03*
X55039Y-21417D03*
G54D17*
X56759Y-25039D03*
G54D18*
X55759Y-25039D03*
G54D19*
X43228Y-37669D03*
G54D20*
X43228Y-38669D03*
X43228Y-39669D03*
X43228Y-40669D03*
X43228Y-41669D03*
X43228Y-42669D03*
X43228Y-43669D03*
G54D19*
X43228Y-44972D03*
G54D20*
X43228Y-45972D03*
G54D19*
X57362Y-33366D03*
G54D20*
X57362Y-32366D03*
X57362Y-31366D03*
X57362Y-30366D03*
X57362Y-29366D03*
X57362Y-28366D03*
G54D19*
X55236Y-37807D03*
G54D20*
X55236Y-38807D03*
G54D17*
X47074Y-35748D03*
G54D18*
X46074Y-35748D03*
G54D19*
X51023Y-24909D03*
G54D20*
X51023Y-23909D03*
G54D17*
X46248Y-26574D03*
G54D18*
X45248Y-26574D03*
G54D11*
X55496Y-27559D03*
X54896Y-27559D03*
X56589Y-38700D03*
X57189Y-38700D03*
X57189Y-37834D03*
X56589Y-37834D03*
X48488Y-26574D03*
X47888Y-26574D03*
X50448Y-26771D03*
X51048Y-26771D03*
G54D12*
X51732Y-26786D03*
X51732Y-27386D03*
G54D21*
X46356Y-42125D03*
X46356Y-42625D03*
X46356Y-43125D03*
X46356Y-43625D03*
X46356Y-44125D03*
X46356Y-44625D03*
G54D22*
X47106Y-45375D03*
X47606Y-45375D03*
X48106Y-45375D03*
X48606Y-45375D03*
X49106Y-45375D03*
X49606Y-45375D03*
X50106Y-45375D03*
X50606Y-45375D03*
X51106Y-45375D03*
X51606Y-45375D03*
X52106Y-45375D03*
G54D21*
X52856Y-44625D03*
X52856Y-44125D03*
X52856Y-43625D03*
X52856Y-43125D03*
X52856Y-42625D03*
X52856Y-42125D03*
X52856Y-41625D03*
X52856Y-41125D03*
X52856Y-40625D03*
X52856Y-40125D03*
X52856Y-39625D03*
G54D22*
X52106Y-38875D03*
X51606Y-38875D03*
X51106Y-38875D03*
X50606Y-38875D03*
X50106Y-38875D03*
X49606Y-38875D03*
X49106Y-38875D03*
X48606Y-38875D03*
X48106Y-38875D03*
X47606Y-38875D03*
X47106Y-38875D03*
G54D21*
X46356Y-39625D03*
X46356Y-40125D03*
X46356Y-40625D03*
X46356Y-41125D03*
X46356Y-41625D03*
G54D23*
X44763Y-33582D03*
X45236Y-33582D03*
X45708Y-33582D03*
X46181Y-33582D03*
X46653Y-33582D03*
X47125Y-33582D03*
X47598Y-33582D03*
X48070Y-33582D03*
X48543Y-33582D03*
X49015Y-33582D03*
X49488Y-33582D03*
X49488Y-28543D03*
X49015Y-28543D03*
X48543Y-28543D03*
X48070Y-28543D03*
X47598Y-28543D03*
X47125Y-28543D03*
X46653Y-28543D03*
X46181Y-28543D03*
X45708Y-28543D03*
X45236Y-28543D03*
X44763Y-28543D03*
X44291Y-28543D03*
X44291Y-33582D03*
G54D24*
X50472Y-32676D03*
X50472Y-32283D03*
X50472Y-31771D03*
X50472Y-31298D03*
X50472Y-30826D03*
X50472Y-30354D03*
X50472Y-29842D03*
X50472Y-29448D03*
G54D25*
X50433Y-33385D03*
G54D26*
X42835Y-33385D03*
X42834Y-28739D03*
X50433Y-28739D03*
G54D27*
X47164Y-24724D03*
G54D28*
X47755Y-24626D03*
G54D27*
X48346Y-24724D03*
G54D29*
X47755Y-23681D03*
G54D30*
X53404Y-24471D03*
X53779Y-23639D03*
X54154Y-24471D03*
G54D17*
X46885Y-48897D03*
G54D18*
X47885Y-48897D03*
X48885Y-48897D03*
X49885Y-48897D03*
G54D31*
X57244Y-21496D03*
X43582Y-48622D03*
X57204Y-48622D03*
X43543Y-21496D03*
G54D11*
X48597Y-36692D03*
X49197Y-36692D03*
G54D32*
X53267Y-31604D03*
X53267Y-31860D03*
X53267Y-31348D03*
X53267Y-32116D03*
G54D33*
X53927Y-32519D03*
X53671Y-32519D03*
X54183Y-32519D03*
X54438Y-32519D03*
G54D32*
X54842Y-32116D03*
X54842Y-31860D03*
X54842Y-31604D03*
X54842Y-31348D03*
G54D33*
X54438Y-30944D03*
X54183Y-30944D03*
X53927Y-30944D03*
X53671Y-30944D03*
G54D34*
X54055Y-31732D03*
G54D35*
X49254Y-35763D03*
X54650Y-29239D03*
G54D36*
X49096Y-26657D03*
X48355Y-34579D03*
G54D35*
X53980Y-33468D03*
X50780Y-35960D03*
X52315Y-31227D03*
X44495Y-42774D03*
X53790Y-34485D03*
X50106Y-36489D03*
X52437Y-32307D03*
X53234Y-30078D03*
X51606Y-37012D03*
X54913Y-33464D03*
X54717Y-43462D03*
X55239Y-35845D03*
X44483Y-44444D03*
X53256Y-23535D03*
X45264Y-27612D03*
X45708Y-34675D03*
X47412Y-26994D03*
X44484Y-43715D03*
X54883Y-25039D03*
X54702Y-36967D03*
X56844Y-37217D03*
G54D37*
X57362Y-32581D02*
X57362Y-32402D01*
X57362Y-32581D02*
X57362Y-32796D01*
X57362Y-32366D02*
X57362Y-32402D01*
X53755Y-30078D02*
X54010Y-30078D01*
X56334Y-33449D02*
X56334Y-38700D01*
X56987Y-32796D02*
X56334Y-33449D01*
X57362Y-32796D02*
X56987Y-32796D01*
X48606Y-37056D02*
X48606Y-38875D01*
X48597Y-37047D02*
X48606Y-37056D01*
X53755Y-30553D02*
X53755Y-30078D01*
X53671Y-30637D02*
X53755Y-30553D01*
X53671Y-30944D02*
X53671Y-30637D01*
X56509Y-38700D02*
X56334Y-38700D01*
X56509Y-38700D02*
X56523Y-38700D01*
X56589Y-38700D02*
X56523Y-38700D01*
X55000Y-44581D02*
X55000Y-44326D01*
X54087Y-44326D02*
X55000Y-44326D01*
X53386Y-43625D02*
X54087Y-44326D01*
X52856Y-43625D02*
X53386Y-43625D01*
X48597Y-36870D02*
X48597Y-37047D01*
X48597Y-36870D02*
X48597Y-36692D01*
X48679Y-36337D02*
X48597Y-36337D01*
X49254Y-35763D02*
X48679Y-36337D01*
X48597Y-36692D02*
X48597Y-36337D01*
X56523Y-42802D02*
X55000Y-44326D01*
X56523Y-38700D02*
X56523Y-42802D01*
X54010Y-29879D02*
X54650Y-29239D01*
X54010Y-30078D02*
X54010Y-29879D01*
X55159Y-28730D02*
X54650Y-29239D01*
X55159Y-27263D02*
X55159Y-28730D01*
X54790Y-26894D02*
X55159Y-27263D01*
X54667Y-26894D02*
X54790Y-26894D01*
X54000Y-26227D02*
X54667Y-26894D01*
X54000Y-25629D02*
X54000Y-26227D01*
X54154Y-25121D02*
X54154Y-24471D01*
X54000Y-25274D02*
X54154Y-25121D01*
X54000Y-25629D02*
X54000Y-25274D01*
G54D38*
X48452Y-25333D02*
X48488Y-25333D01*
X48346Y-25228D02*
X48452Y-25333D01*
X48346Y-24724D02*
X48346Y-25228D01*
X48488Y-25748D02*
X48488Y-25333D01*
X48951Y-34278D02*
X49015Y-34214D01*
X48951Y-34499D02*
X48951Y-34278D01*
X49015Y-33582D02*
X49015Y-34214D01*
X48488Y-25748D02*
X48488Y-26574D01*
X49013Y-26574D02*
X49096Y-26657D01*
X48488Y-26574D02*
X49013Y-26574D01*
X48951Y-34606D02*
X48951Y-34552D01*
X48951Y-34552D02*
X48951Y-34499D01*
X48382Y-34552D02*
X48355Y-34579D01*
X48951Y-34552D02*
X48382Y-34552D01*
G54D37*
X50780Y-38171D02*
X50606Y-38345D01*
X50780Y-35960D02*
X50780Y-38171D01*
X50606Y-38875D02*
X50606Y-38345D01*
X54183Y-33266D02*
X53980Y-33468D01*
X54183Y-32519D02*
X54183Y-33266D01*
X46356Y-42625D02*
X45826Y-42625D01*
X44643Y-42625D02*
X44495Y-42774D01*
X45826Y-42625D02*
X44643Y-42625D01*
X52691Y-31604D02*
X52315Y-31227D01*
X53267Y-31604D02*
X52691Y-31604D01*
X50106Y-38875D02*
X50106Y-36489D01*
X54438Y-33836D02*
X53790Y-34485D01*
X54438Y-32519D02*
X54438Y-33836D01*
X53267Y-31860D02*
X52960Y-31860D01*
X52884Y-31860D02*
X52437Y-32307D01*
X52960Y-31860D02*
X52884Y-31860D01*
X55605Y-31604D02*
X54842Y-31604D01*
X56343Y-30866D02*
X55605Y-31604D01*
X57603Y-30866D02*
X56343Y-30866D01*
X57928Y-30541D02*
X57603Y-30866D01*
X57928Y-30147D02*
X57928Y-30541D01*
X57577Y-29796D02*
X57928Y-30147D01*
X57362Y-29796D02*
X57577Y-29796D01*
X57362Y-29366D02*
X57362Y-29796D01*
X56132Y-30366D02*
X57362Y-30366D01*
X55149Y-31348D02*
X56132Y-30366D01*
X54842Y-31348D02*
X55149Y-31348D01*
X51048Y-26771D02*
X51303Y-26771D01*
X51318Y-26786D02*
X51732Y-26786D01*
X51303Y-26771D02*
X51318Y-26786D01*
X51732Y-26786D02*
X51732Y-27041D01*
X53267Y-32116D02*
X52960Y-32116D01*
X51923Y-27041D02*
X51732Y-27041D01*
X52087Y-27205D02*
X51923Y-27041D01*
X52087Y-30826D02*
X52087Y-27205D01*
X51859Y-31054D02*
X52087Y-30826D01*
X51859Y-32359D02*
X51859Y-31054D01*
X52252Y-32752D02*
X51859Y-32359D01*
X52630Y-32752D02*
X52252Y-32752D01*
X52960Y-32421D02*
X52630Y-32752D01*
X52960Y-32116D02*
X52960Y-32421D01*
X50386Y-27970D02*
X49488Y-27970D01*
X51045Y-28629D02*
X50386Y-27970D01*
X51045Y-31817D02*
X51045Y-28629D01*
X52182Y-32953D02*
X51045Y-31817D01*
X53544Y-32953D02*
X52182Y-32953D01*
X53671Y-32826D02*
X53544Y-32953D01*
X53671Y-32519D02*
X53671Y-32826D01*
X49488Y-28543D02*
X49488Y-27970D01*
X54896Y-27559D02*
X54641Y-27559D01*
X51606Y-38875D02*
X51606Y-37012D01*
X53267Y-30078D02*
X53234Y-30078D01*
X53267Y-28933D02*
X53267Y-30078D01*
X54641Y-27559D02*
X53267Y-28933D01*
X53267Y-30078D02*
X53267Y-31348D01*
X53927Y-32857D02*
X53927Y-32519D01*
X53338Y-33445D02*
X53927Y-32857D01*
X53338Y-34031D02*
X53338Y-33445D01*
X51106Y-36264D02*
X53338Y-34031D01*
X51106Y-38875D02*
X51106Y-36264D01*
X52856Y-43125D02*
X53386Y-43125D01*
X53723Y-43462D02*
X53386Y-43125D01*
X54717Y-43462D02*
X53723Y-43462D01*
X54842Y-33393D02*
X54913Y-33464D01*
X54842Y-32116D02*
X54842Y-33393D01*
X53878Y-42625D02*
X52856Y-42625D01*
X54256Y-43004D02*
X53878Y-42625D01*
X55237Y-43004D02*
X54256Y-43004D01*
X55399Y-42842D02*
X55237Y-43004D01*
X55399Y-39833D02*
X55399Y-42842D01*
X55890Y-39341D02*
X55399Y-39833D01*
X55890Y-32601D02*
X55890Y-39341D01*
X55149Y-31860D02*
X55890Y-32601D01*
X54842Y-31860D02*
X55149Y-31860D01*
X53404Y-24471D02*
X53404Y-24798D01*
X47633Y-25638D02*
X47633Y-25748D01*
X47164Y-25169D02*
X47633Y-25638D01*
X49551Y-34606D02*
X49551Y-34251D01*
X55654Y-40954D02*
X55683Y-40984D01*
X55654Y-40196D02*
X55654Y-40954D01*
X55654Y-40984D02*
X55669Y-40984D01*
X55669Y-40984D02*
X55683Y-40984D01*
X55654Y-40999D02*
X55654Y-41811D01*
X55669Y-40984D02*
X55654Y-40999D01*
X55654Y-41811D02*
X55654Y-42637D01*
X49197Y-36692D02*
X49452Y-36692D01*
X47761Y-25748D02*
X47633Y-25748D01*
X49106Y-37139D02*
X49197Y-37047D01*
X49106Y-38875D02*
X49106Y-37139D01*
X49197Y-36692D02*
X49197Y-37047D01*
X48818Y-21417D02*
X52204Y-21417D01*
X54438Y-30517D02*
X54355Y-30433D01*
X54438Y-30944D02*
X54438Y-30517D01*
X54355Y-30256D02*
X54355Y-30433D01*
X49488Y-34187D02*
X49488Y-33582D01*
X49551Y-34251D02*
X49488Y-34187D01*
X45057Y-44894D02*
X45826Y-44125D01*
X44267Y-44894D02*
X45057Y-44894D01*
X43514Y-44140D02*
X44267Y-44894D01*
X42946Y-44140D02*
X43514Y-44140D01*
X42653Y-43848D02*
X42946Y-44140D01*
X42653Y-35793D02*
X42653Y-43848D01*
X44291Y-34155D02*
X42653Y-35793D01*
X46356Y-44125D02*
X45826Y-44125D01*
X55000Y-22570D02*
X55000Y-23322D01*
X55039Y-22531D02*
X55000Y-22570D01*
X55039Y-21417D02*
X55039Y-22531D01*
X55654Y-40196D02*
X55909Y-40196D01*
X56145Y-39960D02*
X55909Y-40196D01*
X56145Y-32797D02*
X56145Y-39960D01*
X57147Y-31796D02*
X56145Y-32797D01*
X57362Y-31796D02*
X57147Y-31796D01*
X57362Y-31366D02*
X57362Y-31796D01*
X57362Y-31366D02*
X57925Y-31366D01*
X49551Y-34606D02*
X49551Y-34961D01*
X47164Y-24724D02*
X47164Y-24946D01*
X47164Y-24946D02*
X47164Y-25169D01*
X46598Y-24946D02*
X46356Y-24705D01*
X47164Y-24946D02*
X46598Y-24946D01*
X45826Y-24705D02*
X46356Y-24705D01*
X44291Y-33822D02*
X44291Y-34155D01*
X44291Y-33822D02*
X44291Y-33582D01*
X44291Y-33582D02*
X44291Y-33009D01*
X45826Y-24705D02*
X45826Y-25135D01*
X45773Y-24275D02*
X45826Y-24275D01*
X45296Y-23798D02*
X45773Y-24275D01*
X45296Y-23006D02*
X45296Y-23798D01*
X45771Y-22531D02*
X45296Y-23006D01*
X45984Y-22531D02*
X45771Y-22531D01*
X45984Y-21417D02*
X45984Y-22531D01*
X45826Y-24705D02*
X45826Y-24275D01*
X49699Y-35108D02*
X49551Y-34961D01*
X49699Y-35947D02*
X49699Y-35108D01*
X49452Y-36194D02*
X49699Y-35947D01*
X49452Y-36692D02*
X49452Y-36194D01*
X55000Y-45181D02*
X55000Y-44926D01*
X55191Y-44926D02*
X55000Y-44926D01*
X57925Y-42192D02*
X55191Y-44926D01*
X57925Y-31366D02*
X57925Y-42192D01*
X54187Y-44926D02*
X55000Y-44926D01*
X53386Y-44125D02*
X54187Y-44926D01*
X52856Y-44125D02*
X53386Y-44125D01*
X54355Y-30256D02*
X54355Y-30078D01*
X54355Y-30078D02*
X54610Y-30078D01*
X55299Y-24179D02*
X55355Y-24123D01*
X54652Y-24179D02*
X55299Y-24179D01*
X54616Y-24143D02*
X54652Y-24179D01*
X53980Y-24143D02*
X54616Y-24143D01*
X53652Y-24471D02*
X53980Y-24143D01*
X55355Y-23677D02*
X55000Y-23322D01*
X55355Y-24123D02*
X55355Y-23677D01*
X56928Y-24123D02*
X55355Y-24123D01*
X57269Y-24463D02*
X56928Y-24123D01*
X57269Y-26405D02*
X57269Y-24463D01*
X56784Y-26890D02*
X57269Y-26405D01*
X56784Y-28923D02*
X56784Y-26890D01*
X58126Y-31164D02*
X57925Y-31366D01*
X58126Y-29385D02*
X58126Y-31164D01*
X57664Y-28923D02*
X58126Y-29385D01*
X56784Y-28923D02*
X57664Y-28923D01*
X53515Y-24471D02*
X53652Y-24471D01*
X55629Y-30078D02*
X56784Y-28923D01*
X54610Y-30078D02*
X55629Y-30078D01*
X53404Y-24471D02*
X53515Y-24471D01*
X53386Y-37631D02*
X53386Y-39625D01*
X55172Y-35845D02*
X53386Y-37631D01*
X55239Y-35845D02*
X55172Y-35845D01*
X52856Y-39625D02*
X53386Y-39625D01*
X52204Y-23519D02*
X53156Y-24471D01*
X52204Y-21417D02*
X52204Y-23519D01*
X53404Y-24471D02*
X53156Y-24471D01*
X49488Y-33582D02*
X49488Y-33296D01*
X53400Y-24801D02*
X53400Y-25629D01*
X53404Y-24798D02*
X53400Y-24801D01*
X47761Y-25748D02*
X47888Y-25748D01*
X50792Y-27054D02*
X50792Y-26455D01*
X51125Y-27386D02*
X50792Y-27054D01*
X51732Y-27386D02*
X51125Y-27386D01*
X51618Y-25629D02*
X53400Y-25629D01*
X50792Y-26455D02*
X51618Y-25629D01*
X48144Y-26767D02*
X48144Y-25748D01*
X48571Y-27195D02*
X48144Y-26767D01*
X49458Y-27195D02*
X48571Y-27195D01*
X50237Y-26416D02*
X49458Y-27195D01*
X50754Y-26416D02*
X50237Y-26416D01*
X50792Y-26455D02*
X50754Y-26416D01*
X47888Y-25748D02*
X48144Y-25748D01*
X43987Y-32705D02*
X44291Y-33009D01*
X43987Y-26651D02*
X43987Y-32705D01*
X45504Y-25135D02*
X43987Y-26651D01*
X45826Y-25135D02*
X45504Y-25135D01*
X44291Y-33009D02*
X49229Y-33009D01*
X49488Y-33268D02*
X49229Y-33009D01*
X49488Y-33296D02*
X49488Y-33268D01*
X50472Y-32283D02*
X49899Y-32283D01*
X50472Y-29842D02*
X49899Y-29842D01*
X49899Y-29842D02*
X49899Y-32283D01*
X49899Y-32340D02*
X49229Y-33009D01*
X49899Y-32283D02*
X49899Y-32340D01*
X45301Y-43625D02*
X44483Y-44444D01*
X46356Y-43625D02*
X45301Y-43625D01*
X43834Y-40625D02*
X43791Y-40669D01*
X46356Y-40625D02*
X43834Y-40625D01*
X43228Y-40669D02*
X43791Y-40669D01*
X43255Y-40125D02*
X43228Y-40099D01*
X46356Y-40125D02*
X43255Y-40125D01*
X43228Y-39669D02*
X43228Y-40099D01*
X55000Y-23922D02*
X55000Y-23667D01*
X54972Y-23639D02*
X55000Y-23667D01*
X53779Y-23639D02*
X54972Y-23639D01*
X53779Y-23639D02*
X53531Y-23639D01*
X53622Y-21417D02*
X53622Y-22531D01*
X53428Y-22725D02*
X53428Y-23535D01*
X53622Y-22531D02*
X53428Y-22725D01*
X53428Y-23535D02*
X53531Y-23639D01*
X53428Y-23535D02*
X53256Y-23535D01*
X47401Y-21417D02*
X47401Y-22531D01*
X47755Y-23681D02*
X47755Y-24626D01*
X45826Y-23405D02*
X45826Y-22975D01*
X47401Y-22531D02*
X47401Y-22756D01*
X47655Y-23009D02*
X47401Y-22756D01*
X47755Y-23009D02*
X47655Y-23009D01*
X46045Y-22756D02*
X45826Y-22975D01*
X47401Y-22756D02*
X46045Y-22756D01*
X47755Y-23681D02*
X47755Y-23009D01*
X45264Y-27943D02*
X45264Y-27612D01*
X45236Y-27970D02*
X45264Y-27943D01*
X45236Y-28543D02*
X45236Y-27970D01*
X45708Y-33582D02*
X45708Y-34675D01*
X48070Y-29116D02*
X48543Y-29116D01*
X48070Y-28543D02*
X48070Y-29116D01*
X48543Y-28543D02*
X48543Y-29116D01*
X47633Y-26772D02*
X47412Y-26994D01*
X47633Y-26574D02*
X47633Y-26772D01*
X47888Y-26574D02*
X47633Y-26574D01*
X50192Y-26793D02*
X50192Y-26771D01*
X49015Y-27970D02*
X50192Y-26793D01*
X49015Y-28543D02*
X49015Y-27970D01*
X50448Y-26771D02*
X50192Y-26771D01*
X57189Y-37834D02*
X57189Y-38700D01*
X45074Y-43125D02*
X46356Y-43125D01*
X44484Y-43715D02*
X45074Y-43125D01*
X54913Y-26259D02*
X54913Y-25775D01*
X54883Y-25744D02*
X54883Y-25039D01*
X54913Y-25775D02*
X54883Y-25744D01*
X55751Y-27023D02*
X56031Y-26744D01*
X55751Y-27559D02*
X55751Y-27023D01*
X55496Y-27559D02*
X55751Y-27559D01*
X56031Y-26259D02*
X56031Y-26744D01*
X49606Y-48055D02*
X49606Y-45375D01*
X49885Y-48334D02*
X49606Y-48055D01*
X49885Y-48897D02*
X49885Y-48334D01*
X52856Y-40125D02*
X53386Y-40125D01*
X53831Y-37838D02*
X54702Y-36967D01*
X53831Y-39680D02*
X53831Y-37838D01*
X53386Y-40125D02*
X53831Y-39680D01*
X56589Y-37834D02*
X56844Y-37834D01*
X56844Y-37834D02*
X56844Y-37217D01*
X45299Y-39099D02*
X43228Y-39099D01*
X45826Y-39625D02*
X45299Y-39099D01*
X43228Y-38669D02*
X43228Y-39099D01*
X46356Y-39625D02*
X45826Y-39625D01*
X49106Y-48114D02*
X49106Y-45375D01*
X48885Y-48334D02*
X49106Y-48114D01*
X48885Y-48897D02*
X48885Y-48334D01*
X54370Y-40625D02*
X54799Y-40196D01*
X52856Y-40625D02*
X54370Y-40625D01*
X55054Y-40196D02*
X54799Y-40196D01*
X54657Y-41125D02*
X54799Y-40984D01*
X52856Y-41125D02*
X54657Y-41125D01*
X55054Y-40984D02*
X54799Y-40984D01*
X54614Y-41625D02*
X54799Y-41811D01*
X52856Y-41625D02*
X54614Y-41625D01*
X55054Y-41811D02*
X54799Y-41811D01*
X54287Y-42125D02*
X54799Y-42637D01*
X52856Y-42125D02*
X54287Y-42125D01*
X55054Y-42637D02*
X54799Y-42637D01*
X48606Y-48177D02*
X48606Y-45375D01*
X48315Y-48467D02*
X48606Y-48177D01*
X48315Y-48897D02*
X48315Y-48467D01*
X47885Y-48897D02*
X48315Y-48897D01*
X48106Y-47677D02*
X48106Y-45375D01*
X47315Y-48467D02*
X48106Y-47677D01*
X47315Y-48897D02*
X47315Y-48467D01*
X46885Y-48897D02*
X47315Y-48897D01*
X52307Y-47598D02*
X52052Y-47598D01*
X51606Y-46106D02*
X51606Y-45375D01*
X52052Y-46552D02*
X51606Y-46106D01*
X52052Y-47598D02*
X52052Y-46552D01*
X51106Y-47251D02*
X51452Y-47598D01*
X51106Y-45375D02*
X51106Y-47251D01*
X51707Y-47598D02*
X51452Y-47598D01*
X50606Y-46998D02*
X50851Y-47243D01*
X50606Y-45375D02*
X50606Y-46998D01*
X50851Y-47598D02*
X50851Y-47243D01*
X50106Y-47098D02*
X50251Y-47243D01*
X50106Y-45375D02*
X50106Y-47098D01*
X50251Y-47598D02*
X50251Y-47243D01*
X47859Y-38099D02*
X43228Y-38099D01*
X48106Y-38345D02*
X47859Y-38099D01*
X48106Y-38875D02*
X48106Y-38345D01*
X43228Y-37669D02*
X43228Y-38099D01*
X43228Y-43669D02*
X43228Y-43239D01*
X44512Y-42125D02*
X46356Y-42125D01*
X43399Y-43239D02*
X44512Y-42125D01*
X43228Y-43239D02*
X43399Y-43239D01*
X43658Y-42239D02*
X43228Y-42239D01*
X44271Y-41625D02*
X43658Y-42239D01*
X46356Y-41625D02*
X44271Y-41625D01*
X43228Y-42669D02*
X43228Y-42239D01*
X43341Y-41125D02*
X43228Y-41239D01*
X46356Y-41125D02*
X43341Y-41125D01*
X43228Y-41669D02*
X43228Y-41239D01*
G54D10*
G36*
X47918Y-47599D02*
X47183Y-48334D01*
X47182Y-48335D01*
X47160Y-48335D01*
X46560Y-48335D01*
X46512Y-48355D01*
X46476Y-48391D01*
X46457Y-48439D01*
X46457Y-48490D01*
X46457Y-49356D01*
X46458Y-49359D01*
X44364Y-49359D01*
X44492Y-49231D01*
X44656Y-48836D01*
X44656Y-48409D01*
X44493Y-48014D01*
X44191Y-47712D01*
X43797Y-47548D01*
X43369Y-47547D01*
X42975Y-47711D01*
X42766Y-47919D01*
X42766Y-46253D01*
X42781Y-46275D01*
X42920Y-46368D01*
X43084Y-46401D01*
X43372Y-46401D01*
X43536Y-46368D01*
X43675Y-46275D01*
X43768Y-46136D01*
X43801Y-45972D01*
X43768Y-45808D01*
X43675Y-45669D01*
X43536Y-45576D01*
X43372Y-45543D01*
X43084Y-45543D01*
X42920Y-45576D01*
X42781Y-45669D01*
X42766Y-45691D01*
X42766Y-45399D01*
X42769Y-45401D01*
X42820Y-45401D01*
X43686Y-45401D01*
X43734Y-45381D01*
X43770Y-45345D01*
X43790Y-45298D01*
X43790Y-45246D01*
X43790Y-44646D01*
X43770Y-44599D01*
X43734Y-44563D01*
X43686Y-44543D01*
X43635Y-44543D01*
X42769Y-44543D01*
X42766Y-44545D01*
X42766Y-43950D01*
X42781Y-43972D01*
X42920Y-44065D01*
X43084Y-44098D01*
X43372Y-44098D01*
X43536Y-44065D01*
X43675Y-43972D01*
X43768Y-43833D01*
X43801Y-43669D01*
X43768Y-43505D01*
X43675Y-43366D01*
X43593Y-43311D01*
X44051Y-42852D01*
X44051Y-42862D01*
X44119Y-43025D01*
X44244Y-43150D01*
X44407Y-43217D01*
X44583Y-43217D01*
X44746Y-43150D01*
X44871Y-43025D01*
X44939Y-42862D01*
X44939Y-42813D01*
X45826Y-42813D01*
X45832Y-42813D01*
X45847Y-42848D01*
X45874Y-42875D01*
X45847Y-42903D01*
X45832Y-42938D01*
X45074Y-42938D01*
X45002Y-42952D01*
X44942Y-42993D01*
X44636Y-43298D01*
X44573Y-43272D01*
X44396Y-43272D01*
X44233Y-43339D01*
X44108Y-43464D01*
X44041Y-43627D01*
X44041Y-43803D01*
X44108Y-43966D01*
X44220Y-44079D01*
X44107Y-44192D01*
X44039Y-44355D01*
X44039Y-44531D01*
X44106Y-44695D01*
X44231Y-44820D01*
X44394Y-44887D01*
X44571Y-44887D01*
X44734Y-44820D01*
X44859Y-44695D01*
X44926Y-44532D01*
X44926Y-44356D01*
X44900Y-44292D01*
X45379Y-43813D01*
X45764Y-43813D01*
X45744Y-43834D01*
X45706Y-43926D01*
X45706Y-44013D01*
X45768Y-44075D01*
X46306Y-44075D01*
X46306Y-44068D01*
X46406Y-44068D01*
X46406Y-44075D01*
X46414Y-44075D01*
X46414Y-44175D01*
X46406Y-44175D01*
X46406Y-44183D01*
X46306Y-44183D01*
X46306Y-44175D01*
X45768Y-44175D01*
X45706Y-44238D01*
X45706Y-44325D01*
X45744Y-44417D01*
X45814Y-44487D01*
X45827Y-44493D01*
X45827Y-44501D01*
X45827Y-44801D01*
X45847Y-44848D01*
X45883Y-44885D01*
X45930Y-44904D01*
X45981Y-44904D01*
X46772Y-44904D01*
X46772Y-44960D01*
X46827Y-44960D01*
X46827Y-45001D01*
X46827Y-45801D01*
X46847Y-45848D01*
X46883Y-45885D01*
X46930Y-45904D01*
X46981Y-45904D01*
X47281Y-45904D01*
X47329Y-45885D01*
X47356Y-45858D01*
X47383Y-45885D01*
X47430Y-45904D01*
X47481Y-45904D01*
X47781Y-45904D01*
X47829Y-45885D01*
X47856Y-45858D01*
X47883Y-45885D01*
X47918Y-45899D01*
X47918Y-47599D01*
X47918Y-47599D01*
G37*
G54D39*
X47918Y-47599D02*
X47183Y-48334D01*
X47182Y-48335D01*
X47160Y-48335D01*
X46560Y-48335D01*
X46512Y-48355D01*
X46476Y-48391D01*
X46457Y-48439D01*
X46457Y-48490D01*
X46457Y-49356D01*
X46458Y-49359D01*
X44364Y-49359D01*
X44492Y-49231D01*
X44656Y-48836D01*
X44656Y-48409D01*
X44493Y-48014D01*
X44191Y-47712D01*
X43797Y-47548D01*
X43369Y-47547D01*
X42975Y-47711D01*
X42766Y-47919D01*
X42766Y-46253D01*
X42781Y-46275D01*
X42920Y-46368D01*
X43084Y-46401D01*
X43372Y-46401D01*
X43536Y-46368D01*
X43675Y-46275D01*
X43768Y-46136D01*
X43801Y-45972D01*
X43768Y-45808D01*
X43675Y-45669D01*
X43536Y-45576D01*
X43372Y-45543D01*
X43084Y-45543D01*
X42920Y-45576D01*
X42781Y-45669D01*
X42766Y-45691D01*
X42766Y-45399D01*
X42769Y-45401D01*
X42820Y-45401D01*
X43686Y-45401D01*
X43734Y-45381D01*
X43770Y-45345D01*
X43790Y-45298D01*
X43790Y-45246D01*
X43790Y-44646D01*
X43770Y-44599D01*
X43734Y-44563D01*
X43686Y-44543D01*
X43635Y-44543D01*
X42769Y-44543D01*
X42766Y-44545D01*
X42766Y-43950D01*
X42781Y-43972D01*
X42920Y-44065D01*
X43084Y-44098D01*
X43372Y-44098D01*
X43536Y-44065D01*
X43675Y-43972D01*
X43768Y-43833D01*
X43801Y-43669D01*
X43768Y-43505D01*
X43675Y-43366D01*
X43593Y-43311D01*
X44051Y-42852D01*
X44051Y-42862D01*
X44119Y-43025D01*
X44244Y-43150D01*
X44407Y-43217D01*
X44583Y-43217D01*
X44746Y-43150D01*
X44871Y-43025D01*
X44939Y-42862D01*
X44939Y-42813D01*
X45826Y-42813D01*
X45832Y-42813D01*
X45847Y-42848D01*
X45874Y-42875D01*
X45847Y-42903D01*
X45832Y-42938D01*
X45074Y-42938D01*
X45002Y-42952D01*
X44942Y-42993D01*
X44636Y-43298D01*
X44573Y-43272D01*
X44396Y-43272D01*
X44233Y-43339D01*
X44108Y-43464D01*
X44041Y-43627D01*
X44041Y-43803D01*
X44108Y-43966D01*
X44220Y-44079D01*
X44107Y-44192D01*
X44039Y-44355D01*
X44039Y-44531D01*
X44106Y-44695D01*
X44231Y-44820D01*
X44394Y-44887D01*
X44571Y-44887D01*
X44734Y-44820D01*
X44859Y-44695D01*
X44926Y-44532D01*
X44926Y-44356D01*
X44900Y-44292D01*
X45379Y-43813D01*
X45764Y-43813D01*
X45744Y-43834D01*
X45706Y-43926D01*
X45706Y-44013D01*
X45768Y-44075D01*
X46306Y-44075D01*
X46306Y-44068D01*
X46406Y-44068D01*
X46406Y-44075D01*
X46414Y-44075D01*
X46414Y-44175D01*
X46406Y-44175D01*
X46406Y-44183D01*
X46306Y-44183D01*
X46306Y-44175D01*
X45768Y-44175D01*
X45706Y-44238D01*
X45706Y-44325D01*
X45744Y-44417D01*
X45814Y-44487D01*
X45827Y-44493D01*
X45827Y-44501D01*
X45827Y-44801D01*
X45847Y-44848D01*
X45883Y-44885D01*
X45930Y-44904D01*
X45981Y-44904D01*
X46772Y-44904D01*
X46772Y-44960D01*
X46827Y-44960D01*
X46827Y-45001D01*
X46827Y-45801D01*
X46847Y-45848D01*
X46883Y-45885D01*
X46930Y-45904D01*
X46981Y-45904D01*
X47281Y-45904D01*
X47329Y-45885D01*
X47356Y-45858D01*
X47383Y-45885D01*
X47430Y-45904D01*
X47481Y-45904D01*
X47781Y-45904D01*
X47829Y-45885D01*
X47856Y-45858D01*
X47883Y-45885D01*
X47918Y-45899D01*
X47918Y-47599D01*
G54D10*
G36*
X55703Y-37381D02*
X55694Y-37378D01*
X55643Y-37378D01*
X54869Y-37378D01*
X54953Y-37343D01*
X55078Y-37218D01*
X55145Y-37055D01*
X55146Y-36879D01*
X55078Y-36716D01*
X54953Y-36591D01*
X54790Y-36523D01*
X54614Y-36523D01*
X54451Y-36590D01*
X54326Y-36715D01*
X54258Y-36878D01*
X54258Y-37055D01*
X54284Y-37119D01*
X53698Y-37705D01*
X53657Y-37766D01*
X53643Y-37838D01*
X53643Y-39603D01*
X53506Y-39740D01*
X53506Y-39738D01*
X53506Y-39513D01*
X53506Y-39426D01*
X53468Y-39334D01*
X53397Y-39264D01*
X53306Y-39225D01*
X52968Y-39225D01*
X52906Y-39288D01*
X52906Y-39575D01*
X53443Y-39575D01*
X53506Y-39513D01*
X53506Y-39738D01*
X53443Y-39675D01*
X52906Y-39675D01*
X52906Y-39683D01*
X52806Y-39683D01*
X52806Y-39675D01*
X52798Y-39675D01*
X52798Y-39575D01*
X52806Y-39575D01*
X52806Y-39288D01*
X52743Y-39225D01*
X52406Y-39225D01*
X52385Y-39234D01*
X52385Y-38450D01*
X52365Y-38403D01*
X52329Y-38366D01*
X52281Y-38347D01*
X52230Y-38347D01*
X51930Y-38347D01*
X51883Y-38366D01*
X51856Y-38393D01*
X51829Y-38366D01*
X51794Y-38352D01*
X51794Y-37414D01*
X51857Y-37388D01*
X51982Y-37263D01*
X52049Y-37100D01*
X52050Y-36924D01*
X51982Y-36761D01*
X51857Y-36636D01*
X51694Y-36568D01*
X51518Y-36568D01*
X51355Y-36635D01*
X51294Y-36696D01*
X51294Y-36342D01*
X53471Y-34164D01*
X53512Y-34103D01*
X53526Y-34031D01*
X53526Y-33523D01*
X53537Y-33513D01*
X53537Y-33556D01*
X53604Y-33719D01*
X53729Y-33844D01*
X53892Y-33911D01*
X54068Y-33911D01*
X54118Y-33891D01*
X53941Y-34067D01*
X53878Y-34041D01*
X53702Y-34041D01*
X53539Y-34108D01*
X53414Y-34233D01*
X53346Y-34396D01*
X53346Y-34573D01*
X53413Y-34736D01*
X53538Y-34861D01*
X53701Y-34928D01*
X53878Y-34929D01*
X54041Y-34861D01*
X54166Y-34736D01*
X54233Y-34573D01*
X54233Y-34397D01*
X54207Y-34333D01*
X54571Y-33969D01*
X54612Y-33908D01*
X54626Y-33836D01*
X54626Y-33805D01*
X54661Y-33840D01*
X54824Y-33907D01*
X55000Y-33907D01*
X55164Y-33840D01*
X55289Y-33715D01*
X55356Y-33552D01*
X55356Y-33376D01*
X55289Y-33213D01*
X55164Y-33088D01*
X55030Y-33032D01*
X55030Y-32313D01*
X55045Y-32313D01*
X55092Y-32294D01*
X55128Y-32257D01*
X55148Y-32210D01*
X55148Y-32159D01*
X55148Y-32124D01*
X55703Y-32679D01*
X55703Y-37381D01*
X55703Y-37381D01*
G37*
G54D39*
X55703Y-37381D02*
X55694Y-37378D01*
X55643Y-37378D01*
X54869Y-37378D01*
X54953Y-37343D01*
X55078Y-37218D01*
X55145Y-37055D01*
X55146Y-36879D01*
X55078Y-36716D01*
X54953Y-36591D01*
X54790Y-36523D01*
X54614Y-36523D01*
X54451Y-36590D01*
X54326Y-36715D01*
X54258Y-36878D01*
X54258Y-37055D01*
X54284Y-37119D01*
X53698Y-37705D01*
X53657Y-37766D01*
X53643Y-37838D01*
X53643Y-39603D01*
X53506Y-39740D01*
X53506Y-39738D01*
X53506Y-39513D01*
X53506Y-39426D01*
X53468Y-39334D01*
X53397Y-39264D01*
X53306Y-39225D01*
X52968Y-39225D01*
X52906Y-39288D01*
X52906Y-39575D01*
X53443Y-39575D01*
X53506Y-39513D01*
X53506Y-39738D01*
X53443Y-39675D01*
X52906Y-39675D01*
X52906Y-39683D01*
X52806Y-39683D01*
X52806Y-39675D01*
X52798Y-39675D01*
X52798Y-39575D01*
X52806Y-39575D01*
X52806Y-39288D01*
X52743Y-39225D01*
X52406Y-39225D01*
X52385Y-39234D01*
X52385Y-38450D01*
X52365Y-38403D01*
X52329Y-38366D01*
X52281Y-38347D01*
X52230Y-38347D01*
X51930Y-38347D01*
X51883Y-38366D01*
X51856Y-38393D01*
X51829Y-38366D01*
X51794Y-38352D01*
X51794Y-37414D01*
X51857Y-37388D01*
X51982Y-37263D01*
X52049Y-37100D01*
X52050Y-36924D01*
X51982Y-36761D01*
X51857Y-36636D01*
X51694Y-36568D01*
X51518Y-36568D01*
X51355Y-36635D01*
X51294Y-36696D01*
X51294Y-36342D01*
X53471Y-34164D01*
X53512Y-34103D01*
X53526Y-34031D01*
X53526Y-33523D01*
X53537Y-33513D01*
X53537Y-33556D01*
X53604Y-33719D01*
X53729Y-33844D01*
X53892Y-33911D01*
X54068Y-33911D01*
X54118Y-33891D01*
X53941Y-34067D01*
X53878Y-34041D01*
X53702Y-34041D01*
X53539Y-34108D01*
X53414Y-34233D01*
X53346Y-34396D01*
X53346Y-34573D01*
X53413Y-34736D01*
X53538Y-34861D01*
X53701Y-34928D01*
X53878Y-34929D01*
X54041Y-34861D01*
X54166Y-34736D01*
X54233Y-34573D01*
X54233Y-34397D01*
X54207Y-34333D01*
X54571Y-33969D01*
X54612Y-33908D01*
X54626Y-33836D01*
X54626Y-33805D01*
X54661Y-33840D01*
X54824Y-33907D01*
X55000Y-33907D01*
X55164Y-33840D01*
X55289Y-33715D01*
X55356Y-33552D01*
X55356Y-33376D01*
X55289Y-33213D01*
X55164Y-33088D01*
X55030Y-33032D01*
X55030Y-32313D01*
X55045Y-32313D01*
X55092Y-32294D01*
X55128Y-32257D01*
X55148Y-32210D01*
X55148Y-32159D01*
X55148Y-32124D01*
X55703Y-32679D01*
X55703Y-37381D01*
G54D10*
G36*
X58020Y-29974D02*
X57753Y-29706D01*
X57809Y-29669D01*
X57902Y-29530D01*
X57934Y-29366D01*
X57934Y-28366D01*
X57902Y-28202D01*
X57809Y-28062D01*
X57670Y-27970D01*
X57506Y-27937D01*
X57218Y-27937D01*
X57188Y-27943D01*
X57188Y-25497D01*
X57188Y-25446D01*
X57188Y-24580D01*
X57168Y-24533D01*
X57132Y-24497D01*
X57085Y-24477D01*
X57034Y-24477D01*
X56434Y-24477D01*
X56386Y-24497D01*
X56350Y-24533D01*
X56331Y-24580D01*
X56331Y-24631D01*
X56331Y-25497D01*
X56350Y-25545D01*
X56386Y-25581D01*
X56434Y-25601D01*
X56485Y-25601D01*
X57085Y-25601D01*
X57132Y-25581D01*
X57168Y-25545D01*
X57188Y-25497D01*
X57188Y-27943D01*
X57054Y-27970D01*
X56915Y-28062D01*
X56822Y-28202D01*
X56789Y-28366D01*
X56822Y-28530D01*
X56915Y-28669D01*
X57054Y-28762D01*
X57218Y-28794D01*
X57506Y-28794D01*
X57670Y-28762D01*
X57809Y-28669D01*
X57902Y-28530D01*
X57934Y-28366D01*
X57934Y-29366D01*
X57902Y-29202D01*
X57809Y-29062D01*
X57670Y-28970D01*
X57506Y-28937D01*
X57218Y-28937D01*
X57054Y-28970D01*
X56915Y-29062D01*
X56822Y-29202D01*
X56789Y-29366D01*
X56822Y-29530D01*
X56915Y-29669D01*
X57054Y-29762D01*
X57174Y-29786D01*
X57174Y-29796D01*
X57188Y-29868D01*
X57229Y-29928D01*
X57242Y-29937D01*
X57218Y-29937D01*
X57054Y-29970D01*
X56915Y-30062D01*
X56837Y-30178D01*
X56132Y-30178D01*
X56060Y-30192D01*
X55999Y-30233D01*
X55071Y-31160D01*
X55069Y-31160D01*
X55045Y-31150D01*
X54994Y-31150D01*
X54757Y-31150D01*
X54757Y-31057D01*
X54695Y-30994D01*
X54473Y-30994D01*
X54473Y-31002D01*
X54404Y-31002D01*
X54404Y-30994D01*
X54381Y-30994D01*
X54381Y-30894D01*
X54404Y-30894D01*
X54404Y-30887D01*
X54473Y-30887D01*
X54473Y-30894D01*
X54695Y-30894D01*
X54757Y-30832D01*
X54757Y-30717D01*
X54719Y-30626D01*
X54649Y-30555D01*
X54587Y-30529D01*
X54621Y-30515D01*
X54692Y-30445D01*
X54730Y-30353D01*
X54730Y-30254D01*
X54730Y-30191D01*
X54667Y-30128D01*
X54405Y-30128D01*
X54405Y-30136D01*
X54305Y-30136D01*
X54305Y-30128D01*
X54297Y-30128D01*
X54297Y-30028D01*
X54305Y-30028D01*
X54305Y-30020D01*
X54405Y-30020D01*
X54405Y-30028D01*
X54667Y-30028D01*
X54730Y-29966D01*
X54730Y-29903D01*
X54730Y-29804D01*
X54692Y-29712D01*
X54662Y-29682D01*
X54738Y-29683D01*
X54901Y-29615D01*
X55026Y-29490D01*
X55093Y-29327D01*
X55093Y-29151D01*
X55067Y-29087D01*
X55292Y-28863D01*
X55332Y-28802D01*
X55347Y-28730D01*
X55347Y-27912D01*
X55397Y-27912D01*
X55647Y-27912D01*
X55694Y-27893D01*
X55730Y-27856D01*
X55750Y-27809D01*
X55750Y-27758D01*
X55750Y-27746D01*
X55751Y-27746D01*
X55823Y-27732D01*
X55884Y-27691D01*
X55925Y-27630D01*
X55939Y-27559D01*
X55939Y-27101D01*
X56164Y-26877D01*
X56204Y-26816D01*
X56219Y-26744D01*
X56219Y-26743D01*
X56371Y-26743D01*
X56418Y-26723D01*
X56455Y-26687D01*
X56474Y-26639D01*
X56474Y-26588D01*
X56474Y-25879D01*
X56455Y-25832D01*
X56418Y-25796D01*
X56371Y-25776D01*
X56320Y-25776D01*
X56188Y-25776D01*
X56188Y-25183D01*
X56188Y-24895D01*
X56155Y-24731D01*
X56063Y-24592D01*
X55923Y-24499D01*
X55759Y-24466D01*
X55595Y-24499D01*
X55584Y-24506D01*
X55584Y-22451D01*
X55584Y-22351D01*
X55584Y-21529D01*
X55522Y-21467D01*
X55089Y-21467D01*
X55089Y-22589D01*
X55151Y-22651D01*
X55384Y-22651D01*
X55476Y-22613D01*
X55546Y-22543D01*
X55584Y-22451D01*
X55584Y-24506D01*
X55456Y-24592D01*
X55363Y-24731D01*
X55331Y-24895D01*
X55331Y-25183D01*
X55363Y-25347D01*
X55456Y-25486D01*
X55595Y-25579D01*
X55759Y-25612D01*
X55923Y-25579D01*
X56063Y-25486D01*
X56155Y-25347D01*
X56188Y-25183D01*
X56188Y-25776D01*
X55691Y-25776D01*
X55644Y-25796D01*
X55607Y-25832D01*
X55588Y-25879D01*
X55588Y-25930D01*
X55588Y-26639D01*
X55607Y-26687D01*
X55644Y-26723D01*
X55691Y-26743D01*
X55742Y-26743D01*
X55767Y-26743D01*
X55619Y-26891D01*
X55578Y-26952D01*
X55564Y-27023D01*
X55564Y-27205D01*
X55346Y-27205D01*
X55336Y-27209D01*
X55332Y-27191D01*
X55292Y-27130D01*
X54923Y-26761D01*
X54895Y-26743D01*
X55253Y-26743D01*
X55300Y-26723D01*
X55337Y-26687D01*
X55356Y-26639D01*
X55356Y-26588D01*
X55356Y-25879D01*
X55337Y-25832D01*
X55300Y-25796D01*
X55253Y-25776D01*
X55202Y-25776D01*
X55101Y-25776D01*
X55101Y-25775D01*
X55086Y-25703D01*
X55070Y-25679D01*
X55070Y-25441D01*
X55134Y-25415D01*
X55259Y-25291D01*
X55326Y-25128D01*
X55326Y-24951D01*
X55259Y-24788D01*
X55134Y-24663D01*
X54971Y-24595D01*
X54795Y-24595D01*
X54632Y-24662D01*
X54507Y-24787D01*
X54439Y-24950D01*
X54439Y-25127D01*
X54506Y-25290D01*
X54631Y-25415D01*
X54695Y-25441D01*
X54695Y-25744D01*
X54701Y-25776D01*
X54573Y-25776D01*
X54526Y-25796D01*
X54489Y-25832D01*
X54470Y-25879D01*
X54470Y-25930D01*
X54470Y-26431D01*
X54188Y-26149D01*
X54188Y-25968D01*
X54198Y-25964D01*
X54234Y-25927D01*
X54254Y-25880D01*
X54254Y-25829D01*
X54254Y-25379D01*
X54234Y-25331D01*
X54222Y-25319D01*
X54287Y-25253D01*
X54328Y-25193D01*
X54328Y-25193D01*
X54342Y-25121D01*
X54342Y-24778D01*
X54345Y-24777D01*
X54381Y-24741D01*
X54401Y-24693D01*
X54401Y-24642D01*
X54401Y-24248D01*
X54381Y-24201D01*
X54345Y-24164D01*
X54298Y-24145D01*
X54246Y-24145D01*
X54010Y-24145D01*
X53963Y-24164D01*
X53927Y-24201D01*
X53907Y-24248D01*
X53907Y-24299D01*
X53907Y-24693D01*
X53927Y-24741D01*
X53963Y-24777D01*
X53966Y-24778D01*
X53966Y-25043D01*
X53867Y-25142D01*
X53827Y-25203D01*
X53812Y-25274D01*
X53812Y-25291D01*
X53802Y-25295D01*
X53772Y-25326D01*
X53772Y-24717D01*
X53772Y-24618D01*
X53772Y-24583D01*
X53772Y-24358D01*
X53772Y-24323D01*
X53772Y-24224D01*
X53734Y-24132D01*
X53664Y-24062D01*
X53572Y-24024D01*
X53517Y-24024D01*
X53454Y-24086D01*
X53454Y-24421D01*
X53710Y-24421D01*
X53772Y-24358D01*
X53772Y-24583D01*
X53710Y-24521D01*
X53454Y-24521D01*
X53454Y-24855D01*
X53517Y-24918D01*
X53572Y-24918D01*
X53664Y-24880D01*
X53734Y-24809D01*
X53772Y-24717D01*
X53772Y-25326D01*
X53766Y-25331D01*
X53766Y-25332D01*
X53737Y-25263D01*
X53667Y-25192D01*
X53575Y-25154D01*
X53513Y-25154D01*
X53450Y-25217D01*
X53450Y-25579D01*
X53458Y-25579D01*
X53458Y-25679D01*
X53450Y-25679D01*
X53450Y-26042D01*
X53513Y-26104D01*
X53575Y-26104D01*
X53667Y-26066D01*
X53737Y-25996D01*
X53766Y-25927D01*
X53766Y-25927D01*
X53802Y-25964D01*
X53812Y-25968D01*
X53812Y-26227D01*
X53827Y-26299D01*
X53867Y-26360D01*
X54534Y-27027D01*
X54595Y-27067D01*
X54667Y-27082D01*
X54712Y-27082D01*
X54835Y-27205D01*
X54746Y-27205D01*
X54698Y-27224D01*
X54662Y-27261D01*
X54643Y-27308D01*
X54643Y-27359D01*
X54643Y-27371D01*
X54641Y-27371D01*
X54569Y-27385D01*
X54509Y-27426D01*
X53354Y-28580D01*
X53354Y-24855D01*
X53354Y-24521D01*
X53354Y-24421D01*
X53354Y-24086D01*
X53292Y-24024D01*
X53236Y-24024D01*
X53144Y-24062D01*
X53074Y-24132D01*
X53036Y-24224D01*
X53036Y-24323D01*
X53036Y-24358D01*
X53099Y-24421D01*
X53354Y-24421D01*
X53354Y-24521D01*
X53099Y-24521D01*
X53036Y-24583D01*
X53036Y-24618D01*
X53036Y-24717D01*
X53074Y-24809D01*
X53144Y-24880D01*
X53236Y-24918D01*
X53292Y-24918D01*
X53354Y-24855D01*
X53354Y-28580D01*
X53350Y-28584D01*
X53350Y-26042D01*
X53350Y-25679D01*
X53350Y-25579D01*
X53350Y-25217D01*
X53288Y-25154D01*
X53226Y-25154D01*
X53134Y-25192D01*
X53063Y-25263D01*
X53025Y-25355D01*
X53025Y-25454D01*
X53025Y-25517D01*
X53088Y-25579D01*
X53350Y-25579D01*
X53350Y-25679D01*
X53088Y-25679D01*
X53025Y-25742D01*
X53025Y-25805D01*
X53025Y-25904D01*
X53063Y-25996D01*
X53134Y-26066D01*
X53226Y-26104D01*
X53288Y-26104D01*
X53350Y-26042D01*
X53350Y-28584D01*
X53134Y-28800D01*
X53094Y-28861D01*
X53079Y-28933D01*
X53079Y-29662D01*
X52983Y-29702D01*
X52858Y-29826D01*
X52791Y-29990D01*
X52791Y-30166D01*
X52858Y-30329D01*
X52983Y-30454D01*
X53079Y-30494D01*
X53079Y-31150D01*
X53064Y-31150D01*
X53017Y-31170D01*
X52981Y-31206D01*
X52961Y-31253D01*
X52961Y-31305D01*
X52961Y-31416D01*
X52769Y-31416D01*
X52732Y-31379D01*
X52758Y-31316D01*
X52758Y-31140D01*
X52750Y-31118D01*
X52750Y-22451D01*
X52750Y-22351D01*
X52750Y-21529D01*
X52687Y-21467D01*
X52254Y-21467D01*
X52254Y-22589D01*
X52317Y-22651D01*
X52549Y-22651D01*
X52641Y-22613D01*
X52711Y-22543D01*
X52750Y-22451D01*
X52750Y-31118D01*
X52691Y-30976D01*
X52566Y-30851D01*
X52403Y-30784D01*
X52275Y-30784D01*
X52275Y-27205D01*
X52260Y-27133D01*
X52260Y-27133D01*
X52220Y-27072D01*
X52154Y-27007D01*
X52154Y-22589D01*
X52154Y-21467D01*
X51721Y-21467D01*
X51659Y-21529D01*
X51659Y-22351D01*
X51659Y-22451D01*
X51697Y-22543D01*
X51767Y-22613D01*
X51859Y-22651D01*
X52092Y-22651D01*
X52154Y-22589D01*
X52154Y-27007D01*
X52085Y-26938D01*
X52086Y-26937D01*
X52086Y-26886D01*
X52086Y-26636D01*
X52066Y-26588D01*
X52030Y-26552D01*
X51982Y-26532D01*
X51931Y-26532D01*
X51596Y-26532D01*
X51596Y-23909D01*
X51563Y-23745D01*
X51470Y-23606D01*
X51331Y-23513D01*
X51167Y-23480D01*
X50879Y-23480D01*
X50715Y-23513D01*
X50576Y-23606D01*
X50483Y-23745D01*
X50450Y-23909D01*
X50483Y-24073D01*
X50576Y-24212D01*
X50715Y-24305D01*
X50879Y-24338D01*
X51167Y-24338D01*
X51331Y-24305D01*
X51470Y-24212D01*
X51563Y-24073D01*
X51596Y-23909D01*
X51596Y-26532D01*
X51585Y-26532D01*
X51585Y-25235D01*
X51585Y-25183D01*
X51585Y-24583D01*
X51565Y-24536D01*
X51529Y-24500D01*
X51482Y-24480D01*
X51431Y-24480D01*
X50565Y-24480D01*
X50517Y-24500D01*
X50481Y-24536D01*
X50461Y-24583D01*
X50461Y-24635D01*
X50461Y-25235D01*
X50481Y-25282D01*
X50517Y-25318D01*
X50565Y-25338D01*
X50616Y-25338D01*
X51482Y-25338D01*
X51529Y-25318D01*
X51565Y-25282D01*
X51585Y-25235D01*
X51585Y-26532D01*
X51481Y-26532D01*
X51434Y-26552D01*
X51398Y-26588D01*
X51393Y-26598D01*
X51375Y-26598D01*
X51374Y-26598D01*
X51303Y-26583D01*
X51301Y-26583D01*
X51301Y-26521D01*
X51282Y-26473D01*
X51245Y-26437D01*
X51198Y-26417D01*
X51147Y-26417D01*
X50897Y-26417D01*
X50850Y-26437D01*
X50813Y-26473D01*
X50794Y-26521D01*
X50794Y-26572D01*
X50794Y-27022D01*
X50813Y-27069D01*
X50850Y-27105D01*
X50897Y-27125D01*
X50948Y-27125D01*
X51198Y-27125D01*
X51245Y-27105D01*
X51282Y-27069D01*
X51301Y-27022D01*
X51301Y-26971D01*
X51318Y-26974D01*
X51393Y-26974D01*
X51398Y-26984D01*
X51434Y-27020D01*
X51434Y-27020D01*
X51365Y-27049D01*
X51295Y-27120D01*
X51257Y-27211D01*
X51257Y-27274D01*
X51319Y-27336D01*
X51682Y-27336D01*
X51682Y-27328D01*
X51782Y-27328D01*
X51782Y-27336D01*
X51790Y-27336D01*
X51790Y-27436D01*
X51782Y-27436D01*
X51782Y-27699D01*
X51844Y-27761D01*
X51899Y-27761D01*
X51899Y-30748D01*
X51726Y-30921D01*
X51686Y-30982D01*
X51682Y-31002D01*
X51682Y-27699D01*
X51682Y-27436D01*
X51319Y-27436D01*
X51257Y-27499D01*
X51257Y-27561D01*
X51295Y-27653D01*
X51365Y-27723D01*
X51457Y-27761D01*
X51557Y-27761D01*
X51619Y-27761D01*
X51682Y-27699D01*
X51682Y-31002D01*
X51671Y-31054D01*
X51671Y-32178D01*
X51233Y-31739D01*
X51233Y-28629D01*
X51219Y-28558D01*
X51178Y-28497D01*
X50519Y-27837D01*
X50458Y-27797D01*
X50386Y-27782D01*
X49488Y-27782D01*
X49464Y-27787D01*
X50204Y-27047D01*
X50213Y-27069D01*
X50250Y-27105D01*
X50297Y-27125D01*
X50348Y-27125D01*
X50598Y-27125D01*
X50645Y-27105D01*
X50682Y-27069D01*
X50701Y-27022D01*
X50701Y-26971D01*
X50701Y-26521D01*
X50682Y-26473D01*
X50645Y-26437D01*
X50598Y-26417D01*
X50547Y-26417D01*
X50297Y-26417D01*
X50250Y-26437D01*
X50213Y-26473D01*
X50194Y-26521D01*
X50194Y-26572D01*
X50194Y-26583D01*
X50192Y-26583D01*
X50121Y-26598D01*
X50060Y-26638D01*
X50019Y-26699D01*
X50019Y-26701D01*
X48882Y-27837D01*
X48842Y-27898D01*
X48827Y-27970D01*
X48827Y-27974D01*
X48785Y-27991D01*
X48779Y-27997D01*
X48773Y-27991D01*
X48726Y-27972D01*
X48674Y-27972D01*
X48360Y-27972D01*
X48313Y-27991D01*
X48307Y-27998D01*
X48300Y-27991D01*
X48253Y-27972D01*
X48201Y-27972D01*
X47887Y-27972D01*
X47840Y-27991D01*
X47834Y-27997D01*
X47828Y-27991D01*
X47781Y-27972D01*
X47729Y-27972D01*
X47415Y-27972D01*
X47368Y-27991D01*
X47362Y-27998D01*
X47355Y-27991D01*
X47308Y-27972D01*
X47256Y-27972D01*
X46942Y-27972D01*
X46895Y-27991D01*
X46889Y-27997D01*
X46883Y-27991D01*
X46836Y-27972D01*
X46784Y-27972D01*
X46676Y-27972D01*
X46676Y-27033D01*
X46676Y-26982D01*
X46676Y-26116D01*
X46657Y-26068D01*
X46620Y-26032D01*
X46573Y-26013D01*
X46522Y-26013D01*
X46476Y-26013D01*
X46476Y-25054D01*
X46476Y-24817D01*
X46476Y-24592D01*
X46476Y-24355D01*
X46438Y-24263D01*
X46368Y-24193D01*
X46276Y-24155D01*
X46177Y-24155D01*
X45939Y-24155D01*
X45876Y-24217D01*
X45876Y-24655D01*
X46414Y-24655D01*
X46476Y-24592D01*
X46476Y-24817D01*
X46414Y-24755D01*
X45876Y-24755D01*
X45876Y-25192D01*
X45939Y-25255D01*
X46177Y-25255D01*
X46276Y-25255D01*
X46368Y-25217D01*
X46438Y-25146D01*
X46476Y-25054D01*
X46476Y-26013D01*
X45922Y-26013D01*
X45875Y-26032D01*
X45838Y-26068D01*
X45819Y-26116D01*
X45819Y-26167D01*
X45819Y-27033D01*
X45838Y-27080D01*
X45875Y-27116D01*
X45922Y-27136D01*
X45973Y-27136D01*
X46573Y-27136D01*
X46620Y-27116D01*
X46657Y-27080D01*
X46676Y-27033D01*
X46676Y-27972D01*
X46470Y-27972D01*
X46423Y-27991D01*
X46417Y-27997D01*
X46411Y-27991D01*
X46364Y-27972D01*
X46312Y-27972D01*
X45998Y-27972D01*
X45951Y-27991D01*
X45945Y-27998D01*
X45938Y-27991D01*
X45891Y-27972D01*
X45839Y-27972D01*
X45776Y-27972D01*
X45776Y-25192D01*
X45776Y-24755D01*
X45776Y-24655D01*
X45776Y-24217D01*
X45714Y-24155D01*
X45476Y-24155D01*
X45377Y-24155D01*
X45285Y-24193D01*
X45214Y-24263D01*
X45176Y-24355D01*
X45176Y-24592D01*
X45239Y-24655D01*
X45776Y-24655D01*
X45776Y-24755D01*
X45239Y-24755D01*
X45176Y-24817D01*
X45176Y-25054D01*
X45214Y-25146D01*
X45285Y-25217D01*
X45377Y-25255D01*
X45476Y-25255D01*
X45714Y-25255D01*
X45776Y-25192D01*
X45776Y-27972D01*
X45532Y-27972D01*
X45639Y-27864D01*
X45707Y-27701D01*
X45707Y-27524D01*
X45676Y-27449D01*
X45676Y-26718D01*
X45676Y-26430D01*
X45644Y-26266D01*
X45551Y-26127D01*
X45412Y-26034D01*
X45248Y-26002D01*
X45083Y-26034D01*
X44944Y-26127D01*
X44851Y-26266D01*
X44819Y-26430D01*
X44819Y-26718D01*
X44851Y-26882D01*
X44944Y-27021D01*
X45083Y-27114D01*
X45248Y-27147D01*
X45412Y-27114D01*
X45551Y-27021D01*
X45644Y-26882D01*
X45676Y-26718D01*
X45676Y-27449D01*
X45640Y-27361D01*
X45515Y-27236D01*
X45352Y-27169D01*
X45176Y-27169D01*
X45013Y-27236D01*
X44888Y-27361D01*
X44820Y-27524D01*
X44820Y-27700D01*
X44887Y-27863D01*
X45012Y-27988D01*
X45012Y-27989D01*
X45006Y-27991D01*
X45000Y-27998D01*
X44993Y-27991D01*
X44946Y-27972D01*
X44894Y-27972D01*
X44580Y-27972D01*
X44533Y-27991D01*
X44527Y-27997D01*
X44521Y-27991D01*
X44474Y-27972D01*
X44422Y-27972D01*
X44108Y-27972D01*
X44061Y-27991D01*
X44025Y-28027D01*
X44005Y-28075D01*
X44005Y-28126D01*
X44005Y-29012D01*
X44025Y-29059D01*
X44061Y-29095D01*
X44108Y-29115D01*
X44160Y-29115D01*
X44474Y-29115D01*
X44521Y-29095D01*
X44527Y-29089D01*
X44533Y-29095D01*
X44580Y-29115D01*
X44632Y-29115D01*
X44946Y-29115D01*
X44993Y-29095D01*
X45000Y-29089D01*
X45006Y-29095D01*
X45053Y-29115D01*
X45105Y-29115D01*
X45419Y-29115D01*
X45466Y-29095D01*
X45472Y-29089D01*
X45478Y-29095D01*
X45525Y-29115D01*
X45577Y-29115D01*
X45891Y-29115D01*
X45938Y-29095D01*
X45945Y-29089D01*
X45951Y-29095D01*
X45998Y-29115D01*
X46050Y-29115D01*
X46364Y-29115D01*
X46411Y-29095D01*
X46417Y-29089D01*
X46423Y-29095D01*
X46470Y-29115D01*
X46522Y-29115D01*
X46836Y-29115D01*
X46883Y-29095D01*
X46889Y-29089D01*
X46895Y-29095D01*
X46942Y-29115D01*
X46994Y-29115D01*
X47308Y-29115D01*
X47355Y-29095D01*
X47362Y-29089D01*
X47368Y-29095D01*
X47415Y-29115D01*
X47467Y-29115D01*
X47781Y-29115D01*
X47828Y-29095D01*
X47834Y-29089D01*
X47840Y-29095D01*
X47882Y-29113D01*
X47882Y-29116D01*
X47897Y-29188D01*
X47937Y-29249D01*
X47998Y-29290D01*
X48070Y-29304D01*
X48543Y-29304D01*
X48615Y-29290D01*
X48676Y-29249D01*
X48717Y-29188D01*
X48731Y-29116D01*
X48731Y-29113D01*
X48773Y-29095D01*
X48779Y-29089D01*
X48785Y-29095D01*
X48832Y-29115D01*
X48884Y-29115D01*
X49198Y-29115D01*
X49245Y-29095D01*
X49252Y-29089D01*
X49258Y-29095D01*
X49305Y-29115D01*
X49357Y-29115D01*
X49671Y-29115D01*
X49718Y-29095D01*
X49754Y-29059D01*
X49774Y-29012D01*
X49774Y-28961D01*
X49774Y-28158D01*
X50308Y-28158D01*
X50407Y-28257D01*
X50230Y-28257D01*
X50183Y-28277D01*
X50147Y-28313D01*
X50127Y-28360D01*
X50127Y-28411D01*
X50127Y-29118D01*
X50146Y-29163D01*
X50003Y-29163D01*
X49956Y-29182D01*
X49920Y-29218D01*
X49900Y-29266D01*
X49900Y-29317D01*
X49900Y-29468D01*
X49887Y-29473D01*
X49817Y-29544D01*
X49779Y-29636D01*
X49779Y-29730D01*
X49842Y-29792D01*
X50422Y-29792D01*
X50422Y-29784D01*
X50522Y-29784D01*
X50522Y-29792D01*
X50530Y-29792D01*
X50530Y-29892D01*
X50522Y-29892D01*
X50522Y-29900D01*
X50422Y-29900D01*
X50422Y-29892D01*
X49842Y-29892D01*
X49779Y-29955D01*
X49779Y-30049D01*
X49817Y-30141D01*
X49887Y-30211D01*
X49900Y-30217D01*
X49900Y-30223D01*
X49900Y-30537D01*
X49920Y-30584D01*
X49926Y-30590D01*
X49920Y-30596D01*
X49900Y-30644D01*
X49900Y-30695D01*
X49900Y-31009D01*
X49920Y-31056D01*
X49926Y-31062D01*
X49920Y-31068D01*
X49900Y-31116D01*
X49900Y-31167D01*
X49900Y-31481D01*
X49920Y-31528D01*
X49926Y-31535D01*
X49920Y-31541D01*
X49900Y-31589D01*
X49900Y-31640D01*
X49900Y-31909D01*
X49887Y-31914D01*
X49817Y-31985D01*
X49779Y-32077D01*
X49779Y-32171D01*
X49842Y-32233D01*
X50422Y-32233D01*
X50422Y-32225D01*
X50522Y-32225D01*
X50522Y-32233D01*
X51103Y-32233D01*
X51149Y-32187D01*
X52049Y-33086D01*
X52110Y-33127D01*
X52182Y-33141D01*
X53377Y-33141D01*
X53205Y-33313D01*
X53165Y-33374D01*
X53150Y-33445D01*
X53150Y-33954D01*
X51224Y-35880D01*
X51224Y-35872D01*
X51165Y-35729D01*
X51165Y-32490D01*
X51165Y-32396D01*
X51103Y-32333D01*
X50522Y-32333D01*
X50522Y-32341D01*
X50422Y-32341D01*
X50422Y-32333D01*
X49842Y-32333D01*
X49779Y-32396D01*
X49779Y-32490D01*
X49817Y-32582D01*
X49887Y-32652D01*
X49900Y-32658D01*
X49900Y-32859D01*
X49920Y-32906D01*
X49956Y-32942D01*
X50003Y-32962D01*
X50055Y-32962D01*
X50145Y-32962D01*
X50127Y-33006D01*
X50127Y-33057D01*
X50127Y-33765D01*
X50147Y-33812D01*
X50183Y-33848D01*
X50230Y-33868D01*
X50282Y-33868D01*
X50636Y-33868D01*
X50683Y-33848D01*
X50719Y-33812D01*
X50739Y-33765D01*
X50739Y-33714D01*
X50739Y-33006D01*
X50721Y-32962D01*
X50941Y-32962D01*
X50988Y-32942D01*
X51024Y-32906D01*
X51044Y-32859D01*
X51044Y-32808D01*
X51044Y-32658D01*
X51057Y-32652D01*
X51127Y-32582D01*
X51165Y-32490D01*
X51165Y-35729D01*
X51157Y-35709D01*
X51032Y-35584D01*
X50869Y-35516D01*
X50692Y-35516D01*
X50529Y-35584D01*
X50404Y-35708D01*
X50337Y-35871D01*
X50336Y-36048D01*
X50368Y-36124D01*
X50357Y-36113D01*
X50194Y-36046D01*
X50018Y-36046D01*
X49926Y-36083D01*
X49926Y-34881D01*
X49926Y-34781D01*
X49926Y-34718D01*
X49926Y-34493D01*
X49926Y-34431D01*
X49926Y-34331D01*
X49888Y-34239D01*
X49837Y-34187D01*
X49857Y-34167D01*
X49895Y-34075D01*
X49895Y-33976D01*
X49895Y-33695D01*
X49895Y-33470D01*
X49895Y-33189D01*
X49895Y-33090D01*
X49857Y-32998D01*
X49787Y-32927D01*
X49695Y-32889D01*
X49601Y-32889D01*
X49538Y-32952D01*
X49538Y-33532D01*
X49833Y-33532D01*
X49895Y-33470D01*
X49895Y-33695D01*
X49833Y-33632D01*
X49538Y-33632D01*
X49538Y-33640D01*
X49438Y-33640D01*
X49438Y-33632D01*
X49430Y-33632D01*
X49430Y-33532D01*
X49438Y-33532D01*
X49438Y-32952D01*
X49376Y-32889D01*
X49281Y-32889D01*
X49189Y-32927D01*
X49119Y-32998D01*
X49114Y-33011D01*
X48832Y-33011D01*
X48785Y-33030D01*
X48779Y-33036D01*
X48773Y-33030D01*
X48726Y-33011D01*
X48674Y-33011D01*
X48360Y-33011D01*
X48313Y-33030D01*
X48307Y-33037D01*
X48300Y-33030D01*
X48253Y-33011D01*
X48201Y-33011D01*
X47887Y-33011D01*
X47840Y-33030D01*
X47834Y-33036D01*
X47828Y-33030D01*
X47781Y-33011D01*
X47729Y-33011D01*
X47415Y-33011D01*
X47368Y-33030D01*
X47362Y-33037D01*
X47355Y-33030D01*
X47308Y-33011D01*
X47256Y-33011D01*
X46942Y-33011D01*
X46895Y-33030D01*
X46889Y-33036D01*
X46883Y-33030D01*
X46836Y-33011D01*
X46784Y-33011D01*
X46470Y-33011D01*
X46423Y-33030D01*
X46417Y-33036D01*
X46411Y-33030D01*
X46364Y-33011D01*
X46312Y-33011D01*
X45998Y-33011D01*
X45951Y-33030D01*
X45945Y-33037D01*
X45938Y-33030D01*
X45891Y-33011D01*
X45839Y-33011D01*
X45525Y-33011D01*
X45478Y-33030D01*
X45472Y-33036D01*
X45466Y-33030D01*
X45419Y-33011D01*
X45367Y-33011D01*
X45053Y-33011D01*
X45006Y-33030D01*
X45000Y-33037D01*
X44993Y-33030D01*
X44946Y-33011D01*
X44894Y-33011D01*
X44665Y-33011D01*
X44660Y-32998D01*
X44590Y-32927D01*
X44498Y-32889D01*
X44404Y-32889D01*
X44341Y-32952D01*
X44341Y-33532D01*
X44349Y-33532D01*
X44349Y-33632D01*
X44341Y-33632D01*
X44341Y-34213D01*
X44404Y-34275D01*
X44498Y-34275D01*
X44590Y-34237D01*
X44660Y-34167D01*
X44665Y-34154D01*
X44946Y-34154D01*
X44993Y-34134D01*
X45000Y-34128D01*
X45006Y-34134D01*
X45053Y-34154D01*
X45105Y-34154D01*
X45419Y-34154D01*
X45466Y-34134D01*
X45472Y-34128D01*
X45478Y-34134D01*
X45520Y-34152D01*
X45520Y-34273D01*
X45457Y-34299D01*
X45332Y-34424D01*
X45264Y-34587D01*
X45264Y-34763D01*
X45332Y-34926D01*
X45456Y-35051D01*
X45619Y-35119D01*
X45796Y-35119D01*
X45959Y-35052D01*
X46084Y-34927D01*
X46152Y-34764D01*
X46152Y-34587D01*
X46084Y-34424D01*
X45960Y-34299D01*
X45896Y-34273D01*
X45896Y-34152D01*
X45938Y-34134D01*
X45945Y-34128D01*
X45951Y-34134D01*
X45998Y-34154D01*
X46050Y-34154D01*
X46364Y-34154D01*
X46411Y-34134D01*
X46417Y-34128D01*
X46423Y-34134D01*
X46470Y-34154D01*
X46522Y-34154D01*
X46836Y-34154D01*
X46883Y-34134D01*
X46889Y-34128D01*
X46895Y-34134D01*
X46942Y-34154D01*
X46994Y-34154D01*
X47308Y-34154D01*
X47355Y-34134D01*
X47362Y-34128D01*
X47368Y-34134D01*
X47415Y-34154D01*
X47467Y-34154D01*
X47781Y-34154D01*
X47828Y-34134D01*
X47834Y-34128D01*
X47840Y-34134D01*
X47887Y-34154D01*
X47939Y-34154D01*
X48041Y-34154D01*
X47912Y-34283D01*
X47832Y-34475D01*
X47832Y-34683D01*
X47911Y-34875D01*
X48058Y-35022D01*
X48250Y-35102D01*
X48458Y-35102D01*
X48650Y-35022D01*
X48743Y-34930D01*
X48754Y-34940D01*
X48801Y-34960D01*
X48852Y-34960D01*
X49102Y-34960D01*
X49149Y-34940D01*
X49186Y-34904D01*
X49186Y-34903D01*
X49215Y-34972D01*
X49285Y-35043D01*
X49377Y-35081D01*
X49439Y-35081D01*
X49501Y-35018D01*
X49501Y-34656D01*
X49494Y-34656D01*
X49494Y-34556D01*
X49501Y-34556D01*
X49501Y-34548D01*
X49601Y-34548D01*
X49601Y-34556D01*
X49864Y-34556D01*
X49926Y-34493D01*
X49926Y-34718D01*
X49864Y-34656D01*
X49601Y-34656D01*
X49601Y-35018D01*
X49664Y-35081D01*
X49726Y-35081D01*
X49818Y-35043D01*
X49888Y-34972D01*
X49926Y-34881D01*
X49926Y-36083D01*
X49855Y-36113D01*
X49730Y-36238D01*
X49662Y-36401D01*
X49662Y-36577D01*
X49729Y-36740D01*
X49854Y-36865D01*
X49918Y-36892D01*
X49918Y-38352D01*
X49883Y-38366D01*
X49856Y-38393D01*
X49829Y-38366D01*
X49781Y-38347D01*
X49730Y-38347D01*
X49572Y-38347D01*
X49572Y-36967D01*
X49572Y-36868D01*
X49572Y-36805D01*
X49572Y-36580D01*
X49572Y-36517D01*
X49572Y-36418D01*
X49534Y-36326D01*
X49464Y-36255D01*
X49372Y-36217D01*
X49310Y-36217D01*
X49247Y-36280D01*
X49247Y-36642D01*
X49510Y-36642D01*
X49572Y-36580D01*
X49572Y-36805D01*
X49510Y-36742D01*
X49247Y-36742D01*
X49247Y-37105D01*
X49310Y-37167D01*
X49372Y-37167D01*
X49464Y-37129D01*
X49534Y-37059D01*
X49572Y-36967D01*
X49572Y-38347D01*
X49473Y-38347D01*
X49468Y-38334D01*
X49397Y-38264D01*
X49306Y-38225D01*
X49218Y-38225D01*
X49156Y-38288D01*
X49156Y-38825D01*
X49164Y-38825D01*
X49164Y-38925D01*
X49156Y-38925D01*
X49156Y-38933D01*
X49056Y-38933D01*
X49056Y-38925D01*
X49048Y-38925D01*
X49048Y-38825D01*
X49056Y-38825D01*
X49056Y-38288D01*
X48993Y-38225D01*
X48906Y-38225D01*
X48814Y-38264D01*
X48794Y-38284D01*
X48794Y-37056D01*
X48788Y-37029D01*
X48795Y-37027D01*
X48831Y-36990D01*
X48832Y-36990D01*
X48860Y-37059D01*
X48931Y-37129D01*
X49022Y-37167D01*
X49085Y-37167D01*
X49147Y-37105D01*
X49147Y-36742D01*
X49139Y-36742D01*
X49139Y-36642D01*
X49147Y-36642D01*
X49147Y-36280D01*
X49085Y-36217D01*
X49065Y-36217D01*
X49102Y-36180D01*
X49165Y-36206D01*
X49342Y-36207D01*
X49505Y-36139D01*
X49630Y-36015D01*
X49697Y-35851D01*
X49697Y-35675D01*
X49630Y-35512D01*
X49505Y-35387D01*
X49501Y-35385D01*
X49342Y-35319D01*
X49166Y-35319D01*
X49003Y-35386D01*
X48878Y-35511D01*
X48810Y-35674D01*
X48810Y-35851D01*
X48836Y-35915D01*
X48601Y-36150D01*
X48597Y-36150D01*
X48525Y-36164D01*
X48464Y-36205D01*
X48424Y-36266D01*
X48409Y-36337D01*
X48409Y-36354D01*
X48399Y-36358D01*
X48363Y-36394D01*
X48343Y-36442D01*
X48343Y-36493D01*
X48343Y-36943D01*
X48363Y-36990D01*
X48399Y-37027D01*
X48409Y-37031D01*
X48409Y-37047D01*
X48418Y-37091D01*
X48418Y-38352D01*
X48383Y-38366D01*
X48356Y-38393D01*
X48329Y-38366D01*
X48294Y-38352D01*
X48294Y-38345D01*
X48279Y-38274D01*
X48279Y-38274D01*
X48239Y-38213D01*
X47992Y-37966D01*
X47931Y-37925D01*
X47859Y-37911D01*
X47503Y-37911D01*
X47503Y-36206D01*
X47503Y-36155D01*
X47503Y-35289D01*
X47483Y-35242D01*
X47447Y-35205D01*
X47400Y-35186D01*
X47349Y-35186D01*
X46749Y-35186D01*
X46701Y-35205D01*
X46665Y-35242D01*
X46646Y-35289D01*
X46646Y-35340D01*
X46646Y-36206D01*
X46665Y-36253D01*
X46701Y-36290D01*
X46749Y-36309D01*
X46800Y-36309D01*
X47400Y-36309D01*
X47447Y-36290D01*
X47483Y-36253D01*
X47503Y-36206D01*
X47503Y-37911D01*
X46503Y-37911D01*
X46503Y-35892D01*
X46503Y-35604D01*
X46470Y-35439D01*
X46377Y-35300D01*
X46238Y-35207D01*
X46074Y-35175D01*
X45910Y-35207D01*
X45771Y-35300D01*
X45678Y-35439D01*
X45646Y-35604D01*
X45646Y-35892D01*
X45678Y-36056D01*
X45771Y-36195D01*
X45910Y-36288D01*
X46074Y-36320D01*
X46238Y-36288D01*
X46377Y-36195D01*
X46470Y-36056D01*
X46503Y-35892D01*
X46503Y-37911D01*
X44241Y-37911D01*
X44241Y-34213D01*
X44241Y-33632D01*
X44241Y-33532D01*
X44241Y-32952D01*
X44179Y-32889D01*
X44084Y-32889D01*
X43992Y-32927D01*
X43922Y-32998D01*
X43884Y-33090D01*
X43884Y-33189D01*
X43884Y-33470D01*
X43947Y-33532D01*
X44241Y-33532D01*
X44241Y-33632D01*
X43947Y-33632D01*
X43884Y-33695D01*
X43884Y-33976D01*
X43884Y-34075D01*
X43922Y-34167D01*
X43992Y-34237D01*
X44084Y-34275D01*
X44179Y-34275D01*
X44241Y-34213D01*
X44241Y-37911D01*
X43790Y-37911D01*
X43790Y-37343D01*
X43770Y-37296D01*
X43734Y-37260D01*
X43686Y-37240D01*
X43635Y-37240D01*
X42769Y-37240D01*
X42766Y-37241D01*
X42766Y-33868D01*
X43038Y-33868D01*
X43085Y-33848D01*
X43121Y-33812D01*
X43141Y-33764D01*
X43141Y-33713D01*
X43141Y-33006D01*
X43121Y-32959D01*
X43085Y-32923D01*
X43038Y-32903D01*
X42986Y-32903D01*
X42766Y-32903D01*
X42766Y-29222D01*
X43037Y-29222D01*
X43084Y-29202D01*
X43120Y-29166D01*
X43140Y-29118D01*
X43140Y-29067D01*
X43140Y-28360D01*
X43120Y-28313D01*
X43084Y-28277D01*
X43037Y-28257D01*
X42985Y-28257D01*
X42766Y-28257D01*
X42766Y-22238D01*
X42934Y-22406D01*
X43328Y-22569D01*
X43756Y-22570D01*
X44150Y-22407D01*
X44453Y-22105D01*
X44617Y-21710D01*
X44617Y-21283D01*
X44454Y-20888D01*
X44285Y-20719D01*
X45438Y-20719D01*
X45438Y-21304D01*
X45501Y-21367D01*
X45934Y-21367D01*
X45934Y-21359D01*
X46034Y-21359D01*
X46034Y-21367D01*
X46467Y-21367D01*
X46529Y-21304D01*
X46529Y-20719D01*
X47016Y-20719D01*
X47016Y-22427D01*
X47036Y-22474D01*
X47072Y-22510D01*
X47120Y-22530D01*
X47171Y-22530D01*
X47213Y-22530D01*
X47213Y-22531D01*
X47213Y-22568D01*
X46466Y-22568D01*
X46491Y-22543D01*
X46529Y-22451D01*
X46529Y-22351D01*
X46529Y-21529D01*
X46467Y-21467D01*
X46034Y-21467D01*
X46034Y-21475D01*
X45934Y-21475D01*
X45934Y-21467D01*
X45501Y-21467D01*
X45438Y-21529D01*
X45438Y-22351D01*
X45438Y-22451D01*
X45477Y-22543D01*
X45547Y-22613D01*
X45639Y-22651D01*
X45871Y-22651D01*
X45934Y-22589D01*
X45934Y-22609D01*
X45913Y-22623D01*
X45693Y-22842D01*
X45653Y-22903D01*
X45638Y-22975D01*
X45638Y-22976D01*
X45401Y-22976D01*
X45353Y-22995D01*
X45317Y-23032D01*
X45298Y-23079D01*
X45298Y-23130D01*
X45298Y-23730D01*
X45317Y-23778D01*
X45353Y-23814D01*
X45401Y-23833D01*
X45452Y-23833D01*
X46252Y-23833D01*
X46299Y-23814D01*
X46335Y-23778D01*
X46355Y-23730D01*
X46355Y-23679D01*
X46355Y-23079D01*
X46335Y-23032D01*
X46299Y-22995D01*
X46252Y-22976D01*
X46201Y-22976D01*
X46091Y-22976D01*
X46123Y-22943D01*
X47323Y-22943D01*
X47391Y-23011D01*
X47336Y-23011D01*
X47289Y-23030D01*
X47253Y-23066D01*
X47233Y-23114D01*
X47233Y-23165D01*
X47233Y-24203D01*
X47214Y-24221D01*
X47214Y-24674D01*
X47222Y-24674D01*
X47222Y-24774D01*
X47214Y-24774D01*
X47214Y-25226D01*
X47277Y-25289D01*
X47352Y-25289D01*
X47444Y-25251D01*
X47514Y-25180D01*
X47533Y-25137D01*
X47544Y-25149D01*
X47592Y-25168D01*
X47643Y-25168D01*
X47919Y-25168D01*
X47966Y-25149D01*
X48003Y-25112D01*
X48022Y-25065D01*
X48022Y-25014D01*
X48022Y-24351D01*
X48093Y-24351D01*
X48080Y-24383D01*
X48080Y-24434D01*
X48080Y-25064D01*
X48099Y-25112D01*
X48100Y-25112D01*
X48100Y-25228D01*
X48112Y-25293D01*
X48063Y-25273D01*
X48001Y-25273D01*
X47938Y-25335D01*
X47938Y-25698D01*
X47946Y-25698D01*
X47946Y-25798D01*
X47938Y-25798D01*
X47938Y-25805D01*
X47838Y-25805D01*
X47838Y-25798D01*
X47838Y-25698D01*
X47838Y-25335D01*
X47776Y-25273D01*
X47714Y-25273D01*
X47622Y-25311D01*
X47552Y-25381D01*
X47513Y-25473D01*
X47513Y-25572D01*
X47513Y-25635D01*
X47576Y-25698D01*
X47838Y-25698D01*
X47838Y-25798D01*
X47576Y-25798D01*
X47513Y-25860D01*
X47513Y-25923D01*
X47513Y-26022D01*
X47552Y-26114D01*
X47622Y-26184D01*
X47714Y-26223D01*
X47733Y-26223D01*
X47691Y-26240D01*
X47654Y-26276D01*
X47635Y-26324D01*
X47635Y-26375D01*
X47635Y-26387D01*
X47633Y-26387D01*
X47562Y-26401D01*
X47501Y-26442D01*
X47460Y-26502D01*
X47450Y-26550D01*
X47324Y-26550D01*
X47161Y-26618D01*
X47114Y-26664D01*
X47114Y-25226D01*
X47114Y-24774D01*
X47114Y-24674D01*
X47114Y-24221D01*
X47052Y-24159D01*
X46977Y-24159D01*
X46885Y-24197D01*
X46814Y-24267D01*
X46776Y-24359D01*
X46776Y-24459D01*
X46776Y-24611D01*
X46839Y-24674D01*
X47114Y-24674D01*
X47114Y-24774D01*
X46839Y-24774D01*
X46776Y-24836D01*
X46776Y-24989D01*
X46776Y-25089D01*
X46814Y-25180D01*
X46885Y-25251D01*
X46977Y-25289D01*
X47052Y-25289D01*
X47114Y-25226D01*
X47114Y-26664D01*
X47036Y-26742D01*
X46968Y-26905D01*
X46968Y-27082D01*
X47035Y-27245D01*
X47160Y-27370D01*
X47323Y-27438D01*
X47500Y-27438D01*
X47663Y-27370D01*
X47788Y-27246D01*
X47855Y-27083D01*
X47856Y-26928D01*
X48039Y-26928D01*
X48086Y-26908D01*
X48123Y-26872D01*
X48142Y-26825D01*
X48142Y-26774D01*
X48142Y-26324D01*
X48123Y-26276D01*
X48086Y-26240D01*
X48044Y-26223D01*
X48063Y-26223D01*
X48155Y-26184D01*
X48225Y-26114D01*
X48242Y-26075D01*
X48242Y-26307D01*
X48235Y-26324D01*
X48235Y-26375D01*
X48235Y-26825D01*
X48254Y-26872D01*
X48291Y-26908D01*
X48338Y-26928D01*
X48389Y-26928D01*
X48639Y-26928D01*
X48642Y-26927D01*
X48652Y-26953D01*
X48799Y-27100D01*
X48991Y-27180D01*
X49199Y-27180D01*
X49391Y-27100D01*
X49538Y-26954D01*
X49618Y-26762D01*
X49618Y-26554D01*
X49539Y-26362D01*
X49392Y-26215D01*
X49364Y-26203D01*
X49364Y-22451D01*
X49364Y-22351D01*
X49364Y-21529D01*
X49301Y-21467D01*
X48868Y-21467D01*
X48868Y-22589D01*
X48931Y-22651D01*
X49163Y-22651D01*
X49255Y-22613D01*
X49326Y-22543D01*
X49364Y-22451D01*
X49364Y-26203D01*
X49200Y-26135D01*
X48992Y-26135D01*
X48800Y-26214D01*
X48768Y-26246D01*
X48768Y-22589D01*
X48768Y-21467D01*
X48336Y-21467D01*
X48273Y-21529D01*
X48273Y-22351D01*
X48273Y-22451D01*
X48311Y-22543D01*
X48382Y-22613D01*
X48473Y-22651D01*
X48706Y-22651D01*
X48768Y-22589D01*
X48768Y-26246D01*
X48735Y-26279D01*
X48735Y-26015D01*
X48742Y-25998D01*
X48742Y-25947D01*
X48742Y-25497D01*
X48735Y-25480D01*
X48735Y-25333D01*
X48717Y-25239D01*
X48663Y-25159D01*
X48593Y-25112D01*
X48593Y-25112D01*
X48594Y-25112D01*
X48613Y-25064D01*
X48613Y-25013D01*
X48613Y-24383D01*
X48594Y-24336D01*
X48557Y-24300D01*
X48510Y-24280D01*
X48459Y-24280D01*
X48264Y-24280D01*
X48278Y-24248D01*
X48278Y-24197D01*
X48278Y-23114D01*
X48258Y-23066D01*
X48222Y-23030D01*
X48175Y-23011D01*
X48123Y-23011D01*
X47943Y-23011D01*
X47943Y-23009D01*
X47929Y-22937D01*
X47888Y-22877D01*
X47827Y-22836D01*
X47755Y-22822D01*
X47733Y-22822D01*
X47589Y-22678D01*
X47589Y-22531D01*
X47589Y-22530D01*
X47683Y-22530D01*
X47730Y-22510D01*
X47766Y-22474D01*
X47786Y-22427D01*
X47786Y-22375D01*
X47786Y-20719D01*
X48273Y-20719D01*
X48273Y-21304D01*
X48336Y-21367D01*
X48768Y-21367D01*
X48768Y-21359D01*
X48868Y-21359D01*
X48868Y-21367D01*
X49301Y-21367D01*
X49364Y-21304D01*
X49364Y-20719D01*
X51659Y-20719D01*
X51659Y-21304D01*
X51721Y-21367D01*
X52154Y-21367D01*
X52154Y-21359D01*
X52254Y-21359D01*
X52254Y-21367D01*
X52687Y-21367D01*
X52750Y-21304D01*
X52750Y-20719D01*
X53237Y-20719D01*
X53237Y-22427D01*
X53257Y-22474D01*
X53293Y-22510D01*
X53340Y-22530D01*
X53357Y-22530D01*
X53295Y-22592D01*
X53254Y-22653D01*
X53240Y-22725D01*
X53240Y-23092D01*
X53168Y-23092D01*
X53005Y-23159D01*
X52880Y-23284D01*
X52812Y-23447D01*
X52812Y-23623D01*
X52879Y-23786D01*
X53004Y-23911D01*
X53167Y-23979D01*
X53344Y-23979D01*
X53507Y-23912D01*
X53540Y-23879D01*
X53552Y-23909D01*
X53588Y-23945D01*
X53635Y-23964D01*
X53687Y-23964D01*
X53923Y-23964D01*
X53970Y-23945D01*
X54006Y-23909D01*
X54026Y-23861D01*
X54026Y-23826D01*
X54646Y-23826D01*
X54646Y-24072D01*
X54665Y-24119D01*
X54702Y-24156D01*
X54749Y-24175D01*
X54800Y-24175D01*
X55250Y-24175D01*
X55297Y-24156D01*
X55334Y-24119D01*
X55353Y-24072D01*
X55353Y-24021D01*
X55353Y-23771D01*
X55334Y-23724D01*
X55297Y-23687D01*
X55297Y-23687D01*
X55366Y-23658D01*
X55436Y-23588D01*
X55475Y-23496D01*
X55475Y-23434D01*
X55475Y-23209D01*
X55475Y-23147D01*
X55436Y-23055D01*
X55366Y-22985D01*
X55274Y-22947D01*
X55175Y-22947D01*
X55112Y-22947D01*
X55050Y-23009D01*
X55050Y-23272D01*
X55412Y-23272D01*
X55475Y-23209D01*
X55475Y-23434D01*
X55412Y-23372D01*
X55050Y-23372D01*
X55050Y-23379D01*
X54989Y-23379D01*
X54989Y-22589D01*
X54989Y-21467D01*
X54556Y-21467D01*
X54494Y-21529D01*
X54494Y-22351D01*
X54494Y-22451D01*
X54532Y-22543D01*
X54602Y-22613D01*
X54694Y-22651D01*
X54926Y-22651D01*
X54989Y-22589D01*
X54989Y-23379D01*
X54950Y-23379D01*
X54950Y-23372D01*
X54950Y-23272D01*
X54950Y-23009D01*
X54887Y-22947D01*
X54824Y-22947D01*
X54725Y-22947D01*
X54633Y-22985D01*
X54563Y-23055D01*
X54525Y-23147D01*
X54525Y-23209D01*
X54587Y-23272D01*
X54950Y-23272D01*
X54950Y-23372D01*
X54587Y-23372D01*
X54525Y-23434D01*
X54525Y-23451D01*
X54026Y-23451D01*
X54026Y-23416D01*
X54006Y-23369D01*
X53970Y-23332D01*
X53923Y-23313D01*
X53871Y-23313D01*
X53644Y-23313D01*
X53632Y-23284D01*
X53615Y-23267D01*
X53615Y-22803D01*
X53754Y-22664D01*
X53795Y-22603D01*
X53809Y-22531D01*
X53809Y-22530D01*
X53903Y-22530D01*
X53950Y-22510D01*
X53987Y-22474D01*
X54006Y-22427D01*
X54006Y-22375D01*
X54006Y-20719D01*
X54494Y-20719D01*
X54494Y-21304D01*
X54556Y-21367D01*
X54989Y-21367D01*
X54989Y-21359D01*
X55089Y-21359D01*
X55089Y-21367D01*
X55522Y-21367D01*
X55584Y-21304D01*
X55584Y-20719D01*
X56502Y-20719D01*
X56334Y-20886D01*
X56170Y-21281D01*
X56169Y-21708D01*
X56333Y-22103D01*
X56634Y-22406D01*
X57029Y-22569D01*
X57456Y-22570D01*
X57851Y-22407D01*
X58020Y-22238D01*
X58020Y-29974D01*
X58020Y-29974D01*
G37*
G54D39*
X58020Y-29974D02*
X57753Y-29706D01*
X57809Y-29669D01*
X57902Y-29530D01*
X57934Y-29366D01*
X57934Y-28366D01*
X57902Y-28202D01*
X57809Y-28062D01*
X57670Y-27970D01*
X57506Y-27937D01*
X57218Y-27937D01*
X57188Y-27943D01*
X57188Y-25497D01*
X57188Y-25446D01*
X57188Y-24580D01*
X57168Y-24533D01*
X57132Y-24497D01*
X57085Y-24477D01*
X57034Y-24477D01*
X56434Y-24477D01*
X56386Y-24497D01*
X56350Y-24533D01*
X56331Y-24580D01*
X56331Y-24631D01*
X56331Y-25497D01*
X56350Y-25545D01*
X56386Y-25581D01*
X56434Y-25601D01*
X56485Y-25601D01*
X57085Y-25601D01*
X57132Y-25581D01*
X57168Y-25545D01*
X57188Y-25497D01*
X57188Y-27943D01*
X57054Y-27970D01*
X56915Y-28062D01*
X56822Y-28202D01*
X56789Y-28366D01*
X56822Y-28530D01*
X56915Y-28669D01*
X57054Y-28762D01*
X57218Y-28794D01*
X57506Y-28794D01*
X57670Y-28762D01*
X57809Y-28669D01*
X57902Y-28530D01*
X57934Y-28366D01*
X57934Y-29366D01*
X57902Y-29202D01*
X57809Y-29062D01*
X57670Y-28970D01*
X57506Y-28937D01*
X57218Y-28937D01*
X57054Y-28970D01*
X56915Y-29062D01*
X56822Y-29202D01*
X56789Y-29366D01*
X56822Y-29530D01*
X56915Y-29669D01*
X57054Y-29762D01*
X57174Y-29786D01*
X57174Y-29796D01*
X57188Y-29868D01*
X57229Y-29928D01*
X57242Y-29937D01*
X57218Y-29937D01*
X57054Y-29970D01*
X56915Y-30062D01*
X56837Y-30178D01*
X56132Y-30178D01*
X56060Y-30192D01*
X55999Y-30233D01*
X55071Y-31160D01*
X55069Y-31160D01*
X55045Y-31150D01*
X54994Y-31150D01*
X54757Y-31150D01*
X54757Y-31057D01*
X54695Y-30994D01*
X54473Y-30994D01*
X54473Y-31002D01*
X54404Y-31002D01*
X54404Y-30994D01*
X54381Y-30994D01*
X54381Y-30894D01*
X54404Y-30894D01*
X54404Y-30887D01*
X54473Y-30887D01*
X54473Y-30894D01*
X54695Y-30894D01*
X54757Y-30832D01*
X54757Y-30717D01*
X54719Y-30626D01*
X54649Y-30555D01*
X54587Y-30529D01*
X54621Y-30515D01*
X54692Y-30445D01*
X54730Y-30353D01*
X54730Y-30254D01*
X54730Y-30191D01*
X54667Y-30128D01*
X54405Y-30128D01*
X54405Y-30136D01*
X54305Y-30136D01*
X54305Y-30128D01*
X54297Y-30128D01*
X54297Y-30028D01*
X54305Y-30028D01*
X54305Y-30020D01*
X54405Y-30020D01*
X54405Y-30028D01*
X54667Y-30028D01*
X54730Y-29966D01*
X54730Y-29903D01*
X54730Y-29804D01*
X54692Y-29712D01*
X54662Y-29682D01*
X54738Y-29683D01*
X54901Y-29615D01*
X55026Y-29490D01*
X55093Y-29327D01*
X55093Y-29151D01*
X55067Y-29087D01*
X55292Y-28863D01*
X55332Y-28802D01*
X55347Y-28730D01*
X55347Y-27912D01*
X55397Y-27912D01*
X55647Y-27912D01*
X55694Y-27893D01*
X55730Y-27856D01*
X55750Y-27809D01*
X55750Y-27758D01*
X55750Y-27746D01*
X55751Y-27746D01*
X55823Y-27732D01*
X55884Y-27691D01*
X55925Y-27630D01*
X55939Y-27559D01*
X55939Y-27101D01*
X56164Y-26877D01*
X56204Y-26816D01*
X56219Y-26744D01*
X56219Y-26743D01*
X56371Y-26743D01*
X56418Y-26723D01*
X56455Y-26687D01*
X56474Y-26639D01*
X56474Y-26588D01*
X56474Y-25879D01*
X56455Y-25832D01*
X56418Y-25796D01*
X56371Y-25776D01*
X56320Y-25776D01*
X56188Y-25776D01*
X56188Y-25183D01*
X56188Y-24895D01*
X56155Y-24731D01*
X56063Y-24592D01*
X55923Y-24499D01*
X55759Y-24466D01*
X55595Y-24499D01*
X55584Y-24506D01*
X55584Y-22451D01*
X55584Y-22351D01*
X55584Y-21529D01*
X55522Y-21467D01*
X55089Y-21467D01*
X55089Y-22589D01*
X55151Y-22651D01*
X55384Y-22651D01*
X55476Y-22613D01*
X55546Y-22543D01*
X55584Y-22451D01*
X55584Y-24506D01*
X55456Y-24592D01*
X55363Y-24731D01*
X55331Y-24895D01*
X55331Y-25183D01*
X55363Y-25347D01*
X55456Y-25486D01*
X55595Y-25579D01*
X55759Y-25612D01*
X55923Y-25579D01*
X56063Y-25486D01*
X56155Y-25347D01*
X56188Y-25183D01*
X56188Y-25776D01*
X55691Y-25776D01*
X55644Y-25796D01*
X55607Y-25832D01*
X55588Y-25879D01*
X55588Y-25930D01*
X55588Y-26639D01*
X55607Y-26687D01*
X55644Y-26723D01*
X55691Y-26743D01*
X55742Y-26743D01*
X55767Y-26743D01*
X55619Y-26891D01*
X55578Y-26952D01*
X55564Y-27023D01*
X55564Y-27205D01*
X55346Y-27205D01*
X55336Y-27209D01*
X55332Y-27191D01*
X55292Y-27130D01*
X54923Y-26761D01*
X54895Y-26743D01*
X55253Y-26743D01*
X55300Y-26723D01*
X55337Y-26687D01*
X55356Y-26639D01*
X55356Y-26588D01*
X55356Y-25879D01*
X55337Y-25832D01*
X55300Y-25796D01*
X55253Y-25776D01*
X55202Y-25776D01*
X55101Y-25776D01*
X55101Y-25775D01*
X55086Y-25703D01*
X55070Y-25679D01*
X55070Y-25441D01*
X55134Y-25415D01*
X55259Y-25291D01*
X55326Y-25128D01*
X55326Y-24951D01*
X55259Y-24788D01*
X55134Y-24663D01*
X54971Y-24595D01*
X54795Y-24595D01*
X54632Y-24662D01*
X54507Y-24787D01*
X54439Y-24950D01*
X54439Y-25127D01*
X54506Y-25290D01*
X54631Y-25415D01*
X54695Y-25441D01*
X54695Y-25744D01*
X54701Y-25776D01*
X54573Y-25776D01*
X54526Y-25796D01*
X54489Y-25832D01*
X54470Y-25879D01*
X54470Y-25930D01*
X54470Y-26431D01*
X54188Y-26149D01*
X54188Y-25968D01*
X54198Y-25964D01*
X54234Y-25927D01*
X54254Y-25880D01*
X54254Y-25829D01*
X54254Y-25379D01*
X54234Y-25331D01*
X54222Y-25319D01*
X54287Y-25253D01*
X54328Y-25193D01*
X54328Y-25193D01*
X54342Y-25121D01*
X54342Y-24778D01*
X54345Y-24777D01*
X54381Y-24741D01*
X54401Y-24693D01*
X54401Y-24642D01*
X54401Y-24248D01*
X54381Y-24201D01*
X54345Y-24164D01*
X54298Y-24145D01*
X54246Y-24145D01*
X54010Y-24145D01*
X53963Y-24164D01*
X53927Y-24201D01*
X53907Y-24248D01*
X53907Y-24299D01*
X53907Y-24693D01*
X53927Y-24741D01*
X53963Y-24777D01*
X53966Y-24778D01*
X53966Y-25043D01*
X53867Y-25142D01*
X53827Y-25203D01*
X53812Y-25274D01*
X53812Y-25291D01*
X53802Y-25295D01*
X53772Y-25326D01*
X53772Y-24717D01*
X53772Y-24618D01*
X53772Y-24583D01*
X53772Y-24358D01*
X53772Y-24323D01*
X53772Y-24224D01*
X53734Y-24132D01*
X53664Y-24062D01*
X53572Y-24024D01*
X53517Y-24024D01*
X53454Y-24086D01*
X53454Y-24421D01*
X53710Y-24421D01*
X53772Y-24358D01*
X53772Y-24583D01*
X53710Y-24521D01*
X53454Y-24521D01*
X53454Y-24855D01*
X53517Y-24918D01*
X53572Y-24918D01*
X53664Y-24880D01*
X53734Y-24809D01*
X53772Y-24717D01*
X53772Y-25326D01*
X53766Y-25331D01*
X53766Y-25332D01*
X53737Y-25263D01*
X53667Y-25192D01*
X53575Y-25154D01*
X53513Y-25154D01*
X53450Y-25217D01*
X53450Y-25579D01*
X53458Y-25579D01*
X53458Y-25679D01*
X53450Y-25679D01*
X53450Y-26042D01*
X53513Y-26104D01*
X53575Y-26104D01*
X53667Y-26066D01*
X53737Y-25996D01*
X53766Y-25927D01*
X53766Y-25927D01*
X53802Y-25964D01*
X53812Y-25968D01*
X53812Y-26227D01*
X53827Y-26299D01*
X53867Y-26360D01*
X54534Y-27027D01*
X54595Y-27067D01*
X54667Y-27082D01*
X54712Y-27082D01*
X54835Y-27205D01*
X54746Y-27205D01*
X54698Y-27224D01*
X54662Y-27261D01*
X54643Y-27308D01*
X54643Y-27359D01*
X54643Y-27371D01*
X54641Y-27371D01*
X54569Y-27385D01*
X54509Y-27426D01*
X53354Y-28580D01*
X53354Y-24855D01*
X53354Y-24521D01*
X53354Y-24421D01*
X53354Y-24086D01*
X53292Y-24024D01*
X53236Y-24024D01*
X53144Y-24062D01*
X53074Y-24132D01*
X53036Y-24224D01*
X53036Y-24323D01*
X53036Y-24358D01*
X53099Y-24421D01*
X53354Y-24421D01*
X53354Y-24521D01*
X53099Y-24521D01*
X53036Y-24583D01*
X53036Y-24618D01*
X53036Y-24717D01*
X53074Y-24809D01*
X53144Y-24880D01*
X53236Y-24918D01*
X53292Y-24918D01*
X53354Y-24855D01*
X53354Y-28580D01*
X53350Y-28584D01*
X53350Y-26042D01*
X53350Y-25679D01*
X53350Y-25579D01*
X53350Y-25217D01*
X53288Y-25154D01*
X53226Y-25154D01*
X53134Y-25192D01*
X53063Y-25263D01*
X53025Y-25355D01*
X53025Y-25454D01*
X53025Y-25517D01*
X53088Y-25579D01*
X53350Y-25579D01*
X53350Y-25679D01*
X53088Y-25679D01*
X53025Y-25742D01*
X53025Y-25805D01*
X53025Y-25904D01*
X53063Y-25996D01*
X53134Y-26066D01*
X53226Y-26104D01*
X53288Y-26104D01*
X53350Y-26042D01*
X53350Y-28584D01*
X53134Y-28800D01*
X53094Y-28861D01*
X53079Y-28933D01*
X53079Y-29662D01*
X52983Y-29702D01*
X52858Y-29826D01*
X52791Y-29990D01*
X52791Y-30166D01*
X52858Y-30329D01*
X52983Y-30454D01*
X53079Y-30494D01*
X53079Y-31150D01*
X53064Y-31150D01*
X53017Y-31170D01*
X52981Y-31206D01*
X52961Y-31253D01*
X52961Y-31305D01*
X52961Y-31416D01*
X52769Y-31416D01*
X52732Y-31379D01*
X52758Y-31316D01*
X52758Y-31140D01*
X52750Y-31118D01*
X52750Y-22451D01*
X52750Y-22351D01*
X52750Y-21529D01*
X52687Y-21467D01*
X52254Y-21467D01*
X52254Y-22589D01*
X52317Y-22651D01*
X52549Y-22651D01*
X52641Y-22613D01*
X52711Y-22543D01*
X52750Y-22451D01*
X52750Y-31118D01*
X52691Y-30976D01*
X52566Y-30851D01*
X52403Y-30784D01*
X52275Y-30784D01*
X52275Y-27205D01*
X52260Y-27133D01*
X52260Y-27133D01*
X52220Y-27072D01*
X52154Y-27007D01*
X52154Y-22589D01*
X52154Y-21467D01*
X51721Y-21467D01*
X51659Y-21529D01*
X51659Y-22351D01*
X51659Y-22451D01*
X51697Y-22543D01*
X51767Y-22613D01*
X51859Y-22651D01*
X52092Y-22651D01*
X52154Y-22589D01*
X52154Y-27007D01*
X52085Y-26938D01*
X52086Y-26937D01*
X52086Y-26886D01*
X52086Y-26636D01*
X52066Y-26588D01*
X52030Y-26552D01*
X51982Y-26532D01*
X51931Y-26532D01*
X51596Y-26532D01*
X51596Y-23909D01*
X51563Y-23745D01*
X51470Y-23606D01*
X51331Y-23513D01*
X51167Y-23480D01*
X50879Y-23480D01*
X50715Y-23513D01*
X50576Y-23606D01*
X50483Y-23745D01*
X50450Y-23909D01*
X50483Y-24073D01*
X50576Y-24212D01*
X50715Y-24305D01*
X50879Y-24338D01*
X51167Y-24338D01*
X51331Y-24305D01*
X51470Y-24212D01*
X51563Y-24073D01*
X51596Y-23909D01*
X51596Y-26532D01*
X51585Y-26532D01*
X51585Y-25235D01*
X51585Y-25183D01*
X51585Y-24583D01*
X51565Y-24536D01*
X51529Y-24500D01*
X51482Y-24480D01*
X51431Y-24480D01*
X50565Y-24480D01*
X50517Y-24500D01*
X50481Y-24536D01*
X50461Y-24583D01*
X50461Y-24635D01*
X50461Y-25235D01*
X50481Y-25282D01*
X50517Y-25318D01*
X50565Y-25338D01*
X50616Y-25338D01*
X51482Y-25338D01*
X51529Y-25318D01*
X51565Y-25282D01*
X51585Y-25235D01*
X51585Y-26532D01*
X51481Y-26532D01*
X51434Y-26552D01*
X51398Y-26588D01*
X51393Y-26598D01*
X51375Y-26598D01*
X51374Y-26598D01*
X51303Y-26583D01*
X51301Y-26583D01*
X51301Y-26521D01*
X51282Y-26473D01*
X51245Y-26437D01*
X51198Y-26417D01*
X51147Y-26417D01*
X50897Y-26417D01*
X50850Y-26437D01*
X50813Y-26473D01*
X50794Y-26521D01*
X50794Y-26572D01*
X50794Y-27022D01*
X50813Y-27069D01*
X50850Y-27105D01*
X50897Y-27125D01*
X50948Y-27125D01*
X51198Y-27125D01*
X51245Y-27105D01*
X51282Y-27069D01*
X51301Y-27022D01*
X51301Y-26971D01*
X51318Y-26974D01*
X51393Y-26974D01*
X51398Y-26984D01*
X51434Y-27020D01*
X51434Y-27020D01*
X51365Y-27049D01*
X51295Y-27120D01*
X51257Y-27211D01*
X51257Y-27274D01*
X51319Y-27336D01*
X51682Y-27336D01*
X51682Y-27328D01*
X51782Y-27328D01*
X51782Y-27336D01*
X51790Y-27336D01*
X51790Y-27436D01*
X51782Y-27436D01*
X51782Y-27699D01*
X51844Y-27761D01*
X51899Y-27761D01*
X51899Y-30748D01*
X51726Y-30921D01*
X51686Y-30982D01*
X51682Y-31002D01*
X51682Y-27699D01*
X51682Y-27436D01*
X51319Y-27436D01*
X51257Y-27499D01*
X51257Y-27561D01*
X51295Y-27653D01*
X51365Y-27723D01*
X51457Y-27761D01*
X51557Y-27761D01*
X51619Y-27761D01*
X51682Y-27699D01*
X51682Y-31002D01*
X51671Y-31054D01*
X51671Y-32178D01*
X51233Y-31739D01*
X51233Y-28629D01*
X51219Y-28558D01*
X51178Y-28497D01*
X50519Y-27837D01*
X50458Y-27797D01*
X50386Y-27782D01*
X49488Y-27782D01*
X49464Y-27787D01*
X50204Y-27047D01*
X50213Y-27069D01*
X50250Y-27105D01*
X50297Y-27125D01*
X50348Y-27125D01*
X50598Y-27125D01*
X50645Y-27105D01*
X50682Y-27069D01*
X50701Y-27022D01*
X50701Y-26971D01*
X50701Y-26521D01*
X50682Y-26473D01*
X50645Y-26437D01*
X50598Y-26417D01*
X50547Y-26417D01*
X50297Y-26417D01*
X50250Y-26437D01*
X50213Y-26473D01*
X50194Y-26521D01*
X50194Y-26572D01*
X50194Y-26583D01*
X50192Y-26583D01*
X50121Y-26598D01*
X50060Y-26638D01*
X50019Y-26699D01*
X50019Y-26701D01*
X48882Y-27837D01*
X48842Y-27898D01*
X48827Y-27970D01*
X48827Y-27974D01*
X48785Y-27991D01*
X48779Y-27997D01*
X48773Y-27991D01*
X48726Y-27972D01*
X48674Y-27972D01*
X48360Y-27972D01*
X48313Y-27991D01*
X48307Y-27998D01*
X48300Y-27991D01*
X48253Y-27972D01*
X48201Y-27972D01*
X47887Y-27972D01*
X47840Y-27991D01*
X47834Y-27997D01*
X47828Y-27991D01*
X47781Y-27972D01*
X47729Y-27972D01*
X47415Y-27972D01*
X47368Y-27991D01*
X47362Y-27998D01*
X47355Y-27991D01*
X47308Y-27972D01*
X47256Y-27972D01*
X46942Y-27972D01*
X46895Y-27991D01*
X46889Y-27997D01*
X46883Y-27991D01*
X46836Y-27972D01*
X46784Y-27972D01*
X46676Y-27972D01*
X46676Y-27033D01*
X46676Y-26982D01*
X46676Y-26116D01*
X46657Y-26068D01*
X46620Y-26032D01*
X46573Y-26013D01*
X46522Y-26013D01*
X46476Y-26013D01*
X46476Y-25054D01*
X46476Y-24817D01*
X46476Y-24592D01*
X46476Y-24355D01*
X46438Y-24263D01*
X46368Y-24193D01*
X46276Y-24155D01*
X46177Y-24155D01*
X45939Y-24155D01*
X45876Y-24217D01*
X45876Y-24655D01*
X46414Y-24655D01*
X46476Y-24592D01*
X46476Y-24817D01*
X46414Y-24755D01*
X45876Y-24755D01*
X45876Y-25192D01*
X45939Y-25255D01*
X46177Y-25255D01*
X46276Y-25255D01*
X46368Y-25217D01*
X46438Y-25146D01*
X46476Y-25054D01*
X46476Y-26013D01*
X45922Y-26013D01*
X45875Y-26032D01*
X45838Y-26068D01*
X45819Y-26116D01*
X45819Y-26167D01*
X45819Y-27033D01*
X45838Y-27080D01*
X45875Y-27116D01*
X45922Y-27136D01*
X45973Y-27136D01*
X46573Y-27136D01*
X46620Y-27116D01*
X46657Y-27080D01*
X46676Y-27033D01*
X46676Y-27972D01*
X46470Y-27972D01*
X46423Y-27991D01*
X46417Y-27997D01*
X46411Y-27991D01*
X46364Y-27972D01*
X46312Y-27972D01*
X45998Y-27972D01*
X45951Y-27991D01*
X45945Y-27998D01*
X45938Y-27991D01*
X45891Y-27972D01*
X45839Y-27972D01*
X45776Y-27972D01*
X45776Y-25192D01*
X45776Y-24755D01*
X45776Y-24655D01*
X45776Y-24217D01*
X45714Y-24155D01*
X45476Y-24155D01*
X45377Y-24155D01*
X45285Y-24193D01*
X45214Y-24263D01*
X45176Y-24355D01*
X45176Y-24592D01*
X45239Y-24655D01*
X45776Y-24655D01*
X45776Y-24755D01*
X45239Y-24755D01*
X45176Y-24817D01*
X45176Y-25054D01*
X45214Y-25146D01*
X45285Y-25217D01*
X45377Y-25255D01*
X45476Y-25255D01*
X45714Y-25255D01*
X45776Y-25192D01*
X45776Y-27972D01*
X45532Y-27972D01*
X45639Y-27864D01*
X45707Y-27701D01*
X45707Y-27524D01*
X45676Y-27449D01*
X45676Y-26718D01*
X45676Y-26430D01*
X45644Y-26266D01*
X45551Y-26127D01*
X45412Y-26034D01*
X45248Y-26002D01*
X45083Y-26034D01*
X44944Y-26127D01*
X44851Y-26266D01*
X44819Y-26430D01*
X44819Y-26718D01*
X44851Y-26882D01*
X44944Y-27021D01*
X45083Y-27114D01*
X45248Y-27147D01*
X45412Y-27114D01*
X45551Y-27021D01*
X45644Y-26882D01*
X45676Y-26718D01*
X45676Y-27449D01*
X45640Y-27361D01*
X45515Y-27236D01*
X45352Y-27169D01*
X45176Y-27169D01*
X45013Y-27236D01*
X44888Y-27361D01*
X44820Y-27524D01*
X44820Y-27700D01*
X44887Y-27863D01*
X45012Y-27988D01*
X45012Y-27989D01*
X45006Y-27991D01*
X45000Y-27998D01*
X44993Y-27991D01*
X44946Y-27972D01*
X44894Y-27972D01*
X44580Y-27972D01*
X44533Y-27991D01*
X44527Y-27997D01*
X44521Y-27991D01*
X44474Y-27972D01*
X44422Y-27972D01*
X44108Y-27972D01*
X44061Y-27991D01*
X44025Y-28027D01*
X44005Y-28075D01*
X44005Y-28126D01*
X44005Y-29012D01*
X44025Y-29059D01*
X44061Y-29095D01*
X44108Y-29115D01*
X44160Y-29115D01*
X44474Y-29115D01*
X44521Y-29095D01*
X44527Y-29089D01*
X44533Y-29095D01*
X44580Y-29115D01*
X44632Y-29115D01*
X44946Y-29115D01*
X44993Y-29095D01*
X45000Y-29089D01*
X45006Y-29095D01*
X45053Y-29115D01*
X45105Y-29115D01*
X45419Y-29115D01*
X45466Y-29095D01*
X45472Y-29089D01*
X45478Y-29095D01*
X45525Y-29115D01*
X45577Y-29115D01*
X45891Y-29115D01*
X45938Y-29095D01*
X45945Y-29089D01*
X45951Y-29095D01*
X45998Y-29115D01*
X46050Y-29115D01*
X46364Y-29115D01*
X46411Y-29095D01*
X46417Y-29089D01*
X46423Y-29095D01*
X46470Y-29115D01*
X46522Y-29115D01*
X46836Y-29115D01*
X46883Y-29095D01*
X46889Y-29089D01*
X46895Y-29095D01*
X46942Y-29115D01*
X46994Y-29115D01*
X47308Y-29115D01*
X47355Y-29095D01*
X47362Y-29089D01*
X47368Y-29095D01*
X47415Y-29115D01*
X47467Y-29115D01*
X47781Y-29115D01*
X47828Y-29095D01*
X47834Y-29089D01*
X47840Y-29095D01*
X47882Y-29113D01*
X47882Y-29116D01*
X47897Y-29188D01*
X47937Y-29249D01*
X47998Y-29290D01*
X48070Y-29304D01*
X48543Y-29304D01*
X48615Y-29290D01*
X48676Y-29249D01*
X48717Y-29188D01*
X48731Y-29116D01*
X48731Y-29113D01*
X48773Y-29095D01*
X48779Y-29089D01*
X48785Y-29095D01*
X48832Y-29115D01*
X48884Y-29115D01*
X49198Y-29115D01*
X49245Y-29095D01*
X49252Y-29089D01*
X49258Y-29095D01*
X49305Y-29115D01*
X49357Y-29115D01*
X49671Y-29115D01*
X49718Y-29095D01*
X49754Y-29059D01*
X49774Y-29012D01*
X49774Y-28961D01*
X49774Y-28158D01*
X50308Y-28158D01*
X50407Y-28257D01*
X50230Y-28257D01*
X50183Y-28277D01*
X50147Y-28313D01*
X50127Y-28360D01*
X50127Y-28411D01*
X50127Y-29118D01*
X50146Y-29163D01*
X50003Y-29163D01*
X49956Y-29182D01*
X49920Y-29218D01*
X49900Y-29266D01*
X49900Y-29317D01*
X49900Y-29468D01*
X49887Y-29473D01*
X49817Y-29544D01*
X49779Y-29636D01*
X49779Y-29730D01*
X49842Y-29792D01*
X50422Y-29792D01*
X50422Y-29784D01*
X50522Y-29784D01*
X50522Y-29792D01*
X50530Y-29792D01*
X50530Y-29892D01*
X50522Y-29892D01*
X50522Y-29900D01*
X50422Y-29900D01*
X50422Y-29892D01*
X49842Y-29892D01*
X49779Y-29955D01*
X49779Y-30049D01*
X49817Y-30141D01*
X49887Y-30211D01*
X49900Y-30217D01*
X49900Y-30223D01*
X49900Y-30537D01*
X49920Y-30584D01*
X49926Y-30590D01*
X49920Y-30596D01*
X49900Y-30644D01*
X49900Y-30695D01*
X49900Y-31009D01*
X49920Y-31056D01*
X49926Y-31062D01*
X49920Y-31068D01*
X49900Y-31116D01*
X49900Y-31167D01*
X49900Y-31481D01*
X49920Y-31528D01*
X49926Y-31535D01*
X49920Y-31541D01*
X49900Y-31589D01*
X49900Y-31640D01*
X49900Y-31909D01*
X49887Y-31914D01*
X49817Y-31985D01*
X49779Y-32077D01*
X49779Y-32171D01*
X49842Y-32233D01*
X50422Y-32233D01*
X50422Y-32225D01*
X50522Y-32225D01*
X50522Y-32233D01*
X51103Y-32233D01*
X51149Y-32187D01*
X52049Y-33086D01*
X52110Y-33127D01*
X52182Y-33141D01*
X53377Y-33141D01*
X53205Y-33313D01*
X53165Y-33374D01*
X53150Y-33445D01*
X53150Y-33954D01*
X51224Y-35880D01*
X51224Y-35872D01*
X51165Y-35729D01*
X51165Y-32490D01*
X51165Y-32396D01*
X51103Y-32333D01*
X50522Y-32333D01*
X50522Y-32341D01*
X50422Y-32341D01*
X50422Y-32333D01*
X49842Y-32333D01*
X49779Y-32396D01*
X49779Y-32490D01*
X49817Y-32582D01*
X49887Y-32652D01*
X49900Y-32658D01*
X49900Y-32859D01*
X49920Y-32906D01*
X49956Y-32942D01*
X50003Y-32962D01*
X50055Y-32962D01*
X50145Y-32962D01*
X50127Y-33006D01*
X50127Y-33057D01*
X50127Y-33765D01*
X50147Y-33812D01*
X50183Y-33848D01*
X50230Y-33868D01*
X50282Y-33868D01*
X50636Y-33868D01*
X50683Y-33848D01*
X50719Y-33812D01*
X50739Y-33765D01*
X50739Y-33714D01*
X50739Y-33006D01*
X50721Y-32962D01*
X50941Y-32962D01*
X50988Y-32942D01*
X51024Y-32906D01*
X51044Y-32859D01*
X51044Y-32808D01*
X51044Y-32658D01*
X51057Y-32652D01*
X51127Y-32582D01*
X51165Y-32490D01*
X51165Y-35729D01*
X51157Y-35709D01*
X51032Y-35584D01*
X50869Y-35516D01*
X50692Y-35516D01*
X50529Y-35584D01*
X50404Y-35708D01*
X50337Y-35871D01*
X50336Y-36048D01*
X50368Y-36124D01*
X50357Y-36113D01*
X50194Y-36046D01*
X50018Y-36046D01*
X49926Y-36083D01*
X49926Y-34881D01*
X49926Y-34781D01*
X49926Y-34718D01*
X49926Y-34493D01*
X49926Y-34431D01*
X49926Y-34331D01*
X49888Y-34239D01*
X49837Y-34187D01*
X49857Y-34167D01*
X49895Y-34075D01*
X49895Y-33976D01*
X49895Y-33695D01*
X49895Y-33470D01*
X49895Y-33189D01*
X49895Y-33090D01*
X49857Y-32998D01*
X49787Y-32927D01*
X49695Y-32889D01*
X49601Y-32889D01*
X49538Y-32952D01*
X49538Y-33532D01*
X49833Y-33532D01*
X49895Y-33470D01*
X49895Y-33695D01*
X49833Y-33632D01*
X49538Y-33632D01*
X49538Y-33640D01*
X49438Y-33640D01*
X49438Y-33632D01*
X49430Y-33632D01*
X49430Y-33532D01*
X49438Y-33532D01*
X49438Y-32952D01*
X49376Y-32889D01*
X49281Y-32889D01*
X49189Y-32927D01*
X49119Y-32998D01*
X49114Y-33011D01*
X48832Y-33011D01*
X48785Y-33030D01*
X48779Y-33036D01*
X48773Y-33030D01*
X48726Y-33011D01*
X48674Y-33011D01*
X48360Y-33011D01*
X48313Y-33030D01*
X48307Y-33037D01*
X48300Y-33030D01*
X48253Y-33011D01*
X48201Y-33011D01*
X47887Y-33011D01*
X47840Y-33030D01*
X47834Y-33036D01*
X47828Y-33030D01*
X47781Y-33011D01*
X47729Y-33011D01*
X47415Y-33011D01*
X47368Y-33030D01*
X47362Y-33037D01*
X47355Y-33030D01*
X47308Y-33011D01*
X47256Y-33011D01*
X46942Y-33011D01*
X46895Y-33030D01*
X46889Y-33036D01*
X46883Y-33030D01*
X46836Y-33011D01*
X46784Y-33011D01*
X46470Y-33011D01*
X46423Y-33030D01*
X46417Y-33036D01*
X46411Y-33030D01*
X46364Y-33011D01*
X46312Y-33011D01*
X45998Y-33011D01*
X45951Y-33030D01*
X45945Y-33037D01*
X45938Y-33030D01*
X45891Y-33011D01*
X45839Y-33011D01*
X45525Y-33011D01*
X45478Y-33030D01*
X45472Y-33036D01*
X45466Y-33030D01*
X45419Y-33011D01*
X45367Y-33011D01*
X45053Y-33011D01*
X45006Y-33030D01*
X45000Y-33037D01*
X44993Y-33030D01*
X44946Y-33011D01*
X44894Y-33011D01*
X44665Y-33011D01*
X44660Y-32998D01*
X44590Y-32927D01*
X44498Y-32889D01*
X44404Y-32889D01*
X44341Y-32952D01*
X44341Y-33532D01*
X44349Y-33532D01*
X44349Y-33632D01*
X44341Y-33632D01*
X44341Y-34213D01*
X44404Y-34275D01*
X44498Y-34275D01*
X44590Y-34237D01*
X44660Y-34167D01*
X44665Y-34154D01*
X44946Y-34154D01*
X44993Y-34134D01*
X45000Y-34128D01*
X45006Y-34134D01*
X45053Y-34154D01*
X45105Y-34154D01*
X45419Y-34154D01*
X45466Y-34134D01*
X45472Y-34128D01*
X45478Y-34134D01*
X45520Y-34152D01*
X45520Y-34273D01*
X45457Y-34299D01*
X45332Y-34424D01*
X45264Y-34587D01*
X45264Y-34763D01*
X45332Y-34926D01*
X45456Y-35051D01*
X45619Y-35119D01*
X45796Y-35119D01*
X45959Y-35052D01*
X46084Y-34927D01*
X46152Y-34764D01*
X46152Y-34587D01*
X46084Y-34424D01*
X45960Y-34299D01*
X45896Y-34273D01*
X45896Y-34152D01*
X45938Y-34134D01*
X45945Y-34128D01*
X45951Y-34134D01*
X45998Y-34154D01*
X46050Y-34154D01*
X46364Y-34154D01*
X46411Y-34134D01*
X46417Y-34128D01*
X46423Y-34134D01*
X46470Y-34154D01*
X46522Y-34154D01*
X46836Y-34154D01*
X46883Y-34134D01*
X46889Y-34128D01*
X46895Y-34134D01*
X46942Y-34154D01*
X46994Y-34154D01*
X47308Y-34154D01*
X47355Y-34134D01*
X47362Y-34128D01*
X47368Y-34134D01*
X47415Y-34154D01*
X47467Y-34154D01*
X47781Y-34154D01*
X47828Y-34134D01*
X47834Y-34128D01*
X47840Y-34134D01*
X47887Y-34154D01*
X47939Y-34154D01*
X48041Y-34154D01*
X47912Y-34283D01*
X47832Y-34475D01*
X47832Y-34683D01*
X47911Y-34875D01*
X48058Y-35022D01*
X48250Y-35102D01*
X48458Y-35102D01*
X48650Y-35022D01*
X48743Y-34930D01*
X48754Y-34940D01*
X48801Y-34960D01*
X48852Y-34960D01*
X49102Y-34960D01*
X49149Y-34940D01*
X49186Y-34904D01*
X49186Y-34903D01*
X49215Y-34972D01*
X49285Y-35043D01*
X49377Y-35081D01*
X49439Y-35081D01*
X49501Y-35018D01*
X49501Y-34656D01*
X49494Y-34656D01*
X49494Y-34556D01*
X49501Y-34556D01*
X49501Y-34548D01*
X49601Y-34548D01*
X49601Y-34556D01*
X49864Y-34556D01*
X49926Y-34493D01*
X49926Y-34718D01*
X49864Y-34656D01*
X49601Y-34656D01*
X49601Y-35018D01*
X49664Y-35081D01*
X49726Y-35081D01*
X49818Y-35043D01*
X49888Y-34972D01*
X49926Y-34881D01*
X49926Y-36083D01*
X49855Y-36113D01*
X49730Y-36238D01*
X49662Y-36401D01*
X49662Y-36577D01*
X49729Y-36740D01*
X49854Y-36865D01*
X49918Y-36892D01*
X49918Y-38352D01*
X49883Y-38366D01*
X49856Y-38393D01*
X49829Y-38366D01*
X49781Y-38347D01*
X49730Y-38347D01*
X49572Y-38347D01*
X49572Y-36967D01*
X49572Y-36868D01*
X49572Y-36805D01*
X49572Y-36580D01*
X49572Y-36517D01*
X49572Y-36418D01*
X49534Y-36326D01*
X49464Y-36255D01*
X49372Y-36217D01*
X49310Y-36217D01*
X49247Y-36280D01*
X49247Y-36642D01*
X49510Y-36642D01*
X49572Y-36580D01*
X49572Y-36805D01*
X49510Y-36742D01*
X49247Y-36742D01*
X49247Y-37105D01*
X49310Y-37167D01*
X49372Y-37167D01*
X49464Y-37129D01*
X49534Y-37059D01*
X49572Y-36967D01*
X49572Y-38347D01*
X49473Y-38347D01*
X49468Y-38334D01*
X49397Y-38264D01*
X49306Y-38225D01*
X49218Y-38225D01*
X49156Y-38288D01*
X49156Y-38825D01*
X49164Y-38825D01*
X49164Y-38925D01*
X49156Y-38925D01*
X49156Y-38933D01*
X49056Y-38933D01*
X49056Y-38925D01*
X49048Y-38925D01*
X49048Y-38825D01*
X49056Y-38825D01*
X49056Y-38288D01*
X48993Y-38225D01*
X48906Y-38225D01*
X48814Y-38264D01*
X48794Y-38284D01*
X48794Y-37056D01*
X48788Y-37029D01*
X48795Y-37027D01*
X48831Y-36990D01*
X48832Y-36990D01*
X48860Y-37059D01*
X48931Y-37129D01*
X49022Y-37167D01*
X49085Y-37167D01*
X49147Y-37105D01*
X49147Y-36742D01*
X49139Y-36742D01*
X49139Y-36642D01*
X49147Y-36642D01*
X49147Y-36280D01*
X49085Y-36217D01*
X49065Y-36217D01*
X49102Y-36180D01*
X49165Y-36206D01*
X49342Y-36207D01*
X49505Y-36139D01*
X49630Y-36015D01*
X49697Y-35851D01*
X49697Y-35675D01*
X49630Y-35512D01*
X49505Y-35387D01*
X49501Y-35385D01*
X49342Y-35319D01*
X49166Y-35319D01*
X49003Y-35386D01*
X48878Y-35511D01*
X48810Y-35674D01*
X48810Y-35851D01*
X48836Y-35915D01*
X48601Y-36150D01*
X48597Y-36150D01*
X48525Y-36164D01*
X48464Y-36205D01*
X48424Y-36266D01*
X48409Y-36337D01*
X48409Y-36354D01*
X48399Y-36358D01*
X48363Y-36394D01*
X48343Y-36442D01*
X48343Y-36493D01*
X48343Y-36943D01*
X48363Y-36990D01*
X48399Y-37027D01*
X48409Y-37031D01*
X48409Y-37047D01*
X48418Y-37091D01*
X48418Y-38352D01*
X48383Y-38366D01*
X48356Y-38393D01*
X48329Y-38366D01*
X48294Y-38352D01*
X48294Y-38345D01*
X48279Y-38274D01*
X48279Y-38274D01*
X48239Y-38213D01*
X47992Y-37966D01*
X47931Y-37925D01*
X47859Y-37911D01*
X47503Y-37911D01*
X47503Y-36206D01*
X47503Y-36155D01*
X47503Y-35289D01*
X47483Y-35242D01*
X47447Y-35205D01*
X47400Y-35186D01*
X47349Y-35186D01*
X46749Y-35186D01*
X46701Y-35205D01*
X46665Y-35242D01*
X46646Y-35289D01*
X46646Y-35340D01*
X46646Y-36206D01*
X46665Y-36253D01*
X46701Y-36290D01*
X46749Y-36309D01*
X46800Y-36309D01*
X47400Y-36309D01*
X47447Y-36290D01*
X47483Y-36253D01*
X47503Y-36206D01*
X47503Y-37911D01*
X46503Y-37911D01*
X46503Y-35892D01*
X46503Y-35604D01*
X46470Y-35439D01*
X46377Y-35300D01*
X46238Y-35207D01*
X46074Y-35175D01*
X45910Y-35207D01*
X45771Y-35300D01*
X45678Y-35439D01*
X45646Y-35604D01*
X45646Y-35892D01*
X45678Y-36056D01*
X45771Y-36195D01*
X45910Y-36288D01*
X46074Y-36320D01*
X46238Y-36288D01*
X46377Y-36195D01*
X46470Y-36056D01*
X46503Y-35892D01*
X46503Y-37911D01*
X44241Y-37911D01*
X44241Y-34213D01*
X44241Y-33632D01*
X44241Y-33532D01*
X44241Y-32952D01*
X44179Y-32889D01*
X44084Y-32889D01*
X43992Y-32927D01*
X43922Y-32998D01*
X43884Y-33090D01*
X43884Y-33189D01*
X43884Y-33470D01*
X43947Y-33532D01*
X44241Y-33532D01*
X44241Y-33632D01*
X43947Y-33632D01*
X43884Y-33695D01*
X43884Y-33976D01*
X43884Y-34075D01*
X43922Y-34167D01*
X43992Y-34237D01*
X44084Y-34275D01*
X44179Y-34275D01*
X44241Y-34213D01*
X44241Y-37911D01*
X43790Y-37911D01*
X43790Y-37343D01*
X43770Y-37296D01*
X43734Y-37260D01*
X43686Y-37240D01*
X43635Y-37240D01*
X42769Y-37240D01*
X42766Y-37241D01*
X42766Y-33868D01*
X43038Y-33868D01*
X43085Y-33848D01*
X43121Y-33812D01*
X43141Y-33764D01*
X43141Y-33713D01*
X43141Y-33006D01*
X43121Y-32959D01*
X43085Y-32923D01*
X43038Y-32903D01*
X42986Y-32903D01*
X42766Y-32903D01*
X42766Y-29222D01*
X43037Y-29222D01*
X43084Y-29202D01*
X43120Y-29166D01*
X43140Y-29118D01*
X43140Y-29067D01*
X43140Y-28360D01*
X43120Y-28313D01*
X43084Y-28277D01*
X43037Y-28257D01*
X42985Y-28257D01*
X42766Y-28257D01*
X42766Y-22238D01*
X42934Y-22406D01*
X43328Y-22569D01*
X43756Y-22570D01*
X44150Y-22407D01*
X44453Y-22105D01*
X44617Y-21710D01*
X44617Y-21283D01*
X44454Y-20888D01*
X44285Y-20719D01*
X45438Y-20719D01*
X45438Y-21304D01*
X45501Y-21367D01*
X45934Y-21367D01*
X45934Y-21359D01*
X46034Y-21359D01*
X46034Y-21367D01*
X46467Y-21367D01*
X46529Y-21304D01*
X46529Y-20719D01*
X47016Y-20719D01*
X47016Y-22427D01*
X47036Y-22474D01*
X47072Y-22510D01*
X47120Y-22530D01*
X47171Y-22530D01*
X47213Y-22530D01*
X47213Y-22531D01*
X47213Y-22568D01*
X46466Y-22568D01*
X46491Y-22543D01*
X46529Y-22451D01*
X46529Y-22351D01*
X46529Y-21529D01*
X46467Y-21467D01*
X46034Y-21467D01*
X46034Y-21475D01*
X45934Y-21475D01*
X45934Y-21467D01*
X45501Y-21467D01*
X45438Y-21529D01*
X45438Y-22351D01*
X45438Y-22451D01*
X45477Y-22543D01*
X45547Y-22613D01*
X45639Y-22651D01*
X45871Y-22651D01*
X45934Y-22589D01*
X45934Y-22609D01*
X45913Y-22623D01*
X45693Y-22842D01*
X45653Y-22903D01*
X45638Y-22975D01*
X45638Y-22976D01*
X45401Y-22976D01*
X45353Y-22995D01*
X45317Y-23032D01*
X45298Y-23079D01*
X45298Y-23130D01*
X45298Y-23730D01*
X45317Y-23778D01*
X45353Y-23814D01*
X45401Y-23833D01*
X45452Y-23833D01*
X46252Y-23833D01*
X46299Y-23814D01*
X46335Y-23778D01*
X46355Y-23730D01*
X46355Y-23679D01*
X46355Y-23079D01*
X46335Y-23032D01*
X46299Y-22995D01*
X46252Y-22976D01*
X46201Y-22976D01*
X46091Y-22976D01*
X46123Y-22943D01*
X47323Y-22943D01*
X47391Y-23011D01*
X47336Y-23011D01*
X47289Y-23030D01*
X47253Y-23066D01*
X47233Y-23114D01*
X47233Y-23165D01*
X47233Y-24203D01*
X47214Y-24221D01*
X47214Y-24674D01*
X47222Y-24674D01*
X47222Y-24774D01*
X47214Y-24774D01*
X47214Y-25226D01*
X47277Y-25289D01*
X47352Y-25289D01*
X47444Y-25251D01*
X47514Y-25180D01*
X47533Y-25137D01*
X47544Y-25149D01*
X47592Y-25168D01*
X47643Y-25168D01*
X47919Y-25168D01*
X47966Y-25149D01*
X48003Y-25112D01*
X48022Y-25065D01*
X48022Y-25014D01*
X48022Y-24351D01*
X48093Y-24351D01*
X48080Y-24383D01*
X48080Y-24434D01*
X48080Y-25064D01*
X48099Y-25112D01*
X48100Y-25112D01*
X48100Y-25228D01*
X48112Y-25293D01*
X48063Y-25273D01*
X48001Y-25273D01*
X47938Y-25335D01*
X47938Y-25698D01*
X47946Y-25698D01*
X47946Y-25798D01*
X47938Y-25798D01*
X47938Y-25805D01*
X47838Y-25805D01*
X47838Y-25798D01*
X47838Y-25698D01*
X47838Y-25335D01*
X47776Y-25273D01*
X47714Y-25273D01*
X47622Y-25311D01*
X47552Y-25381D01*
X47513Y-25473D01*
X47513Y-25572D01*
X47513Y-25635D01*
X47576Y-25698D01*
X47838Y-25698D01*
X47838Y-25798D01*
X47576Y-25798D01*
X47513Y-25860D01*
X47513Y-25923D01*
X47513Y-26022D01*
X47552Y-26114D01*
X47622Y-26184D01*
X47714Y-26223D01*
X47733Y-26223D01*
X47691Y-26240D01*
X47654Y-26276D01*
X47635Y-26324D01*
X47635Y-26375D01*
X47635Y-26387D01*
X47633Y-26387D01*
X47562Y-26401D01*
X47501Y-26442D01*
X47460Y-26502D01*
X47450Y-26550D01*
X47324Y-26550D01*
X47161Y-26618D01*
X47114Y-26664D01*
X47114Y-25226D01*
X47114Y-24774D01*
X47114Y-24674D01*
X47114Y-24221D01*
X47052Y-24159D01*
X46977Y-24159D01*
X46885Y-24197D01*
X46814Y-24267D01*
X46776Y-24359D01*
X46776Y-24459D01*
X46776Y-24611D01*
X46839Y-24674D01*
X47114Y-24674D01*
X47114Y-24774D01*
X46839Y-24774D01*
X46776Y-24836D01*
X46776Y-24989D01*
X46776Y-25089D01*
X46814Y-25180D01*
X46885Y-25251D01*
X46977Y-25289D01*
X47052Y-25289D01*
X47114Y-25226D01*
X47114Y-26664D01*
X47036Y-26742D01*
X46968Y-26905D01*
X46968Y-27082D01*
X47035Y-27245D01*
X47160Y-27370D01*
X47323Y-27438D01*
X47500Y-27438D01*
X47663Y-27370D01*
X47788Y-27246D01*
X47855Y-27083D01*
X47856Y-26928D01*
X48039Y-26928D01*
X48086Y-26908D01*
X48123Y-26872D01*
X48142Y-26825D01*
X48142Y-26774D01*
X48142Y-26324D01*
X48123Y-26276D01*
X48086Y-26240D01*
X48044Y-26223D01*
X48063Y-26223D01*
X48155Y-26184D01*
X48225Y-26114D01*
X48242Y-26075D01*
X48242Y-26307D01*
X48235Y-26324D01*
X48235Y-26375D01*
X48235Y-26825D01*
X48254Y-26872D01*
X48291Y-26908D01*
X48338Y-26928D01*
X48389Y-26928D01*
X48639Y-26928D01*
X48642Y-26927D01*
X48652Y-26953D01*
X48799Y-27100D01*
X48991Y-27180D01*
X49199Y-27180D01*
X49391Y-27100D01*
X49538Y-26954D01*
X49618Y-26762D01*
X49618Y-26554D01*
X49539Y-26362D01*
X49392Y-26215D01*
X49364Y-26203D01*
X49364Y-22451D01*
X49364Y-22351D01*
X49364Y-21529D01*
X49301Y-21467D01*
X48868Y-21467D01*
X48868Y-22589D01*
X48931Y-22651D01*
X49163Y-22651D01*
X49255Y-22613D01*
X49326Y-22543D01*
X49364Y-22451D01*
X49364Y-26203D01*
X49200Y-26135D01*
X48992Y-26135D01*
X48800Y-26214D01*
X48768Y-26246D01*
X48768Y-22589D01*
X48768Y-21467D01*
X48336Y-21467D01*
X48273Y-21529D01*
X48273Y-22351D01*
X48273Y-22451D01*
X48311Y-22543D01*
X48382Y-22613D01*
X48473Y-22651D01*
X48706Y-22651D01*
X48768Y-22589D01*
X48768Y-26246D01*
X48735Y-26279D01*
X48735Y-26015D01*
X48742Y-25998D01*
X48742Y-25947D01*
X48742Y-25497D01*
X48735Y-25480D01*
X48735Y-25333D01*
X48717Y-25239D01*
X48663Y-25159D01*
X48593Y-25112D01*
X48593Y-25112D01*
X48594Y-25112D01*
X48613Y-25064D01*
X48613Y-25013D01*
X48613Y-24383D01*
X48594Y-24336D01*
X48557Y-24300D01*
X48510Y-24280D01*
X48459Y-24280D01*
X48264Y-24280D01*
X48278Y-24248D01*
X48278Y-24197D01*
X48278Y-23114D01*
X48258Y-23066D01*
X48222Y-23030D01*
X48175Y-23011D01*
X48123Y-23011D01*
X47943Y-23011D01*
X47943Y-23009D01*
X47929Y-22937D01*
X47888Y-22877D01*
X47827Y-22836D01*
X47755Y-22822D01*
X47733Y-22822D01*
X47589Y-22678D01*
X47589Y-22531D01*
X47589Y-22530D01*
X47683Y-22530D01*
X47730Y-22510D01*
X47766Y-22474D01*
X47786Y-22427D01*
X47786Y-22375D01*
X47786Y-20719D01*
X48273Y-20719D01*
X48273Y-21304D01*
X48336Y-21367D01*
X48768Y-21367D01*
X48768Y-21359D01*
X48868Y-21359D01*
X48868Y-21367D01*
X49301Y-21367D01*
X49364Y-21304D01*
X49364Y-20719D01*
X51659Y-20719D01*
X51659Y-21304D01*
X51721Y-21367D01*
X52154Y-21367D01*
X52154Y-21359D01*
X52254Y-21359D01*
X52254Y-21367D01*
X52687Y-21367D01*
X52750Y-21304D01*
X52750Y-20719D01*
X53237Y-20719D01*
X53237Y-22427D01*
X53257Y-22474D01*
X53293Y-22510D01*
X53340Y-22530D01*
X53357Y-22530D01*
X53295Y-22592D01*
X53254Y-22653D01*
X53240Y-22725D01*
X53240Y-23092D01*
X53168Y-23092D01*
X53005Y-23159D01*
X52880Y-23284D01*
X52812Y-23447D01*
X52812Y-23623D01*
X52879Y-23786D01*
X53004Y-23911D01*
X53167Y-23979D01*
X53344Y-23979D01*
X53507Y-23912D01*
X53540Y-23879D01*
X53552Y-23909D01*
X53588Y-23945D01*
X53635Y-23964D01*
X53687Y-23964D01*
X53923Y-23964D01*
X53970Y-23945D01*
X54006Y-23909D01*
X54026Y-23861D01*
X54026Y-23826D01*
X54646Y-23826D01*
X54646Y-24072D01*
X54665Y-24119D01*
X54702Y-24156D01*
X54749Y-24175D01*
X54800Y-24175D01*
X55250Y-24175D01*
X55297Y-24156D01*
X55334Y-24119D01*
X55353Y-24072D01*
X55353Y-24021D01*
X55353Y-23771D01*
X55334Y-23724D01*
X55297Y-23687D01*
X55297Y-23687D01*
X55366Y-23658D01*
X55436Y-23588D01*
X55475Y-23496D01*
X55475Y-23434D01*
X55475Y-23209D01*
X55475Y-23147D01*
X55436Y-23055D01*
X55366Y-22985D01*
X55274Y-22947D01*
X55175Y-22947D01*
X55112Y-22947D01*
X55050Y-23009D01*
X55050Y-23272D01*
X55412Y-23272D01*
X55475Y-23209D01*
X55475Y-23434D01*
X55412Y-23372D01*
X55050Y-23372D01*
X55050Y-23379D01*
X54989Y-23379D01*
X54989Y-22589D01*
X54989Y-21467D01*
X54556Y-21467D01*
X54494Y-21529D01*
X54494Y-22351D01*
X54494Y-22451D01*
X54532Y-22543D01*
X54602Y-22613D01*
X54694Y-22651D01*
X54926Y-22651D01*
X54989Y-22589D01*
X54989Y-23379D01*
X54950Y-23379D01*
X54950Y-23372D01*
X54950Y-23272D01*
X54950Y-23009D01*
X54887Y-22947D01*
X54824Y-22947D01*
X54725Y-22947D01*
X54633Y-22985D01*
X54563Y-23055D01*
X54525Y-23147D01*
X54525Y-23209D01*
X54587Y-23272D01*
X54950Y-23272D01*
X54950Y-23372D01*
X54587Y-23372D01*
X54525Y-23434D01*
X54525Y-23451D01*
X54026Y-23451D01*
X54026Y-23416D01*
X54006Y-23369D01*
X53970Y-23332D01*
X53923Y-23313D01*
X53871Y-23313D01*
X53644Y-23313D01*
X53632Y-23284D01*
X53615Y-23267D01*
X53615Y-22803D01*
X53754Y-22664D01*
X53795Y-22603D01*
X53809Y-22531D01*
X53809Y-22530D01*
X53903Y-22530D01*
X53950Y-22510D01*
X53987Y-22474D01*
X54006Y-22427D01*
X54006Y-22375D01*
X54006Y-20719D01*
X54494Y-20719D01*
X54494Y-21304D01*
X54556Y-21367D01*
X54989Y-21367D01*
X54989Y-21359D01*
X55089Y-21359D01*
X55089Y-21367D01*
X55522Y-21367D01*
X55584Y-21304D01*
X55584Y-20719D01*
X56502Y-20719D01*
X56334Y-20886D01*
X56170Y-21281D01*
X56169Y-21708D01*
X56333Y-22103D01*
X56634Y-22406D01*
X57029Y-22569D01*
X57456Y-22570D01*
X57851Y-22407D01*
X58020Y-22238D01*
X58020Y-29974D01*
G54D10*
G36*
X58020Y-47919D02*
X57813Y-47712D01*
X57419Y-47548D01*
X56992Y-47547D01*
X56597Y-47711D01*
X56294Y-48012D01*
X56130Y-48407D01*
X56130Y-48834D01*
X56293Y-49229D01*
X56423Y-49359D01*
X55475Y-49359D01*
X55475Y-45356D01*
X55475Y-45294D01*
X55412Y-45231D01*
X55050Y-45231D01*
X55050Y-45494D01*
X55112Y-45556D01*
X55175Y-45556D01*
X55274Y-45556D01*
X55366Y-45518D01*
X55436Y-45448D01*
X55475Y-45356D01*
X55475Y-49359D01*
X54950Y-49359D01*
X54950Y-45494D01*
X54950Y-45231D01*
X54587Y-45231D01*
X54525Y-45294D01*
X54525Y-45356D01*
X54563Y-45448D01*
X54633Y-45518D01*
X54725Y-45556D01*
X54824Y-45556D01*
X54887Y-45556D01*
X54950Y-45494D01*
X54950Y-49359D01*
X50167Y-49359D01*
X50188Y-49344D01*
X50281Y-49205D01*
X50314Y-49041D01*
X50314Y-48753D01*
X50281Y-48589D01*
X50188Y-48450D01*
X50073Y-48373D01*
X50073Y-48334D01*
X50059Y-48262D01*
X50018Y-48201D01*
X49794Y-47977D01*
X49794Y-45899D01*
X49829Y-45885D01*
X49856Y-45858D01*
X49883Y-45885D01*
X49918Y-45899D01*
X49918Y-47098D01*
X49932Y-47170D01*
X49973Y-47231D01*
X50029Y-47287D01*
X50017Y-47300D01*
X49997Y-47347D01*
X49997Y-47399D01*
X49997Y-47849D01*
X50017Y-47896D01*
X50053Y-47932D01*
X50100Y-47952D01*
X50151Y-47952D01*
X50401Y-47952D01*
X50449Y-47932D01*
X50485Y-47896D01*
X50504Y-47849D01*
X50504Y-47797D01*
X50504Y-47347D01*
X50485Y-47300D01*
X50449Y-47264D01*
X50438Y-47260D01*
X50438Y-47243D01*
X50424Y-47171D01*
X50383Y-47110D01*
X50294Y-47020D01*
X50294Y-45899D01*
X50329Y-45885D01*
X50356Y-45858D01*
X50383Y-45885D01*
X50418Y-45899D01*
X50418Y-46998D01*
X50432Y-47070D01*
X50473Y-47131D01*
X50629Y-47287D01*
X50617Y-47300D01*
X50597Y-47347D01*
X50597Y-47399D01*
X50597Y-47849D01*
X50617Y-47896D01*
X50653Y-47932D01*
X50700Y-47952D01*
X50751Y-47952D01*
X51001Y-47952D01*
X51049Y-47932D01*
X51085Y-47896D01*
X51104Y-47849D01*
X51104Y-47797D01*
X51104Y-47516D01*
X51320Y-47731D01*
X51380Y-47771D01*
X51452Y-47786D01*
X51454Y-47786D01*
X51454Y-47849D01*
X51473Y-47896D01*
X51509Y-47932D01*
X51557Y-47952D01*
X51608Y-47952D01*
X51858Y-47952D01*
X51905Y-47932D01*
X51942Y-47896D01*
X51961Y-47849D01*
X51961Y-47797D01*
X51961Y-47758D01*
X51980Y-47771D01*
X52052Y-47786D01*
X52054Y-47786D01*
X52054Y-47849D01*
X52073Y-47896D01*
X52109Y-47932D01*
X52157Y-47952D01*
X52208Y-47952D01*
X52458Y-47952D01*
X52505Y-47932D01*
X52542Y-47896D01*
X52561Y-47849D01*
X52561Y-47797D01*
X52561Y-47347D01*
X52542Y-47300D01*
X52505Y-47264D01*
X52458Y-47244D01*
X52407Y-47244D01*
X52240Y-47244D01*
X52240Y-46552D01*
X52226Y-46481D01*
X52185Y-46420D01*
X51794Y-46028D01*
X51794Y-45899D01*
X51829Y-45885D01*
X51856Y-45858D01*
X51883Y-45885D01*
X51930Y-45904D01*
X51981Y-45904D01*
X52281Y-45904D01*
X52329Y-45885D01*
X52365Y-45848D01*
X52385Y-45801D01*
X52385Y-45750D01*
X52385Y-44960D01*
X52440Y-44960D01*
X52440Y-44904D01*
X52481Y-44904D01*
X53281Y-44904D01*
X53329Y-44885D01*
X53365Y-44848D01*
X53385Y-44801D01*
X53385Y-44750D01*
X53385Y-44493D01*
X53397Y-44487D01*
X53468Y-44417D01*
X53506Y-44325D01*
X53506Y-44238D01*
X53443Y-44175D01*
X52906Y-44175D01*
X52906Y-44183D01*
X52806Y-44183D01*
X52806Y-44175D01*
X52798Y-44175D01*
X52798Y-44075D01*
X52806Y-44075D01*
X52806Y-44068D01*
X52906Y-44068D01*
X52906Y-44075D01*
X53443Y-44075D01*
X53506Y-44013D01*
X53506Y-44011D01*
X53954Y-44459D01*
X54015Y-44500D01*
X54087Y-44514D01*
X54646Y-44514D01*
X54646Y-44732D01*
X54665Y-44779D01*
X54702Y-44816D01*
X54702Y-44816D01*
X54633Y-44844D01*
X54563Y-44915D01*
X54525Y-45007D01*
X54525Y-45069D01*
X54587Y-45131D01*
X54950Y-45131D01*
X54950Y-45124D01*
X55050Y-45124D01*
X55050Y-45131D01*
X55412Y-45131D01*
X55475Y-45069D01*
X55475Y-45007D01*
X55436Y-44915D01*
X55366Y-44844D01*
X55297Y-44816D01*
X55297Y-44816D01*
X55334Y-44779D01*
X55353Y-44732D01*
X55353Y-44681D01*
X55353Y-44431D01*
X55334Y-44383D01*
X55297Y-44347D01*
X55260Y-44332D01*
X56656Y-42935D01*
X56697Y-42874D01*
X56697Y-42874D01*
X56711Y-42802D01*
X56711Y-39054D01*
X56740Y-39054D01*
X56787Y-39034D01*
X56823Y-38998D01*
X56843Y-38951D01*
X56843Y-38900D01*
X56843Y-38450D01*
X56823Y-38402D01*
X56787Y-38366D01*
X56740Y-38347D01*
X56689Y-38347D01*
X56522Y-38347D01*
X56522Y-38188D01*
X56740Y-38188D01*
X56787Y-38168D01*
X56823Y-38132D01*
X56843Y-38085D01*
X56843Y-38034D01*
X56843Y-38022D01*
X56844Y-38022D01*
X56916Y-38008D01*
X56936Y-37995D01*
X56936Y-38085D01*
X56955Y-38132D01*
X56991Y-38168D01*
X57001Y-38172D01*
X57001Y-38362D01*
X56991Y-38366D01*
X56955Y-38402D01*
X56936Y-38450D01*
X56936Y-38501D01*
X56936Y-38951D01*
X56955Y-38998D01*
X56991Y-39034D01*
X57039Y-39054D01*
X57090Y-39054D01*
X57340Y-39054D01*
X57387Y-39034D01*
X57423Y-38998D01*
X57443Y-38951D01*
X57443Y-38900D01*
X57443Y-38450D01*
X57423Y-38402D01*
X57387Y-38366D01*
X57377Y-38362D01*
X57377Y-38172D01*
X57387Y-38168D01*
X57423Y-38132D01*
X57443Y-38085D01*
X57443Y-38034D01*
X57443Y-37584D01*
X57423Y-37536D01*
X57387Y-37500D01*
X57340Y-37480D01*
X57289Y-37480D01*
X57209Y-37480D01*
X57220Y-37469D01*
X57288Y-37306D01*
X57288Y-37130D01*
X57221Y-36966D01*
X57096Y-36842D01*
X56933Y-36774D01*
X56756Y-36774D01*
X56593Y-36841D01*
X56522Y-36912D01*
X56522Y-33527D01*
X56800Y-33249D01*
X56800Y-33691D01*
X56820Y-33739D01*
X56856Y-33775D01*
X56903Y-33794D01*
X56954Y-33794D01*
X57820Y-33794D01*
X57868Y-33775D01*
X57904Y-33739D01*
X57923Y-33691D01*
X57923Y-33640D01*
X57923Y-33040D01*
X57904Y-32993D01*
X57868Y-32957D01*
X57820Y-32937D01*
X57769Y-32937D01*
X57482Y-32937D01*
X57494Y-32928D01*
X57535Y-32868D01*
X57550Y-32796D01*
X57550Y-32786D01*
X57670Y-32762D01*
X57809Y-32669D01*
X57902Y-32530D01*
X57934Y-32366D01*
X57902Y-32202D01*
X57809Y-32062D01*
X57670Y-31970D01*
X57506Y-31937D01*
X57312Y-31937D01*
X57312Y-31916D01*
X57312Y-31416D01*
X56744Y-31416D01*
X56696Y-31501D01*
X56701Y-31530D01*
X56804Y-31719D01*
X56972Y-31855D01*
X57179Y-31916D01*
X57312Y-31916D01*
X57312Y-31937D01*
X57218Y-31937D01*
X57054Y-31970D01*
X56915Y-32062D01*
X56822Y-32202D01*
X56789Y-32366D01*
X56822Y-32530D01*
X56893Y-32637D01*
X56855Y-32663D01*
X56201Y-33316D01*
X56161Y-33377D01*
X56146Y-33449D01*
X56146Y-38700D01*
X56161Y-38772D01*
X56201Y-38833D01*
X56262Y-38874D01*
X56334Y-38888D01*
X56336Y-38888D01*
X56336Y-38951D01*
X56336Y-38951D01*
X56336Y-42725D01*
X56029Y-43031D01*
X56029Y-42912D01*
X56029Y-42813D01*
X56029Y-42750D01*
X56029Y-42525D01*
X56029Y-42462D01*
X56029Y-42363D01*
X55991Y-42271D01*
X55944Y-42224D01*
X55991Y-42177D01*
X56029Y-42085D01*
X56029Y-41986D01*
X56029Y-41923D01*
X56029Y-41698D01*
X56029Y-41635D01*
X56029Y-41536D01*
X55991Y-41444D01*
X55944Y-41397D01*
X55991Y-41350D01*
X56029Y-41258D01*
X56029Y-41159D01*
X56029Y-41096D01*
X56029Y-40871D01*
X56029Y-40808D01*
X56029Y-40709D01*
X55991Y-40617D01*
X55964Y-40590D01*
X55991Y-40563D01*
X56029Y-40471D01*
X56029Y-40372D01*
X56029Y-40309D01*
X55966Y-40246D01*
X55704Y-40246D01*
X55704Y-40571D01*
X55704Y-40609D01*
X55704Y-40934D01*
X55966Y-40934D01*
X56029Y-40871D01*
X56029Y-41096D01*
X55966Y-41034D01*
X55704Y-41034D01*
X55704Y-41396D01*
X55705Y-41397D01*
X55704Y-41398D01*
X55704Y-41761D01*
X55966Y-41761D01*
X56029Y-41698D01*
X56029Y-41923D01*
X55966Y-41861D01*
X55704Y-41861D01*
X55704Y-42223D01*
X55705Y-42224D01*
X55704Y-42225D01*
X55704Y-42587D01*
X55966Y-42587D01*
X56029Y-42525D01*
X56029Y-42750D01*
X55966Y-42687D01*
X55704Y-42687D01*
X55704Y-43050D01*
X55766Y-43112D01*
X55829Y-43112D01*
X55920Y-43074D01*
X55991Y-43004D01*
X56029Y-42912D01*
X56029Y-43031D01*
X54922Y-44139D01*
X54164Y-44139D01*
X53665Y-43639D01*
X53723Y-43650D01*
X54315Y-43650D01*
X54341Y-43714D01*
X54466Y-43838D01*
X54629Y-43906D01*
X54805Y-43906D01*
X54968Y-43839D01*
X55093Y-43714D01*
X55161Y-43551D01*
X55161Y-43375D01*
X55094Y-43211D01*
X55074Y-43192D01*
X55237Y-43192D01*
X55309Y-43178D01*
X55370Y-43137D01*
X55419Y-43088D01*
X55479Y-43112D01*
X55541Y-43112D01*
X55604Y-43050D01*
X55604Y-42687D01*
X55596Y-42687D01*
X55596Y-42587D01*
X55604Y-42587D01*
X55604Y-42225D01*
X55603Y-42224D01*
X55604Y-42223D01*
X55604Y-41861D01*
X55596Y-41861D01*
X55596Y-41761D01*
X55604Y-41761D01*
X55604Y-41398D01*
X55603Y-41397D01*
X55604Y-41396D01*
X55604Y-41034D01*
X55596Y-41034D01*
X55596Y-40934D01*
X55604Y-40934D01*
X55604Y-40609D01*
X55604Y-40571D01*
X55604Y-40246D01*
X55596Y-40246D01*
X55596Y-40146D01*
X55604Y-40146D01*
X55604Y-40138D01*
X55704Y-40138D01*
X55704Y-40146D01*
X55966Y-40146D01*
X56029Y-40084D01*
X56029Y-40021D01*
X56029Y-39922D01*
X55991Y-39830D01*
X55920Y-39759D01*
X55829Y-39721D01*
X55776Y-39721D01*
X56023Y-39474D01*
X56064Y-39413D01*
X56064Y-39413D01*
X56078Y-39341D01*
X56078Y-32601D01*
X56064Y-32529D01*
X56023Y-32468D01*
X55347Y-31792D01*
X55605Y-31792D01*
X55677Y-31777D01*
X55738Y-31737D01*
X56421Y-31053D01*
X56782Y-31053D01*
X56701Y-31201D01*
X56696Y-31231D01*
X56744Y-31316D01*
X57312Y-31316D01*
X57312Y-31308D01*
X57412Y-31308D01*
X57412Y-31316D01*
X57420Y-31316D01*
X57420Y-31416D01*
X57412Y-31416D01*
X57412Y-31916D01*
X57545Y-31916D01*
X57751Y-31855D01*
X57919Y-31719D01*
X58020Y-31533D01*
X58020Y-47919D01*
X58020Y-47919D01*
G37*
G54D39*
X58020Y-47919D02*
X57813Y-47712D01*
X57419Y-47548D01*
X56992Y-47547D01*
X56597Y-47711D01*
X56294Y-48012D01*
X56130Y-48407D01*
X56130Y-48834D01*
X56293Y-49229D01*
X56423Y-49359D01*
X55475Y-49359D01*
X55475Y-45356D01*
X55475Y-45294D01*
X55412Y-45231D01*
X55050Y-45231D01*
X55050Y-45494D01*
X55112Y-45556D01*
X55175Y-45556D01*
X55274Y-45556D01*
X55366Y-45518D01*
X55436Y-45448D01*
X55475Y-45356D01*
X55475Y-49359D01*
X54950Y-49359D01*
X54950Y-45494D01*
X54950Y-45231D01*
X54587Y-45231D01*
X54525Y-45294D01*
X54525Y-45356D01*
X54563Y-45448D01*
X54633Y-45518D01*
X54725Y-45556D01*
X54824Y-45556D01*
X54887Y-45556D01*
X54950Y-45494D01*
X54950Y-49359D01*
X50167Y-49359D01*
X50188Y-49344D01*
X50281Y-49205D01*
X50314Y-49041D01*
X50314Y-48753D01*
X50281Y-48589D01*
X50188Y-48450D01*
X50073Y-48373D01*
X50073Y-48334D01*
X50059Y-48262D01*
X50018Y-48201D01*
X49794Y-47977D01*
X49794Y-45899D01*
X49829Y-45885D01*
X49856Y-45858D01*
X49883Y-45885D01*
X49918Y-45899D01*
X49918Y-47098D01*
X49932Y-47170D01*
X49973Y-47231D01*
X50029Y-47287D01*
X50017Y-47300D01*
X49997Y-47347D01*
X49997Y-47399D01*
X49997Y-47849D01*
X50017Y-47896D01*
X50053Y-47932D01*
X50100Y-47952D01*
X50151Y-47952D01*
X50401Y-47952D01*
X50449Y-47932D01*
X50485Y-47896D01*
X50504Y-47849D01*
X50504Y-47797D01*
X50504Y-47347D01*
X50485Y-47300D01*
X50449Y-47264D01*
X50438Y-47260D01*
X50438Y-47243D01*
X50424Y-47171D01*
X50383Y-47110D01*
X50294Y-47020D01*
X50294Y-45899D01*
X50329Y-45885D01*
X50356Y-45858D01*
X50383Y-45885D01*
X50418Y-45899D01*
X50418Y-46998D01*
X50432Y-47070D01*
X50473Y-47131D01*
X50629Y-47287D01*
X50617Y-47300D01*
X50597Y-47347D01*
X50597Y-47399D01*
X50597Y-47849D01*
X50617Y-47896D01*
X50653Y-47932D01*
X50700Y-47952D01*
X50751Y-47952D01*
X51001Y-47952D01*
X51049Y-47932D01*
X51085Y-47896D01*
X51104Y-47849D01*
X51104Y-47797D01*
X51104Y-47516D01*
X51320Y-47731D01*
X51380Y-47771D01*
X51452Y-47786D01*
X51454Y-47786D01*
X51454Y-47849D01*
X51473Y-47896D01*
X51509Y-47932D01*
X51557Y-47952D01*
X51608Y-47952D01*
X51858Y-47952D01*
X51905Y-47932D01*
X51942Y-47896D01*
X51961Y-47849D01*
X51961Y-47797D01*
X51961Y-47758D01*
X51980Y-47771D01*
X52052Y-47786D01*
X52054Y-47786D01*
X52054Y-47849D01*
X52073Y-47896D01*
X52109Y-47932D01*
X52157Y-47952D01*
X52208Y-47952D01*
X52458Y-47952D01*
X52505Y-47932D01*
X52542Y-47896D01*
X52561Y-47849D01*
X52561Y-47797D01*
X52561Y-47347D01*
X52542Y-47300D01*
X52505Y-47264D01*
X52458Y-47244D01*
X52407Y-47244D01*
X52240Y-47244D01*
X52240Y-46552D01*
X52226Y-46481D01*
X52185Y-46420D01*
X51794Y-46028D01*
X51794Y-45899D01*
X51829Y-45885D01*
X51856Y-45858D01*
X51883Y-45885D01*
X51930Y-45904D01*
X51981Y-45904D01*
X52281Y-45904D01*
X52329Y-45885D01*
X52365Y-45848D01*
X52385Y-45801D01*
X52385Y-45750D01*
X52385Y-44960D01*
X52440Y-44960D01*
X52440Y-44904D01*
X52481Y-44904D01*
X53281Y-44904D01*
X53329Y-44885D01*
X53365Y-44848D01*
X53385Y-44801D01*
X53385Y-44750D01*
X53385Y-44493D01*
X53397Y-44487D01*
X53468Y-44417D01*
X53506Y-44325D01*
X53506Y-44238D01*
X53443Y-44175D01*
X52906Y-44175D01*
X52906Y-44183D01*
X52806Y-44183D01*
X52806Y-44175D01*
X52798Y-44175D01*
X52798Y-44075D01*
X52806Y-44075D01*
X52806Y-44068D01*
X52906Y-44068D01*
X52906Y-44075D01*
X53443Y-44075D01*
X53506Y-44013D01*
X53506Y-44011D01*
X53954Y-44459D01*
X54015Y-44500D01*
X54087Y-44514D01*
X54646Y-44514D01*
X54646Y-44732D01*
X54665Y-44779D01*
X54702Y-44816D01*
X54702Y-44816D01*
X54633Y-44844D01*
X54563Y-44915D01*
X54525Y-45007D01*
X54525Y-45069D01*
X54587Y-45131D01*
X54950Y-45131D01*
X54950Y-45124D01*
X55050Y-45124D01*
X55050Y-45131D01*
X55412Y-45131D01*
X55475Y-45069D01*
X55475Y-45007D01*
X55436Y-44915D01*
X55366Y-44844D01*
X55297Y-44816D01*
X55297Y-44816D01*
X55334Y-44779D01*
X55353Y-44732D01*
X55353Y-44681D01*
X55353Y-44431D01*
X55334Y-44383D01*
X55297Y-44347D01*
X55260Y-44332D01*
X56656Y-42935D01*
X56697Y-42874D01*
X56697Y-42874D01*
X56711Y-42802D01*
X56711Y-39054D01*
X56740Y-39054D01*
X56787Y-39034D01*
X56823Y-38998D01*
X56843Y-38951D01*
X56843Y-38900D01*
X56843Y-38450D01*
X56823Y-38402D01*
X56787Y-38366D01*
X56740Y-38347D01*
X56689Y-38347D01*
X56522Y-38347D01*
X56522Y-38188D01*
X56740Y-38188D01*
X56787Y-38168D01*
X56823Y-38132D01*
X56843Y-38085D01*
X56843Y-38034D01*
X56843Y-38022D01*
X56844Y-38022D01*
X56916Y-38008D01*
X56936Y-37995D01*
X56936Y-38085D01*
X56955Y-38132D01*
X56991Y-38168D01*
X57001Y-38172D01*
X57001Y-38362D01*
X56991Y-38366D01*
X56955Y-38402D01*
X56936Y-38450D01*
X56936Y-38501D01*
X56936Y-38951D01*
X56955Y-38998D01*
X56991Y-39034D01*
X57039Y-39054D01*
X57090Y-39054D01*
X57340Y-39054D01*
X57387Y-39034D01*
X57423Y-38998D01*
X57443Y-38951D01*
X57443Y-38900D01*
X57443Y-38450D01*
X57423Y-38402D01*
X57387Y-38366D01*
X57377Y-38362D01*
X57377Y-38172D01*
X57387Y-38168D01*
X57423Y-38132D01*
X57443Y-38085D01*
X57443Y-38034D01*
X57443Y-37584D01*
X57423Y-37536D01*
X57387Y-37500D01*
X57340Y-37480D01*
X57289Y-37480D01*
X57209Y-37480D01*
X57220Y-37469D01*
X57288Y-37306D01*
X57288Y-37130D01*
X57221Y-36966D01*
X57096Y-36842D01*
X56933Y-36774D01*
X56756Y-36774D01*
X56593Y-36841D01*
X56522Y-36912D01*
X56522Y-33527D01*
X56800Y-33249D01*
X56800Y-33691D01*
X56820Y-33739D01*
X56856Y-33775D01*
X56903Y-33794D01*
X56954Y-33794D01*
X57820Y-33794D01*
X57868Y-33775D01*
X57904Y-33739D01*
X57923Y-33691D01*
X57923Y-33640D01*
X57923Y-33040D01*
X57904Y-32993D01*
X57868Y-32957D01*
X57820Y-32937D01*
X57769Y-32937D01*
X57482Y-32937D01*
X57494Y-32928D01*
X57535Y-32868D01*
X57550Y-32796D01*
X57550Y-32786D01*
X57670Y-32762D01*
X57809Y-32669D01*
X57902Y-32530D01*
X57934Y-32366D01*
X57902Y-32202D01*
X57809Y-32062D01*
X57670Y-31970D01*
X57506Y-31937D01*
X57312Y-31937D01*
X57312Y-31916D01*
X57312Y-31416D01*
X56744Y-31416D01*
X56696Y-31501D01*
X56701Y-31530D01*
X56804Y-31719D01*
X56972Y-31855D01*
X57179Y-31916D01*
X57312Y-31916D01*
X57312Y-31937D01*
X57218Y-31937D01*
X57054Y-31970D01*
X56915Y-32062D01*
X56822Y-32202D01*
X56789Y-32366D01*
X56822Y-32530D01*
X56893Y-32637D01*
X56855Y-32663D01*
X56201Y-33316D01*
X56161Y-33377D01*
X56146Y-33449D01*
X56146Y-38700D01*
X56161Y-38772D01*
X56201Y-38833D01*
X56262Y-38874D01*
X56334Y-38888D01*
X56336Y-38888D01*
X56336Y-38951D01*
X56336Y-38951D01*
X56336Y-42725D01*
X56029Y-43031D01*
X56029Y-42912D01*
X56029Y-42813D01*
X56029Y-42750D01*
X56029Y-42525D01*
X56029Y-42462D01*
X56029Y-42363D01*
X55991Y-42271D01*
X55944Y-42224D01*
X55991Y-42177D01*
X56029Y-42085D01*
X56029Y-41986D01*
X56029Y-41923D01*
X56029Y-41698D01*
X56029Y-41635D01*
X56029Y-41536D01*
X55991Y-41444D01*
X55944Y-41397D01*
X55991Y-41350D01*
X56029Y-41258D01*
X56029Y-41159D01*
X56029Y-41096D01*
X56029Y-40871D01*
X56029Y-40808D01*
X56029Y-40709D01*
X55991Y-40617D01*
X55964Y-40590D01*
X55991Y-40563D01*
X56029Y-40471D01*
X56029Y-40372D01*
X56029Y-40309D01*
X55966Y-40246D01*
X55704Y-40246D01*
X55704Y-40571D01*
X55704Y-40609D01*
X55704Y-40934D01*
X55966Y-40934D01*
X56029Y-40871D01*
X56029Y-41096D01*
X55966Y-41034D01*
X55704Y-41034D01*
X55704Y-41396D01*
X55705Y-41397D01*
X55704Y-41398D01*
X55704Y-41761D01*
X55966Y-41761D01*
X56029Y-41698D01*
X56029Y-41923D01*
X55966Y-41861D01*
X55704Y-41861D01*
X55704Y-42223D01*
X55705Y-42224D01*
X55704Y-42225D01*
X55704Y-42587D01*
X55966Y-42587D01*
X56029Y-42525D01*
X56029Y-42750D01*
X55966Y-42687D01*
X55704Y-42687D01*
X55704Y-43050D01*
X55766Y-43112D01*
X55829Y-43112D01*
X55920Y-43074D01*
X55991Y-43004D01*
X56029Y-42912D01*
X56029Y-43031D01*
X54922Y-44139D01*
X54164Y-44139D01*
X53665Y-43639D01*
X53723Y-43650D01*
X54315Y-43650D01*
X54341Y-43714D01*
X54466Y-43838D01*
X54629Y-43906D01*
X54805Y-43906D01*
X54968Y-43839D01*
X55093Y-43714D01*
X55161Y-43551D01*
X55161Y-43375D01*
X55094Y-43211D01*
X55074Y-43192D01*
X55237Y-43192D01*
X55309Y-43178D01*
X55370Y-43137D01*
X55419Y-43088D01*
X55479Y-43112D01*
X55541Y-43112D01*
X55604Y-43050D01*
X55604Y-42687D01*
X55596Y-42687D01*
X55596Y-42587D01*
X55604Y-42587D01*
X55604Y-42225D01*
X55603Y-42224D01*
X55604Y-42223D01*
X55604Y-41861D01*
X55596Y-41861D01*
X55596Y-41761D01*
X55604Y-41761D01*
X55604Y-41398D01*
X55603Y-41397D01*
X55604Y-41396D01*
X55604Y-41034D01*
X55596Y-41034D01*
X55596Y-40934D01*
X55604Y-40934D01*
X55604Y-40609D01*
X55604Y-40571D01*
X55604Y-40246D01*
X55596Y-40246D01*
X55596Y-40146D01*
X55604Y-40146D01*
X55604Y-40138D01*
X55704Y-40138D01*
X55704Y-40146D01*
X55966Y-40146D01*
X56029Y-40084D01*
X56029Y-40021D01*
X56029Y-39922D01*
X55991Y-39830D01*
X55920Y-39759D01*
X55829Y-39721D01*
X55776Y-39721D01*
X56023Y-39474D01*
X56064Y-39413D01*
X56064Y-39413D01*
X56078Y-39341D01*
X56078Y-32601D01*
X56064Y-32529D01*
X56023Y-32468D01*
X55347Y-31792D01*
X55605Y-31792D01*
X55677Y-31777D01*
X55738Y-31737D01*
X56421Y-31053D01*
X56782Y-31053D01*
X56701Y-31201D01*
X56696Y-31231D01*
X56744Y-31316D01*
X57312Y-31316D01*
X57312Y-31308D01*
X57412Y-31308D01*
X57412Y-31316D01*
X57420Y-31316D01*
X57420Y-31416D01*
X57412Y-31416D01*
X57412Y-31916D01*
X57545Y-31916D01*
X57751Y-31855D01*
X57919Y-31719D01*
X58020Y-31533D01*
X58020Y-47919D01*
M02*
