G04 (created by PCBNEW (2013-mar-13)-testing) date Wed 06 Nov 2013 09:32:46 AM CET*
%MOIN*%
G04 Gerber Fmt 3.4, Leading zero omitted, Abs format*
%FSLAX34Y34*%
G01*
G70*
G90*
G04 APERTURE LIST*
%ADD10C,0.005906*%
%ADD11C,0.004700*%
%ADD12C,0.005000*%
%ADD13C,0.002600*%
%ADD14C,0.004000*%
%ADD15C,0.012000*%
%ADD16C,0.015000*%
%ADD17C,0.004500*%
%ADD18C,0.003500*%
%ADD19C,0.008000*%
%ADD20C,0.007900*%
%ADD21C,0.003900*%
G04 APERTURE END LIST*
G54D10*
G54D11*
X50748Y-47854D02*
X51023Y-47854D01*
X50354Y-47854D02*
X50079Y-47854D01*
X50748Y-47342D02*
X51023Y-47342D01*
X50079Y-47342D02*
X50354Y-47342D01*
X51023Y-47348D02*
X51023Y-47848D01*
X50079Y-47848D02*
X50079Y-47348D01*
X52204Y-47854D02*
X52479Y-47854D01*
X51810Y-47854D02*
X51535Y-47854D01*
X52204Y-47342D02*
X52479Y-47342D01*
X51535Y-47342D02*
X51810Y-47342D01*
X52479Y-47348D02*
X52479Y-47848D01*
X51535Y-47848D02*
X51535Y-47348D01*
X54744Y-45078D02*
X54744Y-45353D01*
X54744Y-44684D02*
X54744Y-44409D01*
X55256Y-45078D02*
X55256Y-45353D01*
X55256Y-44409D02*
X55256Y-44684D01*
X55250Y-45353D02*
X54750Y-45353D01*
X54750Y-44409D02*
X55250Y-44409D01*
X55551Y-42893D02*
X55826Y-42893D01*
X55157Y-42893D02*
X54882Y-42893D01*
X55551Y-42381D02*
X55826Y-42381D01*
X54882Y-42381D02*
X55157Y-42381D01*
X55826Y-42387D02*
X55826Y-42887D01*
X54882Y-42887D02*
X54882Y-42387D01*
X55551Y-42067D02*
X55826Y-42067D01*
X55157Y-42067D02*
X54882Y-42067D01*
X55551Y-41555D02*
X55826Y-41555D01*
X54882Y-41555D02*
X55157Y-41555D01*
X55826Y-41561D02*
X55826Y-42061D01*
X54882Y-42061D02*
X54882Y-41561D01*
X55551Y-41240D02*
X55826Y-41240D01*
X55157Y-41240D02*
X54882Y-41240D01*
X55551Y-40728D02*
X55826Y-40728D01*
X54882Y-40728D02*
X55157Y-40728D01*
X55826Y-40734D02*
X55826Y-41234D01*
X54882Y-41234D02*
X54882Y-40734D01*
X55551Y-40452D02*
X55826Y-40452D01*
X55157Y-40452D02*
X54882Y-40452D01*
X55551Y-39940D02*
X55826Y-39940D01*
X54882Y-39940D02*
X55157Y-39940D01*
X55826Y-39946D02*
X55826Y-40446D01*
X54882Y-40446D02*
X54882Y-39946D01*
X54252Y-30334D02*
X54527Y-30334D01*
X53858Y-30334D02*
X53583Y-30334D01*
X54252Y-29822D02*
X54527Y-29822D01*
X53583Y-29822D02*
X53858Y-29822D01*
X54527Y-29828D02*
X54527Y-30328D01*
X53583Y-30328D02*
X53583Y-29828D01*
X49448Y-34862D02*
X49723Y-34862D01*
X49054Y-34862D02*
X48779Y-34862D01*
X49448Y-34350D02*
X49723Y-34350D01*
X48779Y-34350D02*
X49054Y-34350D01*
X49723Y-34356D02*
X49723Y-34856D01*
X48779Y-34856D02*
X48779Y-34356D01*
X53503Y-25373D02*
X53228Y-25373D01*
X53897Y-25373D02*
X54172Y-25373D01*
X53503Y-25885D02*
X53228Y-25885D01*
X54172Y-25885D02*
X53897Y-25885D01*
X53228Y-25879D02*
X53228Y-25379D01*
X54172Y-25379D02*
X54172Y-25879D01*
X47991Y-25492D02*
X47716Y-25492D01*
X48385Y-25492D02*
X48660Y-25492D01*
X47991Y-26004D02*
X47716Y-26004D01*
X48660Y-26004D02*
X48385Y-26004D01*
X47716Y-25998D02*
X47716Y-25498D01*
X48660Y-25498D02*
X48660Y-25998D01*
X55256Y-23425D02*
X55256Y-23150D01*
X55256Y-23819D02*
X55256Y-24094D01*
X54744Y-23425D02*
X54744Y-23150D01*
X54744Y-24094D02*
X54744Y-23819D01*
X54750Y-23150D02*
X55250Y-23150D01*
X55250Y-24094D02*
X54750Y-24094D01*
G54D12*
X46276Y-23055D02*
X45376Y-23055D01*
X45376Y-23055D02*
X45376Y-23705D01*
X46276Y-24405D02*
X46276Y-25055D01*
X46276Y-25055D02*
X45376Y-25055D01*
X45376Y-25055D02*
X45376Y-24405D01*
X46276Y-23705D02*
X46276Y-23055D01*
G54D13*
X55433Y-26298D02*
X55511Y-26298D01*
X55511Y-26298D02*
X55511Y-26220D01*
X55433Y-26220D02*
X55511Y-26220D01*
X55433Y-26298D02*
X55433Y-26220D01*
X55649Y-26534D02*
X55786Y-26534D01*
X55786Y-26534D02*
X55786Y-26436D01*
X55649Y-26436D02*
X55786Y-26436D01*
X55649Y-26534D02*
X55649Y-26436D01*
X55786Y-26534D02*
X55826Y-26534D01*
X55826Y-26534D02*
X55826Y-26063D01*
X55786Y-26063D02*
X55826Y-26063D01*
X55786Y-26534D02*
X55786Y-26063D01*
X55786Y-26043D02*
X55826Y-26043D01*
X55826Y-26043D02*
X55826Y-25984D01*
X55786Y-25984D02*
X55826Y-25984D01*
X55786Y-26043D02*
X55786Y-25984D01*
X55118Y-26534D02*
X55158Y-26534D01*
X55158Y-26534D02*
X55158Y-26063D01*
X55118Y-26063D02*
X55158Y-26063D01*
X55118Y-26534D02*
X55118Y-26063D01*
X55118Y-26043D02*
X55158Y-26043D01*
X55158Y-26043D02*
X55158Y-25984D01*
X55118Y-25984D02*
X55158Y-25984D01*
X55118Y-26043D02*
X55118Y-25984D01*
X55649Y-26534D02*
X55708Y-26534D01*
X55708Y-26534D02*
X55708Y-26436D01*
X55649Y-26436D02*
X55708Y-26436D01*
X55649Y-26534D02*
X55649Y-26436D01*
G54D14*
X56082Y-26554D02*
X54862Y-26554D01*
X54862Y-26554D02*
X54862Y-25964D01*
X54862Y-25964D02*
X56082Y-25964D01*
X56082Y-25964D02*
X56082Y-26554D01*
X55256Y-26456D02*
G75*
G03X55688Y-26455I215J196D01*
G74*
G01*
X55256Y-26063D02*
G75*
G03X55256Y-26455I215J-196D01*
G74*
G01*
X55687Y-26063D02*
G75*
G03X55256Y-26063I-215J-196D01*
G74*
G01*
X55688Y-26456D02*
G75*
G03X55688Y-26063I-215J196D01*
G74*
G01*
G54D15*
X56259Y-25539D02*
X56259Y-24539D01*
X56259Y-24539D02*
X57259Y-25539D01*
X57259Y-24539D02*
X56259Y-25539D01*
X55259Y-24539D02*
X57259Y-24539D01*
X57259Y-25539D02*
X55259Y-25539D01*
X57259Y-24539D02*
X57259Y-25539D01*
X55259Y-25539D02*
X55259Y-24539D01*
X43728Y-38169D02*
X42728Y-38169D01*
X42728Y-37169D02*
X42728Y-44169D01*
X43728Y-44169D02*
X43728Y-37169D01*
X42728Y-37169D02*
X43728Y-37169D01*
X43728Y-44169D02*
X42728Y-44169D01*
X43728Y-45472D02*
X42728Y-45472D01*
X42728Y-45472D02*
X43728Y-44472D01*
X42728Y-44472D02*
X43728Y-45472D01*
X42728Y-46472D02*
X42728Y-44472D01*
X43728Y-44472D02*
X43728Y-46472D01*
X42728Y-44472D02*
X43728Y-44472D01*
X43728Y-46472D02*
X42728Y-46472D01*
X58862Y-33866D02*
X57862Y-32866D01*
X57862Y-32866D02*
X58862Y-32866D01*
X58862Y-32866D02*
X57862Y-33866D01*
G54D16*
X57362Y-33366D02*
X61362Y-33366D01*
X57362Y-28366D02*
X61362Y-28366D01*
X57362Y-29366D02*
X61362Y-29366D01*
X57362Y-30366D02*
X61362Y-30366D01*
X61362Y-31366D02*
X57362Y-31366D01*
X57362Y-32366D02*
X61362Y-32366D01*
G54D15*
X58862Y-33866D02*
X57862Y-33866D01*
X57862Y-33866D02*
X57862Y-27866D01*
X57862Y-27866D02*
X58862Y-27866D01*
X58862Y-27866D02*
X58862Y-33866D01*
X55736Y-38307D02*
X54736Y-38307D01*
X54736Y-38307D02*
X55736Y-37307D01*
X54736Y-37307D02*
X55736Y-38307D01*
X54736Y-39307D02*
X54736Y-37307D01*
X55736Y-37307D02*
X55736Y-39307D01*
X54736Y-37307D02*
X55736Y-37307D01*
X55736Y-39307D02*
X54736Y-39307D01*
X46574Y-36248D02*
X46574Y-35248D01*
X46574Y-35248D02*
X47574Y-36248D01*
X47574Y-35248D02*
X46574Y-36248D01*
X45574Y-35248D02*
X47574Y-35248D01*
X47574Y-36248D02*
X45574Y-36248D01*
X47574Y-35248D02*
X47574Y-36248D01*
X45574Y-36248D02*
X45574Y-35248D01*
X50523Y-24409D02*
X51523Y-24409D01*
X51523Y-24409D02*
X50523Y-25409D01*
X51523Y-25409D02*
X50523Y-24409D01*
X51523Y-23409D02*
X51523Y-25409D01*
X50523Y-25409D02*
X50523Y-23409D01*
X51523Y-25409D02*
X50523Y-25409D01*
X50523Y-23409D02*
X51523Y-23409D01*
X45748Y-27074D02*
X45748Y-26074D01*
X45748Y-26074D02*
X46748Y-27074D01*
X46748Y-26074D02*
X45748Y-27074D01*
X44748Y-26074D02*
X46748Y-26074D01*
X46748Y-27074D02*
X44748Y-27074D01*
X46748Y-26074D02*
X46748Y-27074D01*
X44748Y-27074D02*
X44748Y-26074D01*
G54D12*
X55393Y-27834D02*
X55671Y-27834D01*
X55671Y-27834D02*
X55671Y-27284D01*
X55671Y-27284D02*
X55393Y-27284D01*
X54721Y-27834D02*
X54999Y-27834D01*
X54721Y-27834D02*
X54721Y-27284D01*
X54721Y-27284D02*
X54999Y-27284D01*
X56692Y-38425D02*
X56414Y-38425D01*
X56414Y-38425D02*
X56414Y-38975D01*
X56414Y-38975D02*
X56692Y-38975D01*
X57364Y-38425D02*
X57086Y-38425D01*
X57364Y-38425D02*
X57364Y-38975D01*
X57364Y-38975D02*
X57086Y-38975D01*
X57086Y-38109D02*
X57364Y-38109D01*
X57364Y-38109D02*
X57364Y-37559D01*
X57364Y-37559D02*
X57086Y-37559D01*
X56414Y-38109D02*
X56692Y-38109D01*
X56414Y-38109D02*
X56414Y-37559D01*
X56414Y-37559D02*
X56692Y-37559D01*
X48385Y-26849D02*
X48663Y-26849D01*
X48663Y-26849D02*
X48663Y-26299D01*
X48663Y-26299D02*
X48385Y-26299D01*
X47713Y-26849D02*
X47991Y-26849D01*
X47713Y-26849D02*
X47713Y-26299D01*
X47713Y-26299D02*
X47991Y-26299D01*
X50551Y-26496D02*
X50273Y-26496D01*
X50273Y-26496D02*
X50273Y-27046D01*
X50273Y-27046D02*
X50551Y-27046D01*
X51223Y-26496D02*
X50945Y-26496D01*
X51223Y-26496D02*
X51223Y-27046D01*
X51223Y-27046D02*
X50945Y-27046D01*
X52007Y-26889D02*
X52007Y-26611D01*
X52007Y-26611D02*
X51457Y-26611D01*
X51457Y-26611D02*
X51457Y-26889D01*
X52007Y-27561D02*
X52007Y-27283D01*
X52007Y-27561D02*
X51457Y-27561D01*
X51457Y-27561D02*
X51457Y-27283D01*
G54D15*
X48106Y-42125D02*
G75*
G03X48106Y-42125I-500J0D01*
G74*
G01*
X47856Y-44625D02*
X52106Y-44625D01*
X52106Y-39625D02*
X52106Y-44625D01*
X47106Y-39625D02*
X52106Y-39625D01*
X47856Y-44625D02*
X47106Y-43875D01*
X47106Y-43875D02*
X47106Y-39625D01*
X45106Y-46125D02*
X45606Y-46625D01*
X45606Y-46625D02*
X54106Y-46625D01*
X54106Y-46625D02*
X54106Y-37625D01*
X54106Y-37625D02*
X45106Y-37625D01*
X45106Y-37625D02*
X45106Y-46125D01*
G54D16*
X42716Y-33700D02*
X40511Y-33700D01*
X40511Y-33700D02*
X40511Y-28424D01*
X40511Y-28424D02*
X42716Y-28424D01*
X50590Y-33700D02*
X42716Y-33700D01*
X42716Y-33700D02*
X42716Y-28424D01*
X42716Y-28424D02*
X50590Y-28424D01*
X50590Y-28424D02*
X50590Y-33700D01*
G54D12*
X48245Y-24961D02*
X48445Y-24961D01*
X48445Y-24961D02*
X48445Y-24491D01*
X48245Y-24961D02*
X48245Y-24491D01*
X47655Y-24961D02*
X47655Y-24491D01*
X47855Y-24961D02*
X47855Y-24491D01*
X47655Y-24961D02*
X47855Y-24961D01*
X47065Y-24961D02*
X47265Y-24961D01*
X47265Y-24961D02*
X47265Y-24491D01*
X47065Y-24961D02*
X47065Y-24491D01*
X47400Y-23266D02*
X48110Y-23266D01*
X48110Y-23266D02*
X48110Y-23461D01*
X47400Y-23266D02*
X47400Y-23461D01*
X46850Y-24491D02*
X46850Y-23461D01*
X46850Y-23461D02*
X48660Y-23461D01*
X48660Y-23461D02*
X48660Y-24491D01*
X48660Y-24491D02*
X46850Y-24491D01*
X54154Y-24330D02*
X54154Y-24590D01*
X53404Y-24330D02*
X53404Y-24590D01*
X53779Y-23780D02*
X53779Y-23520D01*
X53189Y-23780D02*
X54369Y-23780D01*
X54369Y-23780D02*
X54369Y-24330D01*
X54369Y-24330D02*
X53189Y-24330D01*
X53189Y-24330D02*
X53189Y-23780D01*
G54D15*
X46385Y-49397D02*
X47385Y-50397D01*
X47385Y-49397D02*
X46385Y-50397D01*
X46385Y-49397D02*
X50385Y-49397D01*
X50385Y-49397D02*
X50385Y-50397D01*
X50385Y-50397D02*
X46385Y-50397D01*
X47385Y-49397D02*
X47385Y-50397D01*
X46885Y-48897D02*
X46885Y-52897D01*
X49885Y-48897D02*
X49885Y-52897D01*
X48885Y-52897D02*
X48885Y-48897D01*
X47885Y-48897D02*
X47885Y-52897D01*
X46385Y-50397D02*
X46385Y-49397D01*
G54D11*
X49094Y-36948D02*
X49369Y-36948D01*
X48700Y-36948D02*
X48425Y-36948D01*
X49094Y-36436D02*
X49369Y-36436D01*
X48425Y-36436D02*
X48700Y-36436D01*
X49369Y-36442D02*
X49369Y-36942D01*
X48425Y-36942D02*
X48425Y-36442D01*
G54D10*
X53267Y-31181D02*
X53503Y-30944D01*
X53503Y-32519D02*
X53267Y-32519D01*
X53267Y-32519D02*
X53267Y-32283D01*
X54842Y-32283D02*
X54842Y-32519D01*
X54842Y-32519D02*
X54606Y-32519D01*
X54606Y-30944D02*
X54842Y-30944D01*
X54842Y-30944D02*
X54842Y-31181D01*
X53503Y-30944D02*
X53267Y-30944D01*
X53267Y-30944D02*
X53267Y-31181D01*
G54D17*
X50622Y-47628D02*
X50632Y-47636D01*
X50641Y-47662D01*
X50641Y-47679D01*
X50632Y-47705D01*
X50613Y-47722D01*
X50594Y-47731D01*
X50555Y-47739D01*
X50527Y-47739D01*
X50489Y-47731D01*
X50470Y-47722D01*
X50451Y-47705D01*
X50441Y-47679D01*
X50441Y-47662D01*
X50451Y-47636D01*
X50460Y-47628D01*
X50641Y-47456D02*
X50641Y-47559D01*
X50641Y-47508D02*
X50441Y-47508D01*
X50470Y-47525D01*
X50489Y-47542D01*
X50498Y-47559D01*
X49810Y-47902D02*
X49801Y-47894D01*
X49791Y-47876D01*
X49791Y-47834D01*
X49801Y-47816D01*
X49810Y-47808D01*
X49829Y-47799D01*
X49848Y-47799D01*
X49877Y-47808D01*
X49991Y-47911D01*
X49991Y-47799D01*
X49791Y-47688D02*
X49791Y-47671D01*
X49801Y-47654D01*
X49810Y-47645D01*
X49829Y-47636D01*
X49867Y-47628D01*
X49915Y-47628D01*
X49953Y-47636D01*
X49972Y-47645D01*
X49982Y-47654D01*
X49991Y-47671D01*
X49991Y-47688D01*
X49982Y-47705D01*
X49972Y-47714D01*
X49953Y-47722D01*
X49915Y-47731D01*
X49867Y-47731D01*
X49829Y-47722D01*
X49810Y-47714D01*
X49801Y-47705D01*
X49791Y-47688D01*
X49791Y-47516D02*
X49791Y-47499D01*
X49801Y-47482D01*
X49810Y-47474D01*
X49829Y-47465D01*
X49867Y-47456D01*
X49915Y-47456D01*
X49953Y-47465D01*
X49972Y-47474D01*
X49982Y-47482D01*
X49991Y-47499D01*
X49991Y-47516D01*
X49982Y-47534D01*
X49972Y-47542D01*
X49953Y-47551D01*
X49915Y-47559D01*
X49867Y-47559D01*
X49829Y-47551D01*
X49810Y-47542D01*
X49801Y-47534D01*
X49791Y-47516D01*
X49858Y-47379D02*
X50058Y-47379D01*
X49867Y-47379D02*
X49858Y-47362D01*
X49858Y-47328D01*
X49867Y-47311D01*
X49877Y-47302D01*
X49896Y-47294D01*
X49953Y-47294D01*
X49972Y-47302D01*
X49982Y-47311D01*
X49991Y-47328D01*
X49991Y-47362D01*
X49982Y-47379D01*
X52079Y-47628D02*
X52088Y-47636D01*
X52098Y-47662D01*
X52098Y-47679D01*
X52088Y-47705D01*
X52069Y-47722D01*
X52050Y-47731D01*
X52012Y-47739D01*
X51984Y-47739D01*
X51945Y-47731D01*
X51926Y-47722D01*
X51907Y-47705D01*
X51898Y-47679D01*
X51898Y-47662D01*
X51907Y-47636D01*
X51917Y-47628D01*
X51917Y-47559D02*
X51907Y-47551D01*
X51898Y-47534D01*
X51898Y-47491D01*
X51907Y-47474D01*
X51917Y-47465D01*
X51936Y-47456D01*
X51955Y-47456D01*
X51984Y-47465D01*
X52098Y-47568D01*
X52098Y-47456D01*
X51267Y-47902D02*
X51257Y-47894D01*
X51248Y-47876D01*
X51248Y-47834D01*
X51257Y-47816D01*
X51267Y-47808D01*
X51286Y-47799D01*
X51305Y-47799D01*
X51334Y-47808D01*
X51448Y-47911D01*
X51448Y-47799D01*
X51248Y-47688D02*
X51248Y-47671D01*
X51257Y-47654D01*
X51267Y-47645D01*
X51286Y-47636D01*
X51324Y-47628D01*
X51372Y-47628D01*
X51410Y-47636D01*
X51429Y-47645D01*
X51438Y-47654D01*
X51448Y-47671D01*
X51448Y-47688D01*
X51438Y-47705D01*
X51429Y-47714D01*
X51410Y-47722D01*
X51372Y-47731D01*
X51324Y-47731D01*
X51286Y-47722D01*
X51267Y-47714D01*
X51257Y-47705D01*
X51248Y-47688D01*
X51248Y-47516D02*
X51248Y-47499D01*
X51257Y-47482D01*
X51267Y-47474D01*
X51286Y-47465D01*
X51324Y-47456D01*
X51372Y-47456D01*
X51410Y-47465D01*
X51429Y-47474D01*
X51438Y-47482D01*
X51448Y-47499D01*
X51448Y-47516D01*
X51438Y-47534D01*
X51429Y-47542D01*
X51410Y-47551D01*
X51372Y-47559D01*
X51324Y-47559D01*
X51286Y-47551D01*
X51267Y-47542D01*
X51257Y-47534D01*
X51248Y-47516D01*
X51315Y-47379D02*
X51515Y-47379D01*
X51324Y-47379D02*
X51315Y-47362D01*
X51315Y-47328D01*
X51324Y-47311D01*
X51334Y-47302D01*
X51353Y-47294D01*
X51410Y-47294D01*
X51429Y-47302D01*
X51438Y-47311D01*
X51448Y-47328D01*
X51448Y-47362D01*
X51438Y-47379D01*
X54970Y-44953D02*
X54961Y-44962D01*
X54935Y-44972D01*
X54918Y-44972D01*
X54892Y-44962D01*
X54875Y-44943D01*
X54867Y-44924D01*
X54858Y-44886D01*
X54858Y-44858D01*
X54867Y-44819D01*
X54875Y-44800D01*
X54892Y-44781D01*
X54918Y-44772D01*
X54935Y-44772D01*
X54961Y-44781D01*
X54970Y-44791D01*
X55030Y-44772D02*
X55141Y-44772D01*
X55081Y-44848D01*
X55107Y-44848D01*
X55124Y-44858D01*
X55132Y-44867D01*
X55141Y-44886D01*
X55141Y-44934D01*
X55132Y-44953D01*
X55124Y-44962D01*
X55107Y-44972D01*
X55055Y-44972D01*
X55038Y-44962D01*
X55030Y-44953D01*
X54781Y-44122D02*
X54798Y-44122D01*
X54815Y-44131D01*
X54824Y-44141D01*
X54832Y-44160D01*
X54841Y-44198D01*
X54841Y-44246D01*
X54832Y-44284D01*
X54824Y-44303D01*
X54815Y-44312D01*
X54798Y-44322D01*
X54781Y-44322D01*
X54764Y-44312D01*
X54755Y-44303D01*
X54747Y-44284D01*
X54738Y-44246D01*
X54738Y-44198D01*
X54747Y-44160D01*
X54755Y-44141D01*
X54764Y-44131D01*
X54781Y-44122D01*
X54918Y-44303D02*
X54927Y-44312D01*
X54918Y-44322D01*
X54910Y-44312D01*
X54918Y-44303D01*
X54918Y-44322D01*
X55098Y-44322D02*
X54995Y-44322D01*
X55047Y-44322D02*
X55047Y-44122D01*
X55030Y-44150D01*
X55012Y-44169D01*
X54995Y-44179D01*
X55252Y-44189D02*
X55252Y-44322D01*
X55175Y-44189D02*
X55175Y-44293D01*
X55184Y-44312D01*
X55201Y-44322D01*
X55227Y-44322D01*
X55244Y-44312D01*
X55252Y-44303D01*
X55425Y-42667D02*
X55435Y-42676D01*
X55444Y-42702D01*
X55444Y-42719D01*
X55435Y-42744D01*
X55416Y-42762D01*
X55397Y-42770D01*
X55359Y-42779D01*
X55330Y-42779D01*
X55292Y-42770D01*
X55273Y-42762D01*
X55254Y-42744D01*
X55244Y-42719D01*
X55244Y-42702D01*
X55254Y-42676D01*
X55263Y-42667D01*
X55311Y-42513D02*
X55444Y-42513D01*
X55235Y-42556D02*
X55378Y-42599D01*
X55378Y-42487D01*
X54661Y-42856D02*
X54794Y-42856D01*
X54585Y-42899D02*
X54728Y-42942D01*
X54728Y-42830D01*
X54594Y-42779D02*
X54594Y-42659D01*
X54794Y-42736D01*
X54594Y-42556D02*
X54594Y-42539D01*
X54604Y-42522D01*
X54613Y-42513D01*
X54632Y-42504D01*
X54670Y-42496D01*
X54718Y-42496D01*
X54756Y-42504D01*
X54775Y-42513D01*
X54785Y-42522D01*
X54794Y-42539D01*
X54794Y-42556D01*
X54785Y-42573D01*
X54775Y-42582D01*
X54756Y-42590D01*
X54718Y-42599D01*
X54670Y-42599D01*
X54632Y-42590D01*
X54613Y-42582D01*
X54604Y-42573D01*
X54594Y-42556D01*
X54661Y-42419D02*
X54861Y-42419D01*
X54670Y-42419D02*
X54661Y-42402D01*
X54661Y-42367D01*
X54670Y-42350D01*
X54680Y-42342D01*
X54699Y-42333D01*
X54756Y-42333D01*
X54775Y-42342D01*
X54785Y-42350D01*
X54794Y-42367D01*
X54794Y-42402D01*
X54785Y-42419D01*
X55425Y-41841D02*
X55435Y-41849D01*
X55444Y-41875D01*
X55444Y-41892D01*
X55435Y-41918D01*
X55416Y-41935D01*
X55397Y-41943D01*
X55359Y-41952D01*
X55330Y-41952D01*
X55292Y-41943D01*
X55273Y-41935D01*
X55254Y-41918D01*
X55244Y-41892D01*
X55244Y-41875D01*
X55254Y-41849D01*
X55263Y-41841D01*
X55244Y-41678D02*
X55244Y-41763D01*
X55340Y-41772D01*
X55330Y-41763D01*
X55320Y-41746D01*
X55320Y-41703D01*
X55330Y-41686D01*
X55340Y-41678D01*
X55359Y-41669D01*
X55406Y-41669D01*
X55425Y-41678D01*
X55435Y-41686D01*
X55444Y-41703D01*
X55444Y-41746D01*
X55435Y-41763D01*
X55425Y-41772D01*
X54661Y-42029D02*
X54794Y-42029D01*
X54585Y-42072D02*
X54728Y-42115D01*
X54728Y-42003D01*
X54594Y-41952D02*
X54594Y-41832D01*
X54794Y-41909D01*
X54594Y-41729D02*
X54594Y-41712D01*
X54604Y-41695D01*
X54613Y-41686D01*
X54632Y-41678D01*
X54670Y-41669D01*
X54718Y-41669D01*
X54756Y-41678D01*
X54775Y-41686D01*
X54785Y-41695D01*
X54794Y-41712D01*
X54794Y-41729D01*
X54785Y-41746D01*
X54775Y-41755D01*
X54756Y-41763D01*
X54718Y-41772D01*
X54670Y-41772D01*
X54632Y-41763D01*
X54613Y-41755D01*
X54604Y-41746D01*
X54594Y-41729D01*
X54661Y-41592D02*
X54861Y-41592D01*
X54670Y-41592D02*
X54661Y-41575D01*
X54661Y-41541D01*
X54670Y-41523D01*
X54680Y-41515D01*
X54699Y-41506D01*
X54756Y-41506D01*
X54775Y-41515D01*
X54785Y-41523D01*
X54794Y-41541D01*
X54794Y-41575D01*
X54785Y-41592D01*
X55425Y-41014D02*
X55435Y-41022D01*
X55444Y-41048D01*
X55444Y-41065D01*
X55435Y-41091D01*
X55416Y-41108D01*
X55397Y-41117D01*
X55359Y-41125D01*
X55330Y-41125D01*
X55292Y-41117D01*
X55273Y-41108D01*
X55254Y-41091D01*
X55244Y-41065D01*
X55244Y-41048D01*
X55254Y-41022D01*
X55263Y-41014D01*
X55244Y-40859D02*
X55244Y-40894D01*
X55254Y-40911D01*
X55263Y-40919D01*
X55292Y-40937D01*
X55330Y-40945D01*
X55406Y-40945D01*
X55425Y-40937D01*
X55435Y-40928D01*
X55444Y-40911D01*
X55444Y-40877D01*
X55435Y-40859D01*
X55425Y-40851D01*
X55406Y-40842D01*
X55359Y-40842D01*
X55340Y-40851D01*
X55330Y-40859D01*
X55320Y-40877D01*
X55320Y-40911D01*
X55330Y-40928D01*
X55340Y-40937D01*
X55359Y-40945D01*
X54661Y-41202D02*
X54794Y-41202D01*
X54585Y-41245D02*
X54728Y-41288D01*
X54728Y-41177D01*
X54594Y-41125D02*
X54594Y-41005D01*
X54794Y-41082D01*
X54594Y-40902D02*
X54594Y-40885D01*
X54604Y-40868D01*
X54613Y-40859D01*
X54632Y-40851D01*
X54670Y-40842D01*
X54718Y-40842D01*
X54756Y-40851D01*
X54775Y-40859D01*
X54785Y-40868D01*
X54794Y-40885D01*
X54794Y-40902D01*
X54785Y-40919D01*
X54775Y-40928D01*
X54756Y-40937D01*
X54718Y-40945D01*
X54670Y-40945D01*
X54632Y-40937D01*
X54613Y-40928D01*
X54604Y-40919D01*
X54594Y-40902D01*
X54661Y-40765D02*
X54861Y-40765D01*
X54670Y-40765D02*
X54661Y-40748D01*
X54661Y-40714D01*
X54670Y-40697D01*
X54680Y-40688D01*
X54699Y-40679D01*
X54756Y-40679D01*
X54775Y-40688D01*
X54785Y-40697D01*
X54794Y-40714D01*
X54794Y-40748D01*
X54785Y-40765D01*
X55425Y-40226D02*
X55435Y-40235D01*
X55444Y-40261D01*
X55444Y-40278D01*
X55435Y-40303D01*
X55416Y-40321D01*
X55397Y-40329D01*
X55359Y-40338D01*
X55330Y-40338D01*
X55292Y-40329D01*
X55273Y-40321D01*
X55254Y-40303D01*
X55244Y-40278D01*
X55244Y-40261D01*
X55254Y-40235D01*
X55263Y-40226D01*
X55244Y-40166D02*
X55244Y-40046D01*
X55444Y-40123D01*
X54661Y-40415D02*
X54794Y-40415D01*
X54585Y-40458D02*
X54728Y-40501D01*
X54728Y-40389D01*
X54594Y-40338D02*
X54594Y-40218D01*
X54794Y-40295D01*
X54594Y-40115D02*
X54594Y-40098D01*
X54604Y-40081D01*
X54613Y-40072D01*
X54632Y-40063D01*
X54670Y-40055D01*
X54718Y-40055D01*
X54756Y-40063D01*
X54775Y-40072D01*
X54785Y-40081D01*
X54794Y-40098D01*
X54794Y-40115D01*
X54785Y-40132D01*
X54775Y-40141D01*
X54756Y-40149D01*
X54718Y-40158D01*
X54670Y-40158D01*
X54632Y-40149D01*
X54613Y-40141D01*
X54604Y-40132D01*
X54594Y-40115D01*
X54661Y-39978D02*
X54861Y-39978D01*
X54670Y-39978D02*
X54661Y-39961D01*
X54661Y-39926D01*
X54670Y-39909D01*
X54680Y-39901D01*
X54699Y-39892D01*
X54756Y-39892D01*
X54775Y-39901D01*
X54785Y-39909D01*
X54794Y-39926D01*
X54794Y-39961D01*
X54785Y-39978D01*
X54126Y-30108D02*
X54136Y-30117D01*
X54145Y-30143D01*
X54145Y-30160D01*
X54136Y-30185D01*
X54117Y-30203D01*
X54097Y-30211D01*
X54059Y-30220D01*
X54031Y-30220D01*
X53993Y-30211D01*
X53974Y-30203D01*
X53955Y-30185D01*
X53945Y-30160D01*
X53945Y-30143D01*
X53955Y-30117D01*
X53964Y-30108D01*
X54031Y-30005D02*
X54021Y-30023D01*
X54012Y-30031D01*
X53993Y-30040D01*
X53983Y-30040D01*
X53964Y-30031D01*
X53955Y-30023D01*
X53945Y-30005D01*
X53945Y-29971D01*
X53955Y-29954D01*
X53964Y-29945D01*
X53983Y-29937D01*
X53993Y-29937D01*
X54012Y-29945D01*
X54021Y-29954D01*
X54031Y-29971D01*
X54031Y-30005D01*
X54040Y-30023D01*
X54050Y-30031D01*
X54069Y-30040D01*
X54107Y-30040D01*
X54126Y-30031D01*
X54136Y-30023D01*
X54145Y-30005D01*
X54145Y-29971D01*
X54136Y-29954D01*
X54126Y-29945D01*
X54107Y-29937D01*
X54069Y-29937D01*
X54050Y-29945D01*
X54040Y-29954D01*
X54031Y-29971D01*
X53295Y-30297D02*
X53295Y-30280D01*
X53305Y-30263D01*
X53314Y-30254D01*
X53333Y-30245D01*
X53371Y-30237D01*
X53419Y-30237D01*
X53457Y-30245D01*
X53476Y-30254D01*
X53486Y-30263D01*
X53495Y-30280D01*
X53495Y-30297D01*
X53486Y-30314D01*
X53476Y-30323D01*
X53457Y-30331D01*
X53419Y-30340D01*
X53371Y-30340D01*
X53333Y-30331D01*
X53314Y-30323D01*
X53305Y-30314D01*
X53295Y-30297D01*
X53476Y-30160D02*
X53486Y-30151D01*
X53495Y-30160D01*
X53486Y-30168D01*
X53476Y-30160D01*
X53495Y-30160D01*
X53495Y-29980D02*
X53495Y-30083D01*
X53495Y-30031D02*
X53295Y-30031D01*
X53324Y-30048D01*
X53343Y-30065D01*
X53352Y-30083D01*
X53362Y-29825D02*
X53495Y-29825D01*
X53362Y-29903D02*
X53467Y-29903D01*
X53486Y-29894D01*
X53495Y-29877D01*
X53495Y-29851D01*
X53486Y-29834D01*
X53476Y-29825D01*
X49323Y-34636D02*
X49332Y-34644D01*
X49342Y-34670D01*
X49342Y-34687D01*
X49332Y-34713D01*
X49313Y-34730D01*
X49294Y-34739D01*
X49256Y-34747D01*
X49228Y-34747D01*
X49190Y-34739D01*
X49171Y-34730D01*
X49151Y-34713D01*
X49142Y-34687D01*
X49142Y-34670D01*
X49151Y-34644D01*
X49161Y-34636D01*
X49342Y-34550D02*
X49342Y-34516D01*
X49332Y-34499D01*
X49323Y-34490D01*
X49294Y-34473D01*
X49256Y-34464D01*
X49180Y-34464D01*
X49161Y-34473D01*
X49151Y-34482D01*
X49142Y-34499D01*
X49142Y-34533D01*
X49151Y-34550D01*
X49161Y-34559D01*
X49180Y-34567D01*
X49228Y-34567D01*
X49247Y-34559D01*
X49256Y-34550D01*
X49266Y-34533D01*
X49266Y-34499D01*
X49256Y-34482D01*
X49247Y-34473D01*
X49228Y-34464D01*
X48492Y-34824D02*
X48492Y-34807D01*
X48501Y-34790D01*
X48511Y-34782D01*
X48530Y-34773D01*
X48568Y-34764D01*
X48616Y-34764D01*
X48654Y-34773D01*
X48673Y-34782D01*
X48682Y-34790D01*
X48692Y-34807D01*
X48692Y-34824D01*
X48682Y-34842D01*
X48673Y-34850D01*
X48654Y-34859D01*
X48616Y-34867D01*
X48568Y-34867D01*
X48530Y-34859D01*
X48511Y-34850D01*
X48501Y-34842D01*
X48492Y-34824D01*
X48673Y-34687D02*
X48682Y-34679D01*
X48692Y-34687D01*
X48682Y-34696D01*
X48673Y-34687D01*
X48692Y-34687D01*
X48692Y-34507D02*
X48692Y-34610D01*
X48692Y-34559D02*
X48492Y-34559D01*
X48521Y-34576D01*
X48540Y-34593D01*
X48549Y-34610D01*
X48559Y-34353D02*
X48692Y-34353D01*
X48559Y-34430D02*
X48663Y-34430D01*
X48682Y-34422D01*
X48692Y-34404D01*
X48692Y-34379D01*
X48682Y-34362D01*
X48673Y-34353D01*
X53772Y-25745D02*
X53781Y-25754D01*
X53791Y-25779D01*
X53791Y-25797D01*
X53781Y-25822D01*
X53762Y-25839D01*
X53743Y-25848D01*
X53705Y-25857D01*
X53676Y-25857D01*
X53638Y-25848D01*
X53619Y-25839D01*
X53600Y-25822D01*
X53591Y-25797D01*
X53591Y-25779D01*
X53600Y-25754D01*
X53610Y-25745D01*
X53791Y-25574D02*
X53791Y-25677D01*
X53791Y-25625D02*
X53591Y-25625D01*
X53619Y-25642D01*
X53638Y-25659D01*
X53648Y-25677D01*
X53591Y-25462D02*
X53591Y-25445D01*
X53600Y-25428D01*
X53610Y-25419D01*
X53629Y-25411D01*
X53667Y-25402D01*
X53715Y-25402D01*
X53753Y-25411D01*
X53772Y-25419D01*
X53781Y-25428D01*
X53791Y-25445D01*
X53791Y-25462D01*
X53781Y-25479D01*
X53772Y-25488D01*
X53753Y-25497D01*
X53715Y-25505D01*
X53667Y-25505D01*
X53629Y-25497D01*
X53610Y-25488D01*
X53600Y-25479D01*
X53591Y-25462D01*
X54441Y-25659D02*
X54441Y-25762D01*
X54441Y-25711D02*
X54241Y-25711D01*
X54269Y-25728D01*
X54288Y-25745D01*
X54298Y-25762D01*
X54307Y-25505D02*
X54441Y-25505D01*
X54307Y-25582D02*
X54412Y-25582D01*
X54431Y-25574D01*
X54441Y-25557D01*
X54441Y-25531D01*
X54431Y-25514D01*
X54422Y-25505D01*
X48260Y-25863D02*
X48269Y-25872D01*
X48279Y-25898D01*
X48279Y-25915D01*
X48269Y-25940D01*
X48250Y-25958D01*
X48231Y-25966D01*
X48193Y-25975D01*
X48165Y-25975D01*
X48127Y-25966D01*
X48108Y-25958D01*
X48088Y-25940D01*
X48079Y-25915D01*
X48079Y-25898D01*
X48088Y-25872D01*
X48098Y-25863D01*
X48279Y-25692D02*
X48279Y-25795D01*
X48279Y-25743D02*
X48079Y-25743D01*
X48108Y-25760D01*
X48127Y-25778D01*
X48136Y-25795D01*
X48279Y-25520D02*
X48279Y-25623D01*
X48279Y-25572D02*
X48079Y-25572D01*
X48108Y-25589D01*
X48127Y-25606D01*
X48136Y-25623D01*
X48929Y-25778D02*
X48929Y-25880D01*
X48929Y-25829D02*
X48729Y-25829D01*
X48758Y-25846D01*
X48777Y-25863D01*
X48786Y-25880D01*
X48796Y-25623D02*
X48929Y-25623D01*
X48796Y-25700D02*
X48900Y-25700D01*
X48919Y-25692D01*
X48929Y-25675D01*
X48929Y-25649D01*
X48919Y-25632D01*
X48910Y-25623D01*
X54884Y-23693D02*
X54875Y-23702D01*
X54850Y-23712D01*
X54832Y-23712D01*
X54807Y-23702D01*
X54790Y-23683D01*
X54781Y-23664D01*
X54772Y-23626D01*
X54772Y-23598D01*
X54781Y-23560D01*
X54790Y-23541D01*
X54807Y-23522D01*
X54832Y-23512D01*
X54850Y-23512D01*
X54875Y-23522D01*
X54884Y-23531D01*
X55055Y-23712D02*
X54952Y-23712D01*
X55004Y-23712D02*
X55004Y-23512D01*
X54987Y-23541D01*
X54970Y-23560D01*
X54952Y-23569D01*
X55124Y-23531D02*
X55132Y-23522D01*
X55150Y-23512D01*
X55192Y-23512D01*
X55210Y-23522D01*
X55218Y-23531D01*
X55227Y-23550D01*
X55227Y-23569D01*
X55218Y-23598D01*
X55115Y-23712D01*
X55227Y-23712D01*
X54970Y-24362D02*
X54867Y-24362D01*
X54918Y-24362D02*
X54918Y-24162D01*
X54901Y-24191D01*
X54884Y-24210D01*
X54867Y-24219D01*
X55124Y-24229D02*
X55124Y-24362D01*
X55047Y-24229D02*
X55047Y-24333D01*
X55055Y-24352D01*
X55072Y-24362D01*
X55098Y-24362D01*
X55115Y-24352D01*
X55124Y-24343D01*
G54D12*
X45933Y-24247D02*
X45948Y-24262D01*
X45962Y-24305D01*
X45962Y-24333D01*
X45948Y-24376D01*
X45919Y-24405D01*
X45891Y-24419D01*
X45833Y-24433D01*
X45791Y-24433D01*
X45733Y-24419D01*
X45705Y-24405D01*
X45676Y-24376D01*
X45662Y-24333D01*
X45662Y-24305D01*
X45676Y-24262D01*
X45691Y-24247D01*
X45962Y-23962D02*
X45962Y-24133D01*
X45962Y-24047D02*
X45662Y-24047D01*
X45705Y-24076D01*
X45733Y-24105D01*
X45748Y-24133D01*
X45662Y-23862D02*
X45662Y-23676D01*
X45776Y-23776D01*
X45776Y-23733D01*
X45791Y-23705D01*
X45805Y-23690D01*
X45833Y-23676D01*
X45905Y-23676D01*
X45933Y-23690D01*
X45948Y-23705D01*
X45962Y-23733D01*
X45962Y-23819D01*
X45948Y-23847D01*
X45933Y-23862D01*
G54D18*
X55351Y-25795D02*
X55351Y-25495D01*
X55422Y-25495D01*
X55465Y-25509D01*
X55493Y-25538D01*
X55508Y-25566D01*
X55522Y-25624D01*
X55522Y-25666D01*
X55508Y-25724D01*
X55493Y-25752D01*
X55465Y-25781D01*
X55422Y-25795D01*
X55351Y-25795D01*
X55808Y-25795D02*
X55636Y-25795D01*
X55722Y-25795D02*
X55722Y-25495D01*
X55693Y-25538D01*
X55665Y-25566D01*
X55636Y-25581D01*
X55279Y-26995D02*
X55136Y-26995D01*
X55136Y-26695D01*
X55379Y-26838D02*
X55479Y-26838D01*
X55522Y-26995D02*
X55379Y-26995D01*
X55379Y-26695D01*
X55522Y-26695D01*
X55651Y-26995D02*
X55651Y-26695D01*
X55722Y-26695D01*
X55765Y-26709D01*
X55793Y-26738D01*
X55808Y-26766D01*
X55822Y-26824D01*
X55822Y-26866D01*
X55808Y-26924D01*
X55793Y-26952D01*
X55765Y-26981D01*
X55722Y-26995D01*
X55651Y-26995D01*
G54D10*
X47110Y-19430D02*
X47110Y-19036D01*
X47335Y-19430D02*
X47167Y-19205D01*
X47335Y-19036D02*
X47110Y-19261D01*
X47710Y-19430D02*
X47485Y-19430D01*
X47598Y-19430D02*
X47598Y-19036D01*
X47560Y-19092D01*
X47523Y-19130D01*
X47485Y-19148D01*
X46567Y-19786D02*
X46548Y-19805D01*
X46492Y-19823D01*
X46454Y-19823D01*
X46398Y-19805D01*
X46361Y-19767D01*
X46342Y-19730D01*
X46323Y-19655D01*
X46323Y-19598D01*
X46342Y-19523D01*
X46361Y-19486D01*
X46398Y-19448D01*
X46454Y-19430D01*
X46492Y-19430D01*
X46548Y-19448D01*
X46567Y-19467D01*
X46811Y-19430D02*
X46886Y-19430D01*
X46923Y-19448D01*
X46961Y-19486D01*
X46979Y-19561D01*
X46979Y-19692D01*
X46961Y-19767D01*
X46923Y-19805D01*
X46886Y-19823D01*
X46811Y-19823D01*
X46773Y-19805D01*
X46736Y-19767D01*
X46717Y-19692D01*
X46717Y-19561D01*
X46736Y-19486D01*
X46773Y-19448D01*
X46811Y-19430D01*
X47148Y-19823D02*
X47148Y-19430D01*
X47373Y-19823D01*
X47373Y-19430D01*
X47560Y-19823D02*
X47560Y-19430D01*
X47785Y-19823D01*
X47785Y-19430D01*
X47879Y-19861D02*
X48179Y-19861D01*
X48235Y-19430D02*
X48479Y-19430D01*
X48348Y-19580D01*
X48404Y-19580D01*
X48442Y-19598D01*
X48460Y-19617D01*
X48479Y-19655D01*
X48479Y-19748D01*
X48460Y-19786D01*
X48442Y-19805D01*
X48404Y-19823D01*
X48292Y-19823D01*
X48254Y-19805D01*
X48235Y-19786D01*
X53331Y-19430D02*
X53331Y-19036D01*
X53556Y-19430D02*
X53387Y-19205D01*
X53556Y-19036D02*
X53331Y-19261D01*
X53706Y-19073D02*
X53725Y-19055D01*
X53762Y-19036D01*
X53856Y-19036D01*
X53893Y-19055D01*
X53912Y-19073D01*
X53931Y-19111D01*
X53931Y-19148D01*
X53912Y-19205D01*
X53687Y-19430D01*
X53931Y-19430D01*
X52787Y-19786D02*
X52769Y-19805D01*
X52712Y-19823D01*
X52675Y-19823D01*
X52619Y-19805D01*
X52581Y-19767D01*
X52562Y-19730D01*
X52544Y-19655D01*
X52544Y-19598D01*
X52562Y-19523D01*
X52581Y-19486D01*
X52619Y-19448D01*
X52675Y-19430D01*
X52712Y-19430D01*
X52769Y-19448D01*
X52787Y-19467D01*
X53031Y-19430D02*
X53106Y-19430D01*
X53143Y-19448D01*
X53181Y-19486D01*
X53200Y-19561D01*
X53200Y-19692D01*
X53181Y-19767D01*
X53143Y-19805D01*
X53106Y-19823D01*
X53031Y-19823D01*
X52994Y-19805D01*
X52956Y-19767D01*
X52937Y-19692D01*
X52937Y-19561D01*
X52956Y-19486D01*
X52994Y-19448D01*
X53031Y-19430D01*
X53368Y-19823D02*
X53368Y-19430D01*
X53593Y-19823D01*
X53593Y-19430D01*
X53781Y-19823D02*
X53781Y-19430D01*
X54006Y-19823D01*
X54006Y-19430D01*
X54100Y-19861D02*
X54400Y-19861D01*
X54456Y-19430D02*
X54700Y-19430D01*
X54568Y-19580D01*
X54625Y-19580D01*
X54662Y-19598D01*
X54681Y-19617D01*
X54700Y-19655D01*
X54700Y-19748D01*
X54681Y-19786D01*
X54662Y-19805D01*
X54625Y-19823D01*
X54512Y-19823D01*
X54475Y-19805D01*
X54456Y-19786D01*
G54D19*
X55964Y-26070D02*
X55964Y-25670D01*
X56116Y-25670D01*
X56155Y-25689D01*
X56174Y-25708D01*
X56193Y-25746D01*
X56193Y-25803D01*
X56174Y-25841D01*
X56155Y-25860D01*
X56116Y-25879D01*
X55964Y-25879D01*
X56574Y-26070D02*
X56345Y-26070D01*
X56459Y-26070D02*
X56459Y-25670D01*
X56421Y-25727D01*
X56383Y-25765D01*
X56345Y-25784D01*
X44259Y-40964D02*
X43859Y-40964D01*
X43859Y-40812D01*
X43878Y-40774D01*
X43897Y-40755D01*
X43935Y-40735D01*
X43992Y-40735D01*
X44030Y-40755D01*
X44049Y-40774D01*
X44068Y-40812D01*
X44068Y-40964D01*
X43897Y-40583D02*
X43878Y-40564D01*
X43859Y-40526D01*
X43859Y-40431D01*
X43878Y-40393D01*
X43897Y-40374D01*
X43935Y-40355D01*
X43973Y-40355D01*
X44030Y-40374D01*
X44259Y-40602D01*
X44259Y-40355D01*
X44259Y-45767D02*
X43859Y-45767D01*
X43859Y-45615D01*
X43878Y-45577D01*
X43897Y-45558D01*
X43935Y-45539D01*
X43992Y-45539D01*
X44030Y-45558D01*
X44049Y-45577D01*
X44068Y-45615D01*
X44068Y-45767D01*
X43859Y-45405D02*
X43859Y-45158D01*
X44011Y-45291D01*
X44011Y-45234D01*
X44030Y-45196D01*
X44049Y-45177D01*
X44087Y-45158D01*
X44183Y-45158D01*
X44221Y-45177D01*
X44240Y-45196D01*
X44259Y-45234D01*
X44259Y-45348D01*
X44240Y-45386D01*
X44221Y-45405D01*
X56693Y-31161D02*
X56293Y-31161D01*
X56293Y-31008D01*
X56312Y-30970D01*
X56331Y-30951D01*
X56369Y-30932D01*
X56426Y-30932D01*
X56464Y-30951D01*
X56483Y-30970D01*
X56502Y-31008D01*
X56502Y-31161D01*
X56293Y-30570D02*
X56293Y-30761D01*
X56483Y-30780D01*
X56464Y-30761D01*
X56445Y-30723D01*
X56445Y-30628D01*
X56464Y-30589D01*
X56483Y-30570D01*
X56521Y-30551D01*
X56616Y-30551D01*
X56655Y-30570D01*
X56674Y-30589D01*
X56693Y-30628D01*
X56693Y-30723D01*
X56674Y-30761D01*
X56655Y-30780D01*
X56267Y-38602D02*
X55867Y-38602D01*
X55867Y-38449D01*
X55886Y-38411D01*
X55905Y-38392D01*
X55943Y-38373D01*
X56000Y-38373D01*
X56038Y-38392D01*
X56057Y-38411D01*
X56076Y-38449D01*
X56076Y-38602D01*
X55867Y-38030D02*
X55867Y-38107D01*
X55886Y-38145D01*
X55905Y-38164D01*
X55962Y-38202D01*
X56038Y-38221D01*
X56190Y-38221D01*
X56229Y-38202D01*
X56248Y-38183D01*
X56267Y-38145D01*
X56267Y-38068D01*
X56248Y-38030D01*
X56229Y-38011D01*
X56190Y-37992D01*
X56095Y-37992D01*
X56057Y-38011D01*
X56038Y-38030D01*
X56019Y-38068D01*
X56019Y-38145D01*
X56038Y-38183D01*
X56057Y-38202D01*
X56095Y-38221D01*
X46279Y-36778D02*
X46279Y-36378D01*
X46431Y-36378D01*
X46470Y-36398D01*
X46489Y-36417D01*
X46508Y-36455D01*
X46508Y-36512D01*
X46489Y-36550D01*
X46470Y-36569D01*
X46431Y-36588D01*
X46279Y-36588D01*
X46641Y-36378D02*
X46908Y-36378D01*
X46736Y-36778D01*
X50354Y-24704D02*
X49954Y-24704D01*
X49954Y-24552D01*
X49973Y-24514D01*
X49992Y-24495D01*
X50030Y-24476D01*
X50087Y-24476D01*
X50126Y-24495D01*
X50145Y-24514D01*
X50164Y-24552D01*
X50164Y-24704D01*
X50126Y-24247D02*
X50106Y-24285D01*
X50087Y-24304D01*
X50049Y-24323D01*
X50030Y-24323D01*
X49992Y-24304D01*
X49973Y-24285D01*
X49954Y-24247D01*
X49954Y-24171D01*
X49973Y-24133D01*
X49992Y-24114D01*
X50030Y-24095D01*
X50049Y-24095D01*
X50087Y-24114D01*
X50106Y-24133D01*
X50126Y-24171D01*
X50126Y-24247D01*
X50145Y-24285D01*
X50164Y-24304D01*
X50202Y-24323D01*
X50278Y-24323D01*
X50316Y-24304D01*
X50335Y-24285D01*
X50354Y-24247D01*
X50354Y-24171D01*
X50335Y-24133D01*
X50316Y-24114D01*
X50278Y-24095D01*
X50202Y-24095D01*
X50164Y-24114D01*
X50145Y-24133D01*
X50126Y-24171D01*
X45452Y-27605D02*
X45452Y-27205D01*
X45605Y-27205D01*
X45643Y-27224D01*
X45662Y-27243D01*
X45681Y-27281D01*
X45681Y-27339D01*
X45662Y-27377D01*
X45643Y-27396D01*
X45605Y-27415D01*
X45452Y-27415D01*
X45871Y-27605D02*
X45948Y-27605D01*
X45986Y-27586D01*
X46005Y-27567D01*
X46043Y-27510D01*
X46062Y-27434D01*
X46062Y-27281D01*
X46043Y-27243D01*
X46024Y-27224D01*
X45986Y-27205D01*
X45909Y-27205D01*
X45871Y-27224D01*
X45852Y-27243D01*
X45833Y-27281D01*
X45833Y-27377D01*
X45852Y-27415D01*
X45871Y-27434D01*
X45909Y-27453D01*
X45986Y-27453D01*
X46024Y-27434D01*
X46043Y-27415D01*
X46062Y-27377D01*
G54D17*
X55260Y-27614D02*
X55167Y-27674D01*
X55260Y-27716D02*
X55063Y-27716D01*
X55063Y-27648D01*
X55073Y-27631D01*
X55082Y-27622D01*
X55101Y-27614D01*
X55129Y-27614D01*
X55148Y-27622D01*
X55157Y-27631D01*
X55167Y-27648D01*
X55167Y-27716D01*
X55260Y-27442D02*
X55260Y-27545D01*
X55260Y-27494D02*
X55063Y-27494D01*
X55092Y-27511D01*
X55110Y-27528D01*
X55120Y-27545D01*
X55956Y-27597D02*
X55956Y-27700D01*
X55956Y-27649D02*
X55756Y-27649D01*
X55784Y-27666D01*
X55803Y-27683D01*
X55813Y-27700D01*
X55956Y-27520D02*
X55756Y-27520D01*
X55956Y-27417D02*
X55842Y-27494D01*
X55756Y-27417D02*
X55870Y-27520D01*
X57003Y-38705D02*
X56910Y-38765D01*
X57003Y-38808D02*
X56806Y-38808D01*
X56806Y-38740D01*
X56816Y-38722D01*
X56825Y-38714D01*
X56844Y-38705D01*
X56872Y-38705D01*
X56891Y-38714D01*
X56900Y-38722D01*
X56910Y-38740D01*
X56910Y-38808D01*
X56825Y-38637D02*
X56816Y-38628D01*
X56806Y-38611D01*
X56806Y-38568D01*
X56816Y-38551D01*
X56825Y-38542D01*
X56844Y-38534D01*
X56863Y-38534D01*
X56891Y-38542D01*
X57003Y-38645D01*
X57003Y-38534D01*
X56130Y-39013D02*
X56120Y-39005D01*
X56111Y-38987D01*
X56111Y-38945D01*
X56120Y-38927D01*
X56130Y-38919D01*
X56149Y-38910D01*
X56168Y-38910D01*
X56196Y-38919D01*
X56311Y-39022D01*
X56311Y-38910D01*
X56111Y-38850D02*
X56111Y-38730D01*
X56311Y-38807D01*
X56111Y-38627D02*
X56111Y-38610D01*
X56120Y-38593D01*
X56130Y-38585D01*
X56149Y-38576D01*
X56187Y-38567D01*
X56235Y-38567D01*
X56273Y-38576D01*
X56292Y-38585D01*
X56301Y-38593D01*
X56311Y-38610D01*
X56311Y-38627D01*
X56301Y-38645D01*
X56292Y-38653D01*
X56273Y-38662D01*
X56235Y-38670D01*
X56187Y-38670D01*
X56149Y-38662D01*
X56130Y-38653D01*
X56120Y-38645D01*
X56111Y-38627D01*
X56311Y-38490D02*
X56111Y-38490D01*
X56311Y-38387D02*
X56196Y-38465D01*
X56111Y-38387D02*
X56225Y-38490D01*
X56953Y-37889D02*
X56860Y-37949D01*
X56953Y-37992D02*
X56756Y-37992D01*
X56756Y-37923D01*
X56766Y-37906D01*
X56775Y-37898D01*
X56794Y-37889D01*
X56822Y-37889D01*
X56841Y-37898D01*
X56850Y-37906D01*
X56860Y-37923D01*
X56860Y-37992D01*
X56756Y-37829D02*
X56756Y-37718D01*
X56831Y-37778D01*
X56831Y-37752D01*
X56841Y-37735D01*
X56850Y-37726D01*
X56869Y-37718D01*
X56916Y-37718D01*
X56935Y-37726D01*
X56944Y-37735D01*
X56953Y-37752D01*
X56953Y-37803D01*
X56944Y-37821D01*
X56935Y-37829D01*
X57649Y-37886D02*
X57649Y-37988D01*
X57649Y-37937D02*
X57449Y-37937D01*
X57477Y-37954D01*
X57496Y-37971D01*
X57506Y-37988D01*
X57649Y-37808D02*
X57449Y-37808D01*
X57592Y-37748D01*
X57449Y-37688D01*
X57649Y-37688D01*
X48253Y-26629D02*
X48159Y-26689D01*
X48253Y-26732D02*
X48056Y-26732D01*
X48056Y-26664D01*
X48065Y-26646D01*
X48074Y-26638D01*
X48093Y-26629D01*
X48121Y-26629D01*
X48140Y-26638D01*
X48149Y-26646D01*
X48159Y-26664D01*
X48159Y-26732D01*
X48121Y-26475D02*
X48253Y-26475D01*
X48046Y-26518D02*
X48187Y-26561D01*
X48187Y-26449D01*
X48948Y-26613D02*
X48948Y-26716D01*
X48948Y-26664D02*
X48748Y-26664D01*
X48777Y-26681D01*
X48796Y-26699D01*
X48805Y-26716D01*
X48948Y-26536D02*
X48748Y-26536D01*
X48948Y-26433D02*
X48834Y-26510D01*
X48748Y-26433D02*
X48862Y-26536D01*
X50862Y-26776D02*
X50768Y-26836D01*
X50862Y-26879D02*
X50665Y-26879D01*
X50665Y-26810D01*
X50674Y-26793D01*
X50683Y-26785D01*
X50702Y-26776D01*
X50730Y-26776D01*
X50749Y-26785D01*
X50758Y-26793D01*
X50768Y-26810D01*
X50768Y-26879D01*
X50665Y-26613D02*
X50665Y-26699D01*
X50758Y-26708D01*
X50749Y-26699D01*
X50740Y-26682D01*
X50740Y-26639D01*
X50749Y-26622D01*
X50758Y-26613D01*
X50777Y-26605D01*
X50824Y-26605D01*
X50843Y-26613D01*
X50852Y-26622D01*
X50862Y-26639D01*
X50862Y-26682D01*
X50852Y-26699D01*
X50843Y-26708D01*
X50169Y-26895D02*
X50169Y-26998D01*
X50169Y-26947D02*
X49969Y-26947D01*
X49998Y-26964D01*
X50017Y-26981D01*
X50026Y-26998D01*
X50169Y-26818D02*
X49969Y-26818D01*
X50169Y-26715D02*
X50055Y-26793D01*
X49969Y-26715D02*
X50083Y-26818D01*
X49969Y-26553D02*
X49969Y-26638D01*
X50064Y-26647D01*
X50055Y-26638D01*
X50045Y-26621D01*
X50045Y-26578D01*
X50055Y-26561D01*
X50064Y-26553D01*
X50083Y-26544D01*
X50131Y-26544D01*
X50150Y-26553D01*
X50159Y-26561D01*
X50169Y-26578D01*
X50169Y-26621D01*
X50159Y-26638D01*
X50150Y-26647D01*
X51727Y-27200D02*
X51667Y-27106D01*
X51624Y-27200D02*
X51624Y-27003D01*
X51692Y-27003D01*
X51710Y-27013D01*
X51718Y-27022D01*
X51727Y-27041D01*
X51727Y-27069D01*
X51718Y-27088D01*
X51710Y-27097D01*
X51692Y-27106D01*
X51624Y-27106D01*
X51881Y-27003D02*
X51847Y-27003D01*
X51830Y-27013D01*
X51821Y-27022D01*
X51804Y-27050D01*
X51795Y-27088D01*
X51795Y-27163D01*
X51804Y-27181D01*
X51812Y-27191D01*
X51830Y-27200D01*
X51864Y-27200D01*
X51881Y-27191D01*
X51890Y-27181D01*
X51898Y-27163D01*
X51898Y-27116D01*
X51890Y-27097D01*
X51881Y-27088D01*
X51864Y-27078D01*
X51830Y-27078D01*
X51812Y-27088D01*
X51804Y-27097D01*
X51795Y-27116D01*
X51505Y-26327D02*
X51513Y-26317D01*
X51530Y-26308D01*
X51573Y-26308D01*
X51590Y-26317D01*
X51599Y-26327D01*
X51607Y-26346D01*
X51607Y-26365D01*
X51599Y-26393D01*
X51496Y-26508D01*
X51607Y-26508D01*
X51685Y-26508D02*
X51685Y-26308D01*
X51787Y-26508D02*
X51710Y-26393D01*
X51787Y-26308D02*
X51685Y-26422D01*
X51856Y-26327D02*
X51865Y-26317D01*
X51882Y-26308D01*
X51925Y-26308D01*
X51942Y-26317D01*
X51950Y-26327D01*
X51959Y-26346D01*
X51959Y-26365D01*
X51950Y-26393D01*
X51847Y-26508D01*
X51959Y-26508D01*
G54D19*
X49301Y-40353D02*
X49301Y-40757D01*
X49320Y-40805D01*
X49339Y-40829D01*
X49377Y-40853D01*
X49453Y-40853D01*
X49492Y-40829D01*
X49511Y-40805D01*
X49530Y-40757D01*
X49530Y-40353D01*
X49930Y-40853D02*
X49701Y-40853D01*
X49815Y-40853D02*
X49815Y-40353D01*
X49777Y-40424D01*
X49739Y-40472D01*
X49701Y-40496D01*
X49022Y-43490D02*
X49094Y-43514D01*
X49118Y-43537D01*
X49142Y-43585D01*
X49142Y-43656D01*
X49118Y-43704D01*
X49094Y-43728D01*
X49046Y-43752D01*
X48856Y-43752D01*
X48856Y-43252D01*
X49022Y-43252D01*
X49070Y-43275D01*
X49094Y-43299D01*
X49118Y-43347D01*
X49118Y-43395D01*
X49094Y-43442D01*
X49070Y-43466D01*
X49022Y-43490D01*
X48856Y-43490D01*
X49356Y-43752D02*
X49356Y-43252D01*
X49689Y-43252D02*
X49784Y-43252D01*
X49832Y-43275D01*
X49880Y-43323D01*
X49903Y-43418D01*
X49903Y-43585D01*
X49880Y-43680D01*
X49832Y-43728D01*
X49784Y-43752D01*
X49689Y-43752D01*
X49642Y-43728D01*
X49594Y-43680D01*
X49570Y-43585D01*
X49570Y-43418D01*
X49594Y-43323D01*
X49642Y-43275D01*
X49689Y-43252D01*
X50094Y-43299D02*
X50118Y-43275D01*
X50165Y-43252D01*
X50284Y-43252D01*
X50332Y-43275D01*
X50356Y-43299D01*
X50380Y-43347D01*
X50380Y-43395D01*
X50356Y-43466D01*
X50070Y-43752D01*
X50380Y-43752D01*
G54D15*
X45182Y-31322D02*
X45668Y-31322D01*
X45725Y-31294D01*
X45754Y-31265D01*
X45782Y-31208D01*
X45782Y-31094D01*
X45754Y-31037D01*
X45725Y-31008D01*
X45668Y-30980D01*
X45182Y-30980D01*
X45182Y-30751D02*
X45182Y-30380D01*
X45411Y-30580D01*
X45411Y-30494D01*
X45440Y-30437D01*
X45468Y-30408D01*
X45525Y-30380D01*
X45668Y-30380D01*
X45725Y-30408D01*
X45754Y-30437D01*
X45782Y-30494D01*
X45782Y-30665D01*
X45754Y-30722D01*
X45725Y-30751D01*
X46963Y-31408D02*
X46678Y-31608D01*
X46963Y-31751D02*
X46363Y-31751D01*
X46363Y-31523D01*
X46392Y-31465D01*
X46421Y-31437D01*
X46478Y-31408D01*
X46563Y-31408D01*
X46621Y-31437D01*
X46649Y-31465D01*
X46678Y-31523D01*
X46678Y-31751D01*
X46963Y-31151D02*
X46363Y-31151D01*
X46963Y-30808D01*
X46363Y-30808D01*
X46563Y-30265D02*
X46963Y-30265D01*
X46335Y-30408D02*
X46763Y-30551D01*
X46763Y-30180D01*
X46421Y-29980D02*
X46392Y-29951D01*
X46363Y-29894D01*
X46363Y-29751D01*
X46392Y-29694D01*
X46421Y-29665D01*
X46478Y-29637D01*
X46535Y-29637D01*
X46621Y-29665D01*
X46963Y-30008D01*
X46963Y-29637D01*
G54D20*
X48760Y-24119D02*
X49079Y-24119D01*
X49116Y-24100D01*
X49135Y-24082D01*
X49154Y-24044D01*
X49154Y-23969D01*
X49135Y-23931D01*
X49116Y-23913D01*
X49079Y-23894D01*
X48760Y-23894D01*
X48891Y-23537D02*
X49154Y-23537D01*
X48741Y-23631D02*
X49022Y-23725D01*
X49022Y-23481D01*
X46753Y-25173D02*
X46359Y-25173D01*
X46640Y-25041D01*
X46359Y-24910D01*
X46753Y-24910D01*
X46715Y-24497D02*
X46734Y-24516D01*
X46753Y-24572D01*
X46753Y-24610D01*
X46734Y-24666D01*
X46696Y-24704D01*
X46659Y-24722D01*
X46584Y-24741D01*
X46528Y-24741D01*
X46452Y-24722D01*
X46415Y-24704D01*
X46377Y-24666D01*
X46359Y-24610D01*
X46359Y-24572D01*
X46377Y-24516D01*
X46396Y-24497D01*
X46753Y-24328D02*
X46359Y-24328D01*
X46359Y-24178D01*
X46377Y-24141D01*
X46396Y-24122D01*
X46434Y-24103D01*
X46490Y-24103D01*
X46528Y-24122D01*
X46546Y-24141D01*
X46565Y-24178D01*
X46565Y-24328D01*
X46753Y-23728D02*
X46753Y-23953D01*
X46753Y-23841D02*
X46359Y-23841D01*
X46415Y-23878D01*
X46452Y-23916D01*
X46471Y-23953D01*
X46359Y-23597D02*
X46359Y-23334D01*
X46753Y-23503D01*
X46359Y-23109D02*
X46359Y-23071D01*
X46377Y-23034D01*
X46396Y-23015D01*
X46434Y-22996D01*
X46509Y-22978D01*
X46603Y-22978D01*
X46678Y-22996D01*
X46715Y-23015D01*
X46734Y-23034D01*
X46753Y-23071D01*
X46753Y-23109D01*
X46734Y-23146D01*
X46715Y-23165D01*
X46678Y-23184D01*
X46603Y-23203D01*
X46509Y-23203D01*
X46434Y-23184D01*
X46396Y-23165D01*
X46377Y-23146D01*
X46359Y-23109D01*
X46396Y-22827D02*
X46377Y-22809D01*
X46359Y-22771D01*
X46359Y-22677D01*
X46377Y-22640D01*
X46396Y-22621D01*
X46434Y-22602D01*
X46471Y-22602D01*
X46528Y-22621D01*
X46753Y-22846D01*
X46753Y-22602D01*
G54D21*
X53629Y-23947D02*
X53629Y-24106D01*
X53638Y-24125D01*
X53648Y-24134D01*
X53666Y-24144D01*
X53704Y-24144D01*
X53723Y-24134D01*
X53732Y-24125D01*
X53742Y-24106D01*
X53742Y-23947D01*
X53929Y-23947D02*
X53835Y-23947D01*
X53826Y-24041D01*
X53835Y-24031D01*
X53854Y-24022D01*
X53901Y-24022D01*
X53920Y-24031D01*
X53929Y-24041D01*
X53939Y-24059D01*
X53939Y-24106D01*
X53929Y-24125D01*
X53920Y-24134D01*
X53901Y-24144D01*
X53854Y-24144D01*
X53835Y-24134D01*
X53826Y-24125D01*
G54D19*
X48090Y-48228D02*
X48090Y-47828D01*
X48242Y-47828D01*
X48281Y-47847D01*
X48300Y-47866D01*
X48319Y-47904D01*
X48319Y-47961D01*
X48300Y-48000D01*
X48281Y-48019D01*
X48242Y-48038D01*
X48090Y-48038D01*
X48662Y-47961D02*
X48662Y-48228D01*
X48566Y-47809D02*
X48471Y-48095D01*
X48719Y-48095D01*
G54D17*
X48969Y-36808D02*
X48978Y-36817D01*
X48988Y-36842D01*
X48988Y-36860D01*
X48978Y-36885D01*
X48959Y-36902D01*
X48940Y-36911D01*
X48902Y-36920D01*
X48873Y-36920D01*
X48835Y-36911D01*
X48816Y-36902D01*
X48797Y-36885D01*
X48788Y-36860D01*
X48788Y-36842D01*
X48797Y-36817D01*
X48807Y-36808D01*
X48988Y-36637D02*
X48988Y-36740D01*
X48988Y-36688D02*
X48788Y-36688D01*
X48816Y-36705D01*
X48835Y-36722D01*
X48845Y-36740D01*
X48854Y-36482D02*
X48988Y-36482D01*
X48778Y-36525D02*
X48921Y-36568D01*
X48921Y-36457D01*
X48138Y-36911D02*
X48138Y-36894D01*
X48147Y-36877D01*
X48157Y-36868D01*
X48176Y-36860D01*
X48214Y-36851D01*
X48261Y-36851D01*
X48300Y-36860D01*
X48319Y-36868D01*
X48328Y-36877D01*
X48338Y-36894D01*
X48338Y-36911D01*
X48328Y-36928D01*
X48319Y-36937D01*
X48300Y-36945D01*
X48261Y-36954D01*
X48214Y-36954D01*
X48176Y-36945D01*
X48157Y-36937D01*
X48147Y-36928D01*
X48138Y-36911D01*
X48319Y-36774D02*
X48328Y-36765D01*
X48338Y-36774D01*
X48328Y-36782D01*
X48319Y-36774D01*
X48338Y-36774D01*
X48338Y-36594D02*
X48338Y-36697D01*
X48338Y-36645D02*
X48138Y-36645D01*
X48166Y-36662D01*
X48185Y-36680D01*
X48195Y-36697D01*
X48204Y-36440D02*
X48338Y-36440D01*
X48204Y-36517D02*
X48309Y-36517D01*
X48328Y-36508D01*
X48338Y-36491D01*
X48338Y-36465D01*
X48328Y-36448D01*
X48319Y-36440D01*
G54D10*
X53755Y-33386D02*
X53755Y-33705D01*
X53773Y-33742D01*
X53792Y-33761D01*
X53830Y-33780D01*
X53905Y-33780D01*
X53942Y-33761D01*
X53961Y-33742D01*
X53980Y-33705D01*
X53980Y-33386D01*
X54148Y-33424D02*
X54167Y-33405D01*
X54205Y-33386D01*
X54298Y-33386D01*
X54336Y-33405D01*
X54355Y-33424D01*
X54373Y-33461D01*
X54373Y-33499D01*
X54355Y-33555D01*
X54130Y-33780D01*
X54373Y-33780D01*
X52456Y-33298D02*
X52456Y-32904D01*
X52606Y-32904D01*
X52643Y-32923D01*
X52662Y-32941D01*
X52681Y-32979D01*
X52681Y-33035D01*
X52662Y-33073D01*
X52643Y-33091D01*
X52606Y-33110D01*
X52456Y-33110D01*
X52850Y-33298D02*
X52850Y-32904D01*
X53262Y-33260D02*
X53243Y-33279D01*
X53187Y-33298D01*
X53150Y-33298D01*
X53093Y-33279D01*
X53056Y-33241D01*
X53037Y-33204D01*
X53018Y-33129D01*
X53018Y-33073D01*
X53037Y-32998D01*
X53056Y-32960D01*
X53093Y-32923D01*
X53150Y-32904D01*
X53187Y-32904D01*
X53243Y-32923D01*
X53262Y-32941D01*
X53637Y-33298D02*
X53412Y-33298D01*
X53525Y-33298D02*
X53525Y-32904D01*
X53487Y-32960D01*
X53450Y-32998D01*
X53412Y-33016D01*
X53974Y-32904D02*
X53899Y-32904D01*
X53862Y-32923D01*
X53843Y-32941D01*
X53806Y-32998D01*
X53787Y-33073D01*
X53787Y-33223D01*
X53806Y-33260D01*
X53824Y-33279D01*
X53862Y-33298D01*
X53937Y-33298D01*
X53974Y-33279D01*
X53993Y-33260D01*
X54012Y-33223D01*
X54012Y-33129D01*
X53993Y-33091D01*
X53974Y-33073D01*
X53937Y-33054D01*
X53862Y-33054D01*
X53824Y-33073D01*
X53806Y-33091D01*
X53787Y-33129D01*
X54312Y-33091D02*
X54181Y-33091D01*
X54181Y-33298D02*
X54181Y-32904D01*
X54368Y-32904D01*
X54724Y-33298D02*
X54499Y-33298D01*
X54612Y-33298D02*
X54612Y-32904D01*
X54574Y-32960D01*
X54537Y-32998D01*
X54499Y-33016D01*
X54949Y-33073D02*
X54912Y-33054D01*
X54893Y-33035D01*
X54874Y-32998D01*
X54874Y-32979D01*
X54893Y-32941D01*
X54912Y-32923D01*
X54949Y-32904D01*
X55024Y-32904D01*
X55062Y-32923D01*
X55081Y-32941D01*
X55099Y-32979D01*
X55099Y-32998D01*
X55081Y-33035D01*
X55062Y-33054D01*
X55024Y-33073D01*
X54949Y-33073D01*
X54912Y-33091D01*
X54893Y-33110D01*
X54874Y-33148D01*
X54874Y-33223D01*
X54893Y-33260D01*
X54912Y-33279D01*
X54949Y-33298D01*
X55024Y-33298D01*
X55062Y-33279D01*
X55081Y-33260D01*
X55099Y-33223D01*
X55099Y-33148D01*
X55081Y-33110D01*
X55062Y-33091D01*
X55024Y-33073D01*
X55249Y-32941D02*
X55268Y-32923D01*
X55306Y-32904D01*
X55399Y-32904D01*
X55437Y-32923D01*
X55456Y-32941D01*
X55474Y-32979D01*
X55474Y-33016D01*
X55456Y-33073D01*
X55231Y-33298D01*
X55474Y-33298D01*
X55606Y-32904D02*
X55849Y-32904D01*
X55718Y-33054D01*
X55774Y-33054D01*
X55812Y-33073D01*
X55830Y-33091D01*
X55849Y-33129D01*
X55849Y-33223D01*
X55830Y-33260D01*
X55812Y-33279D01*
X55774Y-33298D01*
X55662Y-33298D01*
X55624Y-33279D01*
X55606Y-33260D01*
M02*
