%FSLAX34Y34*%
G04 Gerber Fmt 3.4, Leading zero omitted, Abs format*
G04 (created by PCBNEW (2014-04-07 BZR 4791)-product) date ons  9 apr 2014 20:50:23*
%MOIN*%
G01*
G70*
G90*
G04 APERTURE LIST*
%ADD10C,0.003937*%
%ADD11C,0.007874*%
%ADD12C,0.009843*%
%ADD13C,0.010000*%
%ADD14C,0.005000*%
%ADD15C,0.005906*%
%ADD16C,0.015000*%
%ADD17C,0.003100*%
%ADD18C,0.008000*%
%ADD19C,0.004500*%
%ADD20C,0.011250*%
%ADD21C,0.012000*%
%ADD22C,0.004700*%
%ADD23C,0.003900*%
G04 APERTURE END LIST*
G54D10*
G54D11*
X31400Y-37600D02*
G75*
G03X31400Y-37600I-200J0D01*
G74*
G01*
X45200Y-30200D02*
G75*
G03X45200Y-30200I-200J0D01*
G74*
G01*
X45600Y-32800D02*
G75*
G03X45600Y-32800I-200J0D01*
G74*
G01*
X53200Y-33600D02*
G75*
G03X53200Y-33600I-200J0D01*
G74*
G01*
X53200Y-43000D02*
G75*
G03X53200Y-43000I-200J0D01*
G74*
G01*
X52400Y-51800D02*
G75*
G03X52400Y-51800I-200J0D01*
G74*
G01*
X42600Y-51800D02*
G75*
G03X42600Y-51800I-200J0D01*
G74*
G01*
G54D12*
X37753Y-42408D02*
X37556Y-42408D01*
X37556Y-42717D02*
X37556Y-42127D01*
X37837Y-42127D01*
X38343Y-42717D02*
X38062Y-42717D01*
X38062Y-42127D01*
X38540Y-42717D02*
X38540Y-42127D01*
X39131Y-42155D02*
X39074Y-42127D01*
X38990Y-42127D01*
X38906Y-42155D01*
X38849Y-42211D01*
X38821Y-42267D01*
X38793Y-42380D01*
X38793Y-42464D01*
X38821Y-42577D01*
X38849Y-42633D01*
X38906Y-42689D01*
X38990Y-42717D01*
X39046Y-42717D01*
X39131Y-42689D01*
X39159Y-42661D01*
X39159Y-42464D01*
X39046Y-42464D01*
X39412Y-42717D02*
X39412Y-42127D01*
X39412Y-42408D02*
X39749Y-42408D01*
X39749Y-42717D02*
X39749Y-42127D01*
X39946Y-42127D02*
X40284Y-42127D01*
X40115Y-42717D02*
X40115Y-42127D01*
X40677Y-42408D02*
X40762Y-42436D01*
X40790Y-42464D01*
X40818Y-42521D01*
X40818Y-42605D01*
X40790Y-42661D01*
X40762Y-42689D01*
X40705Y-42717D01*
X40480Y-42717D01*
X40480Y-42127D01*
X40677Y-42127D01*
X40733Y-42155D01*
X40762Y-42183D01*
X40790Y-42239D01*
X40790Y-42296D01*
X40762Y-42352D01*
X40733Y-42380D01*
X40677Y-42408D01*
X40480Y-42408D01*
X41071Y-42408D02*
X41268Y-42408D01*
X41352Y-42717D02*
X41071Y-42717D01*
X41071Y-42127D01*
X41352Y-42127D01*
X41943Y-42717D02*
X41746Y-42436D01*
X41605Y-42717D02*
X41605Y-42127D01*
X41830Y-42127D01*
X41886Y-42155D01*
X41915Y-42183D01*
X41943Y-42239D01*
X41943Y-42324D01*
X41915Y-42380D01*
X41886Y-42408D01*
X41830Y-42436D01*
X41605Y-42436D01*
X42533Y-42717D02*
X42336Y-42436D01*
X42196Y-42717D02*
X42196Y-42127D01*
X42421Y-42127D01*
X42477Y-42155D01*
X42505Y-42183D01*
X42533Y-42239D01*
X42533Y-42324D01*
X42505Y-42380D01*
X42477Y-42408D01*
X42421Y-42436D01*
X42196Y-42436D01*
X42899Y-42436D02*
X42899Y-42717D01*
X42702Y-42127D02*
X42899Y-42436D01*
X43096Y-42127D01*
X43742Y-42717D02*
X43742Y-42127D01*
X43967Y-42127D01*
X44024Y-42155D01*
X44052Y-42183D01*
X44080Y-42239D01*
X44080Y-42324D01*
X44052Y-42380D01*
X44024Y-42408D01*
X43967Y-42436D01*
X43742Y-42436D01*
X44333Y-42717D02*
X44333Y-42127D01*
X45402Y-42717D02*
X45205Y-42436D01*
X45064Y-42717D02*
X45064Y-42127D01*
X45289Y-42127D01*
X45345Y-42155D01*
X45374Y-42183D01*
X45402Y-42239D01*
X45402Y-42324D01*
X45374Y-42380D01*
X45345Y-42408D01*
X45289Y-42436D01*
X45064Y-42436D01*
X45655Y-42408D02*
X45852Y-42408D01*
X45936Y-42717D02*
X45655Y-42717D01*
X45655Y-42127D01*
X45936Y-42127D01*
X46105Y-42127D02*
X46302Y-42717D01*
X46498Y-42127D01*
X47455Y-42717D02*
X47117Y-42717D01*
X47286Y-42717D02*
X47286Y-42127D01*
X47230Y-42211D01*
X47173Y-42267D01*
X47117Y-42296D01*
X47708Y-42661D02*
X47736Y-42689D01*
X47708Y-42717D01*
X47679Y-42689D01*
X47708Y-42661D01*
X47708Y-42717D01*
X48101Y-42127D02*
X48158Y-42127D01*
X48214Y-42155D01*
X48242Y-42183D01*
X48270Y-42239D01*
X48298Y-42352D01*
X48298Y-42492D01*
X48270Y-42605D01*
X48242Y-42661D01*
X48214Y-42689D01*
X48158Y-42717D01*
X48101Y-42717D01*
X48045Y-42689D01*
X48017Y-42661D01*
X47989Y-42605D01*
X47961Y-42492D01*
X47961Y-42352D01*
X47989Y-42239D01*
X48017Y-42183D01*
X48045Y-42155D01*
X48101Y-42127D01*
X38849Y-43615D02*
X38934Y-43643D01*
X39074Y-43643D01*
X39131Y-43615D01*
X39159Y-43586D01*
X39187Y-43530D01*
X39187Y-43474D01*
X39159Y-43418D01*
X39131Y-43390D01*
X39074Y-43361D01*
X38962Y-43333D01*
X38906Y-43305D01*
X38877Y-43277D01*
X38849Y-43221D01*
X38849Y-43165D01*
X38877Y-43108D01*
X38906Y-43080D01*
X38962Y-43052D01*
X39102Y-43052D01*
X39187Y-43080D01*
X39440Y-43586D02*
X39468Y-43615D01*
X39440Y-43643D01*
X39412Y-43615D01*
X39440Y-43586D01*
X39440Y-43643D01*
X40508Y-43643D02*
X40312Y-43361D01*
X40171Y-43643D02*
X40171Y-43052D01*
X40396Y-43052D01*
X40452Y-43080D01*
X40480Y-43108D01*
X40508Y-43165D01*
X40508Y-43249D01*
X40480Y-43305D01*
X40452Y-43333D01*
X40396Y-43361D01*
X40171Y-43361D01*
X40846Y-43643D02*
X40790Y-43615D01*
X40762Y-43586D01*
X40733Y-43530D01*
X40733Y-43361D01*
X40762Y-43305D01*
X40790Y-43277D01*
X40846Y-43249D01*
X40930Y-43249D01*
X40987Y-43277D01*
X41015Y-43305D01*
X41043Y-43361D01*
X41043Y-43530D01*
X41015Y-43586D01*
X40987Y-43615D01*
X40930Y-43643D01*
X40846Y-43643D01*
X41549Y-43643D02*
X41549Y-43052D01*
X41549Y-43615D02*
X41493Y-43643D01*
X41380Y-43643D01*
X41324Y-43615D01*
X41296Y-43586D01*
X41268Y-43530D01*
X41268Y-43361D01*
X41296Y-43305D01*
X41324Y-43277D01*
X41380Y-43249D01*
X41493Y-43249D01*
X41549Y-43277D01*
X41830Y-43643D02*
X41830Y-43249D01*
X41830Y-43361D02*
X41858Y-43305D01*
X41886Y-43277D01*
X41943Y-43249D01*
X41999Y-43249D01*
X42196Y-43643D02*
X42196Y-43249D01*
X42196Y-43052D02*
X42168Y-43080D01*
X42196Y-43108D01*
X42224Y-43080D01*
X42196Y-43052D01*
X42196Y-43108D01*
X42730Y-43249D02*
X42730Y-43727D01*
X42702Y-43783D01*
X42674Y-43811D01*
X42618Y-43839D01*
X42533Y-43839D01*
X42477Y-43811D01*
X42730Y-43615D02*
X42674Y-43643D01*
X42561Y-43643D01*
X42505Y-43615D01*
X42477Y-43586D01*
X42449Y-43530D01*
X42449Y-43361D01*
X42477Y-43305D01*
X42505Y-43277D01*
X42561Y-43249D01*
X42674Y-43249D01*
X42730Y-43277D01*
X43264Y-43249D02*
X43264Y-43643D01*
X43011Y-43249D02*
X43011Y-43558D01*
X43039Y-43615D01*
X43096Y-43643D01*
X43180Y-43643D01*
X43236Y-43615D01*
X43264Y-43586D01*
X43771Y-43615D02*
X43714Y-43643D01*
X43602Y-43643D01*
X43546Y-43615D01*
X43517Y-43558D01*
X43517Y-43333D01*
X43546Y-43277D01*
X43602Y-43249D01*
X43714Y-43249D01*
X43771Y-43277D01*
X43799Y-43333D01*
X43799Y-43390D01*
X43517Y-43446D01*
X43996Y-43249D02*
X44305Y-43249D01*
X43996Y-43643D01*
X44305Y-43643D01*
X44952Y-43108D02*
X44980Y-43080D01*
X45036Y-43052D01*
X45177Y-43052D01*
X45233Y-43080D01*
X45261Y-43108D01*
X45289Y-43165D01*
X45289Y-43221D01*
X45261Y-43305D01*
X44924Y-43643D01*
X45289Y-43643D01*
X45655Y-43052D02*
X45711Y-43052D01*
X45767Y-43080D01*
X45795Y-43108D01*
X45823Y-43165D01*
X45852Y-43277D01*
X45852Y-43418D01*
X45823Y-43530D01*
X45795Y-43586D01*
X45767Y-43615D01*
X45711Y-43643D01*
X45655Y-43643D01*
X45598Y-43615D01*
X45570Y-43586D01*
X45542Y-43530D01*
X45514Y-43418D01*
X45514Y-43277D01*
X45542Y-43165D01*
X45570Y-43108D01*
X45598Y-43080D01*
X45655Y-43052D01*
X46414Y-43643D02*
X46077Y-43643D01*
X46245Y-43643D02*
X46245Y-43052D01*
X46189Y-43136D01*
X46133Y-43193D01*
X46077Y-43221D01*
X46920Y-43249D02*
X46920Y-43643D01*
X46780Y-43024D02*
X46639Y-43446D01*
X47005Y-43446D01*
G54D13*
X53500Y-30500D02*
X45500Y-30500D01*
X46500Y-32500D02*
X53500Y-32500D01*
X53500Y-30500D02*
X53500Y-32500D01*
X45500Y-30500D02*
X45500Y-31500D01*
X45500Y-32500D02*
X46500Y-32500D01*
X45500Y-31500D02*
X46500Y-31500D01*
X46500Y-31500D02*
X46500Y-32500D01*
X45500Y-32500D02*
X45500Y-31500D01*
X55250Y-41750D02*
X55250Y-33750D01*
X53250Y-34750D02*
X53250Y-41750D01*
X55250Y-41750D02*
X53250Y-41750D01*
X55250Y-33750D02*
X54250Y-33750D01*
X53250Y-33750D02*
X53250Y-34750D01*
X54250Y-33750D02*
X54250Y-34750D01*
X54250Y-34750D02*
X53250Y-34750D01*
X53250Y-33750D02*
X54250Y-33750D01*
X55250Y-51250D02*
X55250Y-43250D01*
X53250Y-44250D02*
X53250Y-51250D01*
X55250Y-51250D02*
X53250Y-51250D01*
X55250Y-43250D02*
X54250Y-43250D01*
X53250Y-43250D02*
X53250Y-44250D01*
X54250Y-43250D02*
X54250Y-44250D01*
X54250Y-44250D02*
X53250Y-44250D01*
X53250Y-43250D02*
X54250Y-43250D01*
X44000Y-54000D02*
X52000Y-54000D01*
X51000Y-52000D02*
X44000Y-52000D01*
X44000Y-54000D02*
X44000Y-52000D01*
X52000Y-54000D02*
X52000Y-53000D01*
X52000Y-52000D02*
X51000Y-52000D01*
X52000Y-53000D02*
X51000Y-53000D01*
X51000Y-53000D02*
X51000Y-52000D01*
X52000Y-52000D02*
X52000Y-53000D01*
X33000Y-32500D02*
X45000Y-32500D01*
X44000Y-30500D02*
X33000Y-30500D01*
X33000Y-32500D02*
X33000Y-30500D01*
X45000Y-32500D02*
X45000Y-31500D01*
X45000Y-30500D02*
X44000Y-30500D01*
X45000Y-31500D02*
X44000Y-31500D01*
X44000Y-31500D02*
X44000Y-30500D01*
X45000Y-30500D02*
X45000Y-31500D01*
X42250Y-54000D02*
X37250Y-54000D01*
X37250Y-54000D02*
X37250Y-52000D01*
X37250Y-52000D02*
X41250Y-52000D01*
X42250Y-54000D02*
X42250Y-53000D01*
X42250Y-52000D02*
X41250Y-52000D01*
X42250Y-53000D02*
X41250Y-53000D01*
X41250Y-53000D02*
X41250Y-52000D01*
X42250Y-52000D02*
X42250Y-53000D01*
G54D14*
X48225Y-50447D02*
X48225Y-50725D01*
X48225Y-50725D02*
X48775Y-50725D01*
X48775Y-50725D02*
X48775Y-50447D01*
X48225Y-49775D02*
X48225Y-50053D01*
X48225Y-49775D02*
X48775Y-49775D01*
X48775Y-49775D02*
X48775Y-50053D01*
X47225Y-50447D02*
X47225Y-50725D01*
X47225Y-50725D02*
X47775Y-50725D01*
X47775Y-50725D02*
X47775Y-50447D01*
X47225Y-49775D02*
X47225Y-50053D01*
X47225Y-49775D02*
X47775Y-49775D01*
X47775Y-49775D02*
X47775Y-50053D01*
G54D15*
X31000Y-38500D02*
X31500Y-38000D01*
X31000Y-38000D02*
X33500Y-38000D01*
X33500Y-38000D02*
X33500Y-51500D01*
X33500Y-51500D02*
X31000Y-51500D01*
X31000Y-51500D02*
X31000Y-38000D01*
G54D16*
X35750Y-37000D02*
X50750Y-37000D01*
X50750Y-37000D02*
X50750Y-39000D01*
X50750Y-39000D02*
X35750Y-39000D01*
X35750Y-39000D02*
X35750Y-37000D01*
X35750Y-37500D02*
X36250Y-37500D01*
X36250Y-37500D02*
X36250Y-38500D01*
X36250Y-38500D02*
X35750Y-38500D01*
X35500Y-46500D02*
X50500Y-46500D01*
X50500Y-46500D02*
X50500Y-48500D01*
X50500Y-48500D02*
X35500Y-48500D01*
X35500Y-48500D02*
X35500Y-46500D01*
X35500Y-47000D02*
X36000Y-47000D01*
X36000Y-47000D02*
X36000Y-48000D01*
X36000Y-48000D02*
X35500Y-48000D01*
G54D14*
X35200Y-41000D02*
X34300Y-41000D01*
X34300Y-41000D02*
X34300Y-40500D01*
X34300Y-40500D02*
X35200Y-40500D01*
X35200Y-40500D02*
X35200Y-41000D01*
X44550Y-49750D02*
X45450Y-49750D01*
X45450Y-49750D02*
X45450Y-50250D01*
X45450Y-50250D02*
X44550Y-50250D01*
X44550Y-50250D02*
X44550Y-49750D01*
X44800Y-40500D02*
X45700Y-40500D01*
X45700Y-40500D02*
X45700Y-41000D01*
X45700Y-41000D02*
X44800Y-41000D01*
X44800Y-41000D02*
X44800Y-40500D01*
X36200Y-43250D02*
X35300Y-43250D01*
X35300Y-43250D02*
X35300Y-42750D01*
X35300Y-42750D02*
X36200Y-42750D01*
X36200Y-42750D02*
X36200Y-43250D01*
G54D17*
X35349Y-41888D02*
G75*
G03X35349Y-41888I-62J0D01*
G74*
G01*
X36250Y-41550D02*
X36250Y-41950D01*
X35225Y-41550D02*
X35225Y-41950D01*
X36250Y-41950D02*
X35225Y-41950D01*
X35225Y-41550D02*
X36250Y-41550D01*
G54D18*
X45693Y-33297D02*
X45693Y-32797D01*
X45884Y-32797D01*
X45932Y-32820D01*
X45955Y-32844D01*
X45979Y-32892D01*
X45979Y-32963D01*
X45955Y-33011D01*
X45932Y-33035D01*
X45884Y-33058D01*
X45693Y-33058D01*
X46455Y-33297D02*
X46170Y-33297D01*
X46312Y-33297D02*
X46312Y-32797D01*
X46265Y-32868D01*
X46217Y-32916D01*
X46170Y-32939D01*
X53026Y-37769D02*
X52526Y-37769D01*
X52526Y-37578D01*
X52550Y-37530D01*
X52573Y-37507D01*
X52621Y-37483D01*
X52692Y-37483D01*
X52740Y-37507D01*
X52764Y-37530D01*
X52788Y-37578D01*
X52788Y-37769D01*
X52573Y-37292D02*
X52550Y-37269D01*
X52526Y-37221D01*
X52526Y-37102D01*
X52550Y-37054D01*
X52573Y-37030D01*
X52621Y-37007D01*
X52669Y-37007D01*
X52740Y-37030D01*
X53026Y-37316D01*
X53026Y-37007D01*
X52826Y-46369D02*
X52326Y-46369D01*
X52326Y-46178D01*
X52350Y-46130D01*
X52373Y-46107D01*
X52421Y-46083D01*
X52492Y-46083D01*
X52540Y-46107D01*
X52564Y-46130D01*
X52588Y-46178D01*
X52588Y-46369D01*
X52326Y-45916D02*
X52326Y-45607D01*
X52516Y-45773D01*
X52516Y-45702D01*
X52540Y-45654D01*
X52564Y-45630D01*
X52611Y-45607D01*
X52730Y-45607D01*
X52778Y-45630D01*
X52802Y-45654D01*
X52826Y-45702D01*
X52826Y-45845D01*
X52802Y-45892D01*
X52778Y-45916D01*
X48230Y-51826D02*
X48230Y-51326D01*
X48421Y-51326D01*
X48469Y-51350D01*
X48492Y-51373D01*
X48516Y-51421D01*
X48516Y-51492D01*
X48492Y-51540D01*
X48469Y-51564D01*
X48421Y-51588D01*
X48230Y-51588D01*
X48945Y-51492D02*
X48945Y-51826D01*
X48826Y-51302D02*
X48707Y-51659D01*
X49016Y-51659D01*
X38630Y-33226D02*
X38630Y-32726D01*
X38821Y-32726D01*
X38869Y-32750D01*
X38892Y-32773D01*
X38916Y-32821D01*
X38916Y-32892D01*
X38892Y-32940D01*
X38869Y-32964D01*
X38821Y-32988D01*
X38630Y-32988D01*
X39369Y-32726D02*
X39130Y-32726D01*
X39107Y-32964D01*
X39130Y-32940D01*
X39178Y-32916D01*
X39297Y-32916D01*
X39345Y-32940D01*
X39369Y-32964D01*
X39392Y-33011D01*
X39392Y-33130D01*
X39369Y-33178D01*
X39345Y-33202D01*
X39297Y-33226D01*
X39178Y-33226D01*
X39130Y-33202D01*
X39107Y-33178D01*
X40030Y-51826D02*
X40030Y-51326D01*
X40221Y-51326D01*
X40269Y-51350D01*
X40292Y-51373D01*
X40316Y-51421D01*
X40316Y-51492D01*
X40292Y-51540D01*
X40269Y-51564D01*
X40221Y-51588D01*
X40030Y-51588D01*
X40602Y-51540D02*
X40554Y-51516D01*
X40530Y-51492D01*
X40507Y-51445D01*
X40507Y-51421D01*
X40530Y-51373D01*
X40554Y-51350D01*
X40602Y-51326D01*
X40697Y-51326D01*
X40745Y-51350D01*
X40769Y-51373D01*
X40792Y-51421D01*
X40792Y-51445D01*
X40769Y-51492D01*
X40745Y-51516D01*
X40697Y-51540D01*
X40602Y-51540D01*
X40554Y-51564D01*
X40530Y-51588D01*
X40507Y-51635D01*
X40507Y-51730D01*
X40530Y-51778D01*
X40554Y-51802D01*
X40602Y-51826D01*
X40697Y-51826D01*
X40745Y-51802D01*
X40769Y-51778D01*
X40792Y-51730D01*
X40792Y-51635D01*
X40769Y-51588D01*
X40745Y-51564D01*
X40697Y-51540D01*
G54D19*
X48445Y-50314D02*
X48385Y-50220D01*
X48342Y-50314D02*
X48342Y-50117D01*
X48410Y-50117D01*
X48427Y-50126D01*
X48436Y-50135D01*
X48445Y-50154D01*
X48445Y-50182D01*
X48436Y-50201D01*
X48427Y-50210D01*
X48410Y-50220D01*
X48342Y-50220D01*
X48616Y-50314D02*
X48513Y-50314D01*
X48565Y-50314D02*
X48565Y-50117D01*
X48547Y-50145D01*
X48530Y-50164D01*
X48513Y-50173D01*
X48478Y-51009D02*
X48375Y-51009D01*
X48427Y-51009D02*
X48427Y-50809D01*
X48410Y-50838D01*
X48392Y-50857D01*
X48375Y-50866D01*
X48555Y-51009D02*
X48555Y-50809D01*
X48572Y-50933D02*
X48624Y-51009D01*
X48624Y-50876D02*
X48555Y-50952D01*
X47445Y-50314D02*
X47385Y-50220D01*
X47342Y-50314D02*
X47342Y-50117D01*
X47410Y-50117D01*
X47427Y-50126D01*
X47436Y-50135D01*
X47445Y-50154D01*
X47445Y-50182D01*
X47436Y-50201D01*
X47427Y-50210D01*
X47410Y-50220D01*
X47342Y-50220D01*
X47513Y-50135D02*
X47522Y-50126D01*
X47539Y-50117D01*
X47582Y-50117D01*
X47599Y-50126D01*
X47607Y-50135D01*
X47616Y-50154D01*
X47616Y-50173D01*
X47607Y-50201D01*
X47505Y-50314D01*
X47616Y-50314D01*
X47478Y-51009D02*
X47375Y-51009D01*
X47427Y-51009D02*
X47427Y-50809D01*
X47410Y-50838D01*
X47392Y-50857D01*
X47375Y-50866D01*
X47555Y-51009D02*
X47555Y-50809D01*
X47572Y-50933D02*
X47624Y-51009D01*
X47624Y-50876D02*
X47555Y-50952D01*
G54D15*
X32100Y-37384D02*
X32100Y-37703D01*
X32118Y-37740D01*
X32137Y-37759D01*
X32175Y-37778D01*
X32250Y-37778D01*
X32287Y-37759D01*
X32306Y-37740D01*
X32325Y-37703D01*
X32325Y-37384D01*
X32718Y-37778D02*
X32493Y-37778D01*
X32606Y-37778D02*
X32606Y-37384D01*
X32568Y-37440D01*
X32531Y-37478D01*
X32493Y-37496D01*
X34036Y-44788D02*
X33848Y-44919D01*
X34036Y-45013D02*
X33642Y-45013D01*
X33642Y-44863D01*
X33661Y-44825D01*
X33680Y-44806D01*
X33717Y-44788D01*
X33773Y-44788D01*
X33811Y-44806D01*
X33830Y-44825D01*
X33848Y-44863D01*
X33848Y-45013D01*
X33923Y-44638D02*
X33923Y-44450D01*
X34036Y-44675D02*
X33642Y-44544D01*
X34036Y-44413D01*
X34017Y-44300D02*
X34036Y-44244D01*
X34036Y-44150D01*
X34017Y-44113D01*
X33998Y-44094D01*
X33961Y-44075D01*
X33923Y-44075D01*
X33886Y-44094D01*
X33867Y-44113D01*
X33848Y-44150D01*
X33830Y-44225D01*
X33811Y-44263D01*
X33792Y-44281D01*
X33755Y-44300D01*
X33717Y-44300D01*
X33680Y-44281D01*
X33661Y-44263D01*
X33642Y-44225D01*
X33642Y-44131D01*
X33661Y-44075D01*
X34036Y-43907D02*
X33642Y-43907D01*
X33642Y-43757D01*
X33661Y-43719D01*
X33680Y-43700D01*
X33717Y-43682D01*
X33773Y-43682D01*
X33811Y-43700D01*
X33830Y-43719D01*
X33848Y-43757D01*
X33848Y-43907D01*
X33830Y-43382D02*
X33848Y-43325D01*
X33867Y-43307D01*
X33905Y-43288D01*
X33961Y-43288D01*
X33998Y-43307D01*
X34017Y-43325D01*
X34036Y-43363D01*
X34036Y-43513D01*
X33642Y-43513D01*
X33642Y-43382D01*
X33661Y-43344D01*
X33680Y-43325D01*
X33717Y-43307D01*
X33755Y-43307D01*
X33792Y-43325D01*
X33811Y-43344D01*
X33830Y-43382D01*
X33830Y-43513D01*
X33830Y-43119D02*
X33830Y-42988D01*
X34036Y-42932D02*
X34036Y-43119D01*
X33642Y-43119D01*
X33642Y-42932D01*
X34036Y-42538D02*
X33848Y-42669D01*
X34036Y-42763D02*
X33642Y-42763D01*
X33642Y-42613D01*
X33661Y-42575D01*
X33680Y-42557D01*
X33717Y-42538D01*
X33773Y-42538D01*
X33811Y-42557D01*
X33830Y-42575D01*
X33848Y-42613D01*
X33848Y-42763D01*
X34036Y-42144D02*
X33848Y-42275D01*
X34036Y-42369D02*
X33642Y-42369D01*
X33642Y-42219D01*
X33661Y-42182D01*
X33680Y-42163D01*
X33717Y-42144D01*
X33773Y-42144D01*
X33811Y-42163D01*
X33830Y-42182D01*
X33848Y-42219D01*
X33848Y-42369D01*
X33848Y-41901D02*
X34036Y-41901D01*
X33642Y-42032D02*
X33848Y-41901D01*
X33642Y-41769D01*
X34073Y-41732D02*
X34073Y-41432D01*
X34036Y-41113D02*
X33848Y-41244D01*
X34036Y-41338D02*
X33642Y-41338D01*
X33642Y-41188D01*
X33661Y-41151D01*
X33680Y-41132D01*
X33717Y-41113D01*
X33773Y-41113D01*
X33811Y-41132D01*
X33830Y-41151D01*
X33848Y-41188D01*
X33848Y-41338D01*
X33642Y-41001D02*
X34036Y-40869D01*
X33642Y-40738D01*
X33680Y-40626D02*
X33661Y-40607D01*
X33642Y-40569D01*
X33642Y-40476D01*
X33661Y-40438D01*
X33680Y-40419D01*
X33717Y-40401D01*
X33755Y-40401D01*
X33811Y-40419D01*
X34036Y-40644D01*
X34036Y-40401D01*
G54D20*
X34893Y-37663D02*
X34893Y-38149D01*
X34914Y-38206D01*
X34936Y-38234D01*
X34979Y-38263D01*
X35064Y-38263D01*
X35107Y-38234D01*
X35129Y-38206D01*
X35150Y-38149D01*
X35150Y-37663D01*
X35343Y-37720D02*
X35364Y-37692D01*
X35407Y-37663D01*
X35514Y-37663D01*
X35557Y-37692D01*
X35579Y-37720D01*
X35600Y-37777D01*
X35600Y-37834D01*
X35579Y-37920D01*
X35321Y-38263D01*
X35600Y-38263D01*
G54D21*
G54D20*
X44328Y-38271D02*
X44328Y-37671D01*
X44478Y-38100D01*
X44628Y-37671D01*
X44628Y-38271D01*
X45100Y-38214D02*
X45078Y-38242D01*
X45014Y-38271D01*
X44971Y-38271D01*
X44907Y-38242D01*
X44864Y-38185D01*
X44842Y-38128D01*
X44821Y-38014D01*
X44821Y-37928D01*
X44842Y-37814D01*
X44864Y-37757D01*
X44907Y-37700D01*
X44971Y-37671D01*
X45014Y-37671D01*
X45078Y-37700D01*
X45100Y-37728D01*
X45292Y-38271D02*
X45292Y-37671D01*
X45464Y-37671D01*
X45507Y-37700D01*
X45528Y-37728D01*
X45550Y-37785D01*
X45550Y-37871D01*
X45528Y-37928D01*
X45507Y-37957D01*
X45464Y-37985D01*
X45292Y-37985D01*
X45721Y-37728D02*
X45742Y-37700D01*
X45785Y-37671D01*
X45892Y-37671D01*
X45935Y-37700D01*
X45957Y-37728D01*
X45978Y-37785D01*
X45978Y-37842D01*
X45957Y-37928D01*
X45700Y-38271D01*
X45978Y-38271D01*
X46128Y-37671D02*
X46407Y-37671D01*
X46257Y-37900D01*
X46321Y-37900D01*
X46364Y-37928D01*
X46385Y-37957D01*
X46407Y-38014D01*
X46407Y-38157D01*
X46385Y-38214D01*
X46364Y-38242D01*
X46321Y-38271D01*
X46192Y-38271D01*
X46150Y-38242D01*
X46128Y-38214D01*
X46685Y-37671D02*
X46728Y-37671D01*
X46771Y-37700D01*
X46792Y-37728D01*
X46814Y-37785D01*
X46835Y-37900D01*
X46835Y-38042D01*
X46814Y-38157D01*
X46792Y-38214D01*
X46771Y-38242D01*
X46728Y-38271D01*
X46685Y-38271D01*
X46642Y-38242D01*
X46621Y-38214D01*
X46600Y-38157D01*
X46578Y-38042D01*
X46578Y-37900D01*
X46600Y-37785D01*
X46621Y-37728D01*
X46642Y-37700D01*
X46685Y-37671D01*
X47264Y-38271D02*
X47007Y-38271D01*
X47135Y-38271D02*
X47135Y-37671D01*
X47092Y-37757D01*
X47050Y-37814D01*
X47007Y-37842D01*
X47414Y-37671D02*
X47714Y-37671D01*
X47521Y-38271D01*
G54D21*
G54D20*
X34499Y-47112D02*
X34499Y-47598D01*
X34521Y-47655D01*
X34542Y-47683D01*
X34585Y-47712D01*
X34671Y-47712D01*
X34713Y-47683D01*
X34735Y-47655D01*
X34756Y-47598D01*
X34756Y-47112D01*
X34928Y-47112D02*
X35206Y-47112D01*
X35056Y-47340D01*
X35121Y-47340D01*
X35163Y-47369D01*
X35185Y-47398D01*
X35206Y-47455D01*
X35206Y-47598D01*
X35185Y-47655D01*
X35163Y-47683D01*
X35121Y-47712D01*
X34992Y-47712D01*
X34949Y-47683D01*
X34928Y-47655D01*
G54D21*
G54D20*
X44078Y-47771D02*
X44078Y-47171D01*
X44228Y-47600D01*
X44378Y-47171D01*
X44378Y-47771D01*
X44850Y-47714D02*
X44828Y-47742D01*
X44764Y-47771D01*
X44721Y-47771D01*
X44657Y-47742D01*
X44614Y-47685D01*
X44592Y-47628D01*
X44571Y-47514D01*
X44571Y-47428D01*
X44592Y-47314D01*
X44614Y-47257D01*
X44657Y-47200D01*
X44721Y-47171D01*
X44764Y-47171D01*
X44828Y-47200D01*
X44850Y-47228D01*
X45042Y-47771D02*
X45042Y-47171D01*
X45214Y-47171D01*
X45257Y-47200D01*
X45278Y-47228D01*
X45300Y-47285D01*
X45300Y-47371D01*
X45278Y-47428D01*
X45257Y-47457D01*
X45214Y-47485D01*
X45042Y-47485D01*
X45471Y-47228D02*
X45492Y-47200D01*
X45535Y-47171D01*
X45642Y-47171D01*
X45685Y-47200D01*
X45707Y-47228D01*
X45728Y-47285D01*
X45728Y-47342D01*
X45707Y-47428D01*
X45450Y-47771D01*
X45728Y-47771D01*
X45878Y-47171D02*
X46157Y-47171D01*
X46007Y-47400D01*
X46071Y-47400D01*
X46114Y-47428D01*
X46135Y-47457D01*
X46157Y-47514D01*
X46157Y-47657D01*
X46135Y-47714D01*
X46114Y-47742D01*
X46071Y-47771D01*
X45942Y-47771D01*
X45900Y-47742D01*
X45878Y-47714D01*
X46435Y-47171D02*
X46478Y-47171D01*
X46521Y-47200D01*
X46542Y-47228D01*
X46564Y-47285D01*
X46585Y-47400D01*
X46585Y-47542D01*
X46564Y-47657D01*
X46542Y-47714D01*
X46521Y-47742D01*
X46478Y-47771D01*
X46435Y-47771D01*
X46392Y-47742D01*
X46371Y-47714D01*
X46350Y-47657D01*
X46328Y-47542D01*
X46328Y-47400D01*
X46350Y-47285D01*
X46371Y-47228D01*
X46392Y-47200D01*
X46435Y-47171D01*
X47014Y-47771D02*
X46757Y-47771D01*
X46885Y-47771D02*
X46885Y-47171D01*
X46842Y-47257D01*
X46800Y-47314D01*
X46757Y-47342D01*
X47164Y-47171D02*
X47464Y-47171D01*
X47271Y-47771D01*
G54D21*
G54D19*
X34720Y-40821D02*
X34711Y-40830D01*
X34685Y-40840D01*
X34668Y-40840D01*
X34642Y-40830D01*
X34625Y-40811D01*
X34617Y-40792D01*
X34608Y-40754D01*
X34608Y-40726D01*
X34617Y-40688D01*
X34625Y-40669D01*
X34642Y-40650D01*
X34668Y-40640D01*
X34685Y-40640D01*
X34711Y-40650D01*
X34720Y-40659D01*
X34891Y-40840D02*
X34788Y-40840D01*
X34840Y-40840D02*
X34840Y-40640D01*
X34822Y-40669D01*
X34805Y-40688D01*
X34788Y-40697D01*
X44970Y-50071D02*
X44961Y-50080D01*
X44935Y-50090D01*
X44918Y-50090D01*
X44892Y-50080D01*
X44875Y-50061D01*
X44867Y-50042D01*
X44858Y-50004D01*
X44858Y-49976D01*
X44867Y-49938D01*
X44875Y-49919D01*
X44892Y-49900D01*
X44918Y-49890D01*
X44935Y-49890D01*
X44961Y-49900D01*
X44970Y-49909D01*
X45038Y-49909D02*
X45047Y-49900D01*
X45064Y-49890D01*
X45107Y-49890D01*
X45124Y-49900D01*
X45132Y-49909D01*
X45141Y-49928D01*
X45141Y-49947D01*
X45132Y-49976D01*
X45030Y-50090D01*
X45141Y-50090D01*
X45220Y-40821D02*
X45211Y-40830D01*
X45185Y-40840D01*
X45168Y-40840D01*
X45142Y-40830D01*
X45125Y-40811D01*
X45117Y-40792D01*
X45108Y-40754D01*
X45108Y-40726D01*
X45117Y-40688D01*
X45125Y-40669D01*
X45142Y-40650D01*
X45168Y-40640D01*
X45185Y-40640D01*
X45211Y-40650D01*
X45220Y-40659D01*
X45280Y-40640D02*
X45391Y-40640D01*
X45331Y-40716D01*
X45357Y-40716D01*
X45374Y-40726D01*
X45382Y-40735D01*
X45391Y-40754D01*
X45391Y-40802D01*
X45382Y-40821D01*
X45374Y-40830D01*
X45357Y-40840D01*
X45305Y-40840D01*
X45288Y-40830D01*
X45280Y-40821D01*
X35720Y-43071D02*
X35711Y-43080D01*
X35685Y-43090D01*
X35668Y-43090D01*
X35642Y-43080D01*
X35625Y-43061D01*
X35617Y-43042D01*
X35608Y-43004D01*
X35608Y-42976D01*
X35617Y-42938D01*
X35625Y-42919D01*
X35642Y-42900D01*
X35668Y-42890D01*
X35685Y-42890D01*
X35711Y-42900D01*
X35720Y-42909D01*
X35874Y-42957D02*
X35874Y-43090D01*
X35831Y-42880D02*
X35788Y-43023D01*
X35900Y-43023D01*
G54D22*
X36582Y-41764D02*
X36582Y-42007D01*
X36596Y-42036D01*
X36611Y-42050D01*
X36639Y-42064D01*
X36696Y-42064D01*
X36725Y-42050D01*
X36739Y-42036D01*
X36753Y-42007D01*
X36753Y-41764D01*
X37025Y-41864D02*
X37025Y-42064D01*
X36953Y-41750D02*
X36882Y-41964D01*
X37068Y-41964D01*
G54D23*
M02*
