M48
;DRILL file {pcbnew (2014-04-07 BZR 4791)-product} date ons  9 apr 2014 20:50:27
;FORMAT={-:-/ absolute / inch / decimal}
FMAT,2
INCH,TZ
T1C0.025
T2C0.032
T3C0.039
T4C0.040
T5C0.118
%
G90
G05
M72
T1
X3.3642Y-4.9858
X3.3653Y-4.6454
X3.4217Y-3.6852
X3.4296Y-3.7685
X3.4456Y-4.899
X3.4689Y-4.275
X3.4695Y-3.5856
X3.5255Y-4.1317
X3.537Y-4.7501
X3.5633Y-4.4195
X3.6247Y-4.1488
X3.6992Y-4.7973
X4.0822Y-4.138
X4.1438Y-4.0987
X4.531Y-3.8186
T2
X3.65Y-4.6
X3.65Y-4.9
X3.675Y-3.65
X3.675Y-3.95
X3.75Y-4.6
X3.75Y-4.9
X3.775Y-3.65
X3.775Y-3.95
X3.85Y-4.6
X3.85Y-4.9
X3.875Y-3.65
X3.875Y-3.95
X3.95Y-4.6
X3.95Y-4.9
X3.975Y-3.65
X3.975Y-3.95
X4.05Y-4.6
X4.05Y-4.9
X4.075Y-3.65
X4.075Y-3.95
X4.15Y-4.6
X4.15Y-4.9
X4.175Y-3.65
X4.175Y-3.95
X4.25Y-4.6
X4.25Y-4.9
X4.275Y-3.65
X4.275Y-3.95
X4.35Y-4.6
X4.35Y-4.9
X4.375Y-3.65
X4.375Y-3.95
X4.45Y-4.6
X4.45Y-4.9
X4.475Y-3.65
X4.475Y-3.95
X4.55Y-4.6
X4.55Y-4.9
X4.575Y-3.65
X4.575Y-3.95
X4.65Y-4.6
X4.65Y-4.9
X4.675Y-3.65
X4.675Y-3.95
X4.75Y-4.6
X4.75Y-4.9
X4.775Y-3.65
X4.775Y-3.95
X4.85Y-4.6
X4.85Y-4.9
X4.875Y-3.65
X4.875Y-3.95
X4.95Y-4.6
X4.95Y-4.9
X4.975Y-3.65
X4.975Y-3.95
T3
X3.175Y-3.875
X3.175Y-3.975
X3.175Y-4.075
X3.175Y-4.175
X3.175Y-4.275
X3.175Y-4.375
X3.175Y-4.475
X3.175Y-4.575
X3.175Y-4.675
X3.175Y-4.775
X3.175Y-4.875
X3.175Y-4.975
X3.175Y-5.075
X3.275Y-3.875
X3.275Y-3.975
X3.275Y-4.075
X3.275Y-4.175
X3.275Y-4.275
X3.275Y-4.375
X3.275Y-4.475
X3.275Y-4.575
X3.275Y-4.675
X3.275Y-4.775
X3.275Y-4.875
X3.275Y-4.975
X3.275Y-5.075
T4
X3.35Y-3.1
X3.35Y-3.2
X3.45Y-3.1
X3.45Y-3.2
X3.55Y-3.1
X3.55Y-3.2
X3.65Y-3.1
X3.65Y-3.2
X3.75Y-3.1
X3.75Y-3.2
X3.775Y-5.25
X3.775Y-5.35
X3.85Y-3.1
X3.85Y-3.2
X3.875Y-5.25
X3.875Y-5.35
X3.95Y-3.1
X3.95Y-3.2
X3.975Y-5.25
X3.975Y-5.35
X4.05Y-3.1
X4.05Y-3.2
X4.075Y-5.25
X4.075Y-5.35
X4.15Y-3.1
X4.15Y-3.2
X4.175Y-5.25
X4.175Y-5.35
X4.25Y-3.1
X4.25Y-3.2
X4.35Y-3.1
X4.35Y-3.2
X4.45Y-3.1
X4.45Y-3.2
X4.45Y-5.25
X4.45Y-5.35
X4.55Y-5.25
X4.55Y-5.35
X4.6Y-3.1
X4.6Y-3.2
X4.65Y-5.25
X4.65Y-5.35
X4.7Y-3.1
X4.7Y-3.2
X4.75Y-5.25
X4.75Y-5.35
X4.8Y-3.1
X4.8Y-3.2
X4.85Y-5.25
X4.85Y-5.35
X4.9Y-3.1
X4.9Y-3.2
X4.95Y-5.25
X4.95Y-5.35
X5.Y-3.1
X5.Y-3.2
X5.05Y-5.25
X5.05Y-5.35
X5.1Y-3.1
X5.1Y-3.2
X5.15Y-5.25
X5.15Y-5.35
X5.2Y-3.1
X5.2Y-3.2
X5.3Y-3.1
X5.3Y-3.2
X5.375Y-3.425
X5.375Y-3.525
X5.375Y-3.625
X5.375Y-3.725
X5.375Y-3.825
X5.375Y-3.925
X5.375Y-4.025
X5.375Y-4.125
X5.375Y-4.375
X5.375Y-4.475
X5.375Y-4.575
X5.375Y-4.675
X5.375Y-4.775
X5.375Y-4.875
X5.375Y-4.975
X5.375Y-5.075
X5.475Y-3.425
X5.475Y-3.525
X5.475Y-3.625
X5.475Y-3.725
X5.475Y-3.825
X5.475Y-3.925
X5.475Y-4.025
X5.475Y-4.125
X5.475Y-4.375
X5.475Y-4.475
X5.475Y-4.575
X5.475Y-4.675
X5.475Y-4.775
X5.475Y-4.875
X5.475Y-4.975
X5.475Y-5.075
T5
X3.1594Y-3.061
X3.1594Y-5.4035
X5.502Y-3.061
X5.502Y-5.4035
T0
M30
