G04 (created by PCBNEW (2013-mar-13)-testing) date Wed 12 Feb 2014 04:44:33 PM CET*
%MOIN*%
G04 Gerber Fmt 3.4, Leading zero omitted, Abs format*
%FSLAX34Y34*%
G01*
G70*
G90*
G04 APERTURE LIST*
%ADD10C,0.005906*%
%ADD11R,0.086600X0.060000*%
%ADD12O,0.086600X0.060000*%
%ADD13R,0.039400X0.023600*%
%ADD14R,0.080000X0.060000*%
%ADD15R,0.045000X0.025000*%
%ADD16R,0.035000X0.055000*%
%ADD17R,0.070900X0.106300*%
%ADD18R,0.055000X0.035000*%
%ADD19R,0.140000X0.070000*%
%ADD20C,0.039370*%
%ADD21C,0.023622*%
%ADD22C,0.010000*%
G04 APERTURE END LIST*
G54D10*
G54D11*
X52000Y-42000D03*
G54D12*
X52000Y-43000D03*
G54D11*
X52000Y-44000D03*
G54D12*
X52000Y-45000D03*
G54D13*
X53284Y-44025D03*
X54116Y-44400D03*
X53284Y-44775D03*
G54D11*
X52000Y-46000D03*
G54D12*
X52000Y-47000D03*
G54D14*
X53500Y-41650D03*
X53500Y-42950D03*
G54D15*
X54600Y-41500D03*
X54600Y-42100D03*
G54D16*
X54375Y-45700D03*
X53625Y-45700D03*
G54D17*
X55755Y-44900D03*
X57645Y-44900D03*
G54D18*
X57800Y-42525D03*
X57800Y-43275D03*
G54D16*
X57575Y-46800D03*
X56825Y-46800D03*
X56075Y-46800D03*
X55325Y-46800D03*
G54D19*
X56300Y-41450D03*
X56300Y-42950D03*
G54D11*
X59200Y-43800D03*
G54D12*
X59200Y-44800D03*
G54D20*
X52785Y-41962D02*
X52747Y-42000D01*
X52785Y-41650D02*
X52785Y-41962D01*
X52000Y-42000D02*
X52747Y-42000D01*
X53500Y-41650D02*
X52785Y-41650D01*
X54364Y-41500D02*
X54214Y-41650D01*
X54600Y-41500D02*
X54364Y-41500D01*
X53500Y-41650D02*
X54214Y-41650D01*
X55189Y-41450D02*
X55139Y-41500D01*
X56300Y-41450D02*
X55189Y-41450D01*
X54600Y-41500D02*
X55139Y-41500D01*
G54D21*
X52694Y-44025D02*
X52669Y-44000D01*
X53284Y-44025D02*
X52694Y-44025D01*
X52000Y-44000D02*
X52669Y-44000D01*
X56075Y-46800D02*
X56075Y-47055D01*
X56825Y-46800D02*
X56413Y-46800D01*
X56158Y-47055D02*
X56413Y-46800D01*
X56075Y-47055D02*
X56158Y-47055D01*
X53297Y-47297D02*
X52000Y-46000D01*
X55833Y-47297D02*
X53297Y-47297D01*
X56075Y-47055D02*
X55833Y-47297D01*
X52000Y-43000D02*
X52669Y-43000D01*
X58565Y-42100D02*
X54600Y-42100D01*
X59869Y-43403D02*
X58565Y-42100D01*
X59869Y-44800D02*
X59869Y-43403D01*
X59200Y-44800D02*
X59869Y-44800D01*
X52719Y-42950D02*
X53500Y-42950D01*
X52669Y-43000D02*
X52719Y-42950D01*
X54136Y-42925D02*
X54600Y-42461D01*
X54136Y-42950D02*
X54136Y-42925D01*
X54600Y-42100D02*
X54600Y-42461D01*
X54325Y-46211D02*
X54913Y-46800D01*
X53625Y-46211D02*
X54325Y-46211D01*
X53625Y-45700D02*
X53625Y-46211D01*
X55325Y-46800D02*
X54913Y-46800D01*
X53500Y-42950D02*
X53833Y-42950D01*
X53833Y-42950D02*
X54136Y-42950D01*
X53284Y-44775D02*
X53284Y-44813D01*
X53699Y-43084D02*
X53833Y-42950D01*
X53699Y-44398D02*
X53699Y-43084D01*
X53284Y-44813D02*
X53699Y-44398D01*
X51330Y-45000D02*
X51330Y-47000D01*
X52000Y-45000D02*
X51330Y-45000D01*
X52000Y-47000D02*
X51330Y-47000D01*
X53284Y-44813D02*
X53284Y-44971D01*
X52000Y-45000D02*
X52669Y-45000D01*
X53625Y-45700D02*
X53625Y-45188D01*
X52697Y-44971D02*
X52669Y-45000D01*
X53284Y-44971D02*
X52697Y-44971D01*
X53501Y-45188D02*
X53625Y-45188D01*
X53284Y-44971D02*
X53501Y-45188D01*
X54375Y-45700D02*
X54786Y-45700D01*
X54115Y-44400D02*
X54115Y-44754D01*
X57288Y-42897D02*
X57288Y-42525D01*
X57236Y-42950D02*
X57288Y-42897D01*
X56300Y-42950D02*
X57236Y-42950D01*
X57800Y-42525D02*
X57288Y-42525D01*
X55755Y-44900D02*
X55607Y-44900D01*
X55607Y-44900D02*
X55459Y-44900D01*
X55607Y-44228D02*
X56300Y-43536D01*
X55607Y-44900D02*
X55607Y-44228D01*
X56300Y-42950D02*
X56300Y-43536D01*
X54786Y-45035D02*
X54786Y-45700D01*
X54397Y-45035D02*
X54786Y-45035D01*
X54115Y-44754D02*
X54397Y-45035D01*
X54921Y-44900D02*
X55459Y-44900D01*
X54786Y-45035D02*
X54921Y-44900D01*
X57800Y-43275D02*
X57800Y-43686D01*
X57913Y-43863D02*
X57913Y-43800D01*
X57645Y-44132D02*
X57913Y-43863D01*
X59200Y-43800D02*
X57913Y-43800D01*
X57913Y-43800D02*
X57800Y-43686D01*
X57645Y-44900D02*
X57645Y-44132D01*
X57645Y-46218D02*
X57645Y-44900D01*
X57575Y-46288D02*
X57645Y-46218D01*
X57575Y-46800D02*
X57575Y-46288D01*
G54D10*
G36*
X59989Y-47784D02*
X59866Y-47784D01*
X59866Y-44935D01*
X59866Y-44664D01*
X59860Y-44635D01*
X59757Y-44446D01*
X59589Y-44311D01*
X59444Y-44268D01*
X59666Y-44268D01*
X59728Y-44242D01*
X59775Y-44195D01*
X59801Y-44133D01*
X59801Y-44066D01*
X59801Y-43466D01*
X59775Y-43404D01*
X59728Y-43357D01*
X59666Y-43331D01*
X59599Y-43331D01*
X58733Y-43331D01*
X58671Y-43357D01*
X58624Y-43404D01*
X58598Y-43466D01*
X58598Y-43513D01*
X58230Y-43513D01*
X58243Y-43483D01*
X58243Y-43416D01*
X58243Y-43066D01*
X58217Y-43004D01*
X58170Y-42957D01*
X58108Y-42931D01*
X58041Y-42931D01*
X57568Y-42931D01*
X57575Y-42897D01*
X57575Y-42897D01*
X57575Y-42897D01*
X57575Y-42868D01*
X58108Y-42868D01*
X58170Y-42842D01*
X58217Y-42795D01*
X58243Y-42733D01*
X58243Y-42666D01*
X58243Y-42316D01*
X58217Y-42254D01*
X58170Y-42207D01*
X58108Y-42181D01*
X58041Y-42181D01*
X57491Y-42181D01*
X57429Y-42207D01*
X57398Y-42238D01*
X57288Y-42238D01*
X57179Y-42260D01*
X57168Y-42268D01*
X57168Y-41833D01*
X57168Y-41766D01*
X57168Y-41066D01*
X57142Y-41004D01*
X57095Y-40957D01*
X57033Y-40931D01*
X56966Y-40931D01*
X55566Y-40931D01*
X55504Y-40957D01*
X55457Y-41004D01*
X55431Y-41066D01*
X55431Y-41085D01*
X55189Y-41085D01*
X55050Y-41112D01*
X55017Y-41135D01*
X54600Y-41135D01*
X54364Y-41135D01*
X54225Y-41162D01*
X54106Y-41241D01*
X54063Y-41285D01*
X54055Y-41285D01*
X54042Y-41254D01*
X53995Y-41207D01*
X53933Y-41181D01*
X53866Y-41181D01*
X53066Y-41181D01*
X53004Y-41207D01*
X52957Y-41254D01*
X52944Y-41285D01*
X52785Y-41285D01*
X52645Y-41312D01*
X52526Y-41391D01*
X52447Y-41510D01*
X52443Y-41531D01*
X52399Y-41531D01*
X51533Y-41531D01*
X51471Y-41557D01*
X51424Y-41604D01*
X51398Y-41666D01*
X51398Y-41733D01*
X51398Y-42333D01*
X51424Y-42395D01*
X51471Y-42442D01*
X51533Y-42468D01*
X51600Y-42468D01*
X51755Y-42468D01*
X51610Y-42511D01*
X51442Y-42646D01*
X51339Y-42835D01*
X51333Y-42864D01*
X51382Y-42950D01*
X51950Y-42950D01*
X51950Y-42942D01*
X52050Y-42942D01*
X52050Y-42950D01*
X52617Y-42950D01*
X52666Y-42864D01*
X52660Y-42835D01*
X52557Y-42646D01*
X52389Y-42511D01*
X52244Y-42468D01*
X52466Y-42468D01*
X52528Y-42442D01*
X52575Y-42395D01*
X52588Y-42364D01*
X52747Y-42364D01*
X52887Y-42337D01*
X52887Y-42337D01*
X53006Y-42258D01*
X53043Y-42220D01*
X53111Y-42118D01*
X53111Y-42118D01*
X53133Y-42118D01*
X53933Y-42118D01*
X53995Y-42092D01*
X54042Y-42045D01*
X54055Y-42014D01*
X54152Y-42014D01*
X54187Y-42050D01*
X54550Y-42050D01*
X54550Y-42042D01*
X54650Y-42042D01*
X54650Y-42050D01*
X55012Y-42050D01*
X55075Y-41987D01*
X55075Y-41925D01*
X55050Y-41864D01*
X55139Y-41864D01*
X55279Y-41837D01*
X55279Y-41837D01*
X55312Y-41814D01*
X55312Y-41814D01*
X55431Y-41814D01*
X55431Y-41833D01*
X55457Y-41895D01*
X55504Y-41942D01*
X55566Y-41968D01*
X55633Y-41968D01*
X57033Y-41968D01*
X57095Y-41942D01*
X57142Y-41895D01*
X57168Y-41833D01*
X57168Y-42268D01*
X57086Y-42322D01*
X57024Y-42415D01*
X57021Y-42431D01*
X56966Y-42431D01*
X55566Y-42431D01*
X55504Y-42457D01*
X55457Y-42504D01*
X55431Y-42566D01*
X55431Y-42633D01*
X55431Y-43333D01*
X55457Y-43395D01*
X55504Y-43442D01*
X55566Y-43468D01*
X55633Y-43468D01*
X55963Y-43468D01*
X55404Y-44026D01*
X55342Y-44119D01*
X55339Y-44137D01*
X55323Y-44218D01*
X55323Y-44218D01*
X55305Y-44225D01*
X55257Y-44273D01*
X55232Y-44335D01*
X55232Y-44401D01*
X55232Y-44613D01*
X55075Y-44613D01*
X55075Y-42274D01*
X55075Y-42212D01*
X55012Y-42150D01*
X54650Y-42150D01*
X54650Y-42412D01*
X54712Y-42475D01*
X54775Y-42475D01*
X54874Y-42475D01*
X54966Y-42436D01*
X55036Y-42366D01*
X55075Y-42274D01*
X55075Y-44613D01*
X54921Y-44613D01*
X54812Y-44635D01*
X54719Y-44697D01*
X54719Y-44697D01*
X54667Y-44749D01*
X54550Y-44749D01*
X54550Y-42412D01*
X54550Y-42150D01*
X54187Y-42150D01*
X54125Y-42212D01*
X54125Y-42274D01*
X54163Y-42366D01*
X54233Y-42436D01*
X54325Y-42475D01*
X54424Y-42475D01*
X54487Y-42475D01*
X54550Y-42412D01*
X54550Y-44749D01*
X54515Y-44749D01*
X54417Y-44651D01*
X54455Y-44613D01*
X54481Y-44551D01*
X54481Y-44484D01*
X54481Y-44248D01*
X54455Y-44186D01*
X54408Y-44139D01*
X54346Y-44113D01*
X54279Y-44113D01*
X54150Y-44113D01*
X54150Y-43299D01*
X54150Y-43062D01*
X54150Y-42837D01*
X54150Y-42600D01*
X54111Y-42508D01*
X54041Y-42438D01*
X53949Y-42400D01*
X53850Y-42400D01*
X53612Y-42400D01*
X53550Y-42462D01*
X53550Y-42900D01*
X54087Y-42900D01*
X54150Y-42837D01*
X54150Y-43062D01*
X54087Y-43000D01*
X53550Y-43000D01*
X53550Y-43437D01*
X53612Y-43500D01*
X53850Y-43500D01*
X53949Y-43500D01*
X54041Y-43461D01*
X54111Y-43391D01*
X54150Y-43299D01*
X54150Y-44113D01*
X54116Y-44113D01*
X54115Y-44113D01*
X54115Y-44113D01*
X53885Y-44113D01*
X53823Y-44139D01*
X53776Y-44186D01*
X53750Y-44248D01*
X53750Y-44315D01*
X53750Y-44551D01*
X53776Y-44613D01*
X53823Y-44660D01*
X53829Y-44662D01*
X53829Y-44754D01*
X53829Y-44754D01*
X53847Y-44845D01*
X53851Y-44863D01*
X53913Y-44956D01*
X54194Y-45237D01*
X54194Y-45237D01*
X54223Y-45256D01*
X54166Y-45256D01*
X54104Y-45282D01*
X54057Y-45329D01*
X54044Y-45361D01*
X54011Y-45283D01*
X53941Y-45213D01*
X53849Y-45175D01*
X53737Y-45175D01*
X53731Y-45181D01*
X53731Y-44942D01*
X53731Y-44887D01*
X53731Y-44662D01*
X53731Y-44607D01*
X53692Y-44515D01*
X53649Y-44471D01*
X53649Y-44176D01*
X53649Y-44109D01*
X53649Y-43873D01*
X53623Y-43811D01*
X53576Y-43764D01*
X53514Y-43738D01*
X53450Y-43738D01*
X53450Y-43437D01*
X53450Y-43000D01*
X53450Y-42900D01*
X53450Y-42462D01*
X53387Y-42400D01*
X53149Y-42400D01*
X53050Y-42400D01*
X52958Y-42438D01*
X52888Y-42508D01*
X52850Y-42600D01*
X52850Y-42837D01*
X52912Y-42900D01*
X53450Y-42900D01*
X53450Y-43000D01*
X52912Y-43000D01*
X52850Y-43062D01*
X52850Y-43299D01*
X52888Y-43391D01*
X52958Y-43461D01*
X53050Y-43500D01*
X53149Y-43500D01*
X53387Y-43500D01*
X53450Y-43437D01*
X53450Y-43738D01*
X53447Y-43738D01*
X53284Y-43738D01*
X53284Y-43738D01*
X52783Y-43738D01*
X52778Y-43735D01*
X52760Y-43731D01*
X52669Y-43713D01*
X52669Y-43713D01*
X52601Y-43713D01*
X52601Y-43666D01*
X52575Y-43604D01*
X52528Y-43557D01*
X52466Y-43531D01*
X52399Y-43531D01*
X52244Y-43531D01*
X52389Y-43488D01*
X52557Y-43353D01*
X52660Y-43164D01*
X52666Y-43135D01*
X52617Y-43050D01*
X52050Y-43050D01*
X52050Y-43057D01*
X51950Y-43057D01*
X51950Y-43050D01*
X51382Y-43050D01*
X51333Y-43135D01*
X51339Y-43164D01*
X51442Y-43353D01*
X51610Y-43488D01*
X51755Y-43531D01*
X51533Y-43531D01*
X51471Y-43557D01*
X51424Y-43604D01*
X51398Y-43666D01*
X51398Y-43733D01*
X51398Y-44333D01*
X51424Y-44395D01*
X51471Y-44442D01*
X51533Y-44468D01*
X51600Y-44468D01*
X51755Y-44468D01*
X51610Y-44511D01*
X51442Y-44646D01*
X51339Y-44835D01*
X51333Y-44864D01*
X51382Y-44950D01*
X51950Y-44950D01*
X51950Y-44942D01*
X52050Y-44942D01*
X52050Y-44950D01*
X52617Y-44950D01*
X52666Y-44864D01*
X52660Y-44835D01*
X52557Y-44646D01*
X52389Y-44511D01*
X52244Y-44468D01*
X52466Y-44468D01*
X52528Y-44442D01*
X52575Y-44395D01*
X52601Y-44333D01*
X52601Y-44292D01*
X52694Y-44311D01*
X52694Y-44311D01*
X52694Y-44311D01*
X53284Y-44311D01*
X53284Y-44311D01*
X53514Y-44311D01*
X53576Y-44285D01*
X53623Y-44238D01*
X53649Y-44176D01*
X53649Y-44471D01*
X53622Y-44445D01*
X53530Y-44407D01*
X53431Y-44407D01*
X53396Y-44407D01*
X53334Y-44469D01*
X53334Y-44725D01*
X53668Y-44725D01*
X53731Y-44662D01*
X53731Y-44887D01*
X53668Y-44825D01*
X53334Y-44825D01*
X53334Y-45080D01*
X53396Y-45143D01*
X53431Y-45143D01*
X53530Y-45143D01*
X53622Y-45104D01*
X53692Y-45034D01*
X53731Y-44942D01*
X53731Y-45181D01*
X53675Y-45237D01*
X53675Y-45650D01*
X53682Y-45650D01*
X53682Y-45750D01*
X53675Y-45750D01*
X53675Y-46162D01*
X53737Y-46225D01*
X53849Y-46225D01*
X53941Y-46186D01*
X54011Y-46116D01*
X54044Y-46038D01*
X54057Y-46070D01*
X54104Y-46117D01*
X54166Y-46143D01*
X54233Y-46143D01*
X54583Y-46143D01*
X54645Y-46117D01*
X54692Y-46070D01*
X54718Y-46008D01*
X54718Y-45986D01*
X54786Y-45986D01*
X54895Y-45964D01*
X54988Y-45902D01*
X55050Y-45809D01*
X55072Y-45700D01*
X55072Y-45186D01*
X55232Y-45186D01*
X55232Y-45464D01*
X55257Y-45526D01*
X55305Y-45574D01*
X55367Y-45599D01*
X55433Y-45599D01*
X56142Y-45599D01*
X56204Y-45574D01*
X56252Y-45526D01*
X56277Y-45464D01*
X56277Y-45398D01*
X56277Y-44335D01*
X56252Y-44273D01*
X56204Y-44225D01*
X56142Y-44200D01*
X56076Y-44200D01*
X56040Y-44200D01*
X56502Y-43738D01*
X56502Y-43738D01*
X56502Y-43738D01*
X56564Y-43645D01*
X56586Y-43536D01*
X56586Y-43468D01*
X57033Y-43468D01*
X57095Y-43442D01*
X57142Y-43395D01*
X57168Y-43333D01*
X57168Y-43266D01*
X57168Y-43236D01*
X57236Y-43236D01*
X57236Y-43236D01*
X57236Y-43236D01*
X57327Y-43218D01*
X57345Y-43214D01*
X57345Y-43214D01*
X57356Y-43206D01*
X57356Y-43483D01*
X57382Y-43545D01*
X57429Y-43592D01*
X57491Y-43618D01*
X57513Y-43618D01*
X57513Y-43686D01*
X57513Y-43686D01*
X57531Y-43777D01*
X57535Y-43795D01*
X57552Y-43820D01*
X57442Y-43929D01*
X57380Y-44022D01*
X57376Y-44040D01*
X57358Y-44132D01*
X57358Y-44132D01*
X57358Y-44200D01*
X57257Y-44200D01*
X57195Y-44225D01*
X57147Y-44273D01*
X57122Y-44335D01*
X57122Y-44401D01*
X57122Y-45464D01*
X57147Y-45526D01*
X57195Y-45574D01*
X57257Y-45599D01*
X57323Y-45599D01*
X57358Y-45599D01*
X57358Y-46107D01*
X57310Y-46179D01*
X57306Y-46197D01*
X57288Y-46288D01*
X57288Y-46288D01*
X57288Y-46398D01*
X57257Y-46429D01*
X57231Y-46491D01*
X57231Y-46558D01*
X57231Y-47108D01*
X57257Y-47170D01*
X57304Y-47217D01*
X57366Y-47243D01*
X57433Y-47243D01*
X57783Y-47243D01*
X57845Y-47217D01*
X57892Y-47170D01*
X57918Y-47108D01*
X57918Y-47041D01*
X57918Y-46491D01*
X57892Y-46429D01*
X57862Y-46399D01*
X57909Y-46328D01*
X57931Y-46218D01*
X57931Y-45599D01*
X58032Y-45599D01*
X58094Y-45574D01*
X58142Y-45526D01*
X58167Y-45464D01*
X58167Y-45398D01*
X58167Y-44335D01*
X58142Y-44273D01*
X58094Y-44225D01*
X58032Y-44200D01*
X57981Y-44200D01*
X58095Y-44086D01*
X58598Y-44086D01*
X58598Y-44133D01*
X58624Y-44195D01*
X58671Y-44242D01*
X58733Y-44268D01*
X58800Y-44268D01*
X58955Y-44268D01*
X58810Y-44311D01*
X58642Y-44446D01*
X58539Y-44635D01*
X58533Y-44664D01*
X58582Y-44750D01*
X59150Y-44750D01*
X59150Y-44742D01*
X59250Y-44742D01*
X59250Y-44750D01*
X59817Y-44750D01*
X59866Y-44664D01*
X59866Y-44935D01*
X59817Y-44850D01*
X59250Y-44850D01*
X59250Y-45350D01*
X59383Y-45350D01*
X59589Y-45288D01*
X59757Y-45153D01*
X59860Y-44964D01*
X59866Y-44935D01*
X59866Y-47784D01*
X59150Y-47784D01*
X59150Y-45350D01*
X59150Y-44850D01*
X58582Y-44850D01*
X58533Y-44935D01*
X58539Y-44964D01*
X58642Y-45153D01*
X58810Y-45288D01*
X59017Y-45350D01*
X59150Y-45350D01*
X59150Y-47784D01*
X57168Y-47784D01*
X57168Y-47108D01*
X57168Y-47041D01*
X57168Y-46491D01*
X57142Y-46429D01*
X57095Y-46382D01*
X57033Y-46356D01*
X56966Y-46356D01*
X56616Y-46356D01*
X56554Y-46382D01*
X56507Y-46429D01*
X56481Y-46491D01*
X56481Y-46513D01*
X56418Y-46513D01*
X56418Y-46491D01*
X56392Y-46429D01*
X56345Y-46382D01*
X56283Y-46356D01*
X56216Y-46356D01*
X55866Y-46356D01*
X55804Y-46382D01*
X55757Y-46429D01*
X55744Y-46461D01*
X55711Y-46383D01*
X55641Y-46313D01*
X55549Y-46275D01*
X55437Y-46275D01*
X55375Y-46337D01*
X55375Y-46750D01*
X55382Y-46750D01*
X55382Y-46850D01*
X55375Y-46850D01*
X55375Y-46857D01*
X55275Y-46857D01*
X55275Y-46850D01*
X55275Y-46750D01*
X55275Y-46337D01*
X55212Y-46275D01*
X55100Y-46275D01*
X55008Y-46313D01*
X54938Y-46383D01*
X54900Y-46475D01*
X54900Y-46574D01*
X54900Y-46687D01*
X54962Y-46750D01*
X55275Y-46750D01*
X55275Y-46850D01*
X54962Y-46850D01*
X54900Y-46912D01*
X54900Y-47011D01*
X53575Y-47011D01*
X53575Y-46162D01*
X53575Y-45750D01*
X53575Y-45650D01*
X53575Y-45237D01*
X53512Y-45175D01*
X53400Y-45175D01*
X53308Y-45213D01*
X53238Y-45283D01*
X53234Y-45293D01*
X53234Y-45080D01*
X53234Y-44825D01*
X53234Y-44725D01*
X53234Y-44469D01*
X53171Y-44407D01*
X53136Y-44407D01*
X53037Y-44407D01*
X52945Y-44445D01*
X52875Y-44515D01*
X52837Y-44607D01*
X52837Y-44662D01*
X52899Y-44725D01*
X53234Y-44725D01*
X53234Y-44825D01*
X52899Y-44825D01*
X52837Y-44887D01*
X52837Y-44942D01*
X52875Y-45034D01*
X52945Y-45104D01*
X53037Y-45143D01*
X53136Y-45143D01*
X53171Y-45143D01*
X53234Y-45080D01*
X53234Y-45293D01*
X53200Y-45375D01*
X53200Y-45474D01*
X53200Y-45587D01*
X53262Y-45650D01*
X53575Y-45650D01*
X53575Y-45750D01*
X53262Y-45750D01*
X53200Y-45812D01*
X53200Y-45925D01*
X53200Y-46024D01*
X53238Y-46116D01*
X53308Y-46186D01*
X53400Y-46225D01*
X53512Y-46225D01*
X53575Y-46162D01*
X53575Y-47011D01*
X53415Y-47011D01*
X52601Y-46196D01*
X52601Y-45666D01*
X52575Y-45604D01*
X52528Y-45557D01*
X52466Y-45531D01*
X52399Y-45531D01*
X52244Y-45531D01*
X52389Y-45488D01*
X52557Y-45353D01*
X52660Y-45164D01*
X52666Y-45135D01*
X52617Y-45050D01*
X52050Y-45050D01*
X52050Y-45057D01*
X51950Y-45057D01*
X51950Y-45050D01*
X51382Y-45050D01*
X51333Y-45135D01*
X51339Y-45164D01*
X51442Y-45353D01*
X51610Y-45488D01*
X51755Y-45531D01*
X51533Y-45531D01*
X51471Y-45557D01*
X51424Y-45604D01*
X51398Y-45666D01*
X51398Y-45733D01*
X51398Y-46333D01*
X51424Y-46395D01*
X51471Y-46442D01*
X51533Y-46468D01*
X51600Y-46468D01*
X51755Y-46468D01*
X51610Y-46511D01*
X51442Y-46646D01*
X51339Y-46835D01*
X51333Y-46864D01*
X51382Y-46950D01*
X51950Y-46950D01*
X51950Y-46942D01*
X52050Y-46942D01*
X52050Y-46950D01*
X52057Y-46950D01*
X52057Y-47050D01*
X52050Y-47050D01*
X52050Y-47550D01*
X52183Y-47550D01*
X52389Y-47488D01*
X52557Y-47353D01*
X52660Y-47164D01*
X52666Y-47135D01*
X52617Y-47050D01*
X52645Y-47050D01*
X53095Y-47499D01*
X53095Y-47499D01*
X53187Y-47561D01*
X53297Y-47583D01*
X55833Y-47583D01*
X55833Y-47583D01*
X55833Y-47583D01*
X55924Y-47565D01*
X55942Y-47561D01*
X55942Y-47561D01*
X56035Y-47499D01*
X56202Y-47333D01*
X56249Y-47323D01*
X56267Y-47320D01*
X56267Y-47320D01*
X56360Y-47257D01*
X56490Y-47128D01*
X56507Y-47170D01*
X56554Y-47217D01*
X56616Y-47243D01*
X56683Y-47243D01*
X57033Y-47243D01*
X57095Y-47217D01*
X57142Y-47170D01*
X57168Y-47108D01*
X57168Y-47784D01*
X52666Y-47784D01*
X51950Y-47784D01*
X51950Y-47550D01*
X51950Y-47050D01*
X51382Y-47050D01*
X51333Y-47135D01*
X51339Y-47164D01*
X51442Y-47353D01*
X51610Y-47488D01*
X51817Y-47550D01*
X51950Y-47550D01*
X51950Y-47784D01*
X51034Y-47784D01*
X51034Y-40798D01*
X59989Y-40798D01*
X59989Y-47784D01*
X59989Y-47784D01*
G37*
G54D22*
X59989Y-47784D02*
X59866Y-47784D01*
X59866Y-44935D01*
X59866Y-44664D01*
X59860Y-44635D01*
X59757Y-44446D01*
X59589Y-44311D01*
X59444Y-44268D01*
X59666Y-44268D01*
X59728Y-44242D01*
X59775Y-44195D01*
X59801Y-44133D01*
X59801Y-44066D01*
X59801Y-43466D01*
X59775Y-43404D01*
X59728Y-43357D01*
X59666Y-43331D01*
X59599Y-43331D01*
X58733Y-43331D01*
X58671Y-43357D01*
X58624Y-43404D01*
X58598Y-43466D01*
X58598Y-43513D01*
X58230Y-43513D01*
X58243Y-43483D01*
X58243Y-43416D01*
X58243Y-43066D01*
X58217Y-43004D01*
X58170Y-42957D01*
X58108Y-42931D01*
X58041Y-42931D01*
X57568Y-42931D01*
X57575Y-42897D01*
X57575Y-42897D01*
X57575Y-42897D01*
X57575Y-42868D01*
X58108Y-42868D01*
X58170Y-42842D01*
X58217Y-42795D01*
X58243Y-42733D01*
X58243Y-42666D01*
X58243Y-42316D01*
X58217Y-42254D01*
X58170Y-42207D01*
X58108Y-42181D01*
X58041Y-42181D01*
X57491Y-42181D01*
X57429Y-42207D01*
X57398Y-42238D01*
X57288Y-42238D01*
X57179Y-42260D01*
X57168Y-42268D01*
X57168Y-41833D01*
X57168Y-41766D01*
X57168Y-41066D01*
X57142Y-41004D01*
X57095Y-40957D01*
X57033Y-40931D01*
X56966Y-40931D01*
X55566Y-40931D01*
X55504Y-40957D01*
X55457Y-41004D01*
X55431Y-41066D01*
X55431Y-41085D01*
X55189Y-41085D01*
X55050Y-41112D01*
X55017Y-41135D01*
X54600Y-41135D01*
X54364Y-41135D01*
X54225Y-41162D01*
X54106Y-41241D01*
X54063Y-41285D01*
X54055Y-41285D01*
X54042Y-41254D01*
X53995Y-41207D01*
X53933Y-41181D01*
X53866Y-41181D01*
X53066Y-41181D01*
X53004Y-41207D01*
X52957Y-41254D01*
X52944Y-41285D01*
X52785Y-41285D01*
X52645Y-41312D01*
X52526Y-41391D01*
X52447Y-41510D01*
X52443Y-41531D01*
X52399Y-41531D01*
X51533Y-41531D01*
X51471Y-41557D01*
X51424Y-41604D01*
X51398Y-41666D01*
X51398Y-41733D01*
X51398Y-42333D01*
X51424Y-42395D01*
X51471Y-42442D01*
X51533Y-42468D01*
X51600Y-42468D01*
X51755Y-42468D01*
X51610Y-42511D01*
X51442Y-42646D01*
X51339Y-42835D01*
X51333Y-42864D01*
X51382Y-42950D01*
X51950Y-42950D01*
X51950Y-42942D01*
X52050Y-42942D01*
X52050Y-42950D01*
X52617Y-42950D01*
X52666Y-42864D01*
X52660Y-42835D01*
X52557Y-42646D01*
X52389Y-42511D01*
X52244Y-42468D01*
X52466Y-42468D01*
X52528Y-42442D01*
X52575Y-42395D01*
X52588Y-42364D01*
X52747Y-42364D01*
X52887Y-42337D01*
X52887Y-42337D01*
X53006Y-42258D01*
X53043Y-42220D01*
X53111Y-42118D01*
X53111Y-42118D01*
X53133Y-42118D01*
X53933Y-42118D01*
X53995Y-42092D01*
X54042Y-42045D01*
X54055Y-42014D01*
X54152Y-42014D01*
X54187Y-42050D01*
X54550Y-42050D01*
X54550Y-42042D01*
X54650Y-42042D01*
X54650Y-42050D01*
X55012Y-42050D01*
X55075Y-41987D01*
X55075Y-41925D01*
X55050Y-41864D01*
X55139Y-41864D01*
X55279Y-41837D01*
X55279Y-41837D01*
X55312Y-41814D01*
X55312Y-41814D01*
X55431Y-41814D01*
X55431Y-41833D01*
X55457Y-41895D01*
X55504Y-41942D01*
X55566Y-41968D01*
X55633Y-41968D01*
X57033Y-41968D01*
X57095Y-41942D01*
X57142Y-41895D01*
X57168Y-41833D01*
X57168Y-42268D01*
X57086Y-42322D01*
X57024Y-42415D01*
X57021Y-42431D01*
X56966Y-42431D01*
X55566Y-42431D01*
X55504Y-42457D01*
X55457Y-42504D01*
X55431Y-42566D01*
X55431Y-42633D01*
X55431Y-43333D01*
X55457Y-43395D01*
X55504Y-43442D01*
X55566Y-43468D01*
X55633Y-43468D01*
X55963Y-43468D01*
X55404Y-44026D01*
X55342Y-44119D01*
X55339Y-44137D01*
X55323Y-44218D01*
X55323Y-44218D01*
X55305Y-44225D01*
X55257Y-44273D01*
X55232Y-44335D01*
X55232Y-44401D01*
X55232Y-44613D01*
X55075Y-44613D01*
X55075Y-42274D01*
X55075Y-42212D01*
X55012Y-42150D01*
X54650Y-42150D01*
X54650Y-42412D01*
X54712Y-42475D01*
X54775Y-42475D01*
X54874Y-42475D01*
X54966Y-42436D01*
X55036Y-42366D01*
X55075Y-42274D01*
X55075Y-44613D01*
X54921Y-44613D01*
X54812Y-44635D01*
X54719Y-44697D01*
X54719Y-44697D01*
X54667Y-44749D01*
X54550Y-44749D01*
X54550Y-42412D01*
X54550Y-42150D01*
X54187Y-42150D01*
X54125Y-42212D01*
X54125Y-42274D01*
X54163Y-42366D01*
X54233Y-42436D01*
X54325Y-42475D01*
X54424Y-42475D01*
X54487Y-42475D01*
X54550Y-42412D01*
X54550Y-44749D01*
X54515Y-44749D01*
X54417Y-44651D01*
X54455Y-44613D01*
X54481Y-44551D01*
X54481Y-44484D01*
X54481Y-44248D01*
X54455Y-44186D01*
X54408Y-44139D01*
X54346Y-44113D01*
X54279Y-44113D01*
X54150Y-44113D01*
X54150Y-43299D01*
X54150Y-43062D01*
X54150Y-42837D01*
X54150Y-42600D01*
X54111Y-42508D01*
X54041Y-42438D01*
X53949Y-42400D01*
X53850Y-42400D01*
X53612Y-42400D01*
X53550Y-42462D01*
X53550Y-42900D01*
X54087Y-42900D01*
X54150Y-42837D01*
X54150Y-43062D01*
X54087Y-43000D01*
X53550Y-43000D01*
X53550Y-43437D01*
X53612Y-43500D01*
X53850Y-43500D01*
X53949Y-43500D01*
X54041Y-43461D01*
X54111Y-43391D01*
X54150Y-43299D01*
X54150Y-44113D01*
X54116Y-44113D01*
X54115Y-44113D01*
X54115Y-44113D01*
X53885Y-44113D01*
X53823Y-44139D01*
X53776Y-44186D01*
X53750Y-44248D01*
X53750Y-44315D01*
X53750Y-44551D01*
X53776Y-44613D01*
X53823Y-44660D01*
X53829Y-44662D01*
X53829Y-44754D01*
X53829Y-44754D01*
X53847Y-44845D01*
X53851Y-44863D01*
X53913Y-44956D01*
X54194Y-45237D01*
X54194Y-45237D01*
X54223Y-45256D01*
X54166Y-45256D01*
X54104Y-45282D01*
X54057Y-45329D01*
X54044Y-45361D01*
X54011Y-45283D01*
X53941Y-45213D01*
X53849Y-45175D01*
X53737Y-45175D01*
X53731Y-45181D01*
X53731Y-44942D01*
X53731Y-44887D01*
X53731Y-44662D01*
X53731Y-44607D01*
X53692Y-44515D01*
X53649Y-44471D01*
X53649Y-44176D01*
X53649Y-44109D01*
X53649Y-43873D01*
X53623Y-43811D01*
X53576Y-43764D01*
X53514Y-43738D01*
X53450Y-43738D01*
X53450Y-43437D01*
X53450Y-43000D01*
X53450Y-42900D01*
X53450Y-42462D01*
X53387Y-42400D01*
X53149Y-42400D01*
X53050Y-42400D01*
X52958Y-42438D01*
X52888Y-42508D01*
X52850Y-42600D01*
X52850Y-42837D01*
X52912Y-42900D01*
X53450Y-42900D01*
X53450Y-43000D01*
X52912Y-43000D01*
X52850Y-43062D01*
X52850Y-43299D01*
X52888Y-43391D01*
X52958Y-43461D01*
X53050Y-43500D01*
X53149Y-43500D01*
X53387Y-43500D01*
X53450Y-43437D01*
X53450Y-43738D01*
X53447Y-43738D01*
X53284Y-43738D01*
X53284Y-43738D01*
X52783Y-43738D01*
X52778Y-43735D01*
X52760Y-43731D01*
X52669Y-43713D01*
X52669Y-43713D01*
X52601Y-43713D01*
X52601Y-43666D01*
X52575Y-43604D01*
X52528Y-43557D01*
X52466Y-43531D01*
X52399Y-43531D01*
X52244Y-43531D01*
X52389Y-43488D01*
X52557Y-43353D01*
X52660Y-43164D01*
X52666Y-43135D01*
X52617Y-43050D01*
X52050Y-43050D01*
X52050Y-43057D01*
X51950Y-43057D01*
X51950Y-43050D01*
X51382Y-43050D01*
X51333Y-43135D01*
X51339Y-43164D01*
X51442Y-43353D01*
X51610Y-43488D01*
X51755Y-43531D01*
X51533Y-43531D01*
X51471Y-43557D01*
X51424Y-43604D01*
X51398Y-43666D01*
X51398Y-43733D01*
X51398Y-44333D01*
X51424Y-44395D01*
X51471Y-44442D01*
X51533Y-44468D01*
X51600Y-44468D01*
X51755Y-44468D01*
X51610Y-44511D01*
X51442Y-44646D01*
X51339Y-44835D01*
X51333Y-44864D01*
X51382Y-44950D01*
X51950Y-44950D01*
X51950Y-44942D01*
X52050Y-44942D01*
X52050Y-44950D01*
X52617Y-44950D01*
X52666Y-44864D01*
X52660Y-44835D01*
X52557Y-44646D01*
X52389Y-44511D01*
X52244Y-44468D01*
X52466Y-44468D01*
X52528Y-44442D01*
X52575Y-44395D01*
X52601Y-44333D01*
X52601Y-44292D01*
X52694Y-44311D01*
X52694Y-44311D01*
X52694Y-44311D01*
X53284Y-44311D01*
X53284Y-44311D01*
X53514Y-44311D01*
X53576Y-44285D01*
X53623Y-44238D01*
X53649Y-44176D01*
X53649Y-44471D01*
X53622Y-44445D01*
X53530Y-44407D01*
X53431Y-44407D01*
X53396Y-44407D01*
X53334Y-44469D01*
X53334Y-44725D01*
X53668Y-44725D01*
X53731Y-44662D01*
X53731Y-44887D01*
X53668Y-44825D01*
X53334Y-44825D01*
X53334Y-45080D01*
X53396Y-45143D01*
X53431Y-45143D01*
X53530Y-45143D01*
X53622Y-45104D01*
X53692Y-45034D01*
X53731Y-44942D01*
X53731Y-45181D01*
X53675Y-45237D01*
X53675Y-45650D01*
X53682Y-45650D01*
X53682Y-45750D01*
X53675Y-45750D01*
X53675Y-46162D01*
X53737Y-46225D01*
X53849Y-46225D01*
X53941Y-46186D01*
X54011Y-46116D01*
X54044Y-46038D01*
X54057Y-46070D01*
X54104Y-46117D01*
X54166Y-46143D01*
X54233Y-46143D01*
X54583Y-46143D01*
X54645Y-46117D01*
X54692Y-46070D01*
X54718Y-46008D01*
X54718Y-45986D01*
X54786Y-45986D01*
X54895Y-45964D01*
X54988Y-45902D01*
X55050Y-45809D01*
X55072Y-45700D01*
X55072Y-45186D01*
X55232Y-45186D01*
X55232Y-45464D01*
X55257Y-45526D01*
X55305Y-45574D01*
X55367Y-45599D01*
X55433Y-45599D01*
X56142Y-45599D01*
X56204Y-45574D01*
X56252Y-45526D01*
X56277Y-45464D01*
X56277Y-45398D01*
X56277Y-44335D01*
X56252Y-44273D01*
X56204Y-44225D01*
X56142Y-44200D01*
X56076Y-44200D01*
X56040Y-44200D01*
X56502Y-43738D01*
X56502Y-43738D01*
X56502Y-43738D01*
X56564Y-43645D01*
X56586Y-43536D01*
X56586Y-43468D01*
X57033Y-43468D01*
X57095Y-43442D01*
X57142Y-43395D01*
X57168Y-43333D01*
X57168Y-43266D01*
X57168Y-43236D01*
X57236Y-43236D01*
X57236Y-43236D01*
X57236Y-43236D01*
X57327Y-43218D01*
X57345Y-43214D01*
X57345Y-43214D01*
X57356Y-43206D01*
X57356Y-43483D01*
X57382Y-43545D01*
X57429Y-43592D01*
X57491Y-43618D01*
X57513Y-43618D01*
X57513Y-43686D01*
X57513Y-43686D01*
X57531Y-43777D01*
X57535Y-43795D01*
X57552Y-43820D01*
X57442Y-43929D01*
X57380Y-44022D01*
X57376Y-44040D01*
X57358Y-44132D01*
X57358Y-44132D01*
X57358Y-44200D01*
X57257Y-44200D01*
X57195Y-44225D01*
X57147Y-44273D01*
X57122Y-44335D01*
X57122Y-44401D01*
X57122Y-45464D01*
X57147Y-45526D01*
X57195Y-45574D01*
X57257Y-45599D01*
X57323Y-45599D01*
X57358Y-45599D01*
X57358Y-46107D01*
X57310Y-46179D01*
X57306Y-46197D01*
X57288Y-46288D01*
X57288Y-46288D01*
X57288Y-46398D01*
X57257Y-46429D01*
X57231Y-46491D01*
X57231Y-46558D01*
X57231Y-47108D01*
X57257Y-47170D01*
X57304Y-47217D01*
X57366Y-47243D01*
X57433Y-47243D01*
X57783Y-47243D01*
X57845Y-47217D01*
X57892Y-47170D01*
X57918Y-47108D01*
X57918Y-47041D01*
X57918Y-46491D01*
X57892Y-46429D01*
X57862Y-46399D01*
X57909Y-46328D01*
X57931Y-46218D01*
X57931Y-45599D01*
X58032Y-45599D01*
X58094Y-45574D01*
X58142Y-45526D01*
X58167Y-45464D01*
X58167Y-45398D01*
X58167Y-44335D01*
X58142Y-44273D01*
X58094Y-44225D01*
X58032Y-44200D01*
X57981Y-44200D01*
X58095Y-44086D01*
X58598Y-44086D01*
X58598Y-44133D01*
X58624Y-44195D01*
X58671Y-44242D01*
X58733Y-44268D01*
X58800Y-44268D01*
X58955Y-44268D01*
X58810Y-44311D01*
X58642Y-44446D01*
X58539Y-44635D01*
X58533Y-44664D01*
X58582Y-44750D01*
X59150Y-44750D01*
X59150Y-44742D01*
X59250Y-44742D01*
X59250Y-44750D01*
X59817Y-44750D01*
X59866Y-44664D01*
X59866Y-44935D01*
X59817Y-44850D01*
X59250Y-44850D01*
X59250Y-45350D01*
X59383Y-45350D01*
X59589Y-45288D01*
X59757Y-45153D01*
X59860Y-44964D01*
X59866Y-44935D01*
X59866Y-47784D01*
X59150Y-47784D01*
X59150Y-45350D01*
X59150Y-44850D01*
X58582Y-44850D01*
X58533Y-44935D01*
X58539Y-44964D01*
X58642Y-45153D01*
X58810Y-45288D01*
X59017Y-45350D01*
X59150Y-45350D01*
X59150Y-47784D01*
X57168Y-47784D01*
X57168Y-47108D01*
X57168Y-47041D01*
X57168Y-46491D01*
X57142Y-46429D01*
X57095Y-46382D01*
X57033Y-46356D01*
X56966Y-46356D01*
X56616Y-46356D01*
X56554Y-46382D01*
X56507Y-46429D01*
X56481Y-46491D01*
X56481Y-46513D01*
X56418Y-46513D01*
X56418Y-46491D01*
X56392Y-46429D01*
X56345Y-46382D01*
X56283Y-46356D01*
X56216Y-46356D01*
X55866Y-46356D01*
X55804Y-46382D01*
X55757Y-46429D01*
X55744Y-46461D01*
X55711Y-46383D01*
X55641Y-46313D01*
X55549Y-46275D01*
X55437Y-46275D01*
X55375Y-46337D01*
X55375Y-46750D01*
X55382Y-46750D01*
X55382Y-46850D01*
X55375Y-46850D01*
X55375Y-46857D01*
X55275Y-46857D01*
X55275Y-46850D01*
X55275Y-46750D01*
X55275Y-46337D01*
X55212Y-46275D01*
X55100Y-46275D01*
X55008Y-46313D01*
X54938Y-46383D01*
X54900Y-46475D01*
X54900Y-46574D01*
X54900Y-46687D01*
X54962Y-46750D01*
X55275Y-46750D01*
X55275Y-46850D01*
X54962Y-46850D01*
X54900Y-46912D01*
X54900Y-47011D01*
X53575Y-47011D01*
X53575Y-46162D01*
X53575Y-45750D01*
X53575Y-45650D01*
X53575Y-45237D01*
X53512Y-45175D01*
X53400Y-45175D01*
X53308Y-45213D01*
X53238Y-45283D01*
X53234Y-45293D01*
X53234Y-45080D01*
X53234Y-44825D01*
X53234Y-44725D01*
X53234Y-44469D01*
X53171Y-44407D01*
X53136Y-44407D01*
X53037Y-44407D01*
X52945Y-44445D01*
X52875Y-44515D01*
X52837Y-44607D01*
X52837Y-44662D01*
X52899Y-44725D01*
X53234Y-44725D01*
X53234Y-44825D01*
X52899Y-44825D01*
X52837Y-44887D01*
X52837Y-44942D01*
X52875Y-45034D01*
X52945Y-45104D01*
X53037Y-45143D01*
X53136Y-45143D01*
X53171Y-45143D01*
X53234Y-45080D01*
X53234Y-45293D01*
X53200Y-45375D01*
X53200Y-45474D01*
X53200Y-45587D01*
X53262Y-45650D01*
X53575Y-45650D01*
X53575Y-45750D01*
X53262Y-45750D01*
X53200Y-45812D01*
X53200Y-45925D01*
X53200Y-46024D01*
X53238Y-46116D01*
X53308Y-46186D01*
X53400Y-46225D01*
X53512Y-46225D01*
X53575Y-46162D01*
X53575Y-47011D01*
X53415Y-47011D01*
X52601Y-46196D01*
X52601Y-45666D01*
X52575Y-45604D01*
X52528Y-45557D01*
X52466Y-45531D01*
X52399Y-45531D01*
X52244Y-45531D01*
X52389Y-45488D01*
X52557Y-45353D01*
X52660Y-45164D01*
X52666Y-45135D01*
X52617Y-45050D01*
X52050Y-45050D01*
X52050Y-45057D01*
X51950Y-45057D01*
X51950Y-45050D01*
X51382Y-45050D01*
X51333Y-45135D01*
X51339Y-45164D01*
X51442Y-45353D01*
X51610Y-45488D01*
X51755Y-45531D01*
X51533Y-45531D01*
X51471Y-45557D01*
X51424Y-45604D01*
X51398Y-45666D01*
X51398Y-45733D01*
X51398Y-46333D01*
X51424Y-46395D01*
X51471Y-46442D01*
X51533Y-46468D01*
X51600Y-46468D01*
X51755Y-46468D01*
X51610Y-46511D01*
X51442Y-46646D01*
X51339Y-46835D01*
X51333Y-46864D01*
X51382Y-46950D01*
X51950Y-46950D01*
X51950Y-46942D01*
X52050Y-46942D01*
X52050Y-46950D01*
X52057Y-46950D01*
X52057Y-47050D01*
X52050Y-47050D01*
X52050Y-47550D01*
X52183Y-47550D01*
X52389Y-47488D01*
X52557Y-47353D01*
X52660Y-47164D01*
X52666Y-47135D01*
X52617Y-47050D01*
X52645Y-47050D01*
X53095Y-47499D01*
X53095Y-47499D01*
X53187Y-47561D01*
X53297Y-47583D01*
X55833Y-47583D01*
X55833Y-47583D01*
X55833Y-47583D01*
X55924Y-47565D01*
X55942Y-47561D01*
X55942Y-47561D01*
X56035Y-47499D01*
X56202Y-47333D01*
X56249Y-47323D01*
X56267Y-47320D01*
X56267Y-47320D01*
X56360Y-47257D01*
X56490Y-47128D01*
X56507Y-47170D01*
X56554Y-47217D01*
X56616Y-47243D01*
X56683Y-47243D01*
X57033Y-47243D01*
X57095Y-47217D01*
X57142Y-47170D01*
X57168Y-47108D01*
X57168Y-47784D01*
X52666Y-47784D01*
X51950Y-47784D01*
X51950Y-47550D01*
X51950Y-47050D01*
X51382Y-47050D01*
X51333Y-47135D01*
X51339Y-47164D01*
X51442Y-47353D01*
X51610Y-47488D01*
X51817Y-47550D01*
X51950Y-47550D01*
X51950Y-47784D01*
X51034Y-47784D01*
X51034Y-40798D01*
X59989Y-40798D01*
X59989Y-47784D01*
M02*
