%FSLAX34Y34*%
G04 Gerber Fmt 3.4, Leading zero omitted, Abs format*
G04 (created by PCBNEW (2014-04-07 BZR 4791)-product) date Mon 14 Apr 2014 04:21:23 PM CEST*
%MOIN*%
G01*
G70*
G90*
G04 APERTURE LIST*
%ADD10C,0.005906*%
%ADD11R,0.060000X0.080000*%
%ADD12R,0.080000X0.068000*%
%ADD13O,0.080000X0.068000*%
%ADD14R,0.068000X0.068000*%
%ADD15O,0.068000X0.068000*%
%ADD16R,0.045000X0.025000*%
%ADD17C,0.126000*%
%ADD18C,0.010000*%
G04 APERTURE END LIST*
G54D10*
G54D11*
X61357Y-36417D03*
X62657Y-36417D03*
G54D12*
X62007Y-39779D03*
G54D13*
X62007Y-38779D03*
X62007Y-37779D03*
G54D14*
X62507Y-41232D03*
G54D15*
X62507Y-42232D03*
X61507Y-41232D03*
X61507Y-42232D03*
G54D16*
X61023Y-38292D03*
X61023Y-37692D03*
G54D17*
X62007Y-34645D03*
G54D18*
X62507Y-40279D02*
X62007Y-39779D01*
X62507Y-41232D02*
X62507Y-40279D01*
X61507Y-42232D02*
X62507Y-42232D01*
X63070Y-41811D02*
X63070Y-39212D01*
X62677Y-38818D02*
X62637Y-38779D01*
X63070Y-39212D02*
X62677Y-38818D01*
X62637Y-38779D02*
X62007Y-38779D01*
X62649Y-42232D02*
X63070Y-41811D01*
X62507Y-42232D02*
X62649Y-42232D01*
X62657Y-38799D02*
X62677Y-38818D01*
X62657Y-36417D02*
X62657Y-38799D01*
X61023Y-36751D02*
X61357Y-36417D01*
X61023Y-37692D02*
X61023Y-36751D01*
X61507Y-40877D02*
X61023Y-40393D01*
X61023Y-40393D02*
X61023Y-38292D01*
X61507Y-41232D02*
X61507Y-40877D01*
M02*
