G04 (created by PCBNEW (2013-mar-13)-testing) date Wed 13 Nov 2013 01:43:14 PM CET*
%MOIN*%
G04 Gerber Fmt 3.4, Leading zero omitted, Abs format*
%FSLAX34Y34*%
G01*
G70*
G90*
G04 APERTURE LIST*
%ADD10C,0.005906*%
%ADD11C,0.003937*%
G04 APERTURE END LIST*
G54D10*
G54D11*
X56496Y-32283D02*
X56692Y-32283D01*
X53740Y-35039D02*
X56496Y-32283D01*
X53740Y-40551D02*
X53740Y-35039D01*
X56496Y-43307D02*
X53740Y-40551D01*
X56692Y-43307D02*
X56496Y-43307D01*
X61614Y-43307D02*
X56692Y-43307D01*
X64370Y-40551D02*
X61614Y-43307D01*
X64370Y-35039D02*
X64370Y-40551D01*
X61614Y-32283D02*
X64370Y-35039D01*
X56496Y-32283D02*
X61614Y-32283D01*
X70078Y-32283D02*
X67322Y-35039D01*
X75196Y-32283D02*
X70078Y-32283D01*
X77952Y-35039D02*
X75196Y-32283D01*
X77952Y-40551D02*
X77952Y-35039D01*
X75196Y-43307D02*
X77952Y-40551D01*
X70078Y-43307D02*
X75196Y-43307D01*
X67322Y-40551D02*
X70078Y-43307D01*
X67322Y-35039D02*
X67322Y-40551D01*
X80354Y-41692D02*
X80354Y-40708D01*
X81535Y-42874D02*
X80354Y-41692D01*
X83503Y-42874D02*
X81535Y-42874D01*
X84685Y-41692D02*
X83503Y-42874D01*
X84685Y-40708D02*
X84685Y-41692D01*
X84685Y-39724D02*
X84685Y-40708D01*
X83503Y-38543D02*
X84685Y-39724D01*
X81535Y-38543D02*
X83503Y-38543D01*
X80354Y-39724D02*
X81535Y-38543D01*
X80354Y-40708D02*
X80354Y-39724D01*
X80236Y-35905D02*
X80236Y-34921D01*
X81417Y-37086D02*
X80236Y-35905D01*
X83385Y-37086D02*
X81417Y-37086D01*
X84566Y-35905D02*
X83385Y-37086D01*
X84566Y-34921D02*
X84566Y-35905D01*
X84566Y-33937D02*
X84566Y-34921D01*
X83385Y-32755D02*
X84566Y-33937D01*
X81417Y-32755D02*
X83385Y-32755D01*
X80236Y-33937D02*
X81417Y-32755D01*
X80236Y-34921D02*
X80236Y-33937D01*
M02*
