G04 (created by PCBNEW (2011-nov-30)-testing) date Sat 18 Aug 2012 12:14:42 PM CEST*
%MOIN*%
G04 Gerber Fmt 3.4, Leading zero omitted, Abs format*
%FSLAX34Y34*%
G01*
G70*
G90*
G04 APERTURE LIST*
%ADD10C,0.001*%
%ADD11C,0.015*%
%ADD12C,0.005*%
G04 APERTURE END LIST*
G54D10*
G54D11*
X42126Y-27559D02*
X26378Y-27559D01*
X26378Y-19685D02*
X42126Y-19685D01*
X26378Y-19685D02*
X26378Y-27559D01*
X42126Y-27559D02*
X42126Y-19685D01*
G54D10*
X29533Y-25747D02*
X29769Y-25983D01*
X29769Y-25747D02*
X29533Y-25983D01*
X31288Y-26612D02*
X31524Y-26848D01*
X31524Y-26612D02*
X31288Y-26848D01*
X33190Y-24142D02*
X33426Y-24378D01*
X33426Y-24142D02*
X33190Y-24378D01*
X33320Y-26234D02*
X33556Y-26470D01*
X33556Y-26234D02*
X33320Y-26470D01*
X36593Y-26672D02*
X36829Y-26908D01*
X36829Y-26672D02*
X36593Y-26908D01*
X40938Y-20056D02*
X41174Y-20292D01*
X41174Y-20056D02*
X40938Y-20292D01*
X27284Y-20177D02*
G75*
G03X27284Y-20177I-197J0D01*
G74*
G01*
X27284Y-21177D02*
G75*
G03X27284Y-21177I-197J0D01*
G74*
G01*
X27284Y-22177D02*
G75*
G03X27284Y-22177I-197J0D01*
G74*
G01*
X27284Y-23177D02*
G75*
G03X27284Y-23177I-197J0D01*
G74*
G01*
X27284Y-24177D02*
G75*
G03X27284Y-24177I-197J0D01*
G74*
G01*
X27284Y-25177D02*
G75*
G03X27284Y-25177I-197J0D01*
G74*
G01*
X29106Y-26890D02*
G75*
G03X29106Y-26890I-197J0D01*
G74*
G01*
X30106Y-26890D02*
G75*
G03X30106Y-26890I-197J0D01*
G74*
G01*
X32571Y-20276D02*
G75*
G03X32571Y-20276I-197J0D01*
G74*
G01*
X33571Y-20276D02*
G75*
G03X33571Y-20276I-197J0D01*
G74*
G01*
X38870Y-27008D02*
G75*
G03X38870Y-27008I-197J0D01*
G74*
G01*
X39870Y-27008D02*
G75*
G03X39870Y-27008I-197J0D01*
G74*
G01*
X29134Y-21477D02*
X29134Y-21909D01*
X28918Y-21693D02*
X29350Y-21693D01*
X29134Y-23445D02*
X29134Y-23877D01*
X28918Y-23661D02*
X29350Y-23661D01*
X30708Y-21477D02*
X30708Y-21909D01*
X30492Y-21693D02*
X30924Y-21693D01*
X30708Y-23445D02*
X30708Y-23877D01*
X30492Y-23661D02*
X30924Y-23661D01*
G54D12*
X22021Y-30575D02*
X22021Y-30075D01*
X22140Y-30075D01*
X22212Y-30099D01*
X22259Y-30147D01*
X22283Y-30194D01*
X22307Y-30290D01*
X22307Y-30361D01*
X22283Y-30456D01*
X22259Y-30504D01*
X22212Y-30552D01*
X22140Y-30575D01*
X22021Y-30575D01*
X22521Y-30575D02*
X22521Y-30242D01*
X22521Y-30337D02*
X22545Y-30290D01*
X22569Y-30266D01*
X22616Y-30242D01*
X22664Y-30242D01*
X22831Y-30575D02*
X22831Y-30242D01*
X22831Y-30075D02*
X22807Y-30099D01*
X22831Y-30123D01*
X22855Y-30099D01*
X22831Y-30075D01*
X22831Y-30123D01*
X23140Y-30575D02*
X23093Y-30552D01*
X23069Y-30504D01*
X23069Y-30075D01*
X23402Y-30575D02*
X23355Y-30552D01*
X23331Y-30504D01*
X23331Y-30075D01*
X23974Y-30575D02*
X23974Y-30075D01*
X24141Y-30433D01*
X24307Y-30075D01*
X24307Y-30575D01*
X24759Y-30575D02*
X24759Y-30313D01*
X24736Y-30266D01*
X24688Y-30242D01*
X24593Y-30242D01*
X24545Y-30266D01*
X24759Y-30552D02*
X24712Y-30575D01*
X24593Y-30575D01*
X24545Y-30552D01*
X24521Y-30504D01*
X24521Y-30456D01*
X24545Y-30409D01*
X24593Y-30385D01*
X24712Y-30385D01*
X24759Y-30361D01*
X24997Y-30242D02*
X24997Y-30742D01*
X24997Y-30266D02*
X25045Y-30242D01*
X25140Y-30242D01*
X25188Y-30266D01*
X25211Y-30290D01*
X25235Y-30337D01*
X25235Y-30480D01*
X25211Y-30528D01*
X25188Y-30552D01*
X25140Y-30575D01*
X25045Y-30575D01*
X24997Y-30552D01*
X25449Y-30528D02*
X25473Y-30552D01*
X25449Y-30575D01*
X25425Y-30552D01*
X25449Y-30528D01*
X25449Y-30575D01*
X25449Y-30266D02*
X25473Y-30290D01*
X25449Y-30313D01*
X25425Y-30290D01*
X25449Y-30266D01*
X25449Y-30313D01*
X21466Y-31305D02*
X21702Y-31541D01*
X21702Y-31305D02*
X21466Y-31541D01*
X22116Y-31125D02*
X22164Y-31125D01*
X22212Y-31149D01*
X22235Y-31173D01*
X22259Y-31221D01*
X22283Y-31316D01*
X22283Y-31435D01*
X22259Y-31530D01*
X22235Y-31578D01*
X22212Y-31602D01*
X22164Y-31625D01*
X22116Y-31625D01*
X22069Y-31602D01*
X22045Y-31578D01*
X22021Y-31530D01*
X21997Y-31435D01*
X21997Y-31316D01*
X22021Y-31221D01*
X22045Y-31173D01*
X22069Y-31149D01*
X22116Y-31125D01*
X22497Y-31578D02*
X22521Y-31602D01*
X22497Y-31625D01*
X22473Y-31602D01*
X22497Y-31578D01*
X22497Y-31625D01*
X22830Y-31125D02*
X22878Y-31125D01*
X22926Y-31149D01*
X22949Y-31173D01*
X22973Y-31221D01*
X22997Y-31316D01*
X22997Y-31435D01*
X22973Y-31530D01*
X22949Y-31578D01*
X22926Y-31602D01*
X22878Y-31625D01*
X22830Y-31625D01*
X22783Y-31602D01*
X22759Y-31578D01*
X22735Y-31530D01*
X22711Y-31435D01*
X22711Y-31316D01*
X22735Y-31221D01*
X22759Y-31173D01*
X22783Y-31149D01*
X22830Y-31125D01*
X23187Y-31173D02*
X23211Y-31149D01*
X23259Y-31125D01*
X23378Y-31125D01*
X23425Y-31149D01*
X23449Y-31173D01*
X23473Y-31221D01*
X23473Y-31268D01*
X23449Y-31340D01*
X23163Y-31625D01*
X23473Y-31625D01*
X23901Y-31292D02*
X23901Y-31625D01*
X23782Y-31102D02*
X23663Y-31459D01*
X23973Y-31459D01*
X24139Y-31125D02*
X24139Y-31221D01*
X24330Y-31125D02*
X24330Y-31221D01*
X25282Y-31102D02*
X24854Y-31744D01*
X25925Y-31125D02*
X25973Y-31125D01*
X26021Y-31149D01*
X26044Y-31173D01*
X26068Y-31221D01*
X26092Y-31316D01*
X26092Y-31435D01*
X26068Y-31530D01*
X26044Y-31578D01*
X26021Y-31602D01*
X25973Y-31625D01*
X25925Y-31625D01*
X25878Y-31602D01*
X25854Y-31578D01*
X25830Y-31530D01*
X25806Y-31435D01*
X25806Y-31316D01*
X25830Y-31221D01*
X25854Y-31173D01*
X25878Y-31149D01*
X25925Y-31125D01*
X26306Y-31578D02*
X26330Y-31602D01*
X26306Y-31625D01*
X26282Y-31602D01*
X26306Y-31578D01*
X26306Y-31625D01*
X26758Y-31125D02*
X26663Y-31125D01*
X26615Y-31149D01*
X26592Y-31173D01*
X26544Y-31244D01*
X26520Y-31340D01*
X26520Y-31530D01*
X26544Y-31578D01*
X26568Y-31602D01*
X26615Y-31625D01*
X26711Y-31625D01*
X26758Y-31602D01*
X26782Y-31578D01*
X26806Y-31530D01*
X26806Y-31411D01*
X26782Y-31363D01*
X26758Y-31340D01*
X26711Y-31316D01*
X26615Y-31316D01*
X26568Y-31340D01*
X26544Y-31363D01*
X26520Y-31411D01*
X27115Y-31125D02*
X27163Y-31125D01*
X27211Y-31149D01*
X27234Y-31173D01*
X27258Y-31221D01*
X27282Y-31316D01*
X27282Y-31435D01*
X27258Y-31530D01*
X27234Y-31578D01*
X27211Y-31602D01*
X27163Y-31625D01*
X27115Y-31625D01*
X27068Y-31602D01*
X27044Y-31578D01*
X27020Y-31530D01*
X26996Y-31435D01*
X26996Y-31316D01*
X27020Y-31221D01*
X27044Y-31173D01*
X27068Y-31149D01*
X27115Y-31125D01*
X27496Y-31625D02*
X27496Y-31292D01*
X27496Y-31340D02*
X27520Y-31316D01*
X27567Y-31292D01*
X27639Y-31292D01*
X27687Y-31316D01*
X27710Y-31363D01*
X27710Y-31625D01*
X27710Y-31363D02*
X27734Y-31316D01*
X27782Y-31292D01*
X27853Y-31292D01*
X27901Y-31316D01*
X27925Y-31363D01*
X27925Y-31625D01*
X28163Y-31625D02*
X28163Y-31292D01*
X28163Y-31340D02*
X28187Y-31316D01*
X28234Y-31292D01*
X28306Y-31292D01*
X28354Y-31316D01*
X28377Y-31363D01*
X28377Y-31625D01*
X28377Y-31363D02*
X28401Y-31316D01*
X28449Y-31292D01*
X28520Y-31292D01*
X28568Y-31316D01*
X28592Y-31363D01*
X28592Y-31625D01*
X29354Y-31816D02*
X29330Y-31792D01*
X29282Y-31721D01*
X29259Y-31673D01*
X29235Y-31602D01*
X29211Y-31483D01*
X29211Y-31387D01*
X29235Y-31268D01*
X29259Y-31197D01*
X29282Y-31149D01*
X29330Y-31078D01*
X29354Y-31054D01*
X29758Y-31125D02*
X29663Y-31125D01*
X29615Y-31149D01*
X29592Y-31173D01*
X29544Y-31244D01*
X29520Y-31340D01*
X29520Y-31530D01*
X29544Y-31578D01*
X29568Y-31602D01*
X29615Y-31625D01*
X29711Y-31625D01*
X29758Y-31602D01*
X29782Y-31578D01*
X29806Y-31530D01*
X29806Y-31411D01*
X29782Y-31363D01*
X29758Y-31340D01*
X29711Y-31316D01*
X29615Y-31316D01*
X29568Y-31340D01*
X29544Y-31363D01*
X29520Y-31411D01*
X30401Y-31625D02*
X30401Y-31125D01*
X30615Y-31625D02*
X30615Y-31363D01*
X30592Y-31316D01*
X30544Y-31292D01*
X30472Y-31292D01*
X30425Y-31316D01*
X30401Y-31340D01*
X30924Y-31625D02*
X30877Y-31602D01*
X30853Y-31578D01*
X30829Y-31530D01*
X30829Y-31387D01*
X30853Y-31340D01*
X30877Y-31316D01*
X30924Y-31292D01*
X30996Y-31292D01*
X31044Y-31316D01*
X31067Y-31340D01*
X31091Y-31387D01*
X31091Y-31530D01*
X31067Y-31578D01*
X31044Y-31602D01*
X30996Y-31625D01*
X30924Y-31625D01*
X31376Y-31625D02*
X31329Y-31602D01*
X31305Y-31554D01*
X31305Y-31125D01*
X31758Y-31602D02*
X31710Y-31625D01*
X31615Y-31625D01*
X31567Y-31602D01*
X31543Y-31554D01*
X31543Y-31363D01*
X31567Y-31316D01*
X31615Y-31292D01*
X31710Y-31292D01*
X31758Y-31316D01*
X31781Y-31363D01*
X31781Y-31411D01*
X31543Y-31459D01*
X31972Y-31602D02*
X32020Y-31625D01*
X32115Y-31625D01*
X32163Y-31602D01*
X32187Y-31554D01*
X32187Y-31530D01*
X32163Y-31483D01*
X32115Y-31459D01*
X32044Y-31459D01*
X31996Y-31435D01*
X31972Y-31387D01*
X31972Y-31363D01*
X31996Y-31316D01*
X32044Y-31292D01*
X32115Y-31292D01*
X32163Y-31316D01*
X32353Y-31816D02*
X32377Y-31792D01*
X32425Y-31721D01*
X32449Y-31673D01*
X32472Y-31602D01*
X32496Y-31483D01*
X32496Y-31387D01*
X32472Y-31268D01*
X32449Y-31197D01*
X32425Y-31149D01*
X32377Y-31078D01*
X32353Y-31054D01*
G54D10*
X21702Y-32083D02*
G75*
G03X21702Y-32083I-197J0D01*
G74*
G01*
G54D12*
X22116Y-31785D02*
X22164Y-31785D01*
X22212Y-31809D01*
X22235Y-31833D01*
X22259Y-31881D01*
X22283Y-31976D01*
X22283Y-32095D01*
X22259Y-32190D01*
X22235Y-32238D01*
X22212Y-32262D01*
X22164Y-32285D01*
X22116Y-32285D01*
X22069Y-32262D01*
X22045Y-32238D01*
X22021Y-32190D01*
X21997Y-32095D01*
X21997Y-31976D01*
X22021Y-31881D01*
X22045Y-31833D01*
X22069Y-31809D01*
X22116Y-31785D01*
X22497Y-32238D02*
X22521Y-32262D01*
X22497Y-32285D01*
X22473Y-32262D01*
X22497Y-32238D01*
X22497Y-32285D01*
X22830Y-31785D02*
X22878Y-31785D01*
X22926Y-31809D01*
X22949Y-31833D01*
X22973Y-31881D01*
X22997Y-31976D01*
X22997Y-32095D01*
X22973Y-32190D01*
X22949Y-32238D01*
X22926Y-32262D01*
X22878Y-32285D01*
X22830Y-32285D01*
X22783Y-32262D01*
X22759Y-32238D01*
X22735Y-32190D01*
X22711Y-32095D01*
X22711Y-31976D01*
X22735Y-31881D01*
X22759Y-31833D01*
X22783Y-31809D01*
X22830Y-31785D01*
X23163Y-31785D02*
X23473Y-31785D01*
X23306Y-31976D01*
X23378Y-31976D01*
X23425Y-32000D01*
X23449Y-32023D01*
X23473Y-32071D01*
X23473Y-32190D01*
X23449Y-32238D01*
X23425Y-32262D01*
X23378Y-32285D01*
X23235Y-32285D01*
X23187Y-32262D01*
X23163Y-32238D01*
X23711Y-32285D02*
X23806Y-32285D01*
X23854Y-32262D01*
X23878Y-32238D01*
X23925Y-32166D01*
X23949Y-32071D01*
X23949Y-31881D01*
X23925Y-31833D01*
X23901Y-31809D01*
X23854Y-31785D01*
X23758Y-31785D01*
X23711Y-31809D01*
X23687Y-31833D01*
X23663Y-31881D01*
X23663Y-32000D01*
X23687Y-32047D01*
X23711Y-32071D01*
X23758Y-32095D01*
X23854Y-32095D01*
X23901Y-32071D01*
X23925Y-32047D01*
X23949Y-32000D01*
X24139Y-31785D02*
X24139Y-31881D01*
X24330Y-31785D02*
X24330Y-31881D01*
X25282Y-31762D02*
X24854Y-32404D01*
X26092Y-32285D02*
X25806Y-32285D01*
X25949Y-32285D02*
X25949Y-31785D01*
X25901Y-31857D01*
X25854Y-31904D01*
X25806Y-31928D01*
X26306Y-32238D02*
X26330Y-32262D01*
X26306Y-32285D01*
X26282Y-32262D01*
X26306Y-32238D01*
X26306Y-32285D01*
X26639Y-31785D02*
X26687Y-31785D01*
X26735Y-31809D01*
X26758Y-31833D01*
X26782Y-31881D01*
X26806Y-31976D01*
X26806Y-32095D01*
X26782Y-32190D01*
X26758Y-32238D01*
X26735Y-32262D01*
X26687Y-32285D01*
X26639Y-32285D01*
X26592Y-32262D01*
X26568Y-32238D01*
X26544Y-32190D01*
X26520Y-32095D01*
X26520Y-31976D01*
X26544Y-31881D01*
X26568Y-31833D01*
X26592Y-31809D01*
X26639Y-31785D01*
X27115Y-31785D02*
X27163Y-31785D01*
X27211Y-31809D01*
X27234Y-31833D01*
X27258Y-31881D01*
X27282Y-31976D01*
X27282Y-32095D01*
X27258Y-32190D01*
X27234Y-32238D01*
X27211Y-32262D01*
X27163Y-32285D01*
X27115Y-32285D01*
X27068Y-32262D01*
X27044Y-32238D01*
X27020Y-32190D01*
X26996Y-32095D01*
X26996Y-31976D01*
X27020Y-31881D01*
X27044Y-31833D01*
X27068Y-31809D01*
X27115Y-31785D01*
X27496Y-32285D02*
X27496Y-31952D01*
X27496Y-32000D02*
X27520Y-31976D01*
X27567Y-31952D01*
X27639Y-31952D01*
X27687Y-31976D01*
X27710Y-32023D01*
X27710Y-32285D01*
X27710Y-32023D02*
X27734Y-31976D01*
X27782Y-31952D01*
X27853Y-31952D01*
X27901Y-31976D01*
X27925Y-32023D01*
X27925Y-32285D01*
X28163Y-32285D02*
X28163Y-31952D01*
X28163Y-32000D02*
X28187Y-31976D01*
X28234Y-31952D01*
X28306Y-31952D01*
X28354Y-31976D01*
X28377Y-32023D01*
X28377Y-32285D01*
X28377Y-32023D02*
X28401Y-31976D01*
X28449Y-31952D01*
X28520Y-31952D01*
X28568Y-31976D01*
X28592Y-32023D01*
X28592Y-32285D01*
X29354Y-32476D02*
X29330Y-32452D01*
X29282Y-32381D01*
X29259Y-32333D01*
X29235Y-32262D01*
X29211Y-32143D01*
X29211Y-32047D01*
X29235Y-31928D01*
X29259Y-31857D01*
X29282Y-31809D01*
X29330Y-31738D01*
X29354Y-31714D01*
X29806Y-32285D02*
X29520Y-32285D01*
X29663Y-32285D02*
X29663Y-31785D01*
X29615Y-31857D01*
X29568Y-31904D01*
X29520Y-31928D01*
X29996Y-31833D02*
X30020Y-31809D01*
X30068Y-31785D01*
X30187Y-31785D01*
X30234Y-31809D01*
X30258Y-31833D01*
X30282Y-31881D01*
X30282Y-31928D01*
X30258Y-32000D01*
X29972Y-32285D01*
X30282Y-32285D01*
X30877Y-32285D02*
X30877Y-31785D01*
X31091Y-32285D02*
X31091Y-32023D01*
X31068Y-31976D01*
X31020Y-31952D01*
X30948Y-31952D01*
X30901Y-31976D01*
X30877Y-32000D01*
X31400Y-32285D02*
X31353Y-32262D01*
X31329Y-32238D01*
X31305Y-32190D01*
X31305Y-32047D01*
X31329Y-32000D01*
X31353Y-31976D01*
X31400Y-31952D01*
X31472Y-31952D01*
X31520Y-31976D01*
X31543Y-32000D01*
X31567Y-32047D01*
X31567Y-32190D01*
X31543Y-32238D01*
X31520Y-32262D01*
X31472Y-32285D01*
X31400Y-32285D01*
X31852Y-32285D02*
X31805Y-32262D01*
X31781Y-32214D01*
X31781Y-31785D01*
X32234Y-32262D02*
X32186Y-32285D01*
X32091Y-32285D01*
X32043Y-32262D01*
X32019Y-32214D01*
X32019Y-32023D01*
X32043Y-31976D01*
X32091Y-31952D01*
X32186Y-31952D01*
X32234Y-31976D01*
X32257Y-32023D01*
X32257Y-32071D01*
X32019Y-32119D01*
X32448Y-32262D02*
X32496Y-32285D01*
X32591Y-32285D01*
X32639Y-32262D01*
X32663Y-32214D01*
X32663Y-32190D01*
X32639Y-32143D01*
X32591Y-32119D01*
X32520Y-32119D01*
X32472Y-32095D01*
X32448Y-32047D01*
X32448Y-32023D01*
X32472Y-31976D01*
X32520Y-31952D01*
X32591Y-31952D01*
X32639Y-31976D01*
X32829Y-32476D02*
X32853Y-32452D01*
X32901Y-32381D01*
X32925Y-32333D01*
X32948Y-32262D01*
X32972Y-32143D01*
X32972Y-32047D01*
X32948Y-31928D01*
X32925Y-31857D01*
X32901Y-31809D01*
X32853Y-31738D01*
X32829Y-31714D01*
X21485Y-32527D02*
X21485Y-32959D01*
X21269Y-32743D02*
X21701Y-32743D01*
X22116Y-32445D02*
X22164Y-32445D01*
X22212Y-32469D01*
X22235Y-32493D01*
X22259Y-32541D01*
X22283Y-32636D01*
X22283Y-32755D01*
X22259Y-32850D01*
X22235Y-32898D01*
X22212Y-32922D01*
X22164Y-32945D01*
X22116Y-32945D01*
X22069Y-32922D01*
X22045Y-32898D01*
X22021Y-32850D01*
X21997Y-32755D01*
X21997Y-32636D01*
X22021Y-32541D01*
X22045Y-32493D01*
X22069Y-32469D01*
X22116Y-32445D01*
X22497Y-32898D02*
X22521Y-32922D01*
X22497Y-32945D01*
X22473Y-32922D01*
X22497Y-32898D01*
X22497Y-32945D01*
X22830Y-32445D02*
X22878Y-32445D01*
X22926Y-32469D01*
X22949Y-32493D01*
X22973Y-32541D01*
X22997Y-32636D01*
X22997Y-32755D01*
X22973Y-32850D01*
X22949Y-32898D01*
X22926Y-32922D01*
X22878Y-32945D01*
X22830Y-32945D01*
X22783Y-32922D01*
X22759Y-32898D01*
X22735Y-32850D01*
X22711Y-32755D01*
X22711Y-32636D01*
X22735Y-32541D01*
X22759Y-32493D01*
X22783Y-32469D01*
X22830Y-32445D01*
X23425Y-32612D02*
X23425Y-32945D01*
X23306Y-32422D02*
X23187Y-32779D01*
X23497Y-32779D01*
X23639Y-32445D02*
X23949Y-32445D01*
X23782Y-32636D01*
X23854Y-32636D01*
X23901Y-32660D01*
X23925Y-32683D01*
X23949Y-32731D01*
X23949Y-32850D01*
X23925Y-32898D01*
X23901Y-32922D01*
X23854Y-32945D01*
X23711Y-32945D01*
X23663Y-32922D01*
X23639Y-32898D01*
X24139Y-32445D02*
X24139Y-32541D01*
X24330Y-32445D02*
X24330Y-32541D01*
X25282Y-32422D02*
X24854Y-33064D01*
X26092Y-32945D02*
X25806Y-32945D01*
X25949Y-32945D02*
X25949Y-32445D01*
X25901Y-32517D01*
X25854Y-32564D01*
X25806Y-32588D01*
X26306Y-32898D02*
X26330Y-32922D01*
X26306Y-32945D01*
X26282Y-32922D01*
X26306Y-32898D01*
X26306Y-32945D01*
X26806Y-32945D02*
X26520Y-32945D01*
X26663Y-32945D02*
X26663Y-32445D01*
X26615Y-32517D01*
X26568Y-32564D01*
X26520Y-32588D01*
X27115Y-32445D02*
X27163Y-32445D01*
X27211Y-32469D01*
X27234Y-32493D01*
X27258Y-32541D01*
X27282Y-32636D01*
X27282Y-32755D01*
X27258Y-32850D01*
X27234Y-32898D01*
X27211Y-32922D01*
X27163Y-32945D01*
X27115Y-32945D01*
X27068Y-32922D01*
X27044Y-32898D01*
X27020Y-32850D01*
X26996Y-32755D01*
X26996Y-32636D01*
X27020Y-32541D01*
X27044Y-32493D01*
X27068Y-32469D01*
X27115Y-32445D01*
X27496Y-32945D02*
X27496Y-32612D01*
X27496Y-32660D02*
X27520Y-32636D01*
X27567Y-32612D01*
X27639Y-32612D01*
X27687Y-32636D01*
X27710Y-32683D01*
X27710Y-32945D01*
X27710Y-32683D02*
X27734Y-32636D01*
X27782Y-32612D01*
X27853Y-32612D01*
X27901Y-32636D01*
X27925Y-32683D01*
X27925Y-32945D01*
X28163Y-32945D02*
X28163Y-32612D01*
X28163Y-32660D02*
X28187Y-32636D01*
X28234Y-32612D01*
X28306Y-32612D01*
X28354Y-32636D01*
X28377Y-32683D01*
X28377Y-32945D01*
X28377Y-32683D02*
X28401Y-32636D01*
X28449Y-32612D01*
X28520Y-32612D01*
X28568Y-32636D01*
X28592Y-32683D01*
X28592Y-32945D01*
X29354Y-33136D02*
X29330Y-33112D01*
X29282Y-33041D01*
X29259Y-32993D01*
X29235Y-32922D01*
X29211Y-32803D01*
X29211Y-32707D01*
X29235Y-32588D01*
X29259Y-32517D01*
X29282Y-32469D01*
X29330Y-32398D01*
X29354Y-32374D01*
X29758Y-32612D02*
X29758Y-32945D01*
X29639Y-32422D02*
X29520Y-32779D01*
X29830Y-32779D01*
X30401Y-32945D02*
X30401Y-32445D01*
X30615Y-32945D02*
X30615Y-32683D01*
X30592Y-32636D01*
X30544Y-32612D01*
X30472Y-32612D01*
X30425Y-32636D01*
X30401Y-32660D01*
X30924Y-32945D02*
X30877Y-32922D01*
X30853Y-32898D01*
X30829Y-32850D01*
X30829Y-32707D01*
X30853Y-32660D01*
X30877Y-32636D01*
X30924Y-32612D01*
X30996Y-32612D01*
X31044Y-32636D01*
X31067Y-32660D01*
X31091Y-32707D01*
X31091Y-32850D01*
X31067Y-32898D01*
X31044Y-32922D01*
X30996Y-32945D01*
X30924Y-32945D01*
X31376Y-32945D02*
X31329Y-32922D01*
X31305Y-32874D01*
X31305Y-32445D01*
X31758Y-32922D02*
X31710Y-32945D01*
X31615Y-32945D01*
X31567Y-32922D01*
X31543Y-32874D01*
X31543Y-32683D01*
X31567Y-32636D01*
X31615Y-32612D01*
X31710Y-32612D01*
X31758Y-32636D01*
X31781Y-32683D01*
X31781Y-32731D01*
X31543Y-32779D01*
X31972Y-32922D02*
X32020Y-32945D01*
X32115Y-32945D01*
X32163Y-32922D01*
X32187Y-32874D01*
X32187Y-32850D01*
X32163Y-32803D01*
X32115Y-32779D01*
X32044Y-32779D01*
X31996Y-32755D01*
X31972Y-32707D01*
X31972Y-32683D01*
X31996Y-32636D01*
X32044Y-32612D01*
X32115Y-32612D01*
X32163Y-32636D01*
X32353Y-33136D02*
X32377Y-33112D01*
X32425Y-33041D01*
X32449Y-32993D01*
X32472Y-32922D01*
X32496Y-32803D01*
X32496Y-32707D01*
X32472Y-32588D01*
X32449Y-32517D01*
X32425Y-32469D01*
X32377Y-32398D01*
X32353Y-32374D01*
M02*
