G04 (created by PCBNEW-RS274X (2011-nov-30)-testing) date Sat 18 Aug 2012 12:14:24 PM CEST*
%MOIN*%
G04 Gerber Fmt 3.4, Leading zero omitted, Abs format*
%FSLAX34Y34*%
G01*
G70*
G90*
G04 APERTURE LIST*
%ADD10C,0.006*%
%ADD11R,0.025X0.045*%
%ADD12R,0.045X0.025*%
%ADD13R,0.06X0.0866*%
%ADD14O,0.06X0.0866*%
%ADD15R,0.0709X0.0629*%
%ADD16R,0.0314X0.0886*%
%ADD17R,0.0886X0.0314*%
%ADD18R,0.0354X0.0708*%
%ADD19R,0.0354X0.0707*%
%ADD20R,0.0866X0.06*%
%ADD21O,0.0866X0.06*%
%ADD22C,0.0669*%
%ADD23C,0.063*%
%ADD24C,0.0098*%
%ADD25C,0.0118*%
%ADD26C,0.01*%
G04 APERTURE END LIST*
G54D10*
G54D11*
X35930Y-20039D03*
X35330Y-20039D03*
G54D12*
X27953Y-26472D03*
X27953Y-27072D03*
G54D11*
X37259Y-27008D03*
X37859Y-27008D03*
G54D13*
X32374Y-20276D03*
G54D14*
X33374Y-20276D03*
G54D15*
X27126Y-25976D03*
X27126Y-27094D03*
G54D16*
X40079Y-20866D03*
X39606Y-20866D03*
X39134Y-20866D03*
X38661Y-20866D03*
X38189Y-20866D03*
X37717Y-20866D03*
X37244Y-20866D03*
X36772Y-20866D03*
X36299Y-20866D03*
X35827Y-20866D03*
X35354Y-20866D03*
X35354Y-25905D03*
X35827Y-25905D03*
X36299Y-25905D03*
X36772Y-25905D03*
X37244Y-25905D03*
X37717Y-25905D03*
X38189Y-25905D03*
X38661Y-25905D03*
X39134Y-25905D03*
X39606Y-25905D03*
X40079Y-25905D03*
X40551Y-25905D03*
X40551Y-20866D03*
G54D17*
X34370Y-21772D03*
X34370Y-22165D03*
X34370Y-22677D03*
X34370Y-23150D03*
X34370Y-23622D03*
X34370Y-24094D03*
X34370Y-24606D03*
X34370Y-25000D03*
G54D18*
X34409Y-21063D03*
G54D19*
X42007Y-21063D03*
X42008Y-25709D03*
X34409Y-25709D03*
G54D20*
X27087Y-20177D03*
G54D21*
X27087Y-21177D03*
X27087Y-22177D03*
X27087Y-23177D03*
X27087Y-24177D03*
X27087Y-25177D03*
G54D13*
X38673Y-27008D03*
G54D14*
X39673Y-27008D03*
G54D22*
X29134Y-21693D03*
X30708Y-21693D03*
X29134Y-23661D03*
X30708Y-23661D03*
G54D13*
X28909Y-26890D03*
G54D14*
X29909Y-26890D03*
G54D23*
X33308Y-24260D03*
X29651Y-25865D03*
X33438Y-26352D03*
X31406Y-26730D03*
X36711Y-26790D03*
X41056Y-20174D03*
G54D24*
X32444Y-24260D02*
X33308Y-24260D01*
X28361Y-20177D02*
X32444Y-24260D01*
X27087Y-20177D02*
X28361Y-20177D01*
G54D25*
X40551Y-20866D02*
X40551Y-21441D01*
X35354Y-21441D02*
X40551Y-21441D01*
X34370Y-24606D02*
X34945Y-24606D01*
X34370Y-24606D02*
X33795Y-24606D01*
X30708Y-23661D02*
X31551Y-24503D01*
X32103Y-24503D02*
X31551Y-24503D01*
X32310Y-24710D02*
X32103Y-24503D01*
X33691Y-24710D02*
X32310Y-24710D01*
X33795Y-24606D02*
X33691Y-24710D01*
X28909Y-26890D02*
X29341Y-26890D01*
X34945Y-24606D02*
X34945Y-22165D01*
X34370Y-22165D02*
X34945Y-22165D01*
X34945Y-21850D02*
X34945Y-22165D01*
X35354Y-21441D02*
X34945Y-21850D01*
X30286Y-25768D02*
X31551Y-24503D01*
X30286Y-25862D02*
X30286Y-25768D01*
X29836Y-26312D02*
X30286Y-25862D01*
X29742Y-26312D02*
X29836Y-26312D01*
X29341Y-26713D02*
X29742Y-26312D01*
X29341Y-26890D02*
X29341Y-26713D01*
X35330Y-20039D02*
X35073Y-20039D01*
X35354Y-21441D02*
X35354Y-20866D01*
X35227Y-20291D02*
X35024Y-20088D01*
X35354Y-20291D02*
X35227Y-20291D01*
X34836Y-20276D02*
X35024Y-20088D01*
X33374Y-20276D02*
X34836Y-20276D01*
X35024Y-20088D02*
X35073Y-20039D01*
X35354Y-20866D02*
X35354Y-20291D01*
G54D24*
X36299Y-25340D02*
X36772Y-25340D01*
X36299Y-25905D02*
X36299Y-25340D01*
X36772Y-25905D02*
X36772Y-25340D01*
X39606Y-26386D02*
X39606Y-25905D01*
X39673Y-26453D02*
X39606Y-26386D01*
X39673Y-27008D02*
X39673Y-26453D01*
X27603Y-27075D02*
X27606Y-27072D01*
X27603Y-27094D02*
X27603Y-27075D01*
X27953Y-27072D02*
X27606Y-27072D01*
X27126Y-27094D02*
X27603Y-27094D01*
X29134Y-21693D02*
X29134Y-23661D01*
X28313Y-25865D02*
X27953Y-26225D01*
X29651Y-25865D02*
X28313Y-25865D01*
X27953Y-26472D02*
X27953Y-26225D01*
X35354Y-25905D02*
X35354Y-26470D01*
X33556Y-26470D02*
X33438Y-26352D01*
X35354Y-26470D02*
X33556Y-26470D01*
X31466Y-26790D02*
X31406Y-26730D01*
X35623Y-26790D02*
X31466Y-26790D01*
X35827Y-26586D02*
X35623Y-26790D01*
X35827Y-25905D02*
X35827Y-26586D01*
X38673Y-27008D02*
X37859Y-27008D01*
G54D25*
X37259Y-27008D02*
X37002Y-27008D01*
X36784Y-26790D02*
X37002Y-27008D01*
X36711Y-26790D02*
X36784Y-26790D01*
X35930Y-20039D02*
X35930Y-20211D01*
X27653Y-25449D02*
X27126Y-25976D01*
X27653Y-21743D02*
X27653Y-25449D01*
X27519Y-21609D02*
X27653Y-21743D01*
X27087Y-21609D02*
X27519Y-21609D01*
X27087Y-21177D02*
X27087Y-21609D01*
X35827Y-20866D02*
X35827Y-20291D01*
X35850Y-20291D02*
X35827Y-20291D01*
X35930Y-20211D02*
X35850Y-20291D01*
X40921Y-20039D02*
X41056Y-20174D01*
X35930Y-20039D02*
X40921Y-20039D01*
G54D10*
G36*
X27137Y-22227D02*
X27037Y-22227D01*
X27037Y-22127D01*
X27137Y-22127D01*
X27137Y-22227D01*
X27137Y-22227D01*
G37*
G54D26*
X27137Y-22227D02*
X27037Y-22227D01*
X27037Y-22127D01*
X27137Y-22127D01*
X27137Y-22227D01*
G54D10*
G36*
X29228Y-26207D02*
X29021Y-26207D01*
X28959Y-26269D01*
X28959Y-26790D01*
X28959Y-26840D01*
X28959Y-26940D01*
X28859Y-26940D01*
X28859Y-26840D01*
X28859Y-26790D01*
X28859Y-26269D01*
X28797Y-26207D01*
X28560Y-26208D01*
X28468Y-26246D01*
X28405Y-26309D01*
X28405Y-26302D01*
X28370Y-26219D01*
X28359Y-26208D01*
X28427Y-26141D01*
X29179Y-26141D01*
X29192Y-26171D01*
X29228Y-26207D01*
X29228Y-26207D01*
G37*
G54D26*
X29228Y-26207D02*
X29021Y-26207D01*
X28959Y-26269D01*
X28959Y-26790D01*
X28959Y-26840D01*
X28959Y-26940D01*
X28859Y-26940D01*
X28859Y-26840D01*
X28859Y-26790D01*
X28859Y-26269D01*
X28797Y-26207D01*
X28560Y-26208D01*
X28468Y-26246D01*
X28405Y-26309D01*
X28405Y-26302D01*
X28370Y-26219D01*
X28359Y-26208D01*
X28427Y-26141D01*
X29179Y-26141D01*
X29192Y-26171D01*
X29228Y-26207D01*
G54D10*
G36*
X34043Y-26194D02*
X33957Y-26194D01*
X33897Y-26046D01*
X33745Y-25894D01*
X33546Y-25811D01*
X33331Y-25811D01*
X33132Y-25893D01*
X32980Y-26045D01*
X32897Y-26244D01*
X32897Y-26459D01*
X32919Y-26514D01*
X31902Y-26514D01*
X31865Y-26424D01*
X31713Y-26272D01*
X31514Y-26189D01*
X31299Y-26189D01*
X31100Y-26271D01*
X31047Y-26324D01*
X31047Y-24071D01*
X30708Y-23732D01*
X30637Y-23803D01*
X30637Y-23661D01*
X30298Y-23322D01*
X30200Y-23353D01*
X30120Y-23571D01*
X30130Y-23803D01*
X30200Y-23969D01*
X30298Y-24000D01*
X30637Y-23661D01*
X30637Y-23803D01*
X30369Y-24071D01*
X30400Y-24169D01*
X30618Y-24249D01*
X30850Y-24239D01*
X31016Y-24169D01*
X31047Y-24071D01*
X31047Y-26324D01*
X30948Y-26423D01*
X30865Y-26622D01*
X30865Y-26837D01*
X30947Y-27036D01*
X31099Y-27188D01*
X31264Y-27257D01*
X30376Y-27257D01*
X30426Y-27139D01*
X30426Y-26933D01*
X30426Y-26643D01*
X30348Y-26453D01*
X30202Y-26307D01*
X30041Y-26239D01*
X30109Y-26172D01*
X30192Y-25973D01*
X30192Y-25758D01*
X30110Y-25559D01*
X29958Y-25407D01*
X29759Y-25324D01*
X29544Y-25324D01*
X29345Y-25406D01*
X29193Y-25558D01*
X29180Y-25589D01*
X28313Y-25589D01*
X28207Y-25610D01*
X28118Y-25670D01*
X27758Y-26030D01*
X27707Y-26105D01*
X27707Y-25799D01*
X27855Y-25651D01*
X27917Y-25559D01*
X27917Y-25558D01*
X27920Y-25540D01*
X27938Y-25449D01*
X27939Y-25449D01*
X27939Y-21743D01*
X27917Y-21634D01*
X27916Y-21633D01*
X27895Y-21602D01*
X27855Y-21541D01*
X27855Y-21540D01*
X27721Y-21407D01*
X27701Y-21394D01*
X27749Y-21281D01*
X27749Y-21075D01*
X27671Y-20885D01*
X27525Y-20739D01*
X27441Y-20704D01*
X27565Y-20704D01*
X27648Y-20669D01*
X27712Y-20606D01*
X27747Y-20522D01*
X27747Y-20453D01*
X28247Y-20453D01*
X28955Y-21161D01*
X28817Y-21218D01*
X28660Y-21376D01*
X28574Y-21581D01*
X28574Y-21804D01*
X28659Y-22010D01*
X28817Y-22167D01*
X28858Y-22184D01*
X28858Y-23169D01*
X28817Y-23186D01*
X28660Y-23344D01*
X28574Y-23549D01*
X28574Y-23772D01*
X28659Y-23978D01*
X28817Y-24135D01*
X29022Y-24221D01*
X29245Y-24221D01*
X29451Y-24136D01*
X29608Y-23978D01*
X29694Y-23773D01*
X29694Y-23550D01*
X29609Y-23344D01*
X29451Y-23187D01*
X29410Y-23169D01*
X29410Y-22184D01*
X29451Y-22168D01*
X29608Y-22010D01*
X29665Y-21871D01*
X30907Y-23113D01*
X30798Y-23073D01*
X30566Y-23083D01*
X30400Y-23153D01*
X30369Y-23251D01*
X30673Y-23555D01*
X30708Y-23590D01*
X30779Y-23661D01*
X30814Y-23696D01*
X31118Y-24000D01*
X31216Y-23969D01*
X31296Y-23751D01*
X31286Y-23519D01*
X31266Y-23472D01*
X32249Y-24455D01*
X32338Y-24515D01*
X32444Y-24536D01*
X32836Y-24536D01*
X32849Y-24566D01*
X33001Y-24718D01*
X33200Y-24801D01*
X33415Y-24801D01*
X33614Y-24719D01*
X33677Y-24656D01*
X33677Y-24706D01*
X33689Y-24706D01*
X33677Y-24718D01*
X33678Y-24812D01*
X33700Y-24865D01*
X33700Y-24888D01*
X33700Y-25202D01*
X33735Y-25285D01*
X33798Y-25349D01*
X33882Y-25384D01*
X33972Y-25384D01*
X34005Y-25384D01*
X34005Y-25401D01*
X34005Y-26107D01*
X34040Y-26190D01*
X34043Y-26194D01*
X34043Y-26194D01*
G37*
G54D26*
X34043Y-26194D02*
X33957Y-26194D01*
X33897Y-26046D01*
X33745Y-25894D01*
X33546Y-25811D01*
X33331Y-25811D01*
X33132Y-25893D01*
X32980Y-26045D01*
X32897Y-26244D01*
X32897Y-26459D01*
X32919Y-26514D01*
X31902Y-26514D01*
X31865Y-26424D01*
X31713Y-26272D01*
X31514Y-26189D01*
X31299Y-26189D01*
X31100Y-26271D01*
X31047Y-26324D01*
X31047Y-24071D01*
X30708Y-23732D01*
X30637Y-23803D01*
X30637Y-23661D01*
X30298Y-23322D01*
X30200Y-23353D01*
X30120Y-23571D01*
X30130Y-23803D01*
X30200Y-23969D01*
X30298Y-24000D01*
X30637Y-23661D01*
X30637Y-23803D01*
X30369Y-24071D01*
X30400Y-24169D01*
X30618Y-24249D01*
X30850Y-24239D01*
X31016Y-24169D01*
X31047Y-24071D01*
X31047Y-26324D01*
X30948Y-26423D01*
X30865Y-26622D01*
X30865Y-26837D01*
X30947Y-27036D01*
X31099Y-27188D01*
X31264Y-27257D01*
X30376Y-27257D01*
X30426Y-27139D01*
X30426Y-26933D01*
X30426Y-26643D01*
X30348Y-26453D01*
X30202Y-26307D01*
X30041Y-26239D01*
X30109Y-26172D01*
X30192Y-25973D01*
X30192Y-25758D01*
X30110Y-25559D01*
X29958Y-25407D01*
X29759Y-25324D01*
X29544Y-25324D01*
X29345Y-25406D01*
X29193Y-25558D01*
X29180Y-25589D01*
X28313Y-25589D01*
X28207Y-25610D01*
X28118Y-25670D01*
X27758Y-26030D01*
X27707Y-26105D01*
X27707Y-25799D01*
X27855Y-25651D01*
X27917Y-25559D01*
X27917Y-25558D01*
X27920Y-25540D01*
X27938Y-25449D01*
X27939Y-25449D01*
X27939Y-21743D01*
X27917Y-21634D01*
X27916Y-21633D01*
X27895Y-21602D01*
X27855Y-21541D01*
X27855Y-21540D01*
X27721Y-21407D01*
X27701Y-21394D01*
X27749Y-21281D01*
X27749Y-21075D01*
X27671Y-20885D01*
X27525Y-20739D01*
X27441Y-20704D01*
X27565Y-20704D01*
X27648Y-20669D01*
X27712Y-20606D01*
X27747Y-20522D01*
X27747Y-20453D01*
X28247Y-20453D01*
X28955Y-21161D01*
X28817Y-21218D01*
X28660Y-21376D01*
X28574Y-21581D01*
X28574Y-21804D01*
X28659Y-22010D01*
X28817Y-22167D01*
X28858Y-22184D01*
X28858Y-23169D01*
X28817Y-23186D01*
X28660Y-23344D01*
X28574Y-23549D01*
X28574Y-23772D01*
X28659Y-23978D01*
X28817Y-24135D01*
X29022Y-24221D01*
X29245Y-24221D01*
X29451Y-24136D01*
X29608Y-23978D01*
X29694Y-23773D01*
X29694Y-23550D01*
X29609Y-23344D01*
X29451Y-23187D01*
X29410Y-23169D01*
X29410Y-22184D01*
X29451Y-22168D01*
X29608Y-22010D01*
X29665Y-21871D01*
X30907Y-23113D01*
X30798Y-23073D01*
X30566Y-23083D01*
X30400Y-23153D01*
X30369Y-23251D01*
X30673Y-23555D01*
X30708Y-23590D01*
X30779Y-23661D01*
X30814Y-23696D01*
X31118Y-24000D01*
X31216Y-23969D01*
X31296Y-23751D01*
X31286Y-23519D01*
X31266Y-23472D01*
X32249Y-24455D01*
X32338Y-24515D01*
X32444Y-24536D01*
X32836Y-24536D01*
X32849Y-24566D01*
X33001Y-24718D01*
X33200Y-24801D01*
X33415Y-24801D01*
X33614Y-24719D01*
X33677Y-24656D01*
X33677Y-24706D01*
X33689Y-24706D01*
X33677Y-24718D01*
X33678Y-24812D01*
X33700Y-24865D01*
X33700Y-24888D01*
X33700Y-25202D01*
X33735Y-25285D01*
X33798Y-25349D01*
X33882Y-25384D01*
X33972Y-25384D01*
X34005Y-25384D01*
X34005Y-25401D01*
X34005Y-26107D01*
X34040Y-26190D01*
X34043Y-26194D01*
G54D10*
G36*
X41824Y-27257D02*
X40958Y-27257D01*
X40958Y-20978D01*
X40896Y-20916D01*
X40601Y-20916D01*
X40601Y-21497D01*
X40663Y-21559D01*
X40757Y-21558D01*
X40849Y-21520D01*
X40919Y-21450D01*
X40957Y-21359D01*
X40957Y-21260D01*
X40958Y-20978D01*
X40958Y-27257D01*
X40190Y-27257D01*
X40190Y-27051D01*
X40190Y-26761D01*
X40113Y-26575D01*
X40281Y-26575D01*
X40314Y-26560D01*
X40349Y-26575D01*
X40439Y-26575D01*
X40753Y-26575D01*
X40836Y-26540D01*
X40900Y-26477D01*
X40935Y-26393D01*
X40935Y-26303D01*
X40935Y-25417D01*
X40900Y-25334D01*
X40837Y-25270D01*
X40753Y-25235D01*
X40663Y-25235D01*
X40349Y-25235D01*
X40315Y-25249D01*
X40281Y-25235D01*
X40191Y-25235D01*
X39877Y-25235D01*
X39842Y-25249D01*
X39808Y-25235D01*
X39718Y-25235D01*
X39404Y-25235D01*
X39370Y-25249D01*
X39336Y-25235D01*
X39246Y-25235D01*
X38932Y-25235D01*
X38897Y-25249D01*
X38863Y-25235D01*
X38773Y-25235D01*
X38459Y-25235D01*
X38425Y-25249D01*
X38391Y-25235D01*
X38301Y-25235D01*
X37987Y-25235D01*
X37953Y-25249D01*
X37919Y-25235D01*
X37829Y-25235D01*
X37515Y-25235D01*
X37480Y-25249D01*
X37446Y-25235D01*
X37356Y-25235D01*
X37042Y-25235D01*
X37028Y-25240D01*
X37027Y-25234D01*
X36967Y-25145D01*
X36878Y-25085D01*
X36772Y-25064D01*
X36299Y-25064D01*
X36193Y-25085D01*
X36104Y-25145D01*
X36044Y-25234D01*
X36042Y-25240D01*
X36029Y-25235D01*
X35939Y-25235D01*
X35625Y-25235D01*
X35590Y-25249D01*
X35556Y-25235D01*
X35466Y-25235D01*
X35304Y-25235D01*
X35304Y-21497D01*
X35304Y-20916D01*
X35304Y-20816D01*
X35304Y-20235D01*
X35280Y-20211D01*
X35280Y-20089D01*
X35017Y-20089D01*
X34955Y-20151D01*
X34956Y-20215D01*
X34956Y-20314D01*
X34964Y-20333D01*
X34948Y-20373D01*
X34948Y-20472D01*
X34947Y-20754D01*
X35009Y-20816D01*
X35304Y-20816D01*
X35304Y-20916D01*
X35009Y-20916D01*
X34947Y-20978D01*
X34948Y-21260D01*
X34948Y-21359D01*
X34986Y-21450D01*
X35056Y-21520D01*
X35148Y-21558D01*
X35242Y-21559D01*
X35304Y-21497D01*
X35304Y-25235D01*
X35152Y-25235D01*
X35069Y-25270D01*
X35005Y-25333D01*
X34970Y-25417D01*
X34970Y-25507D01*
X34970Y-26194D01*
X34774Y-26194D01*
X34778Y-26191D01*
X34813Y-26107D01*
X34813Y-26017D01*
X34813Y-25384D01*
X34858Y-25384D01*
X34941Y-25349D01*
X35005Y-25286D01*
X35040Y-25202D01*
X35040Y-25112D01*
X35040Y-24865D01*
X35062Y-24812D01*
X35063Y-24718D01*
X35001Y-24656D01*
X34946Y-24656D01*
X34942Y-24651D01*
X34858Y-24616D01*
X34768Y-24616D01*
X34320Y-24616D01*
X34320Y-24556D01*
X34420Y-24556D01*
X34470Y-24556D01*
X35001Y-24556D01*
X35063Y-24494D01*
X35062Y-24400D01*
X35029Y-24321D01*
X35040Y-24296D01*
X35040Y-24206D01*
X35040Y-23892D01*
X35025Y-23858D01*
X35040Y-23824D01*
X35040Y-23734D01*
X35040Y-23420D01*
X35025Y-23386D01*
X35040Y-23352D01*
X35040Y-23262D01*
X35040Y-22948D01*
X35025Y-22913D01*
X35040Y-22879D01*
X35040Y-22789D01*
X35040Y-22475D01*
X35029Y-22449D01*
X35062Y-22371D01*
X35063Y-22277D01*
X35063Y-22053D01*
X35062Y-21959D01*
X35040Y-21905D01*
X35040Y-21884D01*
X35040Y-21570D01*
X35005Y-21487D01*
X34942Y-21423D01*
X34858Y-21388D01*
X34813Y-21388D01*
X34813Y-21372D01*
X34813Y-20664D01*
X34778Y-20581D01*
X34715Y-20517D01*
X34631Y-20482D01*
X34541Y-20482D01*
X34187Y-20482D01*
X34104Y-20517D01*
X34040Y-20580D01*
X34005Y-20664D01*
X34005Y-20754D01*
X34005Y-21388D01*
X33924Y-21388D01*
X33924Y-20459D01*
X33924Y-20326D01*
X33424Y-20326D01*
X33424Y-20894D01*
X33509Y-20941D01*
X33537Y-20937D01*
X33727Y-20834D01*
X33863Y-20666D01*
X33924Y-20459D01*
X33924Y-21388D01*
X33882Y-21388D01*
X33799Y-21423D01*
X33735Y-21486D01*
X33700Y-21570D01*
X33700Y-21660D01*
X33700Y-21905D01*
X33678Y-21959D01*
X33677Y-22053D01*
X33739Y-22115D01*
X33792Y-22115D01*
X33798Y-22121D01*
X33882Y-22156D01*
X33972Y-22156D01*
X34858Y-22156D01*
X34941Y-22121D01*
X34947Y-22115D01*
X35001Y-22115D01*
X35063Y-22053D01*
X35063Y-22277D01*
X35001Y-22215D01*
X34470Y-22215D01*
X34420Y-22215D01*
X34320Y-22215D01*
X34270Y-22215D01*
X33739Y-22215D01*
X33677Y-22277D01*
X33678Y-22371D01*
X33710Y-22449D01*
X33700Y-22475D01*
X33700Y-22565D01*
X33700Y-22879D01*
X33714Y-22913D01*
X33700Y-22948D01*
X33700Y-23038D01*
X33700Y-23352D01*
X33714Y-23385D01*
X33700Y-23420D01*
X33700Y-23510D01*
X33700Y-23824D01*
X33714Y-23857D01*
X33701Y-23888D01*
X33615Y-23802D01*
X33416Y-23719D01*
X33201Y-23719D01*
X33002Y-23801D01*
X32850Y-23953D01*
X32837Y-23984D01*
X32558Y-23984D01*
X30824Y-22250D01*
X31025Y-22168D01*
X31182Y-22010D01*
X31268Y-21805D01*
X31268Y-21582D01*
X31183Y-21376D01*
X31025Y-21219D01*
X30820Y-21133D01*
X30597Y-21133D01*
X30391Y-21218D01*
X30234Y-21376D01*
X30150Y-21576D01*
X28561Y-19987D01*
X31847Y-19987D01*
X31847Y-20754D01*
X31882Y-20837D01*
X31945Y-20901D01*
X32029Y-20936D01*
X32119Y-20936D01*
X32719Y-20936D01*
X32802Y-20901D01*
X32866Y-20838D01*
X32901Y-20754D01*
X32901Y-20685D01*
X33021Y-20834D01*
X33211Y-20937D01*
X33239Y-20941D01*
X33324Y-20894D01*
X33324Y-20376D01*
X33324Y-20326D01*
X33324Y-20226D01*
X33424Y-20226D01*
X33474Y-20226D01*
X33924Y-20226D01*
X33924Y-20093D01*
X33892Y-19987D01*
X35015Y-19987D01*
X35017Y-19989D01*
X35230Y-19989D01*
X35280Y-19989D01*
X35380Y-19989D01*
X35380Y-20089D01*
X35380Y-20139D01*
X35380Y-20452D01*
X35404Y-20476D01*
X35404Y-20766D01*
X35404Y-20816D01*
X35404Y-20916D01*
X35404Y-20966D01*
X35404Y-21497D01*
X35466Y-21559D01*
X35560Y-21558D01*
X35619Y-21533D01*
X35625Y-21536D01*
X35715Y-21536D01*
X36029Y-21536D01*
X36062Y-21521D01*
X36097Y-21536D01*
X36187Y-21536D01*
X36501Y-21536D01*
X36535Y-21521D01*
X36570Y-21536D01*
X36660Y-21536D01*
X36974Y-21536D01*
X37007Y-21521D01*
X37042Y-21536D01*
X37132Y-21536D01*
X37446Y-21536D01*
X37480Y-21521D01*
X37515Y-21536D01*
X37605Y-21536D01*
X37919Y-21536D01*
X37952Y-21521D01*
X37987Y-21536D01*
X38077Y-21536D01*
X38391Y-21536D01*
X38424Y-21521D01*
X38459Y-21536D01*
X38549Y-21536D01*
X38863Y-21536D01*
X38897Y-21521D01*
X38932Y-21536D01*
X39022Y-21536D01*
X39336Y-21536D01*
X39369Y-21521D01*
X39404Y-21536D01*
X39494Y-21536D01*
X39808Y-21536D01*
X39842Y-21521D01*
X39877Y-21536D01*
X39967Y-21536D01*
X40281Y-21536D01*
X40286Y-21533D01*
X40345Y-21558D01*
X40439Y-21559D01*
X40501Y-21497D01*
X40501Y-20966D01*
X40501Y-20916D01*
X40501Y-20816D01*
X40601Y-20816D01*
X40651Y-20816D01*
X40896Y-20816D01*
X40958Y-20754D01*
X40957Y-20715D01*
X41163Y-20715D01*
X41362Y-20633D01*
X41514Y-20481D01*
X41597Y-20282D01*
X41597Y-20067D01*
X41564Y-19987D01*
X41824Y-19987D01*
X41824Y-20483D01*
X41785Y-20483D01*
X41702Y-20518D01*
X41638Y-20581D01*
X41603Y-20665D01*
X41603Y-20755D01*
X41603Y-21461D01*
X41638Y-21544D01*
X41701Y-21608D01*
X41785Y-21643D01*
X41824Y-21643D01*
X41824Y-25129D01*
X41786Y-25129D01*
X41703Y-25164D01*
X41639Y-25227D01*
X41604Y-25311D01*
X41604Y-25401D01*
X41604Y-26107D01*
X41639Y-26190D01*
X41702Y-26254D01*
X41786Y-26289D01*
X41824Y-26289D01*
X41824Y-27257D01*
X41824Y-27257D01*
G37*
G54D26*
X41824Y-27257D02*
X40958Y-27257D01*
X40958Y-20978D01*
X40896Y-20916D01*
X40601Y-20916D01*
X40601Y-21497D01*
X40663Y-21559D01*
X40757Y-21558D01*
X40849Y-21520D01*
X40919Y-21450D01*
X40957Y-21359D01*
X40957Y-21260D01*
X40958Y-20978D01*
X40958Y-27257D01*
X40190Y-27257D01*
X40190Y-27051D01*
X40190Y-26761D01*
X40113Y-26575D01*
X40281Y-26575D01*
X40314Y-26560D01*
X40349Y-26575D01*
X40439Y-26575D01*
X40753Y-26575D01*
X40836Y-26540D01*
X40900Y-26477D01*
X40935Y-26393D01*
X40935Y-26303D01*
X40935Y-25417D01*
X40900Y-25334D01*
X40837Y-25270D01*
X40753Y-25235D01*
X40663Y-25235D01*
X40349Y-25235D01*
X40315Y-25249D01*
X40281Y-25235D01*
X40191Y-25235D01*
X39877Y-25235D01*
X39842Y-25249D01*
X39808Y-25235D01*
X39718Y-25235D01*
X39404Y-25235D01*
X39370Y-25249D01*
X39336Y-25235D01*
X39246Y-25235D01*
X38932Y-25235D01*
X38897Y-25249D01*
X38863Y-25235D01*
X38773Y-25235D01*
X38459Y-25235D01*
X38425Y-25249D01*
X38391Y-25235D01*
X38301Y-25235D01*
X37987Y-25235D01*
X37953Y-25249D01*
X37919Y-25235D01*
X37829Y-25235D01*
X37515Y-25235D01*
X37480Y-25249D01*
X37446Y-25235D01*
X37356Y-25235D01*
X37042Y-25235D01*
X37028Y-25240D01*
X37027Y-25234D01*
X36967Y-25145D01*
X36878Y-25085D01*
X36772Y-25064D01*
X36299Y-25064D01*
X36193Y-25085D01*
X36104Y-25145D01*
X36044Y-25234D01*
X36042Y-25240D01*
X36029Y-25235D01*
X35939Y-25235D01*
X35625Y-25235D01*
X35590Y-25249D01*
X35556Y-25235D01*
X35466Y-25235D01*
X35304Y-25235D01*
X35304Y-21497D01*
X35304Y-20916D01*
X35304Y-20816D01*
X35304Y-20235D01*
X35280Y-20211D01*
X35280Y-20089D01*
X35017Y-20089D01*
X34955Y-20151D01*
X34956Y-20215D01*
X34956Y-20314D01*
X34964Y-20333D01*
X34948Y-20373D01*
X34948Y-20472D01*
X34947Y-20754D01*
X35009Y-20816D01*
X35304Y-20816D01*
X35304Y-20916D01*
X35009Y-20916D01*
X34947Y-20978D01*
X34948Y-21260D01*
X34948Y-21359D01*
X34986Y-21450D01*
X35056Y-21520D01*
X35148Y-21558D01*
X35242Y-21559D01*
X35304Y-21497D01*
X35304Y-25235D01*
X35152Y-25235D01*
X35069Y-25270D01*
X35005Y-25333D01*
X34970Y-25417D01*
X34970Y-25507D01*
X34970Y-26194D01*
X34774Y-26194D01*
X34778Y-26191D01*
X34813Y-26107D01*
X34813Y-26017D01*
X34813Y-25384D01*
X34858Y-25384D01*
X34941Y-25349D01*
X35005Y-25286D01*
X35040Y-25202D01*
X35040Y-25112D01*
X35040Y-24865D01*
X35062Y-24812D01*
X35063Y-24718D01*
X35001Y-24656D01*
X34946Y-24656D01*
X34942Y-24651D01*
X34858Y-24616D01*
X34768Y-24616D01*
X34320Y-24616D01*
X34320Y-24556D01*
X34420Y-24556D01*
X34470Y-24556D01*
X35001Y-24556D01*
X35063Y-24494D01*
X35062Y-24400D01*
X35029Y-24321D01*
X35040Y-24296D01*
X35040Y-24206D01*
X35040Y-23892D01*
X35025Y-23858D01*
X35040Y-23824D01*
X35040Y-23734D01*
X35040Y-23420D01*
X35025Y-23386D01*
X35040Y-23352D01*
X35040Y-23262D01*
X35040Y-22948D01*
X35025Y-22913D01*
X35040Y-22879D01*
X35040Y-22789D01*
X35040Y-22475D01*
X35029Y-22449D01*
X35062Y-22371D01*
X35063Y-22277D01*
X35063Y-22053D01*
X35062Y-21959D01*
X35040Y-21905D01*
X35040Y-21884D01*
X35040Y-21570D01*
X35005Y-21487D01*
X34942Y-21423D01*
X34858Y-21388D01*
X34813Y-21388D01*
X34813Y-21372D01*
X34813Y-20664D01*
X34778Y-20581D01*
X34715Y-20517D01*
X34631Y-20482D01*
X34541Y-20482D01*
X34187Y-20482D01*
X34104Y-20517D01*
X34040Y-20580D01*
X34005Y-20664D01*
X34005Y-20754D01*
X34005Y-21388D01*
X33924Y-21388D01*
X33924Y-20459D01*
X33924Y-20326D01*
X33424Y-20326D01*
X33424Y-20894D01*
X33509Y-20941D01*
X33537Y-20937D01*
X33727Y-20834D01*
X33863Y-20666D01*
X33924Y-20459D01*
X33924Y-21388D01*
X33882Y-21388D01*
X33799Y-21423D01*
X33735Y-21486D01*
X33700Y-21570D01*
X33700Y-21660D01*
X33700Y-21905D01*
X33678Y-21959D01*
X33677Y-22053D01*
X33739Y-22115D01*
X33792Y-22115D01*
X33798Y-22121D01*
X33882Y-22156D01*
X33972Y-22156D01*
X34858Y-22156D01*
X34941Y-22121D01*
X34947Y-22115D01*
X35001Y-22115D01*
X35063Y-22053D01*
X35063Y-22277D01*
X35001Y-22215D01*
X34470Y-22215D01*
X34420Y-22215D01*
X34320Y-22215D01*
X34270Y-22215D01*
X33739Y-22215D01*
X33677Y-22277D01*
X33678Y-22371D01*
X33710Y-22449D01*
X33700Y-22475D01*
X33700Y-22565D01*
X33700Y-22879D01*
X33714Y-22913D01*
X33700Y-22948D01*
X33700Y-23038D01*
X33700Y-23352D01*
X33714Y-23385D01*
X33700Y-23420D01*
X33700Y-23510D01*
X33700Y-23824D01*
X33714Y-23857D01*
X33701Y-23888D01*
X33615Y-23802D01*
X33416Y-23719D01*
X33201Y-23719D01*
X33002Y-23801D01*
X32850Y-23953D01*
X32837Y-23984D01*
X32558Y-23984D01*
X30824Y-22250D01*
X31025Y-22168D01*
X31182Y-22010D01*
X31268Y-21805D01*
X31268Y-21582D01*
X31183Y-21376D01*
X31025Y-21219D01*
X30820Y-21133D01*
X30597Y-21133D01*
X30391Y-21218D01*
X30234Y-21376D01*
X30150Y-21576D01*
X28561Y-19987D01*
X31847Y-19987D01*
X31847Y-20754D01*
X31882Y-20837D01*
X31945Y-20901D01*
X32029Y-20936D01*
X32119Y-20936D01*
X32719Y-20936D01*
X32802Y-20901D01*
X32866Y-20838D01*
X32901Y-20754D01*
X32901Y-20685D01*
X33021Y-20834D01*
X33211Y-20937D01*
X33239Y-20941D01*
X33324Y-20894D01*
X33324Y-20376D01*
X33324Y-20326D01*
X33324Y-20226D01*
X33424Y-20226D01*
X33474Y-20226D01*
X33924Y-20226D01*
X33924Y-20093D01*
X33892Y-19987D01*
X35015Y-19987D01*
X35017Y-19989D01*
X35230Y-19989D01*
X35280Y-19989D01*
X35380Y-19989D01*
X35380Y-20089D01*
X35380Y-20139D01*
X35380Y-20452D01*
X35404Y-20476D01*
X35404Y-20766D01*
X35404Y-20816D01*
X35404Y-20916D01*
X35404Y-20966D01*
X35404Y-21497D01*
X35466Y-21559D01*
X35560Y-21558D01*
X35619Y-21533D01*
X35625Y-21536D01*
X35715Y-21536D01*
X36029Y-21536D01*
X36062Y-21521D01*
X36097Y-21536D01*
X36187Y-21536D01*
X36501Y-21536D01*
X36535Y-21521D01*
X36570Y-21536D01*
X36660Y-21536D01*
X36974Y-21536D01*
X37007Y-21521D01*
X37042Y-21536D01*
X37132Y-21536D01*
X37446Y-21536D01*
X37480Y-21521D01*
X37515Y-21536D01*
X37605Y-21536D01*
X37919Y-21536D01*
X37952Y-21521D01*
X37987Y-21536D01*
X38077Y-21536D01*
X38391Y-21536D01*
X38424Y-21521D01*
X38459Y-21536D01*
X38549Y-21536D01*
X38863Y-21536D01*
X38897Y-21521D01*
X38932Y-21536D01*
X39022Y-21536D01*
X39336Y-21536D01*
X39369Y-21521D01*
X39404Y-21536D01*
X39494Y-21536D01*
X39808Y-21536D01*
X39842Y-21521D01*
X39877Y-21536D01*
X39967Y-21536D01*
X40281Y-21536D01*
X40286Y-21533D01*
X40345Y-21558D01*
X40439Y-21559D01*
X40501Y-21497D01*
X40501Y-20966D01*
X40501Y-20916D01*
X40501Y-20816D01*
X40601Y-20816D01*
X40651Y-20816D01*
X40896Y-20816D01*
X40958Y-20754D01*
X40957Y-20715D01*
X41163Y-20715D01*
X41362Y-20633D01*
X41514Y-20481D01*
X41597Y-20282D01*
X41597Y-20067D01*
X41564Y-19987D01*
X41824Y-19987D01*
X41824Y-20483D01*
X41785Y-20483D01*
X41702Y-20518D01*
X41638Y-20581D01*
X41603Y-20665D01*
X41603Y-20755D01*
X41603Y-21461D01*
X41638Y-21544D01*
X41701Y-21608D01*
X41785Y-21643D01*
X41824Y-21643D01*
X41824Y-25129D01*
X41786Y-25129D01*
X41703Y-25164D01*
X41639Y-25227D01*
X41604Y-25311D01*
X41604Y-25401D01*
X41604Y-26107D01*
X41639Y-26190D01*
X41702Y-26254D01*
X41786Y-26289D01*
X41824Y-26289D01*
X41824Y-27257D01*
M02*
