G04 (created by PCBNEW-RS274X (2011-nov-30)-testing) date Sat 18 Aug 2012 12:14:24 PM CEST*
%MOIN*%
G04 Gerber Fmt 3.4, Leading zero omitted, Abs format*
%FSLAX34Y34*%
G01*
G70*
G90*
G04 APERTURE LIST*
%ADD10C,0.006*%
%ADD11R,0.0394X0.0236*%
%ADD12R,0.025X0.045*%
%ADD13R,0.0287X0.0118*%
%ADD14R,0.0118X0.0287*%
%ADD15R,0.0492X0.0492*%
%ADD16R,0.06X0.0866*%
%ADD17O,0.06X0.0866*%
%ADD18R,0.0866X0.06*%
%ADD19O,0.0866X0.06*%
%ADD20C,0.0669*%
%ADD21R,0.11X0.19*%
%ADD22R,0.055X0.15*%
%ADD23C,0.063*%
%ADD24C,0.0098*%
%ADD25C,0.0118*%
%ADD26C,0.01*%
G04 APERTURE END LIST*
G54D10*
G54D11*
X38723Y-23208D03*
X38723Y-23958D03*
X38723Y-23583D03*
X37891Y-23958D03*
X37891Y-23208D03*
X37891Y-23583D03*
G54D12*
X37968Y-22559D03*
X38568Y-22559D03*
X32387Y-23780D03*
X31787Y-23780D03*
X37928Y-24646D03*
X38528Y-24646D03*
X36787Y-24646D03*
X37387Y-24646D03*
G54D13*
X32743Y-24960D03*
X32743Y-25157D03*
X32743Y-25354D03*
X32743Y-25551D03*
G54D14*
X32363Y-26128D03*
X32166Y-26128D03*
X31969Y-26128D03*
X31772Y-26128D03*
X31575Y-26128D03*
G54D15*
X32215Y-25600D03*
X32215Y-25108D03*
X31723Y-25108D03*
X31723Y-25600D03*
G54D13*
X31195Y-25748D03*
X31195Y-25551D03*
X31195Y-25354D03*
X31195Y-25157D03*
X31195Y-24960D03*
G54D14*
X31575Y-24580D03*
X31772Y-24580D03*
X31969Y-24580D03*
X32166Y-24580D03*
X32363Y-24580D03*
G54D13*
X32743Y-25748D03*
G54D16*
X32374Y-20276D03*
G54D17*
X33374Y-20276D03*
G54D18*
X27087Y-20177D03*
G54D19*
X27087Y-21177D03*
X27087Y-22177D03*
X27087Y-23177D03*
X27087Y-24177D03*
X27087Y-25177D03*
G54D16*
X38673Y-27008D03*
G54D17*
X39673Y-27008D03*
G54D20*
X29134Y-21693D03*
X30708Y-21693D03*
X29134Y-23661D03*
X30708Y-23661D03*
G54D21*
X33514Y-22362D03*
X36014Y-22362D03*
G54D22*
X39128Y-21299D03*
X37328Y-21299D03*
G54D16*
X28909Y-26890D03*
G54D17*
X29909Y-26890D03*
G54D23*
X33308Y-24260D03*
X29651Y-25865D03*
X33438Y-26352D03*
X31406Y-26730D03*
X36711Y-26790D03*
X41056Y-20174D03*
G54D24*
X29909Y-26890D02*
X29487Y-26890D01*
X29487Y-26468D02*
X29487Y-26890D01*
X28440Y-25421D02*
X29487Y-26468D01*
X28440Y-23508D02*
X28440Y-25421D01*
X28813Y-23135D02*
X28440Y-23508D01*
X29271Y-23135D02*
X28813Y-23135D01*
X29642Y-23506D02*
X29271Y-23135D01*
X29642Y-24016D02*
X29642Y-23506D01*
X30783Y-25157D02*
X29642Y-24016D01*
X31195Y-25157D02*
X30783Y-25157D01*
X33008Y-24560D02*
X33008Y-24960D01*
X33308Y-24260D02*
X33008Y-24560D01*
X32743Y-24960D02*
X33008Y-24960D01*
X27087Y-24177D02*
X27087Y-23755D01*
X31195Y-24960D02*
X30929Y-24960D01*
X29907Y-23938D02*
X30929Y-24960D01*
X29907Y-23530D02*
X29907Y-23938D01*
X29340Y-22963D02*
X29907Y-23530D01*
X28716Y-22963D02*
X29340Y-22963D01*
X27924Y-23755D02*
X28716Y-22963D01*
X27087Y-23755D02*
X27924Y-23755D01*
X27087Y-23177D02*
X27642Y-23177D01*
X31575Y-24580D02*
X31575Y-24315D01*
X30705Y-24315D02*
X31575Y-24315D01*
X30078Y-23688D02*
X30705Y-24315D01*
X30078Y-23460D02*
X30078Y-23688D01*
X29410Y-22792D02*
X30078Y-23460D01*
X28027Y-22792D02*
X29410Y-22792D01*
X27642Y-23177D02*
X28027Y-22792D01*
G54D25*
X37968Y-22689D02*
X37968Y-22916D01*
X37968Y-22689D02*
X37968Y-22559D01*
X37891Y-23208D02*
X38172Y-23208D01*
X37333Y-22181D02*
X37711Y-22559D01*
X37328Y-22181D02*
X37333Y-22181D01*
X37968Y-22559D02*
X37711Y-22559D01*
X37328Y-21337D02*
X37328Y-22181D01*
X37328Y-21337D02*
X37328Y-21299D01*
X37328Y-21299D02*
X36921Y-21299D01*
X32374Y-20276D02*
X32374Y-20841D01*
X31955Y-21693D02*
X30708Y-21693D01*
X31955Y-22498D02*
X31955Y-21693D01*
X32902Y-23445D02*
X31955Y-22498D01*
X34170Y-23445D02*
X32902Y-23445D01*
X34203Y-23412D02*
X34170Y-23445D01*
X34203Y-22486D02*
X34203Y-23412D01*
X35410Y-21279D02*
X34203Y-22486D01*
X36901Y-21279D02*
X35410Y-21279D01*
X36921Y-21299D02*
X36901Y-21279D01*
X31955Y-21260D02*
X32374Y-20841D01*
X31955Y-21693D02*
X31955Y-21260D01*
X38723Y-23958D02*
X38394Y-23958D01*
X38172Y-23120D02*
X37968Y-22916D01*
X38172Y-23208D02*
X38172Y-23120D01*
X38394Y-23430D02*
X38394Y-23958D01*
X38172Y-23208D02*
X38394Y-23430D01*
X31787Y-23780D02*
X31530Y-23780D01*
X31772Y-24152D02*
X31787Y-24137D01*
X31772Y-24580D02*
X31772Y-24152D01*
X31787Y-23780D02*
X31787Y-24137D01*
X39052Y-24379D02*
X39052Y-23583D01*
X38785Y-24646D02*
X39052Y-24379D01*
X38528Y-24646D02*
X38785Y-24646D01*
X38723Y-23583D02*
X38888Y-23583D01*
X38888Y-23583D02*
X39052Y-23583D01*
X38568Y-22559D02*
X38568Y-22202D01*
X33514Y-22362D02*
X33514Y-21280D01*
X38799Y-20416D02*
X38524Y-20691D01*
X39516Y-20416D02*
X38799Y-20416D01*
X39549Y-20449D02*
X39516Y-20416D01*
X39549Y-23086D02*
X39549Y-20449D01*
X39052Y-23583D02*
X39549Y-23086D01*
X38524Y-22158D02*
X38568Y-22202D01*
X38524Y-20691D02*
X38524Y-22158D01*
X33514Y-21280D02*
X33514Y-20394D01*
X33492Y-20394D02*
X33514Y-20394D01*
X33374Y-20276D02*
X33492Y-20394D01*
X38227Y-20394D02*
X38524Y-20691D01*
X33514Y-20394D02*
X38227Y-20394D01*
X31411Y-23661D02*
X30708Y-23661D01*
X31530Y-23780D02*
X31411Y-23661D01*
X29224Y-22177D02*
X27652Y-22177D01*
X30708Y-23661D02*
X29224Y-22177D01*
X27087Y-22177D02*
X27652Y-22177D01*
G54D24*
X37891Y-23958D02*
X37572Y-23958D01*
X37572Y-24646D02*
X37572Y-23958D01*
X37387Y-24646D02*
X37572Y-24646D01*
X37572Y-24646D02*
X37928Y-24646D01*
X39128Y-23122D02*
X39042Y-23208D01*
X39128Y-21299D02*
X39128Y-23122D01*
X38723Y-23208D02*
X39042Y-23208D01*
X30993Y-26128D02*
X31575Y-26128D01*
X29134Y-24269D02*
X30993Y-26128D01*
X29134Y-23661D02*
X29134Y-24269D01*
X30966Y-27180D02*
X29651Y-25865D01*
X31942Y-27180D02*
X30966Y-27180D01*
X31969Y-27153D02*
X31942Y-27180D01*
X31969Y-26128D02*
X31969Y-27153D01*
X32166Y-26128D02*
X32166Y-26394D01*
X33396Y-26394D02*
X33438Y-26352D01*
X32166Y-26394D02*
X33396Y-26394D01*
X31742Y-26394D02*
X31772Y-26394D01*
X31406Y-26730D02*
X31742Y-26394D01*
X31772Y-26128D02*
X31772Y-26394D01*
G54D25*
X36787Y-24646D02*
X36787Y-25003D01*
X36014Y-22362D02*
X36014Y-23403D01*
X36787Y-24646D02*
X36787Y-24289D01*
X37891Y-23583D02*
X37562Y-23583D01*
X36787Y-23642D02*
X36787Y-24289D01*
X37503Y-23642D02*
X37562Y-23583D01*
X36787Y-23642D02*
X37503Y-23642D01*
X36014Y-23403D02*
X36014Y-23444D01*
X36212Y-23642D02*
X36787Y-23642D01*
X36014Y-23444D02*
X36212Y-23642D01*
X31969Y-24580D02*
X31969Y-24305D01*
X35678Y-23780D02*
X32387Y-23780D01*
X36014Y-23444D02*
X35678Y-23780D01*
X32137Y-24137D02*
X31969Y-24305D01*
X32387Y-24137D02*
X32137Y-24137D01*
X32387Y-23780D02*
X32387Y-24137D01*
X32130Y-23523D02*
X32130Y-23780D01*
X32021Y-23414D02*
X32130Y-23523D01*
X31768Y-23414D02*
X32021Y-23414D01*
X29531Y-21177D02*
X31768Y-23414D01*
X27087Y-21177D02*
X29531Y-21177D01*
X32387Y-23780D02*
X32130Y-23780D01*
X36711Y-25079D02*
X36787Y-25003D01*
X36711Y-26790D02*
X36711Y-25079D01*
X41056Y-22686D02*
X41056Y-20174D01*
X38739Y-25003D02*
X41056Y-22686D01*
X36787Y-25003D02*
X38739Y-25003D01*
G54D10*
G36*
X28959Y-26940D02*
X28859Y-26940D01*
X28809Y-26940D01*
X28421Y-26940D01*
X28359Y-27002D01*
X28359Y-27257D01*
X26680Y-27257D01*
X26680Y-25627D01*
X26838Y-25694D01*
X27044Y-25694D01*
X27334Y-25694D01*
X27524Y-25616D01*
X27670Y-25470D01*
X27749Y-25281D01*
X27749Y-25075D01*
X27671Y-24885D01*
X27525Y-24739D01*
X27376Y-24676D01*
X27524Y-24616D01*
X27670Y-24470D01*
X27749Y-24281D01*
X27749Y-24075D01*
X27730Y-24031D01*
X27924Y-24031D01*
X28029Y-24010D01*
X28030Y-24010D01*
X28119Y-23950D01*
X28164Y-23905D01*
X28164Y-25421D01*
X28185Y-25527D01*
X28245Y-25616D01*
X28836Y-26207D01*
X28809Y-26207D01*
X28809Y-26219D01*
X28797Y-26207D01*
X28560Y-26208D01*
X28468Y-26246D01*
X28398Y-26316D01*
X28360Y-26407D01*
X28360Y-26506D01*
X28359Y-26778D01*
X28421Y-26840D01*
X28809Y-26840D01*
X28859Y-26840D01*
X28959Y-26840D01*
X28959Y-26940D01*
X28959Y-26940D01*
G37*
G54D26*
X28959Y-26940D02*
X28859Y-26940D01*
X28809Y-26940D01*
X28421Y-26940D01*
X28359Y-27002D01*
X28359Y-27257D01*
X26680Y-27257D01*
X26680Y-25627D01*
X26838Y-25694D01*
X27044Y-25694D01*
X27334Y-25694D01*
X27524Y-25616D01*
X27670Y-25470D01*
X27749Y-25281D01*
X27749Y-25075D01*
X27671Y-24885D01*
X27525Y-24739D01*
X27376Y-24676D01*
X27524Y-24616D01*
X27670Y-24470D01*
X27749Y-24281D01*
X27749Y-24075D01*
X27730Y-24031D01*
X27924Y-24031D01*
X28029Y-24010D01*
X28030Y-24010D01*
X28119Y-23950D01*
X28164Y-23905D01*
X28164Y-25421D01*
X28185Y-25527D01*
X28245Y-25616D01*
X28836Y-26207D01*
X28809Y-26207D01*
X28809Y-26219D01*
X28797Y-26207D01*
X28560Y-26208D01*
X28468Y-26246D01*
X28398Y-26316D01*
X28360Y-26407D01*
X28360Y-26506D01*
X28359Y-26778D01*
X28421Y-26840D01*
X28809Y-26840D01*
X28859Y-26840D01*
X28959Y-26840D01*
X28959Y-26940D01*
G54D10*
G36*
X31837Y-23830D02*
X31737Y-23830D01*
X31687Y-23830D01*
X31474Y-23830D01*
X31412Y-23892D01*
X31413Y-23956D01*
X31413Y-24039D01*
X31296Y-24039D01*
X31170Y-24039D01*
X31199Y-24010D01*
X31171Y-23982D01*
X31216Y-23969D01*
X31296Y-23751D01*
X31286Y-23519D01*
X31216Y-23353D01*
X31118Y-23322D01*
X31047Y-23393D01*
X31047Y-23251D01*
X31016Y-23153D01*
X30798Y-23073D01*
X30566Y-23083D01*
X30400Y-23153D01*
X30369Y-23251D01*
X30708Y-23590D01*
X31047Y-23251D01*
X31047Y-23393D01*
X30814Y-23626D01*
X30779Y-23661D01*
X30708Y-23732D01*
X30637Y-23661D01*
X30602Y-23626D01*
X30333Y-23357D01*
X30333Y-23354D01*
X30273Y-23265D01*
X30273Y-23264D01*
X29605Y-22597D01*
X29516Y-22537D01*
X29410Y-22516D01*
X28027Y-22516D01*
X27921Y-22537D01*
X27832Y-22597D01*
X27607Y-22821D01*
X27525Y-22739D01*
X27402Y-22687D01*
X27477Y-22666D01*
X27645Y-22530D01*
X27748Y-22340D01*
X27752Y-22312D01*
X27705Y-22227D01*
X27187Y-22227D01*
X27137Y-22227D01*
X27037Y-22227D01*
X27037Y-22127D01*
X27137Y-22127D01*
X27187Y-22127D01*
X27705Y-22127D01*
X27752Y-22042D01*
X27748Y-22014D01*
X27645Y-21824D01*
X27477Y-21688D01*
X27402Y-21665D01*
X27524Y-21616D01*
X27670Y-21470D01*
X27672Y-21463D01*
X28623Y-21463D01*
X28574Y-21581D01*
X28574Y-21804D01*
X28659Y-22010D01*
X28817Y-22167D01*
X29022Y-22253D01*
X29245Y-22253D01*
X29451Y-22168D01*
X29608Y-22010D01*
X29694Y-21805D01*
X29694Y-21744D01*
X31425Y-23476D01*
X31413Y-23505D01*
X31413Y-23604D01*
X31412Y-23668D01*
X31474Y-23730D01*
X31687Y-23730D01*
X31737Y-23730D01*
X31837Y-23730D01*
X31837Y-23830D01*
X31837Y-23830D01*
G37*
G54D26*
X31837Y-23830D02*
X31737Y-23830D01*
X31687Y-23830D01*
X31474Y-23830D01*
X31412Y-23892D01*
X31413Y-23956D01*
X31413Y-24039D01*
X31296Y-24039D01*
X31170Y-24039D01*
X31199Y-24010D01*
X31171Y-23982D01*
X31216Y-23969D01*
X31296Y-23751D01*
X31286Y-23519D01*
X31216Y-23353D01*
X31118Y-23322D01*
X31047Y-23393D01*
X31047Y-23251D01*
X31016Y-23153D01*
X30798Y-23073D01*
X30566Y-23083D01*
X30400Y-23153D01*
X30369Y-23251D01*
X30708Y-23590D01*
X31047Y-23251D01*
X31047Y-23393D01*
X30814Y-23626D01*
X30779Y-23661D01*
X30708Y-23732D01*
X30637Y-23661D01*
X30602Y-23626D01*
X30333Y-23357D01*
X30333Y-23354D01*
X30273Y-23265D01*
X30273Y-23264D01*
X29605Y-22597D01*
X29516Y-22537D01*
X29410Y-22516D01*
X28027Y-22516D01*
X27921Y-22537D01*
X27832Y-22597D01*
X27607Y-22821D01*
X27525Y-22739D01*
X27402Y-22687D01*
X27477Y-22666D01*
X27645Y-22530D01*
X27748Y-22340D01*
X27752Y-22312D01*
X27705Y-22227D01*
X27187Y-22227D01*
X27137Y-22227D01*
X27037Y-22227D01*
X27037Y-22127D01*
X27137Y-22127D01*
X27187Y-22127D01*
X27705Y-22127D01*
X27752Y-22042D01*
X27748Y-22014D01*
X27645Y-21824D01*
X27477Y-21688D01*
X27402Y-21665D01*
X27524Y-21616D01*
X27670Y-21470D01*
X27672Y-21463D01*
X28623Y-21463D01*
X28574Y-21581D01*
X28574Y-21804D01*
X28659Y-22010D01*
X28817Y-22167D01*
X29022Y-22253D01*
X29245Y-22253D01*
X29451Y-22168D01*
X29608Y-22010D01*
X29694Y-21805D01*
X29694Y-21744D01*
X31425Y-23476D01*
X31413Y-23505D01*
X31413Y-23604D01*
X31412Y-23668D01*
X31474Y-23730D01*
X31687Y-23730D01*
X31737Y-23730D01*
X31837Y-23730D01*
X31837Y-23830D01*
G54D10*
G36*
X38578Y-24696D02*
X38478Y-24696D01*
X38478Y-24596D01*
X38578Y-24596D01*
X38578Y-24696D01*
X38578Y-24696D01*
G37*
G54D26*
X38578Y-24696D02*
X38478Y-24696D01*
X38478Y-24596D01*
X38578Y-24596D01*
X38578Y-24696D01*
G54D10*
G36*
X40770Y-22567D02*
X38902Y-24435D01*
X38902Y-24371D01*
X38873Y-24303D01*
X38965Y-24303D01*
X39048Y-24268D01*
X39112Y-24205D01*
X39147Y-24121D01*
X39147Y-24031D01*
X39147Y-23803D01*
X39169Y-23750D01*
X39170Y-23695D01*
X39108Y-23633D01*
X39013Y-23633D01*
X38965Y-23613D01*
X38875Y-23613D01*
X38680Y-23613D01*
X38680Y-23553D01*
X38965Y-23553D01*
X39012Y-23533D01*
X39108Y-23533D01*
X39170Y-23471D01*
X39169Y-23448D01*
X39237Y-23403D01*
X39323Y-23318D01*
X39323Y-23317D01*
X39383Y-23228D01*
X39403Y-23122D01*
X39404Y-23122D01*
X39404Y-22276D01*
X39448Y-22276D01*
X39531Y-22241D01*
X39595Y-22178D01*
X39630Y-22094D01*
X39630Y-22004D01*
X39630Y-20504D01*
X39595Y-20421D01*
X39532Y-20357D01*
X39448Y-20322D01*
X39358Y-20322D01*
X38808Y-20322D01*
X38725Y-20357D01*
X38661Y-20420D01*
X38626Y-20504D01*
X38626Y-20594D01*
X38626Y-22094D01*
X38639Y-22124D01*
X38618Y-22146D01*
X38618Y-22459D01*
X38618Y-22509D01*
X38618Y-22609D01*
X38518Y-22609D01*
X38518Y-22509D01*
X38518Y-22459D01*
X38518Y-22146D01*
X38456Y-22084D01*
X38394Y-22085D01*
X38302Y-22123D01*
X38252Y-22172D01*
X38222Y-22142D01*
X38138Y-22107D01*
X38048Y-22107D01*
X37824Y-22107D01*
X37830Y-22094D01*
X37830Y-22004D01*
X37830Y-20504D01*
X37795Y-20421D01*
X37732Y-20357D01*
X37648Y-20322D01*
X37558Y-20322D01*
X37008Y-20322D01*
X36925Y-20357D01*
X36861Y-20420D01*
X36826Y-20504D01*
X36826Y-20594D01*
X36826Y-20993D01*
X35410Y-20993D01*
X35301Y-21015D01*
X35269Y-21036D01*
X35207Y-21077D01*
X34313Y-21971D01*
X34313Y-21461D01*
X34313Y-21362D01*
X34275Y-21271D01*
X34205Y-21201D01*
X34113Y-21163D01*
X33924Y-21162D01*
X33924Y-20459D01*
X33924Y-20326D01*
X33424Y-20326D01*
X33424Y-20894D01*
X33509Y-20941D01*
X33537Y-20937D01*
X33727Y-20834D01*
X33863Y-20666D01*
X33924Y-20459D01*
X33924Y-21162D01*
X33626Y-21162D01*
X33564Y-21224D01*
X33564Y-22262D01*
X33564Y-22312D01*
X33564Y-22412D01*
X33464Y-22412D01*
X33464Y-22312D01*
X33464Y-21224D01*
X33402Y-21162D01*
X32915Y-21163D01*
X32823Y-21201D01*
X32753Y-21271D01*
X32715Y-21362D01*
X32715Y-21461D01*
X32714Y-22250D01*
X32776Y-22312D01*
X33464Y-22312D01*
X33464Y-22412D01*
X33414Y-22412D01*
X32776Y-22412D01*
X32714Y-22474D01*
X32714Y-22853D01*
X32241Y-22380D01*
X32241Y-21693D01*
X32241Y-21378D01*
X32576Y-21044D01*
X32576Y-21043D01*
X32616Y-20982D01*
X32637Y-20951D01*
X32638Y-20950D01*
X32640Y-20936D01*
X32719Y-20936D01*
X32802Y-20901D01*
X32866Y-20838D01*
X32901Y-20754D01*
X32901Y-20685D01*
X33021Y-20834D01*
X33211Y-20937D01*
X33239Y-20941D01*
X33324Y-20894D01*
X33324Y-20376D01*
X33324Y-20326D01*
X33324Y-20226D01*
X33424Y-20226D01*
X33474Y-20226D01*
X33924Y-20226D01*
X33924Y-20093D01*
X33892Y-19987D01*
X40547Y-19987D01*
X40515Y-20066D01*
X40515Y-20281D01*
X40597Y-20480D01*
X40749Y-20632D01*
X40770Y-20640D01*
X40770Y-22567D01*
X40770Y-22567D01*
G37*
G54D26*
X40770Y-22567D02*
X38902Y-24435D01*
X38902Y-24371D01*
X38873Y-24303D01*
X38965Y-24303D01*
X39048Y-24268D01*
X39112Y-24205D01*
X39147Y-24121D01*
X39147Y-24031D01*
X39147Y-23803D01*
X39169Y-23750D01*
X39170Y-23695D01*
X39108Y-23633D01*
X39013Y-23633D01*
X38965Y-23613D01*
X38875Y-23613D01*
X38680Y-23613D01*
X38680Y-23553D01*
X38965Y-23553D01*
X39012Y-23533D01*
X39108Y-23533D01*
X39170Y-23471D01*
X39169Y-23448D01*
X39237Y-23403D01*
X39323Y-23318D01*
X39323Y-23317D01*
X39383Y-23228D01*
X39403Y-23122D01*
X39404Y-23122D01*
X39404Y-22276D01*
X39448Y-22276D01*
X39531Y-22241D01*
X39595Y-22178D01*
X39630Y-22094D01*
X39630Y-22004D01*
X39630Y-20504D01*
X39595Y-20421D01*
X39532Y-20357D01*
X39448Y-20322D01*
X39358Y-20322D01*
X38808Y-20322D01*
X38725Y-20357D01*
X38661Y-20420D01*
X38626Y-20504D01*
X38626Y-20594D01*
X38626Y-22094D01*
X38639Y-22124D01*
X38618Y-22146D01*
X38618Y-22459D01*
X38618Y-22509D01*
X38618Y-22609D01*
X38518Y-22609D01*
X38518Y-22509D01*
X38518Y-22459D01*
X38518Y-22146D01*
X38456Y-22084D01*
X38394Y-22085D01*
X38302Y-22123D01*
X38252Y-22172D01*
X38222Y-22142D01*
X38138Y-22107D01*
X38048Y-22107D01*
X37824Y-22107D01*
X37830Y-22094D01*
X37830Y-22004D01*
X37830Y-20504D01*
X37795Y-20421D01*
X37732Y-20357D01*
X37648Y-20322D01*
X37558Y-20322D01*
X37008Y-20322D01*
X36925Y-20357D01*
X36861Y-20420D01*
X36826Y-20504D01*
X36826Y-20594D01*
X36826Y-20993D01*
X35410Y-20993D01*
X35301Y-21015D01*
X35269Y-21036D01*
X35207Y-21077D01*
X34313Y-21971D01*
X34313Y-21461D01*
X34313Y-21362D01*
X34275Y-21271D01*
X34205Y-21201D01*
X34113Y-21163D01*
X33924Y-21162D01*
X33924Y-20459D01*
X33924Y-20326D01*
X33424Y-20326D01*
X33424Y-20894D01*
X33509Y-20941D01*
X33537Y-20937D01*
X33727Y-20834D01*
X33863Y-20666D01*
X33924Y-20459D01*
X33924Y-21162D01*
X33626Y-21162D01*
X33564Y-21224D01*
X33564Y-22262D01*
X33564Y-22312D01*
X33564Y-22412D01*
X33464Y-22412D01*
X33464Y-22312D01*
X33464Y-21224D01*
X33402Y-21162D01*
X32915Y-21163D01*
X32823Y-21201D01*
X32753Y-21271D01*
X32715Y-21362D01*
X32715Y-21461D01*
X32714Y-22250D01*
X32776Y-22312D01*
X33464Y-22312D01*
X33464Y-22412D01*
X33414Y-22412D01*
X32776Y-22412D01*
X32714Y-22474D01*
X32714Y-22853D01*
X32241Y-22380D01*
X32241Y-21693D01*
X32241Y-21378D01*
X32576Y-21044D01*
X32576Y-21043D01*
X32616Y-20982D01*
X32637Y-20951D01*
X32638Y-20950D01*
X32640Y-20936D01*
X32719Y-20936D01*
X32802Y-20901D01*
X32866Y-20838D01*
X32901Y-20754D01*
X32901Y-20685D01*
X33021Y-20834D01*
X33211Y-20937D01*
X33239Y-20941D01*
X33324Y-20894D01*
X33324Y-20376D01*
X33324Y-20326D01*
X33324Y-20226D01*
X33424Y-20226D01*
X33474Y-20226D01*
X33924Y-20226D01*
X33924Y-20093D01*
X33892Y-19987D01*
X40547Y-19987D01*
X40515Y-20066D01*
X40515Y-20281D01*
X40597Y-20480D01*
X40749Y-20632D01*
X40770Y-20640D01*
X40770Y-22567D01*
M02*
