M48
;DRILL file {Pcbnew (2013-feb-26)-testing} date Fri 01 Mar 2013 06:03:44 PM CET
;FORMAT={-:-/ absolute / inch / decimal}
FMAT,2
INCH,TZ
T1C0.024
T2C0.039
T3C0.043
%
G90
G05
M72
T1
X2.9651Y-2.5865
X3.1406Y-2.673
X3.3308Y-2.426
X3.3438Y-2.6352
X3.6711Y-2.679
X4.1056Y-2.0174
T2
X2.7087Y-2.0177
X2.7087Y-2.1177
X2.7087Y-2.2177
X2.7087Y-2.3177
X2.7087Y-2.4177
X2.7087Y-2.5177
X2.8909Y-2.689
X2.9909Y-2.689
X3.2374Y-2.0276
X3.3374Y-2.0276
X3.8673Y-2.7008
X3.9673Y-2.7008
T3
X2.9134Y-2.1693
X2.9134Y-2.3661
X3.0708Y-2.1693
X3.0708Y-2.3661
T0
M30
