%FSLAX34Y34*%
G04 Gerber Fmt 3.4, Leading zero omitted, Abs format*
G04 (created by PCBNEW (2014-04-07 BZR 4791)-product) date Fri 02 May 2014 10:57:51 AM CEST*
%MOIN*%
G01*
G70*
G90*
G04 APERTURE LIST*
%ADD10C,0.005906*%
%ADD11R,0.098425X0.098425*%
%ADD12C,0.098425*%
%ADD13C,0.125984*%
%ADD14R,0.025000X0.045000*%
%ADD15R,0.050000X0.100000*%
%ADD16R,0.060000X0.080000*%
%ADD17R,0.068000X0.080000*%
%ADD18O,0.068000X0.080000*%
%ADD19R,0.070000X0.140000*%
%ADD20R,0.080000X0.068000*%
%ADD21O,0.080000X0.068000*%
%ADD22C,0.126000*%
%ADD23R,0.045000X0.025000*%
%ADD24R,0.039400X0.027600*%
%ADD25R,0.016000X0.026000*%
%ADD26R,0.059055X0.023622*%
%ADD27C,0.059100*%
%ADD28C,0.035000*%
%ADD29C,0.010000*%
%ADD30C,0.013780*%
G04 APERTURE END LIST*
G54D10*
G54D11*
X36811Y-32283D03*
G54D12*
X36811Y-54724D03*
G54D13*
X36811Y-37007D03*
X36811Y-50000D03*
G54D11*
X29724Y-54724D03*
G54D12*
X29724Y-32283D03*
G54D13*
X29724Y-50000D03*
X29724Y-37007D03*
G54D14*
X43050Y-34500D03*
X42450Y-34500D03*
G54D15*
X43350Y-37500D03*
X42150Y-37500D03*
G54D14*
X43400Y-49606D03*
X44000Y-49606D03*
X42819Y-49606D03*
X42219Y-49606D03*
G54D16*
X43400Y-40250D03*
X42100Y-40250D03*
G54D17*
X44200Y-54800D03*
G54D18*
X43200Y-54800D03*
X42200Y-54800D03*
G54D19*
X42000Y-33250D03*
X43500Y-33250D03*
G54D20*
X46250Y-33250D03*
G54D21*
X46250Y-34250D03*
X46250Y-35250D03*
X46250Y-36250D03*
X46250Y-37250D03*
X46250Y-38250D03*
G54D22*
X27165Y-30314D03*
X46062Y-56692D03*
X46062Y-30314D03*
X27165Y-56692D03*
G54D23*
X44250Y-35700D03*
X44250Y-36300D03*
X44250Y-36950D03*
X44250Y-37550D03*
G54D14*
X42700Y-39000D03*
X43300Y-39000D03*
X42613Y-48818D03*
X43213Y-48818D03*
G54D24*
X43250Y-35375D03*
X43250Y-35750D03*
X43250Y-36125D03*
X42250Y-36125D03*
X42250Y-35750D03*
X42250Y-35375D03*
G54D25*
X43047Y-47644D03*
X43567Y-47644D03*
X43307Y-47644D03*
X43567Y-46844D03*
X43047Y-46844D03*
X43307Y-46844D03*
G54D26*
X44062Y-45500D03*
X44062Y-45000D03*
X44062Y-44500D03*
X44062Y-44000D03*
X44062Y-43500D03*
X44062Y-43000D03*
X44062Y-42500D03*
X41937Y-42500D03*
X41937Y-43000D03*
X41937Y-43500D03*
X41937Y-44000D03*
X41937Y-44500D03*
X41937Y-45000D03*
X41937Y-45500D03*
G54D27*
X43874Y-51181D03*
X41952Y-51181D03*
G54D28*
X45078Y-43399D03*
X41409Y-32393D03*
G54D29*
X46250Y-35740D02*
X46495Y-35740D01*
X46495Y-35740D02*
X46801Y-36046D01*
X46801Y-36046D02*
X46801Y-41048D01*
X46801Y-41048D02*
X46600Y-41249D01*
X46600Y-41249D02*
X46600Y-41407D01*
X46600Y-41407D02*
X44508Y-43500D01*
X44062Y-43500D02*
X44508Y-43500D01*
X46250Y-35250D02*
X46250Y-35740D01*
G54D30*
X43400Y-49606D02*
X43113Y-49606D01*
X43509Y-47991D02*
X43509Y-49497D01*
X43509Y-49497D02*
X43400Y-49606D01*
X42819Y-49606D02*
X43113Y-49606D01*
X43509Y-47991D02*
X43690Y-47991D01*
X43690Y-47991D02*
X47020Y-44662D01*
X47020Y-44662D02*
X47020Y-35020D01*
X47020Y-35020D02*
X46250Y-34250D01*
X43307Y-47943D02*
X43355Y-47991D01*
X43355Y-47991D02*
X43509Y-47991D01*
X44527Y-38250D02*
X44527Y-38121D01*
X44527Y-38121D02*
X44250Y-37844D01*
X44527Y-42500D02*
X44527Y-38250D01*
X46250Y-38250D02*
X44527Y-38250D01*
X44250Y-37550D02*
X44250Y-37844D01*
X44062Y-42500D02*
X44527Y-42500D01*
X42569Y-36439D02*
X41857Y-36439D01*
X41857Y-36439D02*
X41048Y-35631D01*
X41048Y-35631D02*
X41048Y-32264D01*
X41048Y-32264D02*
X41271Y-32042D01*
X41271Y-32042D02*
X44042Y-32042D01*
X44042Y-32042D02*
X46250Y-34250D01*
X42616Y-35750D02*
X42616Y-36392D01*
X42616Y-36392D02*
X42569Y-36439D01*
X42569Y-36439D02*
X42569Y-37500D01*
X42150Y-37500D02*
X42150Y-38169D01*
X42100Y-40250D02*
X42100Y-38219D01*
X42100Y-38219D02*
X42150Y-38169D01*
X42150Y-37500D02*
X42569Y-37500D01*
X42556Y-35750D02*
X42616Y-35750D01*
X42250Y-35750D02*
X42556Y-35750D01*
X43307Y-47644D02*
X43307Y-47943D01*
X42450Y-34500D02*
X42450Y-34894D01*
X42616Y-35750D02*
X42616Y-35060D01*
X42616Y-35060D02*
X42450Y-34894D01*
X44250Y-35700D02*
X44250Y-35994D01*
X46250Y-37250D02*
X45680Y-37250D01*
X44657Y-37244D02*
X43960Y-37244D01*
X43960Y-37244D02*
X43769Y-37435D01*
X43769Y-37435D02*
X43769Y-37500D01*
X45680Y-37250D02*
X45675Y-37244D01*
X45675Y-37244D02*
X44657Y-37244D01*
X44657Y-37244D02*
X44657Y-36107D01*
X44657Y-36107D02*
X44544Y-35994D01*
X44544Y-35994D02*
X44250Y-35994D01*
X43350Y-37500D02*
X43769Y-37500D01*
X43350Y-37500D02*
X42930Y-37500D01*
X42700Y-39000D02*
X42700Y-37730D01*
X42700Y-37730D02*
X42930Y-37500D01*
X42700Y-39197D02*
X42700Y-39000D01*
X42700Y-39197D02*
X42700Y-39394D01*
X43149Y-45949D02*
X43307Y-46107D01*
X43307Y-46107D02*
X43307Y-46844D01*
X42700Y-45500D02*
X43149Y-45949D01*
X43598Y-45500D02*
X43149Y-45949D01*
X44062Y-45500D02*
X43598Y-45500D01*
X42700Y-45500D02*
X42700Y-39394D01*
X42401Y-45500D02*
X42700Y-45500D01*
X44527Y-44000D02*
X45078Y-43448D01*
X45078Y-43448D02*
X45078Y-43399D01*
X44062Y-44000D02*
X44527Y-44000D01*
X44250Y-35700D02*
X43855Y-35700D01*
X43250Y-35750D02*
X43805Y-35750D01*
X43805Y-35750D02*
X43855Y-35700D01*
X41937Y-45500D02*
X42401Y-45500D01*
G54D29*
X43047Y-47644D02*
X43047Y-47924D01*
X43063Y-48818D02*
X43063Y-47940D01*
X43063Y-47940D02*
X43047Y-47924D01*
X43063Y-48818D02*
X42938Y-48818D01*
X43213Y-48818D02*
X43063Y-48818D01*
X43874Y-50330D02*
X42979Y-50330D01*
X42979Y-50330D02*
X42538Y-49888D01*
X42538Y-49888D02*
X42538Y-49324D01*
X42538Y-49324D02*
X42632Y-49231D01*
X42632Y-49231D02*
X42801Y-49231D01*
X42801Y-49231D02*
X42938Y-49094D01*
X42938Y-49094D02*
X42938Y-48818D01*
X44000Y-49606D02*
X44000Y-50204D01*
X44000Y-50204D02*
X43874Y-50330D01*
X43874Y-51181D02*
X43874Y-50330D01*
X43047Y-47124D02*
X43327Y-47124D01*
X43327Y-47124D02*
X43567Y-47363D01*
X43047Y-47074D02*
X43047Y-47124D01*
X42475Y-48818D02*
X42475Y-47695D01*
X42475Y-47695D02*
X43047Y-47124D01*
X43567Y-47644D02*
X43567Y-47363D01*
X43047Y-46844D02*
X43047Y-47074D01*
X42475Y-48818D02*
X42338Y-48818D01*
X42613Y-48818D02*
X42475Y-48818D01*
X42219Y-49606D02*
X42219Y-49231D01*
X42338Y-48818D02*
X42338Y-49112D01*
X42338Y-49112D02*
X42219Y-49231D01*
X41952Y-51181D02*
X42219Y-50913D01*
X42219Y-50913D02*
X42219Y-49606D01*
X43400Y-40250D02*
X43400Y-39699D01*
X43400Y-39699D02*
X43300Y-39599D01*
X43300Y-39599D02*
X43300Y-39000D01*
X42250Y-35375D02*
X42250Y-35086D01*
X42250Y-35086D02*
X42000Y-34836D01*
X42000Y-34836D02*
X42000Y-33250D01*
X44250Y-36950D02*
X44250Y-36300D01*
X44250Y-36300D02*
X43874Y-36300D01*
X43250Y-36125D02*
X43699Y-36125D01*
X43699Y-36125D02*
X43874Y-36300D01*
X43567Y-46844D02*
X43567Y-46563D01*
X44062Y-44500D02*
X44508Y-44500D01*
X44508Y-44500D02*
X44508Y-45708D01*
X44508Y-45708D02*
X43653Y-46563D01*
X43653Y-46563D02*
X43567Y-46563D01*
X44062Y-45000D02*
X43617Y-45000D01*
X44062Y-43000D02*
X43617Y-43000D01*
X43617Y-43000D02*
X43617Y-45000D01*
G54D30*
X41481Y-32466D02*
X41567Y-32380D01*
X41567Y-32380D02*
X42447Y-32380D01*
X42447Y-32380D02*
X43240Y-33173D01*
X43240Y-33173D02*
X43240Y-33250D01*
X41883Y-36125D02*
X41480Y-35721D01*
X41480Y-35721D02*
X41480Y-32467D01*
X41480Y-32467D02*
X41481Y-32466D01*
X41481Y-32466D02*
X41409Y-32393D01*
X42250Y-36125D02*
X41883Y-36125D01*
X43050Y-34500D02*
X43050Y-34105D01*
X43240Y-33250D02*
X43240Y-33915D01*
X43240Y-33915D02*
X43050Y-34105D01*
X43500Y-33250D02*
X43240Y-33250D01*
X43050Y-34500D02*
X43050Y-34894D01*
X43250Y-35375D02*
X43250Y-35067D01*
X43250Y-35067D02*
X43076Y-34894D01*
X43076Y-34894D02*
X43050Y-34894D01*
G54D10*
G36*
X43782Y-50112D02*
X43070Y-50112D01*
X43026Y-50068D01*
X43086Y-50043D01*
X43110Y-50019D01*
X43134Y-50043D01*
X43226Y-50081D01*
X43288Y-50081D01*
X43350Y-50018D01*
X43350Y-49656D01*
X43132Y-49656D01*
X43088Y-49656D01*
X42869Y-49656D01*
X42869Y-49664D01*
X42769Y-49664D01*
X42769Y-49656D01*
X42761Y-49656D01*
X42761Y-49556D01*
X42769Y-49556D01*
X42769Y-49548D01*
X42869Y-49548D01*
X42869Y-49556D01*
X43088Y-49556D01*
X43132Y-49556D01*
X43350Y-49556D01*
X43350Y-49548D01*
X43450Y-49548D01*
X43450Y-49556D01*
X43458Y-49556D01*
X43458Y-49656D01*
X43450Y-49656D01*
X43450Y-50018D01*
X43513Y-50081D01*
X43575Y-50081D01*
X43667Y-50043D01*
X43737Y-49972D01*
X43750Y-49943D01*
X43780Y-49973D01*
X43782Y-49974D01*
X43782Y-50112D01*
X43782Y-50112D01*
G37*
G54D29*
X43782Y-50112D02*
X43070Y-50112D01*
X43026Y-50068D01*
X43086Y-50043D01*
X43110Y-50019D01*
X43134Y-50043D01*
X43226Y-50081D01*
X43288Y-50081D01*
X43350Y-50018D01*
X43350Y-49656D01*
X43132Y-49656D01*
X43088Y-49656D01*
X42869Y-49656D01*
X42869Y-49664D01*
X42769Y-49664D01*
X42769Y-49656D01*
X42761Y-49656D01*
X42761Y-49556D01*
X42769Y-49556D01*
X42769Y-49548D01*
X42869Y-49548D01*
X42869Y-49556D01*
X43088Y-49556D01*
X43132Y-49556D01*
X43350Y-49556D01*
X43350Y-49548D01*
X43450Y-49548D01*
X43450Y-49556D01*
X43458Y-49556D01*
X43458Y-49656D01*
X43450Y-49656D01*
X43450Y-50018D01*
X43513Y-50081D01*
X43575Y-50081D01*
X43667Y-50043D01*
X43737Y-49972D01*
X43750Y-49943D01*
X43780Y-49973D01*
X43782Y-49974D01*
X43782Y-50112D01*
G54D10*
G36*
X46583Y-40958D02*
X46446Y-41095D01*
X46399Y-41166D01*
X46382Y-41249D01*
X46382Y-41317D01*
X46200Y-41499D01*
X46200Y-38777D01*
X46200Y-38300D01*
X45664Y-38300D01*
X45617Y-38391D01*
X45618Y-38397D01*
X45718Y-38605D01*
X45890Y-38758D01*
X46107Y-38834D01*
X46200Y-38777D01*
X46200Y-41499D01*
X44725Y-42974D01*
X44725Y-37724D01*
X44725Y-37662D01*
X44662Y-37600D01*
X44300Y-37600D01*
X44300Y-37862D01*
X44362Y-37925D01*
X44425Y-37925D01*
X44524Y-37925D01*
X44616Y-37886D01*
X44686Y-37816D01*
X44725Y-37724D01*
X44725Y-42974D01*
X44510Y-43189D01*
X44526Y-43151D01*
X44526Y-43084D01*
X44526Y-42848D01*
X44513Y-42816D01*
X44570Y-42759D01*
X44608Y-42667D01*
X44608Y-42612D01*
X44608Y-42387D01*
X44608Y-42332D01*
X44570Y-42240D01*
X44499Y-42169D01*
X44407Y-42131D01*
X44308Y-42131D01*
X44175Y-42131D01*
X44112Y-42194D01*
X44112Y-42450D01*
X44545Y-42450D01*
X44608Y-42387D01*
X44608Y-42612D01*
X44545Y-42550D01*
X44112Y-42550D01*
X44112Y-42557D01*
X44012Y-42557D01*
X44012Y-42550D01*
X44012Y-42450D01*
X44012Y-42194D01*
X43950Y-42131D01*
X43817Y-42131D01*
X43717Y-42131D01*
X43626Y-42169D01*
X43555Y-42240D01*
X43517Y-42332D01*
X43517Y-42387D01*
X43580Y-42450D01*
X44012Y-42450D01*
X44012Y-42550D01*
X43580Y-42550D01*
X43517Y-42612D01*
X43517Y-42667D01*
X43555Y-42759D01*
X43584Y-42788D01*
X43534Y-42798D01*
X43463Y-42845D01*
X43416Y-42916D01*
X43399Y-43000D01*
X43399Y-45000D01*
X43416Y-45083D01*
X43463Y-45154D01*
X43534Y-45201D01*
X43617Y-45218D01*
X43629Y-45218D01*
X43661Y-45250D01*
X43648Y-45262D01*
X43598Y-45262D01*
X43508Y-45281D01*
X43431Y-45332D01*
X43149Y-45614D01*
X42937Y-45401D01*
X42937Y-40695D01*
X42957Y-40745D01*
X43004Y-40792D01*
X43066Y-40818D01*
X43133Y-40818D01*
X43733Y-40818D01*
X43795Y-40792D01*
X43842Y-40745D01*
X43868Y-40683D01*
X43868Y-40616D01*
X43868Y-39816D01*
X43842Y-39754D01*
X43795Y-39707D01*
X43733Y-39681D01*
X43666Y-39681D01*
X43614Y-39681D01*
X43601Y-39616D01*
X43601Y-39616D01*
X43554Y-39545D01*
X43518Y-39509D01*
X43518Y-39368D01*
X43520Y-39367D01*
X43567Y-39320D01*
X43593Y-39258D01*
X43593Y-39191D01*
X43593Y-38741D01*
X43567Y-38679D01*
X43520Y-38632D01*
X43458Y-38606D01*
X43391Y-38606D01*
X43141Y-38606D01*
X43079Y-38632D01*
X43032Y-38679D01*
X43006Y-38741D01*
X43006Y-38808D01*
X43006Y-39258D01*
X43032Y-39320D01*
X43079Y-39367D01*
X43081Y-39368D01*
X43081Y-39599D01*
X43098Y-39681D01*
X43066Y-39681D01*
X43004Y-39707D01*
X42957Y-39754D01*
X42937Y-39804D01*
X42937Y-39394D01*
X42937Y-39350D01*
X42967Y-39320D01*
X42993Y-39258D01*
X42993Y-39191D01*
X42993Y-38741D01*
X42967Y-38679D01*
X42937Y-38649D01*
X42937Y-38045D01*
X42957Y-38095D01*
X43004Y-38142D01*
X43066Y-38168D01*
X43133Y-38168D01*
X43633Y-38168D01*
X43695Y-38142D01*
X43742Y-38095D01*
X43768Y-38033D01*
X43768Y-37966D01*
X43768Y-37737D01*
X43769Y-37737D01*
X43779Y-37734D01*
X43813Y-37816D01*
X43883Y-37886D01*
X43975Y-37925D01*
X44074Y-37925D01*
X44137Y-37925D01*
X44200Y-37862D01*
X44200Y-37600D01*
X44192Y-37600D01*
X44192Y-37500D01*
X44200Y-37500D01*
X44200Y-37492D01*
X44300Y-37492D01*
X44300Y-37500D01*
X44662Y-37500D01*
X44681Y-37481D01*
X45651Y-37481D01*
X45680Y-37487D01*
X45737Y-37487D01*
X45819Y-37609D01*
X45973Y-37712D01*
X45890Y-37741D01*
X45718Y-37894D01*
X45618Y-38102D01*
X45617Y-38108D01*
X45664Y-38200D01*
X46200Y-38200D01*
X46200Y-38192D01*
X46300Y-38192D01*
X46300Y-38200D01*
X46307Y-38200D01*
X46307Y-38300D01*
X46300Y-38300D01*
X46300Y-38777D01*
X46392Y-38834D01*
X46583Y-38768D01*
X46583Y-40958D01*
X46583Y-40958D01*
G37*
G54D29*
X46583Y-40958D02*
X46446Y-41095D01*
X46399Y-41166D01*
X46382Y-41249D01*
X46382Y-41317D01*
X46200Y-41499D01*
X46200Y-38777D01*
X46200Y-38300D01*
X45664Y-38300D01*
X45617Y-38391D01*
X45618Y-38397D01*
X45718Y-38605D01*
X45890Y-38758D01*
X46107Y-38834D01*
X46200Y-38777D01*
X46200Y-41499D01*
X44725Y-42974D01*
X44725Y-37724D01*
X44725Y-37662D01*
X44662Y-37600D01*
X44300Y-37600D01*
X44300Y-37862D01*
X44362Y-37925D01*
X44425Y-37925D01*
X44524Y-37925D01*
X44616Y-37886D01*
X44686Y-37816D01*
X44725Y-37724D01*
X44725Y-42974D01*
X44510Y-43189D01*
X44526Y-43151D01*
X44526Y-43084D01*
X44526Y-42848D01*
X44513Y-42816D01*
X44570Y-42759D01*
X44608Y-42667D01*
X44608Y-42612D01*
X44608Y-42387D01*
X44608Y-42332D01*
X44570Y-42240D01*
X44499Y-42169D01*
X44407Y-42131D01*
X44308Y-42131D01*
X44175Y-42131D01*
X44112Y-42194D01*
X44112Y-42450D01*
X44545Y-42450D01*
X44608Y-42387D01*
X44608Y-42612D01*
X44545Y-42550D01*
X44112Y-42550D01*
X44112Y-42557D01*
X44012Y-42557D01*
X44012Y-42550D01*
X44012Y-42450D01*
X44012Y-42194D01*
X43950Y-42131D01*
X43817Y-42131D01*
X43717Y-42131D01*
X43626Y-42169D01*
X43555Y-42240D01*
X43517Y-42332D01*
X43517Y-42387D01*
X43580Y-42450D01*
X44012Y-42450D01*
X44012Y-42550D01*
X43580Y-42550D01*
X43517Y-42612D01*
X43517Y-42667D01*
X43555Y-42759D01*
X43584Y-42788D01*
X43534Y-42798D01*
X43463Y-42845D01*
X43416Y-42916D01*
X43399Y-43000D01*
X43399Y-45000D01*
X43416Y-45083D01*
X43463Y-45154D01*
X43534Y-45201D01*
X43617Y-45218D01*
X43629Y-45218D01*
X43661Y-45250D01*
X43648Y-45262D01*
X43598Y-45262D01*
X43508Y-45281D01*
X43431Y-45332D01*
X43149Y-45614D01*
X42937Y-45401D01*
X42937Y-40695D01*
X42957Y-40745D01*
X43004Y-40792D01*
X43066Y-40818D01*
X43133Y-40818D01*
X43733Y-40818D01*
X43795Y-40792D01*
X43842Y-40745D01*
X43868Y-40683D01*
X43868Y-40616D01*
X43868Y-39816D01*
X43842Y-39754D01*
X43795Y-39707D01*
X43733Y-39681D01*
X43666Y-39681D01*
X43614Y-39681D01*
X43601Y-39616D01*
X43601Y-39616D01*
X43554Y-39545D01*
X43518Y-39509D01*
X43518Y-39368D01*
X43520Y-39367D01*
X43567Y-39320D01*
X43593Y-39258D01*
X43593Y-39191D01*
X43593Y-38741D01*
X43567Y-38679D01*
X43520Y-38632D01*
X43458Y-38606D01*
X43391Y-38606D01*
X43141Y-38606D01*
X43079Y-38632D01*
X43032Y-38679D01*
X43006Y-38741D01*
X43006Y-38808D01*
X43006Y-39258D01*
X43032Y-39320D01*
X43079Y-39367D01*
X43081Y-39368D01*
X43081Y-39599D01*
X43098Y-39681D01*
X43066Y-39681D01*
X43004Y-39707D01*
X42957Y-39754D01*
X42937Y-39804D01*
X42937Y-39394D01*
X42937Y-39350D01*
X42967Y-39320D01*
X42993Y-39258D01*
X42993Y-39191D01*
X42993Y-38741D01*
X42967Y-38679D01*
X42937Y-38649D01*
X42937Y-38045D01*
X42957Y-38095D01*
X43004Y-38142D01*
X43066Y-38168D01*
X43133Y-38168D01*
X43633Y-38168D01*
X43695Y-38142D01*
X43742Y-38095D01*
X43768Y-38033D01*
X43768Y-37966D01*
X43768Y-37737D01*
X43769Y-37737D01*
X43779Y-37734D01*
X43813Y-37816D01*
X43883Y-37886D01*
X43975Y-37925D01*
X44074Y-37925D01*
X44137Y-37925D01*
X44200Y-37862D01*
X44200Y-37600D01*
X44192Y-37600D01*
X44192Y-37500D01*
X44200Y-37500D01*
X44200Y-37492D01*
X44300Y-37492D01*
X44300Y-37500D01*
X44662Y-37500D01*
X44681Y-37481D01*
X45651Y-37481D01*
X45680Y-37487D01*
X45737Y-37487D01*
X45819Y-37609D01*
X45973Y-37712D01*
X45890Y-37741D01*
X45718Y-37894D01*
X45618Y-38102D01*
X45617Y-38108D01*
X45664Y-38200D01*
X46200Y-38200D01*
X46200Y-38192D01*
X46300Y-38192D01*
X46300Y-38200D01*
X46307Y-38200D01*
X46307Y-38300D01*
X46300Y-38300D01*
X46300Y-38777D01*
X46392Y-38834D01*
X46583Y-38768D01*
X46583Y-40958D01*
G54D10*
G36*
X46997Y-56141D02*
X46974Y-56085D01*
X46672Y-55782D01*
X46277Y-55619D01*
X45850Y-55618D01*
X45455Y-55781D01*
X45153Y-56083D01*
X44989Y-56478D01*
X44988Y-56905D01*
X45151Y-57300D01*
X45453Y-57602D01*
X45512Y-57627D01*
X44708Y-57627D01*
X44708Y-55233D01*
X44708Y-55166D01*
X44708Y-54366D01*
X44682Y-54304D01*
X44635Y-54257D01*
X44573Y-54231D01*
X44506Y-54231D01*
X43826Y-54231D01*
X43764Y-54257D01*
X43717Y-54304D01*
X43691Y-54366D01*
X43691Y-54433D01*
X43691Y-54647D01*
X43669Y-54534D01*
X43559Y-54369D01*
X43394Y-54259D01*
X43200Y-54220D01*
X43005Y-54259D01*
X42840Y-54369D01*
X42730Y-54534D01*
X42700Y-54688D01*
X42669Y-54534D01*
X42559Y-54369D01*
X42394Y-54259D01*
X42200Y-54220D01*
X42005Y-54259D01*
X41840Y-54369D01*
X41730Y-54534D01*
X41691Y-54728D01*
X41691Y-54871D01*
X41730Y-55065D01*
X41840Y-55230D01*
X42005Y-55340D01*
X42200Y-55379D01*
X42394Y-55340D01*
X42559Y-55230D01*
X42669Y-55065D01*
X42700Y-54911D01*
X42730Y-55065D01*
X42840Y-55230D01*
X43005Y-55340D01*
X43200Y-55379D01*
X43394Y-55340D01*
X43559Y-55230D01*
X43669Y-55065D01*
X43691Y-54952D01*
X43691Y-55233D01*
X43717Y-55295D01*
X43764Y-55342D01*
X43826Y-55368D01*
X43893Y-55368D01*
X44573Y-55368D01*
X44635Y-55342D01*
X44682Y-55295D01*
X44708Y-55233D01*
X44708Y-57627D01*
X37609Y-57627D01*
X37609Y-49841D01*
X37609Y-36849D01*
X37487Y-36556D01*
X37471Y-36539D01*
X37471Y-32809D01*
X37471Y-32742D01*
X37471Y-31757D01*
X37445Y-31696D01*
X37398Y-31648D01*
X37336Y-31623D01*
X37269Y-31623D01*
X36285Y-31623D01*
X36223Y-31648D01*
X36176Y-31696D01*
X36150Y-31757D01*
X36150Y-31824D01*
X36150Y-32809D01*
X36176Y-32870D01*
X36223Y-32918D01*
X36285Y-32943D01*
X36352Y-32943D01*
X37336Y-32943D01*
X37398Y-32918D01*
X37445Y-32870D01*
X37471Y-32809D01*
X37471Y-36539D01*
X37263Y-36331D01*
X36970Y-36209D01*
X36652Y-36209D01*
X36359Y-36330D01*
X36134Y-36555D01*
X36013Y-36848D01*
X36012Y-37165D01*
X36134Y-37459D01*
X36358Y-37684D01*
X36651Y-37805D01*
X36969Y-37806D01*
X37262Y-37684D01*
X37487Y-37460D01*
X37608Y-37167D01*
X37609Y-36849D01*
X37609Y-49841D01*
X37487Y-49548D01*
X37263Y-49323D01*
X36970Y-49202D01*
X36652Y-49201D01*
X36359Y-49323D01*
X36134Y-49547D01*
X36013Y-49840D01*
X36012Y-50158D01*
X36134Y-50451D01*
X36358Y-50676D01*
X36651Y-50797D01*
X36969Y-50798D01*
X37262Y-50676D01*
X37487Y-50452D01*
X37608Y-50159D01*
X37609Y-49841D01*
X37609Y-57627D01*
X37471Y-57627D01*
X37471Y-54593D01*
X37371Y-54350D01*
X37185Y-54165D01*
X36942Y-54064D01*
X36680Y-54064D01*
X36437Y-54164D01*
X36251Y-54349D01*
X36150Y-54592D01*
X36150Y-54855D01*
X36250Y-55097D01*
X36436Y-55283D01*
X36679Y-55384D01*
X36941Y-55384D01*
X37184Y-55284D01*
X37370Y-55098D01*
X37471Y-54856D01*
X37471Y-54593D01*
X37471Y-57627D01*
X30522Y-57627D01*
X30522Y-49841D01*
X30522Y-36849D01*
X30470Y-36723D01*
X30470Y-32411D01*
X30462Y-32115D01*
X30364Y-31880D01*
X30249Y-31829D01*
X30178Y-31899D01*
X30178Y-31758D01*
X30127Y-31643D01*
X29852Y-31537D01*
X29556Y-31545D01*
X29321Y-31643D01*
X29270Y-31758D01*
X29724Y-32212D01*
X30178Y-31758D01*
X30178Y-31899D01*
X29795Y-32283D01*
X30249Y-32737D01*
X30364Y-32686D01*
X30470Y-32411D01*
X30470Y-36723D01*
X30401Y-36556D01*
X30178Y-36333D01*
X30178Y-32808D01*
X29724Y-32354D01*
X29653Y-32424D01*
X29653Y-32283D01*
X29199Y-31829D01*
X29084Y-31880D01*
X28978Y-32155D01*
X28986Y-32450D01*
X29084Y-32686D01*
X29199Y-32737D01*
X29653Y-32283D01*
X29653Y-32424D01*
X29270Y-32808D01*
X29321Y-32923D01*
X29596Y-33029D01*
X29891Y-33021D01*
X30127Y-32923D01*
X30178Y-32808D01*
X30178Y-36333D01*
X30177Y-36331D01*
X29883Y-36209D01*
X29566Y-36209D01*
X29272Y-36330D01*
X29048Y-36555D01*
X28926Y-36848D01*
X28926Y-37165D01*
X29047Y-37459D01*
X29271Y-37684D01*
X29564Y-37805D01*
X29882Y-37806D01*
X30175Y-37684D01*
X30400Y-37460D01*
X30522Y-37167D01*
X30522Y-36849D01*
X30522Y-49841D01*
X30401Y-49548D01*
X30177Y-49323D01*
X29883Y-49202D01*
X29566Y-49201D01*
X29272Y-49323D01*
X29048Y-49547D01*
X28926Y-49840D01*
X28926Y-50158D01*
X29047Y-50451D01*
X29271Y-50676D01*
X29564Y-50797D01*
X29882Y-50798D01*
X30175Y-50676D01*
X30400Y-50452D01*
X30522Y-50159D01*
X30522Y-49841D01*
X30522Y-57627D01*
X30384Y-57627D01*
X30384Y-55249D01*
X30384Y-55183D01*
X30384Y-54198D01*
X30359Y-54137D01*
X30311Y-54089D01*
X30249Y-54064D01*
X30183Y-54064D01*
X29198Y-54064D01*
X29137Y-54089D01*
X29089Y-54137D01*
X29064Y-54198D01*
X29064Y-54265D01*
X29064Y-55249D01*
X29089Y-55311D01*
X29137Y-55359D01*
X29198Y-55384D01*
X29265Y-55384D01*
X30249Y-55384D01*
X30311Y-55359D01*
X30359Y-55311D01*
X30384Y-55249D01*
X30384Y-57627D01*
X27716Y-57627D01*
X27772Y-57603D01*
X28075Y-57302D01*
X28239Y-56907D01*
X28239Y-56480D01*
X28076Y-56085D01*
X27774Y-55782D01*
X27379Y-55619D01*
X26952Y-55618D01*
X26557Y-55781D01*
X26255Y-56083D01*
X26231Y-56142D01*
X26231Y-30866D01*
X26254Y-30922D01*
X26556Y-31224D01*
X26950Y-31388D01*
X27378Y-31389D01*
X27772Y-31225D01*
X28075Y-30924D01*
X28239Y-30529D01*
X28239Y-30102D01*
X28076Y-29707D01*
X27774Y-29404D01*
X27716Y-29380D01*
X45511Y-29380D01*
X45455Y-29403D01*
X45153Y-29705D01*
X44989Y-30100D01*
X44988Y-30527D01*
X45151Y-30922D01*
X45453Y-31224D01*
X45848Y-31388D01*
X46275Y-31389D01*
X46670Y-31225D01*
X46972Y-30924D01*
X46997Y-30865D01*
X46997Y-35954D01*
X46955Y-35892D01*
X46675Y-35612D01*
X46680Y-35609D01*
X46790Y-35444D01*
X46829Y-35250D01*
X46790Y-35055D01*
X46680Y-34890D01*
X46526Y-34787D01*
X46609Y-34758D01*
X46781Y-34605D01*
X46881Y-34397D01*
X46882Y-34391D01*
X46882Y-34108D01*
X46881Y-34102D01*
X46781Y-33894D01*
X46628Y-33758D01*
X46683Y-33758D01*
X46745Y-33732D01*
X46792Y-33685D01*
X46818Y-33623D01*
X46818Y-33556D01*
X46818Y-32876D01*
X46792Y-32814D01*
X46745Y-32767D01*
X46683Y-32741D01*
X46616Y-32741D01*
X45816Y-32741D01*
X45754Y-32767D01*
X45707Y-32814D01*
X45681Y-32876D01*
X45681Y-32943D01*
X45681Y-33623D01*
X45707Y-33685D01*
X45754Y-33732D01*
X45816Y-33758D01*
X45871Y-33758D01*
X45718Y-33894D01*
X45618Y-34102D01*
X45617Y-34108D01*
X45664Y-34200D01*
X46200Y-34200D01*
X46200Y-34192D01*
X46300Y-34192D01*
X46300Y-34200D01*
X46835Y-34200D01*
X46882Y-34108D01*
X46882Y-34391D01*
X46835Y-34300D01*
X46300Y-34300D01*
X46300Y-34307D01*
X46200Y-34307D01*
X46200Y-34300D01*
X45664Y-34300D01*
X45617Y-34391D01*
X45618Y-34397D01*
X45718Y-34605D01*
X45890Y-34758D01*
X45973Y-34787D01*
X45819Y-34890D01*
X45709Y-35055D01*
X45670Y-35250D01*
X45709Y-35444D01*
X45819Y-35609D01*
X45973Y-35712D01*
X45890Y-35741D01*
X45718Y-35894D01*
X45618Y-36102D01*
X45617Y-36108D01*
X45664Y-36200D01*
X46200Y-36200D01*
X46200Y-36192D01*
X46300Y-36192D01*
X46300Y-36200D01*
X46307Y-36200D01*
X46307Y-36300D01*
X46300Y-36300D01*
X46300Y-36307D01*
X46200Y-36307D01*
X46200Y-36300D01*
X45664Y-36300D01*
X45617Y-36391D01*
X45618Y-36397D01*
X45718Y-36605D01*
X45890Y-36758D01*
X45973Y-36787D01*
X45819Y-36890D01*
X45737Y-37012D01*
X45704Y-37012D01*
X45675Y-37007D01*
X44894Y-37007D01*
X44894Y-36107D01*
X44879Y-36032D01*
X44876Y-36017D01*
X44876Y-36017D01*
X44825Y-35940D01*
X44825Y-35940D01*
X44711Y-35826D01*
X44643Y-35780D01*
X44643Y-35541D01*
X44617Y-35479D01*
X44570Y-35432D01*
X44508Y-35406D01*
X44441Y-35406D01*
X43991Y-35406D01*
X43929Y-35432D01*
X43899Y-35462D01*
X43855Y-35462D01*
X43765Y-35481D01*
X43717Y-35512D01*
X43615Y-35512D01*
X43615Y-35479D01*
X43615Y-35203D01*
X43589Y-35141D01*
X43542Y-35094D01*
X43487Y-35071D01*
X43487Y-35067D01*
X43468Y-34977D01*
X43417Y-34900D01*
X43323Y-34806D01*
X43343Y-34758D01*
X43343Y-34691D01*
X43343Y-34241D01*
X43317Y-34179D01*
X43314Y-34176D01*
X43373Y-34118D01*
X43883Y-34118D01*
X43945Y-34092D01*
X43992Y-34045D01*
X44018Y-33983D01*
X44018Y-33916D01*
X44018Y-32516D01*
X43992Y-32454D01*
X43945Y-32407D01*
X43883Y-32381D01*
X43816Y-32381D01*
X43116Y-32381D01*
X43054Y-32407D01*
X43007Y-32454D01*
X42981Y-32516D01*
X42981Y-32579D01*
X42615Y-32213D01*
X42538Y-32161D01*
X42447Y-32143D01*
X41644Y-32143D01*
X41603Y-32102D01*
X41477Y-32050D01*
X41341Y-32050D01*
X41215Y-32102D01*
X41118Y-32199D01*
X41066Y-32325D01*
X41066Y-32461D01*
X41118Y-32587D01*
X41214Y-32684D01*
X41243Y-32696D01*
X41243Y-35721D01*
X41261Y-35812D01*
X41313Y-35889D01*
X41716Y-36292D01*
X41716Y-36292D01*
X41793Y-36343D01*
X41793Y-36343D01*
X41808Y-36346D01*
X41883Y-36362D01*
X41914Y-36362D01*
X41957Y-36405D01*
X42019Y-36431D01*
X42086Y-36431D01*
X42480Y-36431D01*
X42542Y-36405D01*
X42589Y-36358D01*
X42615Y-36296D01*
X42615Y-36229D01*
X42615Y-36073D01*
X42658Y-36029D01*
X42697Y-35937D01*
X42697Y-35862D01*
X42634Y-35800D01*
X42300Y-35800D01*
X42300Y-35807D01*
X42200Y-35807D01*
X42200Y-35800D01*
X42192Y-35800D01*
X42192Y-35700D01*
X42200Y-35700D01*
X42200Y-35692D01*
X42300Y-35692D01*
X42300Y-35700D01*
X42634Y-35700D01*
X42697Y-35637D01*
X42697Y-35562D01*
X42658Y-35470D01*
X42615Y-35426D01*
X42615Y-35203D01*
X42589Y-35141D01*
X42542Y-35094D01*
X42480Y-35068D01*
X42464Y-35068D01*
X42451Y-35003D01*
X42451Y-35003D01*
X42404Y-34932D01*
X42392Y-34920D01*
X42400Y-34912D01*
X42400Y-34550D01*
X42392Y-34550D01*
X42392Y-34450D01*
X42400Y-34450D01*
X42400Y-34442D01*
X42500Y-34442D01*
X42500Y-34450D01*
X42507Y-34450D01*
X42507Y-34550D01*
X42500Y-34550D01*
X42500Y-34912D01*
X42562Y-34975D01*
X42624Y-34975D01*
X42716Y-34936D01*
X42786Y-34866D01*
X42799Y-34836D01*
X42812Y-34850D01*
X42812Y-34894D01*
X42831Y-34984D01*
X42882Y-35061D01*
X42947Y-35104D01*
X42910Y-35141D01*
X42884Y-35203D01*
X42884Y-35270D01*
X42884Y-35546D01*
X42891Y-35562D01*
X42884Y-35578D01*
X42884Y-35645D01*
X42884Y-35921D01*
X42891Y-35937D01*
X42884Y-35953D01*
X42884Y-36020D01*
X42884Y-36296D01*
X42910Y-36358D01*
X42957Y-36405D01*
X43019Y-36431D01*
X43086Y-36431D01*
X43480Y-36431D01*
X43542Y-36405D01*
X43589Y-36358D01*
X43595Y-36343D01*
X43609Y-36343D01*
X43720Y-36454D01*
X43791Y-36501D01*
X43791Y-36501D01*
X43874Y-36518D01*
X43881Y-36518D01*
X43882Y-36520D01*
X43929Y-36567D01*
X43991Y-36593D01*
X44031Y-36593D01*
X44031Y-36656D01*
X43991Y-36656D01*
X43929Y-36682D01*
X43882Y-36729D01*
X43856Y-36791D01*
X43856Y-36858D01*
X43856Y-37034D01*
X43793Y-37076D01*
X43768Y-37101D01*
X43768Y-36966D01*
X43742Y-36904D01*
X43695Y-36857D01*
X43633Y-36831D01*
X43566Y-36831D01*
X43066Y-36831D01*
X43004Y-36857D01*
X42957Y-36904D01*
X42931Y-36966D01*
X42931Y-37033D01*
X42931Y-37262D01*
X42930Y-37262D01*
X42840Y-37281D01*
X42763Y-37332D01*
X42650Y-37445D01*
X42645Y-37449D01*
X42587Y-37449D01*
X42650Y-37387D01*
X42650Y-37049D01*
X42650Y-36950D01*
X42611Y-36858D01*
X42541Y-36788D01*
X42449Y-36750D01*
X42262Y-36750D01*
X42200Y-36812D01*
X42200Y-37450D01*
X42207Y-37450D01*
X42207Y-37550D01*
X42200Y-37550D01*
X42200Y-38187D01*
X42262Y-38250D01*
X42449Y-38250D01*
X42462Y-38244D01*
X42462Y-38649D01*
X42432Y-38679D01*
X42406Y-38741D01*
X42406Y-38808D01*
X42406Y-39258D01*
X42432Y-39320D01*
X42462Y-39350D01*
X42462Y-39394D01*
X42462Y-39605D01*
X42449Y-39600D01*
X42212Y-39600D01*
X42150Y-39662D01*
X42150Y-40200D01*
X42157Y-40200D01*
X42157Y-40300D01*
X42150Y-40300D01*
X42150Y-40837D01*
X42212Y-40900D01*
X42449Y-40900D01*
X42462Y-40894D01*
X42462Y-45262D01*
X42401Y-45262D01*
X42351Y-45262D01*
X42338Y-45250D01*
X42374Y-45213D01*
X42400Y-45151D01*
X42400Y-45084D01*
X42400Y-44848D01*
X42374Y-44786D01*
X42338Y-44750D01*
X42374Y-44713D01*
X42400Y-44651D01*
X42400Y-44584D01*
X42400Y-44348D01*
X42374Y-44286D01*
X42338Y-44250D01*
X42374Y-44213D01*
X42400Y-44151D01*
X42400Y-44084D01*
X42400Y-43848D01*
X42374Y-43786D01*
X42338Y-43750D01*
X42374Y-43713D01*
X42400Y-43651D01*
X42400Y-43584D01*
X42400Y-43348D01*
X42374Y-43286D01*
X42338Y-43250D01*
X42374Y-43213D01*
X42400Y-43151D01*
X42400Y-43084D01*
X42400Y-42848D01*
X42374Y-42786D01*
X42338Y-42750D01*
X42374Y-42713D01*
X42400Y-42651D01*
X42400Y-42584D01*
X42400Y-42348D01*
X42374Y-42286D01*
X42327Y-42239D01*
X42265Y-42213D01*
X42198Y-42213D01*
X42100Y-42213D01*
X42100Y-38187D01*
X42100Y-37550D01*
X42100Y-37450D01*
X42100Y-36812D01*
X42037Y-36750D01*
X41850Y-36750D01*
X41758Y-36788D01*
X41688Y-36858D01*
X41650Y-36950D01*
X41650Y-37049D01*
X41650Y-37387D01*
X41712Y-37450D01*
X42100Y-37450D01*
X42100Y-37550D01*
X41712Y-37550D01*
X41650Y-37612D01*
X41650Y-37950D01*
X41650Y-38049D01*
X41688Y-38141D01*
X41758Y-38211D01*
X41850Y-38250D01*
X42037Y-38250D01*
X42100Y-38187D01*
X42100Y-42213D01*
X42050Y-42213D01*
X42050Y-40837D01*
X42050Y-40300D01*
X42050Y-40200D01*
X42050Y-39662D01*
X41987Y-39600D01*
X41750Y-39600D01*
X41658Y-39638D01*
X41588Y-39708D01*
X41550Y-39800D01*
X41550Y-39899D01*
X41550Y-40137D01*
X41612Y-40200D01*
X42050Y-40200D01*
X42050Y-40300D01*
X41612Y-40300D01*
X41550Y-40362D01*
X41550Y-40600D01*
X41550Y-40699D01*
X41588Y-40791D01*
X41658Y-40861D01*
X41750Y-40900D01*
X41987Y-40900D01*
X42050Y-40837D01*
X42050Y-42213D01*
X41608Y-42213D01*
X41546Y-42239D01*
X41499Y-42286D01*
X41473Y-42348D01*
X41473Y-42415D01*
X41473Y-42651D01*
X41499Y-42713D01*
X41535Y-42750D01*
X41499Y-42786D01*
X41473Y-42848D01*
X41473Y-42915D01*
X41473Y-43151D01*
X41499Y-43213D01*
X41535Y-43250D01*
X41499Y-43286D01*
X41473Y-43348D01*
X41473Y-43415D01*
X41473Y-43651D01*
X41499Y-43713D01*
X41535Y-43750D01*
X41499Y-43786D01*
X41473Y-43848D01*
X41473Y-43915D01*
X41473Y-44151D01*
X41499Y-44213D01*
X41535Y-44250D01*
X41499Y-44286D01*
X41473Y-44348D01*
X41473Y-44415D01*
X41473Y-44651D01*
X41499Y-44713D01*
X41535Y-44750D01*
X41499Y-44786D01*
X41473Y-44848D01*
X41473Y-44915D01*
X41473Y-45151D01*
X41499Y-45213D01*
X41535Y-45250D01*
X41499Y-45286D01*
X41473Y-45348D01*
X41473Y-45415D01*
X41473Y-45651D01*
X41499Y-45713D01*
X41546Y-45760D01*
X41608Y-45786D01*
X41675Y-45786D01*
X42265Y-45786D01*
X42327Y-45760D01*
X42351Y-45737D01*
X42401Y-45737D01*
X42601Y-45737D01*
X42981Y-46116D01*
X42981Y-46116D01*
X42981Y-46116D01*
X42981Y-46116D01*
X43070Y-46205D01*
X43070Y-46545D01*
X42933Y-46545D01*
X42871Y-46571D01*
X42824Y-46618D01*
X42798Y-46680D01*
X42798Y-46747D01*
X42798Y-47007D01*
X42815Y-47047D01*
X42321Y-47541D01*
X42274Y-47612D01*
X42257Y-47695D01*
X42257Y-48616D01*
X42254Y-48617D01*
X42184Y-48664D01*
X42136Y-48735D01*
X42120Y-48818D01*
X42120Y-49022D01*
X42065Y-49076D01*
X42018Y-49147D01*
X42001Y-49231D01*
X42001Y-49237D01*
X41999Y-49238D01*
X41952Y-49286D01*
X41926Y-49347D01*
X41926Y-49414D01*
X41926Y-49864D01*
X41952Y-49926D01*
X41999Y-49973D01*
X42001Y-49974D01*
X42001Y-50717D01*
X41860Y-50717D01*
X41690Y-50787D01*
X41559Y-50918D01*
X41488Y-51088D01*
X41488Y-51272D01*
X41559Y-51443D01*
X41689Y-51573D01*
X41859Y-51644D01*
X42044Y-51644D01*
X42214Y-51574D01*
X42345Y-51444D01*
X42415Y-51273D01*
X42416Y-51089D01*
X42394Y-51037D01*
X42421Y-50997D01*
X42421Y-50997D01*
X42437Y-50913D01*
X42437Y-50096D01*
X42825Y-50484D01*
X42896Y-50531D01*
X42896Y-50531D01*
X42979Y-50548D01*
X43656Y-50548D01*
X43656Y-50769D01*
X43612Y-50787D01*
X43481Y-50918D01*
X43410Y-51088D01*
X43410Y-51272D01*
X43481Y-51443D01*
X43611Y-51573D01*
X43781Y-51644D01*
X43966Y-51644D01*
X44136Y-51574D01*
X44267Y-51444D01*
X44337Y-51273D01*
X44338Y-51089D01*
X44267Y-50918D01*
X44137Y-50788D01*
X44092Y-50769D01*
X44092Y-50420D01*
X44155Y-50358D01*
X44202Y-50287D01*
X44202Y-50287D01*
X44218Y-50204D01*
X44218Y-49974D01*
X44221Y-49973D01*
X44268Y-49926D01*
X44293Y-49864D01*
X44293Y-49797D01*
X44293Y-49347D01*
X44268Y-49286D01*
X44221Y-49238D01*
X44159Y-49213D01*
X44092Y-49213D01*
X43842Y-49213D01*
X43780Y-49238D01*
X43750Y-49269D01*
X43737Y-49239D01*
X43667Y-49169D01*
X43575Y-49131D01*
X43513Y-49131D01*
X43450Y-49193D01*
X43450Y-49169D01*
X43480Y-49139D01*
X43506Y-49077D01*
X43506Y-49010D01*
X43506Y-48560D01*
X43480Y-48498D01*
X43433Y-48451D01*
X43371Y-48425D01*
X43304Y-48425D01*
X43281Y-48425D01*
X43281Y-47940D01*
X43267Y-47871D01*
X43269Y-47869D01*
X43295Y-47807D01*
X43295Y-47740D01*
X43295Y-47586D01*
X43318Y-47586D01*
X43318Y-47807D01*
X43344Y-47869D01*
X43347Y-47871D01*
X43347Y-47961D01*
X43409Y-48024D01*
X43436Y-48024D01*
X43528Y-47986D01*
X43572Y-47942D01*
X43680Y-47942D01*
X43742Y-47916D01*
X43789Y-47869D01*
X43815Y-47807D01*
X43815Y-47740D01*
X43815Y-47480D01*
X43789Y-47418D01*
X43785Y-47414D01*
X43785Y-47363D01*
X43768Y-47280D01*
X43768Y-47280D01*
X43721Y-47209D01*
X43653Y-47142D01*
X43680Y-47142D01*
X43742Y-47116D01*
X43789Y-47069D01*
X43815Y-47007D01*
X43815Y-46940D01*
X43815Y-46710D01*
X44662Y-45863D01*
X44709Y-45792D01*
X44709Y-45792D01*
X44726Y-45708D01*
X44726Y-44500D01*
X44709Y-44416D01*
X44662Y-44345D01*
X44591Y-44298D01*
X44508Y-44281D01*
X44496Y-44281D01*
X44464Y-44250D01*
X44477Y-44237D01*
X44527Y-44237D01*
X44617Y-44218D01*
X44694Y-44167D01*
X45119Y-43742D01*
X45146Y-43742D01*
X45272Y-43690D01*
X45369Y-43594D01*
X45421Y-43468D01*
X45421Y-43331D01*
X45369Y-43205D01*
X45273Y-43108D01*
X45227Y-43089D01*
X46754Y-41562D01*
X46802Y-41491D01*
X46802Y-41491D01*
X46818Y-41407D01*
X46818Y-41339D01*
X46955Y-41203D01*
X46997Y-41140D01*
X46997Y-56141D01*
X46997Y-56141D01*
G37*
G54D29*
X46997Y-56141D02*
X46974Y-56085D01*
X46672Y-55782D01*
X46277Y-55619D01*
X45850Y-55618D01*
X45455Y-55781D01*
X45153Y-56083D01*
X44989Y-56478D01*
X44988Y-56905D01*
X45151Y-57300D01*
X45453Y-57602D01*
X45512Y-57627D01*
X44708Y-57627D01*
X44708Y-55233D01*
X44708Y-55166D01*
X44708Y-54366D01*
X44682Y-54304D01*
X44635Y-54257D01*
X44573Y-54231D01*
X44506Y-54231D01*
X43826Y-54231D01*
X43764Y-54257D01*
X43717Y-54304D01*
X43691Y-54366D01*
X43691Y-54433D01*
X43691Y-54647D01*
X43669Y-54534D01*
X43559Y-54369D01*
X43394Y-54259D01*
X43200Y-54220D01*
X43005Y-54259D01*
X42840Y-54369D01*
X42730Y-54534D01*
X42700Y-54688D01*
X42669Y-54534D01*
X42559Y-54369D01*
X42394Y-54259D01*
X42200Y-54220D01*
X42005Y-54259D01*
X41840Y-54369D01*
X41730Y-54534D01*
X41691Y-54728D01*
X41691Y-54871D01*
X41730Y-55065D01*
X41840Y-55230D01*
X42005Y-55340D01*
X42200Y-55379D01*
X42394Y-55340D01*
X42559Y-55230D01*
X42669Y-55065D01*
X42700Y-54911D01*
X42730Y-55065D01*
X42840Y-55230D01*
X43005Y-55340D01*
X43200Y-55379D01*
X43394Y-55340D01*
X43559Y-55230D01*
X43669Y-55065D01*
X43691Y-54952D01*
X43691Y-55233D01*
X43717Y-55295D01*
X43764Y-55342D01*
X43826Y-55368D01*
X43893Y-55368D01*
X44573Y-55368D01*
X44635Y-55342D01*
X44682Y-55295D01*
X44708Y-55233D01*
X44708Y-57627D01*
X37609Y-57627D01*
X37609Y-49841D01*
X37609Y-36849D01*
X37487Y-36556D01*
X37471Y-36539D01*
X37471Y-32809D01*
X37471Y-32742D01*
X37471Y-31757D01*
X37445Y-31696D01*
X37398Y-31648D01*
X37336Y-31623D01*
X37269Y-31623D01*
X36285Y-31623D01*
X36223Y-31648D01*
X36176Y-31696D01*
X36150Y-31757D01*
X36150Y-31824D01*
X36150Y-32809D01*
X36176Y-32870D01*
X36223Y-32918D01*
X36285Y-32943D01*
X36352Y-32943D01*
X37336Y-32943D01*
X37398Y-32918D01*
X37445Y-32870D01*
X37471Y-32809D01*
X37471Y-36539D01*
X37263Y-36331D01*
X36970Y-36209D01*
X36652Y-36209D01*
X36359Y-36330D01*
X36134Y-36555D01*
X36013Y-36848D01*
X36012Y-37165D01*
X36134Y-37459D01*
X36358Y-37684D01*
X36651Y-37805D01*
X36969Y-37806D01*
X37262Y-37684D01*
X37487Y-37460D01*
X37608Y-37167D01*
X37609Y-36849D01*
X37609Y-49841D01*
X37487Y-49548D01*
X37263Y-49323D01*
X36970Y-49202D01*
X36652Y-49201D01*
X36359Y-49323D01*
X36134Y-49547D01*
X36013Y-49840D01*
X36012Y-50158D01*
X36134Y-50451D01*
X36358Y-50676D01*
X36651Y-50797D01*
X36969Y-50798D01*
X37262Y-50676D01*
X37487Y-50452D01*
X37608Y-50159D01*
X37609Y-49841D01*
X37609Y-57627D01*
X37471Y-57627D01*
X37471Y-54593D01*
X37371Y-54350D01*
X37185Y-54165D01*
X36942Y-54064D01*
X36680Y-54064D01*
X36437Y-54164D01*
X36251Y-54349D01*
X36150Y-54592D01*
X36150Y-54855D01*
X36250Y-55097D01*
X36436Y-55283D01*
X36679Y-55384D01*
X36941Y-55384D01*
X37184Y-55284D01*
X37370Y-55098D01*
X37471Y-54856D01*
X37471Y-54593D01*
X37471Y-57627D01*
X30522Y-57627D01*
X30522Y-49841D01*
X30522Y-36849D01*
X30470Y-36723D01*
X30470Y-32411D01*
X30462Y-32115D01*
X30364Y-31880D01*
X30249Y-31829D01*
X30178Y-31899D01*
X30178Y-31758D01*
X30127Y-31643D01*
X29852Y-31537D01*
X29556Y-31545D01*
X29321Y-31643D01*
X29270Y-31758D01*
X29724Y-32212D01*
X30178Y-31758D01*
X30178Y-31899D01*
X29795Y-32283D01*
X30249Y-32737D01*
X30364Y-32686D01*
X30470Y-32411D01*
X30470Y-36723D01*
X30401Y-36556D01*
X30178Y-36333D01*
X30178Y-32808D01*
X29724Y-32354D01*
X29653Y-32424D01*
X29653Y-32283D01*
X29199Y-31829D01*
X29084Y-31880D01*
X28978Y-32155D01*
X28986Y-32450D01*
X29084Y-32686D01*
X29199Y-32737D01*
X29653Y-32283D01*
X29653Y-32424D01*
X29270Y-32808D01*
X29321Y-32923D01*
X29596Y-33029D01*
X29891Y-33021D01*
X30127Y-32923D01*
X30178Y-32808D01*
X30178Y-36333D01*
X30177Y-36331D01*
X29883Y-36209D01*
X29566Y-36209D01*
X29272Y-36330D01*
X29048Y-36555D01*
X28926Y-36848D01*
X28926Y-37165D01*
X29047Y-37459D01*
X29271Y-37684D01*
X29564Y-37805D01*
X29882Y-37806D01*
X30175Y-37684D01*
X30400Y-37460D01*
X30522Y-37167D01*
X30522Y-36849D01*
X30522Y-49841D01*
X30401Y-49548D01*
X30177Y-49323D01*
X29883Y-49202D01*
X29566Y-49201D01*
X29272Y-49323D01*
X29048Y-49547D01*
X28926Y-49840D01*
X28926Y-50158D01*
X29047Y-50451D01*
X29271Y-50676D01*
X29564Y-50797D01*
X29882Y-50798D01*
X30175Y-50676D01*
X30400Y-50452D01*
X30522Y-50159D01*
X30522Y-49841D01*
X30522Y-57627D01*
X30384Y-57627D01*
X30384Y-55249D01*
X30384Y-55183D01*
X30384Y-54198D01*
X30359Y-54137D01*
X30311Y-54089D01*
X30249Y-54064D01*
X30183Y-54064D01*
X29198Y-54064D01*
X29137Y-54089D01*
X29089Y-54137D01*
X29064Y-54198D01*
X29064Y-54265D01*
X29064Y-55249D01*
X29089Y-55311D01*
X29137Y-55359D01*
X29198Y-55384D01*
X29265Y-55384D01*
X30249Y-55384D01*
X30311Y-55359D01*
X30359Y-55311D01*
X30384Y-55249D01*
X30384Y-57627D01*
X27716Y-57627D01*
X27772Y-57603D01*
X28075Y-57302D01*
X28239Y-56907D01*
X28239Y-56480D01*
X28076Y-56085D01*
X27774Y-55782D01*
X27379Y-55619D01*
X26952Y-55618D01*
X26557Y-55781D01*
X26255Y-56083D01*
X26231Y-56142D01*
X26231Y-30866D01*
X26254Y-30922D01*
X26556Y-31224D01*
X26950Y-31388D01*
X27378Y-31389D01*
X27772Y-31225D01*
X28075Y-30924D01*
X28239Y-30529D01*
X28239Y-30102D01*
X28076Y-29707D01*
X27774Y-29404D01*
X27716Y-29380D01*
X45511Y-29380D01*
X45455Y-29403D01*
X45153Y-29705D01*
X44989Y-30100D01*
X44988Y-30527D01*
X45151Y-30922D01*
X45453Y-31224D01*
X45848Y-31388D01*
X46275Y-31389D01*
X46670Y-31225D01*
X46972Y-30924D01*
X46997Y-30865D01*
X46997Y-35954D01*
X46955Y-35892D01*
X46675Y-35612D01*
X46680Y-35609D01*
X46790Y-35444D01*
X46829Y-35250D01*
X46790Y-35055D01*
X46680Y-34890D01*
X46526Y-34787D01*
X46609Y-34758D01*
X46781Y-34605D01*
X46881Y-34397D01*
X46882Y-34391D01*
X46882Y-34108D01*
X46881Y-34102D01*
X46781Y-33894D01*
X46628Y-33758D01*
X46683Y-33758D01*
X46745Y-33732D01*
X46792Y-33685D01*
X46818Y-33623D01*
X46818Y-33556D01*
X46818Y-32876D01*
X46792Y-32814D01*
X46745Y-32767D01*
X46683Y-32741D01*
X46616Y-32741D01*
X45816Y-32741D01*
X45754Y-32767D01*
X45707Y-32814D01*
X45681Y-32876D01*
X45681Y-32943D01*
X45681Y-33623D01*
X45707Y-33685D01*
X45754Y-33732D01*
X45816Y-33758D01*
X45871Y-33758D01*
X45718Y-33894D01*
X45618Y-34102D01*
X45617Y-34108D01*
X45664Y-34200D01*
X46200Y-34200D01*
X46200Y-34192D01*
X46300Y-34192D01*
X46300Y-34200D01*
X46835Y-34200D01*
X46882Y-34108D01*
X46882Y-34391D01*
X46835Y-34300D01*
X46300Y-34300D01*
X46300Y-34307D01*
X46200Y-34307D01*
X46200Y-34300D01*
X45664Y-34300D01*
X45617Y-34391D01*
X45618Y-34397D01*
X45718Y-34605D01*
X45890Y-34758D01*
X45973Y-34787D01*
X45819Y-34890D01*
X45709Y-35055D01*
X45670Y-35250D01*
X45709Y-35444D01*
X45819Y-35609D01*
X45973Y-35712D01*
X45890Y-35741D01*
X45718Y-35894D01*
X45618Y-36102D01*
X45617Y-36108D01*
X45664Y-36200D01*
X46200Y-36200D01*
X46200Y-36192D01*
X46300Y-36192D01*
X46300Y-36200D01*
X46307Y-36200D01*
X46307Y-36300D01*
X46300Y-36300D01*
X46300Y-36307D01*
X46200Y-36307D01*
X46200Y-36300D01*
X45664Y-36300D01*
X45617Y-36391D01*
X45618Y-36397D01*
X45718Y-36605D01*
X45890Y-36758D01*
X45973Y-36787D01*
X45819Y-36890D01*
X45737Y-37012D01*
X45704Y-37012D01*
X45675Y-37007D01*
X44894Y-37007D01*
X44894Y-36107D01*
X44879Y-36032D01*
X44876Y-36017D01*
X44876Y-36017D01*
X44825Y-35940D01*
X44825Y-35940D01*
X44711Y-35826D01*
X44643Y-35780D01*
X44643Y-35541D01*
X44617Y-35479D01*
X44570Y-35432D01*
X44508Y-35406D01*
X44441Y-35406D01*
X43991Y-35406D01*
X43929Y-35432D01*
X43899Y-35462D01*
X43855Y-35462D01*
X43765Y-35481D01*
X43717Y-35512D01*
X43615Y-35512D01*
X43615Y-35479D01*
X43615Y-35203D01*
X43589Y-35141D01*
X43542Y-35094D01*
X43487Y-35071D01*
X43487Y-35067D01*
X43468Y-34977D01*
X43417Y-34900D01*
X43323Y-34806D01*
X43343Y-34758D01*
X43343Y-34691D01*
X43343Y-34241D01*
X43317Y-34179D01*
X43314Y-34176D01*
X43373Y-34118D01*
X43883Y-34118D01*
X43945Y-34092D01*
X43992Y-34045D01*
X44018Y-33983D01*
X44018Y-33916D01*
X44018Y-32516D01*
X43992Y-32454D01*
X43945Y-32407D01*
X43883Y-32381D01*
X43816Y-32381D01*
X43116Y-32381D01*
X43054Y-32407D01*
X43007Y-32454D01*
X42981Y-32516D01*
X42981Y-32579D01*
X42615Y-32213D01*
X42538Y-32161D01*
X42447Y-32143D01*
X41644Y-32143D01*
X41603Y-32102D01*
X41477Y-32050D01*
X41341Y-32050D01*
X41215Y-32102D01*
X41118Y-32199D01*
X41066Y-32325D01*
X41066Y-32461D01*
X41118Y-32587D01*
X41214Y-32684D01*
X41243Y-32696D01*
X41243Y-35721D01*
X41261Y-35812D01*
X41313Y-35889D01*
X41716Y-36292D01*
X41716Y-36292D01*
X41793Y-36343D01*
X41793Y-36343D01*
X41808Y-36346D01*
X41883Y-36362D01*
X41914Y-36362D01*
X41957Y-36405D01*
X42019Y-36431D01*
X42086Y-36431D01*
X42480Y-36431D01*
X42542Y-36405D01*
X42589Y-36358D01*
X42615Y-36296D01*
X42615Y-36229D01*
X42615Y-36073D01*
X42658Y-36029D01*
X42697Y-35937D01*
X42697Y-35862D01*
X42634Y-35800D01*
X42300Y-35800D01*
X42300Y-35807D01*
X42200Y-35807D01*
X42200Y-35800D01*
X42192Y-35800D01*
X42192Y-35700D01*
X42200Y-35700D01*
X42200Y-35692D01*
X42300Y-35692D01*
X42300Y-35700D01*
X42634Y-35700D01*
X42697Y-35637D01*
X42697Y-35562D01*
X42658Y-35470D01*
X42615Y-35426D01*
X42615Y-35203D01*
X42589Y-35141D01*
X42542Y-35094D01*
X42480Y-35068D01*
X42464Y-35068D01*
X42451Y-35003D01*
X42451Y-35003D01*
X42404Y-34932D01*
X42392Y-34920D01*
X42400Y-34912D01*
X42400Y-34550D01*
X42392Y-34550D01*
X42392Y-34450D01*
X42400Y-34450D01*
X42400Y-34442D01*
X42500Y-34442D01*
X42500Y-34450D01*
X42507Y-34450D01*
X42507Y-34550D01*
X42500Y-34550D01*
X42500Y-34912D01*
X42562Y-34975D01*
X42624Y-34975D01*
X42716Y-34936D01*
X42786Y-34866D01*
X42799Y-34836D01*
X42812Y-34850D01*
X42812Y-34894D01*
X42831Y-34984D01*
X42882Y-35061D01*
X42947Y-35104D01*
X42910Y-35141D01*
X42884Y-35203D01*
X42884Y-35270D01*
X42884Y-35546D01*
X42891Y-35562D01*
X42884Y-35578D01*
X42884Y-35645D01*
X42884Y-35921D01*
X42891Y-35937D01*
X42884Y-35953D01*
X42884Y-36020D01*
X42884Y-36296D01*
X42910Y-36358D01*
X42957Y-36405D01*
X43019Y-36431D01*
X43086Y-36431D01*
X43480Y-36431D01*
X43542Y-36405D01*
X43589Y-36358D01*
X43595Y-36343D01*
X43609Y-36343D01*
X43720Y-36454D01*
X43791Y-36501D01*
X43791Y-36501D01*
X43874Y-36518D01*
X43881Y-36518D01*
X43882Y-36520D01*
X43929Y-36567D01*
X43991Y-36593D01*
X44031Y-36593D01*
X44031Y-36656D01*
X43991Y-36656D01*
X43929Y-36682D01*
X43882Y-36729D01*
X43856Y-36791D01*
X43856Y-36858D01*
X43856Y-37034D01*
X43793Y-37076D01*
X43768Y-37101D01*
X43768Y-36966D01*
X43742Y-36904D01*
X43695Y-36857D01*
X43633Y-36831D01*
X43566Y-36831D01*
X43066Y-36831D01*
X43004Y-36857D01*
X42957Y-36904D01*
X42931Y-36966D01*
X42931Y-37033D01*
X42931Y-37262D01*
X42930Y-37262D01*
X42840Y-37281D01*
X42763Y-37332D01*
X42650Y-37445D01*
X42645Y-37449D01*
X42587Y-37449D01*
X42650Y-37387D01*
X42650Y-37049D01*
X42650Y-36950D01*
X42611Y-36858D01*
X42541Y-36788D01*
X42449Y-36750D01*
X42262Y-36750D01*
X42200Y-36812D01*
X42200Y-37450D01*
X42207Y-37450D01*
X42207Y-37550D01*
X42200Y-37550D01*
X42200Y-38187D01*
X42262Y-38250D01*
X42449Y-38250D01*
X42462Y-38244D01*
X42462Y-38649D01*
X42432Y-38679D01*
X42406Y-38741D01*
X42406Y-38808D01*
X42406Y-39258D01*
X42432Y-39320D01*
X42462Y-39350D01*
X42462Y-39394D01*
X42462Y-39605D01*
X42449Y-39600D01*
X42212Y-39600D01*
X42150Y-39662D01*
X42150Y-40200D01*
X42157Y-40200D01*
X42157Y-40300D01*
X42150Y-40300D01*
X42150Y-40837D01*
X42212Y-40900D01*
X42449Y-40900D01*
X42462Y-40894D01*
X42462Y-45262D01*
X42401Y-45262D01*
X42351Y-45262D01*
X42338Y-45250D01*
X42374Y-45213D01*
X42400Y-45151D01*
X42400Y-45084D01*
X42400Y-44848D01*
X42374Y-44786D01*
X42338Y-44750D01*
X42374Y-44713D01*
X42400Y-44651D01*
X42400Y-44584D01*
X42400Y-44348D01*
X42374Y-44286D01*
X42338Y-44250D01*
X42374Y-44213D01*
X42400Y-44151D01*
X42400Y-44084D01*
X42400Y-43848D01*
X42374Y-43786D01*
X42338Y-43750D01*
X42374Y-43713D01*
X42400Y-43651D01*
X42400Y-43584D01*
X42400Y-43348D01*
X42374Y-43286D01*
X42338Y-43250D01*
X42374Y-43213D01*
X42400Y-43151D01*
X42400Y-43084D01*
X42400Y-42848D01*
X42374Y-42786D01*
X42338Y-42750D01*
X42374Y-42713D01*
X42400Y-42651D01*
X42400Y-42584D01*
X42400Y-42348D01*
X42374Y-42286D01*
X42327Y-42239D01*
X42265Y-42213D01*
X42198Y-42213D01*
X42100Y-42213D01*
X42100Y-38187D01*
X42100Y-37550D01*
X42100Y-37450D01*
X42100Y-36812D01*
X42037Y-36750D01*
X41850Y-36750D01*
X41758Y-36788D01*
X41688Y-36858D01*
X41650Y-36950D01*
X41650Y-37049D01*
X41650Y-37387D01*
X41712Y-37450D01*
X42100Y-37450D01*
X42100Y-37550D01*
X41712Y-37550D01*
X41650Y-37612D01*
X41650Y-37950D01*
X41650Y-38049D01*
X41688Y-38141D01*
X41758Y-38211D01*
X41850Y-38250D01*
X42037Y-38250D01*
X42100Y-38187D01*
X42100Y-42213D01*
X42050Y-42213D01*
X42050Y-40837D01*
X42050Y-40300D01*
X42050Y-40200D01*
X42050Y-39662D01*
X41987Y-39600D01*
X41750Y-39600D01*
X41658Y-39638D01*
X41588Y-39708D01*
X41550Y-39800D01*
X41550Y-39899D01*
X41550Y-40137D01*
X41612Y-40200D01*
X42050Y-40200D01*
X42050Y-40300D01*
X41612Y-40300D01*
X41550Y-40362D01*
X41550Y-40600D01*
X41550Y-40699D01*
X41588Y-40791D01*
X41658Y-40861D01*
X41750Y-40900D01*
X41987Y-40900D01*
X42050Y-40837D01*
X42050Y-42213D01*
X41608Y-42213D01*
X41546Y-42239D01*
X41499Y-42286D01*
X41473Y-42348D01*
X41473Y-42415D01*
X41473Y-42651D01*
X41499Y-42713D01*
X41535Y-42750D01*
X41499Y-42786D01*
X41473Y-42848D01*
X41473Y-42915D01*
X41473Y-43151D01*
X41499Y-43213D01*
X41535Y-43250D01*
X41499Y-43286D01*
X41473Y-43348D01*
X41473Y-43415D01*
X41473Y-43651D01*
X41499Y-43713D01*
X41535Y-43750D01*
X41499Y-43786D01*
X41473Y-43848D01*
X41473Y-43915D01*
X41473Y-44151D01*
X41499Y-44213D01*
X41535Y-44250D01*
X41499Y-44286D01*
X41473Y-44348D01*
X41473Y-44415D01*
X41473Y-44651D01*
X41499Y-44713D01*
X41535Y-44750D01*
X41499Y-44786D01*
X41473Y-44848D01*
X41473Y-44915D01*
X41473Y-45151D01*
X41499Y-45213D01*
X41535Y-45250D01*
X41499Y-45286D01*
X41473Y-45348D01*
X41473Y-45415D01*
X41473Y-45651D01*
X41499Y-45713D01*
X41546Y-45760D01*
X41608Y-45786D01*
X41675Y-45786D01*
X42265Y-45786D01*
X42327Y-45760D01*
X42351Y-45737D01*
X42401Y-45737D01*
X42601Y-45737D01*
X42981Y-46116D01*
X42981Y-46116D01*
X42981Y-46116D01*
X42981Y-46116D01*
X43070Y-46205D01*
X43070Y-46545D01*
X42933Y-46545D01*
X42871Y-46571D01*
X42824Y-46618D01*
X42798Y-46680D01*
X42798Y-46747D01*
X42798Y-47007D01*
X42815Y-47047D01*
X42321Y-47541D01*
X42274Y-47612D01*
X42257Y-47695D01*
X42257Y-48616D01*
X42254Y-48617D01*
X42184Y-48664D01*
X42136Y-48735D01*
X42120Y-48818D01*
X42120Y-49022D01*
X42065Y-49076D01*
X42018Y-49147D01*
X42001Y-49231D01*
X42001Y-49237D01*
X41999Y-49238D01*
X41952Y-49286D01*
X41926Y-49347D01*
X41926Y-49414D01*
X41926Y-49864D01*
X41952Y-49926D01*
X41999Y-49973D01*
X42001Y-49974D01*
X42001Y-50717D01*
X41860Y-50717D01*
X41690Y-50787D01*
X41559Y-50918D01*
X41488Y-51088D01*
X41488Y-51272D01*
X41559Y-51443D01*
X41689Y-51573D01*
X41859Y-51644D01*
X42044Y-51644D01*
X42214Y-51574D01*
X42345Y-51444D01*
X42415Y-51273D01*
X42416Y-51089D01*
X42394Y-51037D01*
X42421Y-50997D01*
X42421Y-50997D01*
X42437Y-50913D01*
X42437Y-50096D01*
X42825Y-50484D01*
X42896Y-50531D01*
X42896Y-50531D01*
X42979Y-50548D01*
X43656Y-50548D01*
X43656Y-50769D01*
X43612Y-50787D01*
X43481Y-50918D01*
X43410Y-51088D01*
X43410Y-51272D01*
X43481Y-51443D01*
X43611Y-51573D01*
X43781Y-51644D01*
X43966Y-51644D01*
X44136Y-51574D01*
X44267Y-51444D01*
X44337Y-51273D01*
X44338Y-51089D01*
X44267Y-50918D01*
X44137Y-50788D01*
X44092Y-50769D01*
X44092Y-50420D01*
X44155Y-50358D01*
X44202Y-50287D01*
X44202Y-50287D01*
X44218Y-50204D01*
X44218Y-49974D01*
X44221Y-49973D01*
X44268Y-49926D01*
X44293Y-49864D01*
X44293Y-49797D01*
X44293Y-49347D01*
X44268Y-49286D01*
X44221Y-49238D01*
X44159Y-49213D01*
X44092Y-49213D01*
X43842Y-49213D01*
X43780Y-49238D01*
X43750Y-49269D01*
X43737Y-49239D01*
X43667Y-49169D01*
X43575Y-49131D01*
X43513Y-49131D01*
X43450Y-49193D01*
X43450Y-49169D01*
X43480Y-49139D01*
X43506Y-49077D01*
X43506Y-49010D01*
X43506Y-48560D01*
X43480Y-48498D01*
X43433Y-48451D01*
X43371Y-48425D01*
X43304Y-48425D01*
X43281Y-48425D01*
X43281Y-47940D01*
X43267Y-47871D01*
X43269Y-47869D01*
X43295Y-47807D01*
X43295Y-47740D01*
X43295Y-47586D01*
X43318Y-47586D01*
X43318Y-47807D01*
X43344Y-47869D01*
X43347Y-47871D01*
X43347Y-47961D01*
X43409Y-48024D01*
X43436Y-48024D01*
X43528Y-47986D01*
X43572Y-47942D01*
X43680Y-47942D01*
X43742Y-47916D01*
X43789Y-47869D01*
X43815Y-47807D01*
X43815Y-47740D01*
X43815Y-47480D01*
X43789Y-47418D01*
X43785Y-47414D01*
X43785Y-47363D01*
X43768Y-47280D01*
X43768Y-47280D01*
X43721Y-47209D01*
X43653Y-47142D01*
X43680Y-47142D01*
X43742Y-47116D01*
X43789Y-47069D01*
X43815Y-47007D01*
X43815Y-46940D01*
X43815Y-46710D01*
X44662Y-45863D01*
X44709Y-45792D01*
X44709Y-45792D01*
X44726Y-45708D01*
X44726Y-44500D01*
X44709Y-44416D01*
X44662Y-44345D01*
X44591Y-44298D01*
X44508Y-44281D01*
X44496Y-44281D01*
X44464Y-44250D01*
X44477Y-44237D01*
X44527Y-44237D01*
X44617Y-44218D01*
X44694Y-44167D01*
X45119Y-43742D01*
X45146Y-43742D01*
X45272Y-43690D01*
X45369Y-43594D01*
X45421Y-43468D01*
X45421Y-43331D01*
X45369Y-43205D01*
X45273Y-43108D01*
X45227Y-43089D01*
X46754Y-41562D01*
X46802Y-41491D01*
X46802Y-41491D01*
X46818Y-41407D01*
X46818Y-41339D01*
X46955Y-41203D01*
X46997Y-41140D01*
X46997Y-56141D01*
M02*
