M48
;DRILL file {pcbnew (2014-04-07 BZR 4791)-product} date Fri 02 May 2014 10:57:55 AM CEST
;FORMAT={-:-/ absolute / inch / decimal}
FMAT,2
INCH,TZ
T1C0.025
T2C0.032
T3C0.040
T4C0.055
T5C0.071
T6C0.079
%
G90
G05
M72
T1
X4.1409Y-3.2394
X4.5079Y-4.34
T2
X4.1952Y-5.1181
X4.3874Y-5.1181
T3
X4.22Y-5.48
X4.32Y-5.48
X4.42Y-5.48
X4.625Y-3.325
X4.625Y-3.425
X4.625Y-3.525
X4.625Y-3.625
X4.625Y-3.725
X4.625Y-3.825
T4
X2.9724Y-3.2283
X2.9724Y-5.4724
X3.6811Y-3.2283
X3.6811Y-5.4724
T5
X2.9724Y-3.7008
X2.9724Y-5.
X3.6811Y-3.7008
X3.6811Y-5.
T6
X2.7165Y-3.0315
X2.7165Y-5.6693
X4.6063Y-3.0315
X4.6063Y-5.6693
T0
M30
