%FSLAX34Y34*%
G04 Gerber Fmt 3.4, Leading zero omitted, Abs format*
G04 (created by PCBNEW (2014-04-07 BZR 4791)-product) date ons  9 apr 2014 20:45:43*
%MOIN*%
G01*
G70*
G90*
G04 APERTURE LIST*
%ADD10C,0.005906*%
%ADD11R,0.052874X0.032874*%
%ADD12R,0.075874X0.075874*%
%ADD13O,0.075874X0.075874*%
%ADD14C,0.133874*%
%ADD15R,0.027874X0.057874*%
%ADD16C,0.078740*%
%ADD17R,0.039374X0.047274*%
G04 APERTURE END LIST*
G54D10*
G54D11*
X50000Y-40063D03*
X50000Y-39463D03*
G54D12*
X52724Y-34933D03*
G54D13*
X52724Y-35933D03*
X53724Y-34933D03*
X53724Y-35933D03*
X54724Y-34933D03*
X54724Y-35933D03*
X55724Y-34933D03*
X55724Y-35933D03*
X56724Y-34933D03*
X56724Y-35933D03*
G54D14*
X60629Y-35433D03*
X48818Y-35433D03*
G54D11*
X50000Y-41244D03*
X50000Y-40644D03*
X50000Y-41825D03*
X50000Y-42425D03*
X58661Y-42032D03*
X58661Y-41432D03*
X59448Y-42032D03*
X59448Y-41432D03*
X60236Y-42032D03*
X60236Y-41432D03*
G54D15*
X51080Y-39144D03*
X51580Y-39144D03*
X52080Y-39144D03*
X52580Y-39144D03*
X53080Y-39144D03*
X53580Y-39144D03*
X54080Y-39144D03*
X54580Y-39144D03*
X55080Y-39144D03*
X55580Y-39144D03*
X56080Y-39144D03*
X56580Y-39144D03*
X57080Y-39144D03*
X57580Y-39144D03*
X57580Y-42744D03*
X57080Y-42744D03*
X56580Y-42744D03*
X56080Y-42744D03*
X55580Y-42744D03*
X55080Y-42744D03*
X54580Y-42744D03*
X54080Y-42744D03*
X53580Y-42744D03*
X53080Y-42744D03*
X52580Y-42744D03*
X52080Y-42744D03*
X51580Y-42744D03*
X51080Y-42744D03*
G54D16*
X48236Y-43944D03*
X49236Y-43944D03*
X50236Y-43944D03*
X51236Y-43944D03*
X52236Y-43944D03*
X53236Y-43944D03*
X54236Y-43944D03*
X55236Y-43944D03*
X56236Y-43944D03*
X57236Y-43944D03*
X58236Y-43944D03*
X59236Y-43944D03*
X60236Y-43944D03*
X61236Y-43944D03*
X61236Y-37944D03*
X60236Y-37944D03*
X59236Y-37944D03*
X58236Y-37944D03*
X57236Y-37944D03*
X56236Y-37944D03*
X55236Y-37944D03*
X54236Y-37944D03*
X53236Y-37944D03*
X52236Y-37944D03*
X51236Y-37944D03*
X50236Y-37944D03*
X49236Y-37944D03*
X48236Y-37944D03*
G54D17*
X59448Y-40590D03*
X59823Y-39724D03*
X59073Y-39724D03*
M02*
