%FSLAX34Y34*%
G04 Gerber Fmt 3.4, Leading zero omitted, Abs format*
G04 (created by PCBNEW (2014-04-07 BZR 4791)-product) date ons  9 apr 2014 20:45:43*
%MOIN*%
G01*
G70*
G90*
G04 APERTURE LIST*
%ADD10C,0.005906*%
%ADD11C,0.031496*%
G04 APERTURE END LIST*
G54D10*
X47362Y-44685D02*
X47362Y-37204D01*
X62165Y-40944D02*
X62165Y-44685D01*
X62165Y-40944D02*
X62165Y-37204D01*
G54D11*
X61220Y-42913D02*
G75*
G03X61220Y-42913I-196J0D01*
G74*
G01*
X57677Y-41338D02*
X57480Y-42913D01*
X60433Y-41338D02*
X60236Y-42913D01*
X60629Y-39173D02*
X60433Y-40748D01*
X57874Y-39173D02*
X57677Y-40748D01*
X57874Y-43110D02*
X59842Y-43110D01*
X58267Y-38779D02*
X60236Y-38779D01*
X58070Y-40944D02*
X60039Y-40944D01*
X53543Y-40748D02*
X55511Y-40748D01*
X53740Y-38582D02*
X55708Y-38582D01*
X53346Y-42913D02*
X55314Y-42913D01*
X53346Y-38976D02*
X53149Y-40551D01*
X56102Y-38976D02*
X55905Y-40551D01*
X55905Y-41141D02*
X55708Y-42716D01*
X53149Y-41141D02*
X52952Y-42716D01*
X56692Y-42716D02*
G75*
G03X56692Y-42716I-196J0D01*
G74*
G01*
X52165Y-42716D02*
G75*
G03X52165Y-42716I-196J0D01*
G74*
G01*
X48622Y-41141D02*
X48425Y-42716D01*
X51377Y-41141D02*
X51181Y-42716D01*
X51574Y-38976D02*
X51377Y-40551D01*
X48818Y-38976D02*
X48622Y-40551D01*
X48818Y-42913D02*
X50787Y-42913D01*
X49212Y-38582D02*
X51181Y-38582D01*
X49015Y-40748D02*
X50984Y-40748D01*
G54D10*
X47362Y-37952D02*
X47362Y-43937D01*
X47362Y-44685D02*
X54763Y-44685D01*
X54763Y-44685D02*
X62165Y-44685D01*
X54763Y-37204D02*
X62165Y-37204D01*
X47362Y-37204D02*
X54763Y-37204D01*
X47422Y-42425D02*
X47740Y-42425D01*
X47778Y-42407D01*
X47797Y-42388D01*
X47815Y-42350D01*
X47815Y-42275D01*
X47797Y-42238D01*
X47778Y-42219D01*
X47740Y-42200D01*
X47422Y-42200D01*
X47459Y-42032D02*
X47440Y-42013D01*
X47422Y-41976D01*
X47422Y-41882D01*
X47440Y-41844D01*
X47459Y-41826D01*
X47497Y-41807D01*
X47534Y-41807D01*
X47590Y-41826D01*
X47815Y-42050D01*
X47815Y-41807D01*
X47609Y-41226D02*
X47628Y-41169D01*
X47647Y-41151D01*
X47684Y-41132D01*
X47740Y-41132D01*
X47778Y-41151D01*
X47797Y-41169D01*
X47815Y-41207D01*
X47815Y-41357D01*
X47422Y-41357D01*
X47422Y-41226D01*
X47440Y-41188D01*
X47459Y-41169D01*
X47497Y-41151D01*
X47534Y-41151D01*
X47572Y-41169D01*
X47590Y-41188D01*
X47609Y-41226D01*
X47609Y-41357D01*
X47778Y-40738D02*
X47797Y-40757D01*
X47815Y-40813D01*
X47815Y-40851D01*
X47797Y-40907D01*
X47759Y-40944D01*
X47722Y-40963D01*
X47647Y-40982D01*
X47590Y-40982D01*
X47515Y-40963D01*
X47478Y-40944D01*
X47440Y-40907D01*
X47422Y-40851D01*
X47422Y-40813D01*
X47440Y-40757D01*
X47459Y-40738D01*
X47422Y-40382D02*
X47422Y-40569D01*
X47609Y-40588D01*
X47590Y-40569D01*
X47572Y-40532D01*
X47572Y-40438D01*
X47590Y-40401D01*
X47609Y-40382D01*
X47647Y-40363D01*
X47740Y-40363D01*
X47778Y-40382D01*
X47797Y-40401D01*
X47815Y-40438D01*
X47815Y-40532D01*
X47797Y-40569D01*
X47778Y-40588D01*
X47422Y-40026D02*
X47422Y-40101D01*
X47440Y-40138D01*
X47459Y-40157D01*
X47515Y-40194D01*
X47590Y-40213D01*
X47740Y-40213D01*
X47778Y-40194D01*
X47797Y-40176D01*
X47815Y-40138D01*
X47815Y-40063D01*
X47797Y-40026D01*
X47778Y-40007D01*
X47740Y-39988D01*
X47647Y-39988D01*
X47609Y-40007D01*
X47590Y-40026D01*
X47572Y-40063D01*
X47572Y-40138D01*
X47590Y-40176D01*
X47609Y-40194D01*
X47647Y-40213D01*
X47853Y-39913D02*
X47853Y-39613D01*
X47815Y-39313D02*
X47815Y-39538D01*
X47815Y-39426D02*
X47422Y-39426D01*
X47478Y-39463D01*
X47515Y-39501D01*
X47534Y-39538D01*
X47815Y-38938D02*
X47815Y-39163D01*
X47815Y-39051D02*
X47422Y-39051D01*
X47478Y-39088D01*
X47515Y-39126D01*
X47534Y-39163D01*
M02*
