%FSLAX34Y34*%
G04 Gerber Fmt 3.4, Leading zero omitted, Abs format*
G04 (created by PCBNEW (2014-04-07 BZR 4791)-product) date ons  9 apr 2014 20:45:43*
%MOIN*%
G01*
G70*
G90*
G04 APERTURE LIST*
%ADD10C,0.005906*%
%ADD11R,0.068000X0.068000*%
%ADD12O,0.068000X0.068000*%
%ADD13C,0.126000*%
%ADD14C,0.070866*%
%ADD15C,0.035000*%
%ADD16C,0.013780*%
%ADD17C,0.010000*%
G04 APERTURE END LIST*
G54D10*
G54D11*
X52724Y-34933D03*
G54D12*
X52724Y-35933D03*
X53724Y-34933D03*
X53724Y-35933D03*
X54724Y-34933D03*
X54724Y-35933D03*
X55724Y-34933D03*
X55724Y-35933D03*
X56724Y-34933D03*
X56724Y-35933D03*
G54D13*
X60629Y-35433D03*
X48818Y-35433D03*
G54D14*
X48236Y-43944D03*
X49236Y-43944D03*
X50236Y-43944D03*
X51236Y-43944D03*
X52236Y-43944D03*
X53236Y-43944D03*
X54236Y-43944D03*
X55236Y-43944D03*
X56236Y-43944D03*
X57236Y-43944D03*
X58236Y-43944D03*
X59236Y-43944D03*
X60236Y-43944D03*
X61236Y-43944D03*
X61236Y-37944D03*
X60236Y-37944D03*
X59236Y-37944D03*
X58236Y-37944D03*
X57236Y-37944D03*
X56236Y-37944D03*
X55236Y-37944D03*
X54236Y-37944D03*
X53236Y-37944D03*
X52236Y-37944D03*
X51236Y-37944D03*
X50236Y-37944D03*
X49236Y-37944D03*
X48236Y-37944D03*
G54D15*
X48478Y-39171D03*
X53950Y-40976D03*
X55531Y-39894D03*
X52608Y-40830D03*
X54371Y-41810D03*
X52106Y-35785D03*
G54D16*
X52215Y-34933D02*
X50171Y-36977D01*
X50171Y-36977D02*
X48443Y-36977D01*
X48443Y-36977D02*
X47703Y-37716D01*
X47703Y-37716D02*
X47703Y-38396D01*
X47703Y-38396D02*
X48478Y-39171D01*
X52724Y-34933D02*
X52215Y-34933D01*
G54D17*
X53950Y-38459D02*
X54721Y-38459D01*
X54721Y-38459D02*
X55236Y-37944D01*
X51236Y-37944D02*
X51750Y-38459D01*
X51750Y-38459D02*
X53950Y-38459D01*
X53950Y-38459D02*
X53950Y-40976D01*
X55236Y-37944D02*
X55741Y-38450D01*
X55741Y-38450D02*
X59730Y-38450D01*
X59730Y-38450D02*
X60236Y-37944D01*
X60967Y-37946D02*
X59019Y-39894D01*
X59019Y-39894D02*
X55531Y-39894D01*
X60967Y-37946D02*
X60455Y-37434D01*
X60455Y-37434D02*
X56746Y-37434D01*
X56746Y-37434D02*
X56236Y-37944D01*
X61236Y-37944D02*
X60968Y-37944D01*
X60968Y-37944D02*
X60967Y-37946D01*
X60236Y-43944D02*
X60742Y-43438D01*
X60742Y-43438D02*
X61458Y-43438D01*
X61458Y-43438D02*
X61757Y-43736D01*
X61757Y-43736D02*
X61757Y-44139D01*
X61757Y-44139D02*
X61243Y-44652D01*
X61243Y-44652D02*
X55944Y-44652D01*
X55944Y-44652D02*
X55236Y-43944D01*
X51236Y-43944D02*
X51741Y-44450D01*
X51741Y-44450D02*
X54730Y-44450D01*
X54730Y-44450D02*
X55236Y-43944D01*
X50236Y-43944D02*
X52608Y-41572D01*
X52608Y-41572D02*
X52608Y-40830D01*
X54371Y-41810D02*
X54001Y-41810D01*
X54001Y-41810D02*
X53078Y-40886D01*
X53078Y-40886D02*
X53078Y-40840D01*
X53078Y-40840D02*
X52743Y-40505D01*
X52743Y-40505D02*
X52473Y-40505D01*
X52473Y-40505D02*
X49236Y-43742D01*
X49236Y-43742D02*
X49236Y-43944D01*
X58236Y-43944D02*
X56101Y-41810D01*
X56101Y-41810D02*
X54371Y-41810D01*
X61236Y-43944D02*
X60731Y-44449D01*
X60731Y-44449D02*
X56740Y-44449D01*
X56740Y-44449D02*
X56236Y-43944D01*
X56236Y-43944D02*
X55726Y-43435D01*
X55726Y-43435D02*
X52745Y-43435D01*
X52745Y-43435D02*
X52236Y-43944D01*
X49236Y-37944D02*
X49759Y-37421D01*
X49759Y-37421D02*
X52713Y-37421D01*
X52713Y-37421D02*
X53236Y-37944D01*
X59236Y-43944D02*
X56718Y-41427D01*
X56718Y-41427D02*
X53902Y-41427D01*
X53902Y-41427D02*
X53278Y-40803D01*
X53278Y-40803D02*
X53278Y-40757D01*
X53278Y-40757D02*
X52825Y-40304D01*
X52825Y-40304D02*
X50848Y-40304D01*
X50848Y-40304D02*
X48504Y-37960D01*
X48236Y-37944D02*
X48488Y-37944D01*
X48488Y-37944D02*
X48504Y-37960D01*
X48504Y-37960D02*
X49243Y-37221D01*
X49243Y-37221D02*
X53513Y-37221D01*
X53513Y-37221D02*
X54236Y-37944D01*
X52106Y-35785D02*
X52468Y-35423D01*
X52468Y-35423D02*
X53126Y-35423D01*
X53126Y-35423D02*
X53234Y-35315D01*
X53234Y-35315D02*
X53234Y-34933D01*
X53724Y-34933D02*
X53234Y-34933D01*
G54D10*
G36*
X53782Y-34983D02*
X53774Y-34983D01*
X53774Y-34990D01*
X53674Y-34990D01*
X53674Y-34983D01*
X53666Y-34983D01*
X53666Y-34883D01*
X53674Y-34883D01*
X53674Y-34875D01*
X53774Y-34875D01*
X53774Y-34883D01*
X53782Y-34883D01*
X53782Y-34983D01*
X53782Y-34983D01*
G37*
G54D17*
X53782Y-34983D02*
X53774Y-34983D01*
X53774Y-34990D01*
X53674Y-34990D01*
X53674Y-34983D01*
X53666Y-34983D01*
X53666Y-34883D01*
X53674Y-34883D01*
X53674Y-34875D01*
X53774Y-34875D01*
X53774Y-34883D01*
X53782Y-34883D01*
X53782Y-34983D01*
G54D10*
G36*
X62154Y-44831D02*
X61488Y-44831D01*
X61969Y-44351D01*
X62034Y-44253D01*
X62034Y-44253D01*
X62057Y-44139D01*
X62057Y-43736D01*
X62034Y-43621D01*
X62034Y-43621D01*
X62008Y-43582D01*
X61969Y-43524D01*
X61671Y-43226D01*
X61573Y-43161D01*
X61458Y-43138D01*
X60742Y-43138D01*
X60627Y-43161D01*
X60530Y-43226D01*
X60398Y-43358D01*
X60356Y-43340D01*
X60116Y-43340D01*
X59894Y-43432D01*
X59736Y-43590D01*
X59578Y-43432D01*
X59356Y-43340D01*
X59116Y-43340D01*
X59073Y-43358D01*
X56930Y-41215D01*
X56833Y-41150D01*
X56718Y-41127D01*
X54347Y-41127D01*
X54375Y-41061D01*
X54375Y-40892D01*
X54310Y-40735D01*
X54250Y-40675D01*
X54250Y-38759D01*
X54721Y-38759D01*
X54721Y-38759D01*
X54836Y-38736D01*
X54836Y-38736D01*
X54933Y-38671D01*
X55073Y-38531D01*
X55115Y-38549D01*
X55355Y-38549D01*
X55398Y-38531D01*
X55529Y-38662D01*
X55529Y-38662D01*
X55626Y-38727D01*
X55741Y-38750D01*
X59730Y-38750D01*
X59730Y-38750D01*
X59741Y-38748D01*
X58895Y-39594D01*
X55832Y-39594D01*
X55772Y-39534D01*
X55616Y-39469D01*
X55447Y-39469D01*
X55290Y-39533D01*
X55171Y-39653D01*
X55106Y-39809D01*
X55106Y-39978D01*
X55170Y-40134D01*
X55290Y-40254D01*
X55446Y-40319D01*
X55615Y-40319D01*
X55771Y-40254D01*
X55832Y-40194D01*
X59019Y-40194D01*
X59019Y-40194D01*
X59134Y-40171D01*
X59134Y-40171D01*
X59231Y-40106D01*
X60887Y-38450D01*
X60893Y-38456D01*
X61115Y-38549D01*
X61355Y-38549D01*
X61578Y-38457D01*
X61748Y-38287D01*
X61840Y-38065D01*
X61840Y-37825D01*
X61748Y-37603D01*
X61578Y-37432D01*
X61356Y-37340D01*
X61116Y-37340D01*
X60894Y-37432D01*
X60885Y-37440D01*
X60667Y-37222D01*
X60570Y-37157D01*
X60455Y-37134D01*
X56746Y-37134D01*
X56631Y-37157D01*
X56592Y-37183D01*
X56534Y-37222D01*
X56398Y-37358D01*
X56356Y-37340D01*
X56116Y-37340D01*
X55894Y-37432D01*
X55736Y-37590D01*
X55578Y-37432D01*
X55356Y-37340D01*
X55116Y-37340D01*
X54894Y-37432D01*
X54736Y-37590D01*
X54578Y-37432D01*
X54356Y-37340D01*
X54116Y-37340D01*
X54073Y-37358D01*
X53725Y-37009D01*
X53627Y-36944D01*
X53513Y-36921D01*
X50677Y-36921D01*
X52178Y-35420D01*
X52242Y-35485D01*
X52303Y-35510D01*
X52295Y-35515D01*
X52167Y-35707D01*
X52122Y-35933D01*
X52167Y-36158D01*
X52295Y-36350D01*
X52487Y-36478D01*
X52712Y-36523D01*
X52735Y-36523D01*
X52961Y-36478D01*
X53153Y-36350D01*
X53224Y-36243D01*
X53295Y-36350D01*
X53487Y-36478D01*
X53712Y-36523D01*
X53735Y-36523D01*
X53961Y-36478D01*
X54153Y-36350D01*
X54224Y-36243D01*
X54295Y-36350D01*
X54487Y-36478D01*
X54712Y-36523D01*
X54735Y-36523D01*
X54961Y-36478D01*
X55153Y-36350D01*
X55224Y-36243D01*
X55295Y-36350D01*
X55487Y-36478D01*
X55712Y-36523D01*
X55735Y-36523D01*
X55961Y-36478D01*
X56153Y-36350D01*
X56224Y-36243D01*
X56295Y-36350D01*
X56487Y-36478D01*
X56712Y-36523D01*
X56735Y-36523D01*
X56961Y-36478D01*
X57153Y-36350D01*
X57281Y-36158D01*
X57325Y-35933D01*
X57281Y-35707D01*
X57153Y-35515D01*
X57029Y-35433D01*
X57153Y-35350D01*
X57281Y-35158D01*
X57325Y-34933D01*
X57281Y-34707D01*
X57273Y-34695D01*
X59848Y-34695D01*
X59719Y-34823D01*
X59556Y-35218D01*
X59555Y-35645D01*
X59718Y-36040D01*
X60020Y-36343D01*
X60415Y-36506D01*
X60842Y-36507D01*
X61237Y-36344D01*
X61539Y-36042D01*
X61703Y-35647D01*
X61704Y-35220D01*
X61540Y-34825D01*
X61411Y-34695D01*
X62154Y-34695D01*
X62154Y-44831D01*
X62154Y-44831D01*
G37*
G54D17*
X62154Y-44831D02*
X61488Y-44831D01*
X61969Y-44351D01*
X62034Y-44253D01*
X62034Y-44253D01*
X62057Y-44139D01*
X62057Y-43736D01*
X62034Y-43621D01*
X62034Y-43621D01*
X62008Y-43582D01*
X61969Y-43524D01*
X61671Y-43226D01*
X61573Y-43161D01*
X61458Y-43138D01*
X60742Y-43138D01*
X60627Y-43161D01*
X60530Y-43226D01*
X60398Y-43358D01*
X60356Y-43340D01*
X60116Y-43340D01*
X59894Y-43432D01*
X59736Y-43590D01*
X59578Y-43432D01*
X59356Y-43340D01*
X59116Y-43340D01*
X59073Y-43358D01*
X56930Y-41215D01*
X56833Y-41150D01*
X56718Y-41127D01*
X54347Y-41127D01*
X54375Y-41061D01*
X54375Y-40892D01*
X54310Y-40735D01*
X54250Y-40675D01*
X54250Y-38759D01*
X54721Y-38759D01*
X54721Y-38759D01*
X54836Y-38736D01*
X54836Y-38736D01*
X54933Y-38671D01*
X55073Y-38531D01*
X55115Y-38549D01*
X55355Y-38549D01*
X55398Y-38531D01*
X55529Y-38662D01*
X55529Y-38662D01*
X55626Y-38727D01*
X55741Y-38750D01*
X59730Y-38750D01*
X59730Y-38750D01*
X59741Y-38748D01*
X58895Y-39594D01*
X55832Y-39594D01*
X55772Y-39534D01*
X55616Y-39469D01*
X55447Y-39469D01*
X55290Y-39533D01*
X55171Y-39653D01*
X55106Y-39809D01*
X55106Y-39978D01*
X55170Y-40134D01*
X55290Y-40254D01*
X55446Y-40319D01*
X55615Y-40319D01*
X55771Y-40254D01*
X55832Y-40194D01*
X59019Y-40194D01*
X59019Y-40194D01*
X59134Y-40171D01*
X59134Y-40171D01*
X59231Y-40106D01*
X60887Y-38450D01*
X60893Y-38456D01*
X61115Y-38549D01*
X61355Y-38549D01*
X61578Y-38457D01*
X61748Y-38287D01*
X61840Y-38065D01*
X61840Y-37825D01*
X61748Y-37603D01*
X61578Y-37432D01*
X61356Y-37340D01*
X61116Y-37340D01*
X60894Y-37432D01*
X60885Y-37440D01*
X60667Y-37222D01*
X60570Y-37157D01*
X60455Y-37134D01*
X56746Y-37134D01*
X56631Y-37157D01*
X56592Y-37183D01*
X56534Y-37222D01*
X56398Y-37358D01*
X56356Y-37340D01*
X56116Y-37340D01*
X55894Y-37432D01*
X55736Y-37590D01*
X55578Y-37432D01*
X55356Y-37340D01*
X55116Y-37340D01*
X54894Y-37432D01*
X54736Y-37590D01*
X54578Y-37432D01*
X54356Y-37340D01*
X54116Y-37340D01*
X54073Y-37358D01*
X53725Y-37009D01*
X53627Y-36944D01*
X53513Y-36921D01*
X50677Y-36921D01*
X52178Y-35420D01*
X52242Y-35485D01*
X52303Y-35510D01*
X52295Y-35515D01*
X52167Y-35707D01*
X52122Y-35933D01*
X52167Y-36158D01*
X52295Y-36350D01*
X52487Y-36478D01*
X52712Y-36523D01*
X52735Y-36523D01*
X52961Y-36478D01*
X53153Y-36350D01*
X53224Y-36243D01*
X53295Y-36350D01*
X53487Y-36478D01*
X53712Y-36523D01*
X53735Y-36523D01*
X53961Y-36478D01*
X54153Y-36350D01*
X54224Y-36243D01*
X54295Y-36350D01*
X54487Y-36478D01*
X54712Y-36523D01*
X54735Y-36523D01*
X54961Y-36478D01*
X55153Y-36350D01*
X55224Y-36243D01*
X55295Y-36350D01*
X55487Y-36478D01*
X55712Y-36523D01*
X55735Y-36523D01*
X55961Y-36478D01*
X56153Y-36350D01*
X56224Y-36243D01*
X56295Y-36350D01*
X56487Y-36478D01*
X56712Y-36523D01*
X56735Y-36523D01*
X56961Y-36478D01*
X57153Y-36350D01*
X57281Y-36158D01*
X57325Y-35933D01*
X57281Y-35707D01*
X57153Y-35515D01*
X57029Y-35433D01*
X57153Y-35350D01*
X57281Y-35158D01*
X57325Y-34933D01*
X57281Y-34707D01*
X57273Y-34695D01*
X59848Y-34695D01*
X59719Y-34823D01*
X59556Y-35218D01*
X59555Y-35645D01*
X59718Y-36040D01*
X60020Y-36343D01*
X60415Y-36506D01*
X60842Y-36507D01*
X61237Y-36344D01*
X61539Y-36042D01*
X61703Y-35647D01*
X61704Y-35220D01*
X61540Y-34825D01*
X61411Y-34695D01*
X62154Y-34695D01*
X62154Y-44831D01*
M02*
