M48
;DRILL file {pcbnew (2014-04-07 BZR 4791)-product} date ons  9 apr 2014 20:45:45
;FORMAT={-:-/ absolute / inch / decimal}
FMAT,2
INCH,TZ
T1C0.025
T2C0.039
T3C0.040
T4C0.118
%
G90
G05
M72
T1
X4.8478Y-3.9172
X5.2107Y-3.5785
X5.2608Y-4.083
X5.395Y-4.0976
X5.4372Y-4.181
X5.5531Y-3.9894
T2
X4.8236Y-3.7945
X4.8236Y-4.3945
X4.9236Y-3.7945
X4.9236Y-4.3945
X5.0236Y-3.7945
X5.0236Y-4.3945
X5.1236Y-3.7945
X5.1236Y-4.3945
X5.2236Y-3.7945
X5.2236Y-4.3945
X5.3236Y-3.7945
X5.3236Y-4.3945
X5.4236Y-3.7945
X5.4236Y-4.3945
X5.5236Y-3.7945
X5.5236Y-4.3945
X5.6236Y-3.7945
X5.6236Y-4.3945
X5.7236Y-3.7945
X5.7236Y-4.3945
X5.8236Y-3.7945
X5.8236Y-4.3945
X5.9236Y-3.7945
X5.9236Y-4.3945
X6.0236Y-3.7945
X6.0236Y-4.3945
X6.1236Y-3.7945
X6.1236Y-4.3945
T3
X5.2724Y-3.4933
X5.2724Y-3.5933
X5.3724Y-3.4933
X5.3724Y-3.5933
X5.4724Y-3.4933
X5.4724Y-3.5933
X5.5724Y-3.4933
X5.5724Y-3.5933
X5.6724Y-3.4933
X5.6724Y-3.5933
T4
X4.8819Y-3.5433
X6.063Y-3.5433
T0
M30
