%FSLAX34Y34*%
G04 Gerber Fmt 3.4, Leading zero omitted, Abs format*
G04 (created by PCBNEW (2014-04-07 BZR 4791)-product) date ons  9 apr 2014 20:45:43*
%MOIN*%
G01*
G70*
G90*
G04 APERTURE LIST*
%ADD10C,0.005906*%
%ADD11R,0.045000X0.025000*%
%ADD12R,0.068000X0.068000*%
%ADD13O,0.068000X0.068000*%
%ADD14C,0.126000*%
%ADD15R,0.020000X0.050000*%
%ADD16C,0.070866*%
%ADD17R,0.031500X0.039400*%
%ADD18C,0.035000*%
%ADD19C,0.013780*%
%ADD20C,0.010000*%
G04 APERTURE END LIST*
G54D10*
G54D11*
X50000Y-40063D03*
X50000Y-39463D03*
G54D12*
X52724Y-34933D03*
G54D13*
X52724Y-35933D03*
X53724Y-34933D03*
X53724Y-35933D03*
X54724Y-34933D03*
X54724Y-35933D03*
X55724Y-34933D03*
X55724Y-35933D03*
X56724Y-34933D03*
X56724Y-35933D03*
G54D14*
X60629Y-35433D03*
X48818Y-35433D03*
G54D11*
X50000Y-41244D03*
X50000Y-40644D03*
X50000Y-41825D03*
X50000Y-42425D03*
X58661Y-42032D03*
X58661Y-41432D03*
X59448Y-42032D03*
X59448Y-41432D03*
X60236Y-42032D03*
X60236Y-41432D03*
G54D15*
X51080Y-39144D03*
X51580Y-39144D03*
X52080Y-39144D03*
X52580Y-39144D03*
X53080Y-39144D03*
X53580Y-39144D03*
X54080Y-39144D03*
X54580Y-39144D03*
X55080Y-39144D03*
X55580Y-39144D03*
X56080Y-39144D03*
X56580Y-39144D03*
X57080Y-39144D03*
X57580Y-39144D03*
X57580Y-42744D03*
X57080Y-42744D03*
X56580Y-42744D03*
X56080Y-42744D03*
X55580Y-42744D03*
X55080Y-42744D03*
X54580Y-42744D03*
X54080Y-42744D03*
X53580Y-42744D03*
X53080Y-42744D03*
X52580Y-42744D03*
X52080Y-42744D03*
X51580Y-42744D03*
X51080Y-42744D03*
G54D16*
X48236Y-43944D03*
X49236Y-43944D03*
X50236Y-43944D03*
X51236Y-43944D03*
X52236Y-43944D03*
X53236Y-43944D03*
X54236Y-43944D03*
X55236Y-43944D03*
X56236Y-43944D03*
X57236Y-43944D03*
X58236Y-43944D03*
X59236Y-43944D03*
X60236Y-43944D03*
X61236Y-43944D03*
X61236Y-37944D03*
X60236Y-37944D03*
X59236Y-37944D03*
X58236Y-37944D03*
X57236Y-37944D03*
X56236Y-37944D03*
X55236Y-37944D03*
X54236Y-37944D03*
X53236Y-37944D03*
X52236Y-37944D03*
X51236Y-37944D03*
X50236Y-37944D03*
X49236Y-37944D03*
X48236Y-37944D03*
G54D17*
X59448Y-40590D03*
X59823Y-39724D03*
X59073Y-39724D03*
G54D18*
X48478Y-39171D03*
X53950Y-40976D03*
X55531Y-39894D03*
X52608Y-40830D03*
X54371Y-41810D03*
X52106Y-35785D03*
G54D19*
X49526Y-40143D02*
X48554Y-39171D01*
X48554Y-39171D02*
X48478Y-39171D01*
X50000Y-41825D02*
X50000Y-42120D01*
X51080Y-42744D02*
X51080Y-42325D01*
X51080Y-42325D02*
X50874Y-42120D01*
X50874Y-42120D02*
X50000Y-42120D01*
X49526Y-40143D02*
X49605Y-40063D01*
X50000Y-41244D02*
X49526Y-40771D01*
X49526Y-40771D02*
X49526Y-40143D01*
X50000Y-40063D02*
X49605Y-40063D01*
X50000Y-41825D02*
X50000Y-41244D01*
G54D20*
X60236Y-42032D02*
X60236Y-41757D01*
X60236Y-37944D02*
X60611Y-38320D01*
X60611Y-38320D02*
X60611Y-41622D01*
X60611Y-41622D02*
X60476Y-41757D01*
X60476Y-41757D02*
X60236Y-41757D01*
X52580Y-42344D02*
X52581Y-42344D01*
X52581Y-42344D02*
X53950Y-40976D01*
X52580Y-42744D02*
X52580Y-42344D01*
X55531Y-39894D02*
X53080Y-42344D01*
X53080Y-42744D02*
X53080Y-42344D01*
X52236Y-37944D02*
X52740Y-38449D01*
X52740Y-38449D02*
X55731Y-38449D01*
X55731Y-38449D02*
X56236Y-37944D01*
X59448Y-42032D02*
X59448Y-42307D01*
X61236Y-37944D02*
X61236Y-41616D01*
X61236Y-41616D02*
X60545Y-42307D01*
X60545Y-42307D02*
X59448Y-42307D01*
X51236Y-43944D02*
X52036Y-43145D01*
X52036Y-43145D02*
X53580Y-43145D01*
X60236Y-43944D02*
X58661Y-42370D01*
X58661Y-42370D02*
X58661Y-42032D01*
X53580Y-42744D02*
X53580Y-43145D01*
X58236Y-39545D02*
X54353Y-39545D01*
X54353Y-39545D02*
X52736Y-41161D01*
X52736Y-41161D02*
X52453Y-41161D01*
X52453Y-41161D02*
X51580Y-40288D01*
X51580Y-40288D02*
X51580Y-39545D01*
X51580Y-39545D02*
X51580Y-39545D01*
X51580Y-39144D02*
X51580Y-39545D01*
X58236Y-39545D02*
X58586Y-39545D01*
X58586Y-39545D02*
X58766Y-39724D01*
X58236Y-37944D02*
X58236Y-39545D01*
X59073Y-39724D02*
X58766Y-39724D01*
X52080Y-39144D02*
X52080Y-38744D01*
X57236Y-37944D02*
X56436Y-38744D01*
X56436Y-38744D02*
X52080Y-38744D01*
X52580Y-39144D02*
X52580Y-39545D01*
X52608Y-40830D02*
X52608Y-39572D01*
X52608Y-39572D02*
X52580Y-39545D01*
X54371Y-41810D02*
X54080Y-42100D01*
X54080Y-42100D02*
X54080Y-42744D01*
X54080Y-42744D02*
X54080Y-43789D01*
X54080Y-43789D02*
X54236Y-43944D01*
X56080Y-42744D02*
X56080Y-42344D01*
X61236Y-43944D02*
X59923Y-42632D01*
X59923Y-42632D02*
X59467Y-42632D01*
X59467Y-42632D02*
X59073Y-42238D01*
X59073Y-42238D02*
X59073Y-41877D01*
X59073Y-41877D02*
X58953Y-41757D01*
X58953Y-41757D02*
X56668Y-41757D01*
X56668Y-41757D02*
X56080Y-42344D01*
X56950Y-43944D02*
X56445Y-44449D01*
X56445Y-44449D02*
X53740Y-44449D01*
X53740Y-44449D02*
X53236Y-43944D01*
X54580Y-43145D02*
X54808Y-43373D01*
X54808Y-43373D02*
X56379Y-43373D01*
X56379Y-43373D02*
X56950Y-43944D01*
X57236Y-43944D02*
X57235Y-43944D01*
X57235Y-43944D02*
X56950Y-43944D01*
X48236Y-43944D02*
X48741Y-44450D01*
X48741Y-44450D02*
X52730Y-44450D01*
X52730Y-44450D02*
X53236Y-43944D01*
X54580Y-42744D02*
X54580Y-43145D01*
X55080Y-42744D02*
X55080Y-42344D01*
X59236Y-37944D02*
X59381Y-38090D01*
X59381Y-38090D02*
X59381Y-39985D01*
X59381Y-39985D02*
X57867Y-41500D01*
X57867Y-41500D02*
X55925Y-41500D01*
X55925Y-41500D02*
X55080Y-42344D01*
X53236Y-37944D02*
X53752Y-37428D01*
X53752Y-37428D02*
X58720Y-37428D01*
X58720Y-37428D02*
X59236Y-37944D01*
X55580Y-42744D02*
X55580Y-43145D01*
X59236Y-43944D02*
X58436Y-43145D01*
X58436Y-43145D02*
X55580Y-43145D01*
X55724Y-34933D02*
X55234Y-34933D01*
X50000Y-42563D02*
X47286Y-39849D01*
X47286Y-39849D02*
X47286Y-37559D01*
X47286Y-37559D02*
X47895Y-36949D01*
X47895Y-36949D02*
X49494Y-36949D01*
X49494Y-36949D02*
X52005Y-34437D01*
X52005Y-34437D02*
X54942Y-34437D01*
X54942Y-34437D02*
X55234Y-34730D01*
X55234Y-34730D02*
X55234Y-34933D01*
X50000Y-42563D02*
X50000Y-42701D01*
X50000Y-42425D02*
X50000Y-42563D01*
X52080Y-42744D02*
X52080Y-42817D01*
X52080Y-42817D02*
X51752Y-43145D01*
X51752Y-43145D02*
X50444Y-43145D01*
X50444Y-43145D02*
X50000Y-42701D01*
X50000Y-40644D02*
X50000Y-40369D01*
X54724Y-34933D02*
X54234Y-34933D01*
X54234Y-34933D02*
X54234Y-35116D01*
X54234Y-35116D02*
X53927Y-35423D01*
X53927Y-35423D02*
X51681Y-35423D01*
X51681Y-35423D02*
X49910Y-37193D01*
X49910Y-37193D02*
X47954Y-37193D01*
X47954Y-37193D02*
X47500Y-37647D01*
X47500Y-37647D02*
X47500Y-38233D01*
X47500Y-38233D02*
X48098Y-38830D01*
X48098Y-38830D02*
X48599Y-38830D01*
X48599Y-38830D02*
X49531Y-39763D01*
X49531Y-39763D02*
X50285Y-39763D01*
X50285Y-39763D02*
X50375Y-39852D01*
X50375Y-39852D02*
X50375Y-40269D01*
X50375Y-40269D02*
X50275Y-40369D01*
X50275Y-40369D02*
X50000Y-40369D01*
X51580Y-42744D02*
X51580Y-42260D01*
X51580Y-42260D02*
X50240Y-40920D01*
X50240Y-40920D02*
X50000Y-40920D01*
X50000Y-40644D02*
X50000Y-40920D01*
X50000Y-39188D02*
X49410Y-38599D01*
X49410Y-38599D02*
X48174Y-38599D01*
X48174Y-38599D02*
X47721Y-38146D01*
X47721Y-38146D02*
X47721Y-37727D01*
X47721Y-37727D02*
X48008Y-37440D01*
X48008Y-37440D02*
X50451Y-37440D01*
X50451Y-37440D02*
X52106Y-35785D01*
X51080Y-39545D02*
X50893Y-39545D01*
X50893Y-39545D02*
X50536Y-39188D01*
X50536Y-39188D02*
X50000Y-39188D01*
X50000Y-39463D02*
X50000Y-39188D01*
X51080Y-39144D02*
X51080Y-39545D01*
X59448Y-41432D02*
X58661Y-41432D01*
X60236Y-41432D02*
X59448Y-41432D01*
X59448Y-40590D02*
X59448Y-41432D01*
G54D10*
G36*
X53782Y-34983D02*
X53774Y-34983D01*
X53774Y-34990D01*
X53674Y-34990D01*
X53674Y-34983D01*
X53666Y-34983D01*
X53666Y-34883D01*
X53674Y-34883D01*
X53674Y-34875D01*
X53774Y-34875D01*
X53774Y-34883D01*
X53782Y-34883D01*
X53782Y-34983D01*
X53782Y-34983D01*
G37*
G54D20*
X53782Y-34983D02*
X53774Y-34983D01*
X53774Y-34990D01*
X53674Y-34990D01*
X53674Y-34983D01*
X53666Y-34983D01*
X53666Y-34883D01*
X53674Y-34883D01*
X53674Y-34875D01*
X53774Y-34875D01*
X53774Y-34883D01*
X53782Y-34883D01*
X53782Y-34983D01*
G54D10*
G36*
X55106Y-39845D02*
X55106Y-39894D01*
X54288Y-40713D01*
X54191Y-40616D01*
X54035Y-40551D01*
X53866Y-40551D01*
X53709Y-40615D01*
X53590Y-40735D01*
X53525Y-40891D01*
X53525Y-40977D01*
X52371Y-42130D01*
X52368Y-42132D01*
X52303Y-42229D01*
X52295Y-42271D01*
X52230Y-42244D01*
X52130Y-42244D01*
X51930Y-42244D01*
X51880Y-42265D01*
X51880Y-42260D01*
X51857Y-42145D01*
X51792Y-42047D01*
X51792Y-42047D01*
X51030Y-41285D01*
X51030Y-39582D01*
X51030Y-39194D01*
X51030Y-39094D01*
X51030Y-38707D01*
X50968Y-38644D01*
X50930Y-38644D01*
X50839Y-38682D01*
X50768Y-38753D01*
X50730Y-38845D01*
X50730Y-38944D01*
X50730Y-39032D01*
X50793Y-39094D01*
X51030Y-39094D01*
X51030Y-39194D01*
X50793Y-39194D01*
X50730Y-39257D01*
X50730Y-39345D01*
X50730Y-39444D01*
X50768Y-39536D01*
X50839Y-39606D01*
X50930Y-39644D01*
X50968Y-39644D01*
X51030Y-39582D01*
X51030Y-41285D01*
X50475Y-40730D01*
X50475Y-40720D01*
X50475Y-40590D01*
X50487Y-40581D01*
X50587Y-40481D01*
X50587Y-40481D01*
X50626Y-40423D01*
X50652Y-40384D01*
X50652Y-40384D01*
X50675Y-40269D01*
X50675Y-39852D01*
X50652Y-39737D01*
X50587Y-39640D01*
X50587Y-39640D01*
X50498Y-39551D01*
X50475Y-39535D01*
X50475Y-39351D01*
X50475Y-39289D01*
X50436Y-39197D01*
X50366Y-39126D01*
X50274Y-39088D01*
X50175Y-39088D01*
X50112Y-39088D01*
X50050Y-39151D01*
X50050Y-39413D01*
X50412Y-39413D01*
X50475Y-39351D01*
X50475Y-39535D01*
X50400Y-39485D01*
X50285Y-39463D01*
X49942Y-39463D01*
X49942Y-39413D01*
X49950Y-39413D01*
X49950Y-39151D01*
X49887Y-39088D01*
X49824Y-39088D01*
X49725Y-39088D01*
X49633Y-39126D01*
X49563Y-39197D01*
X49525Y-39289D01*
X49525Y-39332D01*
X48811Y-38618D01*
X48713Y-38553D01*
X48599Y-38530D01*
X48401Y-38530D01*
X48578Y-38457D01*
X48736Y-38299D01*
X48893Y-38456D01*
X49115Y-38549D01*
X49355Y-38549D01*
X49578Y-38457D01*
X49736Y-38299D01*
X49893Y-38456D01*
X50115Y-38549D01*
X50355Y-38549D01*
X50578Y-38457D01*
X50736Y-38299D01*
X50893Y-38456D01*
X51115Y-38549D01*
X51355Y-38549D01*
X51578Y-38457D01*
X51736Y-38299D01*
X51893Y-38456D01*
X51948Y-38479D01*
X51868Y-38532D01*
X51803Y-38629D01*
X51795Y-38671D01*
X51730Y-38644D01*
X51630Y-38644D01*
X51430Y-38644D01*
X51339Y-38682D01*
X51330Y-38691D01*
X51322Y-38682D01*
X51230Y-38644D01*
X51193Y-38644D01*
X51130Y-38707D01*
X51130Y-39094D01*
X51138Y-39094D01*
X51138Y-39194D01*
X51130Y-39194D01*
X51130Y-39582D01*
X51193Y-39644D01*
X51230Y-39644D01*
X51280Y-39624D01*
X51280Y-40288D01*
X51303Y-40403D01*
X51368Y-40500D01*
X52241Y-41373D01*
X52338Y-41438D01*
X52338Y-41438D01*
X52453Y-41461D01*
X52736Y-41461D01*
X52736Y-41461D01*
X52851Y-41438D01*
X52851Y-41438D01*
X52948Y-41373D01*
X54477Y-39845D01*
X55106Y-39845D01*
X55106Y-39845D01*
G37*
G54D20*
X55106Y-39845D02*
X55106Y-39894D01*
X54288Y-40713D01*
X54191Y-40616D01*
X54035Y-40551D01*
X53866Y-40551D01*
X53709Y-40615D01*
X53590Y-40735D01*
X53525Y-40891D01*
X53525Y-40977D01*
X52371Y-42130D01*
X52368Y-42132D01*
X52303Y-42229D01*
X52295Y-42271D01*
X52230Y-42244D01*
X52130Y-42244D01*
X51930Y-42244D01*
X51880Y-42265D01*
X51880Y-42260D01*
X51857Y-42145D01*
X51792Y-42047D01*
X51792Y-42047D01*
X51030Y-41285D01*
X51030Y-39582D01*
X51030Y-39194D01*
X51030Y-39094D01*
X51030Y-38707D01*
X50968Y-38644D01*
X50930Y-38644D01*
X50839Y-38682D01*
X50768Y-38753D01*
X50730Y-38845D01*
X50730Y-38944D01*
X50730Y-39032D01*
X50793Y-39094D01*
X51030Y-39094D01*
X51030Y-39194D01*
X50793Y-39194D01*
X50730Y-39257D01*
X50730Y-39345D01*
X50730Y-39444D01*
X50768Y-39536D01*
X50839Y-39606D01*
X50930Y-39644D01*
X50968Y-39644D01*
X51030Y-39582D01*
X51030Y-41285D01*
X50475Y-40730D01*
X50475Y-40720D01*
X50475Y-40590D01*
X50487Y-40581D01*
X50587Y-40481D01*
X50587Y-40481D01*
X50626Y-40423D01*
X50652Y-40384D01*
X50652Y-40384D01*
X50675Y-40269D01*
X50675Y-39852D01*
X50652Y-39737D01*
X50587Y-39640D01*
X50587Y-39640D01*
X50498Y-39551D01*
X50475Y-39535D01*
X50475Y-39351D01*
X50475Y-39289D01*
X50436Y-39197D01*
X50366Y-39126D01*
X50274Y-39088D01*
X50175Y-39088D01*
X50112Y-39088D01*
X50050Y-39151D01*
X50050Y-39413D01*
X50412Y-39413D01*
X50475Y-39351D01*
X50475Y-39535D01*
X50400Y-39485D01*
X50285Y-39463D01*
X49942Y-39463D01*
X49942Y-39413D01*
X49950Y-39413D01*
X49950Y-39151D01*
X49887Y-39088D01*
X49824Y-39088D01*
X49725Y-39088D01*
X49633Y-39126D01*
X49563Y-39197D01*
X49525Y-39289D01*
X49525Y-39332D01*
X48811Y-38618D01*
X48713Y-38553D01*
X48599Y-38530D01*
X48401Y-38530D01*
X48578Y-38457D01*
X48736Y-38299D01*
X48893Y-38456D01*
X49115Y-38549D01*
X49355Y-38549D01*
X49578Y-38457D01*
X49736Y-38299D01*
X49893Y-38456D01*
X50115Y-38549D01*
X50355Y-38549D01*
X50578Y-38457D01*
X50736Y-38299D01*
X50893Y-38456D01*
X51115Y-38549D01*
X51355Y-38549D01*
X51578Y-38457D01*
X51736Y-38299D01*
X51893Y-38456D01*
X51948Y-38479D01*
X51868Y-38532D01*
X51803Y-38629D01*
X51795Y-38671D01*
X51730Y-38644D01*
X51630Y-38644D01*
X51430Y-38644D01*
X51339Y-38682D01*
X51330Y-38691D01*
X51322Y-38682D01*
X51230Y-38644D01*
X51193Y-38644D01*
X51130Y-38707D01*
X51130Y-39094D01*
X51138Y-39094D01*
X51138Y-39194D01*
X51130Y-39194D01*
X51130Y-39582D01*
X51193Y-39644D01*
X51230Y-39644D01*
X51280Y-39624D01*
X51280Y-40288D01*
X51303Y-40403D01*
X51368Y-40500D01*
X52241Y-41373D01*
X52338Y-41438D01*
X52338Y-41438D01*
X52453Y-41461D01*
X52736Y-41461D01*
X52736Y-41461D01*
X52851Y-41438D01*
X52851Y-41438D01*
X52948Y-41373D01*
X54477Y-39845D01*
X55106Y-39845D01*
G54D10*
G36*
X62154Y-44831D02*
X47294Y-44831D01*
X47294Y-40281D01*
X49525Y-42512D01*
X49525Y-42600D01*
X49563Y-42692D01*
X49633Y-42762D01*
X49719Y-42798D01*
X49722Y-42815D01*
X49787Y-42913D01*
X50215Y-43340D01*
X50116Y-43340D01*
X49894Y-43432D01*
X49736Y-43590D01*
X49578Y-43432D01*
X49356Y-43340D01*
X49116Y-43340D01*
X48894Y-43432D01*
X48736Y-43590D01*
X48578Y-43432D01*
X48356Y-43340D01*
X48116Y-43340D01*
X47894Y-43432D01*
X47724Y-43602D01*
X47631Y-43824D01*
X47631Y-44064D01*
X47723Y-44286D01*
X47893Y-44456D01*
X48115Y-44549D01*
X48355Y-44549D01*
X48398Y-44531D01*
X48529Y-44662D01*
X48626Y-44727D01*
X48741Y-44750D01*
X52730Y-44750D01*
X52730Y-44750D01*
X52845Y-44727D01*
X52845Y-44727D01*
X52943Y-44662D01*
X53073Y-44531D01*
X53115Y-44549D01*
X53355Y-44549D01*
X53398Y-44531D01*
X53528Y-44661D01*
X53528Y-44661D01*
X53625Y-44726D01*
X53740Y-44749D01*
X56445Y-44749D01*
X56445Y-44749D01*
X56560Y-44726D01*
X56560Y-44726D01*
X56657Y-44661D01*
X56877Y-44441D01*
X56893Y-44456D01*
X57115Y-44549D01*
X57355Y-44549D01*
X57578Y-44457D01*
X57736Y-44299D01*
X57893Y-44456D01*
X58115Y-44549D01*
X58355Y-44549D01*
X58578Y-44457D01*
X58736Y-44299D01*
X58893Y-44456D01*
X59115Y-44549D01*
X59355Y-44549D01*
X59578Y-44457D01*
X59736Y-44299D01*
X59893Y-44456D01*
X60115Y-44549D01*
X60355Y-44549D01*
X60578Y-44457D01*
X60736Y-44299D01*
X60893Y-44456D01*
X61115Y-44549D01*
X61355Y-44549D01*
X61578Y-44457D01*
X61748Y-44287D01*
X61840Y-44065D01*
X61840Y-43825D01*
X61748Y-43603D01*
X61578Y-43432D01*
X61356Y-43340D01*
X61116Y-43340D01*
X61073Y-43358D01*
X60323Y-42607D01*
X60545Y-42607D01*
X60545Y-42607D01*
X60660Y-42584D01*
X60660Y-42584D01*
X60757Y-42519D01*
X61448Y-41828D01*
X61513Y-41731D01*
X61513Y-41731D01*
X61536Y-41616D01*
X61536Y-38474D01*
X61578Y-38457D01*
X61748Y-38287D01*
X61840Y-38065D01*
X61840Y-37825D01*
X61748Y-37603D01*
X61578Y-37432D01*
X61356Y-37340D01*
X61116Y-37340D01*
X60894Y-37432D01*
X60736Y-37590D01*
X60578Y-37432D01*
X60356Y-37340D01*
X60116Y-37340D01*
X59894Y-37432D01*
X59736Y-37590D01*
X59578Y-37432D01*
X59356Y-37340D01*
X59116Y-37340D01*
X59073Y-37358D01*
X58932Y-37216D01*
X58834Y-37151D01*
X58720Y-37128D01*
X53752Y-37128D01*
X53637Y-37151D01*
X53540Y-37216D01*
X53398Y-37358D01*
X53356Y-37340D01*
X53116Y-37340D01*
X52894Y-37432D01*
X52736Y-37590D01*
X52578Y-37432D01*
X52356Y-37340D01*
X52116Y-37340D01*
X51894Y-37432D01*
X51736Y-37590D01*
X51578Y-37432D01*
X51356Y-37340D01*
X51116Y-37340D01*
X50894Y-37432D01*
X50736Y-37590D01*
X50578Y-37432D01*
X50356Y-37340D01*
X50188Y-37340D01*
X51805Y-35723D01*
X52164Y-35723D01*
X52122Y-35933D01*
X52167Y-36158D01*
X52295Y-36350D01*
X52487Y-36478D01*
X52712Y-36523D01*
X52735Y-36523D01*
X52961Y-36478D01*
X53153Y-36350D01*
X53224Y-36243D01*
X53295Y-36350D01*
X53487Y-36478D01*
X53712Y-36523D01*
X53735Y-36523D01*
X53961Y-36478D01*
X54153Y-36350D01*
X54224Y-36243D01*
X54295Y-36350D01*
X54487Y-36478D01*
X54712Y-36523D01*
X54735Y-36523D01*
X54961Y-36478D01*
X55153Y-36350D01*
X55224Y-36243D01*
X55295Y-36350D01*
X55487Y-36478D01*
X55712Y-36523D01*
X55735Y-36523D01*
X55961Y-36478D01*
X56153Y-36350D01*
X56224Y-36243D01*
X56295Y-36350D01*
X56487Y-36478D01*
X56712Y-36523D01*
X56735Y-36523D01*
X56961Y-36478D01*
X57153Y-36350D01*
X57281Y-36158D01*
X57325Y-35933D01*
X57281Y-35707D01*
X57153Y-35515D01*
X57029Y-35433D01*
X57153Y-35350D01*
X57281Y-35158D01*
X57325Y-34933D01*
X57281Y-34707D01*
X57273Y-34695D01*
X59848Y-34695D01*
X59719Y-34823D01*
X59556Y-35218D01*
X59555Y-35645D01*
X59718Y-36040D01*
X60020Y-36343D01*
X60415Y-36506D01*
X60842Y-36507D01*
X61237Y-36344D01*
X61539Y-36042D01*
X61703Y-35647D01*
X61704Y-35220D01*
X61540Y-34825D01*
X61411Y-34695D01*
X62154Y-34695D01*
X62154Y-44831D01*
X62154Y-44831D01*
G37*
G54D20*
X62154Y-44831D02*
X47294Y-44831D01*
X47294Y-40281D01*
X49525Y-42512D01*
X49525Y-42600D01*
X49563Y-42692D01*
X49633Y-42762D01*
X49719Y-42798D01*
X49722Y-42815D01*
X49787Y-42913D01*
X50215Y-43340D01*
X50116Y-43340D01*
X49894Y-43432D01*
X49736Y-43590D01*
X49578Y-43432D01*
X49356Y-43340D01*
X49116Y-43340D01*
X48894Y-43432D01*
X48736Y-43590D01*
X48578Y-43432D01*
X48356Y-43340D01*
X48116Y-43340D01*
X47894Y-43432D01*
X47724Y-43602D01*
X47631Y-43824D01*
X47631Y-44064D01*
X47723Y-44286D01*
X47893Y-44456D01*
X48115Y-44549D01*
X48355Y-44549D01*
X48398Y-44531D01*
X48529Y-44662D01*
X48626Y-44727D01*
X48741Y-44750D01*
X52730Y-44750D01*
X52730Y-44750D01*
X52845Y-44727D01*
X52845Y-44727D01*
X52943Y-44662D01*
X53073Y-44531D01*
X53115Y-44549D01*
X53355Y-44549D01*
X53398Y-44531D01*
X53528Y-44661D01*
X53528Y-44661D01*
X53625Y-44726D01*
X53740Y-44749D01*
X56445Y-44749D01*
X56445Y-44749D01*
X56560Y-44726D01*
X56560Y-44726D01*
X56657Y-44661D01*
X56877Y-44441D01*
X56893Y-44456D01*
X57115Y-44549D01*
X57355Y-44549D01*
X57578Y-44457D01*
X57736Y-44299D01*
X57893Y-44456D01*
X58115Y-44549D01*
X58355Y-44549D01*
X58578Y-44457D01*
X58736Y-44299D01*
X58893Y-44456D01*
X59115Y-44549D01*
X59355Y-44549D01*
X59578Y-44457D01*
X59736Y-44299D01*
X59893Y-44456D01*
X60115Y-44549D01*
X60355Y-44549D01*
X60578Y-44457D01*
X60736Y-44299D01*
X60893Y-44456D01*
X61115Y-44549D01*
X61355Y-44549D01*
X61578Y-44457D01*
X61748Y-44287D01*
X61840Y-44065D01*
X61840Y-43825D01*
X61748Y-43603D01*
X61578Y-43432D01*
X61356Y-43340D01*
X61116Y-43340D01*
X61073Y-43358D01*
X60323Y-42607D01*
X60545Y-42607D01*
X60545Y-42607D01*
X60660Y-42584D01*
X60660Y-42584D01*
X60757Y-42519D01*
X61448Y-41828D01*
X61513Y-41731D01*
X61513Y-41731D01*
X61536Y-41616D01*
X61536Y-38474D01*
X61578Y-38457D01*
X61748Y-38287D01*
X61840Y-38065D01*
X61840Y-37825D01*
X61748Y-37603D01*
X61578Y-37432D01*
X61356Y-37340D01*
X61116Y-37340D01*
X60894Y-37432D01*
X60736Y-37590D01*
X60578Y-37432D01*
X60356Y-37340D01*
X60116Y-37340D01*
X59894Y-37432D01*
X59736Y-37590D01*
X59578Y-37432D01*
X59356Y-37340D01*
X59116Y-37340D01*
X59073Y-37358D01*
X58932Y-37216D01*
X58834Y-37151D01*
X58720Y-37128D01*
X53752Y-37128D01*
X53637Y-37151D01*
X53540Y-37216D01*
X53398Y-37358D01*
X53356Y-37340D01*
X53116Y-37340D01*
X52894Y-37432D01*
X52736Y-37590D01*
X52578Y-37432D01*
X52356Y-37340D01*
X52116Y-37340D01*
X51894Y-37432D01*
X51736Y-37590D01*
X51578Y-37432D01*
X51356Y-37340D01*
X51116Y-37340D01*
X50894Y-37432D01*
X50736Y-37590D01*
X50578Y-37432D01*
X50356Y-37340D01*
X50188Y-37340D01*
X51805Y-35723D01*
X52164Y-35723D01*
X52122Y-35933D01*
X52167Y-36158D01*
X52295Y-36350D01*
X52487Y-36478D01*
X52712Y-36523D01*
X52735Y-36523D01*
X52961Y-36478D01*
X53153Y-36350D01*
X53224Y-36243D01*
X53295Y-36350D01*
X53487Y-36478D01*
X53712Y-36523D01*
X53735Y-36523D01*
X53961Y-36478D01*
X54153Y-36350D01*
X54224Y-36243D01*
X54295Y-36350D01*
X54487Y-36478D01*
X54712Y-36523D01*
X54735Y-36523D01*
X54961Y-36478D01*
X55153Y-36350D01*
X55224Y-36243D01*
X55295Y-36350D01*
X55487Y-36478D01*
X55712Y-36523D01*
X55735Y-36523D01*
X55961Y-36478D01*
X56153Y-36350D01*
X56224Y-36243D01*
X56295Y-36350D01*
X56487Y-36478D01*
X56712Y-36523D01*
X56735Y-36523D01*
X56961Y-36478D01*
X57153Y-36350D01*
X57281Y-36158D01*
X57325Y-35933D01*
X57281Y-35707D01*
X57153Y-35515D01*
X57029Y-35433D01*
X57153Y-35350D01*
X57281Y-35158D01*
X57325Y-34933D01*
X57281Y-34707D01*
X57273Y-34695D01*
X59848Y-34695D01*
X59719Y-34823D01*
X59556Y-35218D01*
X59555Y-35645D01*
X59718Y-36040D01*
X60020Y-36343D01*
X60415Y-36506D01*
X60842Y-36507D01*
X61237Y-36344D01*
X61539Y-36042D01*
X61703Y-35647D01*
X61704Y-35220D01*
X61540Y-34825D01*
X61411Y-34695D01*
X62154Y-34695D01*
X62154Y-44831D01*
M02*
