M48
;DRILL file {Pcbnew (2013-mar-13)-testing} date Tue 15 Oct 2013 11:38:10 AM CEST
;FORMAT={-:-/ absolute / inch / decimal}
FMAT,2
INCH,TZ
T1C0.039
%
G90
G05
M72
T1
X5.6Y-1.95
X5.6Y-2.05
X5.6Y-2.15
X5.6Y-2.25
X5.6Y-2.35
X5.6Y-2.45
X5.6Y-2.55
X5.6Y-2.65
X5.6Y-2.75
X5.6Y-2.85
X5.6Y-4.15
X5.6Y-4.25
X5.6Y-4.35
X5.6Y-4.45
X5.6Y-4.55
X5.6Y-4.65
X5.6Y-4.75
X5.6Y-4.85
X5.6Y-4.95
X5.6Y-5.05
X5.6Y-5.15
X5.6Y-5.25
X6.2Y-1.95
X6.2Y-2.05
X6.2Y-2.15
X6.2Y-2.25
X6.2Y-2.35
X6.2Y-2.45
X6.2Y-2.55
X6.2Y-2.65
X6.2Y-2.75
X6.2Y-2.85
X6.2Y-4.15
X6.2Y-4.25
X6.2Y-4.35
X6.2Y-4.45
X6.2Y-4.55
X6.2Y-4.65
X6.2Y-4.75
X6.2Y-4.85
X6.2Y-4.95
X6.2Y-5.05
X6.2Y-5.15
X6.2Y-5.25
T0
M30
