G04 (created by PCBNEW (2013-mar-13)-testing) date Tue 15 Oct 2013 11:37:39 AM CEST*
%MOIN*%
G04 Gerber Fmt 3.4, Leading zero omitted, Abs format*
%FSLAX34Y34*%
G01*
G70*
G90*
G04 APERTURE LIST*
%ADD10C,0.005906*%
%ADD11R,0.086614X0.059055*%
%ADD12O,0.086614X0.059055*%
%ADD13R,0.030000X0.080000*%
%ADD14R,0.080000X0.030000*%
%ADD15C,0.011811*%
G04 APERTURE END LIST*
G54D10*
G54D11*
X62000Y-52500D03*
G54D12*
X62000Y-51500D03*
X62000Y-50500D03*
X62000Y-49500D03*
X62000Y-48500D03*
X62000Y-47500D03*
X62000Y-46500D03*
X62000Y-45500D03*
X62000Y-44500D03*
X62000Y-43500D03*
X62000Y-42500D03*
X62000Y-41500D03*
X62000Y-28500D03*
X62000Y-27500D03*
X62000Y-26500D03*
X62000Y-25500D03*
X62000Y-24500D03*
X62000Y-23500D03*
X62000Y-22500D03*
X62000Y-21500D03*
X62000Y-20500D03*
X62000Y-19500D03*
X56000Y-19500D03*
X56000Y-20500D03*
X56000Y-21500D03*
X56000Y-22500D03*
X56000Y-23500D03*
X56000Y-24500D03*
X56000Y-25500D03*
X56000Y-26500D03*
X56000Y-27500D03*
X56000Y-28500D03*
X56000Y-41500D03*
X56000Y-42500D03*
X56000Y-43500D03*
X56000Y-44500D03*
X56000Y-45500D03*
X56000Y-46500D03*
X56000Y-47500D03*
X56000Y-48500D03*
X56000Y-49500D03*
X56000Y-50500D03*
X56000Y-51500D03*
X56000Y-52500D03*
G54D13*
X59000Y-38250D03*
X59500Y-38250D03*
X60000Y-38250D03*
X60500Y-38250D03*
X61000Y-38250D03*
X61500Y-38250D03*
G54D14*
X62250Y-37500D03*
X62250Y-37000D03*
X62250Y-36500D03*
X62250Y-36000D03*
X62250Y-35500D03*
X62250Y-35000D03*
X62250Y-34500D03*
X62250Y-34000D03*
X62250Y-33500D03*
X62250Y-33000D03*
X62250Y-32500D03*
G54D13*
X61500Y-31750D03*
X61000Y-31750D03*
X60500Y-31750D03*
X60000Y-31750D03*
X59500Y-31750D03*
X59000Y-31750D03*
X58500Y-31750D03*
X58000Y-31750D03*
X57500Y-31750D03*
X57000Y-31750D03*
X56500Y-31750D03*
G54D14*
X55750Y-32500D03*
X55750Y-33000D03*
X55750Y-33500D03*
X55750Y-34000D03*
X55750Y-34500D03*
X55750Y-35000D03*
X55750Y-35500D03*
X55750Y-36000D03*
X55750Y-36500D03*
X55750Y-37000D03*
X55750Y-37500D03*
G54D13*
X56500Y-38250D03*
X57000Y-38250D03*
X57500Y-38250D03*
X58000Y-38250D03*
X58500Y-38250D03*
G54D15*
X62000Y-52500D02*
X62000Y-52045D01*
X59000Y-49292D02*
X59000Y-38809D01*
X61752Y-52045D02*
X59000Y-49292D01*
X62000Y-52045D02*
X61752Y-52045D01*
X59000Y-38250D02*
X59000Y-38809D01*
X62000Y-43500D02*
X62000Y-43045D01*
X62250Y-36000D02*
X62809Y-36000D01*
X61744Y-43045D02*
X62000Y-43045D01*
X61189Y-42490D02*
X61744Y-43045D01*
X61189Y-40975D02*
X61189Y-42490D01*
X63245Y-38919D02*
X61189Y-40975D01*
X63245Y-36436D02*
X63245Y-38919D01*
X62809Y-36000D02*
X63245Y-36436D01*
X61752Y-42045D02*
X62000Y-42045D01*
X61407Y-41700D02*
X61752Y-42045D01*
X61407Y-41220D02*
X61407Y-41700D01*
X63463Y-39164D02*
X61407Y-41220D01*
X63463Y-36154D02*
X63463Y-39164D01*
X62809Y-35500D02*
X63463Y-36154D01*
X62250Y-35500D02*
X62809Y-35500D01*
X62000Y-42500D02*
X62000Y-42045D01*
X62250Y-35000D02*
X62809Y-35000D01*
X62000Y-41500D02*
X62000Y-41045D01*
X63682Y-35872D02*
X62809Y-35000D01*
X63682Y-39363D02*
X63682Y-35872D01*
X62000Y-41045D02*
X63682Y-39363D01*
X62250Y-34500D02*
X62809Y-34500D01*
X62000Y-28500D02*
X62000Y-28954D01*
X63474Y-30429D02*
X62000Y-28954D01*
X63474Y-33834D02*
X63474Y-30429D01*
X62809Y-34500D02*
X63474Y-33834D01*
X61755Y-27954D02*
X62000Y-27954D01*
X61389Y-28320D02*
X61755Y-27954D01*
X61389Y-28901D02*
X61389Y-28320D01*
X63256Y-30769D02*
X61389Y-28901D01*
X63256Y-33552D02*
X63256Y-30769D01*
X62809Y-34000D02*
X63256Y-33552D01*
X62250Y-34000D02*
X62809Y-34000D01*
X62000Y-27500D02*
X62000Y-27954D01*
X61755Y-26954D02*
X62000Y-26954D01*
X61170Y-27539D02*
X61755Y-26954D01*
X61170Y-29006D02*
X61170Y-27539D01*
X63027Y-30862D02*
X61170Y-29006D01*
X63027Y-33281D02*
X63027Y-30862D01*
X62809Y-33500D02*
X63027Y-33281D01*
X62250Y-33500D02*
X62809Y-33500D01*
X62000Y-26500D02*
X62000Y-26954D01*
X62250Y-33000D02*
X62809Y-33000D01*
X62000Y-25500D02*
X62000Y-25954D01*
X61755Y-25954D02*
X62000Y-25954D01*
X60952Y-26757D02*
X61755Y-25954D01*
X60952Y-29362D02*
X60952Y-26757D01*
X62809Y-31218D02*
X60952Y-29362D01*
X62809Y-33000D02*
X62809Y-31218D01*
X62000Y-24500D02*
X62000Y-24954D01*
X61755Y-24954D02*
X62000Y-24954D01*
X60728Y-25981D02*
X61755Y-24954D01*
X60728Y-29754D02*
X60728Y-25981D01*
X62250Y-31276D02*
X60728Y-29754D01*
X62250Y-32500D02*
X62250Y-31276D01*
X61500Y-31750D02*
X61500Y-31190D01*
X62000Y-23500D02*
X62000Y-23954D01*
X61755Y-23954D02*
X62000Y-23954D01*
X60509Y-25200D02*
X61755Y-23954D01*
X60509Y-30199D02*
X60509Y-25200D01*
X61500Y-31190D02*
X60509Y-30199D01*
X61000Y-31750D02*
X61000Y-31190D01*
X62000Y-22500D02*
X62000Y-22954D01*
X61755Y-22954D02*
X62000Y-22954D01*
X60277Y-24432D02*
X61755Y-22954D01*
X60277Y-30468D02*
X60277Y-24432D01*
X61000Y-31190D02*
X60277Y-30468D01*
X59500Y-38250D02*
X59500Y-38809D01*
X62000Y-51500D02*
X62000Y-51045D01*
X61755Y-51045D02*
X62000Y-51045D01*
X59443Y-48733D02*
X61755Y-51045D01*
X59443Y-38865D02*
X59443Y-48733D01*
X59500Y-38809D02*
X59443Y-38865D01*
X60500Y-31750D02*
X60500Y-31190D01*
X62000Y-21500D02*
X62000Y-21954D01*
X61755Y-21954D02*
X62000Y-21954D01*
X60054Y-23655D02*
X61755Y-21954D01*
X60054Y-30745D02*
X60054Y-23655D01*
X60500Y-31190D02*
X60054Y-30745D01*
X61755Y-20954D02*
X62000Y-20954D01*
X59836Y-22873D02*
X61755Y-20954D01*
X59836Y-31027D02*
X59836Y-22873D01*
X60000Y-31190D02*
X59836Y-31027D01*
X60000Y-31750D02*
X60000Y-31190D01*
X62000Y-20500D02*
X62000Y-20954D01*
X62000Y-19500D02*
X62000Y-19954D01*
X59500Y-22209D02*
X59500Y-31190D01*
X61755Y-19954D02*
X59500Y-22209D01*
X62000Y-19954D02*
X61755Y-19954D01*
X59500Y-31750D02*
X59500Y-31190D01*
X56244Y-19954D02*
X56000Y-19954D01*
X59000Y-22709D02*
X56244Y-19954D01*
X59000Y-31750D02*
X59000Y-22709D01*
X56000Y-19500D02*
X56000Y-19954D01*
X56244Y-20954D02*
X56000Y-20954D01*
X58500Y-23209D02*
X56244Y-20954D01*
X58500Y-31750D02*
X58500Y-23209D01*
X56000Y-20500D02*
X56000Y-20954D01*
X56000Y-21500D02*
X56000Y-21954D01*
X58000Y-31750D02*
X58000Y-31190D01*
X56244Y-21954D02*
X56000Y-21954D01*
X58000Y-23709D02*
X56244Y-21954D01*
X58000Y-31190D02*
X58000Y-23709D01*
X57500Y-31750D02*
X57500Y-31190D01*
X56000Y-22500D02*
X56000Y-22954D01*
X56244Y-22954D02*
X56000Y-22954D01*
X57703Y-24413D02*
X56244Y-22954D01*
X57703Y-30987D02*
X57703Y-24413D01*
X57500Y-31190D02*
X57703Y-30987D01*
X57000Y-31750D02*
X57000Y-31190D01*
X56000Y-23500D02*
X56000Y-23954D01*
X56244Y-23954D02*
X56000Y-23954D01*
X57473Y-25183D02*
X56244Y-23954D01*
X57473Y-30717D02*
X57473Y-25183D01*
X57000Y-31190D02*
X57473Y-30717D01*
X56000Y-24500D02*
X56000Y-24954D01*
X56244Y-24954D02*
X56000Y-24954D01*
X57252Y-25962D02*
X56244Y-24954D01*
X57252Y-29536D02*
X57252Y-25962D01*
X56500Y-30289D02*
X57252Y-29536D01*
X56500Y-31750D02*
X56500Y-30289D01*
X56244Y-25954D02*
X56000Y-25954D01*
X57034Y-26743D02*
X56244Y-25954D01*
X57034Y-29292D02*
X57034Y-26743D01*
X55750Y-30576D02*
X57034Y-29292D01*
X55750Y-32500D02*
X55750Y-30576D01*
X56000Y-25500D02*
X56000Y-25954D01*
X60000Y-38250D02*
X60000Y-38809D01*
X62000Y-50500D02*
X62000Y-50045D01*
X61755Y-50045D02*
X62000Y-50045D01*
X59661Y-47951D02*
X61755Y-50045D01*
X59661Y-39147D02*
X59661Y-47951D01*
X60000Y-38809D02*
X59661Y-39147D01*
X55750Y-33000D02*
X55190Y-33000D01*
X56000Y-26500D02*
X56000Y-26954D01*
X55190Y-30475D02*
X55190Y-33000D01*
X56815Y-28850D02*
X55190Y-30475D01*
X56815Y-27525D02*
X56815Y-28850D01*
X56244Y-26954D02*
X56815Y-27525D01*
X56000Y-26954D02*
X56244Y-26954D01*
X56000Y-27500D02*
X56000Y-27954D01*
X55750Y-33500D02*
X55190Y-33500D01*
X54972Y-33281D02*
X55190Y-33500D01*
X54972Y-30322D02*
X54972Y-33281D01*
X56597Y-28697D02*
X54972Y-30322D01*
X56597Y-28296D02*
X56597Y-28697D01*
X56255Y-27954D02*
X56597Y-28296D01*
X56000Y-27954D02*
X56255Y-27954D01*
X56000Y-28500D02*
X56000Y-28954D01*
X55750Y-34000D02*
X55190Y-34000D01*
X54754Y-33563D02*
X55190Y-34000D01*
X54754Y-30200D02*
X54754Y-33563D01*
X56000Y-28954D02*
X54754Y-30200D01*
X55750Y-34500D02*
X55190Y-34500D01*
X56000Y-41500D02*
X56000Y-41045D01*
X54088Y-39134D02*
X56000Y-41045D01*
X54088Y-35602D02*
X54088Y-39134D01*
X55190Y-34500D02*
X54088Y-35602D01*
X56250Y-42045D02*
X56000Y-42045D01*
X56595Y-41700D02*
X56250Y-42045D01*
X56595Y-41189D02*
X56595Y-41700D01*
X54307Y-38901D02*
X56595Y-41189D01*
X54307Y-35883D02*
X54307Y-38901D01*
X55190Y-35000D02*
X54307Y-35883D01*
X55750Y-35000D02*
X55190Y-35000D01*
X56000Y-42500D02*
X56000Y-42045D01*
X56000Y-43500D02*
X56000Y-43045D01*
X55750Y-35500D02*
X55190Y-35500D01*
X54525Y-36165D02*
X55190Y-35500D01*
X54525Y-38792D02*
X54525Y-36165D01*
X56814Y-41080D02*
X54525Y-38792D01*
X56814Y-42487D02*
X56814Y-41080D01*
X56255Y-43045D02*
X56814Y-42487D01*
X56000Y-43045D02*
X56255Y-43045D01*
X55750Y-36000D02*
X55190Y-36000D01*
X56000Y-44500D02*
X56000Y-44045D01*
X56244Y-44045D02*
X56000Y-44045D01*
X57032Y-43257D02*
X56244Y-44045D01*
X57032Y-40957D02*
X57032Y-43257D01*
X54743Y-38668D02*
X57032Y-40957D01*
X54743Y-36447D02*
X54743Y-38668D01*
X55190Y-36000D02*
X54743Y-36447D01*
X55750Y-36500D02*
X55190Y-36500D01*
X56000Y-45500D02*
X56000Y-45045D01*
X56244Y-45045D02*
X56000Y-45045D01*
X57250Y-44039D02*
X56244Y-45045D01*
X57250Y-40867D02*
X57250Y-44039D01*
X54972Y-38589D02*
X57250Y-40867D01*
X54972Y-36718D02*
X54972Y-38589D01*
X55190Y-36500D02*
X54972Y-36718D01*
X55750Y-37000D02*
X55190Y-37000D01*
X56000Y-46500D02*
X56000Y-46045D01*
X56244Y-46045D02*
X56000Y-46045D01*
X57468Y-44821D02*
X56244Y-46045D01*
X57468Y-40776D02*
X57468Y-44821D01*
X55190Y-38498D02*
X57468Y-40776D01*
X55190Y-37000D02*
X55190Y-38498D01*
X56000Y-47500D02*
X56000Y-47045D01*
X56255Y-47045D02*
X56000Y-47045D01*
X57686Y-45614D02*
X56255Y-47045D01*
X57686Y-40686D02*
X57686Y-45614D01*
X55750Y-38749D02*
X57686Y-40686D01*
X55750Y-37500D02*
X55750Y-38749D01*
X60500Y-38250D02*
X60500Y-38809D01*
X62000Y-49500D02*
X62000Y-49045D01*
X61755Y-49045D02*
X62000Y-49045D01*
X59880Y-47170D02*
X61755Y-49045D01*
X59880Y-39429D02*
X59880Y-47170D01*
X60500Y-38809D02*
X59880Y-39429D01*
X56500Y-38250D02*
X56500Y-38809D01*
X56000Y-48500D02*
X56000Y-48045D01*
X56244Y-48045D02*
X56000Y-48045D01*
X57905Y-46384D02*
X56244Y-48045D01*
X57905Y-40214D02*
X57905Y-46384D01*
X56500Y-38809D02*
X57905Y-40214D01*
X57000Y-38250D02*
X57000Y-38809D01*
X56000Y-49500D02*
X56000Y-49045D01*
X56244Y-49045D02*
X56000Y-49045D01*
X58123Y-47166D02*
X56244Y-49045D01*
X58123Y-39932D02*
X58123Y-47166D01*
X57000Y-38809D02*
X58123Y-39932D01*
X57500Y-38250D02*
X57500Y-38809D01*
X56000Y-50500D02*
X56000Y-50045D01*
X56244Y-50045D02*
X56000Y-50045D01*
X58341Y-47948D02*
X56244Y-50045D01*
X58341Y-39650D02*
X58341Y-47948D01*
X57500Y-38809D02*
X58341Y-39650D01*
X58000Y-38250D02*
X58000Y-38809D01*
X56000Y-51500D02*
X56000Y-51045D01*
X56244Y-51045D02*
X56000Y-51045D01*
X58560Y-48730D02*
X56244Y-51045D01*
X58560Y-39369D02*
X58560Y-48730D01*
X58000Y-38809D02*
X58560Y-39369D01*
X56244Y-52045D02*
X56000Y-52045D01*
X58778Y-49511D02*
X56244Y-52045D01*
X58778Y-39087D02*
X58778Y-49511D01*
X58500Y-38809D02*
X58778Y-39087D01*
X58500Y-38250D02*
X58500Y-38809D01*
X56000Y-52500D02*
X56000Y-52045D01*
X61000Y-38250D02*
X61000Y-38809D01*
X62000Y-48500D02*
X62000Y-48045D01*
X61755Y-48045D02*
X62000Y-48045D01*
X60098Y-46388D02*
X61755Y-48045D01*
X60098Y-39710D02*
X60098Y-46388D01*
X61000Y-38809D02*
X60098Y-39710D01*
X62000Y-47500D02*
X62000Y-47045D01*
X61500Y-38250D02*
X61500Y-38809D01*
X61755Y-47045D02*
X62000Y-47045D01*
X60316Y-45606D02*
X61755Y-47045D01*
X60316Y-39992D02*
X60316Y-45606D01*
X61500Y-38809D02*
X60316Y-39992D01*
X62000Y-46500D02*
X62000Y-46045D01*
X61755Y-46045D02*
X62000Y-46045D01*
X60534Y-44824D02*
X61755Y-46045D01*
X60534Y-40704D02*
X60534Y-44824D01*
X62250Y-38989D02*
X60534Y-40704D01*
X62250Y-37500D02*
X62250Y-38989D01*
X62250Y-37000D02*
X62809Y-37000D01*
X62000Y-45500D02*
X62000Y-45045D01*
X61755Y-45045D02*
X62000Y-45045D01*
X60752Y-44043D02*
X61755Y-45045D01*
X60752Y-40795D02*
X60752Y-44043D01*
X62809Y-38738D02*
X60752Y-40795D01*
X62809Y-37000D02*
X62809Y-38738D01*
X62250Y-36500D02*
X62809Y-36500D01*
X62000Y-44500D02*
X62000Y-44045D01*
X61755Y-44045D02*
X62000Y-44045D01*
X60971Y-43261D02*
X61755Y-44045D01*
X60971Y-40885D02*
X60971Y-43261D01*
X63027Y-38829D02*
X60971Y-40885D01*
X63027Y-36718D02*
X63027Y-38829D01*
X62809Y-36500D02*
X63027Y-36718D01*
M02*
