%FSLAX34Y34*%
G04 Gerber Fmt 3.4, Leading zero omitted, Abs format*
G04 (created by PCBNEW (2014-04-07 BZR 4791)-product) date ons  9 apr 2014 20:42:48*
%MOIN*%
G01*
G70*
G90*
G04 APERTURE LIST*
%ADD10C,0.005906*%
%ADD11C,0.009843*%
%ADD12C,0.007874*%
%ADD13C,0.005000*%
%ADD14C,0.010000*%
%ADD15C,0.012000*%
%ADD16C,0.003100*%
%ADD17C,0.004500*%
%ADD18C,0.008000*%
%ADD19C,0.006000*%
%ADD20C,0.004700*%
%ADD21C,0.003900*%
G04 APERTURE END LIST*
G54D10*
G54D11*
X57236Y-37167D02*
X57180Y-37185D01*
X57086Y-37185D01*
X57049Y-37167D01*
X57030Y-37148D01*
X57011Y-37110D01*
X57011Y-37073D01*
X57030Y-37035D01*
X57049Y-37017D01*
X57086Y-36998D01*
X57161Y-36979D01*
X57199Y-36961D01*
X57217Y-36942D01*
X57236Y-36904D01*
X57236Y-36867D01*
X57217Y-36829D01*
X57199Y-36811D01*
X57161Y-36792D01*
X57067Y-36792D01*
X57011Y-36811D01*
X56842Y-37148D02*
X56824Y-37167D01*
X56842Y-37185D01*
X56861Y-37167D01*
X56842Y-37148D01*
X56842Y-37185D01*
X56130Y-37185D02*
X56261Y-36998D01*
X56355Y-37185D02*
X56355Y-36792D01*
X56205Y-36792D01*
X56167Y-36811D01*
X56149Y-36829D01*
X56130Y-36867D01*
X56130Y-36923D01*
X56149Y-36961D01*
X56167Y-36979D01*
X56205Y-36998D01*
X56355Y-36998D01*
X55905Y-37185D02*
X55943Y-37167D01*
X55961Y-37148D01*
X55980Y-37110D01*
X55980Y-36998D01*
X55961Y-36961D01*
X55943Y-36942D01*
X55905Y-36923D01*
X55849Y-36923D01*
X55811Y-36942D01*
X55793Y-36961D01*
X55774Y-36998D01*
X55774Y-37110D01*
X55793Y-37148D01*
X55811Y-37167D01*
X55849Y-37185D01*
X55905Y-37185D01*
X55436Y-37185D02*
X55436Y-36792D01*
X55436Y-37167D02*
X55474Y-37185D01*
X55549Y-37185D01*
X55586Y-37167D01*
X55605Y-37148D01*
X55624Y-37110D01*
X55624Y-36998D01*
X55605Y-36961D01*
X55586Y-36942D01*
X55549Y-36923D01*
X55474Y-36923D01*
X55436Y-36942D01*
X55249Y-37185D02*
X55249Y-36923D01*
X55249Y-36998D02*
X55230Y-36961D01*
X55211Y-36942D01*
X55174Y-36923D01*
X55136Y-36923D01*
X55005Y-37185D02*
X55005Y-36923D01*
X55005Y-36792D02*
X55024Y-36811D01*
X55005Y-36829D01*
X54986Y-36811D01*
X55005Y-36792D01*
X55005Y-36829D01*
X54649Y-36923D02*
X54649Y-37242D01*
X54668Y-37279D01*
X54686Y-37298D01*
X54724Y-37317D01*
X54780Y-37317D01*
X54818Y-37298D01*
X54649Y-37167D02*
X54686Y-37185D01*
X54761Y-37185D01*
X54799Y-37167D01*
X54818Y-37148D01*
X54836Y-37110D01*
X54836Y-36998D01*
X54818Y-36961D01*
X54799Y-36942D01*
X54761Y-36923D01*
X54686Y-36923D01*
X54649Y-36942D01*
X54293Y-36923D02*
X54293Y-37185D01*
X54461Y-36923D02*
X54461Y-37129D01*
X54443Y-37167D01*
X54405Y-37185D01*
X54349Y-37185D01*
X54311Y-37167D01*
X54293Y-37148D01*
X53955Y-37167D02*
X53993Y-37185D01*
X54068Y-37185D01*
X54105Y-37167D01*
X54124Y-37129D01*
X54124Y-36979D01*
X54105Y-36942D01*
X54068Y-36923D01*
X53993Y-36923D01*
X53955Y-36942D01*
X53937Y-36979D01*
X53937Y-37017D01*
X54124Y-37054D01*
X53805Y-36923D02*
X53599Y-36923D01*
X53805Y-37185D01*
X53599Y-37185D01*
X53168Y-36829D02*
X53149Y-36811D01*
X53112Y-36792D01*
X53018Y-36792D01*
X52980Y-36811D01*
X52962Y-36829D01*
X52943Y-36867D01*
X52943Y-36904D01*
X52962Y-36961D01*
X53187Y-37185D01*
X52943Y-37185D01*
X52699Y-36792D02*
X52662Y-36792D01*
X52624Y-36811D01*
X52605Y-36829D01*
X52587Y-36867D01*
X52568Y-36942D01*
X52568Y-37035D01*
X52587Y-37110D01*
X52605Y-37148D01*
X52624Y-37167D01*
X52662Y-37185D01*
X52699Y-37185D01*
X52737Y-37167D01*
X52755Y-37148D01*
X52774Y-37110D01*
X52793Y-37035D01*
X52793Y-36942D01*
X52774Y-36867D01*
X52755Y-36829D01*
X52737Y-36811D01*
X52699Y-36792D01*
X52193Y-37185D02*
X52418Y-37185D01*
X52305Y-37185D02*
X52305Y-36792D01*
X52343Y-36848D01*
X52380Y-36886D01*
X52418Y-36904D01*
X51856Y-36923D02*
X51856Y-37185D01*
X51949Y-36773D02*
X52043Y-37054D01*
X51799Y-37054D01*
X47654Y-38661D02*
X47182Y-38661D01*
X47182Y-38773D01*
X47204Y-38841D01*
X47249Y-38886D01*
X47294Y-38908D01*
X47384Y-38931D01*
X47452Y-38931D01*
X47542Y-38908D01*
X47587Y-38886D01*
X47632Y-38841D01*
X47654Y-38773D01*
X47654Y-38661D01*
X47654Y-39133D02*
X47182Y-39133D01*
X47632Y-39336D02*
X47654Y-39403D01*
X47654Y-39516D01*
X47632Y-39561D01*
X47609Y-39583D01*
X47564Y-39606D01*
X47519Y-39606D01*
X47474Y-39583D01*
X47452Y-39561D01*
X47429Y-39516D01*
X47407Y-39426D01*
X47384Y-39381D01*
X47362Y-39358D01*
X47317Y-39336D01*
X47272Y-39336D01*
X47227Y-39358D01*
X47204Y-39381D01*
X47182Y-39426D01*
X47182Y-39538D01*
X47204Y-39606D01*
X47654Y-39808D02*
X47182Y-39808D01*
X47182Y-39988D01*
X47204Y-40033D01*
X47227Y-40056D01*
X47272Y-40078D01*
X47339Y-40078D01*
X47384Y-40056D01*
X47407Y-40033D01*
X47429Y-39988D01*
X47429Y-39808D01*
X47182Y-40236D02*
X47182Y-40528D01*
X47362Y-40371D01*
X47362Y-40438D01*
X47384Y-40483D01*
X47407Y-40506D01*
X47452Y-40528D01*
X47564Y-40528D01*
X47609Y-40506D01*
X47632Y-40483D01*
X47654Y-40438D01*
X47654Y-40303D01*
X47632Y-40258D01*
X47609Y-40236D01*
X47699Y-40618D02*
X47699Y-40978D01*
X47654Y-41091D02*
X47182Y-41091D01*
X47227Y-41293D02*
X47204Y-41316D01*
X47182Y-41361D01*
X47182Y-41473D01*
X47204Y-41518D01*
X47227Y-41541D01*
X47272Y-41563D01*
X47317Y-41563D01*
X47384Y-41541D01*
X47654Y-41271D01*
X47654Y-41563D01*
X47609Y-42035D02*
X47632Y-42013D01*
X47654Y-41946D01*
X47654Y-41901D01*
X47632Y-41833D01*
X47587Y-41788D01*
X47542Y-41766D01*
X47452Y-41743D01*
X47384Y-41743D01*
X47294Y-41766D01*
X47249Y-41788D01*
X47204Y-41833D01*
X47182Y-41901D01*
X47182Y-41946D01*
X47204Y-42013D01*
X47227Y-42035D01*
X47182Y-42530D02*
X47654Y-42688D01*
X47182Y-42845D01*
X47654Y-43250D02*
X47654Y-42980D01*
X47654Y-43115D02*
X47182Y-43115D01*
X47249Y-43070D01*
X47294Y-43025D01*
X47317Y-42980D01*
X60348Y-42538D02*
X60329Y-42519D01*
X60292Y-42500D01*
X60198Y-42500D01*
X60161Y-42519D01*
X60142Y-42538D01*
X60123Y-42575D01*
X60123Y-42613D01*
X60142Y-42669D01*
X60367Y-42894D01*
X60123Y-42894D01*
X59336Y-42894D02*
X59561Y-42894D01*
X59448Y-42894D02*
X59448Y-42500D01*
X59486Y-42557D01*
X59523Y-42594D01*
X59561Y-42613D01*
X58680Y-42500D02*
X58642Y-42500D01*
X58605Y-42519D01*
X58586Y-42538D01*
X58567Y-42575D01*
X58548Y-42650D01*
X58548Y-42744D01*
X58567Y-42819D01*
X58586Y-42857D01*
X58605Y-42875D01*
X58642Y-42894D01*
X58680Y-42894D01*
X58717Y-42875D01*
X58736Y-42857D01*
X58755Y-42819D01*
X58773Y-42744D01*
X58773Y-42650D01*
X58755Y-42575D01*
X58736Y-42538D01*
X58717Y-42519D01*
X58680Y-42500D01*
G54D12*
X51968Y-34842D02*
G75*
G03X51968Y-34842I-196J0D01*
G74*
G01*
G54D13*
X50250Y-40213D02*
X50250Y-39313D01*
X50250Y-39313D02*
X49750Y-39313D01*
X49750Y-39313D02*
X49750Y-40213D01*
X49750Y-40213D02*
X50250Y-40213D01*
G54D14*
X52224Y-36433D02*
X57224Y-36433D01*
X57224Y-36433D02*
X57224Y-34433D01*
X57224Y-34433D02*
X53224Y-34433D01*
X52224Y-36433D02*
X52224Y-35433D01*
X52224Y-34433D02*
X53224Y-34433D01*
X52224Y-35433D02*
X53224Y-35433D01*
X53224Y-35433D02*
X53224Y-34433D01*
X52224Y-34433D02*
X52224Y-35433D01*
G54D13*
X50275Y-41141D02*
X50275Y-41419D01*
X50275Y-41419D02*
X49725Y-41419D01*
X49725Y-41419D02*
X49725Y-41141D01*
X50275Y-40469D02*
X50275Y-40747D01*
X50275Y-40469D02*
X49725Y-40469D01*
X49725Y-40469D02*
X49725Y-40747D01*
X49725Y-41928D02*
X49725Y-41650D01*
X49725Y-41650D02*
X50275Y-41650D01*
X50275Y-41650D02*
X50275Y-41928D01*
X49725Y-42600D02*
X49725Y-42322D01*
X49725Y-42600D02*
X50275Y-42600D01*
X50275Y-42600D02*
X50275Y-42322D01*
X58936Y-41929D02*
X58936Y-42207D01*
X58936Y-42207D02*
X58386Y-42207D01*
X58386Y-42207D02*
X58386Y-41929D01*
X58936Y-41257D02*
X58936Y-41535D01*
X58936Y-41257D02*
X58386Y-41257D01*
X58386Y-41257D02*
X58386Y-41535D01*
X59723Y-41929D02*
X59723Y-42207D01*
X59723Y-42207D02*
X59173Y-42207D01*
X59173Y-42207D02*
X59173Y-41929D01*
X59723Y-41257D02*
X59723Y-41535D01*
X59723Y-41257D02*
X59173Y-41257D01*
X59173Y-41257D02*
X59173Y-41535D01*
X60511Y-41929D02*
X60511Y-42207D01*
X60511Y-42207D02*
X59961Y-42207D01*
X59961Y-42207D02*
X59961Y-41929D01*
X60511Y-41257D02*
X60511Y-41535D01*
X60511Y-41257D02*
X59961Y-41257D01*
X59961Y-41257D02*
X59961Y-41535D01*
G54D15*
X57830Y-41944D02*
X57830Y-39444D01*
X57830Y-39444D02*
X50830Y-39444D01*
X50830Y-39444D02*
X50830Y-42444D01*
X50830Y-42444D02*
X57830Y-42444D01*
X57830Y-42444D02*
X57830Y-41944D01*
X50830Y-41194D02*
X51330Y-41194D01*
X51330Y-41194D02*
X51330Y-40694D01*
X51330Y-40694D02*
X50830Y-40694D01*
G54D16*
X59084Y-40039D02*
G75*
G03X59084Y-40039I-79J0D01*
G74*
G01*
X59948Y-40357D02*
X59948Y-39957D01*
X58923Y-40357D02*
X58923Y-39957D01*
X59948Y-39957D02*
X58923Y-39957D01*
X58923Y-40357D02*
X59948Y-40357D01*
G54D17*
X50071Y-39733D02*
X50080Y-39725D01*
X50090Y-39699D01*
X50090Y-39682D01*
X50080Y-39656D01*
X50061Y-39639D01*
X50042Y-39630D01*
X50004Y-39622D01*
X49976Y-39622D01*
X49938Y-39630D01*
X49919Y-39639D01*
X49900Y-39656D01*
X49890Y-39682D01*
X49890Y-39699D01*
X49900Y-39725D01*
X49909Y-39733D01*
X50090Y-39905D02*
X50090Y-39802D01*
X50090Y-39853D02*
X49890Y-39853D01*
X49919Y-39836D01*
X49938Y-39819D01*
X49947Y-39802D01*
G54D18*
X51943Y-36052D02*
X51943Y-35552D01*
X51753Y-35552D01*
X51705Y-35576D01*
X51681Y-35600D01*
X51658Y-35648D01*
X51658Y-35719D01*
X51681Y-35767D01*
X51705Y-35791D01*
X51753Y-35814D01*
X51943Y-35814D01*
X51181Y-36052D02*
X51467Y-36052D01*
X51324Y-36052D02*
X51324Y-35552D01*
X51372Y-35624D01*
X51420Y-35672D01*
X51467Y-35695D01*
G54D17*
X50055Y-41009D02*
X50115Y-40915D01*
X50157Y-41009D02*
X50157Y-40812D01*
X50089Y-40812D01*
X50072Y-40821D01*
X50063Y-40830D01*
X50055Y-40849D01*
X50055Y-40877D01*
X50063Y-40896D01*
X50072Y-40905D01*
X50089Y-40915D01*
X50157Y-40915D01*
X49883Y-41009D02*
X49986Y-41009D01*
X49935Y-41009D02*
X49935Y-40812D01*
X49952Y-40840D01*
X49969Y-40858D01*
X49986Y-40868D01*
X50124Y-41704D02*
X50227Y-41704D01*
X50175Y-41704D02*
X50175Y-41504D01*
X50192Y-41532D01*
X50210Y-41551D01*
X50227Y-41561D01*
X50012Y-41504D02*
X49995Y-41504D01*
X49978Y-41513D01*
X49970Y-41523D01*
X49961Y-41542D01*
X49952Y-41580D01*
X49952Y-41628D01*
X49961Y-41666D01*
X49970Y-41685D01*
X49978Y-41694D01*
X49995Y-41704D01*
X50012Y-41704D01*
X50030Y-41694D01*
X50038Y-41685D01*
X50047Y-41666D01*
X50055Y-41628D01*
X50055Y-41580D01*
X50047Y-41542D01*
X50038Y-41523D01*
X50030Y-41513D01*
X50012Y-41504D01*
X49875Y-41704D02*
X49875Y-41504D01*
X49772Y-41704D02*
X49850Y-41590D01*
X49772Y-41504D02*
X49875Y-41618D01*
X50005Y-42240D02*
X50065Y-42146D01*
X50107Y-42240D02*
X50107Y-42043D01*
X50039Y-42043D01*
X50022Y-42052D01*
X50013Y-42061D01*
X50005Y-42080D01*
X50005Y-42108D01*
X50013Y-42127D01*
X50022Y-42136D01*
X50039Y-42146D01*
X50107Y-42146D01*
X49936Y-42061D02*
X49927Y-42052D01*
X49910Y-42043D01*
X49867Y-42043D01*
X49850Y-42052D01*
X49842Y-42061D01*
X49833Y-42080D01*
X49833Y-42099D01*
X49842Y-42127D01*
X49945Y-42240D01*
X49833Y-42240D01*
X50124Y-41547D02*
X50227Y-41547D01*
X50175Y-41547D02*
X50175Y-41347D01*
X50192Y-41376D01*
X50210Y-41395D01*
X50227Y-41404D01*
X50012Y-41347D02*
X49995Y-41347D01*
X49978Y-41356D01*
X49970Y-41366D01*
X49961Y-41385D01*
X49952Y-41423D01*
X49952Y-41471D01*
X49961Y-41509D01*
X49970Y-41528D01*
X49978Y-41537D01*
X49995Y-41547D01*
X50012Y-41547D01*
X50030Y-41537D01*
X50038Y-41528D01*
X50047Y-41509D01*
X50055Y-41471D01*
X50055Y-41423D01*
X50047Y-41385D01*
X50038Y-41366D01*
X50030Y-41356D01*
X50012Y-41347D01*
X49875Y-41547D02*
X49875Y-41347D01*
X49772Y-41547D02*
X49850Y-41433D01*
X49772Y-41347D02*
X49875Y-41461D01*
X58716Y-41796D02*
X58776Y-41702D01*
X58819Y-41796D02*
X58819Y-41599D01*
X58750Y-41599D01*
X58733Y-41608D01*
X58724Y-41618D01*
X58716Y-41636D01*
X58716Y-41665D01*
X58724Y-41683D01*
X58733Y-41693D01*
X58750Y-41702D01*
X58819Y-41702D01*
X58656Y-41599D02*
X58544Y-41599D01*
X58604Y-41674D01*
X58579Y-41674D01*
X58562Y-41683D01*
X58553Y-41693D01*
X58544Y-41711D01*
X58544Y-41758D01*
X58553Y-41777D01*
X58562Y-41787D01*
X58579Y-41796D01*
X58630Y-41796D01*
X58647Y-41787D01*
X58656Y-41777D01*
X58897Y-40835D02*
X58785Y-40835D01*
X58845Y-40911D01*
X58819Y-40911D01*
X58802Y-40921D01*
X58794Y-40930D01*
X58785Y-40949D01*
X58785Y-40997D01*
X58794Y-41016D01*
X58802Y-41025D01*
X58819Y-41035D01*
X58871Y-41035D01*
X58888Y-41025D01*
X58897Y-41016D01*
X58699Y-41035D02*
X58665Y-41035D01*
X58648Y-41025D01*
X58639Y-41016D01*
X58622Y-40987D01*
X58614Y-40949D01*
X58614Y-40873D01*
X58622Y-40854D01*
X58631Y-40844D01*
X58648Y-40835D01*
X58682Y-40835D01*
X58699Y-40844D01*
X58708Y-40854D01*
X58717Y-40873D01*
X58717Y-40921D01*
X58708Y-40940D01*
X58699Y-40949D01*
X58682Y-40959D01*
X58648Y-40959D01*
X58631Y-40949D01*
X58622Y-40940D01*
X58614Y-40921D01*
X58537Y-41035D02*
X58537Y-40835D01*
X58434Y-41035D02*
X58511Y-40921D01*
X58434Y-40835D02*
X58537Y-40949D01*
X59503Y-41796D02*
X59563Y-41702D01*
X59606Y-41796D02*
X59606Y-41599D01*
X59538Y-41599D01*
X59520Y-41608D01*
X59512Y-41618D01*
X59503Y-41636D01*
X59503Y-41665D01*
X59512Y-41683D01*
X59520Y-41693D01*
X59538Y-41702D01*
X59606Y-41702D01*
X59349Y-41665D02*
X59349Y-41796D01*
X59392Y-41590D02*
X59435Y-41730D01*
X59323Y-41730D01*
X59684Y-40835D02*
X59573Y-40835D01*
X59633Y-40911D01*
X59607Y-40911D01*
X59590Y-40921D01*
X59581Y-40930D01*
X59573Y-40949D01*
X59573Y-40997D01*
X59581Y-41016D01*
X59590Y-41025D01*
X59607Y-41035D01*
X59658Y-41035D01*
X59675Y-41025D01*
X59684Y-41016D01*
X59487Y-41035D02*
X59453Y-41035D01*
X59435Y-41025D01*
X59427Y-41016D01*
X59410Y-40987D01*
X59401Y-40949D01*
X59401Y-40873D01*
X59410Y-40854D01*
X59418Y-40844D01*
X59435Y-40835D01*
X59470Y-40835D01*
X59487Y-40844D01*
X59495Y-40854D01*
X59504Y-40873D01*
X59504Y-40921D01*
X59495Y-40940D01*
X59487Y-40949D01*
X59470Y-40959D01*
X59435Y-40959D01*
X59418Y-40949D01*
X59410Y-40940D01*
X59401Y-40921D01*
X59324Y-41035D02*
X59324Y-40835D01*
X59221Y-41035D02*
X59298Y-40921D01*
X59221Y-40835D02*
X59324Y-40949D01*
X60291Y-41796D02*
X60351Y-41702D01*
X60394Y-41796D02*
X60394Y-41599D01*
X60325Y-41599D01*
X60308Y-41608D01*
X60299Y-41618D01*
X60291Y-41636D01*
X60291Y-41665D01*
X60299Y-41683D01*
X60308Y-41693D01*
X60325Y-41702D01*
X60394Y-41702D01*
X60128Y-41599D02*
X60214Y-41599D01*
X60222Y-41693D01*
X60214Y-41683D01*
X60196Y-41674D01*
X60154Y-41674D01*
X60136Y-41683D01*
X60128Y-41693D01*
X60119Y-41711D01*
X60119Y-41758D01*
X60128Y-41777D01*
X60136Y-41787D01*
X60154Y-41796D01*
X60196Y-41796D01*
X60214Y-41787D01*
X60222Y-41777D01*
X60471Y-40835D02*
X60360Y-40835D01*
X60420Y-40911D01*
X60394Y-40911D01*
X60377Y-40921D01*
X60369Y-40930D01*
X60360Y-40949D01*
X60360Y-40997D01*
X60369Y-41016D01*
X60377Y-41025D01*
X60394Y-41035D01*
X60446Y-41035D01*
X60463Y-41025D01*
X60471Y-41016D01*
X60274Y-41035D02*
X60240Y-41035D01*
X60223Y-41025D01*
X60214Y-41016D01*
X60197Y-40987D01*
X60189Y-40949D01*
X60189Y-40873D01*
X60197Y-40854D01*
X60206Y-40844D01*
X60223Y-40835D01*
X60257Y-40835D01*
X60274Y-40844D01*
X60283Y-40854D01*
X60291Y-40873D01*
X60291Y-40921D01*
X60283Y-40940D01*
X60274Y-40949D01*
X60257Y-40959D01*
X60223Y-40959D01*
X60206Y-40949D01*
X60197Y-40940D01*
X60189Y-40921D01*
X60111Y-41035D02*
X60111Y-40835D01*
X60009Y-41035D02*
X60086Y-40921D01*
X60009Y-40835D02*
X60111Y-40949D01*
G54D19*
X54787Y-41114D02*
X54787Y-41600D01*
X54759Y-41657D01*
X54730Y-41685D01*
X54673Y-41714D01*
X54559Y-41714D01*
X54502Y-41685D01*
X54473Y-41657D01*
X54444Y-41600D01*
X54444Y-41114D01*
X53844Y-41714D02*
X54187Y-41714D01*
X54016Y-41714D02*
X54016Y-41114D01*
X54073Y-41200D01*
X54130Y-41257D01*
X54187Y-41285D01*
X56173Y-40716D02*
X56173Y-40116D01*
X56173Y-40402D02*
X55830Y-40402D01*
X55830Y-40716D02*
X55830Y-40116D01*
X55630Y-40116D02*
X55287Y-40116D01*
X55459Y-40716D02*
X55459Y-40116D01*
X54773Y-40716D02*
X55116Y-40716D01*
X54944Y-40716D02*
X54944Y-40116D01*
X55002Y-40202D01*
X55059Y-40259D01*
X55116Y-40287D01*
X54259Y-40116D02*
X54373Y-40116D01*
X54430Y-40144D01*
X54459Y-40173D01*
X54516Y-40259D01*
X54544Y-40373D01*
X54544Y-40602D01*
X54516Y-40659D01*
X54487Y-40687D01*
X54430Y-40716D01*
X54316Y-40716D01*
X54259Y-40687D01*
X54230Y-40659D01*
X54202Y-40602D01*
X54202Y-40459D01*
X54230Y-40402D01*
X54259Y-40373D01*
X54316Y-40344D01*
X54430Y-40344D01*
X54487Y-40373D01*
X54516Y-40402D01*
X54544Y-40459D01*
X53944Y-40716D02*
X53944Y-40116D01*
X53602Y-40716D02*
X53859Y-40373D01*
X53602Y-40116D02*
X53944Y-40459D01*
X53402Y-40116D02*
X53030Y-40116D01*
X53230Y-40344D01*
X53144Y-40344D01*
X53087Y-40373D01*
X53059Y-40402D01*
X53030Y-40459D01*
X53030Y-40602D01*
X53059Y-40659D01*
X53087Y-40687D01*
X53144Y-40716D01*
X53316Y-40716D01*
X53373Y-40687D01*
X53402Y-40659D01*
X52830Y-40116D02*
X52459Y-40116D01*
X52659Y-40344D01*
X52573Y-40344D01*
X52516Y-40373D01*
X52487Y-40402D01*
X52459Y-40459D01*
X52459Y-40602D01*
X52487Y-40659D01*
X52516Y-40687D01*
X52573Y-40716D01*
X52744Y-40716D01*
X52802Y-40687D01*
X52830Y-40659D01*
G54D20*
X60268Y-39535D02*
X60511Y-39535D01*
X60540Y-39549D01*
X60554Y-39563D01*
X60568Y-39592D01*
X60568Y-39649D01*
X60554Y-39678D01*
X60540Y-39692D01*
X60511Y-39706D01*
X60268Y-39706D01*
X60268Y-39820D02*
X60268Y-40006D01*
X60383Y-39906D01*
X60383Y-39949D01*
X60397Y-39978D01*
X60411Y-39992D01*
X60440Y-40006D01*
X60511Y-40006D01*
X60540Y-39992D01*
X60554Y-39978D01*
X60568Y-39949D01*
X60568Y-39863D01*
X60554Y-39835D01*
X60540Y-39820D01*
G54D21*
X59928Y-40143D02*
X59900Y-40152D01*
X59891Y-40162D01*
X59881Y-40180D01*
X59881Y-40209D01*
X59891Y-40227D01*
X59900Y-40237D01*
X59919Y-40246D01*
X59994Y-40246D01*
X59994Y-40049D01*
X59928Y-40049D01*
X59910Y-40058D01*
X59900Y-40068D01*
X59891Y-40087D01*
X59891Y-40105D01*
X59900Y-40124D01*
X59910Y-40134D01*
X59928Y-40143D01*
X59994Y-40143D01*
X59806Y-40190D02*
X59713Y-40190D01*
X59825Y-40246D02*
X59759Y-40049D01*
X59694Y-40246D01*
X59656Y-40049D02*
X59591Y-40246D01*
X59525Y-40049D01*
X59450Y-40246D02*
X59412Y-40246D01*
X59394Y-40237D01*
X59384Y-40227D01*
X59365Y-40199D01*
X59356Y-40162D01*
X59356Y-40087D01*
X59365Y-40068D01*
X59375Y-40058D01*
X59394Y-40049D01*
X59431Y-40049D01*
X59450Y-40058D01*
X59459Y-40068D01*
X59469Y-40087D01*
X59469Y-40134D01*
X59459Y-40152D01*
X59450Y-40162D01*
X59431Y-40171D01*
X59394Y-40171D01*
X59375Y-40162D01*
X59365Y-40152D01*
X59356Y-40134D01*
X59262Y-40246D02*
X59225Y-40246D01*
X59206Y-40237D01*
X59197Y-40227D01*
X59178Y-40199D01*
X59168Y-40162D01*
X59168Y-40087D01*
X59178Y-40068D01*
X59187Y-40058D01*
X59206Y-40049D01*
X59243Y-40049D01*
X59262Y-40058D01*
X59272Y-40068D01*
X59281Y-40087D01*
X59281Y-40134D01*
X59272Y-40152D01*
X59262Y-40162D01*
X59243Y-40171D01*
X59206Y-40171D01*
X59187Y-40162D01*
X59178Y-40152D01*
X59168Y-40134D01*
X59103Y-40049D02*
X59056Y-40246D01*
X59018Y-40105D01*
X58981Y-40246D01*
X58934Y-40049D01*
M02*
