%FSLAX34Y34*%
G04 Gerber Fmt 3.4, Leading zero omitted, Abs format*
G04 (created by PCBNEW (2014-04-07 BZR 4791)-product) date ons  9 apr 2014 20:42:48*
%MOIN*%
G01*
G70*
G90*
G04 APERTURE LIST*
%ADD10C,0.005906*%
%ADD11R,0.075874X0.075874*%
%ADD12O,0.075874X0.075874*%
%ADD13C,0.133874*%
%ADD14C,0.078740*%
G04 APERTURE END LIST*
G54D10*
G54D11*
X52724Y-34933D03*
G54D12*
X52724Y-35933D03*
X53724Y-34933D03*
X53724Y-35933D03*
X54724Y-34933D03*
X54724Y-35933D03*
X55724Y-34933D03*
X55724Y-35933D03*
X56724Y-34933D03*
X56724Y-35933D03*
G54D13*
X68503Y-35433D03*
X40944Y-35433D03*
G54D14*
X55716Y-43944D03*
X56716Y-43944D03*
X57716Y-43944D03*
X58716Y-43944D03*
X59716Y-43944D03*
X60716Y-43944D03*
X61716Y-43944D03*
X62716Y-43944D03*
X63716Y-43944D03*
X64716Y-43944D03*
X65716Y-43944D03*
X66716Y-43944D03*
X67716Y-43944D03*
X68716Y-43944D03*
X68716Y-37944D03*
X67716Y-37944D03*
X66716Y-37944D03*
X65716Y-37944D03*
X64716Y-37944D03*
X63716Y-37944D03*
X62716Y-37944D03*
X61716Y-37944D03*
X60716Y-37944D03*
X59716Y-37944D03*
X58716Y-37944D03*
X57716Y-37944D03*
X56716Y-37944D03*
X55716Y-37944D03*
X40755Y-43944D03*
X41755Y-43944D03*
X42755Y-43944D03*
X43755Y-43944D03*
X44755Y-43944D03*
X45755Y-43944D03*
X46755Y-43944D03*
X47755Y-43944D03*
X48755Y-43944D03*
X49755Y-43944D03*
X50755Y-43944D03*
X51755Y-43944D03*
X52755Y-43944D03*
X53755Y-43944D03*
X53755Y-37944D03*
X52755Y-37944D03*
X51755Y-37944D03*
X50755Y-37944D03*
X49755Y-37944D03*
X48755Y-37944D03*
X47755Y-37944D03*
X46755Y-37944D03*
X45755Y-37944D03*
X44755Y-37944D03*
X43755Y-37944D03*
X42755Y-37944D03*
X41755Y-37944D03*
X40755Y-37944D03*
M02*
