M48
;DRILL file {pcbnew (2014-04-07 BZR 4791)-product} date ons  9 apr 2014 20:42:50
;FORMAT={-:-/ absolute / inch / decimal}
FMAT,2
INCH,TZ
T1C0.025
T2C0.039
T3C0.040
T4C0.118
%
G90
G05
M72
T1
X4.8702Y-3.9355
X5.1455Y-4.12
X5.2947Y-4.0926
X5.3259Y-4.0601
X5.3666Y-4.0289
X5.4369Y-4.3617
X5.4472Y-3.9919
X5.4689Y-4.3274
X5.4899Y-4.1359
X5.499Y-3.8614
X5.5338Y-4.2123
X5.5679Y-4.4983
X5.8772Y-4.2473
T2
X4.0756Y-3.7945
X4.0756Y-4.3945
X4.1756Y-3.7945
X4.1756Y-4.3945
X4.2756Y-3.7945
X4.2756Y-4.3945
X4.3756Y-3.7945
X4.3756Y-4.3945
X4.4756Y-3.7945
X4.4756Y-4.3945
X4.5756Y-3.7945
X4.5756Y-4.3945
X4.6756Y-3.7945
X4.6756Y-4.3945
X4.7756Y-3.7945
X4.7756Y-4.3945
X4.8756Y-3.7945
X4.8756Y-4.3945
X4.9756Y-3.7945
X4.9756Y-4.3945
X5.0756Y-3.7945
X5.0756Y-4.3945
X5.1756Y-3.7945
X5.1756Y-4.3945
X5.2756Y-3.7945
X5.2756Y-4.3945
X5.3756Y-3.7945
X5.3756Y-4.3945
X5.5717Y-3.7945
X5.5717Y-4.3945
X5.6717Y-3.7945
X5.6717Y-4.3945
X5.7717Y-3.7945
X5.7717Y-4.3945
X5.8717Y-3.7945
X5.8717Y-4.3945
X5.9717Y-3.7945
X5.9717Y-4.3945
X6.0717Y-3.7945
X6.0717Y-4.3945
X6.1717Y-3.7945
X6.1717Y-4.3945
X6.2717Y-3.7945
X6.2717Y-4.3945
X6.3717Y-3.7945
X6.3717Y-4.3945
X6.4717Y-3.7945
X6.4717Y-4.3945
X6.5717Y-3.7945
X6.5717Y-4.3945
X6.6717Y-3.7945
X6.6717Y-4.3945
X6.7717Y-3.7945
X6.7717Y-4.3945
X6.8717Y-3.7945
X6.8717Y-4.3945
T3
X5.2724Y-3.4933
X5.2724Y-3.5933
X5.3724Y-3.4933
X5.3724Y-3.5933
X5.4724Y-3.4933
X5.4724Y-3.5933
X5.5724Y-3.4933
X5.5724Y-3.5933
X5.6724Y-3.4933
X5.6724Y-3.5933
T4
X4.0945Y-3.5433
X6.8504Y-3.5433
T0
M30
