M48
;DRILL file {kicad (2014-jan-25)-product} date tor 24 apr 2014 22:33:28
;FORMAT={-:-/ absolute / inch / decimal}
FMAT,2
INCH,TZ
T1C0.079
%
G90
G05
M72
T1
X1.2008Y-5.6299
X1.7323Y-5.4331
X2.2835Y-5.4331
X2.7756Y-0.748
X3.3858Y-5.4331
X3.7795Y-1.9094
X3.937Y-5.4331
X4.3307Y-1.9094
X4.4488Y-3.3071
X4.4685Y-5.6299
X5.1378Y-4.7441
X5.5315Y-0.748
X5.5315Y-6.5945
X5.5512Y-7.0276
X5.5709Y-4.7835
X5.9055Y-4.7835
X6.3583Y-4.6654
X6.6535Y-0.748
X6.6929Y-5.8465
X7.2441Y-5.8465
X7.5Y-1.9094
X7.5394Y-4.6654
X8.0512Y-1.9094
X8.189Y-3.3071
X8.3071Y-6.2205
X8.3071Y-6.5945
X8.3071Y-7.0276
X9.0748Y-4.6654
X9.252Y-2.2441
X9.252Y-2.6378
X9.4094Y-0.748
X9.4685Y-5.8465
X10.0197Y-5.8465
X10.1575Y-7.2441
X10.2559Y-4.6654
T0
M30
