G04 (created by PCBNEW (2013-mar-13)-testing) date Tue 11 Feb 2014 03:56:14 PM CET*
%MOIN*%
G04 Gerber Fmt 3.4, Leading zero omitted, Abs format*
%FSLAX34Y34*%
G01*
G70*
G90*
G04 APERTURE LIST*
%ADD10C,0.005906*%
%ADD11R,0.025000X0.045000*%
%ADD12R,0.060000X0.080000*%
%ADD13R,0.060000X0.086600*%
%ADD14O,0.060000X0.086600*%
%ADD15R,0.039400X0.023600*%
%ADD16C,0.011811*%
G04 APERTURE END LIST*
G54D10*
G54D11*
X58174Y-37204D03*
X57574Y-37204D03*
X56796Y-37204D03*
X56196Y-37204D03*
X58174Y-36220D03*
X57574Y-36220D03*
X56392Y-40157D03*
X56992Y-40157D03*
G54D12*
X59901Y-38779D03*
X58601Y-38779D03*
X57539Y-38779D03*
X56239Y-38779D03*
G54D13*
X58374Y-34645D03*
G54D14*
X57374Y-34645D03*
G54D13*
X56374Y-41535D03*
G54D14*
X57374Y-41535D03*
X58374Y-41535D03*
X59374Y-41535D03*
G54D15*
X58835Y-39782D03*
X59667Y-40157D03*
X58835Y-40532D03*
X59229Y-37026D03*
X60061Y-37401D03*
X59229Y-37776D03*
G54D16*
X56796Y-37204D02*
X57574Y-37204D01*
X56511Y-37488D02*
X56511Y-37204D01*
X55692Y-38308D02*
X56511Y-37488D01*
X55692Y-42143D02*
X55692Y-38308D01*
X55900Y-42351D02*
X55692Y-42143D01*
X57558Y-42351D02*
X55900Y-42351D01*
X58374Y-41535D02*
X57558Y-42351D01*
X56796Y-37204D02*
X56511Y-37204D01*
X59374Y-40528D02*
X59374Y-41535D01*
X58905Y-40059D02*
X59374Y-40528D01*
X58835Y-40059D02*
X58905Y-40059D01*
X58835Y-39782D02*
X58835Y-40059D01*
X56374Y-41535D02*
X56374Y-40943D01*
X56392Y-40924D02*
X56392Y-40157D01*
X56374Y-40943D02*
X56392Y-40924D01*
X56677Y-39873D02*
X56677Y-40157D01*
X57174Y-39376D02*
X56677Y-39873D01*
X58951Y-39376D02*
X57174Y-39376D01*
X59229Y-39098D02*
X58951Y-39376D01*
X59229Y-37776D02*
X59229Y-39098D01*
X56392Y-40157D02*
X56677Y-40157D01*
X57374Y-34645D02*
X57374Y-35237D01*
X56239Y-38779D02*
X56698Y-38779D01*
X57574Y-35437D02*
X57574Y-36220D01*
X57374Y-35237D02*
X57574Y-35437D01*
X57574Y-36220D02*
X57574Y-36820D01*
X57764Y-36820D02*
X57574Y-36820D01*
X57858Y-36913D02*
X57764Y-36820D01*
X57858Y-37495D02*
X57858Y-36913D01*
X56698Y-38654D02*
X57858Y-37495D01*
X56698Y-38779D02*
X56698Y-38654D01*
X56580Y-36820D02*
X56196Y-37204D01*
X57574Y-36820D02*
X56580Y-36820D01*
X57374Y-41535D02*
X57144Y-41535D01*
X55914Y-39663D02*
X56239Y-39338D01*
X55914Y-42056D02*
X55914Y-39663D01*
X55986Y-42127D02*
X55914Y-42056D01*
X56756Y-42127D02*
X55986Y-42127D01*
X57144Y-41740D02*
X56756Y-42127D01*
X57144Y-41535D02*
X57144Y-41740D01*
X56239Y-38779D02*
X56239Y-39338D01*
X57374Y-41535D02*
X57833Y-41535D01*
X58835Y-40532D02*
X58479Y-40532D01*
X56992Y-40157D02*
X57277Y-40157D01*
X57833Y-40997D02*
X57833Y-41535D01*
X57975Y-40855D02*
X57833Y-40997D01*
X58156Y-40855D02*
X57975Y-40855D01*
X58479Y-40532D02*
X58156Y-40855D01*
X57975Y-40855D02*
X57277Y-40157D01*
X57539Y-38779D02*
X58601Y-38779D01*
X59901Y-39646D02*
X59667Y-39880D01*
X59901Y-38779D02*
X59901Y-39646D01*
X59667Y-40157D02*
X59667Y-39880D01*
X60061Y-38060D02*
X59901Y-38220D01*
X60061Y-37401D02*
X60061Y-38060D01*
X59901Y-38779D02*
X59901Y-38220D01*
X58374Y-34645D02*
X58374Y-35237D01*
X58174Y-35437D02*
X58174Y-36220D01*
X58374Y-35237D02*
X58174Y-35437D01*
X58174Y-37204D02*
X58380Y-37204D01*
X58174Y-36220D02*
X58174Y-36604D01*
X59229Y-37026D02*
X58380Y-37026D01*
X58380Y-37204D02*
X58380Y-37026D01*
X58380Y-36811D02*
X58174Y-36604D01*
X58380Y-37026D02*
X58380Y-36811D01*
M02*
