%FSLAX34Y34*%
G04 Gerber Fmt 3.4, Leading zero omitted, Abs format*
G04 (created by PCBNEW (2014-04-07 BZR 4791)-product) date Tue 13 May 2014 05:09:50 PM CEST*
%MOIN*%
G01*
G70*
G90*
G04 APERTURE LIST*
%ADD10C,0.003937*%
%ADD11R,0.075874X0.075874*%
%ADD12O,0.075874X0.075874*%
%ADD13C,0.133874*%
%ADD14R,0.078740X0.078740*%
%ADD15C,0.078740*%
G04 APERTURE END LIST*
G54D10*
G54D11*
X36720Y-37751D03*
G54D12*
X35720Y-37751D03*
X36720Y-36751D03*
X35720Y-36751D03*
X36720Y-35751D03*
X35720Y-35751D03*
X36720Y-34751D03*
X35720Y-34751D03*
X36720Y-33751D03*
X35720Y-33751D03*
X36720Y-32751D03*
X35720Y-32751D03*
X36720Y-31751D03*
X35720Y-31751D03*
X36720Y-30751D03*
X35720Y-30751D03*
G54D11*
X43594Y-30751D03*
G54D12*
X44594Y-30751D03*
X43594Y-31751D03*
X44594Y-31751D03*
X43594Y-32751D03*
X44594Y-32751D03*
X43594Y-33751D03*
X44594Y-33751D03*
X43594Y-34751D03*
X44594Y-34751D03*
X43594Y-35751D03*
X44594Y-35751D03*
X43594Y-36751D03*
X44594Y-36751D03*
X43594Y-37751D03*
X44594Y-37751D03*
G54D11*
X47287Y-33570D03*
G54D12*
X47287Y-32570D03*
X48287Y-33570D03*
X48287Y-32570D03*
X49287Y-33570D03*
X49287Y-32570D03*
X50287Y-33570D03*
X50287Y-32570D03*
X51287Y-33570D03*
X51287Y-32570D03*
X52287Y-33570D03*
X52287Y-32570D03*
X53287Y-33570D03*
X53287Y-32570D03*
X54287Y-33570D03*
X54287Y-32570D03*
G54D11*
X54287Y-40444D03*
G54D12*
X54287Y-41444D03*
X53287Y-40444D03*
X53287Y-41444D03*
X52287Y-40444D03*
X52287Y-41444D03*
X51287Y-40444D03*
X51287Y-41444D03*
X50287Y-40444D03*
X50287Y-41444D03*
X49287Y-40444D03*
X49287Y-41444D03*
X48287Y-40444D03*
X48287Y-41444D03*
X47287Y-40444D03*
X47287Y-41444D03*
G54D11*
X35720Y-40562D03*
G54D12*
X36720Y-40562D03*
X35720Y-41562D03*
X36720Y-41562D03*
X35720Y-42562D03*
X36720Y-42562D03*
X35720Y-43562D03*
X36720Y-43562D03*
X35720Y-44562D03*
X36720Y-44562D03*
X35720Y-45562D03*
X36720Y-45562D03*
X35720Y-46562D03*
X36720Y-46562D03*
X35720Y-47562D03*
X36720Y-47562D03*
X35720Y-48562D03*
X36720Y-48562D03*
X35720Y-49562D03*
X36720Y-49562D03*
X35720Y-50562D03*
X36720Y-50562D03*
X35720Y-51562D03*
X36720Y-51562D03*
G54D13*
X31594Y-54035D03*
X55019Y-54035D03*
G54D11*
X38944Y-52074D03*
G54D12*
X38944Y-51074D03*
X39944Y-52074D03*
X39944Y-51074D03*
X40944Y-52074D03*
X40944Y-51074D03*
X41944Y-52074D03*
X41944Y-51074D03*
X42944Y-52074D03*
X42944Y-51074D03*
G54D13*
X31594Y-30610D03*
X55019Y-30610D03*
G54D14*
X31783Y-39370D03*
G54D15*
X32783Y-39370D03*
X31783Y-40370D03*
X32783Y-40370D03*
X31783Y-41370D03*
X32783Y-41370D03*
X31783Y-42370D03*
X32783Y-42370D03*
X31783Y-43370D03*
X32783Y-43370D03*
X31783Y-44370D03*
X32783Y-44370D03*
X31783Y-45370D03*
X32783Y-45370D03*
X31783Y-46370D03*
X32783Y-46370D03*
X31783Y-47370D03*
X32783Y-47370D03*
X31783Y-48370D03*
X32783Y-48370D03*
X31783Y-49370D03*
X32783Y-49370D03*
X31783Y-50370D03*
X32783Y-50370D03*
X31783Y-51370D03*
X32783Y-51370D03*
G54D11*
X38944Y-48137D03*
G54D12*
X38944Y-47137D03*
X39944Y-48137D03*
X39944Y-47137D03*
X40944Y-48137D03*
X40944Y-47137D03*
X41944Y-48137D03*
X41944Y-47137D03*
X42944Y-48137D03*
X42944Y-47137D03*
G54D11*
X47287Y-44988D03*
G54D12*
X47287Y-43988D03*
X48287Y-44988D03*
X48287Y-43988D03*
X49287Y-44988D03*
X49287Y-43988D03*
X50287Y-44988D03*
X50287Y-43988D03*
X51287Y-44988D03*
X51287Y-43988D03*
X52287Y-44988D03*
X52287Y-43988D03*
X53287Y-44988D03*
X53287Y-43988D03*
X54287Y-44988D03*
X54287Y-43988D03*
G54D11*
X54287Y-51074D03*
G54D12*
X54287Y-52074D03*
X53287Y-51074D03*
X53287Y-52074D03*
X52287Y-51074D03*
X52287Y-52074D03*
X51287Y-51074D03*
X51287Y-52074D03*
X50287Y-51074D03*
X50287Y-52074D03*
X49287Y-51074D03*
X49287Y-52074D03*
X48287Y-51074D03*
X48287Y-52074D03*
X47287Y-51074D03*
X47287Y-52074D03*
M02*
