M48
;DRILL file {pcbnew (2014-04-07 BZR 4791)-product} date Tue 13 May 2014 05:09:55 PM CEST
;FORMAT={-:-/ absolute / inch / decimal}
FMAT,2
INCH,TZ
T1C0.025
T2C0.039
T3C0.040
T4C0.118
%
G90
G05
M72
T1
X3.8173Y-5.3077
X4.0865Y-3.1322
X4.1114Y-3.1746
X4.1425Y-3.4108
X4.5618Y-5.0421
X4.625Y-4.1972
X4.625Y-4.8519
X5.1026Y-3.5996
T2
X3.1783Y-3.937
X3.1783Y-4.037
X3.1783Y-4.137
X3.1783Y-4.237
X3.1783Y-4.337
X3.1783Y-4.437
X3.1783Y-4.537
X3.1783Y-4.637
X3.1783Y-4.737
X3.1783Y-4.837
X3.1783Y-4.937
X3.1783Y-5.037
X3.1783Y-5.137
X3.2783Y-3.937
X3.2783Y-4.037
X3.2783Y-4.137
X3.2783Y-4.237
X3.2783Y-4.337
X3.2783Y-4.437
X3.2783Y-4.537
X3.2783Y-4.637
X3.2783Y-4.737
X3.2783Y-4.837
X3.2783Y-4.937
X3.2783Y-5.037
X3.2783Y-5.137
T3
X3.572Y-3.0752
X3.572Y-3.1752
X3.572Y-3.2752
X3.572Y-3.3752
X3.572Y-3.4752
X3.572Y-3.5752
X3.572Y-3.6752
X3.572Y-3.7752
X3.572Y-4.0563
X3.572Y-4.1563
X3.572Y-4.2563
X3.572Y-4.3563
X3.572Y-4.4563
X3.572Y-4.5563
X3.572Y-4.6563
X3.572Y-4.7563
X3.572Y-4.8563
X3.572Y-4.9563
X3.572Y-5.0563
X3.572Y-5.1563
X3.672Y-3.0752
X3.672Y-3.1752
X3.672Y-3.2752
X3.672Y-3.3752
X3.672Y-3.4752
X3.672Y-3.5752
X3.672Y-3.6752
X3.672Y-3.7752
X3.672Y-4.0563
X3.672Y-4.1563
X3.672Y-4.2563
X3.672Y-4.3563
X3.672Y-4.4563
X3.672Y-4.5563
X3.672Y-4.6563
X3.672Y-4.7563
X3.672Y-4.8563
X3.672Y-4.9563
X3.672Y-5.0563
X3.672Y-5.1563
X3.8945Y-4.7138
X3.8945Y-4.8138
X3.8945Y-5.1075
X3.8945Y-5.2075
X3.9945Y-4.7138
X3.9945Y-4.8138
X3.9945Y-5.1075
X3.9945Y-5.2075
X4.0945Y-4.7138
X4.0945Y-4.8138
X4.0945Y-5.1075
X4.0945Y-5.2075
X4.1945Y-4.7138
X4.1945Y-4.8138
X4.1945Y-5.1075
X4.1945Y-5.2075
X4.2945Y-4.7138
X4.2945Y-4.8138
X4.2945Y-5.1075
X4.2945Y-5.2075
X4.3594Y-3.0752
X4.3594Y-3.1752
X4.3594Y-3.2752
X4.3594Y-3.3752
X4.3594Y-3.4752
X4.3594Y-3.5752
X4.3594Y-3.6752
X4.3594Y-3.7752
X4.4594Y-3.0752
X4.4594Y-3.1752
X4.4594Y-3.2752
X4.4594Y-3.3752
X4.4594Y-3.4752
X4.4594Y-3.5752
X4.4594Y-3.6752
X4.4594Y-3.7752
X4.7287Y-3.2571
X4.7287Y-3.3571
X4.7287Y-4.0445
X4.7287Y-4.1445
X4.7287Y-4.3988
X4.7287Y-4.4988
X4.7287Y-5.1075
X4.7287Y-5.2075
X4.8287Y-3.2571
X4.8287Y-3.3571
X4.8287Y-4.0445
X4.8287Y-4.1445
X4.8287Y-4.3988
X4.8287Y-4.4988
X4.8287Y-5.1075
X4.8287Y-5.2075
X4.9287Y-3.2571
X4.9287Y-3.3571
X4.9287Y-4.0445
X4.9287Y-4.1445
X4.9287Y-4.3988
X4.9287Y-4.4988
X4.9287Y-5.1075
X4.9287Y-5.2075
X5.0287Y-3.2571
X5.0287Y-3.3571
X5.0287Y-4.0445
X5.0287Y-4.1445
X5.0287Y-4.3988
X5.0287Y-4.4988
X5.0287Y-5.1075
X5.0287Y-5.2075
X5.1287Y-3.2571
X5.1287Y-3.3571
X5.1287Y-4.0445
X5.1287Y-4.1445
X5.1287Y-4.3988
X5.1287Y-4.4988
X5.1287Y-5.1075
X5.1287Y-5.2075
X5.2287Y-3.2571
X5.2287Y-3.3571
X5.2287Y-4.0445
X5.2287Y-4.1445
X5.2287Y-4.3988
X5.2287Y-4.4988
X5.2287Y-5.1075
X5.2287Y-5.2075
X5.3287Y-3.2571
X5.3287Y-3.3571
X5.3287Y-4.0445
X5.3287Y-4.1445
X5.3287Y-4.3988
X5.3287Y-4.4988
X5.3287Y-5.1075
X5.3287Y-5.2075
X5.4287Y-3.2571
X5.4287Y-3.3571
X5.4287Y-4.0445
X5.4287Y-4.1445
X5.4287Y-4.3988
X5.4287Y-4.4988
X5.4287Y-5.1075
X5.4287Y-5.2075
T4
X3.1594Y-3.061
X3.1594Y-5.4035
X5.502Y-3.061
X5.502Y-5.4035
T0
M30
