%FSLAX34Y34*%
G04 Gerber Fmt 3.4, Leading zero omitted, Abs format*
G04 (created by PCBNEW (2014-04-07 BZR 4791)-product) date Tue 13 May 2014 05:09:50 PM CEST*
%MOIN*%
G01*
G70*
G90*
G04 APERTURE LIST*
%ADD10C,0.003937*%
%ADD11R,0.075874X0.075874*%
%ADD12O,0.075874X0.075874*%
%ADD13C,0.133874*%
%ADD14R,0.052874X0.032874*%
%ADD15R,0.078740X0.078740*%
%ADD16C,0.078740*%
%ADD17R,0.032874X0.052874*%
%ADD18R,0.039374X0.047274*%
%ADD19R,0.027874X0.057874*%
%ADD20R,0.057874X0.027874*%
G04 APERTURE END LIST*
G54D10*
G54D11*
X36720Y-37751D03*
G54D12*
X35720Y-37751D03*
X36720Y-36751D03*
X35720Y-36751D03*
X36720Y-35751D03*
X35720Y-35751D03*
X36720Y-34751D03*
X35720Y-34751D03*
X36720Y-33751D03*
X35720Y-33751D03*
X36720Y-32751D03*
X35720Y-32751D03*
X36720Y-31751D03*
X35720Y-31751D03*
X36720Y-30751D03*
X35720Y-30751D03*
G54D11*
X43594Y-30751D03*
G54D12*
X44594Y-30751D03*
X43594Y-31751D03*
X44594Y-31751D03*
X43594Y-32751D03*
X44594Y-32751D03*
X43594Y-33751D03*
X44594Y-33751D03*
X43594Y-34751D03*
X44594Y-34751D03*
X43594Y-35751D03*
X44594Y-35751D03*
X43594Y-36751D03*
X44594Y-36751D03*
X43594Y-37751D03*
X44594Y-37751D03*
G54D11*
X47287Y-33570D03*
G54D12*
X47287Y-32570D03*
X48287Y-33570D03*
X48287Y-32570D03*
X49287Y-33570D03*
X49287Y-32570D03*
X50287Y-33570D03*
X50287Y-32570D03*
X51287Y-33570D03*
X51287Y-32570D03*
X52287Y-33570D03*
X52287Y-32570D03*
X53287Y-33570D03*
X53287Y-32570D03*
X54287Y-33570D03*
X54287Y-32570D03*
G54D11*
X54287Y-40444D03*
G54D12*
X54287Y-41444D03*
X53287Y-40444D03*
X53287Y-41444D03*
X52287Y-40444D03*
X52287Y-41444D03*
X51287Y-40444D03*
X51287Y-41444D03*
X50287Y-40444D03*
X50287Y-41444D03*
X49287Y-40444D03*
X49287Y-41444D03*
X48287Y-40444D03*
X48287Y-41444D03*
X47287Y-40444D03*
X47287Y-41444D03*
G54D11*
X35720Y-40562D03*
G54D12*
X36720Y-40562D03*
X35720Y-41562D03*
X36720Y-41562D03*
X35720Y-42562D03*
X36720Y-42562D03*
X35720Y-43562D03*
X36720Y-43562D03*
X35720Y-44562D03*
X36720Y-44562D03*
X35720Y-45562D03*
X36720Y-45562D03*
X35720Y-46562D03*
X36720Y-46562D03*
X35720Y-47562D03*
X36720Y-47562D03*
X35720Y-48562D03*
X36720Y-48562D03*
X35720Y-49562D03*
X36720Y-49562D03*
X35720Y-50562D03*
X36720Y-50562D03*
X35720Y-51562D03*
X36720Y-51562D03*
G54D13*
X31594Y-54035D03*
X55019Y-54035D03*
G54D11*
X38944Y-52074D03*
G54D12*
X38944Y-51074D03*
X39944Y-52074D03*
X39944Y-51074D03*
X40944Y-52074D03*
X40944Y-51074D03*
X41944Y-52074D03*
X41944Y-51074D03*
X42944Y-52074D03*
X42944Y-51074D03*
G54D13*
X31594Y-30610D03*
X55019Y-30610D03*
G54D14*
X40551Y-53843D03*
X40551Y-53243D03*
X41338Y-53843D03*
X41338Y-53243D03*
G54D15*
X31783Y-39370D03*
G54D16*
X32783Y-39370D03*
X31783Y-40370D03*
X32783Y-40370D03*
X31783Y-41370D03*
X32783Y-41370D03*
X31783Y-42370D03*
X32783Y-42370D03*
X31783Y-43370D03*
X32783Y-43370D03*
X31783Y-44370D03*
X32783Y-44370D03*
X31783Y-45370D03*
X32783Y-45370D03*
X31783Y-46370D03*
X32783Y-46370D03*
X31783Y-47370D03*
X32783Y-47370D03*
X31783Y-48370D03*
X32783Y-48370D03*
X31783Y-49370D03*
X32783Y-49370D03*
X31783Y-50370D03*
X32783Y-50370D03*
X31783Y-51370D03*
X32783Y-51370D03*
G54D14*
X38188Y-42613D03*
X38188Y-43213D03*
G54D17*
X41244Y-38188D03*
X40644Y-38188D03*
G54D14*
X46850Y-38095D03*
X46850Y-37495D03*
G54D17*
X39670Y-44488D03*
X39070Y-44488D03*
G54D18*
X39370Y-42480D03*
X39745Y-43346D03*
X38995Y-43346D03*
G54D11*
X38944Y-48137D03*
G54D12*
X38944Y-47137D03*
X39944Y-48137D03*
X39944Y-47137D03*
X40944Y-48137D03*
X40944Y-47137D03*
X41944Y-48137D03*
X41944Y-47137D03*
X42944Y-48137D03*
X42944Y-47137D03*
G54D11*
X47287Y-44988D03*
G54D12*
X47287Y-43988D03*
X48287Y-44988D03*
X48287Y-43988D03*
X49287Y-44988D03*
X49287Y-43988D03*
X50287Y-44988D03*
X50287Y-43988D03*
X51287Y-44988D03*
X51287Y-43988D03*
X52287Y-44988D03*
X52287Y-43988D03*
X53287Y-44988D03*
X53287Y-43988D03*
X54287Y-44988D03*
X54287Y-43988D03*
G54D11*
X54287Y-51074D03*
G54D12*
X54287Y-52074D03*
X53287Y-51074D03*
X53287Y-52074D03*
X52287Y-51074D03*
X52287Y-52074D03*
X51287Y-51074D03*
X51287Y-52074D03*
X50287Y-51074D03*
X50287Y-52074D03*
X49287Y-51074D03*
X49287Y-52074D03*
X48287Y-51074D03*
X48287Y-52074D03*
X47287Y-51074D03*
X47287Y-52074D03*
G54D19*
X47931Y-49831D03*
X48431Y-49831D03*
X48931Y-49831D03*
X49431Y-49831D03*
X49931Y-49831D03*
X50431Y-49831D03*
X50931Y-49831D03*
X51431Y-49831D03*
X51931Y-49831D03*
X52431Y-49831D03*
X52931Y-49831D03*
X53431Y-49831D03*
X53931Y-49831D03*
X54431Y-49831D03*
X54431Y-46231D03*
X53931Y-46231D03*
X53431Y-46231D03*
X52931Y-46231D03*
X52431Y-46231D03*
X51931Y-46231D03*
X51431Y-46231D03*
X50931Y-46231D03*
X50431Y-46231D03*
X49931Y-46231D03*
X49431Y-46231D03*
X48931Y-46231D03*
X48431Y-46231D03*
X47931Y-46231D03*
G54D20*
X41957Y-37108D03*
X41957Y-36608D03*
X41957Y-36108D03*
X41957Y-35608D03*
X41957Y-35108D03*
X41957Y-34608D03*
X41957Y-34108D03*
X41957Y-33608D03*
X41957Y-33108D03*
X41957Y-32608D03*
X41957Y-32108D03*
X41957Y-31608D03*
X41957Y-31108D03*
X41957Y-30608D03*
X38357Y-30608D03*
X38357Y-31108D03*
X38357Y-31608D03*
X38357Y-32108D03*
X38357Y-32608D03*
X38357Y-33108D03*
X38357Y-33608D03*
X38357Y-34108D03*
X38357Y-34608D03*
X38357Y-35108D03*
X38357Y-35608D03*
X38357Y-36108D03*
X38357Y-36608D03*
X38357Y-37108D03*
G54D19*
X47931Y-38807D03*
X48431Y-38807D03*
X48931Y-38807D03*
X49431Y-38807D03*
X49931Y-38807D03*
X50431Y-38807D03*
X50931Y-38807D03*
X51431Y-38807D03*
X51931Y-38807D03*
X52431Y-38807D03*
X52931Y-38807D03*
X53431Y-38807D03*
X53931Y-38807D03*
X54431Y-38807D03*
X54431Y-35207D03*
X53931Y-35207D03*
X53431Y-35207D03*
X52931Y-35207D03*
X52431Y-35207D03*
X51931Y-35207D03*
X51431Y-35207D03*
X50931Y-35207D03*
X50431Y-35207D03*
X49931Y-35207D03*
X49431Y-35207D03*
X48931Y-35207D03*
X48431Y-35207D03*
X47931Y-35207D03*
G54D14*
X46850Y-48518D03*
X46850Y-49118D03*
M02*
