%FSLAX34Y34*%
G04 Gerber Fmt 3.4, Leading zero omitted, Abs format*
G04 (created by PCBNEW (2014-04-07 BZR 4791)-product) date Tue 13 May 2014 05:09:50 PM CEST*
%MOIN*%
G01*
G70*
G90*
G04 APERTURE LIST*
%ADD10C,0.003937*%
%ADD11C,0.007874*%
%ADD12C,0.009843*%
%ADD13C,0.010000*%
%ADD14C,0.005000*%
%ADD15C,0.005906*%
%ADD16C,0.003100*%
%ADD17C,0.012000*%
%ADD18C,0.008000*%
%ADD19C,0.004500*%
%ADD20C,0.004700*%
%ADD21C,0.003900*%
%ADD22C,0.006000*%
G04 APERTURE END LIST*
G54D10*
G54D11*
X37818Y-38369D02*
G75*
G03X37818Y-38369I-200J0D01*
G74*
G01*
X38408Y-48999D02*
G75*
G03X38408Y-48999I-200J0D01*
G74*
G01*
X38408Y-52936D02*
G75*
G03X38408Y-52936I-200J0D01*
G74*
G01*
X55337Y-50377D02*
G75*
G03X55337Y-50377I-200J0D01*
G74*
G01*
X35259Y-39747D02*
G75*
G03X35259Y-39747I-200J0D01*
G74*
G01*
X42942Y-30044D02*
G75*
G03X42942Y-30044I-200J0D01*
G74*
G01*
X31203Y-38190D02*
G75*
G03X31203Y-38190I-200J0D01*
G74*
G01*
X46774Y-45751D02*
G75*
G03X46774Y-45751I-200J0D01*
G74*
G01*
X46682Y-34374D02*
G75*
G03X46682Y-34374I-200J0D01*
G74*
G01*
X44538Y-33600D02*
G75*
G03X44538Y-33600I-200J0D01*
G74*
G01*
X55266Y-39850D02*
G75*
G03X55266Y-39850I-200J0D01*
G74*
G01*
X52400Y-51800D02*
G75*
G03X52400Y-51800I-200J0D01*
G74*
G01*
X42600Y-51800D02*
G75*
G03X42600Y-51800I-200J0D01*
G74*
G01*
G54D12*
X44377Y-50435D02*
X44377Y-50632D01*
X44686Y-50632D02*
X44095Y-50632D01*
X44095Y-50351D01*
X44686Y-49845D02*
X44686Y-50126D01*
X44095Y-50126D01*
X44686Y-49648D02*
X44095Y-49648D01*
X44124Y-49057D02*
X44095Y-49114D01*
X44095Y-49198D01*
X44124Y-49282D01*
X44180Y-49339D01*
X44236Y-49367D01*
X44348Y-49395D01*
X44433Y-49395D01*
X44545Y-49367D01*
X44602Y-49339D01*
X44658Y-49282D01*
X44686Y-49198D01*
X44686Y-49142D01*
X44658Y-49057D01*
X44630Y-49029D01*
X44433Y-49029D01*
X44433Y-49142D01*
X44686Y-48776D02*
X44095Y-48776D01*
X44377Y-48776D02*
X44377Y-48439D01*
X44686Y-48439D02*
X44095Y-48439D01*
X44095Y-48242D02*
X44095Y-47904D01*
X44686Y-48073D02*
X44095Y-48073D01*
X44377Y-47511D02*
X44405Y-47426D01*
X44433Y-47398D01*
X44489Y-47370D01*
X44573Y-47370D01*
X44630Y-47398D01*
X44658Y-47426D01*
X44686Y-47483D01*
X44686Y-47708D01*
X44095Y-47708D01*
X44095Y-47511D01*
X44124Y-47455D01*
X44152Y-47426D01*
X44208Y-47398D01*
X44264Y-47398D01*
X44320Y-47426D01*
X44348Y-47455D01*
X44377Y-47511D01*
X44377Y-47708D01*
X44377Y-47117D02*
X44377Y-46920D01*
X44686Y-46836D02*
X44686Y-47117D01*
X44095Y-47117D01*
X44095Y-46836D01*
X44686Y-46245D02*
X44405Y-46442D01*
X44686Y-46583D02*
X44095Y-46583D01*
X44095Y-46358D01*
X44124Y-46302D01*
X44152Y-46273D01*
X44208Y-46245D01*
X44292Y-46245D01*
X44348Y-46273D01*
X44377Y-46302D01*
X44405Y-46358D01*
X44405Y-46583D01*
X44686Y-45655D02*
X44405Y-45852D01*
X44686Y-45992D02*
X44095Y-45992D01*
X44095Y-45767D01*
X44124Y-45711D01*
X44152Y-45683D01*
X44208Y-45655D01*
X44292Y-45655D01*
X44348Y-45683D01*
X44377Y-45711D01*
X44405Y-45767D01*
X44405Y-45992D01*
X44405Y-45289D02*
X44686Y-45289D01*
X44095Y-45486D02*
X44405Y-45289D01*
X44095Y-45092D01*
X44686Y-44446D02*
X44095Y-44446D01*
X44095Y-44221D01*
X44124Y-44164D01*
X44152Y-44136D01*
X44208Y-44108D01*
X44292Y-44108D01*
X44348Y-44136D01*
X44377Y-44164D01*
X44405Y-44221D01*
X44405Y-44446D01*
X44686Y-43855D02*
X44095Y-43855D01*
X44686Y-42786D02*
X44405Y-42983D01*
X44686Y-43124D02*
X44095Y-43124D01*
X44095Y-42899D01*
X44124Y-42843D01*
X44152Y-42814D01*
X44208Y-42786D01*
X44292Y-42786D01*
X44348Y-42814D01*
X44377Y-42843D01*
X44405Y-42899D01*
X44405Y-43124D01*
X44377Y-42533D02*
X44377Y-42336D01*
X44686Y-42252D02*
X44686Y-42533D01*
X44095Y-42533D01*
X44095Y-42252D01*
X44095Y-42083D02*
X44686Y-41886D01*
X44095Y-41690D01*
X44686Y-40733D02*
X44686Y-41071D01*
X44686Y-40902D02*
X44095Y-40902D01*
X44180Y-40958D01*
X44236Y-41015D01*
X44264Y-41071D01*
X44630Y-40480D02*
X44658Y-40452D01*
X44686Y-40480D01*
X44658Y-40508D01*
X44630Y-40480D01*
X44686Y-40480D01*
X44686Y-39890D02*
X44686Y-40227D01*
X44686Y-40059D02*
X44095Y-40059D01*
X44180Y-40115D01*
X44236Y-40171D01*
X44264Y-40227D01*
X45583Y-49339D02*
X45611Y-49254D01*
X45611Y-49114D01*
X45583Y-49057D01*
X45555Y-49029D01*
X45499Y-49001D01*
X45442Y-49001D01*
X45386Y-49029D01*
X45358Y-49057D01*
X45330Y-49114D01*
X45302Y-49226D01*
X45274Y-49282D01*
X45246Y-49311D01*
X45189Y-49339D01*
X45133Y-49339D01*
X45077Y-49311D01*
X45049Y-49282D01*
X45021Y-49226D01*
X45021Y-49086D01*
X45049Y-49001D01*
X45555Y-48748D02*
X45583Y-48720D01*
X45611Y-48748D01*
X45583Y-48776D01*
X45555Y-48748D01*
X45611Y-48748D01*
X45611Y-47679D02*
X45330Y-47876D01*
X45611Y-48017D02*
X45021Y-48017D01*
X45021Y-47792D01*
X45049Y-47736D01*
X45077Y-47708D01*
X45133Y-47679D01*
X45217Y-47679D01*
X45274Y-47708D01*
X45302Y-47736D01*
X45330Y-47792D01*
X45330Y-48017D01*
X45611Y-47342D02*
X45583Y-47398D01*
X45555Y-47426D01*
X45499Y-47455D01*
X45330Y-47455D01*
X45274Y-47426D01*
X45246Y-47398D01*
X45217Y-47342D01*
X45217Y-47258D01*
X45246Y-47201D01*
X45274Y-47173D01*
X45330Y-47145D01*
X45499Y-47145D01*
X45555Y-47173D01*
X45583Y-47201D01*
X45611Y-47258D01*
X45611Y-47342D01*
X45611Y-46639D02*
X45021Y-46639D01*
X45583Y-46639D02*
X45611Y-46695D01*
X45611Y-46808D01*
X45583Y-46864D01*
X45555Y-46892D01*
X45499Y-46920D01*
X45330Y-46920D01*
X45274Y-46892D01*
X45246Y-46864D01*
X45217Y-46808D01*
X45217Y-46695D01*
X45246Y-46639D01*
X45611Y-46358D02*
X45217Y-46358D01*
X45330Y-46358D02*
X45274Y-46330D01*
X45246Y-46302D01*
X45217Y-46245D01*
X45217Y-46189D01*
X45611Y-45992D02*
X45217Y-45992D01*
X45021Y-45992D02*
X45049Y-46020D01*
X45077Y-45992D01*
X45049Y-45964D01*
X45021Y-45992D01*
X45077Y-45992D01*
X45217Y-45458D02*
X45696Y-45458D01*
X45752Y-45486D01*
X45780Y-45514D01*
X45808Y-45570D01*
X45808Y-45655D01*
X45780Y-45711D01*
X45583Y-45458D02*
X45611Y-45514D01*
X45611Y-45627D01*
X45583Y-45683D01*
X45555Y-45711D01*
X45499Y-45739D01*
X45330Y-45739D01*
X45274Y-45711D01*
X45246Y-45683D01*
X45217Y-45627D01*
X45217Y-45514D01*
X45246Y-45458D01*
X45217Y-44924D02*
X45611Y-44924D01*
X45217Y-45177D02*
X45527Y-45177D01*
X45583Y-45149D01*
X45611Y-45092D01*
X45611Y-45008D01*
X45583Y-44952D01*
X45555Y-44924D01*
X45583Y-44417D02*
X45611Y-44474D01*
X45611Y-44586D01*
X45583Y-44642D01*
X45527Y-44670D01*
X45302Y-44670D01*
X45246Y-44642D01*
X45217Y-44586D01*
X45217Y-44474D01*
X45246Y-44417D01*
X45302Y-44389D01*
X45358Y-44389D01*
X45414Y-44670D01*
X45217Y-44192D02*
X45217Y-43883D01*
X45611Y-44192D01*
X45611Y-43883D01*
X45077Y-43236D02*
X45049Y-43208D01*
X45021Y-43152D01*
X45021Y-43011D01*
X45049Y-42955D01*
X45077Y-42927D01*
X45133Y-42899D01*
X45189Y-42899D01*
X45274Y-42927D01*
X45611Y-43264D01*
X45611Y-42899D01*
X45021Y-42533D02*
X45021Y-42477D01*
X45049Y-42421D01*
X45077Y-42393D01*
X45133Y-42365D01*
X45246Y-42336D01*
X45386Y-42336D01*
X45499Y-42365D01*
X45555Y-42393D01*
X45583Y-42421D01*
X45611Y-42477D01*
X45611Y-42533D01*
X45583Y-42589D01*
X45555Y-42618D01*
X45499Y-42646D01*
X45386Y-42674D01*
X45246Y-42674D01*
X45133Y-42646D01*
X45077Y-42618D01*
X45049Y-42589D01*
X45021Y-42533D01*
X45611Y-41774D02*
X45611Y-42111D01*
X45611Y-41943D02*
X45021Y-41943D01*
X45105Y-41999D01*
X45161Y-42055D01*
X45189Y-42111D01*
X45217Y-41268D02*
X45611Y-41268D01*
X44992Y-41408D02*
X45414Y-41549D01*
X45414Y-41183D01*
G54D13*
X35220Y-30251D02*
X35220Y-38251D01*
X37220Y-37251D02*
X37220Y-30251D01*
X35220Y-30251D02*
X37220Y-30251D01*
X35220Y-38251D02*
X36220Y-38251D01*
X37220Y-38251D02*
X37220Y-37251D01*
X36220Y-38251D02*
X36220Y-37251D01*
X36220Y-37251D02*
X37220Y-37251D01*
X37220Y-38251D02*
X36220Y-38251D01*
X45094Y-38251D02*
X45094Y-30251D01*
X43094Y-31251D02*
X43094Y-38251D01*
X45094Y-38251D02*
X43094Y-38251D01*
X45094Y-30251D02*
X44094Y-30251D01*
X43094Y-30251D02*
X43094Y-31251D01*
X44094Y-30251D02*
X44094Y-31251D01*
X44094Y-31251D02*
X43094Y-31251D01*
X43094Y-30251D02*
X44094Y-30251D01*
X54787Y-32070D02*
X46787Y-32070D01*
X47787Y-34070D02*
X54787Y-34070D01*
X54787Y-32070D02*
X54787Y-34070D01*
X46787Y-32070D02*
X46787Y-33070D01*
X46787Y-34070D02*
X47787Y-34070D01*
X46787Y-33070D02*
X47787Y-33070D01*
X47787Y-33070D02*
X47787Y-34070D01*
X46787Y-34070D02*
X46787Y-33070D01*
X46787Y-41944D02*
X54787Y-41944D01*
X53787Y-39944D02*
X46787Y-39944D01*
X46787Y-41944D02*
X46787Y-39944D01*
X54787Y-41944D02*
X54787Y-40944D01*
X54787Y-39944D02*
X53787Y-39944D01*
X54787Y-40944D02*
X53787Y-40944D01*
X53787Y-40944D02*
X53787Y-39944D01*
X54787Y-39944D02*
X54787Y-40944D01*
X37220Y-52062D02*
X37220Y-40062D01*
X35220Y-41062D02*
X35220Y-52062D01*
X37220Y-52062D02*
X35220Y-52062D01*
X37220Y-40062D02*
X36220Y-40062D01*
X35220Y-40062D02*
X35220Y-41062D01*
X36220Y-40062D02*
X36220Y-41062D01*
X36220Y-41062D02*
X35220Y-41062D01*
X35220Y-40062D02*
X36220Y-40062D01*
X38444Y-50574D02*
X43444Y-50574D01*
X43444Y-50574D02*
X43444Y-52574D01*
X43444Y-52574D02*
X39444Y-52574D01*
X38444Y-50574D02*
X38444Y-51574D01*
X38444Y-52574D02*
X39444Y-52574D01*
X38444Y-51574D02*
X39444Y-51574D01*
X39444Y-51574D02*
X39444Y-52574D01*
X38444Y-52574D02*
X38444Y-51574D01*
G54D14*
X40276Y-53740D02*
X40276Y-54018D01*
X40276Y-54018D02*
X40826Y-54018D01*
X40826Y-54018D02*
X40826Y-53740D01*
X40276Y-53068D02*
X40276Y-53346D01*
X40276Y-53068D02*
X40826Y-53068D01*
X40826Y-53068D02*
X40826Y-53346D01*
X41063Y-53740D02*
X41063Y-54018D01*
X41063Y-54018D02*
X41613Y-54018D01*
X41613Y-54018D02*
X41613Y-53740D01*
X41063Y-53068D02*
X41063Y-53346D01*
X41063Y-53068D02*
X41613Y-53068D01*
X41613Y-53068D02*
X41613Y-53346D01*
G54D15*
X31033Y-39120D02*
X31533Y-38620D01*
X31033Y-38620D02*
X33533Y-38620D01*
X33533Y-38620D02*
X33533Y-52120D01*
X33533Y-52120D02*
X31033Y-52120D01*
X31033Y-52120D02*
X31033Y-38620D01*
G54D14*
X38438Y-42463D02*
X38438Y-43363D01*
X38438Y-43363D02*
X37938Y-43363D01*
X37938Y-43363D02*
X37938Y-42463D01*
X37938Y-42463D02*
X38438Y-42463D01*
X41394Y-38438D02*
X40494Y-38438D01*
X40494Y-38438D02*
X40494Y-37938D01*
X40494Y-37938D02*
X41394Y-37938D01*
X41394Y-37938D02*
X41394Y-38438D01*
X46600Y-38245D02*
X46600Y-37345D01*
X46600Y-37345D02*
X47100Y-37345D01*
X47100Y-37345D02*
X47100Y-38245D01*
X47100Y-38245D02*
X46600Y-38245D01*
X39820Y-44738D02*
X38920Y-44738D01*
X38920Y-44738D02*
X38920Y-44238D01*
X38920Y-44238D02*
X39820Y-44238D01*
X39820Y-44238D02*
X39820Y-44738D01*
G54D16*
X38969Y-43051D02*
G75*
G03X38969Y-43051I-62J0D01*
G74*
G01*
X39870Y-42713D02*
X39870Y-43113D01*
X38845Y-42713D02*
X38845Y-43113D01*
X39870Y-43113D02*
X38845Y-43113D01*
X38845Y-42713D02*
X39870Y-42713D01*
G54D13*
X38444Y-46637D02*
X43444Y-46637D01*
X43444Y-46637D02*
X43444Y-48637D01*
X43444Y-48637D02*
X39444Y-48637D01*
X38444Y-46637D02*
X38444Y-47637D01*
X38444Y-48637D02*
X39444Y-48637D01*
X38444Y-47637D02*
X39444Y-47637D01*
X39444Y-47637D02*
X39444Y-48637D01*
X38444Y-48637D02*
X38444Y-47637D01*
X54787Y-43488D02*
X46787Y-43488D01*
X47787Y-45488D02*
X54787Y-45488D01*
X54787Y-43488D02*
X54787Y-45488D01*
X46787Y-43488D02*
X46787Y-44488D01*
X46787Y-45488D02*
X47787Y-45488D01*
X46787Y-44488D02*
X47787Y-44488D01*
X47787Y-44488D02*
X47787Y-45488D01*
X46787Y-45488D02*
X46787Y-44488D01*
X46787Y-52574D02*
X54787Y-52574D01*
X53787Y-50574D02*
X46787Y-50574D01*
X46787Y-52574D02*
X46787Y-50574D01*
X54787Y-52574D02*
X54787Y-51574D01*
X54787Y-50574D02*
X53787Y-50574D01*
X54787Y-51574D02*
X53787Y-51574D01*
X53787Y-51574D02*
X53787Y-50574D01*
X54787Y-50574D02*
X54787Y-51574D01*
G54D17*
X54681Y-47031D02*
X54681Y-49531D01*
X54681Y-49531D02*
X47681Y-49531D01*
X47681Y-49531D02*
X47681Y-46531D01*
X47681Y-46531D02*
X54681Y-46531D01*
X54681Y-46531D02*
X54681Y-47031D01*
X47681Y-47781D02*
X48181Y-47781D01*
X48181Y-47781D02*
X48181Y-48281D01*
X48181Y-48281D02*
X47681Y-48281D01*
X39157Y-30358D02*
X41657Y-30358D01*
X41657Y-30358D02*
X41657Y-37358D01*
X41657Y-37358D02*
X38657Y-37358D01*
X38657Y-37358D02*
X38657Y-30358D01*
X38657Y-30358D02*
X39157Y-30358D01*
X39907Y-37358D02*
X39907Y-36858D01*
X39907Y-36858D02*
X40407Y-36858D01*
X40407Y-36858D02*
X40407Y-37358D01*
X54681Y-36007D02*
X54681Y-38507D01*
X54681Y-38507D02*
X47681Y-38507D01*
X47681Y-38507D02*
X47681Y-35507D01*
X47681Y-35507D02*
X54681Y-35507D01*
X54681Y-35507D02*
X54681Y-36007D01*
X47681Y-36757D02*
X48181Y-36757D01*
X48181Y-36757D02*
X48181Y-37257D01*
X48181Y-37257D02*
X47681Y-37257D01*
G54D14*
X47100Y-48368D02*
X47100Y-49268D01*
X47100Y-49268D02*
X46600Y-49268D01*
X46600Y-49268D02*
X46600Y-48368D01*
X46600Y-48368D02*
X47100Y-48368D01*
G54D18*
X34871Y-37081D02*
X34371Y-37081D01*
X34371Y-36891D01*
X34395Y-36843D01*
X34419Y-36819D01*
X34467Y-36795D01*
X34538Y-36795D01*
X34586Y-36819D01*
X34609Y-36843D01*
X34633Y-36891D01*
X34633Y-37081D01*
X34871Y-36319D02*
X34871Y-36605D01*
X34871Y-36462D02*
X34371Y-36462D01*
X34443Y-36510D01*
X34490Y-36557D01*
X34514Y-36605D01*
X43730Y-39148D02*
X43230Y-39148D01*
X43230Y-38958D01*
X43253Y-38910D01*
X43277Y-38886D01*
X43325Y-38862D01*
X43396Y-38862D01*
X43444Y-38886D01*
X43468Y-38910D01*
X43492Y-38958D01*
X43492Y-39148D01*
X43277Y-38672D02*
X43253Y-38648D01*
X43230Y-38600D01*
X43230Y-38481D01*
X43253Y-38434D01*
X43277Y-38410D01*
X43325Y-38386D01*
X43372Y-38386D01*
X43444Y-38410D01*
X43730Y-38696D01*
X43730Y-38386D01*
X46973Y-31820D02*
X46973Y-31320D01*
X47163Y-31320D01*
X47211Y-31344D01*
X47235Y-31368D01*
X47259Y-31415D01*
X47259Y-31487D01*
X47235Y-31534D01*
X47211Y-31558D01*
X47163Y-31582D01*
X46973Y-31582D01*
X47425Y-31320D02*
X47735Y-31320D01*
X47568Y-31511D01*
X47640Y-31511D01*
X47687Y-31534D01*
X47711Y-31558D01*
X47735Y-31606D01*
X47735Y-31725D01*
X47711Y-31773D01*
X47687Y-31796D01*
X47640Y-31820D01*
X47497Y-31820D01*
X47449Y-31796D01*
X47425Y-31773D01*
X45792Y-40186D02*
X45792Y-39686D01*
X45982Y-39686D01*
X46030Y-39710D01*
X46054Y-39734D01*
X46078Y-39782D01*
X46078Y-39853D01*
X46054Y-39901D01*
X46030Y-39924D01*
X45982Y-39948D01*
X45792Y-39948D01*
X46506Y-39853D02*
X46506Y-40186D01*
X46387Y-39663D02*
X46268Y-40020D01*
X46578Y-40020D01*
X35954Y-53124D02*
X35454Y-53124D01*
X35454Y-52934D01*
X35478Y-52886D01*
X35502Y-52863D01*
X35549Y-52839D01*
X35621Y-52839D01*
X35668Y-52863D01*
X35692Y-52886D01*
X35716Y-52934D01*
X35716Y-53124D01*
X35454Y-52386D02*
X35454Y-52624D01*
X35692Y-52648D01*
X35668Y-52624D01*
X35645Y-52577D01*
X35645Y-52458D01*
X35668Y-52410D01*
X35692Y-52386D01*
X35740Y-52363D01*
X35859Y-52363D01*
X35906Y-52386D01*
X35930Y-52410D01*
X35954Y-52458D01*
X35954Y-52577D01*
X35930Y-52624D01*
X35906Y-52648D01*
X40477Y-50324D02*
X40477Y-49824D01*
X40667Y-49824D01*
X40715Y-49848D01*
X40739Y-49872D01*
X40763Y-49919D01*
X40763Y-49991D01*
X40739Y-50038D01*
X40715Y-50062D01*
X40667Y-50086D01*
X40477Y-50086D01*
X41048Y-50038D02*
X41001Y-50015D01*
X40977Y-49991D01*
X40953Y-49943D01*
X40953Y-49919D01*
X40977Y-49872D01*
X41001Y-49848D01*
X41048Y-49824D01*
X41144Y-49824D01*
X41191Y-49848D01*
X41215Y-49872D01*
X41239Y-49919D01*
X41239Y-49943D01*
X41215Y-49991D01*
X41191Y-50015D01*
X41144Y-50038D01*
X41048Y-50038D01*
X41001Y-50062D01*
X40977Y-50086D01*
X40953Y-50134D01*
X40953Y-50229D01*
X40977Y-50276D01*
X41001Y-50300D01*
X41048Y-50324D01*
X41144Y-50324D01*
X41191Y-50300D01*
X41215Y-50276D01*
X41239Y-50229D01*
X41239Y-50134D01*
X41215Y-50086D01*
X41191Y-50062D01*
X41144Y-50038D01*
G54D19*
X40521Y-54419D02*
X40461Y-54326D01*
X40418Y-54419D02*
X40418Y-54222D01*
X40486Y-54222D01*
X40504Y-54232D01*
X40512Y-54241D01*
X40521Y-54260D01*
X40521Y-54288D01*
X40512Y-54307D01*
X40504Y-54316D01*
X40486Y-54326D01*
X40418Y-54326D01*
X40692Y-54419D02*
X40589Y-54419D01*
X40641Y-54419D02*
X40641Y-54222D01*
X40624Y-54250D01*
X40606Y-54269D01*
X40589Y-54279D01*
X40628Y-53633D02*
X40525Y-53633D01*
X40576Y-53633D02*
X40576Y-53433D01*
X40559Y-53462D01*
X40542Y-53481D01*
X40525Y-53490D01*
X40705Y-53633D02*
X40705Y-53433D01*
X40722Y-53557D02*
X40773Y-53633D01*
X40773Y-53500D02*
X40705Y-53576D01*
X41308Y-54419D02*
X41248Y-54326D01*
X41205Y-54419D02*
X41205Y-54222D01*
X41274Y-54222D01*
X41291Y-54232D01*
X41300Y-54241D01*
X41308Y-54260D01*
X41308Y-54288D01*
X41300Y-54307D01*
X41291Y-54316D01*
X41274Y-54326D01*
X41205Y-54326D01*
X41377Y-54241D02*
X41385Y-54232D01*
X41402Y-54222D01*
X41445Y-54222D01*
X41462Y-54232D01*
X41471Y-54241D01*
X41480Y-54260D01*
X41480Y-54279D01*
X41471Y-54307D01*
X41368Y-54419D01*
X41480Y-54419D01*
X41317Y-53633D02*
X41214Y-53633D01*
X41265Y-53633D02*
X41265Y-53433D01*
X41248Y-53462D01*
X41231Y-53481D01*
X41214Y-53490D01*
X41394Y-53633D02*
X41394Y-53433D01*
X41411Y-53557D02*
X41462Y-53633D01*
X41462Y-53500D02*
X41394Y-53576D01*
G54D15*
X32133Y-38004D02*
X32133Y-38323D01*
X32152Y-38360D01*
X32170Y-38379D01*
X32208Y-38398D01*
X32283Y-38398D01*
X32320Y-38379D01*
X32339Y-38360D01*
X32358Y-38323D01*
X32358Y-38004D01*
X32752Y-38398D02*
X32527Y-38398D01*
X32639Y-38398D02*
X32639Y-38004D01*
X32602Y-38060D01*
X32564Y-38098D01*
X32527Y-38116D01*
X34069Y-45408D02*
X33882Y-45539D01*
X34069Y-45633D02*
X33676Y-45633D01*
X33676Y-45483D01*
X33694Y-45445D01*
X33713Y-45426D01*
X33751Y-45408D01*
X33807Y-45408D01*
X33844Y-45426D01*
X33863Y-45445D01*
X33882Y-45483D01*
X33882Y-45633D01*
X33957Y-45258D02*
X33957Y-45070D01*
X34069Y-45295D02*
X33676Y-45164D01*
X34069Y-45033D01*
X34051Y-44920D02*
X34069Y-44864D01*
X34069Y-44770D01*
X34051Y-44733D01*
X34032Y-44714D01*
X33994Y-44695D01*
X33957Y-44695D01*
X33919Y-44714D01*
X33901Y-44733D01*
X33882Y-44770D01*
X33863Y-44845D01*
X33844Y-44883D01*
X33826Y-44902D01*
X33788Y-44920D01*
X33751Y-44920D01*
X33713Y-44902D01*
X33694Y-44883D01*
X33676Y-44845D01*
X33676Y-44752D01*
X33694Y-44695D01*
X34069Y-44527D02*
X33676Y-44527D01*
X33676Y-44377D01*
X33694Y-44339D01*
X33713Y-44320D01*
X33751Y-44302D01*
X33807Y-44302D01*
X33844Y-44320D01*
X33863Y-44339D01*
X33882Y-44377D01*
X33882Y-44527D01*
X33863Y-44002D02*
X33882Y-43945D01*
X33901Y-43927D01*
X33938Y-43908D01*
X33994Y-43908D01*
X34032Y-43927D01*
X34051Y-43945D01*
X34069Y-43983D01*
X34069Y-44133D01*
X33676Y-44133D01*
X33676Y-44002D01*
X33694Y-43964D01*
X33713Y-43945D01*
X33751Y-43927D01*
X33788Y-43927D01*
X33826Y-43945D01*
X33844Y-43964D01*
X33863Y-44002D01*
X33863Y-44133D01*
X33863Y-43739D02*
X33863Y-43608D01*
X34069Y-43552D02*
X34069Y-43739D01*
X33676Y-43739D01*
X33676Y-43552D01*
X34069Y-43158D02*
X33882Y-43289D01*
X34069Y-43383D02*
X33676Y-43383D01*
X33676Y-43233D01*
X33694Y-43196D01*
X33713Y-43177D01*
X33751Y-43158D01*
X33807Y-43158D01*
X33844Y-43177D01*
X33863Y-43196D01*
X33882Y-43233D01*
X33882Y-43383D01*
X34069Y-42764D02*
X33882Y-42896D01*
X34069Y-42989D02*
X33676Y-42989D01*
X33676Y-42839D01*
X33694Y-42802D01*
X33713Y-42783D01*
X33751Y-42764D01*
X33807Y-42764D01*
X33844Y-42783D01*
X33863Y-42802D01*
X33882Y-42839D01*
X33882Y-42989D01*
X33882Y-42521D02*
X34069Y-42521D01*
X33676Y-42652D02*
X33882Y-42521D01*
X33676Y-42389D01*
X34107Y-42352D02*
X34107Y-42052D01*
X34069Y-41733D02*
X33882Y-41864D01*
X34069Y-41958D02*
X33676Y-41958D01*
X33676Y-41808D01*
X33694Y-41771D01*
X33713Y-41752D01*
X33751Y-41733D01*
X33807Y-41733D01*
X33844Y-41752D01*
X33863Y-41771D01*
X33882Y-41808D01*
X33882Y-41958D01*
X33676Y-41621D02*
X34069Y-41489D01*
X33676Y-41358D01*
X33713Y-41246D02*
X33694Y-41227D01*
X33676Y-41190D01*
X33676Y-41096D01*
X33694Y-41058D01*
X33713Y-41040D01*
X33751Y-41021D01*
X33788Y-41021D01*
X33844Y-41040D01*
X34069Y-41264D01*
X34069Y-41021D01*
G54D19*
X38260Y-42155D02*
X38269Y-42164D01*
X38279Y-42190D01*
X38279Y-42207D01*
X38269Y-42233D01*
X38250Y-42250D01*
X38231Y-42258D01*
X38193Y-42267D01*
X38165Y-42267D01*
X38127Y-42258D01*
X38108Y-42250D01*
X38088Y-42233D01*
X38079Y-42207D01*
X38079Y-42190D01*
X38088Y-42164D01*
X38098Y-42155D01*
X38279Y-41984D02*
X38279Y-42087D01*
X38279Y-42035D02*
X38079Y-42035D01*
X38108Y-42053D01*
X38127Y-42070D01*
X38136Y-42087D01*
X40914Y-38260D02*
X40906Y-38269D01*
X40880Y-38279D01*
X40863Y-38279D01*
X40837Y-38269D01*
X40820Y-38250D01*
X40812Y-38231D01*
X40803Y-38193D01*
X40803Y-38165D01*
X40812Y-38127D01*
X40820Y-38108D01*
X40837Y-38088D01*
X40863Y-38079D01*
X40880Y-38079D01*
X40906Y-38088D01*
X40914Y-38098D01*
X40983Y-38098D02*
X40992Y-38088D01*
X41009Y-38079D01*
X41052Y-38079D01*
X41069Y-38088D01*
X41077Y-38098D01*
X41086Y-38117D01*
X41086Y-38136D01*
X41077Y-38165D01*
X40974Y-38279D01*
X41086Y-38279D01*
X46921Y-37037D02*
X46931Y-37046D01*
X46940Y-37072D01*
X46940Y-37089D01*
X46931Y-37115D01*
X46912Y-37132D01*
X46893Y-37140D01*
X46855Y-37149D01*
X46826Y-37149D01*
X46788Y-37140D01*
X46769Y-37132D01*
X46750Y-37115D01*
X46740Y-37089D01*
X46740Y-37072D01*
X46750Y-37046D01*
X46759Y-37037D01*
X46740Y-36977D02*
X46740Y-36866D01*
X46817Y-36926D01*
X46817Y-36900D01*
X46826Y-36883D01*
X46836Y-36875D01*
X46855Y-36866D01*
X46902Y-36866D01*
X46921Y-36875D01*
X46931Y-36883D01*
X46940Y-36900D01*
X46940Y-36952D01*
X46931Y-36969D01*
X46921Y-36977D01*
X38552Y-44559D02*
X38544Y-44569D01*
X38518Y-44578D01*
X38501Y-44578D01*
X38475Y-44569D01*
X38458Y-44550D01*
X38449Y-44531D01*
X38441Y-44492D01*
X38441Y-44464D01*
X38449Y-44426D01*
X38458Y-44407D01*
X38475Y-44388D01*
X38501Y-44378D01*
X38518Y-44378D01*
X38544Y-44388D01*
X38552Y-44397D01*
X38706Y-44445D02*
X38706Y-44578D01*
X38664Y-44369D02*
X38621Y-44511D01*
X38732Y-44511D01*
G54D20*
X39830Y-42256D02*
X39830Y-42499D01*
X39844Y-42528D01*
X39859Y-42542D01*
X39887Y-42556D01*
X39944Y-42556D01*
X39973Y-42542D01*
X39987Y-42528D01*
X40001Y-42499D01*
X40001Y-42256D01*
X40273Y-42356D02*
X40273Y-42556D01*
X40201Y-42242D02*
X40130Y-42456D01*
X40316Y-42456D01*
G54D21*
G54D18*
X40337Y-46363D02*
X40337Y-45863D01*
X40528Y-45863D01*
X40575Y-45887D01*
X40599Y-45911D01*
X40623Y-45959D01*
X40623Y-46030D01*
X40599Y-46078D01*
X40575Y-46102D01*
X40528Y-46125D01*
X40337Y-46125D01*
X41099Y-46363D02*
X40813Y-46363D01*
X40956Y-46363D02*
X40956Y-45863D01*
X40909Y-45935D01*
X40861Y-45983D01*
X40813Y-46006D01*
X41575Y-46363D02*
X41290Y-46363D01*
X41432Y-46363D02*
X41432Y-45863D01*
X41385Y-45935D01*
X41337Y-45983D01*
X41290Y-46006D01*
X45849Y-43336D02*
X45849Y-42836D01*
X46040Y-42836D01*
X46087Y-42860D01*
X46111Y-42884D01*
X46135Y-42931D01*
X46135Y-43003D01*
X46111Y-43050D01*
X46087Y-43074D01*
X46040Y-43098D01*
X45849Y-43098D01*
X46611Y-43336D02*
X46325Y-43336D01*
X46468Y-43336D02*
X46468Y-42836D01*
X46420Y-42907D01*
X46373Y-42955D01*
X46325Y-42979D01*
X46801Y-42884D02*
X46825Y-42860D01*
X46873Y-42836D01*
X46992Y-42836D01*
X47040Y-42860D01*
X47063Y-42884D01*
X47087Y-42931D01*
X47087Y-42979D01*
X47063Y-43050D01*
X46778Y-43336D01*
X47087Y-43336D01*
X50180Y-53300D02*
X50180Y-52800D01*
X50370Y-52800D01*
X50418Y-52824D01*
X50442Y-52848D01*
X50465Y-52896D01*
X50465Y-52967D01*
X50442Y-53015D01*
X50418Y-53039D01*
X50370Y-53062D01*
X50180Y-53062D01*
X50942Y-53300D02*
X50656Y-53300D01*
X50799Y-53300D02*
X50799Y-52800D01*
X50751Y-52872D01*
X50704Y-52920D01*
X50656Y-52943D01*
X51108Y-52800D02*
X51418Y-52800D01*
X51251Y-52991D01*
X51323Y-52991D01*
X51370Y-53015D01*
X51394Y-53039D01*
X51418Y-53086D01*
X51418Y-53205D01*
X51394Y-53253D01*
X51370Y-53277D01*
X51323Y-53300D01*
X51180Y-53300D01*
X51132Y-53277D01*
X51108Y-53253D01*
G54D22*
X50723Y-47204D02*
X50723Y-47690D01*
X50752Y-47747D01*
X50781Y-47776D01*
X50838Y-47804D01*
X50952Y-47804D01*
X51009Y-47776D01*
X51038Y-47747D01*
X51066Y-47690D01*
X51066Y-47204D01*
X51638Y-47204D02*
X51352Y-47204D01*
X51323Y-47490D01*
X51352Y-47462D01*
X51409Y-47433D01*
X51552Y-47433D01*
X51609Y-47462D01*
X51638Y-47490D01*
X51666Y-47547D01*
X51666Y-47690D01*
X51638Y-47747D01*
X51609Y-47776D01*
X51552Y-47804D01*
X51409Y-47804D01*
X51352Y-47776D01*
X51323Y-47747D01*
X48952Y-48802D02*
X48952Y-48202D01*
X49152Y-48631D01*
X49352Y-48202D01*
X49352Y-48802D01*
X49981Y-48745D02*
X49952Y-48774D01*
X49866Y-48802D01*
X49809Y-48802D01*
X49723Y-48774D01*
X49666Y-48717D01*
X49638Y-48660D01*
X49609Y-48545D01*
X49609Y-48460D01*
X49638Y-48345D01*
X49666Y-48288D01*
X49723Y-48231D01*
X49809Y-48202D01*
X49866Y-48202D01*
X49952Y-48231D01*
X49981Y-48260D01*
X50238Y-48802D02*
X50238Y-48202D01*
X50466Y-48202D01*
X50523Y-48231D01*
X50552Y-48260D01*
X50581Y-48317D01*
X50581Y-48402D01*
X50552Y-48460D01*
X50523Y-48488D01*
X50466Y-48517D01*
X50238Y-48517D01*
X50809Y-48260D02*
X50838Y-48231D01*
X50895Y-48202D01*
X51038Y-48202D01*
X51095Y-48231D01*
X51123Y-48260D01*
X51152Y-48317D01*
X51152Y-48374D01*
X51123Y-48460D01*
X50781Y-48802D01*
X51152Y-48802D01*
X51352Y-48202D02*
X51723Y-48202D01*
X51523Y-48431D01*
X51609Y-48431D01*
X51666Y-48460D01*
X51695Y-48488D01*
X51723Y-48545D01*
X51723Y-48688D01*
X51695Y-48745D01*
X51666Y-48774D01*
X51609Y-48802D01*
X51438Y-48802D01*
X51381Y-48774D01*
X51352Y-48745D01*
X52095Y-48202D02*
X52152Y-48202D01*
X52209Y-48231D01*
X52238Y-48260D01*
X52266Y-48317D01*
X52295Y-48431D01*
X52295Y-48574D01*
X52266Y-48688D01*
X52238Y-48745D01*
X52209Y-48774D01*
X52152Y-48802D01*
X52095Y-48802D01*
X52038Y-48774D01*
X52009Y-48745D01*
X51981Y-48688D01*
X51952Y-48574D01*
X51952Y-48431D01*
X51981Y-48317D01*
X52009Y-48260D01*
X52038Y-48231D01*
X52095Y-48202D01*
X52866Y-48802D02*
X52523Y-48802D01*
X52695Y-48802D02*
X52695Y-48202D01*
X52638Y-48288D01*
X52581Y-48345D01*
X52523Y-48374D01*
X53066Y-48202D02*
X53466Y-48202D01*
X53209Y-48802D01*
X39330Y-34315D02*
X39816Y-34315D01*
X39873Y-34286D01*
X39902Y-34258D01*
X39930Y-34201D01*
X39930Y-34086D01*
X39902Y-34029D01*
X39873Y-34001D01*
X39816Y-33972D01*
X39330Y-33972D01*
X39388Y-33715D02*
X39359Y-33686D01*
X39330Y-33629D01*
X39330Y-33486D01*
X39359Y-33429D01*
X39388Y-33401D01*
X39445Y-33372D01*
X39502Y-33372D01*
X39588Y-33401D01*
X39930Y-33743D01*
X39930Y-33372D01*
X40928Y-36086D02*
X40328Y-36086D01*
X40757Y-35886D01*
X40328Y-35686D01*
X40928Y-35686D01*
X40871Y-35058D02*
X40900Y-35086D01*
X40928Y-35172D01*
X40928Y-35229D01*
X40900Y-35315D01*
X40843Y-35372D01*
X40786Y-35401D01*
X40671Y-35429D01*
X40586Y-35429D01*
X40471Y-35401D01*
X40414Y-35372D01*
X40357Y-35315D01*
X40328Y-35229D01*
X40328Y-35172D01*
X40357Y-35086D01*
X40386Y-35058D01*
X40928Y-34801D02*
X40328Y-34801D01*
X40328Y-34572D01*
X40357Y-34515D01*
X40386Y-34486D01*
X40443Y-34458D01*
X40528Y-34458D01*
X40586Y-34486D01*
X40614Y-34515D01*
X40643Y-34572D01*
X40643Y-34801D01*
X40386Y-34229D02*
X40357Y-34201D01*
X40328Y-34143D01*
X40328Y-34001D01*
X40357Y-33943D01*
X40386Y-33915D01*
X40443Y-33886D01*
X40500Y-33886D01*
X40586Y-33915D01*
X40928Y-34258D01*
X40928Y-33886D01*
X40328Y-33686D02*
X40328Y-33315D01*
X40557Y-33515D01*
X40557Y-33429D01*
X40586Y-33372D01*
X40614Y-33343D01*
X40671Y-33315D01*
X40814Y-33315D01*
X40871Y-33343D01*
X40900Y-33372D01*
X40928Y-33429D01*
X40928Y-33601D01*
X40900Y-33658D01*
X40871Y-33686D01*
X40328Y-32943D02*
X40328Y-32886D01*
X40357Y-32829D01*
X40386Y-32801D01*
X40443Y-32772D01*
X40557Y-32743D01*
X40700Y-32743D01*
X40814Y-32772D01*
X40871Y-32801D01*
X40900Y-32829D01*
X40928Y-32886D01*
X40928Y-32943D01*
X40900Y-33001D01*
X40871Y-33029D01*
X40814Y-33058D01*
X40700Y-33086D01*
X40557Y-33086D01*
X40443Y-33058D01*
X40386Y-33029D01*
X40357Y-33001D01*
X40328Y-32943D01*
X40928Y-32172D02*
X40928Y-32515D01*
X40928Y-32343D02*
X40328Y-32343D01*
X40414Y-32401D01*
X40471Y-32458D01*
X40500Y-32515D01*
X40328Y-31972D02*
X40328Y-31572D01*
X40928Y-31829D01*
X50723Y-36181D02*
X50723Y-36667D01*
X50752Y-36724D01*
X50781Y-36752D01*
X50838Y-36781D01*
X50952Y-36781D01*
X51009Y-36752D01*
X51038Y-36724D01*
X51066Y-36667D01*
X51066Y-36181D01*
X51295Y-36181D02*
X51666Y-36181D01*
X51466Y-36409D01*
X51552Y-36409D01*
X51609Y-36438D01*
X51638Y-36467D01*
X51666Y-36524D01*
X51666Y-36667D01*
X51638Y-36724D01*
X51609Y-36752D01*
X51552Y-36781D01*
X51381Y-36781D01*
X51323Y-36752D01*
X51295Y-36724D01*
X48952Y-37779D02*
X48952Y-37179D01*
X49152Y-37607D01*
X49352Y-37179D01*
X49352Y-37779D01*
X49981Y-37722D02*
X49952Y-37750D01*
X49866Y-37779D01*
X49809Y-37779D01*
X49723Y-37750D01*
X49666Y-37693D01*
X49638Y-37636D01*
X49609Y-37522D01*
X49609Y-37436D01*
X49638Y-37322D01*
X49666Y-37265D01*
X49723Y-37207D01*
X49809Y-37179D01*
X49866Y-37179D01*
X49952Y-37207D01*
X49981Y-37236D01*
X50238Y-37779D02*
X50238Y-37179D01*
X50466Y-37179D01*
X50523Y-37207D01*
X50552Y-37236D01*
X50581Y-37293D01*
X50581Y-37379D01*
X50552Y-37436D01*
X50523Y-37465D01*
X50466Y-37493D01*
X50238Y-37493D01*
X50809Y-37236D02*
X50838Y-37207D01*
X50895Y-37179D01*
X51038Y-37179D01*
X51095Y-37207D01*
X51123Y-37236D01*
X51152Y-37293D01*
X51152Y-37350D01*
X51123Y-37436D01*
X50781Y-37779D01*
X51152Y-37779D01*
X51352Y-37179D02*
X51723Y-37179D01*
X51523Y-37407D01*
X51609Y-37407D01*
X51666Y-37436D01*
X51695Y-37465D01*
X51723Y-37522D01*
X51723Y-37665D01*
X51695Y-37722D01*
X51666Y-37750D01*
X51609Y-37779D01*
X51438Y-37779D01*
X51381Y-37750D01*
X51352Y-37722D01*
X52095Y-37179D02*
X52152Y-37179D01*
X52209Y-37207D01*
X52238Y-37236D01*
X52266Y-37293D01*
X52295Y-37407D01*
X52295Y-37550D01*
X52266Y-37665D01*
X52238Y-37722D01*
X52209Y-37750D01*
X52152Y-37779D01*
X52095Y-37779D01*
X52038Y-37750D01*
X52009Y-37722D01*
X51981Y-37665D01*
X51952Y-37550D01*
X51952Y-37407D01*
X51981Y-37293D01*
X52009Y-37236D01*
X52038Y-37207D01*
X52095Y-37179D01*
X52866Y-37779D02*
X52523Y-37779D01*
X52695Y-37779D02*
X52695Y-37179D01*
X52638Y-37265D01*
X52581Y-37322D01*
X52523Y-37350D01*
X53066Y-37179D02*
X53466Y-37179D01*
X53209Y-37779D01*
G54D19*
X46921Y-48061D02*
X46931Y-48070D01*
X46940Y-48095D01*
X46940Y-48112D01*
X46931Y-48138D01*
X46912Y-48155D01*
X46893Y-48164D01*
X46855Y-48172D01*
X46826Y-48172D01*
X46788Y-48164D01*
X46769Y-48155D01*
X46750Y-48138D01*
X46740Y-48112D01*
X46740Y-48095D01*
X46750Y-48070D01*
X46759Y-48061D01*
X46740Y-47898D02*
X46740Y-47984D01*
X46836Y-47992D01*
X46826Y-47984D01*
X46817Y-47967D01*
X46817Y-47924D01*
X46826Y-47907D01*
X46836Y-47898D01*
X46855Y-47890D01*
X46902Y-47890D01*
X46921Y-47898D01*
X46931Y-47907D01*
X46940Y-47924D01*
X46940Y-47967D01*
X46931Y-47984D01*
X46921Y-47992D01*
M02*
